# ProBuilder 5.0.4
# https://unity3d.com/unity/features/worldbuilding/probuilder
# 5/19/2022 8:33:20 PM

mtllib ./Weapon-Fuse-0.mtl
o Weapon-Fuse-0

g Weapon-Fuse-0
v -0.01 -0.0025 0
v -0.01 0.0025 0
v -0.007071068 -0.0025 0.007071068
v -0.007071068 0.0025 0.007071068
v 4.371139E-10 -0.0025 0.01
v 4.371139E-10 0.0025 0.01
v 0.007071068 -0.0025 0.007071068
v 0.007071068 0.0025 0.007071068
v 0.01 -0.0025 -8.742277E-10
v 0.01 0.0025 -8.742277E-10
v 0.007071068 -0.0025 -0.007071067
v 0.007071068 0.0025 -0.007071067
v -1.192488E-10 -0.0025 -0.01
v -1.192488E-10 0.0025 -0.01
v -0.007071066 -0.0025 -0.007071069
v -0.007071066 0.0025 -0.007071069
v 0 -0.0025 0
v 3.832189E-05 -0.002500005 0.02009239
v 3.832427E-05 0.002499998 0.02009239
v 0.00710937 -0.002499999 0.02716345
v 0.007109357 0.002499996 0.02716345
v 0.003573841 0.002499997 0.02362792
v 0.003535534 0.0025 0.008535534
v 0.003535571 0.0116 0.008535537
v 0.007071095 0.0116 0.007071066
v 0.007109391 0.0116 0.02716345
v 0.003573867 0.0116 0.02362793
v -0.00499998 0.006500002 4.768402E-09
v -0.003535523 0.006500002 0.003535544
v 1.529566E-08 0.0065 4.768403E-09
v 1.529566E-08 0.006500001 0.005
v 0.003535554 0.006499999 0.003535544
v 0.00500001 0.006500004 4.768401E-09
v 0.003535554 0.006500004 -0.003535534
v 1.529566E-08 0.006499998 -0.004999991
v -0.003535523 0.0065 -0.003535534

vt -0.003826834 -0.0025
vt -0.003826834 0.0025
vt 0.003826834 -0.0025
vt 0.003826834 0.0025
vt -0.01 0
vt 0 0
vt -0.007071068 0.007071068
vt 4.371139E-10 0.01
vt 0.007071068 0.007071068
vt 0.01 -8.742277E-10
vt 0.007071068 -0.007071067
vt -1.192488E-10 -0.01
vt -0.007071066 -0.007071069
vt 0.009999928 -0.0025
vt 0.009999928 0.0025
vt 0.02009239 -0.002500005
vt 0.02009239 0.002499998
vt 0.00710937 0.02716345
vt 3.832181E-05 0.02009239
vt -0.00708453 0.0025
vt -0.00708453 -0.0025
vt -0.02717695 0.002499996
vt -0.02717695 -0.002499999
vt 0.01423459 -0.002499999
vt 0.01423459 0.002500004
vt 0.01923457 0.002500003
vt 0.02423456 0.002500003
vt 0.02423457 -0.002499992
vt -0.003535534 0.008535533
vt -0.00357384 0.02362792
vt -0.007109384 0.02716345
vt 1.512904E-09 0.002500017
vt -0.003826833 0.002500017
vt -3.183508E-08 0.01160002
vt -0.003826858 0.01160002
vt 0.02363691 0.002500007
vt 0.008544479 0.00250001
vt 0.02363692 0.01160001
vt 0.008544482 0.01160001
vt -0.00708453 0.002500021
vt -0.02717695 0.002500018
vt -0.007084529 0.01160002
vt -0.02717695 0.01160002
vt 0.02423457 0.002499957
vt 0.01923458 0.002499957
vt 0.02423459 0.01159996
vt 0.0192346 0.01159996
vt 0.008640849 -0.0007512595
vt 0.002610804 -0.001039158
vt 0.001226169 0.002528398
vt 0.00587156 0.006383842
vt -0.002116663 -0.0008215122
vt 0.002582097 0.001108597
vt -0.0009180042 0.002655838
vt -0.0003530731 0.008666245
vt 0.006647121 0.005571746
vt -0.000918004 -0.002076634
vt -0.00314702 0.007118998
vt 0.0009179828 0.002655841
vt -0.002582119 0.0011086
vt -0.006647117 0.005571746
vt 0.0009179827 -0.002076631
vt 0.002116645 -0.0008215194
vt -0.002610818 -0.001039168
vt -0.001226185 0.002528388
vt -0.008640838 -0.0007512682
vt -0.005871551 0.006383835
vt 0.002116648 0.0008215209
vt -0.00122618 -0.002528388
vt -0.005871549 -0.006383841
vt -0.008640836 0.0007512601
vt 0.0009179729 -0.002655836
vt 0.0003530725 -0.008666252
vt -0.006647122 -0.005571752
vt 0.0009179731 0.002076638
vt 0.006647119 -0.005571756
vt -0.0009180055 -0.002655843
vt -0.0009180058 0.002076633
vt 0.00864085 0.0007512606
vt 0.005871559 -0.006383842
vt 0.001226171 -0.002528387
vt -0.002116662 0.0008215231

vn -1 0 -8.06445E-08
vn -0.7071068 0 0.7071068
vn -0.3826834 0 0.9238796
vn 0.9238796 0 0.3826834
vn 1 0 -3.22578E-08
vn 0.7071068 0 -0.7071068
vn 1.61289E-08 0 -1
vn -0.7071067 0 -0.7071068
vn 0 -1 0
vn -0.9999928 0 0.003797036
vn 0.9999982 0 -0.001905667
vn 9.540867E-08 1 2.30337E-07
vn -0.3826836 1.850259E-06 -0.9238794
vn -0.9999967 2.91521E-06 0.002538139
vn -0.6047755 0.7559717 0.2505063
vn -0.2505052 0.7559698 0.6047783
vn 0.2505066 0.75597 0.6047776
vn 0.6047782 0.7559693 0.2505069
vn 0.6047795 0.7559686 -0.2505058
vn 0.2505045 0.7559691 -0.6047795
vn -0.2505054 0.7559712 -0.6047765
vn -0.6047752 0.755972 -0.2505062

usemtl Metal031-2
f 21/27/2 22/26/2 20/28/2
f 20/28/2 22/26/2 18/24/2
f 19/25/2 18/24/2 22/26/2
f 1/5/9 17/6/9 3/7/9
f 3/7/9 17/6/9 5/8/9
f 5/8/9 17/6/9 7/9/9
f 7/9/9 17/6/9 9/10/9
f 9/10/9 17/6/9 11/11/9
f 11/11/9 17/6/9 13/12/9
f 13/12/9 17/6/9 15/13/9
f 15/13/9 17/6/9 1/5/9
f 29/50/12 30/52/12 28/49/12
f 31/54/12 30/57/12 29/53/12
f 6/55/17 23/58/17 31/59/17
f 23/58/17 32/60/17 31/59/17
f 23/58/17 8/61/17 32/60/17
f 32/60/12 30/62/12 31/59/12
f 32/65/12 33/64/12 30/63/12
f 33/60/12 34/69/12 30/68/12
f 35/72/12 30/75/12 34/64/12
f 36/49/12 30/78/12 35/77/12
f 28/53/12 30/82/12 36/81/12
f 4/4/2 2/2/1 1/1/1
f 1/1/1 3/3/2 4/4/2
f 6/4/3 4/2/2 3/1/2
f 3/1/2 5/3/3 6/4/3
f 10/4/5 8/2/4 7/1/4
f 7/1/4 9/3/5 10/4/5
f 12/4/6 10/2/5 9/1/5
f 9/1/5 11/3/6 12/4/6
f 14/4/7 12/2/6 11/1/6
f 11/1/6 13/3/7 14/4/7
f 16/4/8 14/2/7 13/1/7
f 13/1/7 15/3/8 16/4/8
f 2/4/1 16/2/8 15/1/8
f 15/1/8 1/3/1 2/4/1
f 19/17/10 6/15/10 5/14/10
f 5/14/10 18/16/10 19/17/10
f 18/19/9 5/8/9 7/9/9
f 7/9/9 20/18/9 18/19/9
f 20/23/11 7/21/11 8/20/11
f 8/20/11 21/22/11 20/23/11
f 22/30/12 23/29/12 6/8/12
f 6/8/12 19/19/12 22/30/12
f 26/31/12 25/7/12 24/29/12
f 24/29/12 27/30/12 26/31/12
f 25/35/13 8/33/13 23/32/13
f 23/32/13 24/34/13 25/35/13
f 24/39/14 23/37/14 22/36/14
f 22/36/14 27/38/14 24/39/14
f 26/43/11 21/41/11 8/40/11
f 8/40/11 25/42/11 26/43/11
f 27/47/2 22/45/2 21/44/2
f 21/44/2 26/46/2 27/47/2
f 29/50/15 28/49/15 2/48/15
f 2/48/15 4/51/15 29/50/15
f 6/55/16 31/54/16 29/53/16
f 29/53/16 4/56/16 6/55/16
f 10/66/18 33/64/18 32/65/18
f 32/65/18 8/67/18 10/66/18
f 12/70/19 34/69/19 33/60/19
f 33/60/19 10/71/19 12/70/19
f 34/64/20 12/74/20 14/73/20
f 14/73/20 35/72/20 34/64/20
f 35/77/21 14/73/21 16/76/21
f 16/76/21 36/49/21 35/77/21
f 36/81/22 16/80/22 2/79/22
f 2/79/22 28/53/22 36/81/22

