# ProBuilder 5.0.6
# https://unity3d.com/unity/features/worldbuilding/probuilder
# 1/23/2023 2:38:13 AM

mtllib ./Cheyenne-Door-Type-0.mtl
o Cheyenne-Door-Type-0

g Cheyenne-Door-Type-0
v -2.5 -1.625 0.02499962
v -2.5 1.625 0.02499962
v -2.5 -1.625 -0.02499962
v -2.5 1.625 -0.02499962
v 0 1.625 0.02499962
v 0 -1.625 0.02499962
v -2.25 1.625 0.02499962
v -2.25 -1.625 0.02499962
v 0 -1.625 -0.02499962
v -2.25 -1.625 -0.02499962
v 0 1.625 -0.02499962
v -2.25 1.625 -0.02499962
v -2.25 1.625 0.1249995
v -2.25 -1.625 0.1249995
v -2.35 1.625 0.1249995
v -2.35 -1.625 0.1249995
v -2.35 -1.625 0.02499962
v -2.35 -1.625 -0.02499962
v -2.25 -1.625 -0.1249995
v -2.25 1.625 -0.1249995
v -2.35 -1.625 -0.1249995
v -2.35 1.625 -0.1249995
v -2.35 1.625 -0.02499962
v -2.35 1.625 0.02499962

vt 0.02499962 -1.625
vt 0.02499962 1.625
vt -0.02499962 -1.625
vt -0.02499962 1.625
vt 0 1.625
vt 0 -1.625
vt -2.25 1.625
vt -2.25 -1.625
vt 0 0.02499962
vt 0 -0.02499962
vt -2.25 0.02499962
vt -2.25 -0.02499962
vt 2.25 -1.625
vt 2.25 1.625
vt 2.25 -0.02499962
vt 2.25 0.02499962
vt -2.35 1.625
vt -2.35 -1.625
vt -2.35 0.02499962
vt -2.35 -0.02499962
vt 2.35 -1.625
vt 2.35 1.625
vt 2.35 -0.02499962
vt 2.35 0.02499962
vt -0.1249995 1.625
vt -0.1249995 -1.625
vt 2.35 0.1249995
vt 2.25 0.1249995
vt -2.25 0.1249995
vt -2.35 0.1249995
vt 0.1249995 -1.625
vt 0.1249995 1.625
vt -2.35 -0.1249995
vt -2.25 -0.1249995
vt 2.25 -0.1249995
vt 2.35 -0.1249995
vt -2.5 1.625
vt -2.5 -1.625
vt -2.5 0.02499962
vt -2.5 -0.02499962
vt 2.5 -1.625
vt 2.5 1.625
vt 2.5 -0.02499962
vt 2.5 0.02499962

vn -1 0 0
vn 0 0 1
vn 0 -1 0
vn 0 0 -1
vn 0 1 0
vn 1 0 0

usemtl Metal011
f 4/4/1 3/3/1 1/1/1 2/2/1
f 7/7/2 8/8/2 6/6/2 5/5/2
f 8/11/3 10/12/3 9/10/3 6/9/3
f 10/13/4 12/14/4 11/5/4 9/6/4
f 12/15/5 7/16/5 5/9/5 11/10/5
f 15/17/2 16/18/2 14/8/2 13/7/2
f 17/19/3 18/20/3 10/12/3 8/11/3
f 21/21/4 22/22/4 20/14/4 19/13/4
f 23/23/5 24/24/5 7/16/5 12/15/5
f 13/25/6 14/26/6 8/3/6 7/4/6
f 15/27/5 13/28/5 7/16/5 24/24/5
f 14/29/3 16/30/3 17/19/3 8/11/3
f 16/31/1 15/32/1 24/2/1 17/1/1
f 19/31/6 20/32/6 12/2/6 10/1/6
f 21/33/3 19/34/3 10/12/3 18/20/3
f 20/35/5 22/36/5 23/23/5 12/15/5
f 22/25/1 21/26/1 18/3/1 23/4/1
f 2/37/2 1/38/2 17/18/2 24/17/2
f 1/39/3 3/40/3 18/20/3 17/19/3
f 3/41/4 4/42/4 23/22/4 18/21/4
f 4/43/5 2/44/5 24/24/5 23/23/5

