# ProBuilder 5.0.6
# https://unity3d.com/unity/features/worldbuilding/probuilder
# 1/23/2023 1:10:18 AM

mtllib ./Light-Type-1.mtl
o Light-Type-1

g Light-Type-1
v 0.05250009 -0.05250006 -0.3750001
v 0.0525 -0.05249997 0.375
v 0.05250009 0.1874999 -0.3750001
v 0.0525 0.1875 0.375
v -0.1874999 -0.05250008 -0.3750001
v -0.1875 -0.05249997 0.375
v -0.1875 -0.06249997 0.375
v -0.1874999 -0.06250007 -0.3750001
v -0.2375 -0.06249997 0.425
v -0.2374999 -0.06250007 -0.4250001
v 0.06250009 0.1874999 -0.3750001
v 0.0625 0.1875 0.375
v 0.06250009 0.2374999 -0.4250001
v 0.0625 0.2375 0.425
v 0.06250009 -0.06250006 -0.3750001
v 0.06250009 -0.06250006 -0.4250001
v 0.0625 -0.06249997 0.375
v 0.0625 -0.06249997 0.425
v -0.2375 0.2375 0.425
v -0.1375002 0.2374999 0.4249996
v -0.1375002 0.2374998 -0.4250003
v -0.2374999 0.2374999 -0.4250001
v -0.1375002 0.2374999 0.2125
v -0.1375002 0.2374999 -0.2125002
v -0.2375 0.2375 0.2124999
v -0.2374999 0.2375 -0.2125001
v -0.2375001 0.3374998 0.2124999
v -0.2374996 0.3374998 -0.2125002
v -0.1625003 0.3374998 -0.2125002
v -0.1625003 0.3374998 0.2124999
v -0.1375002 0.3124997 -0.2125002
v -0.1375002 0.3124997 0.2124999

vt 0.3750001 -0.05250006
vt -0.375 -0.05249997
vt 0.3750001 0.1874999
vt -0.375 0.1875
vt 0.05250009 -0.3750001
vt -0.1874999 -0.3750001
vt 0.0525 0.375
vt -0.1875 0.375
vt -0.2375 0.425
vt -0.2374999 -0.4250001
vt 0.4250001 0.2374999
vt -0.425 0.2375
vt 0.06250008 -0.3750001
vt 0.06250008 -0.4250001
vt 0.0625 0.375
vt 0.0625 0.425
vt -0.375 -0.06249997
vt -0.425 -0.06249997
vt 0.3750001 -0.06250006
vt 0.4250001 -0.06250006
vt 0.06250009 0.1874999
vt 0.06250009 -0.06250006
vt 0.05250009 0.1874999
vt 0.05250009 -0.05250006
vt -0.0625 -0.06249997
vt -0.0625 0.1875
vt -0.0525 -0.05249997
vt -0.0525 0.1875
vt 0.0525 0.375
vt -0.1874999 -0.06250007
vt -0.1874999 -0.05250008
vt 0.1875 -0.06249997
vt 0.1875 -0.05249997
vt -0.2374999 -0.06250019
vt -0.2374999 0.2374998
vt -0.1375001 0.2374997
vt 0.06250009 0.2374998
vt 0.2374999 -0.06249998
vt -0.06250006 -0.06249996
vt -0.06250006 0.2375
vt 0.1375002 0.2374999
vt 0.2374999 0.2375
vt 0.1375001 0.4249996
vt 0.1375001 0.2125
vt 0.1375001 -0.2125002
vt 0.1375001 -0.4250003
vt -0.0625002 -0.4250001
vt -0.06250011 0.425
vt 0.2125 0.2375
vt 0.425 0.2375
vt 0.425 -0.06249997
vt -0.4250001 -0.06250007
vt -0.4250001 0.2374999
vt -0.2125001 0.2375
vt 0.2375002 0.425
vt 0.2375002 0.2125
vt 0.2374996 -0.2125002
vt 0.1125 -0.2125002
vt 0.1125 0.2125
vt 0.2375001 -0.2125001
vt 0.2375001 -0.4250001
vt -0.2125001 0.2375002
vt 0.2125 0.3375001
vt -0.2125002 0.3375001
vt 0.2125001 0.2375
vt -0.2125 0.2375001
vt 0.2125002 0.3124998
vt -0.2125 0.3124999
vt 0.3535534 -0.2125002
vt 0.3535535 0.2125
vt 0.318198 -0.2125002
vt 0.318198 0.2125
vt 0.1375 0.2375
vt 0.1375 0.3124999
vt 0.1625001 0.3374999
vt 0.2374995 0.3374999
vt -0.2375 0.2375
vt -0.2375001 0.3374998
vt -0.1625003 0.3374998
vt -0.1375002 0.3124997

vn 1 0 1.192093E-07
vn 6.208817E-08 -1 1.192093E-07
vn 0 0 1
vn 0 0 -1
vn -5.215398E-07 1 -1.402465E-07
vn -1 1.655684E-08 -1.168718E-07
vn 0.7071068 0.7071068 -9.916901E-08

usemtl Metal041A
f 20/36/3 18/22/3 14/37/3
f 18/22/3 20/36/3 9/34/3
f 20/36/3 19/35/3 9/34/3
f 19/50/6 25/49/6 9/51/6
f 9/51/6 25/49/6 10/52/6
f 10/52/6 25/49/6 26/54/6
f 26/54/6 22/53/6 10/52/6
f 10/38/4 22/42/4 21/41/4
f 10/38/4 21/41/4 16/39/4
f 13/40/4 16/39/4 21/41/4
f 24/45/5 13/47/5 21/46/5
f 23/44/5 13/47/5 24/45/5
f 14/48/5 23/44/5 20/43/5
f 13/47/5 23/44/5 14/48/5
f 26/42/4 28/76/4 29/75/4
f 26/42/4 29/75/4 24/73/4
f 29/75/4 31/74/4 24/73/4
f 23/36/3 32/80/3 30/79/3
f 23/36/3 30/79/3 25/77/3
f 30/79/3 27/78/3 25/77/3
f 10/10/2 8/6/2 7/8/2
f 7/8/2 9/9/2 10/10/2
f 14/12/1 12/4/1 11/3/1
f 11/3/1 13/11/1 14/12/1
f 16/14/2 15/13/2 8/6/2
f 8/6/2 10/10/2 16/14/2
f 9/9/2 7/8/2 17/15/2
f 17/15/2 18/16/2 9/9/2
f 18/18/1 17/17/1 12/4/1
f 12/4/1 14/12/1 18/18/1
f 13/11/1 11/3/1 15/19/1
f 15/19/1 16/20/1 13/11/1
f 6/2/1 7/17/1 8/19/1
f 8/19/1 5/1/1 6/2/1
f 1/24/3 15/22/3 11/21/3
f 11/21/3 3/23/3 1/24/3
f 4/28/4 12/26/4 17/25/4
f 17/25/4 2/27/4 4/28/4
f 3/5/2 11/13/2 12/15/2
f 12/15/2 4/29/2 3/5/2
f 5/31/3 8/30/3 15/22/3
f 15/22/3 1/24/3 5/31/3
f 2/27/4 17/25/4 7/32/4
f 7/32/4 6/33/4 2/27/4
f 23/44/5 25/56/5 19/55/5
f 19/55/5 20/43/5 23/44/5
f 29/58/5 28/57/5 27/56/5
f 27/56/5 30/59/5 29/58/5
f 21/46/5 22/61/5 26/60/5
f 26/60/5 24/45/5 21/46/5
f 28/64/6 26/62/6 25/49/6
f 25/49/6 27/63/6 28/64/6
f 32/68/1 23/66/1 24/65/1
f 24/65/1 31/67/1 32/68/1
f 31/71/7 29/69/7 30/70/7
f 30/70/7 32/72/7 31/71/7

usemtl Light-01_2
f 3/3/1 4/4/1 2/2/1 1/1/1
f 2/7/2 6/8/2 5/6/2 1/5/2

