# ProBuilder 5.0.4
# https://unity3d.com/unity/features/worldbuilding/probuilder
# 7/10/2022 11:02:16 PM

mtllib ./Chest-Soldier-Back.mtl
o Chest-Soldier-Back

g Chest-Soldier-Back
v 0.5 -0.5 0.125
v -0.5 -0.5 0.125
v 0.5 0.75 0.125
v -0.5 0.75 0.125
v -1 -0.5 0.125
v -1 -0.5 -0.25
v -1 0.5 0.125
v -1 0.5 -0.25
v -0.5 -0.5 -0.5
v 0.5 -0.5 -0.5
v -0.5 0.5 -0.5
v 0.5 0.5 -0.5
v 1 -0.5 -0.25
v 1 -0.5 0.125
v 1 0.5 -0.25
v 1 0.5 0.125
v 0.5 -1.25 0
v -0.5 -1.25 0
v 0.5 -1.25 0.375
v -0.5 -1.25 0.375
v -0.5 1.2503 0.375
v -0.5 1.2503 1
v -1 1.2503 0.375
v -1 1.2503 1
v 0.5 1.2503 1
v 0.5 1.2503 0.375
v 1 1.2503 1
v 1 1.2503 0.375
v -1 0.8751001 0
v -0.5 0.8751001 -0.25
v -0.5 0.8751001 0.375
v -1 0.8751001 0.375
v 1 0.8751001 0.375
v 0.5 0.8751001 0.375
v 0.5 0.8751001 -0.25
v 1 0.8751001 0
v -0.5 1.1252 0.25
v -0.5 1.1252 1.125
v -1 1.1252 0.25
v -1 1.1252 1.125
v 0.5 1.1252 1.125
v 0.5 1.1252 0.25
v 1 1.1252 1.125
v 1 1.1252 0.25
v -1.1251 1.1252 1.125
v -1.1251 1.1252 0.25
v -1.1251 1.2503 1
v -1.1251 1.2503 0.375
v 1.1251 1.1252 0.25
v 1.1251 1.1252 1.125
v 1.1251 1.2503 0.375
v 1.1251 1.2503 1
v 0.5 0.625 -0.1875
v -0.5 0.625 -0.1875
v 0.5 -1 -0.25
v -0.5 -1 -0.25
v 0.5 -1 0.125
v -0.5 -1 0.125
v 0.75 -1 0.125
v 0.75 -1 -0.25
v 0.75 -1.25 0.375
v 0.75 -1.25 0
v -0.75 -1 -0.25
v -0.75 -1 0.125
v -0.75 -1.25 0
v -0.75 -1.25 0.375
v -0.5 -1.8751 0.75
v -0.5 -1.8751 0.375
v -0.75 -1.8751 0.75
v -0.75 -1.8751 0.375
v 0.5 -1.8751 0.375
v 0.5 -1.8751 0.75
v 0.75 -1.8751 0.375
v 0.75 -1.8751 0.75

vt 0.35 0.18124
vt 0.2500001 0.18124
vt 0.35 0.30624
vt 0.2500001 0.30624
vt 0.24999 0.18124
vt 0.21249 0.18124
vt 0.24999 0.2812399
vt 0.21249 0.2812399
vt 0.8367589 0.7649925
vt 0.7622258 0.7651775
vt 0.8367589 0.8480057
vt 0.7622258 0.8481906
vt 0.32499 0.18124
vt 0.2874901 0.18124
vt 0.32499 0.2812399
vt 0.2874901 0.2812399
vt 0.35 0.09372993
vt 0.2500001 0.09372993
vt 0.35 0.13123
vt 0.2500001 0.13123
vt 0.2500001 0.10623
vt 0.2500001 0.04372998
vt 0.2 0.10623
vt 0.2 0.06872995
vt 0.2 0.2812399
vt 0.2 0.18124
vt 0.8741816 0.7704163
vt 0.8741816 0.8534295
vt 0.35 0.19373
vt 0.4 0.13123
vt 0.4 0.19373
vt 0.35 0.04372998
vt 0.35 0.10623
vt 0.4 0.06872995
vt 0.4 0.10623
vt 0.7251155 0.8537994
vt 0.7251155 0.7707862
vt 0.4 0.18124
vt 0.4 0.2812399
vt 0.2500001 0.19373
vt 0.2 0.19373
vt 0.2 0.13123
vt 0.8743379 0.890084
vt 0.8369151 0.8846602
vt 0.27499 0.31875
vt 0.23749 0.31875
vt 0.4 0.31875
vt 0.35 0.31875
vt 0.762382 0.8848452
vt 0.7252716 0.8904539
vt 0.29999 0.31875
vt 0.26249 0.31875
vt 0.32499 0.31875
vt 0.27499 0.34376
vt 0.18749 0.34376
vt 0.874494 0.9163619
vt 0.8372275 0.9164544
vt 0.2500001 0.20623
vt 0.2 0.20623
vt 0.3499901 0.34376
vt 0.26249 0.34376
vt 0.21249 0.31875
vt 0.4 0.20623
vt 0.35 0.20623
vt 0.7626944 0.9166394
vt 0.7254279 0.9167318
vt 0.26249 0.35627
vt 0.19999 0.35627
vt 0.8745721 0.929505
vt 0.8373056 0.9295975
vt 0.2500001 0.34376
vt 0.2 0.34376
vt 0.2500001 0.35627
vt 0.33749 0.35627
vt 0.27499 0.35627
vt 0.4 0.34376
vt 0.4 0.35627
vt 0.35 0.35627
vt 0.7627725 0.9297825
vt 0.7255059 0.929875
vt 0.7624211 0.8654627
vt 0.8369542 0.8652776
vt 0.7626163 0.8827347
vt 0.8371494 0.8825497
vt 0.3187401 0.29374
vt 0.2874901 0.30624
vt 0.3499901 0.2812399
vt 0.21874 0.29374
vt 0.18749 0.2812399
vt 0.24999 0.30624
vt 0.762382 0.7291872
vt 0.8369151 0.7290022
vt 0.2874901 0.13124
vt 0.32499 0.13124
vt 0.18749 0.18124
vt 0.21249 0.13124
vt 0.24999 0.13124
vt 0.7625382 0.7139502
vt 0.8370713 0.7137652
vt 0.26249 0.10624
vt 0.29999 0.10624
vt 0.23749 0.10624
vt 0.27499 0.10624
vt 0.35 0.06872995
vt 0.3750001 0.06872995
vt 0.3750001 0.10623
vt 0.8557045 0.713719
vt 0.8555484 0.728956
vt 0.225 0.13124
vt 0.225 0.10624
vt 0.2500001 0.16873
vt 0.225 0.16873
vt 0.2500001 0.06872995
vt 0.225 0.06872995
vt 0.3750001 0.13124
vt 0.7437487 0.7292334
vt 0.7439049 0.7139964
vt 0.35 0.16873
vt 0.3750001 0.16873
vt 0.27499 0.04372998
vt 0.31249 0.04372998
vt 0.7441392 0.6703793
vt 0.7627725 0.6703331
vt 0.3750001 0.04372998
vt 0.2249901 0.04372998
vt 0.26249 0.04372998
vt 0.8373056 0.6701481
vt 0.8559389 0.6701019
vt 0.2 0.11873
vt 0.18749 0.20623
vt 0.18749 0.11873
vt 0.18749 0.35627
vt 0.8838181 0.9163388
vt 0.8838962 0.9294819
vt 0.41251 0.13123
vt 0.41251 0.19373
vt 0.4 0.11873
vt 0.41251 0.11873
vt 0.41251 0.20623
vt 0.7161819 0.9298981
vt 0.7161037 0.916755
vt 0.41251 0.34376
vt 0.41251 0.35627
vt 0.18749 0.19373
vt 0.18749 0.13123

vn 0 0 1
vn -1 0 0
vn 0 0 -1
vn 1 0 0
vn 0 -1 0
vn -0.4472136 0 -0.8944272
vn 0 1 0
vn 0.4472136 0 -0.8944272
vn -0.3841375 0.5120466 -0.7682751
vn 0.4081938 -0.8163875 0.4085208
vn 0.2040969 -0.6854926 0.6203197
vn 0 -0.5545977 0.8321186
vn -0.2672154 -0.5344307 0.8018602
vn -0.1336077 -0.7143573 0.6246802
vn 0 -0.8942839 0.4475001
vn 0.3841375 0.5120466 -0.7682751
vn -0.3333926 0.6665183 -0.6667853
vn -0.1666963 0.7804369 -0.5570711
vn 0 0.8943555 -0.4473569
vn 0 -0.9486453 0.3163418
vn 0.2182845 0.8727883 -0.4365689
vn 0.1091422 0.7898767 -0.5719087
vn 0 0.7069652 -0.7072484
vn 0 0.7068236 0.7073898
vn 0 0.9284767 -0.3713907
vn 0 -0.4472136 -0.8944272
vn 0 -0.7071068 -0.7071068
vn 0 0.7071068 0.7071068
vn 0 -0.5144352 -0.8575293
vn 0 0.5144352 0.8575293

usemtl Default
f 54/85/4 11/87/4 30/53/4
f 12/89/2 53/88/2 35/62/2
f 4/4/1 2/2/1 1/1/1
f 1/1/1 3/3/1 4/4/1
f 8/8/2 6/6/2 5/5/2
f 5/5/2 7/7/2 8/8/2
f 12/12/3 10/10/3 9/9/3
f 9/9/3 11/11/3 12/12/3
f 16/16/4 14/14/4 13/13/4
f 13/13/4 15/15/4 16/16/4
f 20/20/5 18/18/5 17/17/5
f 17/17/5 19/19/5 20/20/5
f 6/24/5 9/22/5 2/21/5
f 2/21/5 5/23/5 6/24/5
f 5/26/1 2/2/1 4/4/1
f 4/4/1 7/25/1 5/26/1
f 8/28/6 11/11/6 9/9/6
f 9/9/6 6/27/6 8/28/6
f 24/31/7 22/29/7 21/19/7
f 21/19/7 23/30/7 24/31/7
f 14/35/5 1/33/5 10/32/5
f 10/32/5 13/34/5 14/35/5
f 13/37/8 10/10/8 12/12/8
f 12/12/8 15/36/8 13/37/8
f 16/39/1 3/3/1 1/1/1
f 1/1/1 14/38/1 16/39/1
f 28/42/7 26/20/7 25/40/7
f 25/40/7 27/41/7 28/42/7
f 30/44/9 11/11/9 8/28/9
f 8/28/9 29/43/9 30/44/9
f 32/42/12 7/23/11 4/21/10
f 4/21/10 31/20/11 32/42/12
f 29/46/2 8/8/2 7/7/2
f 7/7/2 32/45/2 29/46/2
f 34/48/15 3/3/14 16/39/13
f 16/39/13 33/47/14 34/48/15
f 36/50/16 15/36/16 12/12/16
f 12/12/16 35/49/16 36/50/16
f 33/52/4 16/16/4 15/15/4
f 15/15/4 36/51/4 33/52/4
f 38/55/4 31/52/4 30/53/4
f 30/53/4 37/54/4 38/55/4
f 37/57/19 30/44/18 29/43/17
f 29/43/17 39/56/18 37/57/19
f 40/59/20 32/42/20 31/20/20
f 31/20/20 38/58/20 40/59/20
f 39/61/2 29/46/2 32/45/2
f 32/45/2 40/60/2 39/61/2
f 42/61/2 35/62/2 34/45/2
f 34/45/2 41/60/2 42/61/2
f 41/64/20 34/19/20 33/30/20
f 33/30/20 43/63/20 41/64/20
f 44/66/23 36/50/22 35/49/21
f 35/49/21 42/65/22 44/66/23
f 43/55/4 33/52/4 36/51/4
f 36/51/4 44/54/4 43/55/4
f 22/68/4 38/55/4 37/54/4
f 37/54/4 21/67/4 22/68/4
f 21/70/23 37/57/23 39/56/23
f 39/56/23 23/69/23 21/70/23
f 24/68/24 40/72/24 38/71/24
f 38/71/24 22/73/24 24/68/24
f 48/75/2 46/61/2 45/60/2
f 45/60/2 47/74/2 48/75/2
f 26/75/2 42/61/2 41/60/2
f 41/60/2 25/74/2 26/75/2
f 25/78/24 41/60/24 43/76/24
f 43/76/24 27/77/24 25/78/24
f 28/80/23 44/66/23 42/65/23
f 42/65/23 26/79/23 28/80/23
f 52/68/4 50/55/4 49/54/4
f 49/54/4 51/67/4 52/68/4
f 53/81/25 12/12/25 11/11/25
f 11/11/25 54/82/25 53/81/25
f 3/83/25 53/81/25 54/82/25
f 54/82/25 4/84/25 3/83/25
f 54/85/4 30/53/4 31/52/4
f 31/52/4 4/86/4 54/85/4
f 35/62/2 53/88/2 3/90/2
f 3/90/2 34/45/2 35/62/2
f 56/92/26 9/9/26 10/10/26
f 10/10/26 55/91/26 56/92/26
f 55/94/4 10/1/4 1/14/4
f 1/14/4 57/93/4 55/94/4
f 58/97/2 2/5/2 9/95/2
f 9/95/2 56/96/2 58/97/2
f 57/19/1 1/1/1 2/2/1
f 2/2/1 58/20/1 57/19/1
f 18/99/27 56/92/27 55/91/27
f 55/91/27 17/98/27 18/99/27
f 62/101/4 60/94/4 59/93/4
f 59/93/4 61/100/4 62/101/4
f 66/103/2 64/97/2 63/96/2
f 63/96/2 65/102/2 66/103/2
f 19/33/28 57/19/28 58/20/28
f 58/20/28 20/21/28 19/33/28
f 64/106/7 58/33/7 56/104/7
f 56/104/7 63/105/7 64/106/7
f 63/108/27 56/92/27 18/99/27
f 18/99/27 65/107/27 63/108/27
f 66/110/28 20/21/28 58/20/28
f 58/20/28 64/109/28 66/110/28
f 70/109/5 68/20/5 67/111/5
f 67/111/5 69/112/5 70/109/5
f 60/114/7 55/113/7 57/21/7
f 57/21/7 59/110/7 60/114/7
f 59/115/28 57/19/28 19/33/28
f 19/33/28 61/106/28 59/115/28
f 62/117/27 17/98/27 55/91/27
f 55/91/27 60/116/27 62/117/27
f 74/119/5 72/118/5 71/19/5
f 71/19/5 73/115/5 74/119/5
f 72/121/2 19/103/2 17/102/2
f 17/102/2 71/120/2 72/121/2
f 71/123/29 17/98/29 62/117/29
f 62/117/29 73/122/29 71/123/29
f 74/124/30 61/106/30 19/33/30
f 19/33/30 72/32/30 74/124/30
f 73/126/4 62/101/4 61/100/4
f 61/100/4 74/125/4 73/126/4
f 68/126/4 18/101/4 20/100/4
f 20/100/4 67/125/4 68/126/4
f 67/22/30 20/21/30 66/110/30
f 66/110/30 69/125/30 67/22/30
f 70/128/29 65/107/29 18/99/29
f 18/99/29 68/127/29 70/128/29
f 69/121/2 66/103/2 65/102/2
f 65/102/2 70/120/2 69/121/2
f 46/131/5 39/129/5 40/59/5
f 40/59/5 45/130/5 46/131/5
f 45/55/24 40/72/24 24/68/24
f 24/68/24 47/132/24 45/55/24
f 48/134/23 23/69/23 39/56/23
f 39/56/23 46/133/23 48/134/23
f 47/136/7 24/31/7 23/30/7
f 23/30/7 48/135/7 47/136/7
f 50/139/5 43/63/5 44/137/5
f 44/137/5 49/138/5 50/139/5
f 49/141/23 44/66/23 28/80/23
f 28/80/23 51/140/23 49/141/23
f 52/143/24 27/77/24 43/76/24
f 43/76/24 50/142/24 52/143/24
f 51/145/7 28/42/7 27/41/7
f 27/41/7 52/144/7 51/145/7

