# ProBuilder 5.0.4
# https://unity3d.com/unity/features/worldbuilding/probuilder
# 7/10/2022 11:02:16 PM

mtllib ./Chest-Soldier-Front.mtl
o Chest-Soldier-Front

g Chest-Soldier-Front
v 0.5 -0.25 0.75
v -0.5 -0.25 0.75
v 0.5 0.5 0.75
v -0.5 0.5 0.75
v -1 -0.5 0.5
v -1.5 -0.5 0
v -1 0.5 0.5
v -1.5 0.5 -0.09999999
v -0.625 -0.5 0
v 0.625 -0.5 0
v -0.625 0.5 -0.09999999
v 0.625 0.5 -0.09999999
v 1.5 -0.5 0
v 1 -0.5 0.5
v 1.5 0.5 -0.09999999
v 1 0.5 0.5
v 0.5 1.5001 0
v -0.5 1.5001 0
v 0.5 1.6251 -0.5
v -0.5 1.6251 -0.5
v 0.5 -0.75 -0.375
v -0.5 -0.75 -0.375
v 0.5 -0.75 0.25
v -0.5 -0.75 0.25
v 0.75 -1.2501 -0.6249999
v 0.75 -1.2501 4.142523E-05
v 1.25 -1.2501 -0.6249999
v 1.25 -1.25009 5.221367E-05
v 0.5 0.6999998 -1.8755
v 0.5 0.25 -1.8755
v 1 0.6999998 -1.8755
v 1 0.25 -1.8755
v 1 1.5001 -0.5
v 0.5 2.1253 -0.75
v 0.5 2.0003 -1.125
v 1 2.1253 -0.75
v 1 2.0003 -1.125
v -0.75 -1.2501 4.142523E-05
v -0.75 -1.2501 -0.6249999
v -1.25 -1.25009 5.221367E-05
v -1.25 -1.2501 -0.6249999
v -0.5 0.25 -1.8755
v -0.5 0.6999998 -1.8755
v -1 0.25 -1.8755
v -1 0.6999998 -1.8755
v -1 1.5001 -0.5
v -0.5 2.0003 -1.125
v -0.5 2.1253 -0.75
v -1 2.0003 -1.125
v -1 2.1253 -0.75
v 1.25 -0.75 -0.375
v -1.25 -0.75 -0.375
v 0.5 1.7502 -0.25
v 0.5 1.7502 -0.75
v 1 1.5001 0
v 1 1.7502 -0.25
v 1 1.7502 -0.75
v -0.5 1.7502 -0.75
v -0.5 1.7502 -0.25
v -1 1.7502 -0.75
v -1 1.5001 0
v -1 1.7502 -0.25
v -0.75 -0.125 -0.2501
v -0.75 0.4499998 -0.2501
v -1.625 -0.125 -0.2501
v -1.625 0.4499998 -0.2501
v 0.75 0.4499998 -0.2501
v 0.75 -0.125 -0.2501
v 1.625 0.4499998 -0.2501
v 1.625 -0.125 -0.2501
v 1.25 -0.75 0.25
v -1.25 -0.75 0.25
v -1 -1.000071 0.2500707
v -0.5 -0.7500706 0.5000707
v 0.5 -0.7500706 0.5000707
v 1 -1.000071 0.2500707
v -0.25 -0.4999104 -1.375179
v -0.625 -0.4999104 -1.375179
v -0.5 -0.7500105 -1.625179
v -0.75 -0.7500105 -1.625179
v 0.625 -0.4999104 -1.375179
v 0.25 -0.4999104 -1.375179
v 0.75 -0.7500105 -1.625179
v 0.5 -0.7500105 -1.625179
v -0.75 -0.125 -0.5002
v -0.75 0.3249998 -0.5002
v -1.625 -0.125 -0.5002
v -1.625 0.3249998 -0.5002
v 0.75 0.3249998 -0.5002
v 0.75 -0.125 -0.5002
v 1.625 0.3249998 -0.5002
v 1.625 -0.125 -0.5002
v -0.75 -0.125 -0.8753
v -0.75 0.3249998 -0.8753
v -1.5 -0.125 -0.8753
v -1.5 0.3249998 -0.8753
v 0.75 0.3249998 -0.8753
v 0.75 -0.125 -0.8753
v 1.5 0.3249998 -0.8753
v 1.5 -0.125 -0.8753
v 0.75 0.4499998 -1.3754
v 0.75 0 -1.3754
v 1.375 0.4499998 -1.3754
v 1.375 0 -1.3754
v -0.75 0 -1.3754
v -0.75 0.4499998 -1.3754
v -1.375 0 -1.3754
v -1.375 0.4499998 -1.3754
v 1.125 -0.7499552 -1.000089
v 0.5 -0.7499552 -1.000089
v 1.125 -1.125055 -1.250089
v 0.75 -1.125055 -1.250089
v -0.5 -0.7499552 -1.000089
v -1.125 -0.7499552 -1.000089
v -0.75 -1.125055 -1.250089
v -1.125 -1.125055 -1.250089

vt 0.7700113 0.6945807
vt 0.6300113 0.694578
vt 0.7700113 0.7760468
vt 0.6300113 0.776044
vt 0.5600078 0.6742508
vt 0.4900007 0.6879086
vt 0.5600078 0.7828722
vt 0.4899993 0.7992618
vt 0.3875 0.1512297
vt 0.2125 0.1512297
vt 0.3875 0.2912297
vt 0.2125 0.2912297
vt 0.9100008 0.6879168
vt 0.8400078 0.6742563
vt 0.9099994 0.79927
vt 0.8400078 0.7828777
vt 0.23 0.326292
vt 0.37 0.326292
vt 0.23 0.256292
vt 0.37 0.256292
vt 0.37 0.2737919
vt 0.23 0.2737919
vt 0.37 0.3612919
vt 0.23 0.3612919
vt 0.7700008 0.9051677
vt 0.6300007 0.905165
vt 0.37 0.4487437
vt 0.23 0.4487437
vt 0.405 0.238792
vt 0.405 0.3262977
vt 0.475 0.238792
vt 0.475 0.3262993
vt 0.23 0.3192297
vt 0.16 0.3192297
vt 0.16 0.2562297
vt 0.16 0.4312437
vt 0.09000003 0.2912297
vt 0.23 0.221292
vt 0.23 0.1687919
vt 0.16 0.221292
vt 0.16 0.1687919
vt 0.195 0.3262977
vt 0.195 0.238792
vt 0.125 0.3262993
vt 0.125 0.238792
vt 0.37 0.3192297
vt 0.4400001 0.2562297
vt 0.4400001 0.3192297
vt 0.51 0.2912297
vt 0.4400001 0.4312437
vt 0.37 0.1687919
vt 0.37 0.221292
vt 0.4400001 0.1687919
vt 0.4400001 0.221292
vt 0.2125 0.326292
vt 0.3875 0.326292
vt 0.09000003 0.326292
vt 0.125 0.2737919
vt 0.6300042 0.6539264
vt 0.7700043 0.6539291
vt 0.51 0.326292
vt 0.475 0.2737919
vt 0.33507 0.44875
vt 0.2650701 0.4662499
vt 0.30007 0.4837641
vt 0.23007 0.4837641
vt 0.8400008 0.9051691
vt 0.8399973 0.9391649
vt 0.7699973 0.9391635
vt 0.2475 0.44875
vt 0.1775 0.44875
vt 0.2825 0.4837641
vt 0.2125 0.4837641
vt 0.2475 0.4662499
vt 0.4400001 0.4662577
vt 0.37 0.4662577
vt 0.5600007 0.9051636
vt 0.6299973 0.9391608
vt 0.5599972 0.9391594
vt 0.2650701 0.44875
vt 0.1775 0.168736
vt 0.1915 0.308736
vt 0.212514 0.221236
vt 0.212514 0.3017359
vt 0.51 0.1512297
vt 0.5275 0.2037297
vt 0.405 0.2037297
vt 0.3875 0.312292
vt 0.51 0.312292
vt 0.405 0.291278
vt 0.5275 0.291278
vt 0.32107 0.308736
vt 0.33507 0.168736
vt 0.300056 0.3017359
vt 0.300056 0.221236
vt 0.09000003 0.312292
vt 0.2125 0.312292
vt 0.07249999 0.291278
vt 0.195 0.291278
vt 0.09000003 0.1512297
vt 0.195 0.2037297
vt 0.07249999 0.2037297
vt 0.8750043 0.6539312
vt 0.475 0.3612919
vt 0.125 0.3612919
vt 0.5250042 0.6539243
vt 0.1425 0.09872611
vt 0.2125 0.1337261
vt 0.1075 0.06372339
vt 0.1775 0.06372197
vt 0.3525 0.1337261
vt 0.4575 0.06372339
vt 0.3875 0.06372197
vt 0.4225 0.09872611
vt 0.1425 0.133736
vt 0.1074901 0.1337261
vt 0.1774942 0.06372197
vt 0.335 0.1512423
vt 0.37 0.1162283
vt 0.405 0.1162283
vt 0.5250007 0.6064321
vt 0.5600042 0.6267601
vt 0.23 0.133736
vt 0.265 0.06372197
vt 0.28257 0.133736
vt 0.37007 0.133736
vt 0.2475701 0.06372197
vt 0.3350773 0.06372339
vt 0.6300077 0.6470872
vt 0.44007 0.2037359
vt 0.40508 0.1337261
vt 0.7700078 0.64709
vt 0.8400043 0.6267656
vt 0.8750008 0.6064389
vt 0.265 0.1512423
vt 0.195 0.1162283
vt 0.23 0.1162283
vt 0.23007 0.5362781
vt 0.17757 0.518778
vt 0.8399903 0.9935679
vt 0.7699903 0.9935665
vt 0.335 0.518778
vt 0.2825 0.5362781
vt 0.6299902 0.9935638
vt 0.5599902 0.9935625
vt 0.247528 0.221236
vt 0.247528 0.284236
vt 0.07249999 0.2562639
vt 0.195 0.2562639
vt 0.405 0.2562639
vt 0.5275 0.2562639
vt 0.265042 0.284236
vt 0.265042 0.221236
vt 0.300042 0.284236
vt 0.09000003 0.20375
vt 0.51 0.20375
vt 0.212528 0.284236
vt 0.40507 0.308736
vt 0.5599937 0.9188228
vt 0.8399938 0.9188282
vt 0.1075 0.308736
vt 0.142514 0.3017359
vt 0.142514 0.238736
vt 0.1075 0.1337359
vt 0.195 0.1337359
vt 0.405 0.1337359
vt 0.4925 0.1337359
vt 0.370056 0.238736
vt 0.370056 0.3017359
vt 0.07249999 0.336736
vt 0.07249999 0.2737359
vt 0.16 0.06372197
vt 0.23 0.06372197
vt 0.37 0.06372197
vt 0.4400001 0.06372197
vt 0.44007 0.2737359
vt 0.44007 0.336736
vt 0.1425 0.1862794
vt 0.23 0.1862794
vt 0.3525125 0.08122821
vt 0.3175125 0.1337423
vt 0.1600575 0.08122821
vt 0.405 0.1512794
vt 0.4575 0.1512794
vt 0.37 0.1862794
vt 0.4575 0.1862794
vt 0.1425 0.1512794
vt 0.195 0.1512794
vt 0.265 0.133767
vt 0.142545 0.1687485
vt 0.195 0.06372197
vt 0.1425 0.06372197
vt 0.335 0.133767
vt 0.3875 0.133767
vt 0.405 0.06372197

vn 0 0 1
vn -0.7071068 0 0.7071068
vn -0.7368793 0.03194382 0.6729916
vn -0.7666519 0.06388765 0.6388766
vn 0 -0.09950372 -0.9950372
vn 0.7053456 0.07053456 0.7053456
vn 0.7367834 0.03526728 0.672765
vn 0.7682213 0 0.6401844
vn 0 0.9701425 0.2425356
vn 0 -1 0
vn 0 0.5999616 0.8000289
vn 0 -0.3349832 -0.9422241
vn 0 0 -1
vn 0.4472136 0 0.8944272
vn -0.08554485 -0.3421794 -0.9357325
vn -0.04277243 -0.356769 -0.932111
vn 0 -0.3713586 -0.9284895
vn 0 0.9486833 -0.3162278
vn -0.4472136 0 0.8944272
vn 0.05168666 -0.3742383 -0.923422
vn 0.1033733 -0.4134933 -0.90462
vn 0 0.8320503 -0.5547002
vn 0 -0.7071068 0.7071068
vn -1 0 0
vn 0 0.7069652 0.7072484
vn -0.2181846 -0.8727384 -0.4367188
vn -0.1090923 -0.7898518 -0.5719836
vn 0 -0.7069652 -0.7072484
vn 1 0 0
vn 0.1740439 -0.6961755 -0.6964543
vn 0.08702193 -0.7952297 -0.5719772
vn 0 -0.8942839 -0.4475001
vn 0.8609334 -0.05061931 -0.5061931
vn 0.8146822 -0.02530965 -0.5730628
vn 0.7684311 0 -0.6399326
vn 0 -0.5548538 -0.8319479
vn -0.7770825 0.06262752 0.6262752
vn -0.8357906 0.03131376 0.5366728
vn -0.8944988 0 0.4470705
vn -0.7770825 -0.06262752 -0.6262752
vn -0.8357906 -0.03131376 -0.5366728
vn -0.8944988 0 -0.4470705
vn 0.8609334 0.05061931 0.5061931
vn 0.8146822 0.02530965 0.5730628
vn 0.7684311 0 0.6399326
vn 0.7071068 0 0.7071068
vn 0.7071068 -0.7071068 0
vn -0.7071068 -0.7071068 0
vn 0.9472441 -0.2235458 -6.308636E-05
vn 0.8944882 -0.4470915 -0.0001261727
vn 0 0.7069652 -0.7072484
vn -0.4084067 -0.4080898 0.8164966
vn -0.2183236 -0.4362772 0.8729244
vn -0.8944631 -0.447142 0
vn -0.5775682 -0.5772413 0.5772413
vn -0.6222223 -0.1220525 -0.04465699
vn -0.6668764 0.3331364 -0.6665553
vn 0.2183236 -0.4362772 0.8729244
vn 0.4084213 -0.4080752 0.8164966
vn 0 0.7999231 0.6001025
vn 0 -0.8319477 -0.554854
vn 0.4082551 0.4082142 0.8165102
vn -0.4082551 0.4082142 0.8165102
vn 0 0.8944987 -0.4470705
vn 0 1 0
vn -0.9487085 0 -0.3161519
vn 0.9487085 0 -0.3161519
vn -0.6470155 0.5391256 0.5391796
vn 0.6470155 0.5391256 0.5391796
vn 0 0.9701539 0.24249
vn 0 -0.9701539 -0.24249
vn 0.9701539 0 -0.24249
vn -0.9701539 0 -0.24249
vn 0 0.894463 0.447142
vn 0 -0.894463 -0.447142
vn 0.8000576 0 -0.5999232
vn 0.8944629 0 0.447142
vn -0.8000576 0 -0.5999232
vn 0.9799651 0.08905701 -0.1781497
vn 0.9761426 0.1093202 -0.1862883
vn 0.9723201 0.1295833 -0.1944269
vn -0.8760316 -0.4757323 -0.05046043
vn -0.8575939 -0.5043354 -0.1008888
vn 0 -0.9805726 -0.1961568
vn 0.9072957 -0.412324 -0.08248257
vn 0.8697133 -0.4834517 -0.04126117
vn 0.8321309 -0.5545793 -3.976669E-05
vn -0.9759102 0.09755401 -0.1951471
vn -0.9770797 0.1062978 -0.1838779
vn -0.9782493 0.1150417 -0.1726086
vn 0 0.8320654 0.5546775
vn 0.8111532 0.3243474 -0.486651
vn 0.7175245 0.5051826 -0.4304978
vn 0.6238958 0.6860177 -0.3743446
vn -0.7868709 -0.6051267 0.1210616
vn -0.7744771 -0.6200231 -0.002923995
vn -0.7620834 -0.6349195 -0.1269096
vn 0 -0.7071488 -0.7070647
vn 0.7696604 -0.6308084 5.581917E-05
vn 0.7072171 -0.7069964 6.256092E-05
vn -0.6696154 0.4119041 -0.6180212
vn -0.7270761 0.5000652 -0.4071073
vn -0.7845368 0.5882263 -0.1961935

usemtl Default
f 71/103/46 13/13/46 14/14/46
f 71/104/47 51/62/47 13/61/47
f 52/58/48 72/105/48 6/57/48
f 72/106/2 5/5/2 6/6/2
f 40/109/23 74/108/23 73/107/23
f 40/109/23 38/110/23 74/108/23
f 26/113/23 28/112/23 75/111/23
f 28/112/23 76/114/23 75/111/23
f 16/16/62 55/67/62 3/3/62
f 55/67/11 17/25/11 3/3/11
f 61/77/11 4/4/11 18/26/11
f 61/77/63 7/7/63 4/4/63
f 61/63/24 46/80/24 7/158/24
f 46/159/68 8/8/68 7/7/68
f 33/160/69 16/16/69 15/15/69
f 33/70/29 55/71/29 16/161/29
f 4/4/1 2/2/1 1/1/1
f 1/1/1 3/3/1 4/4/1
f 8/8/4 6/6/3 5/5/2
f 5/5/2 7/7/3 8/8/4
f 12/12/5 10/10/5 9/9/5
f 9/9/5 11/11/5 12/12/5
f 16/16/8 14/14/7 13/13/6
f 13/13/6 15/15/7 16/16/8
f 20/20/9 18/18/9 17/17/9
f 17/17/9 19/19/9 20/20/9
f 24/24/10 22/22/10 21/21/10
f 21/21/10 23/23/10 24/24/10
f 18/26/11 4/4/11 3/3/11
f 3/3/11 17/25/11 18/26/11
f 19/28/12 12/12/12 11/11/12
f 11/11/12 20/27/12 19/28/12
f 28/32/10 26/30/10 25/29/10
f 25/29/10 27/31/10 28/32/10
f 32/35/13 30/19/13 29/33/13
f 29/33/13 31/34/13 32/35/13
f 16/16/14 3/3/14 1/1/14
f 1/1/14 14/14/14 16/16/14
f 15/37/17 12/12/16 19/28/15
f 19/28/15 33/36/16 15/37/17
f 37/41/18 35/39/18 34/38/18
f 34/38/18 36/40/18 37/41/18
f 41/45/10 39/43/10 38/42/10
f 38/42/10 40/44/10 41/45/10
f 5/5/19 2/2/19 4/4/19
f 4/4/19 7/7/19 5/5/19
f 45/48/13 43/46/13 42/20/13
f 42/20/13 44/47/13 45/48/13
f 46/50/21 20/27/20 11/11/12
f 11/11/12 8/49/20 46/50/21
f 50/54/18 48/52/18 47/51/18
f 47/51/18 49/53/18 50/54/18
f 22/21/22 9/56/22 10/55/22
f 10/55/22 21/22/22 22/21/22
f 21/22/22 10/55/22 13/57/22
f 13/57/22 51/58/22 21/22/22
f 23/60/23 1/1/23 2/2/23
f 2/2/23 24/59/23 23/60/23
f 52/62/22 6/61/22 9/56/22
f 9/56/22 22/21/22 52/62/22
f 54/66/24 19/64/24 17/63/24
f 17/63/24 53/65/24 54/66/24
f 53/69/25 17/25/25 55/67/25
f 55/67/25 56/68/25 53/69/25
f 57/54/28 33/47/27 19/20/26
f 19/20/26 54/52/27 57/54/28
f 56/73/29 55/71/29 33/70/29
f 33/70/29 57/72/29 56/73/29
f 59/73/29 18/71/29 20/74/29
f 20/74/29 58/72/29 59/73/29
f 58/76/32 20/27/31 46/50/30
f 46/50/30 60/75/31 58/76/32
f 62/79/25 61/77/25 18/26/25
f 18/26/25 59/78/25 62/79/25
f 60/66/24 46/80/24 61/63/24
f 61/63/24 62/65/24 60/66/24
f 64/84/35 11/82/34 9/81/33
f 9/81/33 63/83/34 64/84/35
f 63/87/36 9/9/36 6/85/36
f 6/85/36 65/86/36 63/87/36
f 66/91/18 8/89/18 11/88/18
f 11/88/18 64/90/18 66/91/18
f 65/95/39 6/93/38 8/92/37
f 8/92/37 66/94/38 65/95/39
f 68/95/42 10/93/41 12/92/40
f 12/92/40 67/94/41 68/95/42
f 67/99/18 12/97/18 15/96/18
f 15/96/18 69/98/18 67/99/18
f 70/102/36 13/100/36 10/10/36
f 10/10/36 68/101/36 70/102/36
f 69/84/45 15/82/44 13/81/43
f 13/81/43 70/83/44 69/84/45
f 38/117/50 24/115/49 2/102/29
f 2/102/29 74/116/49 38/117/50
f 80/120/51 78/9/51 77/118/51
f 77/118/51 79/119/51 80/120/51
f 73/122/52 5/5/52 72/106/52
f 72/106/52 40/121/52 73/122/52
f 39/124/50 22/123/50 24/115/50
f 24/115/50 38/117/50 39/124/50
f 40/128/24 72/126/24 52/125/24
f 52/125/24 41/127/24 40/128/24
f 74/129/53 2/2/53 5/5/53
f 5/5/53 73/122/53 74/129/53
f 26/128/54 23/126/54 21/125/54
f 21/125/54 25/127/54 26/128/54
f 27/124/29 51/123/29 71/115/29
f 71/115/29 28/117/29 27/124/29
f 75/131/57 1/130/56 23/126/55
f 23/126/55 26/128/56 75/131/57
f 76/133/58 14/14/58 1/1/58
f 1/1/58 75/132/58 76/133/58
f 28/134/59 71/103/59 14/14/59
f 14/14/59 76/133/59 28/134/59
f 84/137/51 82/135/51 81/10/51
f 81/10/51 83/136/51 84/137/51
f 35/139/24 54/66/24 53/65/24
f 53/65/24 34/138/24 35/139/24
f 34/141/60 53/69/60 56/68/60
f 56/68/60 36/140/60 34/141/60
f 37/53/61 57/54/61 54/52/61
f 54/52/61 35/51/61 37/53/61
f 36/143/29 56/73/29 57/72/29
f 57/72/29 37/142/29 36/143/29
f 48/143/29 59/73/29 58/72/29
f 58/72/29 47/142/29 48/143/29
f 47/39/61 58/38/61 60/40/61
f 60/40/61 49/41/61 47/39/61
f 50/145/60 62/79/60 59/78/60
f 59/78/60 48/144/60 50/145/60
f 49/139/24 60/66/24 62/65/24
f 62/65/24 50/138/24 49/139/24
f 86/147/29 64/84/29 63/83/29
f 63/83/29 85/146/29 86/147/29
f 85/149/10 63/99/10 65/98/10
f 65/98/10 87/148/10 85/149/10
f 88/151/64 66/91/64 64/90/64
f 64/90/64 86/150/64 88/151/64
f 87/153/24 65/95/24 66/94/24
f 66/94/24 88/152/24 87/153/24
f 90/153/24 68/95/24 67/94/24
f 67/94/24 89/152/24 90/153/24
f 89/149/64 67/99/64 69/98/64
f 69/98/64 91/148/64 89/149/64
f 92/151/10 70/91/10 68/90/10
f 68/90/10 90/150/10 92/151/10
f 91/147/29 69/84/29 70/83/29
f 70/83/29 92/146/29 91/147/29
f 94/154/29 86/147/29 85/146/29
f 85/146/29 93/95/29 94/154/29
f 93/101/10 85/149/10 87/148/10
f 87/148/10 95/155/10 93/101/10
f 96/156/65 88/151/65 86/150/65
f 86/150/65 94/87/65 96/156/65
f 95/83/66 87/153/66 88/152/66
f 88/152/66 96/157/66 95/83/66
f 98/83/24 90/153/24 89/152/24
f 89/152/24 97/157/24 98/83/24
f 97/101/65 89/149/65 91/148/65
f 91/148/65 99/155/65 97/101/65
f 100/156/10 92/151/10 90/150/10
f 90/150/10 98/87/10 100/156/10
f 99/154/67 91/147/67 92/146/67
f 92/146/67 100/95/67 99/154/67
f 102/163/24 98/83/24 97/157/24
f 97/157/24 101/162/24 102/163/24
f 101/165/70 97/101/70 99/155/70
f 99/155/70 103/164/70 101/165/70
f 104/167/71 100/156/71 98/87/71
f 98/87/71 102/166/71 104/167/71
f 103/169/72 99/154/72 100/95/72
f 100/95/72 104/168/72 103/169/72
f 106/169/29 94/154/29 93/95/29
f 93/95/29 105/168/29 106/169/29
f 105/165/71 93/101/71 95/155/71
f 95/155/71 107/164/71 105/165/71
f 108/167/70 96/156/70 94/87/70
f 94/87/70 106/166/70 108/167/70
f 107/163/73 95/83/73 96/157/73
f 96/157/73 108/162/73 107/163/73
f 30/171/39 102/163/39 101/162/39
f 101/162/39 29/170/39 30/171/39
f 29/173/74 101/165/74 103/164/74
f 103/164/74 31/172/74 29/173/74
f 32/175/75 104/167/75 102/166/75
f 102/166/75 30/174/75 32/175/75
f 31/177/76 103/169/76 104/168/76
f 104/168/76 32/176/76 31/177/76
f 43/177/77 106/169/77 105/168/77
f 105/168/77 42/176/77 43/177/77
f 42/173/75 105/165/75 107/164/75
f 107/164/75 44/172/75 42/173/75
f 45/175/74 108/167/74 106/166/74
f 106/166/74 43/174/74 45/175/74
f 44/171/78 107/163/78 108/162/78
f 108/162/78 45/170/78 44/171/78
f 110/179/65 21/22/65 51/58/65
f 51/58/65 109/178/65 110/179/65
f 109/181/81 51/123/80 27/124/79
f 27/124/79 111/180/80 109/181/81
f 112/182/83 25/127/82 21/125/54
f 21/125/54 110/165/82 112/182/83
f 111/184/84 27/31/84 25/29/84
f 25/29/84 112/183/84 111/184/84
f 114/186/65 52/62/65 22/21/65
f 22/21/65 113/185/65 114/186/65
f 113/181/87 22/123/86 39/124/85
f 39/124/85 115/180/86 113/181/87
f 116/182/90 41/127/89 52/125/88
f 52/125/88 114/165/89 116/182/90
f 115/188/84 39/43/84 41/45/84
f 41/45/84 116/187/84 115/188/84
f 82/189/91 110/179/91 109/178/91
f 109/178/91 81/108/91 82/189/91
f 81/51/94 109/181/93 111/180/92
f 111/180/92 83/131/93 81/51/94
f 84/164/97 112/182/96 110/165/95
f 110/165/95 82/190/96 84/164/97
f 83/136/98 111/192/98 112/191/98
f 112/191/98 84/137/98 83/136/98
f 78/194/91 114/186/91 113/185/91
f 113/185/91 77/193/91 78/194/91
f 77/51/100 113/181/99 115/180/87
f 115/180/87 79/131/99 77/51/100
f 80/164/103 116/182/102 114/165/101
f 114/165/101 78/190/102 80/164/103
f 79/119/98 115/195/98 116/112/98
f 116/112/98 80/120/98 79/119/98

