# ProBuilder 5.0.4
# https://unity3d.com/unity/features/worldbuilding/probuilder
# 7/11/2022 3:13:43 PM

mtllib ./Glove-Plate-Soldier.mtl
o Glove-Plate-Soldier

g Glove-Plate-Soldier
v 0.07499981 0.1500006 0.2
v -0.1750002 0.1500006 0.2
v 0.07499981 0.2000008 0.2
v -0.1750002 0.2000008 0.2
v -0.125 0.1750002 0.09999999
v -0.125 0.1750002 -0.175
v -0.125 0.25 0.09999999
v -0.125 0.25 -0.175
v -0.1750002 0.1500006 -0.275
v 0.07499981 0.1500006 -0.275
v -0.1750002 0.2000008 -0.275
v 0.07499981 0.2000008 -0.275
v 0.2249999 0.1750002 -0.175
v 0.2249999 0.1750002 0.1
v 0.2249999 0.2000008 -0.175
v 0.2249999 0.2000008 0.09999999
v 0.07499981 0.25 0.1
v 0.07499981 0.25 -0.175
v 0.07499981 0.1750002 -0.175
v 0.07499981 0.1750002 0.1

vt 0.25 0
vt 0 0
vt 0.25 0.05000019
vt 0 0.05000019
vt 0.375 0.02499962
vt 0.09999996 0.02499962
vt 0.375 0.09999943
vt 0.09999996 0.09999943
vt 0.4000001 0
vt 0.1500001 0
vt 0.4000001 0.05000019
vt 0.1500001 0.05000019
vt 0.275 0
vt 0.275 0.02500057
vt 1.490116E-08 0.02500057
vt 0.1500001 0.375
vt 0.3499999 0.375
vt 0.1500001 0.09999996
vt 0.3499999 0.09999996
vt 0.25 0.09999996
vt 0.05000019 0.09999996
vt 0.25 0.375
vt 0.05000019 0.375
vt 0.25 0.475
vt 0 0.475
vt 0.4000001 0.02499962
vt 0.475 0
vt 0.475 0.05000019
vt 0.4000001 0.475
vt 0.1500001 0.475
vt 0 0.02499962
vt 0.4000001 0.09999996
vt 0.4000001 0.375
vt 0 0.375
vt 0 0.09999996

vn 0 0 1
vn -1 0 0
vn 0 0 -1
vn 1 0 0
vn 0 1 0
vn 0 -1 0
vn 1.807007E-08 -0.9701434 -0.2425321
vn 0.5547001 4.959294E-07 0.8320504
vn -0.8944265 0 -0.4472149
vn -3.331963E-08 0.89443 0.447208
vn 0 -0.9701434 0.2425322
vn -0.8944265 0 0.4472151
vn 0.5546998 0 -0.8320506
vn 0 0.8944299 -0.4472083
vn 0.285711 0.8571464 0.4285666
vn 0.3162232 0.9486848 0
vn 0.2857109 0.8571463 -0.4285668

usemtl Metal027-Helmet
f 10/1/11 13/32/11 19/20/11
f 3/30/15 16/34/15 17/16/15
f 14/33/7 1/24/7 20/22/7
f 15/35/17 12/10/17 18/18/17
f 4/4/1 2/2/1 1/1/1
f 1/1/1 3/3/1 4/4/1
f 8/8/2 6/6/2 5/5/2
f 5/5/2 7/7/2 8/8/2
f 12/12/3 10/10/3 9/9/3
f 9/9/3 11/11/3 12/12/3
f 16/15/4 14/2/4 13/13/4
f 13/13/4 15/14/4 16/15/4
f 8/19/5 7/17/5 17/16/5
f 17/16/5 18/18/5 8/19/5
f 5/23/6 6/21/6 19/20/6
f 19/20/6 20/22/6 5/23/6
f 2/25/7 5/23/7 20/22/7
f 20/22/7 1/24/7 2/25/7
f 1/1/8 14/26/8 16/11/8
f 16/11/8 3/3/8 1/1/8
f 4/28/9 7/7/9 5/5/9
f 5/5/9 2/27/9 4/28/9
f 3/30/10 17/16/10 7/17/10
f 7/17/10 4/29/10 3/30/10
f 10/1/11 19/20/11 6/21/11
f 6/21/11 9/2/11 10/1/11
f 9/2/12 6/6/12 8/8/12
f 8/8/12 11/4/12 9/2/12
f 12/12/13 15/4/13 13/31/13
f 13/31/13 10/10/13 12/12/13
f 11/9/14 8/19/14 18/18/14
f 18/18/14 12/10/14 11/9/14
f 14/33/6 20/22/6 19/20/6
f 19/20/6 13/32/6 14/33/6
f 15/35/16 18/18/16 17/16/16
f 17/16/16 16/34/16 15/35/16

