# ProBuilder 5.0.6
# https://unity3d.com/unity/features/worldbuilding/probuilder
# 1/23/2023 3:11:58 AM

mtllib ./Control-Room-Stair.mtl
o Control-Room-Stair

g Control-Room-Stair
v -1.4 -0.8375 -2.5
v 1.4 -0.8375 -2.5
v -1.4 -0.8375 -1.875
v 1.4 -0.8375 -1.875
v -1.4 -0.525 -1.875
v 1.4 -0.525 -1.875
v -1.4 -0.525 -1.25
v 1.4 -0.525 -1.25
v -1.4 -0.2125 -1.25
v 1.4 -0.2125 -1.25
v -1.4 -0.2125 -0.625
v 1.4 -0.2125 -0.625
v -1.4 0.1 -0.625
v 1.4 0.1 -0.625
v -1.4 0.1 0
v 1.4 0.1 0
v -1.4 0.4125 0
v 1.4 0.4125 0
v -1.4 0.4125 0.625
v 1.4 0.4125 0.625
v -1.4 0.725 0.625
v 1.4 0.725 0.625
v -1.4 0.725 1.25
v 1.4 0.725 1.25
v -1.4 1.0375 1.25
v 1.4 1.0375 1.25
v -1.4 1.0375 1.875
v 1.4 1.0375 1.875
v -1.4 1.35 1.875
v 1.4 1.35 1.875
v -1.4 1.35 2.5
v 1.4 1.35 2.5
v -1.4 -0.9375 -2.5
v 1.4 -0.9375 -2.5
v -1.5 -0.9375 -1.875
v -1.5 -0.9375 -2.5
v -1.5 -0.8375 -1.875
v -1.5 -0.8375 -2.5
v 1.5 -0.9375 -2.5
v 1.5 -0.9375 -1.875
v 1.5 -0.8375 -2.5
v 1.5 -0.8375 -1.875
v 1.4 -0.9375 -1.875
v -1.4 -0.9375 -1.875
v -1.4 -0.625 -1.875
v 1.4 -0.625 -1.875
v -1.5 -0.625 -1.25
v -1.5 -0.625 -1.875
v -1.5 -0.525 -1.25
v -1.5 -0.525 -1.875
v 1.5 -0.625 -1.875
v 1.5 -0.625 -1.25
v 1.5 -0.525 -1.875
v 1.5 -0.525 -1.25
v 1.4 -0.625 -1.25
v -1.4 -0.625 -1.25
v -1.4 -0.3125 -1.25
v 1.4 -0.3125 -1.25
v -1.5 -0.3125 -0.625
v -1.5 -0.3125 -1.25
v -1.5 -0.2125 -0.625
v -1.5 -0.2125 -1.25
v 1.5 -0.3125 -1.25
v 1.5 -0.3125 -0.625
v 1.5 -0.2125 -1.25
v 1.5 -0.2125 -0.625
v 1.4 -0.3125 -0.625
v -1.4 -0.3125 -0.625
v -1.4 0 -0.625
v 1.4 0 -0.625
v -1.5 0 0
v -1.5 0 -0.625
v -1.5 0.1 0
v -1.5 0.1 -0.625
v 1.5 0 -0.625
v 1.5 0 0
v 1.5 0.1 -0.625
v 1.5 0.1 0
v 1.4 0 0
v -1.4 0 0
v -1.4 0.3125 0
v 1.4 0.3125 0
v -1.5 0.3125 0.625
v -1.5 0.3125 0
v -1.5 0.4125 0.625
v -1.5 0.4125 0
v 1.5 0.3125 0
v 1.5 0.3125 0.625
v 1.5 0.4125 0
v 1.5 0.4125 0.625
v 1.4 0.3125 0.625
v -1.4 0.3125 0.625
v -1.4 0.625 0.625
v 1.4 0.625 0.625
v -1.5 0.625 1.25
v -1.5 0.625 0.625
v -1.5 0.725 1.25
v -1.5 0.725 0.625
v 1.5 0.625 0.625
v 1.5 0.625 1.25
v 1.5 0.725 0.625
v 1.5 0.725 1.25
v 1.4 0.625 1.25
v -1.4 0.625 1.25
v -1.4 0.9375 1.25
v 1.4 0.9375 1.25
v -1.5 0.9375 1.875
v -1.5 0.9375 1.25
v -1.5 1.0375 1.875
v -1.5 1.0375 1.25
v 1.5 0.9375 1.25
v 1.5 0.9375 1.875
v 1.5 1.0375 1.25
v 1.5 1.0375 1.875
v 1.4 0.9375 1.875
v -1.4 0.9375 1.875
v -1.4 1.25 1.875
v 1.4 1.25 1.875
v -1.5 1.25 2.5
v -1.5 1.25 1.875
v -1.5 1.35 2.5
v -1.5 1.35 1.875
v 1.5 1.25 1.875
v 1.5 1.25 2.5
v 1.5 1.35 1.875
v 1.5 1.35 2.5
v 1.4 1.25 2.5
v -1.4 1.25 2.5
v -1.4 -1.9375 -3.475
v -1.4 -1.9375 -4.1
v -1.5 -1.9375 -3.475
v -1.5 -1.9375 -4.1
v -1.4 -0.5375001 -1.9
v -1.4 -0.5375001 -1.275
v -1.5 -0.5375001 -1.9
v -1.5 -0.5375001 -1.275
v -1.4 -0.2250001 -1.275
v -1.4 -0.2250001 -0.6499999
v -1.5 -0.2250001 -1.275
v -1.5 -0.2250001 -0.6499999
v -1.4 0.08749998 -0.6499999
v -1.4 0.08749998 -0.02499998
v -1.5 0.08749998 -0.6499999
v -1.5 0.08749998 -0.02499998
v -1.4 0.4 -0.02499998
v -1.4 0.4 0.6
v -1.5 0.4 -0.02499998
v -1.5 0.4 0.6
v -1.4 0.7125 0.6
v -1.4 0.7125 1.225
v -1.5 0.7125 0.6
v -1.5 0.7125 1.225
v -1.4 1.025 1.225
v -1.4 1.025 1.85
v -1.5 1.025 1.225
v -1.5 1.025 1.85
v -1.4 1.3375 1.85
v -1.4 1.3375 2.475
v -1.5 1.3375 1.85
v -1.5 1.3375 2.475
v 1.4 1.3375 2.475
v 1.4 1.3375 1.85
v 1.5 1.3375 2.475
v 1.5 1.3375 1.85
v 1.4 1.025 1.85
v 1.4 1.025 1.225
v 1.5 1.025 1.85
v 1.5 1.025 1.225
v 1.4 0.7125 1.225
v 1.4 0.7125 0.6
v 1.5 0.7125 1.225
v 1.5 0.7125 0.6
v 1.4 0.4 0.6
v 1.4 0.4 -0.02499998
v 1.5 0.4 0.6
v 1.5 0.4 -0.02499998
v 1.4 0.08750004 -0.02499998
v 1.4 0.08750004 -0.6499999
v 1.5 0.08750004 -0.02499998
v 1.5 0.08750004 -0.6499999
v 1.4 -0.2249999 -0.6499999
v 1.4 -0.2249999 -1.275
v 1.5 -0.2249999 -0.6499999
v 1.5 -0.2249999 -1.275
v 1.4 -1.9375 -4.1
v 1.4 -1.9375 -3.475
v 1.5 -1.9375 -4.1
v 1.5 -1.9375 -3.475
v 1.4 -0.5374999 -1.275
v 1.4 -0.5374999 -1.9
v 1.5 -0.5374999 -1.275
v 1.5 -0.5374999 -1.9

vt 1.4 -2.5
vt -1.4 -2.5
vt 1.4 -1.875
vt -1.4 -1.875
vt 1.4 -1.25
vt -1.4 -1.25
vt 1.4 -0.625
vt -1.4 -0.625
vt 1.4 0
vt -1.4 0
vt 1.4 0.625
vt -1.4 0.625
vt 1.4 1.25
vt -1.4 1.25
vt 1.4 1.875
vt -1.4 1.875
vt 1.4 2.5
vt -1.4 2.5
vt 1.4 -0.9375
vt -1.4 -0.9375
vt 1.4 -0.8375
vt -1.4 -0.8375
vt -1.875 -0.9375
vt -2.5 -0.9375
vt -1.875 -0.8375
vt -2.5 -0.8375
vt 2.5 -0.9375
vt 1.875 -0.9375
vt 2.5 -0.8375
vt 1.875 -0.8375
vt 1.4 -0.525
vt -1.4 -0.525
vt -1.25 -0.625
vt -1.875 -0.625
vt -1.25 -0.525
vt -1.875 -0.525
vt 1.875 -0.625
vt 1.25 -0.625
vt 1.875 -0.525
vt 1.25 -0.525
vt 1.4 -0.3125
vt -1.4 -0.3125
vt 1.4 -0.2125
vt -1.4 -0.2125
vt -0.625 -0.3125
vt -1.25 -0.3125
vt -0.625 -0.2125
vt -1.25 -0.2125
vt 1.25 -0.3125
vt 0.625 -0.3125
vt 1.25 -0.2125
vt 0.625 -0.2125
vt 1.4 0.1
vt -1.4 0.1
vt 0 0
vt -0.625 0
vt 0 0.1
vt -0.625 0.1
vt 0.625 0
vt 0.625 0.1
vt 1.4 0.3125
vt -1.4 0.3125
vt 1.4 0.4125
vt -1.4 0.4125
vt 0.625 0.3125
vt 0 0.3125
vt 0.625 0.4125
vt 0 0.4125
vt -0.625 0.3125
vt -0.625 0.4125
vt 1.4 0.725
vt -1.4 0.725
vt 1.25 0.625
vt 0.625 0.625
vt 1.25 0.725
vt 0.625 0.725
vt -0.625 0.625
vt -1.25 0.625
vt -0.625 0.725
vt -1.25 0.725
vt 1.4 0.9375
vt -1.4 0.9375
vt 1.4 1.0375
vt -1.4 1.0375
vt 1.875 0.9375
vt 1.25 0.9375
vt 1.875 1.0375
vt 1.25 1.0375
vt -1.25 0.9375
vt -1.875 0.9375
vt -1.25 1.0375
vt -1.875 1.0375
vt 1.4 1.35
vt -1.4 1.35
vt 2.5 1.25
vt 1.875 1.25
vt 2.5 1.35
vt 1.875 1.35
vt -1.875 1.25
vt -2.5 1.25
vt -1.875 1.35
vt -2.5 1.35
vt -1.4 -3.475
vt -1.4 -4.1
vt -1.5 -3.475
vt -1.5 -4.1
vt -1.5 -0.8375
vt -1.5 -0.9375
vt 1.5 -0.9375
vt 1.5 -0.8375
vt 1.4 -1.9
vt 1.4 -1.275
vt 1.5 -1.9
vt 1.5 -1.275
vt -1.5 -1.25
vt -1.5 -1.875
vt -1.5 -0.525
vt -1.5 -0.625
vt 1.5 -0.625
vt 1.5 -0.525
vt 1.4 -0.6499999
vt 1.5 -0.6499999
vt -1.5 -0.2125
vt -1.5 -0.3125
vt 1.5 -0.3125
vt 1.5 -0.2125
vt 1.4 -0.02499998
vt 1.5 -0.02499998
vt -1.5 0
vt -1.5 0.1
vt 1.5 0
vt 1.5 0.1
vt 1.4 0.6
vt 1.5 0.6
vt -1.5 0.625
vt -1.5 0.4125
vt -1.5 0.3125
vt 1.5 0.3125
vt 1.5 0.4125
vt 1.4 1.225
vt 1.5 1.225
vt -1.5 1.25
vt -1.5 0.725
vt 1.5 0.625
vt 1.5 0.725
vt 1.4 1.85
vt 1.5 1.85
vt -1.5 1.875
vt -1.5 1.0375
vt -1.5 0.9375
vt 1.5 0.9375
vt 1.5 1.0375
vt 1.4 2.475
vt 1.5 2.475
vt -1.5 2.5
vt -1.5 1.35
vt 1.5 1.25
vt 1.5 1.35
vt 1.5 1.875
vt 1.5 2.5
vt 1.9 -0.5375001
vt 1.275 -0.5375001
vt 1.5 -2.610609
vt 1.4 -2.610609
vt 1.5 -1.939789
vt 1.4 -1.939789
vt -1.4 -2.051592
vt -1.5 -2.051592
vt -1.4 -1.380772
vt -1.5 -1.380772
vt -1.275 -0.5375001
vt -1.9 -0.5375001
vt 1.275 -0.2250001
vt 0.6499999 -0.2250001
vt 1.5 -1.911838
vt 1.4 -1.911838
vt 1.5 -1.241018
vt 1.4 -1.241018
vt -1.4 -1.352821
vt -1.5 -1.352821
vt -1.4 -0.6820007
vt -1.5 -0.6820007
vt -0.6499999 -0.2250001
vt -1.275 -0.2250001
vt 0.6499999 0.08749998
vt 0.02499998 0.08749998
vt 1.5 -1.213067
vt 1.4 -1.213067
vt 1.5 -0.5422465
vt 1.4 -0.5422465
vt -1.4 -0.6540499
vt -1.5 -0.6540499
vt -1.4 0.01677051
vt -1.5 0.01677051
vt -0.02499998 0.08749998
vt -0.6499999 0.08749998
vt 0.02499998 0.4
vt -0.6 0.4
vt 1.5 -0.5142956
vt 1.4 -0.5142956
vt 1.5 0.1565248
vt 1.4 0.1565248
vt -1.4 0.04472137
vt -1.5 0.04472137
vt -1.4 0.7155418
vt -1.5 0.7155418
vt 0.6 0.4
vt -0.02499998 0.4
vt -0.6 0.7125
vt -1.225 0.7125
vt 1.5 0.1844756
vt 1.4 0.1844756
vt 1.5 0.855296
vt 1.4 0.855296
vt -1.4 0.7434926
vt -1.5 0.7434926
vt -1.4 1.414313
vt -1.5 1.414313
vt 1.225 0.7125
vt 0.6 0.7125
vt -1.225 1.025
vt -1.85 1.025
vt 1.5 0.8832469
vt 1.4 0.8832469
vt 1.5 1.554067
vt 1.4 1.554067
vt -1.4 1.442264
vt -1.5 1.442264
vt -1.4 2.113084
vt -1.5 2.113084
vt 1.85 1.025
vt 1.225 1.025
vt -1.85 1.3375
vt -2.475 1.3375
vt 1.5 1.582018
vt 1.4 1.582018
vt 1.5 2.252839
vt 1.4 2.252839
vt -1.4 2.141035
vt -1.5 2.141035
vt -1.4 2.811856
vt -1.5 2.811856
vt 2.475 1.3375
vt 1.85 1.3375
vt -1.4 2.475
vt -1.4 1.85
vt -1.5 2.475
vt -1.5 1.85
vt -1.4 1.225
vt -1.5 1.225
vt -1.4 0.6
vt -1.5 0.6
vt -1.4 -0.02499998
vt -1.5 -0.02499998
vt 1.5 -1.25
vt -1.4 -0.6499999
vt -1.5 -0.6499999
vt 1.5 -1.875
vt -1.4 -1.275
vt -1.5 -1.275
vt 1.4 -4.1
vt 1.4 -3.475
vt 1.5 -4.1
vt 1.5 -3.475
vt -1.4 -1.9
vt -1.5 -1.9
vt -1.275 -0.5374999
vt -1.9 -0.5374999
vt 1.5 -2.051592
vt 1.4 -2.051592
vt 1.5 -1.380772
vt 1.4 -1.380772
vt -1.4 -2.610609
vt -1.5 -2.610609
vt -1.4 -1.939789
vt -1.5 -1.939789
vt 1.9 -0.5374999
vt 1.275 -0.5374999
vt -0.6499999 -0.2249999
vt -1.275 -0.2249999
vt 1.5 -1.352821
vt 1.4 -1.352821
vt 1.5 -0.6820006
vt 1.4 -0.6820006
vt -1.4 -1.911838
vt -1.5 -1.911838
vt -1.4 -1.241018
vt -1.5 -1.241018
vt 1.275 -0.2249999
vt 0.6499999 -0.2249999
vt -0.02499998 0.08750004
vt -0.6499999 0.08750004
vt 1.5 -0.6540499
vt 1.4 -0.6540499
vt 1.5 0.01677055
vt 1.4 0.01677055
vt -1.4 -1.213067
vt -1.5 -1.213067
vt -1.4 -0.5422464
vt -1.5 -0.5422464
vt 0.6499999 0.08750004
vt 0.02499998 0.08750004
vt 1.5 0.04472137
vt 1.4 0.04472137
vt 1.5 0.7155418
vt 1.4 0.7155418
vt -1.4 -0.5142956
vt -1.5 -0.5142956
vt -1.4 0.1565248
vt -1.5 0.1565248
vt 1.5 0.7434926
vt 1.4 0.7434926
vt 1.5 1.414313
vt 1.4 1.414313
vt -1.4 0.1844756
vt -1.5 0.1844756
vt -1.4 0.855296
vt -1.5 0.855296
vt 1.5 1.442264
vt 1.4 1.442264
vt 1.5 2.113084
vt 1.4 2.113084
vt -1.4 0.8832469
vt -1.5 0.8832469
vt -1.4 1.554067
vt -1.5 1.554067
vt 1.5 2.141035
vt 1.4 2.141035
vt 1.5 2.811855
vt 1.4 2.811855
vt -1.4 1.582018
vt -1.5 1.582018
vt -1.4 2.252838
vt -1.5 2.252838
vt -4.1 -1.9375
vt -3.475 -1.9375
vt -1.5 -2.61687
vt -1.4 -2.61687
vt -1.5 -4.503666
vt -1.4 -4.503666
vt 1.4 -2.086871
vt 1.5 -2.086871
vt 1.4 -3.973667
vt 1.5 -3.973667
vt 3.475 -1.9375
vt 4.1 -1.9375
vt -1.5 -2.086871
vt -1.4 -2.086871
vt -1.5 -3.973667
vt -1.4 -3.973667
vt 1.4 -2.61687
vt 1.5 -2.61687
vt 1.4 -4.503666
vt 1.5 -4.503666

vn 0 1 0
vn 0 0 -1
vn -1 0 0
vn 1 0 0
vn 0 0 1
vn 0 -1 0
vn 0 0.8944274 -0.4472133
vn 0 -0.8944274 0.4472133
vn 0 0.8479983 -0.529999
vn 0 -0.8479983 0.529999

usemtl Metal011
f 3/3/1 4/4/1 2/2/1 1/1/1
f 7/5/1 8/6/1 6/4/1 5/3/1
f 11/7/1 12/8/1 10/6/1 9/5/1
f 15/9/1 16/10/1 14/8/1 13/7/1
f 19/11/1 20/12/1 18/10/1 17/9/1
f 23/13/1 24/14/1 22/12/1 21/11/1
f 27/15/1 28/16/1 26/14/1 25/13/1
f 31/17/1 32/18/1 30/16/1 29/15/1
f 1/21/2 2/22/2 34/20/2 33/19/2
f 37/25/3 38/26/3 36/24/3 35/23/3
f 41/29/4 42/30/4 40/28/4 39/27/4
f 4/21/5 3/22/5 44/20/5 43/19/5
f 5/31/2 6/32/2 46/8/2 45/7/2
f 49/35/3 50/36/3 48/34/3 47/33/3
f 53/39/4 54/40/4 52/38/4 51/37/4
f 8/31/5 7/32/5 56/8/5 55/7/5
f 9/43/2 10/44/2 58/42/2 57/41/2
f 61/47/3 62/48/3 60/46/3 59/45/3
f 65/51/4 66/52/4 64/50/4 63/49/4
f 12/43/5 11/44/5 68/42/5 67/41/5
f 13/53/2 14/54/2 70/10/2 69/9/2
f 73/57/3 74/58/3 72/56/3 71/55/3
f 77/60/4 78/57/4 76/55/4 75/59/4
f 16/53/5 15/54/5 80/10/5 79/9/5
f 17/63/2 18/64/2 82/62/2 81/61/2
f 85/67/3 86/68/3 84/66/3 83/65/3
f 89/68/4 90/70/4 88/69/4 87/66/4
f 20/63/5 19/64/5 92/62/5 91/61/5
f 21/71/2 22/72/2 94/12/2 93/11/2
f 97/75/3 98/76/3 96/74/3 95/73/3
f 101/79/4 102/80/4 100/78/4 99/77/4
f 24/71/5 23/72/5 104/12/5 103/11/5
f 25/83/2 26/84/2 106/82/2 105/81/2
f 109/87/3 110/88/3 108/86/3 107/85/3
f 113/91/4 114/92/4 112/90/4 111/89/4
f 28/83/5 27/84/5 116/82/5 115/81/5
f 29/93/2 30/94/2 118/14/2 117/13/2
f 121/97/3 122/98/3 120/96/3 119/95/3
f 125/101/4 126/102/4 124/100/4 123/99/4
f 32/93/5 31/94/5 128/14/5 127/13/5
f 106/13/6 115/15/6 116/16/6 105/14/6
f 118/15/6 127/17/6 128/18/6 117/16/6
f 94/11/6 103/13/6 104/14/6 93/12/6
f 82/9/6 91/11/6 92/12/6 81/10/6
f 70/7/6 79/9/6 80/10/6 69/8/6
f 58/5/6 67/7/6 68/8/6 57/6/6
f 46/3/6 55/5/6 56/6/6 45/4/6
f 34/1/6 43/3/6 44/4/6 33/2/6
f 131/105/6 132/106/6 130/104/6 129/103/6
f 37/107/5 35/108/5 44/20/5 3/22/5
f 36/109/2 38/110/2 1/21/2 33/19/2
f 135/113/1 136/114/1 134/112/1 133/111/1
f 47/115/6 48/116/6 45/4/6 56/6/6
f 49/117/5 47/118/5 56/8/5 7/32/5
f 48/119/2 50/120/2 5/31/2 45/7/2
f 139/114/1 140/122/1 138/121/1 137/112/1
f 59/118/6 60/115/6 57/6/6 68/8/6
f 61/123/5 59/124/5 68/42/5 11/44/5
f 60/125/2 62/126/2 9/43/2 57/41/2
f 143/122/1 144/128/1 142/127/1 141/121/1
f 71/129/6 72/118/6 69/8/6 80/10/6
f 73/130/5 71/129/5 80/10/5 15/54/5
f 72/131/2 74/132/2 13/53/2 69/9/2
f 147/128/1 148/134/1 146/133/1 145/127/1
f 83/135/6 84/129/6 81/10/6 92/12/6
f 85/136/5 83/137/5 92/62/5 19/64/5
f 84/138/2 86/139/2 17/63/2 81/61/2
f 151/134/1 152/141/1 150/140/1 149/133/1
f 95/142/6 96/135/6 93/12/6 104/14/6
f 97/143/5 95/135/5 104/12/5 23/72/5
f 96/144/2 98/145/2 21/71/2 93/11/2
f 155/141/1 156/147/1 154/146/1 153/140/1
f 107/148/6 108/142/6 105/14/6 116/16/6
f 109/149/5 107/150/5 116/82/5 27/84/5
f 108/151/2 110/152/2 25/83/2 105/81/2
f 159/147/1 160/154/1 158/153/1 157/146/1
f 119/155/6 120/148/6 117/16/6 128/18/6
f 121/156/5 119/142/5 128/14/5 31/94/5
f 120/157/2 122/158/2 29/93/2 117/13/2
f 122/159/1 121/160/1 31/17/1 29/15/1
f 133/161/4 134/162/4 3/30/4 1/29/4
f 135/165/7 133/166/7 1/164/7 38/163/7
f 134/169/8 136/170/8 37/168/8 3/167/8
f 136/171/3 135/172/3 38/26/3 37/25/3
f 137/173/4 138/174/4 7/40/4 5/39/4
f 139/177/7 137/178/7 5/176/7 50/175/7
f 138/181/8 140/182/8 49/180/8 7/179/8
f 140/183/3 139/184/3 50/36/3 49/35/3
f 141/185/4 142/186/4 11/52/4 9/51/4
f 143/189/7 141/190/7 9/188/7 62/187/7
f 142/193/8 144/194/8 61/192/8 11/191/8
f 144/195/3 143/196/3 62/48/3 61/47/3
f 145/197/4 146/198/4 15/57/4 13/60/4
f 147/201/7 145/202/7 13/200/7 74/199/7
f 146/205/8 148/206/8 73/204/8 15/203/8
f 148/207/3 147/208/3 74/58/3 73/57/3
f 149/209/4 150/210/4 19/70/4 17/68/4
f 151/213/7 149/214/7 17/212/7 86/211/7
f 150/217/8 152/218/8 85/216/8 19/215/8
f 152/219/3 151/220/3 86/68/3 85/67/3
f 153/221/4 154/222/4 23/80/4 21/79/4
f 155/225/7 153/226/7 21/224/7 98/223/7
f 154/229/8 156/230/8 97/228/8 23/227/8
f 156/231/3 155/232/3 98/76/3 97/75/3
f 157/233/4 158/234/4 27/92/4 25/91/4
f 159/237/7 157/238/7 25/236/7 110/235/7
f 158/241/8 160/242/8 109/240/8 27/239/8
f 160/243/3 159/244/3 110/88/3 109/87/3
f 123/159/6 124/160/6 127/17/6 118/15/6
f 125/156/2 123/142/2 118/14/2 30/94/2
f 124/157/5 126/158/5 32/93/5 127/13/5
f 126/155/1 125/148/1 30/16/1 32/18/1
f 111/157/6 112/159/6 115/15/6 106/13/6
f 113/149/2 111/150/2 106/82/2 26/84/2
f 112/151/5 114/152/5 28/83/5 115/81/5
f 163/247/1 164/248/1 162/246/1 161/245/1
f 99/144/6 100/157/6 103/13/6 94/11/6
f 101/143/2 99/135/2 94/12/2 22/72/2
f 100/144/5 102/145/5 24/71/5 103/11/5
f 167/248/1 168/250/1 166/249/1 165/246/1
f 87/131/6 88/144/6 91/11/6 82/9/6
f 89/136/2 87/137/2 82/62/2 18/64/2
f 88/138/5 90/139/5 20/63/5 91/61/5
f 171/250/1 172/252/1 170/251/1 169/249/1
f 75/119/6 76/131/6 79/9/6 70/7/6
f 77/130/2 75/129/2 70/10/2 14/54/2
f 76/131/5 78/132/5 16/53/5 79/9/5
f 175/252/1 176/254/1 174/253/1 173/251/1
f 63/255/6 64/119/6 67/7/6 58/5/6
f 65/123/2 63/124/2 58/42/2 10/44/2
f 64/125/5 66/126/5 12/43/5 67/41/5
f 179/254/1 180/257/1 178/256/1 177/253/1
f 51/258/6 52/255/6 55/5/6 46/3/6
f 53/117/2 51/118/2 46/8/2 6/32/2
f 52/119/5 54/120/5 8/31/5 55/7/5
f 183/257/1 184/260/1 182/259/1 181/256/1
f 187/263/6 188/264/6 186/262/6 185/261/6
f 41/107/2 39/108/2 34/20/2 2/22/2
f 40/109/5 42/110/5 4/21/5 43/19/5
f 191/260/1 192/266/1 190/265/1 189/259/1
f 189/267/3 190/268/3 2/26/3 4/25/3
f 191/271/8 189/272/8 4/270/8 42/269/8
f 190/275/7 192/276/7 41/274/7 2/273/7
f 192/277/4 191/278/4 42/30/4 41/29/4
f 181/279/3 182/280/3 6/36/3 8/35/3
f 183/283/8 181/284/8 8/282/8 54/281/8
f 182/287/7 184/288/7 53/286/7 6/285/7
f 184/289/4 183/290/4 54/40/4 53/39/4
f 177/291/3 178/292/3 10/48/3 12/47/3
f 179/295/8 177/296/8 12/294/8 66/293/8
f 178/299/7 180/300/7 65/298/7 10/297/7
f 180/301/4 179/302/4 66/52/4 65/51/4
f 173/207/3 174/208/3 14/58/3 16/57/3
f 175/305/8 173/306/8 16/304/8 78/303/8
f 174/309/7 176/310/7 77/308/7 14/307/7
f 176/197/4 175/198/4 78/57/4 77/60/4
f 169/219/3 170/220/3 18/68/3 20/67/3
f 171/313/8 169/314/8 20/312/8 90/311/8
f 170/317/7 172/318/7 89/316/7 18/315/7
f 172/209/4 171/210/4 90/70/4 89/68/4
f 165/231/3 166/232/3 22/76/3 24/75/3
f 167/321/8 165/322/8 24/320/8 102/319/8
f 166/325/7 168/326/7 101/324/7 22/323/7
f 168/221/4 167/222/4 102/80/4 101/79/4
f 161/243/3 162/244/3 26/88/3 28/87/3
f 163/329/8 161/330/8 28/328/8 114/327/8
f 162/333/7 164/334/7 113/332/7 26/331/7
f 164/233/4 163/234/4 114/92/4 113/91/4
f 185/335/3 186/336/3 43/23/3 34/24/3
f 187/339/9 185/340/9 34/338/9 39/337/9
f 186/343/10 188/344/10 40/342/10 43/341/10
f 188/345/4 187/346/4 39/27/4 40/28/4
f 129/345/4 130/346/4 33/27/4 44/28/4
f 131/349/10 129/350/10 44/348/10 35/347/10
f 130/353/9 132/354/9 36/352/9 33/351/9
f 132/335/3 131/336/3 35/23/3 36/24/3

