# ProBuilder 5.0.6
# https://unity3d.com/unity/features/worldbuilding/probuilder
# 1/23/2023 3:11:58 AM

mtllib ./Control-Room-Stair-Platform.mtl
o Control-Room-Stair-Platform

g Control-Room-Stair-Platform
v 3 -0.2500002 1.8
v -3 -0.2500002 1.8
v 3 -2.384186E-07 1.8
v -3 -2.384186E-07 1.8
v -3 -0.2500002 -1.8
v -3 -2.384186E-07 -1.8
v 3 -0.2500002 -1.8
v 3 -2.384186E-07 -1.8

vt 3 -0.2500002
vt -3 -0.2500002
vt 3 -2.384186E-07
vt -3 -2.384186E-07
vt 1.8 -0.2500002
vt -1.8 -0.2500002
vt 1.8 -2.384186E-07
vt -1.8 -2.384186E-07
vt 1.8 -0.2500002
vt -1.8 -0.2500002
vt 1.8 -2.384186E-07
vt -1.8 -2.384186E-07
vt -3 1.8
vt 3 1.8
vt -3 -1.8
vt 3 -1.8

vn 0 0 1
vn -1 0 0
vn 0 0 -1
vn 1 0 0
vn 0 1 0
vn 0 -1 0

usemtl Concrete024-Ground
f 3/3/1 4/4/1 2/2/1 1/1/1
f 4/7/2 6/8/2 5/6/2 2/5/2
f 6/3/3 8/4/3 7/2/3 5/1/3
f 8/11/4 3/12/4 1/10/4 7/9/4
f 8/15/5 6/16/5 4/14/5 3/13/5
f 1/14/6 2/13/6 5/15/6 7/16/6

