# ProBuilder 5.0.6
# https://unity3d.com/unity/features/worldbuilding/probuilder
# 1/23/2023 3:14:04 AM

mtllib ./Control-Room-Stair-Upper.mtl
o Control-Room-Stair-Upper

g Control-Room-Stair-Upper
v -1.4 -0.8375 -2.5
v 1.4 -0.8375 -2.5
v -1.4 -0.8375 -1.875
v 1.4 -0.8375 -1.875
v -1.4 -0.525 -1.875
v 1.4 -0.525 -1.875
v -1.4 -0.525 -1.25
v 1.4 -0.525 -1.25
v -1.4 -0.2125 -1.25
v 1.4 -0.2125 -1.25
v -1.4 -0.2125 -0.625
v 1.4 -0.2125 -0.625
v -1.4 0.1 -0.625
v 1.4 0.1 -0.625
v -1.4 0.1 0
v 1.4 0.1 0
v -1.4 0.4125 0
v 1.4 0.4125 0
v -1.4 0.4125 0.625
v 1.4 0.4125 0.625
v -1.4 0.725 0.625
v 1.4 0.725 0.625
v -1.4 0.725 1.25
v 1.4 0.725 1.25
v -1.4 1.0375 1.25
v 1.4 1.0375 1.25
v -1.4 1.0375 1.875
v 1.4 1.0375 1.875
v -1.4 1.35 1.875
v 1.4 1.35 1.875
v -1.4 1.35 2.5
v 1.4 1.35 2.5
v -1.4 -0.9375 -2.5
v 1.4 -0.9375 -2.5
v -1.5 -0.9375 -1.875
v -1.5 -0.9375 -2.5
v -1.5 -0.8375 -1.875
v -1.5 -0.8375 -2.5
v 1.5 -0.9375 -2.5
v 1.5 -0.9375 -1.875
v 1.5 -0.8375 -2.5
v 1.5 -0.8375 -1.875
v 1.4 -0.9375 -1.875
v -1.4 -0.9375 -1.875
v -1.4 -0.625 -1.875
v 1.4 -0.625 -1.875
v -1.5 -0.625 -1.25
v -1.5 -0.625 -1.875
v -1.5 -0.525 -1.25
v -1.5 -0.525 -1.875
v 1.5 -0.625 -1.875
v 1.5 -0.625 -1.25
v 1.5 -0.525 -1.875
v 1.5 -0.525 -1.25
v 1.4 -0.625 -1.25
v -1.4 -0.625 -1.25
v -1.4 -0.3125 -1.25
v 1.4 -0.3125 -1.25
v -1.5 -0.3125 -0.625
v -1.5 -0.3125 -1.25
v -1.5 -0.2125 -0.625
v -1.5 -0.2125 -1.25
v 1.5 -0.3125 -1.25
v 1.5 -0.3125 -0.625
v 1.5 -0.2125 -1.25
v 1.5 -0.2125 -0.625
v 1.4 -0.3125 -0.625
v -1.4 -0.3125 -0.625
v -1.4 0 -0.625
v 1.4 0 -0.625
v -1.5 0 0
v -1.5 0 -0.625
v -1.5 0.1 0
v -1.5 0.1 -0.625
v 1.5 0 -0.625
v 1.5 0 0
v 1.5 0.1 -0.625
v 1.5 0.1 0
v 1.4 0 0
v -1.4 0 0
v -1.4 0.3125 0
v 1.4 0.3125 0
v -1.5 0.3125 0.625
v -1.5 0.3125 0
v -1.5 0.4125 0.625
v -1.5 0.4125 0
v 1.5 0.3125 0
v 1.5 0.3125 0.625
v 1.5 0.4125 0
v 1.5 0.4125 0.625
v 1.4 0.3125 0.625
v -1.4 0.3125 0.625
v -1.4 0.625 0.625
v 1.4 0.625 0.625
v -1.5 0.625 1.25
v -1.5 0.625 0.625
v -1.5 0.725 1.25
v -1.5 0.725 0.625
v 1.5 0.625 0.625
v 1.5 0.625 1.25
v 1.5 0.725 0.625
v 1.5 0.725 1.25
v 1.4 0.625 1.25
v -1.4 0.625 1.25
v -1.4 0.9375 1.25
v 1.4 0.9375 1.25
v -1.5 0.9375 1.875
v -1.5 0.9375 1.25
v -1.5 1.0375 1.875
v -1.5 1.0375 1.25
v 1.5 0.9375 1.25
v 1.5 0.9375 1.875
v 1.5 1.0375 1.25
v 1.5 1.0375 1.875
v 1.4 0.9375 1.875
v -1.4 0.9375 1.875
v -1.4 1.25 1.875
v 1.4 1.25 1.875
v -1.5 1.25 2.5
v -1.5 1.25 1.875
v -1.5 1.35 2.5
v -1.5 1.35 1.875
v 1.5 1.25 1.875
v 1.5 1.25 2.5
v 1.5 1.35 1.875
v 1.5 1.35 2.5
v 1.4 1.25 2.5
v -1.4 1.25 2.5
v -1.4 -0.5375001 -1.9
v -1.4 -0.5375001 -1.275
v -1.5 -0.5375001 -1.9
v -1.5 -0.5375001 -1.275
v -1.4 -0.2250001 -1.275
v -1.4 -0.2250001 -0.6499999
v -1.5 -0.2250001 -1.275
v -1.5 -0.2250001 -0.6499999
v -1.4 0.08749998 -0.6499999
v -1.4 0.08749998 -0.02499998
v -1.5 0.08749998 -0.6499999
v -1.5 0.08749998 -0.02499998
v -1.4 0.4 -0.02499998
v -1.4 0.4 0.6
v -1.5 0.4 -0.02499998
v -1.5 0.4 0.6
v -1.4 0.7125 0.6
v -1.4 0.7125 1.225
v -1.5 0.7125 0.6
v -1.5 0.7125 1.225
v -1.4 1.025 1.225
v -1.4 1.025 1.85
v -1.5 1.025 1.225
v -1.5 1.025 1.85
v -1.4 1.3375 1.85
v -1.4 1.3375 2.475
v -1.5 1.3375 1.85
v -1.5 1.3375 2.475
v 1.4 1.3375 2.475
v 1.4 1.3375 1.85
v 1.5 1.3375 2.475
v 1.5 1.3375 1.85
v 1.4 1.025 1.85
v 1.4 1.025 1.225
v 1.5 1.025 1.85
v 1.5 1.025 1.225
v 1.4 0.7125 1.225
v 1.4 0.7125 0.6
v 1.5 0.7125 1.225
v 1.5 0.7125 0.6
v 1.4 0.4 0.6
v 1.4 0.4 -0.02499998
v 1.5 0.4 0.6
v 1.5 0.4 -0.02499998
v 1.4 0.08750004 -0.02499998
v 1.4 0.08750004 -0.6499999
v 1.5 0.08750004 -0.02499998
v 1.5 0.08750004 -0.6499999
v 1.4 -0.2249999 -0.6499999
v 1.4 -0.2249999 -1.275
v 1.5 -0.2249999 -0.6499999
v 1.5 -0.2249999 -1.275
v 1.4 -0.5374999 -1.275
v 1.4 -0.5374999 -1.9
v 1.5 -0.5374999 -1.275
v 1.5 -0.5374999 -1.9

vt 1.4 -2.5
vt -1.4 -2.5
vt 1.4 -1.875
vt -1.4 -1.875
vt 1.4 -1.25
vt -1.4 -1.25
vt 1.4 -0.625
vt -1.4 -0.625
vt 1.4 0
vt -1.4 0
vt 1.4 0.625
vt -1.4 0.625
vt 1.4 1.25
vt -1.4 1.25
vt 1.4 1.875
vt -1.4 1.875
vt 1.4 2.5
vt -1.4 2.5
vt 1.4 -0.9375
vt -1.4 -0.9375
vt 1.4 -0.8375
vt -1.4 -0.8375
vt -1.875 -0.9375
vt -2.5 -0.9375
vt -1.875 -0.8375
vt -2.5 -0.8375
vt 2.5 -0.9375
vt 1.875 -0.9375
vt 2.5 -0.8375
vt 1.875 -0.8375
vt 1.4 -0.525
vt -1.4 -0.525
vt -1.25 -0.625
vt -1.875 -0.625
vt -1.25 -0.525
vt -1.875 -0.525
vt 1.875 -0.625
vt 1.25 -0.625
vt 1.875 -0.525
vt 1.25 -0.525
vt 1.4 -0.3125
vt -1.4 -0.3125
vt 1.4 -0.2125
vt -1.4 -0.2125
vt -0.625 -0.3125
vt -1.25 -0.3125
vt -0.625 -0.2125
vt -1.25 -0.2125
vt 1.25 -0.3125
vt 0.625 -0.3125
vt 1.25 -0.2125
vt 0.625 -0.2125
vt 1.4 0.1
vt -1.4 0.1
vt 0 0
vt -0.625 0
vt 0 0.1
vt -0.625 0.1
vt 0.625 0
vt 0.625 0.1
vt 1.4 0.3125
vt -1.4 0.3125
vt 1.4 0.4125
vt -1.4 0.4125
vt 0.625 0.3125
vt 0 0.3125
vt 0.625 0.4125
vt 0 0.4125
vt -0.625 0.3125
vt -0.625 0.4125
vt 1.4 0.725
vt -1.4 0.725
vt 1.25 0.625
vt 0.625 0.625
vt 1.25 0.725
vt 0.625 0.725
vt -0.625 0.625
vt -1.25 0.625
vt -0.625 0.725
vt -1.25 0.725
vt 1.4 0.9375
vt -1.4 0.9375
vt 1.4 1.0375
vt -1.4 1.0375
vt 1.875 0.9375
vt 1.25 0.9375
vt 1.875 1.0375
vt 1.25 1.0375
vt -1.25 0.9375
vt -1.875 0.9375
vt -1.25 1.0375
vt -1.875 1.0375
vt 1.4 1.35
vt -1.4 1.35
vt 2.5 1.25
vt 1.875 1.25
vt 2.5 1.35
vt 1.875 1.35
vt -1.875 1.25
vt -2.5 1.25
vt -1.875 1.35
vt -2.5 1.35
vt -1.5 -1.875
vt -1.5 -2.5
vt -1.5 -0.8375
vt -1.5 -0.9375
vt 1.5 -0.9375
vt 1.5 -0.8375
vt 1.4 -1.9
vt 1.4 -1.275
vt 1.5 -1.9
vt 1.5 -1.275
vt -1.5 -1.25
vt -1.5 -0.525
vt -1.5 -0.625
vt 1.5 -0.625
vt 1.5 -0.525
vt 1.4 -0.6499999
vt 1.5 -0.6499999
vt -1.5 -0.2125
vt -1.5 -0.3125
vt 1.5 -0.3125
vt 1.5 -0.2125
vt 1.4 -0.02499998
vt 1.5 -0.02499998
vt -1.5 0
vt -1.5 0.1
vt 1.5 0
vt 1.5 0.1
vt 1.4 0.6
vt 1.5 0.6
vt -1.5 0.625
vt -1.5 0.4125
vt -1.5 0.3125
vt 1.5 0.3125
vt 1.5 0.4125
vt 1.4 1.225
vt 1.5 1.225
vt -1.5 1.25
vt -1.5 0.725
vt 1.5 0.625
vt 1.5 0.725
vt 1.4 1.85
vt 1.5 1.85
vt -1.5 1.875
vt -1.5 1.0375
vt -1.5 0.9375
vt 1.5 0.9375
vt 1.5 1.0375
vt 1.4 2.475
vt 1.5 2.475
vt -1.5 2.5
vt -1.5 1.35
vt 1.5 1.25
vt 1.5 1.35
vt 1.5 1.875
vt 1.5 2.5
vt 1.9 -0.5375001
vt 1.275 -0.5375001
vt 1.5 -2.610609
vt 1.4 -2.610609
vt 1.5 -1.939789
vt 1.4 -1.939789
vt -1.4 -2.051592
vt -1.5 -2.051592
vt -1.4 -1.380772
vt -1.5 -1.380772
vt -1.275 -0.5375001
vt -1.9 -0.5375001
vt 1.275 -0.2250001
vt 0.6499999 -0.2250001
vt 1.5 -1.911838
vt 1.4 -1.911838
vt 1.5 -1.241018
vt 1.4 -1.241018
vt -1.4 -1.352821
vt -1.5 -1.352821
vt -1.4 -0.6820007
vt -1.5 -0.6820007
vt -0.6499999 -0.2250001
vt -1.275 -0.2250001
vt 0.6499999 0.08749998
vt 0.02499998 0.08749998
vt 1.5 -1.213067
vt 1.4 -1.213067
vt 1.5 -0.5422465
vt 1.4 -0.5422465
vt -1.4 -0.6540499
vt -1.5 -0.6540499
vt -1.4 0.01677051
vt -1.5 0.01677051
vt -0.02499998 0.08749998
vt -0.6499999 0.08749998
vt 0.02499998 0.4
vt -0.6 0.4
vt 1.5 -0.5142956
vt 1.4 -0.5142956
vt 1.5 0.1565248
vt 1.4 0.1565248
vt -1.4 0.04472137
vt -1.5 0.04472137
vt -1.4 0.7155418
vt -1.5 0.7155418
vt 0.6 0.4
vt -0.02499998 0.4
vt -0.6 0.7125
vt -1.225 0.7125
vt 1.5 0.1844756
vt 1.4 0.1844756
vt 1.5 0.855296
vt 1.4 0.855296
vt -1.4 0.7434926
vt -1.5 0.7434926
vt -1.4 1.414313
vt -1.5 1.414313
vt 1.225 0.7125
vt 0.6 0.7125
vt -1.225 1.025
vt -1.85 1.025
vt 1.5 0.8832469
vt 1.4 0.8832469
vt 1.5 1.554067
vt 1.4 1.554067
vt -1.4 1.442264
vt -1.5 1.442264
vt -1.4 2.113084
vt -1.5 2.113084
vt 1.85 1.025
vt 1.225 1.025
vt -1.85 1.3375
vt -2.475 1.3375
vt 1.5 1.582018
vt 1.4 1.582018
vt 1.5 2.252839
vt 1.4 2.252839
vt -1.4 2.141035
vt -1.5 2.141035
vt -1.4 2.811856
vt -1.5 2.811856
vt 2.475 1.3375
vt 1.85 1.3375
vt -1.4 2.475
vt -1.4 1.85
vt -1.5 2.475
vt -1.5 1.85
vt -1.4 1.225
vt -1.5 1.225
vt -1.4 0.6
vt -1.5 0.6
vt -1.4 -0.02499998
vt -1.5 -0.02499998
vt 1.5 -1.25
vt -1.4 -0.6499999
vt -1.5 -0.6499999
vt 1.5 -1.875
vt -1.4 -1.275
vt -1.5 -1.275
vt 1.5 -2.5
vt -1.4 -1.9
vt -1.5 -1.9
vt -1.275 -0.5374999
vt -1.9 -0.5374999
vt 1.5 -2.051592
vt 1.4 -2.051592
vt 1.5 -1.380772
vt 1.4 -1.380772
vt -1.4 -2.610609
vt -1.5 -2.610609
vt -1.4 -1.939789
vt -1.5 -1.939789
vt 1.9 -0.5374999
vt 1.275 -0.5374999
vt -0.6499999 -0.2249999
vt -1.275 -0.2249999
vt 1.5 -1.352821
vt 1.4 -1.352821
vt 1.5 -0.6820006
vt 1.4 -0.6820006
vt -1.4 -1.911838
vt -1.5 -1.911838
vt -1.4 -1.241018
vt -1.5 -1.241018
vt 1.275 -0.2249999
vt 0.6499999 -0.2249999
vt -0.02499998 0.08750004
vt -0.6499999 0.08750004
vt 1.5 -0.6540499
vt 1.4 -0.6540499
vt 1.5 0.01677055
vt 1.4 0.01677055
vt -1.4 -1.213067
vt -1.5 -1.213067
vt -1.4 -0.5422464
vt -1.5 -0.5422464
vt 0.6499999 0.08750004
vt 0.02499998 0.08750004
vt 1.5 0.04472137
vt 1.4 0.04472137
vt 1.5 0.7155418
vt 1.4 0.7155418
vt -1.4 -0.5142956
vt -1.5 -0.5142956
vt -1.4 0.1565248
vt -1.5 0.1565248
vt 1.5 0.7434926
vt 1.4 0.7434926
vt 1.5 1.414313
vt 1.4 1.414313
vt -1.4 0.1844756
vt -1.5 0.1844756
vt -1.4 0.855296
vt -1.5 0.855296
vt 1.5 1.442264
vt 1.4 1.442264
vt 1.5 2.113084
vt 1.4 2.113084
vt -1.4 0.8832469
vt -1.5 0.8832469
vt -1.4 1.554067
vt -1.5 1.554067
vt 1.5 2.141035
vt 1.4 2.141035
vt 1.5 2.811855
vt 1.4 2.811855
vt -1.4 1.582018
vt -1.5 1.582018
vt -1.4 2.252838
vt -1.5 2.252838

vn 0 1 0
vn 0 0 -1
vn -1 0 0
vn 1 0 0
vn 0 0 1
vn 0 -1 0
vn 0 0.8944274 -0.4472133
vn 0 -0.8944274 0.4472133

usemtl Metal011
f 3/3/1 4/4/1 2/2/1 1/1/1
f 7/5/1 8/6/1 6/4/1 5/3/1
f 11/7/1 12/8/1 10/6/1 9/5/1
f 15/9/1 16/10/1 14/8/1 13/7/1
f 19/11/1 20/12/1 18/10/1 17/9/1
f 23/13/1 24/14/1 22/12/1 21/11/1
f 27/15/1 28/16/1 26/14/1 25/13/1
f 31/17/1 32/18/1 30/16/1 29/15/1
f 1/21/2 2/22/2 34/20/2 33/19/2
f 37/25/3 38/26/3 36/24/3 35/23/3
f 41/29/4 42/30/4 40/28/4 39/27/4
f 4/21/5 3/22/5 44/20/5 43/19/5
f 5/31/2 6/32/2 46/8/2 45/7/2
f 49/35/3 50/36/3 48/34/3 47/33/3
f 53/39/4 54/40/4 52/38/4 51/37/4
f 8/31/5 7/32/5 56/8/5 55/7/5
f 9/43/2 10/44/2 58/42/2 57/41/2
f 61/47/3 62/48/3 60/46/3 59/45/3
f 65/51/4 66/52/4 64/50/4 63/49/4
f 12/43/5 11/44/5 68/42/5 67/41/5
f 13/53/2 14/54/2 70/10/2 69/9/2
f 73/57/3 74/58/3 72/56/3 71/55/3
f 77/60/4 78/57/4 76/55/4 75/59/4
f 16/53/5 15/54/5 80/10/5 79/9/5
f 17/63/2 18/64/2 82/62/2 81/61/2
f 85/67/3 86/68/3 84/66/3 83/65/3
f 89/68/4 90/70/4 88/69/4 87/66/4
f 20/63/5 19/64/5 92/62/5 91/61/5
f 21/71/2 22/72/2 94/12/2 93/11/2
f 97/75/3 98/76/3 96/74/3 95/73/3
f 101/79/4 102/80/4 100/78/4 99/77/4
f 24/71/5 23/72/5 104/12/5 103/11/5
f 25/83/2 26/84/2 106/82/2 105/81/2
f 109/87/3 110/88/3 108/86/3 107/85/3
f 113/91/4 114/92/4 112/90/4 111/89/4
f 28/83/5 27/84/5 116/82/5 115/81/5
f 29/93/2 30/94/2 118/14/2 117/13/2
f 121/97/3 122/98/3 120/96/3 119/95/3
f 125/101/4 126/102/4 124/100/4 123/99/4
f 32/93/5 31/94/5 128/14/5 127/13/5
f 106/13/6 115/15/6 116/16/6 105/14/6
f 118/15/6 127/17/6 128/18/6 117/16/6
f 94/11/6 103/13/6 104/14/6 93/12/6
f 82/9/6 91/11/6 92/12/6 81/10/6
f 70/7/6 79/9/6 80/10/6 69/8/6
f 58/5/6 67/7/6 68/8/6 57/6/6
f 46/3/6 55/5/6 56/6/6 45/4/6
f 34/1/6 43/3/6 44/4/6 33/2/6
f 35/103/6 36/104/6 33/2/6 44/4/6
f 37/105/5 35/106/5 44/20/5 3/22/5
f 36/107/2 38/108/2 1/21/2 33/19/2
f 131/111/1 132/112/1 130/110/1 129/109/1
f 47/113/6 48/103/6 45/4/6 56/6/6
f 49/114/5 47/115/5 56/8/5 7/32/5
f 48/116/2 50/117/2 5/31/2 45/7/2
f 135/112/1 136/119/1 134/118/1 133/110/1
f 59/115/6 60/113/6 57/6/6 68/8/6
f 61/120/5 59/121/5 68/42/5 11/44/5
f 60/122/2 62/123/2 9/43/2 57/41/2
f 139/119/1 140/125/1 138/124/1 137/118/1
f 71/126/6 72/115/6 69/8/6 80/10/6
f 73/127/5 71/126/5 80/10/5 15/54/5
f 72/128/2 74/129/2 13/53/2 69/9/2
f 143/125/1 144/131/1 142/130/1 141/124/1
f 83/132/6 84/126/6 81/10/6 92/12/6
f 85/133/5 83/134/5 92/62/5 19/64/5
f 84/135/2 86/136/2 17/63/2 81/61/2
f 147/131/1 148/138/1 146/137/1 145/130/1
f 95/139/6 96/132/6 93/12/6 104/14/6
f 97/140/5 95/132/5 104/12/5 23/72/5
f 96/141/2 98/142/2 21/71/2 93/11/2
f 151/138/1 152/144/1 150/143/1 149/137/1
f 107/145/6 108/139/6 105/14/6 116/16/6
f 109/146/5 107/147/5 116/82/5 27/84/5
f 108/148/2 110/149/2 25/83/2 105/81/2
f 155/144/1 156/151/1 154/150/1 153/143/1
f 119/152/6 120/145/6 117/16/6 128/18/6
f 121/153/5 119/139/5 128/14/5 31/94/5
f 120/154/2 122/155/2 29/93/2 117/13/2
f 122/156/1 121/157/1 31/17/1 29/15/1
f 129/158/4 130/159/4 3/30/4 1/29/4
f 131/162/7 129/163/7 1/161/7 38/160/7
f 130/166/8 132/167/8 37/165/8 3/164/8
f 132/168/3 131/169/3 38/26/3 37/25/3
f 133/170/4 134/171/4 7/40/4 5/39/4
f 135/174/7 133/175/7 5/173/7 50/172/7
f 134/178/8 136/179/8 49/177/8 7/176/8
f 136/180/3 135/181/3 50/36/3 49/35/3
f 137/182/4 138/183/4 11/52/4 9/51/4
f 139/186/7 137/187/7 9/185/7 62/184/7
f 138/190/8 140/191/8 61/189/8 11/188/8
f 140/192/3 139/193/3 62/48/3 61/47/3
f 141/194/4 142/195/4 15/57/4 13/60/4
f 143/198/7 141/199/7 13/197/7 74/196/7
f 142/202/8 144/203/8 73/201/8 15/200/8
f 144/204/3 143/205/3 74/58/3 73/57/3
f 145/206/4 146/207/4 19/70/4 17/68/4
f 147/210/7 145/211/7 17/209/7 86/208/7
f 146/214/8 148/215/8 85/213/8 19/212/8
f 148/216/3 147/217/3 86/68/3 85/67/3
f 149/218/4 150/219/4 23/80/4 21/79/4
f 151/222/7 149/223/7 21/221/7 98/220/7
f 150/226/8 152/227/8 97/225/8 23/224/8
f 152/228/3 151/229/3 98/76/3 97/75/3
f 153/230/4 154/231/4 27/92/4 25/91/4
f 155/234/7 153/235/7 25/233/7 110/232/7
f 154/238/8 156/239/8 109/237/8 27/236/8
f 156/240/3 155/241/3 110/88/3 109/87/3
f 123/156/6 124/157/6 127/17/6 118/15/6
f 125/153/2 123/139/2 118/14/2 30/94/2
f 124/154/5 126/155/5 32/93/5 127/13/5
f 126/152/1 125/145/1 30/16/1 32/18/1
f 111/154/6 112/156/6 115/15/6 106/13/6
f 113/146/2 111/147/2 106/82/2 26/84/2
f 112/148/5 114/149/5 28/83/5 115/81/5
f 159/244/1 160/245/1 158/243/1 157/242/1
f 99/141/6 100/154/6 103/13/6 94/11/6
f 101/140/2 99/132/2 94/12/2 22/72/2
f 100/141/5 102/142/5 24/71/5 103/11/5
f 163/245/1 164/247/1 162/246/1 161/243/1
f 87/128/6 88/141/6 91/11/6 82/9/6
f 89/133/2 87/134/2 82/62/2 18/64/2
f 88/135/5 90/136/5 20/63/5 91/61/5
f 167/247/1 168/249/1 166/248/1 165/246/1
f 75/116/6 76/128/6 79/9/6 70/7/6
f 77/127/2 75/126/2 70/10/2 14/54/2
f 76/128/5 78/129/5 16/53/5 79/9/5
f 171/249/1 172/251/1 170/250/1 169/248/1
f 63/252/6 64/116/6 67/7/6 58/5/6
f 65/120/2 63/121/2 58/42/2 10/44/2
f 64/122/5 66/123/5 12/43/5 67/41/5
f 175/251/1 176/254/1 174/253/1 173/250/1
f 51/255/6 52/252/6 55/5/6 46/3/6
f 53/114/2 51/115/2 46/8/2 6/32/2
f 52/116/5 54/117/5 8/31/5 55/7/5
f 179/254/1 180/257/1 178/256/1 177/253/1
f 39/258/6 40/255/6 43/3/6 34/1/6
f 41/105/2 39/106/2 34/20/2 2/22/2
f 40/107/5 42/108/5 4/21/5 43/19/5
f 183/257/1 184/260/1 182/259/1 181/256/1
f 181/261/3 182/262/3 2/26/3 4/25/3
f 183/265/8 181/266/8 4/264/8 42/263/8
f 182/269/7 184/270/7 41/268/7 2/267/7
f 184/271/4 183/272/4 42/30/4 41/29/4
f 177/273/3 178/274/3 6/36/3 8/35/3
f 179/277/8 177/278/8 8/276/8 54/275/8
f 178/281/7 180/282/7 53/280/7 6/279/7
f 180/283/4 179/284/4 54/40/4 53/39/4
f 173/285/3 174/286/3 10/48/3 12/47/3
f 175/289/8 173/290/8 12/288/8 66/287/8
f 174/293/7 176/294/7 65/292/7 10/291/7
f 176/295/4 175/296/4 66/52/4 65/51/4
f 169/204/3 170/205/3 14/58/3 16/57/3
f 171/299/8 169/300/8 16/298/8 78/297/8
f 170/303/7 172/304/7 77/302/7 14/301/7
f 172/194/4 171/195/4 78/57/4 77/60/4
f 165/216/3 166/217/3 18/68/3 20/67/3
f 167/307/8 165/308/8 20/306/8 90/305/8
f 166/311/7 168/312/7 89/310/7 18/309/7
f 168/206/4 167/207/4 90/70/4 89/68/4
f 161/228/3 162/229/3 22/76/3 24/75/3
f 163/315/8 161/316/8 24/314/8 102/313/8
f 162/319/7 164/320/7 101/318/7 22/317/7
f 164/218/4 163/219/4 102/80/4 101/79/4
f 157/240/3 158/241/3 26/88/3 28/87/3
f 159/323/8 157/324/8 28/322/8 114/321/8
f 158/327/7 160/328/7 113/326/7 26/325/7
f 160/230/4 159/231/4 114/92/4 113/91/4

