# ProBuilder 5.0.6
# https://unity3d.com/unity/features/worldbuilding/probuilder
# 8/24/2022 1:04:13 AM

mtllib ./Hallway-Room-Type-2-Variant-1.mtl
o Hallway-Room-Type-2-Variant-1

g Hallway-Room-Type-2-Variant-1
v 7.5 -4 7.5
v -7.5 -4 7.5
v 7.5 -4 0.75
v -7.5 -4 0.75
v 7.5 -4 -0.75
v -7.5 -4 -0.75
v 7.5 -4 -7.5
v -7.5 -4 -7.5
v 7.5 0 0.75
v 7.5 0 -0.75
v 7.600101 0 0.75
v 7.600101 0 -0.75
v -7.5 0 -0.75
v -7.5 0 0.75
v -7.600101 0 -0.75
v -7.600101 0 0.75
v -7.5 2.2501 -0.75
v -7.600101 2.2501 -0.75
v -7.5 0 -7.5
v -7.5 2.2501 -7.5
v -7.5 0 7.5
v -7.5 2.2501 0.75
v -7.5 2.2501 7.5
v -7.600101 2.2501 0.75
v 7.5 0 -7.5
v 7.5 2.2501 -7.5
v 7.5 2.2501 -0.75
v 7.600101 2.2501 -0.75
v 7.5 0 7.5
v 7.5 2.2501 7.5
v 7.5 2.2501 0.75
v 7.600101 2.2501 0.75
v -7.5 3.5001 -7.5
v -7.5 3.5001 -0.75
v -7.5 3.5001 0.75
v -7.5 3.5001 7.5
v 7.5 3.5001 -7.5
v 7.5 3.5001 -0.75
v 7.5 3.5001 7.5
v 7.5 3.5001 0.75
v 7 4.2501 -6.75
v 0.75 4.2501 -6.75
v -0.75 4.2501 -6.75
v -7 4.2501 -6.75
v -7 4.2501 6.75
v -0.75 4.2501 6.75
v 7 4.2501 6.75
v 0.75 4.2501 6.75
v 7 5.2501 -6.75
v -7 5.2501 -6.75
v -7 5.2501 6.75
v 7 5.2501 6.75
v -7.5 4.2501 -6.75
v -7.5 4.2501 6.75
v 7.5 4.2501 -6.75
v 7.5 4.2501 6.75
v 7.5 3.500029 -2.499929
v -7.5 3.500029 -2.499929
v 7 4.250062 -1.749908
v 0.75 4.250062 -1.749908
v -0.75 4.250062 -1.749908
v -7 4.250062 -1.749908
v 7 5.2501 -1.7499
v -7 5.2501 -1.7499
v -7 4.250062 1.749908
v -0.75 4.250062 1.749908
v -7 5.2501 1.7499
v 7 5.2501 1.7499
v 0.75 4.250062 1.749908
v 7 4.250062 1.749908
v -7.5 3.500029 2.499929
v 7.5 3.500029 2.499929
v 7.5 3.5001 -2.7
v -7.5 3.5001 -2.7
v -7.5 3.5001 2.7
v 7.5 3.5001 2.7
v -7.299999 0.2000996 2.5
v 7.3 0.2000996 2.5
v -7.299999 9.954721E-05 2.4999
v 7.3 9.954721E-05 2.499901
v 7.3 0.2000998 -2.5
v -7.299999 0.2000998 -2.5
v 7.3 9.978563E-05 -2.4999
v -7.299999 9.978563E-05 -2.4999
v -7.299999 0.1999999 -2.7
v 7.3 0.1999999 -2.7
v 7.5001 0.1999999 -2.7
v 7.5001 -1.117587E-07 -2.6999
v 7.5001 0.2000998 -2.5
v 7.5001 9.978563E-05 -2.4999
v 7.3 -1.117587E-07 -2.6999
v -7.299999 -1.117587E-07 -2.6999
v -7.500099 -1.117587E-07 -2.6999
v -7.500099 0.1999999 -2.7
v -7.500099 9.978563E-05 -2.4999
v -7.500099 0.2000998 -2.5
v 7.3 0.1999999 2.7
v -7.299999 0.1999999 2.7
v -7.500099 0.1999999 2.7
v -7.500099 -1.117587E-07 2.6999
v -7.500099 0.2000996 2.5
v -7.500099 9.954721E-05 2.4999
v -7.299999 -1.117587E-07 2.6999
v 7.3 -1.117587E-07 2.6999
v 7.5001 -1.117587E-07 2.6999
v 7.5001 0.1999999 2.7
v 7.5001 9.954721E-05 2.499901
v 7.5001 0.2000996 2.5
v 7.5 0.2 -2.6
v -7.5 0.2 -2.6
v 7.5 2.2501 -2.6
v -7.5 2.2501 -2.6
v 7.5 3.5001 -2.6
v -7.5 3.5001 -2.6
v -7.5 0.2 2.6
v 7.5 0.2 2.6
v -7.5 2.2501 2.6
v 7.5 2.2501 2.6
v -7.5 3.5001 2.6
v 7.5 3.5001 2.6
v -7.5 -9.685755E-08 -2.5
v 7.5 -9.685755E-08 -2.5
v -7.5 -9.685755E-08 2.5
v 7.5 -9.685755E-08 2.5
v -7.5 4.25 3.45
v 7.5 4.25 3.45
v 7.5 4.25 -3.45
v -7.5 4.25 -3.45
v -7.5 5.25 3.4501
v 7.5 5.25 3.4501
v 7.5 5.25 -3.4501
v -7.5 5.25 -3.4501
v -7.299999 3.5002 2.5
v -7.299999 3.5001 2.7
v -7.500099 3.5002 2.5
v -7.299999 3.5001 -2.7
v -7.299999 3.5002 -2.5
v -7.500099 3.5002 -2.5
v 7.3 3.5002 -2.5
v 7.3 3.5001 -2.7
v 7.5001 3.5002 -2.5
v 7.3 3.5001 2.7
v 7.3 3.5002 2.5
v 7.5 0.2 -2.65
v -7.5 0.2 -2.65
v 7.5 2.2501 -2.65
v -7.5 2.2501 -2.65
v 7.5 3.5001 -2.65
v -7.5 3.5001 -2.65
v -7.5 0.2 2.65
v 7.5 0.2 2.65
v -7.5 2.2501 2.65
v 7.5 2.2501 2.65
v -7.5 3.5001 2.65
v 7.5 3.5001 2.65
v 7.5 -0.5000001 -0.75
v -7.5 -0.5000001 -2.9
v 7.5 -0.5000001 -2.9
v -7.5 -0.5000001 -0.75
v 7.5 -0.5000001 0.75
v -7.5 -0.5000001 0.75
v -7.5 -0.5000001 2.9
v 7.5 -0.5000001 2.9
v -7.5 -9.685755E-08 -2.9
v 7.5 -9.685755E-08 -2.9
v -7.5 -9.685755E-08 2.9
v 7.5 -9.685755E-08 2.9

vt -7.5 7.5
vt 7.5 7.5
vt -7.5 0.75
vt 7.5 0.75
vt -7.5 -0.75
vt 7.5 -0.75
vt -7.5 -7.5
vt 7.5 -7.5
vt -7.600101 0.75
vt -7.600101 -0.75
vt 7.600101 -0.75
vt 7.600101 0.75
vt -7.5 0
vt -7.600101 0
vt -7.5 2.2501
vt -7.600101 2.2501
vt 7.5 0
vt 0.75 0
vt 7.5 2.2501
vt 0.75 2.2501
vt -0.75 0
vt -0.75 2.2501
vt 7.600101 0
vt 7.600101 2.2501
vt 7.5 3.5001
vt 0.75 3.5001
vt -0.75 3.5001
vt -7.5 3.5001
vt -0.75 -1.247992
vt -7.5 -1.247992
vt -6.75 -0.3466035
vt 0.75 -1.247992
vt 7.5 -2.828355
vt -7.5 -2.828355
vt 7 -1.767695
vt 0.75 -1.767695
vt -0.75 -1.767695
vt -7 -1.767695
vt 7.5 -1.247992
vt 6.75 -0.3466035
vt -6.75 4.2501
vt -6.75 5.2501
vt 7 4.2501
vt 0.75 4.2501
vt 7 5.2501
vt -7 5.2501
vt -0.75 4.2501
vt -7 4.2501
vt 6.75 4.2501
vt 6.75 5.2501
vt -7 -6.75
vt -7 6.75
vt 7 6.75
vt 7 -6.75
vt -0.75 -6.75
vt -7.5 -6.75
vt -0.75 6.75
vt -7.5 6.75
vt 7.5 -6.75
vt 0.75 -6.75
vt 7.5 6.75
vt 0.75 6.75
vt 7.5 0.7072096
vt -7.5 0.7072096
vt 7 1.767908
vt 0.75 1.767908
vt -0.75 1.767908
vt -7 1.767908
vt 7.5 -2.701239
vt -7.5 -2.701239
vt 7.5 -2.501168
vt -7.5 -2.501168
vt -7.5 2.701239
vt 7.5 2.701239
vt -7.5 2.501168
vt 7.5 2.501168
vt 7.299999 0.2013453
vt -7.3 0.2013453
vt 7.299999 0.001345234
vt -7.3 0.001345235
vt 7.3 0.2013485
vt -7.299999 0.2013485
vt 7.3 0.001348453
vt -7.299999 0.001348453
vt 7.299999 -2.6999
vt -7.3 -2.6999
vt 7.299999 -2.4999
vt -7.3 -2.4999
vt 2.7 0.1999999
vt 2.6999 -1.117587E-07
vt 2.5 0.2000998
vt 2.4999 9.978563E-05
vt 7.3 -2.6999
vt -7.299999 -2.6999
vt 7.3 -2.4999
vt -7.299999 -2.4999
vt -2.6999 -1.117587E-07
vt -2.7 0.1999999
vt -2.4999 9.978563E-05
vt -2.5 0.2000998
vt -7.3 2.6999
vt 7.299999 2.6999
vt -7.3 2.4999
vt 7.299999 2.4999
vt -7.299999 2.6999
vt 7.3 2.6999
vt -7.299999 2.4999
vt 7.3 2.4999
vt -2.5 0.2000996
vt 7.5 0.2
vt -7.5 0.2
vt -7.5 -4
vt 7.5 -4
vt -0.75 -4
vt 0.75 -4
vt 7.5 -2.5
vt -7.5 -2.5
vt 7.5 2.5
vt -7.5 2.5
vt -7.5 4.384095
vt 7.5 4.384095
vt -7.5 5.444684
vt 7.5 5.444684
vt -7.5 4.250343
vt 7.5 4.250343
vt -7.5 5.250343
vt 7.5 5.250343
vt 7.500099 0.001351671
vt 7.500099 0.2013517
vt -7.500099 -2.4999
vt -7.500099 -2.6999
vt -7.500099 0.2013455
vt -7.500099 0.001345473
vt -7.500099 2.6999
vt -7.500099 2.4999
vt -2.5 3.5002
vt -2.7 3.5001
vt 7.500099 0.2000997
vt 7.299999 0.2000997
vt 7.299999 3.5002
vt -7.299999 0.1999999
vt -7.299999 3.5001
vt 2.7 3.5001
vt 2.5 3.5002
vt 7.299999 0.1999999
vt -7.299999 0.2000998
vt -7.500099 0.2000998
vt 7.5001 2.4999
vt 7.5001 2.6999
vt 7.5001 -2.6999
vt 7.5001 -2.4999
vt 7.3 0.2000998
vt 7.3 3.5002
vt -7.3 0.2000001
vt -7.3 3.5001
vt 2.5 0.2000996
vt 2.5 3.5002
vt 7.3 0.1999999
vt -2.5 3.5002
vt 2.6 2.2501
vt 2.6 3.5001
vt 2.65 2.2501
vt 2.65 3.5001
vt -2.6 2.2501
vt -2.6 0.2
vt -2.65 2.2501
vt -2.65 0.2
vt -7.5 -2.6
vt 7.5 -2.6
vt -7.5 -2.65
vt 7.5 -2.65
vt 2.6 0.2
vt 2.65 0.2
vt -2.6 3.5001
vt -2.65 3.5001
vt 7.5 2.6
vt -7.5 2.6
vt 7.5 2.65
vt -7.5 2.65
vt -7.5 -2.9
vt 7.5 -2.9
vt -7.5 2.9
vt 7.5 2.9
vt -2.9 -9.685755E-08
vt -2.9 -0.5000001
vt -0.75 -0.5000001
vt 0.75 -0.5000001
vt -7.5 -0.5000001
vt 7.5 -0.5000001
vt 2.9 -9.685755E-08
vt 2.9 -0.5000001

vn 0 1 0
vn 0 0 1
vn 1 0 0
vn 0 0 -1
vn -1 0 0
vn 0 -1 0
vn -0.8320504 -0.5547001 0
vn 0 -0.7071066 0.7071069
vn 0.8320504 -0.5547001 0
vn 0 -0.7071066 -0.7071069
vn 0 -0.9999999 -0.0003539262
vn -1.633004E-08 0.0004982948 -0.9999999
vn 0 0.0004994869 0.9999999
vn 8.156629E-12 0.9999999 -0.0004994862
vn 0 -0.0005006789 -0.9999999

usemtl Concrete025-003
f 17/15/2 18/16/2 15/14/2 13/13/2
f 24/24/4 22/19/4 14/17/4 16/23/4
f 28/24/2 27/19/2 10/17/2 12/23/2
f 31/15/4 32/16/4 11/14/4 9/13/4
f 33/25/3 34/26/3 17/20/3 20/19/3
f 35/27/3 36/28/3 23/15/3 22/22/3
f 38/27/5 37/28/5 26/15/5 27/22/5
f 39/25/5 40/26/5 31/20/5 30/19/5
f 31/20/5 40/26/5 38/27/5 27/22/5
f 35/27/3 22/22/3 17/20/3 34/26/3
f 36/25/4 39/28/4 30/15/4 23/19/4
f 37/25/2 33/28/2 20/15/2 26/19/2
f 82/87/14 81/88/14 86/86/14 85/85/14
f 83/95/11 84/96/11 92/94/11 91/93/11
f 78/103/14 77/104/14 98/102/14 97/101/14
f 79/107/11 80/108/11 104/106/11 103/105/11
f 8/112/2 7/113/2 25/17/2 19/13/2
f 7/112/5 5/114/5 10/21/5 25/13/5
f 2/112/3 4/114/3 14/21/3 21/13/3
f 6/115/3 8/113/3 19/17/3 13/18/3
f 1/112/4 2/113/4 21/17/4 29/13/4
f 5/114/5 3/115/5 9/18/5 10/21/5
f 4/114/3 6/115/3 13/18/3 14/21/3
f 3/115/5 1/113/5 29/17/5 9/18/5
f 95/130/11 93/131/11 92/94/11 84/96/11
f 100/134/11 102/135/11 79/107/11 103/105/11
f 107/148/11 105/149/11 104/106/11 80/108/11
f 88/150/11 90/151/11 83/95/11 91/93/11
f 73/143/3 141/144/3 89/91/3 87/89/3
f 72/159/3 76/137/3 106/98/3 108/109/3
f 92/79/15 85/77/15 86/78/12 91/80/15
f 97/81/13 98/82/13 103/84/13 104/83/13

usemtl SheetMetal002
f 46/57/6 54/58/6 53/56/6 43/55/6
f 56/61/6 48/62/6 42/60/6 55/59/6
f 48/62/6 46/57/6 43/55/6 42/60/6

usemtl Floor
f 6/6/1 5/5/1 7/7/1 8/8/1
f 5/5/1 6/6/1 4/4/1 3/3/1
f 1/1/1 3/3/1 4/4/1 2/2/1
f 13/6/1 10/5/1 122/117/1 121/116/1
f 10/5/1 13/6/1 14/4/1 9/3/1
f 124/119/1 9/3/1 14/4/1 123/118/1
f 157/185/5 159/186/5 13/21/5 164/184/5
f 159/186/5 161/187/5 14/18/5 13/21/5
f 156/187/3 158/191/3 165/190/3 10/18/3
f 161/187/5 162/191/5 166/190/5 14/18/5
f 160/186/3 156/187/3 10/18/3 9/21/3
f 163/185/3 160/186/3 9/21/3 167/184/3

usemtl Concrete025-002
f 45/35/10 46/36/10 36/33/10
f 46/36/10 48/37/10 36/33/10
f 48/37/10 39/34/10 36/33/10
f 48/37/10 47/38/10 39/34/10
f 41/35/8 33/34/8 37/33/8
f 41/35/8 42/36/8 33/34/8
f 42/36/8 43/37/8 33/34/8
f 43/37/8 44/38/8 33/34/8
f 51/45/4 46/44/4 45/43/4
f 51/45/4 52/46/4 46/44/4
f 52/46/4 48/47/4 46/44/4
f 52/46/4 47/48/4 48/47/4
f 49/45/2 42/44/2 41/43/2
f 49/45/2 50/46/2 42/44/2
f 50/46/2 43/47/2 42/44/2
f 50/46/2 44/48/2 43/47/2
f 44/40/9 34/32/9 33/39/9
f 44/40/9 45/31/9 34/32/9
f 45/31/9 35/29/9 34/32/9
f 45/31/9 36/30/9 35/29/9
f 41/31/7 37/30/7 38/29/7
f 41/31/7 38/29/7 40/32/7
f 47/40/7 40/32/7 39/39/7
f 47/40/7 41/31/7 40/32/7
f 59/65/8 58/64/8 57/63/8
f 59/65/8 60/66/8 58/64/8
f 60/66/8 61/67/8 58/64/8
f 61/67/8 62/68/8 58/64/8
f 63/45/2 60/44/2 59/43/2
f 63/45/2 64/46/2 60/44/2
f 64/46/2 61/47/2 60/44/2
f 64/46/2 62/48/2 61/47/2
f 67/45/4 66/44/4 65/43/4
f 67/45/4 68/46/4 66/44/4
f 68/46/4 69/47/4 66/44/4
f 68/46/4 70/48/4 69/47/4
f 65/65/10 66/66/10 71/63/10
f 66/66/10 69/67/10 71/63/10
f 69/67/10 72/64/10 71/63/10
f 69/67/10 70/68/10 72/64/10
f 12/10/1 10/5/1 9/3/1
f 9/3/1 11/9/1 12/10/1
f 16/12/1 14/4/1 13/6/1
f 13/6/1 15/11/1 16/12/1
f 17/20/3 13/18/3 19/17/3
f 19/17/3 20/19/3 17/20/3
f 23/15/3 21/13/3 14/21/3
f 14/21/3 22/22/3 23/15/3
f 26/15/5 25/13/5 10/21/5
f 10/21/5 27/22/5 26/15/5
f 31/20/5 9/18/5 29/17/5
f 29/17/5 30/19/5 31/20/5
f 31/4/6 27/6/6 28/11/6
f 28/11/6 32/12/6 31/4/6
f 24/9/6 18/10/6 17/5/6
f 17/5/6 22/3/6 24/9/6
f 30/15/4 29/13/4 21/17/4
f 21/17/4 23/19/4 30/15/4
f 20/15/2 19/13/2 25/17/2
f 25/17/2 26/19/2 20/15/2
f 52/53/6 51/52/6 50/51/6
f 50/51/6 49/54/6 52/53/6
f 51/42/3 45/41/3 44/49/3
f 44/49/3 50/50/3 51/42/3
f 49/42/5 41/41/5 47/49/5
f 47/49/5 52/50/5 49/42/5
f 58/72/11 74/70/11 73/69/11
f 73/69/11 57/71/11 58/72/11
f 72/76/11 76/74/11 75/73/11
f 75/73/11 71/75/11 72/76/11
f 79/79/12 77/77/12 78/78/12
f 78/78/12 80/80/12 79/79/12
f 83/83/13 81/81/13 82/82/13
f 82/82/13 84/84/13 83/83/13
f 90/92/3 88/90/3 87/89/3
f 87/89/3 89/91/3 90/92/3
f 96/100/5 94/98/5 93/97/5
f 93/97/5 95/99/5 96/100/5
f 102/92/5 100/90/5 99/89/5
f 99/89/5 101/91/5 102/92/5
f 108/109/3 106/98/3 105/97/3
f 105/97/3 107/99/3 108/109/3
f 125/122/8 75/120/8 76/121/8
f 76/121/8 126/123/8 125/122/8
f 127/122/10 73/120/10 74/121/10
f 74/121/10 128/123/10 127/122/10
f 129/126/2 125/124/2 126/125/2
f 126/125/2 130/127/2 129/126/2
f 131/126/4 127/124/4 128/125/4
f 128/125/4 132/127/4 131/126/4
f 94/129/15 85/77/15 92/79/15
f 92/79/15 93/128/15 94/129/15
f 95/133/13 84/84/13 82/82/13
f 82/82/13 96/132/13 95/133/13
f 100/133/13 103/84/13 98/82/13
f 98/82/13 99/132/13 100/133/13
f 101/129/12 77/77/12 79/79/12
f 79/79/12 102/128/12 101/129/12
f 134/137/3 98/98/3 77/100/3
f 77/100/3 133/136/3 134/137/3
f 133/140/4 77/139/4 101/138/4
f 101/138/4 135/25/4 133/140/4
f 75/28/2 99/111/2 98/141/2
f 98/141/2 134/142/2 75/28/2
f 135/144/5 101/91/5 99/89/5
f 99/89/5 75/143/5 135/144/5
f 137/144/3 82/91/3 85/89/3
f 85/89/3 136/143/3 137/144/3
f 136/140/4 85/145/4 94/110/4
f 94/110/4 74/25/4 136/140/4
f 138/28/2 96/147/2 82/146/2
f 82/146/2 137/142/2 138/28/2
f 74/137/5 94/98/5 96/100/5
f 96/100/5 138/136/5 74/137/5
f 106/129/13 97/81/13 104/83/13
f 104/83/13 105/128/13 106/129/13
f 107/133/12 80/80/12 78/78/12
f 78/78/12 108/132/12 107/133/12
f 88/133/12 91/80/12 86/78/12
f 86/78/12 87/132/12 88/133/12
f 89/129/13 81/81/13 83/83/13
f 83/83/13 90/128/13 89/129/13
f 140/137/5 86/98/5 81/100/5
f 81/100/5 139/136/5 140/137/5
f 139/153/2 81/152/2 89/138/2
f 89/138/2 141/25/2 139/153/2
f 73/28/4 87/147/4 86/154/4
f 86/154/4 140/155/4 73/28/4
f 143/157/5 78/156/5 97/89/5
f 97/89/5 142/143/5 143/157/5
f 142/153/2 97/158/2 106/110/2
f 106/110/2 76/25/2 142/153/2
f 72/28/4 108/147/4 78/154/4
f 78/154/4 143/155/4 72/28/4
f 156/6/6 159/5/6 157/180/6
f 157/180/6 158/181/6 156/6/6
f 161/3/6 159/5/6 156/6/6
f 156/6/6 160/4/6 161/3/6
f 160/4/6 163/183/6 162/182/6
f 162/182/6 161/3/6 160/4/6
f 157/189/4 164/17/4 165/13/4
f 165/13/4 158/188/4 157/189/4
f 163/189/2 167/17/2 166/13/2
f 166/13/2 162/188/2 163/189/2

usemtl Glass-00
f 111/19/2 112/15/2 110/111/2 109/110/2
f 113/25/2 114/28/2 112/15/2 111/19/2
f 117/19/4 118/15/4 116/111/4 115/110/4
f 119/25/4 120/28/4 118/15/4 117/19/4
f 144/111/4 145/110/4 147/19/4 146/15/4
f 146/15/4 147/19/4 149/25/4 148/28/4
f 150/111/2 151/110/2 153/19/2 152/15/2
f 152/15/2 153/19/2 155/25/2 154/28/2
f 146/162/3 148/163/3 113/161/3 111/160/3
f 147/166/5 145/167/5 110/165/5 112/164/5
f 145/170/6 144/171/6 109/169/6 110/168/6
f 144/173/3 146/162/3 111/160/3 109/172/3
f 148/170/1 149/171/1 114/169/1 113/168/1
f 149/175/5 147/166/5 112/164/5 114/174/5
f 152/162/5 154/163/5 119/161/5 117/160/5
f 153/166/3 151/167/3 116/165/3 118/164/3
f 151/178/6 150/179/6 115/177/6 116/176/6
f 150/173/5 152/162/5 117/160/5 115/172/5
f 154/178/1 155/179/1 120/177/1 119/176/1
f 155/175/3 153/166/3 118/164/3 120/174/3

