# ProBuilder 5.0.4
# https://unity3d.com/unity/features/worldbuilding/probuilder
# 5/20/2022 7:19:00 PM

mtllib ./Hallway-01.mtl
o Hallway-01

g Hallway-01
v -0.75 0 -2.599999
v 0.75 -0.1 -2.599999
v 7.5 -0.1 -2.599998
v 7.5 0 -2.599998
v -0.75 -0.1 -2.599999
v -7.5 0 -2.599998
v -7.5 -0.1 -2.599998
v 7.600101 -0.1 2.600002
v 7.600101 0 2.600002
v 7.600101 -0.1 2.5
v 7.600101 0 2.5
v 7.5 5.3501 2.600002
v 7.5 5.3501 1.5
v -7.5 5.3501 1.5
v 0.75 -0.1 2.600001
v 7.5 -0.1 2.600002
v 0.75 -0.1 2.500001
v 7.5 -0.1 2.5
v -0.75 -0.1 2.600001
v -0.75 -0.1 2.500001
v -7.600101 0 2.600002
v -7.600101 -0.1 2.600002
v -7.600101 0 2.5
v -7.600101 -0.1 2.5
v -7.5 -0.1 2.600002
v -7.5 -0.1 2.5
v 7.600101 -0.1 0.75
v 7.600101 0 0.75
v 7.5 0 2.5
v -7.5 0 2.5
v 7.5 0 0.75
v -7.5 0 0.75
v 0.75 -0.1 0.750001
v 7.5 -0.1 0.75
v -0.75 -0.1 0.750001
v -7.600101 0 0.75
v -7.600101 -0.1 0.75
v -7.5 -0.1 0.75
v 7.600101 -0.1 -0.75
v 7.600101 0 -0.75
v 7.5 0 -0.75
v -7.5 0 -0.75
v 0.75 -0.1 -0.749999
v 7.5 -0.1 -0.75
v -0.75 -0.1 -0.749999
v -7.600101 0 -0.75
v -7.600101 -0.1 -0.75
v -7.5 -0.1 -0.75
v 7.600101 -0.1 -2.5
v 7.600101 0 -2.5
v 7.5 0 -2.5
v -7.5 0 -2.5
v 0.75 -0.1 -2.499999
v 7.5 -0.1 -2.5
v -0.75 -0.1 -2.499999
v -7.600101 0 -2.5
v -7.600101 -0.1 -2.5
v -7.5 -0.1 -2.5
v 7.600101 -0.1 -2.599998
v 7.600101 0 -2.599998
v 7.5 5.3501 -1.5
v 7.5 5.3501 -2.599998
v -7.5 5.3501 -2.599998
v -7.600101 0 -2.599998
v -7.600101 -0.1 -2.599998
v 7.5 5.3501 0.75
v 7.600101 5.3501 2.5
v 7.600101 5.3501 0.75
v 7.5 0 2.600002
v 7.600101 5.3501 2.600002
v 7.5 5.3501 -0.75
v 7.600101 5.3501 -0.75
v 7.600101 5.3501 -2.5
v 7.600101 5.3501 -2.599998
v -7.5 0 2.600002
v -7.5 5.3501 2.600002
v -7.600101 5.3501 2.600002
v -7.600101 5.3501 2.5
v -7.600101 5.3501 -0.75
v -7.5 5.3501 -1.5
v -7.600101 5.3501 -2.599998
v -7.600101 5.3501 -2.5
v -7.5 2.2501 -0.75
v -7.600101 2.2501 -0.75
v -7.600101 2.2501 -2.5
v -7.600101 2.2501 -2.599998
v -7.5 2.2501 -2.5
v -7.5 2.2501 0.75
v -7.5 2.2501 2.5
v -7.600101 2.2501 0.75
v -7.600101 2.2501 2.5
v -7.600101 2.2501 2.600002
v -0.75 0 2.600001
v 7.5 2.2501 -2.5
v 7.600101 2.2501 -2.5
v 7.600101 2.2501 -0.75
v 7.600101 2.2501 -2.599998
v 7.5 2.2501 -0.75
v 7.5 2.2501 2.5
v 7.5 2.2501 0.75
v 7.600101 2.2501 2.5
v 7.600101 2.2501 2.600002
v 7.600101 2.2501 0.75
v 7.5 2.2501 2.600002
v -7.600101 2.7501 -2.5
v -7.600101 2.7501 -2.599998
v -7.5 3.5001 -2.5
v -7.5 3.5001 -0.75
v -7.600101 2.7501 -0.75
v -7.5 3.5001 0.75
v -7.5 3.5001 2.5
v -7.600101 2.7501 2.5
v -7.600101 2.7501 0.75
v -7.600101 2.7501 2.600002
v 7.5 3.5001 -2.5
v 7.600101 2.7501 -2.5
v 7.600101 2.7501 -0.75
v 7.600101 2.7501 -2.599998
v 7.5 3.5001 -0.75
v 7.5 3.5001 2.5
v 7.5 3.5001 0.75
v 7.600101 2.7501 2.5
v 7.600101 2.7501 2.600002
v 7.600101 2.7501 0.75
v 7.5 2.7501 2.600002
v -7.600101 5.3501 0.75
v 7 4.2501 -1.75
v 7.600101 3.2501 -2.5
v 7.600101 3.2501 -0.75
v 7.600101 3.2501 -2.599998
v 0.75 4.2501 -1.75
v -0.75 4.2501 -1.75
v -7 4.2501 -1.75
v -7.600101 3.2501 0.75
v -7.600101 3.2501 -0.75
v -7.600101 3.2501 -2.5
v -7.600101 3.2501 -2.599998
v -7 4.2501 1.75
v -7.600101 3.2501 2.5
v -0.75 4.2501 1.75
v -7.600101 3.2501 2.600002
v 7 4.2501 1.75
v 0.75 4.2501 1.75
v 7.600101 3.2501 2.600002
v 7.5 3.2501 2.600002
v 7.600101 3.2501 2.5
v 7.600101 3.2501 0.75
v 7 5.2501 -1.75
v 7.600101 4.2501 -2.5
v 7.600101 4.2501 -0.75
v 7.600101 4.2501 -2.599998
v -7 5.2501 -1.75
v -7.600101 4.2501 -2.599998
v -7.600101 4.2501 0.75
v -7.600101 4.2501 -0.75
v -7.600101 4.2501 -2.5
v -7 5.2501 1.75
v -7.600101 4.2501 2.5
v 7 5.2501 1.75
v -7.600101 4.2501 2.600002
v 7.5 4.2501 2.600002
v 7.600101 4.2501 2.600002
v 7.600101 4.2501 2.5
v 7.600101 4.2501 0.75
v -7.5 4.2501 -1.75
v -7.5 4.2501 1.75
v 7.5 4.2501 -1.75
v 7.5 4.2501 1.75

vt 0.7500003 0
vt -0.7499997 -0.1
vt -7.5 -0.1
vt -7.5 0
vt 0.75 -0.1
vt -0.75 -0.1
vt 0.7499996 0
vt 7.5 0
vt 7.5 -0.1
vt 0.7499996 -0.1
vt -2.600002 -0.1
vt -2.600002 0
vt -2.5 -0.1
vt -2.5 0
vt -7.5 2.600002
vt -7.5 1.5
vt 7.5 1.5
vt 0.75 2.600001
vt 7.5 2.600002
vt 0.75 2.500001
vt 7.5 2.5
vt -0.75 2.600001
vt -0.75 2.500001
vt 2.600002 0
vt 2.600002 -0.1
vt 2.5 0
vt 2.5 -0.1
vt -7.5 2.5
vt -0.75 0
vt -7.5 0.75
vt 7.5 0.75
vt 0.75 0.750001
vt -0.75 0.750001
vt -7.5 -0.75
vt 7.5 -0.75
vt 0.75 -0.749999
vt -0.75 -0.749999
vt -7.5 -2.5
vt 7.5 -2.5
vt 0.75 -2.499999
vt -0.75 -2.499999
vt 2.599998 -0.1
vt 2.599998 0
vt -7.5 -1.5
vt -7.5 -2.599998
vt 7.5 -2.599998
vt 0.75 -2.599999
vt -0.75 -2.599999
vt -2.599998 0
vt -2.599998 -0.1
vt -7.600101 0.75
vt -7.600101 -0.75
vt 7.600101 0.75
vt 7.600101 2.5
vt -7.600101 2.5
vt 7.600101 -0.75
vt 7.5 -0.1
vt 7.5 0
vt 7.600101 -0.1
vt 7.600101 0
vt 7.600101 2.600002
vt -7.600101 2.600002
vt 7.600101 -2.5
vt -7.600101 -2.5
vt 7.600101 -2.599998
vt -7.600101 -2.599998
vt -7.5 0
vt -7.5 -0.1
vt -7.600101 0
vt -7.600101 -0.1
vt 7.5 -1.5
vt -7.5 2.2501
vt -7.600101 2.2501
vt -2.5 2.2501
vt -2.599998 2.2501
vt 2.5 2.2501
vt 0.75 2.2501
vt -0.75 2.2501
vt 7.600101 2.2501
vt 7.5 2.2501
vt 2.600002 2.2501
vt 2.599998 2.2501
vt -2.600002 2.2501
vt -2.5 2.7501
vt -2.599998 2.7501
vt 2.5 3.5001
vt 0.75 3.5001
vt -0.75 2.7501
vt -0.75 3.5001
vt -2.5 3.5001
vt 2.5 2.7501
vt 0.75 2.7501
vt 2.600002 2.7501
vt 7.5 3.5001
vt -7.5 3.5001
vt -7.5 5.3501
vt 2.599998 2.7501
vt -2.600002 2.7501
vt 7.600101 2.7501
vt 7.5 2.7501
vt -0.75 -1.247991
vt -2.5 -1.247991
vt -1.75 -0.3466031
vt 0.75 -1.247991
vt -7.600101 2.7501
vt 2.5 3.2501
vt 0.75 3.2501
vt 2.599998 3.2501
vt 7.5 0.7071784
vt -7.5 0.7071784
vt 7 1.767839
vt 0.75 1.767839
vt -0.75 1.767839
vt -7 1.767839
vt -0.75 3.2501
vt -2.5 3.2501
vt -2.599998 3.2501
vt 2.5 -1.247991
vt 1.75 -0.3466031
vt 2.600002 3.2501
vt 7.600101 3.2501
vt 7.5 3.2501
vt -2.600002 3.2501
vt -1.75 4.2501
vt -1.75 5.2501
vt -7.600101 3.2501
vt 2.5 4.2501
vt 0.75 4.2501
vt 2.599998 4.2501
vt 7 4.2501
vt 7 5.2501
vt -7 5.2501
vt -0.75 4.2501
vt 7.5 5.3501
vt 7.600101 4.2501
vt -7 4.2501
vt -2.5 4.2501
vt -2.599998 4.2501
vt 1.75 4.2501
vt 1.75 5.2501
vt 2.600002 4.2501
vt 7.5 4.2501
vt -2.600002 4.2501
vt -7.600101 4.2501
vt -7.600101 5.3501
vt 2.5 5.3501
vt 0.75 5.3501
vt 2.599998 5.3501
vt 7.600101 5.3501
vt -0.75 5.3501
vt -2.5 5.3501
vt -2.599998 5.3501
vt 2.600002 5.3501
vt -2.600002 5.3501
vt -7 -1.75
vt -7 1.75
vt 7 1.75
vt 7 -1.75
vt -0.75 -1.75
vt -7.5 -1.75
vt -0.75 1.75
vt -7.5 1.75
vt 7.5 -1.75
vt 0.75 -1.75
vt 7.5 1.75
vt 0.75 1.75

vn 1.28441E-07 1.059638E-06 -1
vn 1 0 0
vn 0 1 0
vn 0 -1 0
vn -1 0 0
vn 0 0 1
vn -0.8320504 -0.5547001 0
vn 0 -0.7071066 0.7071069
vn 0.8320504 -0.5547001 0
vn 0 -0.7071066 -0.7071069

usemtl Concrete025-003
f 2/6/1 5/5/1 1/1/1
f 1/1/1 4/4/1 3/3/1
f 3/3/1 2/2/1 1/1/1
f 7/9/1 6/8/1 1/7/1
f 1/7/1 5/10/1 7/9/1
f 11/14/2 9/12/2 8/11/2
f 8/11/2 10/13/2 11/14/2
f 24/27/5 22/25/5 21/24/5
f 21/24/5 23/26/5 24/27/5
f 28/29/2 11/14/2 10/13/2
f 10/13/2 27/6/2 28/29/2
f 37/5/5 24/27/5 23/26/5
f 23/26/5 36/1/5 37/5/5
f 40/1/2 28/29/2 27/6/2
f 27/6/2 39/5/2 40/1/2
f 47/6/5 37/5/5 36/1/5
f 36/1/5 46/29/5 47/6/5
f 50/26/2 40/1/2 39/5/2
f 39/5/2 49/27/2 50/26/2
f 57/13/5 47/6/5 46/29/5
f 46/29/5 56/14/5 57/13/5
f 60/43/2 50/26/2 49/27/2
f 49/27/2 59/42/2 60/43/2
f 65/50/5 57/13/5 56/14/5
f 56/14/5 64/49/5 65/50/5
f 9/60/6 69/58/6 16/57/6
f 16/57/6 8/59/6 9/60/6
f 8/61/4 16/19/4 18/21/4
f 18/21/4 10/54/4 8/61/4
f 49/63/4 54/39/4 3/46/4
f 3/46/4 59/65/4 49/63/4
f 59/70/1 3/68/1 4/67/1
f 4/67/1 60/69/1 59/70/1
f 22/70/6 25/68/6 75/67/6
f 75/67/6 21/69/6 22/70/6
f 24/55/4 26/28/4 25/15/4
f 25/15/4 22/62/4 24/55/4
f 65/66/4 7/45/4 58/38/4
f 58/38/4 57/64/4 65/66/4
f 64/60/1 6/58/1 7/57/1
f 7/57/1 65/59/1 64/60/1
f 84/73/6 46/69/6 42/67/6
f 42/67/6 83/72/6 84/73/6
f 83/77/2 42/1/2 52/26/2
f 52/26/2 87/76/2 83/77/2
f 89/74/2 30/14/2 32/29/2
f 32/29/2 88/78/2 89/74/2
f 88/80/1 32/58/1 36/60/1
f 36/60/1 90/79/1 88/80/1
f 94/74/5 51/14/5 41/29/5
f 41/29/5 98/78/5 94/74/5
f 98/80/6 41/58/6 40/60/6
f 40/60/6 96/79/6 98/80/6
f 100/77/5 31/1/5 29/26/5
f 29/26/5 99/76/5 100/77/5
f 103/73/1 28/69/1 31/67/1
f 31/67/1 100/72/1 103/73/1
f 108/87/2 83/77/2 87/76/2
f 87/76/2 107/86/2 108/87/2
f 111/90/2 89/74/2 88/78/2
f 88/78/2 110/89/2 111/90/2
f 115/90/5 94/74/5 98/78/5
f 98/78/5 119/89/5 115/90/5
f 121/87/5 100/77/5 99/76/5
f 99/76/5 120/86/5 121/87/5
f 121/87/5 119/89/5 98/78/5
f 98/78/5 100/77/5 121/87/5
f 88/78/2 83/77/2 108/87/2
f 108/87/2 110/89/2 88/78/2
f 99/72/1 29/67/1 30/58/1
f 30/58/1 89/80/1 99/72/1
f 120/95/1 99/72/1 89/80/1
f 89/80/1 111/94/1 120/95/1
f 107/95/6 87/72/6 94/80/6
f 94/80/6 115/94/6 107/95/6
f 87/72/6 52/67/6 51/58/6
f 51/58/6 94/80/6 87/72/6

usemtl SheetMetal002
f 140/161/4 166/162/4 165/160/4 132/159/4
f 168/165/4 143/166/4 131/164/4 167/163/4
f 143/166/4 140/161/4 132/159/4 131/164/4

usemtl Floor
f 42/35/3 41/34/3 51/38/3 52/39/3
f 41/34/3 42/35/3 32/31/3 31/30/3
f 29/28/3 31/30/3 32/31/3 30/21/3

usemtl Concrete025-002
f 138/111/10 140/112/10 111/109/10
f 140/112/10 143/113/10 111/109/10
f 143/113/10 120/110/10 111/109/10
f 143/113/10 142/114/10 120/110/10
f 127/111/8 107/110/8 115/109/8
f 127/111/8 131/112/8 107/110/8
f 131/112/8 132/113/8 107/110/8
f 132/113/8 133/114/8 107/110/8
f 157/131/1 140/128/1 138/130/1
f 157/131/1 159/132/1 140/128/1
f 159/132/1 143/133/1 140/128/1
f 159/132/1 142/136/1 143/133/1
f 148/131/6 131/128/6 127/130/6
f 148/131/6 152/132/6 131/128/6
f 152/132/6 132/133/6 131/128/6
f 152/132/6 133/136/6 132/133/6
f 133/119/9 108/104/9 107/118/9
f 133/119/9 138/103/9 108/104/9
f 138/103/9 110/101/9 108/104/9
f 138/103/9 111/102/9 110/101/9
f 127/103/7 115/102/7 119/101/7
f 127/103/7 119/101/7 121/104/7
f 142/119/7 121/104/7 120/118/7
f 142/119/7 127/103/7 121/104/7
f 81/65/3 80/71/3 63/46/3
f 81/65/3 82/63/3 80/71/3
f 82/63/3 79/56/3 80/71/3
f 126/53/3 80/71/3 79/56/3
f 126/53/3 14/17/3 80/71/3
f 126/53/3 78/54/3 14/17/3
f 78/54/3 76/19/3 14/17/3
f 78/54/3 77/61/3 76/19/3
f 161/142/6 76/96/6 145/122/6
f 12/134/6 76/96/6 161/142/6
f 125/100/6 76/96/6 104/80/6
f 145/122/6 76/96/6 125/100/6
f 76/96/6 75/67/6 93/29/6
f 104/80/6 93/29/6 69/58/6
f 104/80/6 76/96/6 93/29/6
f 63/134/1 1/1/1 6/58/1
f 63/134/1 4/67/1 1/1/1
f 63/134/1 62/96/1 4/67/1
f 153/135/1 63/134/1 137/121/1
f 137/121/1 63/134/1 106/99/1
f 106/99/1 63/134/1 86/79/1
f 86/79/1 6/58/1 64/60/1
f 86/79/1 63/134/1 6/58/1
f 81/149/1 63/134/1 153/135/1
f 62/96/1 74/145/1 151/144/1
f 62/96/1 151/144/1 130/126/1
f 62/96/1 130/126/1 118/105/1
f 62/96/1 118/105/1 97/73/1
f 62/96/1 60/69/1 4/67/1
f 62/96/1 97/73/1 60/69/1
f 76/96/6 77/145/6 160/144/6
f 76/96/6 160/144/6 141/126/6
f 76/96/6 141/126/6 114/105/6
f 76/96/6 114/105/6 92/73/6
f 76/96/6 21/69/6 75/67/6
f 76/96/6 92/73/6 21/69/6
f 18/21/4 16/19/4 15/18/4
f 15/18/4 17/20/4 18/21/4
f 17/20/4 15/18/4 19/22/4
f 19/22/4 20/23/4 17/20/4
f 20/23/4 19/22/4 25/15/4
f 25/15/4 26/28/4 20/23/4
f 34/31/4 18/21/4 17/20/4
f 17/20/4 33/32/4 34/31/4
f 33/32/4 17/20/4 20/23/4
f 20/23/4 35/33/4 33/32/4
f 35/33/4 20/23/4 26/28/4
f 26/28/4 38/30/4 35/33/4
f 44/35/4 34/31/4 33/32/4
f 33/32/4 43/36/4 44/35/4
f 43/36/4 33/32/4 35/33/4
f 35/33/4 45/37/4 43/36/4
f 45/37/4 35/33/4 38/30/4
f 38/30/4 48/34/4 45/37/4
f 54/39/4 44/35/4 43/36/4
f 43/36/4 53/40/4 54/39/4
f 53/40/4 43/36/4 45/37/4
f 45/37/4 55/41/4 53/40/4
f 55/41/4 45/37/4 48/34/4
f 48/34/4 58/38/4 55/41/4
f 3/46/4 54/39/4 53/40/4
f 53/40/4 2/47/4 3/46/4
f 2/47/4 53/40/4 55/41/4
f 55/41/4 5/48/4 2/47/4
f 5/48/4 55/41/4 58/38/4
f 58/38/4 7/45/4 5/48/4
f 40/52/3 41/34/3 31/30/3
f 31/30/3 28/51/3 40/52/3
f 10/54/4 18/21/4 34/31/4
f 34/31/4 27/53/4 10/54/4
f 68/51/3 66/30/3 13/16/3
f 13/16/3 67/55/3 68/51/3
f 27/53/4 34/31/4 44/35/4
f 44/35/4 39/56/4 27/53/4
f 67/55/3 13/16/3 12/15/3
f 12/15/3 70/62/3 67/55/3
f 39/56/4 44/35/4 54/39/4
f 54/39/4 49/63/4 39/56/4
f 73/64/3 61/44/3 71/34/3
f 71/34/3 72/52/3 73/64/3
f 74/66/3 62/45/3 61/44/3
f 61/44/3 73/64/3 74/66/3
f 37/51/4 38/30/4 26/28/4
f 26/28/4 24/55/4 37/51/4
f 36/53/3 32/31/3 42/35/3
f 42/35/3 46/56/3 36/53/3
f 47/52/4 48/34/4 38/30/4
f 38/30/4 37/51/4 47/52/4
f 57/64/4 58/38/4 48/34/4
f 48/34/4 47/52/4 57/64/4
f 86/75/5 64/49/5 56/14/5
f 56/14/5 85/74/5 86/75/5
f 85/74/5 56/14/5 46/29/5
f 46/29/5 84/78/5 85/74/5
f 90/77/5 36/1/5 23/26/5
f 23/26/5 91/76/5 90/77/5
f 91/76/5 23/26/5 21/24/5
f 21/24/5 92/81/5 91/76/5
f 96/77/2 40/1/2 50/26/2
f 50/26/2 95/76/2 96/77/2
f 95/76/2 50/26/2 60/43/2
f 60/43/2 97/82/2 95/76/2
f 102/83/2 9/12/2 11/14/2
f 11/14/2 101/74/2 102/83/2
f 101/74/2 11/14/2 28/29/2
f 28/29/2 103/78/2 101/74/2
f 104/80/6 69/58/6 9/60/6
f 9/60/6 102/79/6 104/80/6
f 106/85/5 86/75/5 85/74/5
f 85/74/5 105/84/5 106/85/5
f 105/84/5 85/74/5 84/78/5
f 84/78/5 109/88/5 105/84/5
f 113/92/5 90/77/5 91/76/5
f 91/76/5 112/91/5 113/92/5
f 112/91/5 91/76/5 92/81/5
f 92/81/5 114/93/5 112/91/5
f 117/92/2 96/77/2 95/76/2
f 95/76/2 116/91/2 117/92/2
f 116/91/2 95/76/2 97/82/2
f 97/82/2 118/97/2 116/91/2
f 123/98/2 102/83/2 101/74/2
f 101/74/2 122/84/2 123/98/2
f 122/84/2 101/74/2 103/78/2
f 103/78/2 124/88/2 122/84/2
f 125/100/6 104/80/6 102/79/6
f 102/79/6 123/99/6 125/100/6
f 100/31/4 98/35/4 96/56/4
f 96/56/4 103/53/4 100/31/4
f 103/78/2 96/77/2 117/92/2
f 117/92/2 124/88/2 103/78/2
f 68/51/3 72/52/3 71/34/3
f 71/34/3 66/30/3 68/51/3
f 90/51/4 84/52/4 83/34/4
f 83/34/4 88/30/4 90/51/4
f 113/92/5 109/88/5 84/78/5
f 84/78/5 90/77/5 113/92/5
f 129/107/2 117/92/2 116/91/2
f 116/91/2 128/106/2 129/107/2
f 128/106/2 116/91/2 118/97/2
f 118/97/2 130/108/2 128/106/2
f 135/115/5 109/88/5 113/92/5
f 113/92/5 134/107/5 135/115/5
f 137/117/5 106/85/5 105/84/5
f 105/84/5 136/116/5 137/117/5
f 136/116/5 105/84/5 109/88/5
f 109/88/5 135/115/5 136/116/5
f 134/107/5 113/92/5 112/91/5
f 112/91/5 139/106/5 134/107/5
f 139/106/5 112/91/5 114/93/5
f 114/93/5 141/120/5 139/106/5
f 145/122/6 125/100/6 123/99/6
f 123/99/6 144/121/6 145/122/6
f 144/123/2 123/98/2 122/84/2
f 122/84/2 146/116/2 144/123/2
f 146/116/2 122/84/2 124/88/2
f 124/88/2 147/115/2 146/116/2
f 147/115/2 124/88/2 117/92/2
f 117/92/2 129/107/2 147/115/2
f 150/128/2 129/107/2 128/106/2
f 128/106/2 149/127/2 150/128/2
f 149/127/2 128/106/2 130/108/2
f 130/108/2 151/129/2 149/127/2
f 155/133/5 135/115/5 134/107/5
f 134/107/5 154/128/5 155/133/5
f 153/138/5 137/117/5 136/116/5
f 136/116/5 156/137/5 153/138/5
f 156/137/5 136/116/5 135/115/5
f 135/115/5 155/133/5 156/137/5
f 154/128/5 134/107/5 139/106/5
f 139/106/5 158/127/5 154/128/5
f 158/127/5 139/106/5 141/120/5
f 141/120/5 160/141/5 158/127/5
f 161/142/6 145/122/6 144/121/6
f 144/121/6 162/135/6 161/142/6
f 162/143/2 144/123/2 146/116/2
f 146/116/2 163/137/2 162/143/2
f 163/137/2 146/116/2 147/115/2
f 147/115/2 164/133/2 163/137/2
f 164/133/2 147/115/2 129/107/2
f 129/107/2 150/128/2 164/133/2
f 72/147/2 150/128/2 149/127/2
f 149/127/2 73/146/2 72/147/2
f 73/146/2 149/127/2 151/129/2
f 151/129/2 74/148/2 73/146/2
f 79/150/5 155/133/5 154/128/5
f 154/128/5 126/147/5 79/150/5
f 81/152/5 153/138/5 156/137/5
f 156/137/5 82/151/5 81/152/5
f 82/151/5 156/137/5 155/133/5
f 155/133/5 79/150/5 82/151/5
f 126/147/5 154/128/5 158/127/5
f 158/127/5 78/146/5 126/147/5
f 78/146/5 158/127/5 160/141/5
f 160/141/5 77/153/5 78/146/5
f 12/134/6 161/142/6 162/135/6
f 162/135/6 70/149/6 12/134/6
f 70/154/2 162/143/2 163/137/2
f 163/137/2 67/151/2 70/154/2
f 67/151/2 163/137/2 164/133/2
f 164/133/2 68/150/2 67/151/2
f 68/150/2 164/133/2 150/128/2
f 150/128/2 72/147/2 68/150/2
f 159/157/4 157/156/4 152/155/4
f 152/155/4 148/158/4 159/157/4
f 157/125/2 138/124/2 133/139/2
f 133/139/2 152/140/2 157/125/2
f 148/125/5 127/124/5 142/139/5
f 142/139/5 159/140/5 148/125/5
f 63/46/3 80/71/3 61/44/3
f 61/44/3 62/45/3 63/46/3
f 13/16/3 61/44/3 80/71/3
f 80/71/3 14/17/3 13/16/3
f 14/17/3 76/19/3 12/15/3
f 12/15/3 13/16/3 14/17/3

