# ProBuilder 5.0.4
# https://unity3d.com/unity/features/worldbuilding/probuilder
# 5/19/2022 11:31:12 PM

mtllib ./Hallway-00.mtl
o Hallway-00

g Hallway-00
v 0.75 0 -2.599999
v 0.75 -0.1 -2.599999
v 7.5 -0.1 -2.599998
v 7.5 0 -2.599998
v -0.75 0 -2.599999
v -0.75 -0.1 -2.599999
v -7.5 0 -2.599998
v -7.5 -0.1 -2.599998
v 7.600101 -0.1 2.600002
v 7.600101 0 2.600002
v 7.600101 -0.1 2.5
v 7.600101 0 2.5
v 7.5 5.3501 2.600002
v 0.75 5.3501 2.600002
v 7.5 5.3501 1.5
v 0.75 5.3501 1.5
v -0.75 5.3501 2.600002
v -7.5 5.3501 2.600002
v -0.75 5.3501 1.5
v -7.5 5.3501 1.5
v 0.75 -0.1 2.600001
v 7.5 -0.1 2.600002
v 0.75 -0.1 2.500001
v 7.5 -0.1 2.5
v 0.75 0 2.600001
v -0.75 0 2.600001
v 0.75 0 2.500001
v -0.75 0 2.500001
v -0.75 -0.1 2.600001
v -0.75 -0.1 2.500001
v -7.600101 0 2.600002
v -7.600101 -0.1 2.600002
v -7.600101 0 2.5
v -7.600101 -0.1 2.5
v -7.5 -0.1 2.600002
v -7.5 -0.1 2.5
v 7.600101 -0.1 0.75
v 7.600101 0 0.75
v 7.5 0 2.5
v 7.5 0 0.75
v 0.75 0 0.750001
v -7.5 0 2.5
v -0.75 0 0.750001
v -7.5 0 0.75
v 0.75 -0.1 0.750001
v 7.5 -0.1 0.75
v -0.75 -0.1 0.750001
v -7.600101 0 0.75
v -7.600101 -0.1 0.75
v -7.5 -0.1 0.75
v 7.600101 -0.1 -0.75
v 7.600101 0 -0.75
v 7.5 0 -0.75
v 0.75 0 -0.749999
v -0.75 0 -0.749999
v -7.5 0 -0.75
v 0.75 -0.1 -0.749999
v 7.5 -0.1 -0.75
v -0.75 -0.1 -0.749999
v -7.600101 0 -0.75
v -7.600101 -0.1 -0.75
v -7.5 -0.1 -0.75
v 7.600101 -0.1 -2.5
v 7.600101 0 -2.5
v 7.5 0 -2.5
v 0.75 0 -2.499999
v -0.75 0 -2.499999
v -7.5 0 -2.5
v 0.75 -0.1 -2.499999
v 7.5 -0.1 -2.5
v -0.75 -0.1 -2.499999
v -7.600101 0 -2.5
v -7.600101 -0.1 -2.5
v -7.5 -0.1 -2.5
v 7.600101 -0.1 -2.599998
v 7.600101 0 -2.599998
v 7.5 5.3501 -1.5
v 0.75 5.3501 -1.5
v 7.5 5.3501 -2.599998
v 0.75 5.3501 -2.599998
v -0.75 5.3501 -1.5
v -7.5 5.3501 -1.5
v -0.75 5.3501 -2.599998
v -7.5 5.3501 -2.599998
v -7.600101 0 -2.599998
v -7.600101 -0.1 -2.599998
v 7.5 5.3501 0.75
v 7.600101 5.3501 2.5
v 7.600101 5.3501 0.75
v 7.5 0 2.600002
v 7.600101 5.3501 2.600002
v 7.5 5.3501 -0.75
v 7.600101 5.3501 -0.75
v 7.600101 5.3501 -2.5
v 7.600101 5.3501 -2.599998
v -7.5 0 2.600002
v -7.600101 5.3501 2.5
v -7.600101 5.3501 2.600002
v -7.5 5.3501 0.75
v -7.600101 5.3501 0.75
v -7.5 5.3501 -0.75
v -7.600101 5.3501 -2.5
v -7.600101 5.3501 -0.75
v -7.600101 5.3501 -2.599998
v -7.5 2.2501 -2.599998
v -0.75 2.2501 -2.599998
v -7.600101 2.2501 -2.599998
v -7.5 2.2501 -0.75
v -7.600101 2.2501 -0.75
v -7.600101 2.2501 -2.5
v -0.75 2.2501 -2.5
v -7.5 2.2501 -2.5
v -7.5 2.2501 0.75
v -7.5 2.2501 2.5
v -7.600101 2.2501 0.75
v -7.5 2.2501 2.600002
v -7.600101 2.2501 2.600002
v -7.600101 2.2501 2.5
v -0.75 2.2501 2.5
v -0.75 2.2501 2.600002
v 7.5 2.2501 -2.5
v 0.75 2.2501 -2.5
v 7.600101 2.2501 -2.5
v 7.600101 2.2501 -0.75
v 0.75 2.2501 -2.599998
v 7.5 2.2501 -2.599998
v 7.600101 2.2501 -2.599998
v 7.5 2.2501 -0.75
v 7.5 2.2501 2.5
v 7.5 2.2501 0.75
v 7.600101 2.2501 2.5
v 7.600101 2.2501 2.600002
v 7.600101 2.2501 0.75
v 0.75 2.2501 2.600002
v 0.75 2.2501 2.5
v 7.5 2.2501 2.600002
v -7.5 2.7501 -2.599998
v -0.75 2.7501 -2.599998
v -7.600101 2.7501 -2.599998
v -7.600101 2.7501 -2.5
v -0.75 3.5001 -2.5
v -7.5 3.5001 -2.5
v -7.5 3.5001 -0.75
v -7.600101 2.7501 -0.75
v -7.5 3.5001 0.75
v -7.5 3.5001 2.5
v -7.5 2.7501 2.600002
v -7.600101 2.7501 2.600002
v -7.600101 2.7501 2.5
v -7.600101 2.7501 0.75
v -0.75 3.5001 2.5
v -0.75 2.7501 2.600002
v 7.5 3.5001 -2.5
v 0.75 3.5001 -2.5
v 7.600101 2.7501 -2.5
v 7.600101 2.7501 -0.75
v 0.75 2.7501 -2.599998
v 7.5 2.7501 -2.599998
v 7.600101 2.7501 -2.599998
v 7.5 3.5001 -0.75
v 7.5 3.5001 2.5
v 7.5 3.5001 0.75
v 7.600101 2.7501 2.5
v 7.600101 2.7501 2.600002
v 7.600101 2.7501 0.75
v 7.5 2.7501 2.600002
v 0.75 2.7501 2.600002
v 0.75 3.5001 2.5
v 7 4.2501 -0.75
v 7 4.2501 -1.75
v 7 4.2501 0.75
v 7.5 3.2501 -2.599998
v 7.600101 3.2501 -2.599998
v 7.600101 3.2501 -2.5
v 7.600101 3.2501 -0.75
v -0.75 3.2501 -2.599998
v 0.75 3.2501 -2.599998
v 0.75 4.2501 -1.75
v -0.75 4.2501 -1.75
v -7.600101 3.2501 -2.599998
v -7.5 3.2501 -2.599998
v -7 4.2501 -1.75
v -7.600101 3.2501 0.75
v -7.600101 3.2501 -0.75
v -7.600101 3.2501 -2.5
v -7 4.2501 -0.75
v -7 4.2501 0.75
v -7.5 3.2501 2.600002
v -7.600101 3.2501 2.600002
v -7 4.2501 1.75
v -7.600101 3.2501 2.5
v -0.75 4.2501 1.75
v -0.75 3.2501 2.600002
v 7.5 3.2501 2.600002
v 0.75 3.2501 2.600002
v 0.75 4.2501 1.75
v 7 4.2501 1.75
v 7.600101 3.2501 2.600002
v 7.600101 3.2501 2.5
v 7.600101 3.2501 0.75
v 7 5.2501 -0.75
v 7 5.2501 -1.75
v 7 5.2501 0.75
v 7.5 4.2501 -2.599998
v 7.600101 4.2501 -2.599998
v 7.600101 4.2501 -2.5
v 7.600101 4.2501 -0.75
v -0.75 4.2501 -2.599998
v 0.75 4.2501 -2.599998
v 0.75 5.2501 -1.75
v -0.75 5.2501 -1.75
v -7.600101 4.2501 -2.599998
v -7.5 4.2501 -2.599998
v -7 5.2501 -1.75
v -7.600101 4.2501 0.75
v -7.600101 4.2501 -0.75
v -7.600101 4.2501 -2.5
v -7 5.2501 -0.75
v -7 5.2501 0.75
v -7.5 4.2501 2.600002
v -7.600101 4.2501 2.600002
v -7 5.2501 1.75
v -7.600101 4.2501 2.5
v -0.75 5.2501 1.75
v -0.75 4.2501 2.600002
v 7.5 4.2501 2.600002
v 0.75 4.2501 2.600002
v 0.75 5.2501 1.75
v 7 5.2501 1.75
v 7.600101 4.2501 2.600002
v 7.600101 4.2501 2.5
v 7.600101 4.2501 0.75
v -7.5 4.2501 -1.75
v -7.5 4.2501 1.75
v 7.5 4.2501 -1.75
v 7.5 4.2501 1.75

vt -0.7499996 0
vt -0.7499996 -0.1
vt -7.5 -0.1
vt -7.5 0
vt 0.75 0
vt 0.75 -0.1
vt -0.75 -0.1
vt -0.75 0
vt 0.7499996 0
vt 7.5 0
vt 7.5 -0.1
vt 0.7499996 -0.1
vt -2.600002 -0.1
vt -2.600002 0
vt -2.5 -0.1
vt -2.5 0
vt -7.5 2.600002
vt -0.75 2.600002
vt -7.5 1.5
vt -0.75 1.5
vt 0.75 2.600002
vt 7.5 2.600002
vt 0.75 1.5
vt 7.5 1.5
vt 0.75 2.500001
vt 7.5 2.5
vt -0.75 2.500001
vt 2.600002 0
vt 2.600002 -0.1
vt 2.5 0
vt 2.5 -0.1
vt -7.5 2.5
vt -7.5 0.75
vt -0.75 0.750001
vt 0.75 0.750001
vt 7.5 0.75
vt -7.5 -0.75
vt -0.75 -0.749999
vt 0.75 -0.749999
vt 7.5 -0.75
vt -7.5 -2.5
vt -0.75 -2.499999
vt 0.75 -2.499999
vt 7.5 -2.5
vt 2.599998 -0.1
vt 2.599998 0
vt -7.5 -1.5
vt -0.75 -1.5
vt -7.5 -2.599998
vt -0.75 -2.599998
vt 0.75 -1.5
vt 7.5 -1.5
vt 0.75 -2.599998
vt 7.5 -2.599998
vt -2.599998 0
vt -2.599998 -0.1
vt -7.600101 0.75
vt -7.600101 -0.75
vt 7.600101 0.75
vt 7.600101 2.5
vt -7.600101 2.5
vt 7.600101 -0.75
vt 7.5 -0.1
vt 7.5 0
vt 7.600101 -0.1
vt 7.600101 0
vt 7.600101 2.600002
vt -7.600101 2.600002
vt 7.600101 -2.5
vt -7.600101 -2.5
vt 7.600101 -2.599998
vt -7.600101 -2.599998
vt -7.5 0
vt -7.5 -0.1
vt -7.600101 0
vt -7.600101 -0.1
vt 7.5 2.2501
vt 0.7499996 2.2501
vt 7.600101 2.2501
vt 7.5 2.2501
vt -7.5 2.2501
vt -7.600101 2.2501
vt -2.5 2.2501
vt -2.599998 2.2501
vt -0.7500004 2.250101
vt 2.499999 0
vt 2.599998 2.2501
vt 2.5 2.2501
vt 0.75 2.2501
vt 2.600002 2.2501
vt -2.600002 2.2501
vt -2.499999 0
vt -0.7499996 2.250099
vt -7.5 2.250099
vt 7.5 2.7501
vt 0.75 2.7501
vt 7.600101 2.7501
vt -2.5 2.7501
vt -2.599998 2.7501
vt -0.75 3.5001
vt -7.5 3.5001
vt 2.5 3.5001
vt 0.75 3.5001
vt -0.75 2.7501
vt -2.5 3.5001
vt -7.5 2.7501
vt -7.600101 2.7501
vt 2.5 2.7501
vt 7.5 3.5001
vt 2.600002 2.7501
vt 2.599998 2.7501
vt -2.600002 2.7501
vt 0.75 -2.5
vt -0.75 -2.5
vt -0.75 -1.247991
vt -2.5 -1.247991
vt -0.75 -0.3466031
vt -1.75 -0.3466031
vt 0.75 -1.247991
vt 0.75 -0.3466031
vt -7.5 3.2501
vt -7.600101 3.2501
vt 2.5 3.2501
vt 0.75 3.2501
vt -0.75 3.2501
vt 2.599998 3.2501
vt 7.5 0.7071784
vt 0.75 0.7071784
vt 7 1.767839
vt 0.75 1.767839
vt -0.75 0.7071784
vt -0.75 1.767839
vt 7.600101 3.2501
vt 7.5 3.2501
vt -7.5 0.7071784
vt -7 1.767839
vt -2.5 3.2501
vt -2.599998 3.2501
vt 2.5 -1.247991
vt 1.75 -0.3466031
vt 2.600002 3.2501
vt -2.600002 3.2501
vt -0.75 4.2501
vt -1.75 4.2501
vt -0.75 5.2501
vt -1.75 5.2501
vt 0.75 4.2501
vt 0.75 5.2501
vt -7.5 4.2501
vt -7.600101 4.2501
vt 2.5 4.2501
vt 2.599998 4.2501
vt 7 4.2501
vt 7 5.2501
vt 7.600101 4.2501
vt 7.5 4.2501
vt -7 4.2501
vt -7 5.2501
vt -2.5 4.2501
vt -2.599998 4.2501
vt 1.75 4.2501
vt 1.75 5.2501
vt 2.600002 4.2501
vt -2.600002 4.2501
vt -7.5 5.3501
vt -7.600101 5.3501
vt 2.5 5.3501
vt 0.75 5.3501
vt -0.75 5.3501
vt 2.599998 5.3501
vt 7.600101 5.3501
vt 7.5 5.3501
vt -2.5 5.3501
vt -2.599998 5.3501
vt 2.600002 5.3501
vt -2.600002 5.3501
vt -0.75 -1.75
vt -7 -1.75
vt -0.75 1.75
vt -7 1.75
vt -7.893693 -1.75
vt -8.403595 -1.5
vt -7.893693 1.75
vt -8.403595 1.5
vt 0.75 -1.75
vt 0.75 1.75
vt 7 -1.75
vt 7 1.75
vt 8.403596 -1.5
vt 7.893693 -1.75
vt 8.403596 1.5
vt 7.893693 1.75
vt -7.5 -1.75
vt -7.5 1.75
vt 7.5 -1.75
vt 7.5 1.75

vn 1.412851E-07 0 -1
vn 1 0 0
vn 0 1 0
vn 0 -1 0
vn -1 0 0
vn 0 0 1
vn -0.8320504 -0.5547001 0
vn 0 -0.7071066 0.7071069
vn 0.8320504 -0.5547001 0
vn 0 -0.7071066 -0.7071069
vn -0.196116 -0.9805807 0
vn 0.196116 -0.9805807 0

usemtl Concrete025-003
f 2/2/1 1/1/1 4/4/1 3/3/1
f 2/7/1 6/6/1 5/5/1 1/8/1
f 6/12/1 8/11/1 7/10/1 5/9/1
f 11/15/2 12/16/2 10/14/2 9/13/2
f 33/30/5 34/31/5 32/29/5 31/28/5
f 37/7/2 38/8/2 12/16/2 11/15/2
f 48/5/5 49/6/5 34/31/5 33/30/5
f 51/6/2 52/5/2 38/8/2 37/7/2
f 60/8/5 61/7/5 49/6/5 48/5/5
f 63/31/2 64/30/2 52/5/2 51/6/2
f 72/16/5 73/15/5 61/7/5 60/8/5
f 75/45/2 76/46/2 64/30/2 63/31/2
f 85/55/5 86/56/5 73/15/5 72/16/5
f 9/65/6 10/66/6 90/64/6 22/63/6
f 11/60/4 9/67/4 22/22/4 24/26/4
f 75/71/4 63/69/4 70/44/4 3/54/4
f 76/75/1 75/76/1 3/74/1 4/73/1
f 31/75/6 32/76/6 35/74/6 96/73/6
f 32/68/4 34/61/4 36/32/4 35/17/4
f 73/70/4 86/72/4 8/49/4 74/41/4
f 86/65/1 85/66/1 7/64/1 8/63/1
f 108/81/6 109/82/6 60/75/6 56/73/6
f 111/85/6 112/81/6 68/73/6 67/8/6
f 106/87/2 111/88/2 67/86/2 5/46/2
f 112/88/2 108/89/2 56/5/2 68/30/2
f 113/85/2 114/83/2 42/16/2 44/8/2
f 115/79/1 113/80/1 44/64/1 48/66/1
f 114/77/1 119/78/1 28/9/1 42/10/1
f 119/83/2 120/91/2 26/14/2 28/16/2
f 121/80/6 122/89/6 66/5/6 65/64/6
f 122/83/5 125/84/5 1/55/5 66/92/5
f 128/85/5 121/83/5 65/16/5 53/8/5
f 124/79/6 128/80/6 53/64/6 52/66/6
f 129/88/5 130/89/5 40/5/5 39/30/5
f 130/81/1 133/82/1 38/75/1 40/73/1
f 134/90/5 135/88/5 27/30/5 25/28/5
f 135/93/1 129/94/1 39/4/1 27/1/1
f 141/100/6 142/101/6 112/81/6 111/85/6
f 142/102/2 143/103/2 108/89/2 112/88/2
f 145/100/2 146/105/2 114/83/2 113/85/2
f 146/109/1 151/103/1 119/89/1 114/80/1
f 153/109/6 154/103/6 122/89/6 121/80/6
f 160/100/5 153/105/5 121/83/5 128/85/5
f 161/102/5 162/103/5 130/89/5 129/88/5
f 168/100/1 161/101/1 129/81/1 135/85/1
f 141/100/6 111/85/6 122/89/6 154/103/6
f 119/89/1 151/103/1 168/100/1 135/85/1
f 130/89/5 162/103/5 160/100/5 128/85/5
f 145/100/2 113/85/2 108/89/2 143/103/2

usemtl SheetMetal002
f 192/179/4 234/194/4 233/193/4 179/177/4
f 236/196/4 196/186/4 178/185/4 235/195/4
f 196/186/4 192/179/4 179/177/4 178/185/4

usemtl Floor
f 40/33/3 41/34/3 27/27/3 39/32/3
f 43/35/3 44/36/3 42/26/3 28/25/3
f 41/34/3 43/35/3 28/25/3 27/27/3
f 53/37/3 54/38/3 41/34/3 40/33/3
f 55/39/3 56/40/3 44/36/3 43/35/3
f 54/38/3 55/39/3 43/35/3 41/34/3
f 65/41/3 66/42/3 54/38/3 53/37/3
f 67/43/3 68/44/3 56/40/3 55/39/3
f 66/42/3 67/43/3 55/39/3 54/38/3

usemtl Concrete025-002
f 15/19/3 16/20/3 14/18/3 13/17/3
f 19/23/3 20/24/3 18/22/3 17/21/3
f 23/25/4 24/26/4 22/22/4 21/21/4
f 27/27/3 28/25/3 26/21/3 25/18/3
f 30/27/4 23/25/4 21/21/4 29/18/4
f 36/32/4 30/27/4 29/18/4 35/17/4
f 45/35/4 46/36/4 24/26/4 23/25/4
f 47/34/4 45/35/4 23/25/4 30/27/4
f 50/33/4 47/34/4 30/27/4 36/32/4
f 57/39/4 58/40/4 46/36/4 45/35/4
f 59/38/4 57/39/4 45/35/4 47/34/4
f 62/37/4 59/38/4 47/34/4 50/33/4
f 69/43/4 70/44/4 58/40/4 57/39/4
f 71/42/4 69/43/4 57/39/4 59/38/4
f 74/41/4 71/42/4 59/38/4 62/37/4
f 79/49/3 80/50/3 78/48/3 77/47/3
f 83/53/3 84/54/3 82/52/3 81/51/3
f 2/53/4 3/54/4 70/44/4 69/43/4
f 1/50/3 5/53/3 67/43/3 66/42/3
f 6/50/4 2/53/4 69/43/4 71/42/4
f 8/49/4 6/50/4 71/42/4 74/41/4
f 38/57/3 52/58/3 53/37/3 40/33/3
f 37/59/4 11/60/4 24/26/4 46/36/4
f 88/61/3 89/57/3 87/33/3 15/19/3
f 51/62/4 37/59/4 46/36/4 58/40/4
f 91/68/3 88/61/3 15/19/3 13/17/3
f 63/69/4 51/62/4 58/40/4 70/44/4
f 93/58/3 94/70/3 77/47/3 92/37/3
f 94/70/3 95/72/3 79/49/3 77/47/3
f 97/60/3 98/67/3 18/22/3 20/24/3
f 100/59/3 97/60/3 20/24/3 99/36/3
f 34/61/4 49/57/4 50/33/4 36/32/4
f 60/62/3 48/59/3 44/36/3 56/40/3
f 49/57/4 61/58/4 62/37/4 50/33/4
f 102/69/3 103/62/3 101/40/3 82/52/3
f 61/58/4 73/70/4 74/41/4 62/37/4
f 104/71/3 102/69/3 82/52/3 84/54/3
f 105/77/1 106/78/1 5/9/1 7/10/1
f 107/79/1 105/80/1 7/64/1 85/66/1
f 110/83/5 107/84/5 85/55/5 72/16/5
f 109/85/5 110/83/5 72/16/5 60/8/5
f 116/81/6 117/82/6 31/75/6 96/73/6
f 118/88/5 115/89/5 48/5/5 33/30/5
f 117/90/5 118/88/5 33/30/5 31/28/5
f 120/85/6 116/81/6 96/73/6 26/8/6
f 123/88/2 124/89/2 52/5/2 64/30/2
f 125/93/1 126/94/1 4/4/1 1/1/1
f 126/81/1 127/82/1 76/75/1 4/73/1
f 127/87/2 123/88/2 64/30/2 76/46/2
f 131/83/2 132/91/2 10/14/2 12/16/2
f 133/85/2 131/83/2 12/16/2 38/8/2
f 132/79/6 136/80/6 90/64/6 10/66/6
f 136/80/6 134/89/6 25/5/6 90/64/6
f 137/95/1 138/96/1 106/89/1 105/80/1
f 139/97/1 137/95/1 105/80/1 107/79/1
f 140/98/5 139/99/5 107/84/5 110/83/5
f 144/104/5 140/98/5 110/83/5 109/85/5
f 147/106/6 148/107/6 117/82/6 116/81/6
f 149/108/5 150/96/5 115/89/5 118/88/5
f 148/110/5 149/108/5 118/88/5 117/90/5
f 152/104/6 147/106/6 116/81/6 120/85/6
f 155/108/2 156/96/2 124/89/2 123/88/2
f 157/104/1 158/106/1 126/81/1 125/85/1
f 158/106/1 159/107/1 127/82/1 126/81/1
f 159/111/2 155/108/2 123/88/2 127/87/2
f 163/98/2 164/112/2 132/91/2 131/83/2
f 165/104/2 163/98/2 131/83/2 133/85/2
f 164/97/6 166/95/6 136/80/6 132/79/6
f 166/95/6 167/96/6 134/89/6 136/80/6
f 111/114/4 106/50/4 125/53/4 122/113/4
f 106/89/1 138/96/1 157/104/1 125/85/1
f 83/53/3 81/51/3 78/48/3 80/50/3
f 120/18/4 119/27/4 135/25/4 134/21/4
f 152/104/6 120/85/6 134/89/6 167/96/6
f 19/23/3 17/21/3 14/18/3 16/20/3
f 133/59/4 130/36/4 128/40/4 124/62/4
f 165/104/2 133/85/2 124/89/2 156/96/2
f 87/33/3 89/57/3 93/58/3 92/37/3
f 113/33/4 115/57/4 109/58/4 108/37/4
f 115/89/5 150/96/5 144/104/5 109/85/5
f 100/59/3 99/36/3 101/40/3 103/62/3
f 169/117/7 170/118/7 153/116/7 160/115/7
f 171/120/7 169/117/7 160/115/7 162/119/7
f 172/121/1 173/122/1 159/107/1 158/106/1
f 174/123/2 175/124/2 156/96/2 155/108/2
f 176/124/1 177/125/1 157/104/1 138/96/1
f 173/126/2 174/123/2 155/108/2 159/111/2
f 170/129/8 178/130/8 154/128/8 153/127/8
f 177/125/1 172/121/1 158/106/1 157/104/1
f 178/130/8 179/132/8 141/131/8 154/128/8
f 180/133/1 181/134/1 137/95/1 139/97/1
f 179/132/8 182/136/8 142/135/8 141/131/8
f 181/134/1 176/124/1 138/96/1 137/95/1
f 183/124/5 184/125/5 144/104/5 150/96/5
f 185/137/5 180/138/5 139/99/5 140/98/5
f 182/140/9 186/120/9 143/119/9 142/139/9
f 184/125/5 185/137/5 140/98/5 144/104/5
f 186/120/9 187/117/9 145/115/9 143/119/9
f 188/121/6 189/122/6 148/107/6 147/106/6
f 187/117/9 190/118/9 146/116/9 145/115/9
f 191/123/5 183/124/5 150/96/5 149/108/5
f 190/129/10 192/130/10 151/128/10 146/127/10
f 189/141/5 191/123/5 149/108/5 148/110/5
f 193/125/6 188/121/6 147/106/6 152/104/6
f 194/134/6 195/124/6 167/96/6 166/95/6
f 196/132/10 197/136/10 161/135/10 168/131/10
f 192/130/10 196/132/10 168/131/10 151/128/10
f 195/124/6 193/125/6 152/104/6 167/96/6
f 198/133/6 194/134/6 166/95/6 164/97/6
f 199/137/2 198/142/2 164/112/2 163/98/2
f 197/140/7 171/120/7 162/119/7 161/139/7
f 200/125/2 199/137/2 163/98/2 165/104/2
f 175/124/2 200/125/2 165/104/2 156/96/2
f 201/145/5 202/146/5 170/144/5 169/143/5
f 203/148/5 201/145/5 169/143/5 171/147/5
f 204/149/1 205/150/1 173/122/1 172/121/1
f 206/151/2 207/147/2 175/124/2 174/123/2
f 208/147/1 209/143/1 177/125/1 176/124/1
f 205/152/2 206/151/2 174/123/2 173/126/2
f 202/154/6 210/148/6 178/147/6 170/153/6
f 209/143/1 204/149/1 172/121/1 177/125/1
f 210/148/6 211/145/6 179/143/6 178/147/6
f 212/155/1 213/156/1 181/134/1 180/133/1
f 211/145/6 214/158/6 182/157/6 179/143/6
f 213/156/1 208/147/1 176/124/1 181/134/1
f 215/147/5 216/143/5 184/125/5 183/124/5
f 217/159/5 212/160/5 180/138/5 185/137/5
f 214/162/2 218/148/2 186/147/2 182/161/2
f 216/143/5 217/159/5 185/137/5 184/125/5
f 218/148/2 219/145/2 187/143/2 186/147/2
f 220/149/6 221/150/6 189/122/6 188/121/6
f 219/145/2 222/146/2 190/144/2 187/143/2
f 223/151/5 215/147/5 183/124/5 191/123/5
f 222/154/1 224/148/1 192/147/1 190/153/1
f 221/163/5 223/151/5 191/123/5 189/141/5
f 225/143/6 220/149/6 188/121/6 193/125/6
f 226/156/6 227/147/6 195/124/6 194/134/6
f 228/145/1 229/158/1 197/157/1 196/143/1
f 224/148/1 228/145/1 196/143/1 192/147/1
f 227/147/6 225/143/6 193/125/6 195/124/6
f 230/155/6 226/156/6 194/134/6 198/133/6
f 231/159/2 230/164/2 198/142/2 199/137/2
f 229/162/5 203/148/5 171/147/5 197/161/5
f 232/143/2 231/159/2 199/137/2 200/125/2
f 207/147/2 232/143/2 200/125/2 175/124/2
f 79/165/1 95/166/1 205/150/1 204/149/1
f 94/167/2 93/168/2 207/147/2 206/151/2
f 83/168/1 80/169/1 209/143/1 208/147/1
f 95/170/2 94/167/2 206/151/2 205/152/2
f 80/169/1 79/165/1 204/149/1 209/143/1
f 104/171/1 84/172/1 213/156/1 212/155/1
f 84/172/1 83/168/1 208/147/1 213/156/1
f 100/168/5 103/169/5 216/143/5 215/147/5
f 102/173/5 104/174/5 212/160/5 217/159/5
f 103/169/5 102/173/5 217/159/5 216/143/5
f 18/165/6 98/166/6 221/150/6 220/149/6
f 97/167/5 100/168/5 215/147/5 223/151/5
f 98/175/5 97/167/5 223/151/5 221/163/5
f 17/169/6 18/165/6 220/149/6 225/143/6
f 13/172/6 14/168/6 227/147/6 226/156/6
f 14/168/6 17/169/6 225/143/6 227/147/6
f 91/171/6 13/172/6 226/156/6 230/155/6
f 88/173/2 91/176/2 230/164/2 231/159/2
f 89/169/2 88/173/2 231/159/2 232/143/2
f 93/168/2 89/169/2 232/143/2 207/147/2
f 224/179/4 222/180/4 214/178/4 211/177/4
f 19/23/3 16/20/3 78/48/3 81/51/3
f 222/183/11 20/184/11 82/182/11 214/181/11
f 20/24/3 19/23/3 81/51/3 82/52/3
f 228/186/4 224/179/4 211/177/4 210/185/4
f 16/20/3 15/19/3 77/47/3 78/48/3
f 229/188/4 228/186/4 210/185/4 202/187/4
f 15/191/12 229/192/12 202/190/12 77/189/12

