# ProBuilder 5.0.4
# https://unity3d.com/unity/features/worldbuilding/probuilder
# 5/25/2022 4:33:37 PM

mtllib ./Hallway-01.mtl
o Hallway-01

g Hallway-01
v 7.5 0 2.5
v -7.5 0 2.5
v 7.5 0 0.75
v -7.5 0 0.75
v 7.5 0 -0.75
v -7.5 0 -0.75
v 7.5 0 -2.5
v -7.5 0 -2.5
v 7.600101 0 0.75
v 7.600101 0 -0.75
v -7.600101 0 -0.75
v -7.600101 0 0.75
v -7.5 2.2501 -0.75
v -7.600101 2.2501 -0.75
v -7.5 2.2501 -2.5
v -7.5 2.2501 0.75
v -7.5 2.2501 2.5
v -7.600101 2.2501 0.75
v 7.5 2.2501 -2.5
v 7.5 2.2501 -0.75
v 7.600101 2.2501 -0.75
v 7.5 2.2501 2.5
v 7.5 2.2501 0.75
v 7.600101 2.2501 0.75
v -7.5 3.5001 -2.5
v -7.5 3.5001 -0.75
v -7.5 3.5001 0.75
v -7.5 3.5001 2.5
v 7.5 3.5001 -2.5
v 7.5 3.5001 -0.75
v 7.5 3.5001 2.5
v 7.5 3.5001 0.75
v 7 4.2501 -1.75
v 0.75 4.2501 -1.75
v -0.75 4.2501 -1.75
v -7 4.2501 -1.75
v -7 4.2501 1.75
v -0.75 4.2501 1.75
v 7 4.2501 1.75
v 0.75 4.2501 1.75
v 7 5.2501 -1.75
v -7 5.2501 -1.75
v -7 5.2501 1.75
v 7 5.2501 1.75
v -7.5 4.2501 -1.75
v -7.5 4.2501 1.75
v 7.5 4.2501 -1.75
v 7.5 4.2501 1.75

vt -7.5 2.5
vt 7.5 2.5
vt -7.5 0.75
vt 7.5 0.75
vt -7.5 -0.75
vt 7.5 -0.75
vt -7.5 -2.5
vt 7.5 -2.5
vt -7.600101 0.75
vt -7.600101 -0.75
vt 7.600101 -0.75
vt 7.600101 0.75
vt -7.5 0
vt -7.600101 0
vt -7.5 2.2501
vt -7.600101 2.2501
vt 2.5 0
vt 0.75 0
vt 2.5 2.2501
vt 0.75 2.2501
vt -0.75 0
vt -2.5 0
vt -0.75 2.2501
vt -2.5 2.2501
vt 7.600101 0
vt 7.5 0
vt 7.600101 2.2501
vt 7.5 2.2501
vt 2.5 3.5001
vt 0.75 3.5001
vt -0.75 3.5001
vt -2.5 3.5001
vt 7.5 3.5001
vt -7.5 3.5001
vt -0.75 -1.247991
vt -2.5 -1.247991
vt -1.75 -0.3466031
vt 0.75 -1.247991
vt 7.5 0.7071784
vt -7.5 0.7071784
vt 7 1.767839
vt 0.75 1.767839
vt -0.75 1.767839
vt -7 1.767839
vt 2.5 -1.247991
vt 1.75 -0.3466031
vt -1.75 4.2501
vt -1.75 5.2501
vt 7 4.2501
vt 0.75 4.2501
vt 7 5.2501
vt -7 5.2501
vt -0.75 4.2501
vt -7 4.2501
vt 1.75 4.2501
vt 1.75 5.2501
vt -7 -1.75
vt -7 1.75
vt 7 1.75
vt 7 -1.75
vt -0.75 -1.75
vt -7.5 -1.75
vt -0.75 1.75
vt -7.5 1.75
vt 7.5 -1.75
vt 0.75 -1.75
vt 7.5 1.75
vt 0.75 1.75

vn 0 1 0
vn 0 0 1
vn 1 0 0
vn 0 0 -1
vn -1 0 0
vn 0 -1 0
vn -0.8320504 -0.5547001 0
vn 0 -0.7071066 0.7071069
vn 0.8320504 -0.5547001 0
vn 0 -0.7071066 -0.7071069

usemtl Concrete025-003
f 13/15/2 14/16/2 11/14/2 6/13/2
f 15/19/3 13/20/3 6/18/3 8/17/3
f 16/23/3 17/24/3 2/22/3 4/21/3
f 18/27/4 16/28/4 4/26/4 12/25/4
f 20/23/5 19/24/5 7/22/5 5/21/5
f 21/27/2 20/28/2 5/26/2 10/25/2
f 22/19/5 23/20/5 3/18/5 1/17/5
f 23/15/4 24/16/4 9/14/4 3/13/4
f 25/29/3 26/30/3 13/20/3 15/19/3
f 27/31/3 28/32/3 17/24/3 16/23/3
f 30/31/5 29/32/5 19/24/5 20/23/5
f 31/29/5 32/30/5 23/20/5 22/19/5
f 23/20/5 32/30/5 30/31/5 20/23/5
f 27/31/3 16/23/3 13/20/3 26/30/3
f 17/28/4 22/15/4 1/13/4 2/26/4
f 28/33/4 31/34/4 22/15/4 17/28/4
f 29/33/2 25/34/2 15/15/2 19/28/2
f 19/28/2 15/15/2 8/13/2 7/26/2

usemtl SheetMetal002
f 38/63/6 46/64/6 45/62/6 35/61/6
f 48/67/6 40/68/6 34/66/6 47/65/6
f 40/68/6 38/63/6 35/61/6 34/66/6

usemtl Floor
f 6/6/1 5/5/1 7/7/1 8/8/1
f 5/5/1 6/6/1 4/4/1 3/3/1
f 1/1/1 3/3/1 4/4/1 2/2/1

usemtl Concrete025-002
f 37/41/10 38/42/10 28/39/10
f 38/42/10 40/43/10 28/39/10
f 40/43/10 31/40/10 28/39/10
f 40/43/10 39/44/10 31/40/10
f 33/41/8 25/40/8 29/39/8
f 33/41/8 34/42/8 25/40/8
f 34/42/8 35/43/8 25/40/8
f 35/43/8 36/44/8 25/40/8
f 43/51/4 38/50/4 37/49/4
f 43/51/4 44/52/4 38/50/4
f 44/52/4 40/53/4 38/50/4
f 44/52/4 39/54/4 40/53/4
f 41/51/2 34/50/2 33/49/2
f 41/51/2 42/52/2 34/50/2
f 42/52/2 35/53/2 34/50/2
f 42/52/2 36/54/2 35/53/2
f 36/46/9 26/38/9 25/45/9
f 36/46/9 37/37/9 26/38/9
f 37/37/9 27/35/9 26/38/9
f 37/37/9 28/36/9 27/35/9
f 33/37/7 29/36/7 30/35/7
f 33/37/7 30/35/7 32/38/7
f 39/46/7 32/38/7 31/45/7
f 39/46/7 33/37/7 32/38/7
f 10/10/1 5/5/1 3/3/1
f 3/3/1 9/9/1 10/10/1
f 12/12/1 4/4/1 6/6/1
f 6/6/1 11/11/1 12/12/1
f 23/4/6 20/6/6 21/11/6
f 21/11/6 24/12/6 23/4/6
f 18/9/6 14/10/6 13/5/6
f 13/5/6 16/3/6 18/9/6
f 44/59/6 43/58/6 42/57/6
f 42/57/6 41/60/6 44/59/6
f 43/48/3 37/47/3 36/55/3
f 36/55/3 42/56/3 43/48/3
f 41/48/5 33/47/5 39/55/5
f 39/55/5 44/56/5 41/48/5

