# ProBuilder 5.0.6
# https://unity3d.com/unity/features/worldbuilding/probuilder
# 10/31/2022 1:48:19 AM

mtllib ./FSR-S5-Barrel.mtl
o FSR-S5-Barrel

g FSR-S5-Barrel
v 0.2500001 -0.4330127 0
v 2.483489E-09 -0.5 0
v 0.2499985 -0.433012 20
v -1.547237E-06 -0.5 20
v 2.483489E-09 -0.4 0
v 0.2000001 -0.3464102 0
v -1.547237E-06 -0.3999996 20
v 0.1999985 -0.3464108 20
v 0.4330128 -0.25 0
v 0.4330112 -0.25 20
v 0.3464102 -0.2 0
v 0.3464086 -0.2000008 20
v 0.5000001 3.104408E-08 0
v 0.4999985 0 20
v 0.4000001 3.104408E-08 0
v 0.3999985 0 20
v 0.4330128 0.2500001 0
v 0.4330111 0.25 20
v 0.3464102 0.2 0
v 0.3464086 0.2000008 20
v 0.2500001 0.4330127 0
v 0.2499985 0.433012 20
v 0.2000001 0.3464102 0
v 0.1999985 0.3464108 20
v -2.731883E-08 0.5 0
v -1.57704E-06 0.5 20
v -2.731883E-08 0.4 0
v -1.57704E-06 0.3999996 20
v -0.2500001 0.4330127 0
v -0.2500015 0.433012 20
v -0.2 0.3464102 0
v -0.2000016 0.3464108 20
v -0.4330128 0.2499999 0
v -0.4330142 0.25 20
v -0.3464102 0.2 0
v -0.3464117 0.2000008 20
v -0.5000001 1.241763E-09 0
v -0.5000015 0 20
v -0.4000001 1.241763E-09 0
v -0.4000016 0 20
v -0.4330128 -0.25 0
v -0.4330142 -0.25 20
v -0.3464102 -0.2 0
v -0.3464117 -0.2000008 20
v -0.2500001 -0.4330127 0
v -0.2500016 -0.433012 20
v -0.2000001 -0.3464101 0
v -0.2000016 -0.3464108 20
v 0.4330112 -0.25 22.5
v 0.2499985 -0.433012 22.5
v 0.3464088 -0.1999989 22.5
v 0.1999985 -0.3464108 22.5
v 0.4999985 0 22.5
v 0.3999986 0 22.5
v -1.606842E-06 0.5 22.5
v 0.2499985 0.433012 22.5
v -1.606842E-06 0.3999996 22.5
v 0.1999985 0.3464108 22.5
v -0.2500016 0.433012 22.5
v -0.2000017 0.3464108 22.5
v -0.4330145 -0.25 22.5
v -0.5000018 0 22.5
v -0.3464119 -0.1999989 22.5
v -0.4000019 0 22.5
v -0.2500016 -0.433012 22.5
v -0.2000017 -0.3464108 22.5

vt 0.1294097 -1.024455E-08
vt -0.1294095 -1.024455E-08
vt 0.1294081 20
vt -0.129411 20
vt 0.1035276 -7.748602E-09
vt -0.1035277 -7.748602E-09
vt 0.1035291 20
vt -0.1035262 20
vt -0.5 2.483489E-09
vt -0.4330127 0.2500001
vt -0.4 2.483489E-09
vt -0.3464102 0.2000001
vt 0.4330127 0.2499985
vt 0.5 -1.547237E-06
vt 0.3464102 0.1999985
vt 0.4 -1.547237E-06
vt -0.25 0.4330128
vt -0.2 0.3464102
vt 0.25 0.4330112
vt 0.1999998 0.3464088
vt 3.104408E-08 0.5000001
vt 3.104408E-08 0.4000001
vt -1.241763E-09 0.4999985
vt -1.241763E-09 0.3999986
vt -0.25 0.4330111
vt -0.2 0.3464086
vt 0.4330127 0.2500001
vt 0.3464102 0.2000001
vt -0.4330127 0.2499985
vt -0.3464102 0.1999985
vt 0.4330127 -0.2500001
vt 0.3464102 -0.2
vt -0.4330127 -0.2500016
vt -0.3464103 -0.2000017
vt 0.2499999 -0.4330128
vt 0.2 -0.3464102
vt -0.2499999 -0.4330142
vt -0.2 -0.3464117
vt 1.241763E-09 -0.5000001
vt 1.241763E-09 -0.4000001
vt 0.25 -0.4330145
vt 0.129411 22.5
vt -0.1294081 22.5
vt 0.1035261 22.5
vt -0.1035293 22.5
vt 0.4999993 20
vt 0.3999992 20
vt 0.4999993 22.5
vt 0.3999994 22.5
vt -0.4000008 20
vt -0.5000008 20
vt -0.4000009 22.5
vt -0.5000008 22.5
vt 0.5000015 20
vt 0.4000016 20
vt 0.5000018 22.5
vt 0.4000019 22.5
vt -0.3999985 20
vt -0.4999985 20
vt -0.3999986 22.5
vt -0.4999985 22.5

vn 0.4999995 -0.8660257 6.452318E-08
vn 6.324996E-07 -1 8.867676E-09
vn -1.126157E-06 1 -6.905251E-09
vn -0.499999 0.866026 -2.651729E-08
vn 0.8660254 -0.5000001 7.184019E-08
vn -0.8660253 0.5000001 -5.195056E-08
vn 1 3.085363E-08 8.391468E-08
vn -1 -3.085363E-07 -7.909254E-08
vn 0.8660251 0.5000005 7.968344E-08
vn -0.8660255 -0.4999998 -5.430408E-08
vn 0.5000004 0.8660251 6.02284E-08
vn -0.4999999 -0.8660254 -1.306001E-08
vn -0.8660252 -0.5000003 -5.61795E-08
vn 0.8660256 0.4999998 8.120447E-08
vn -0.5000005 -0.8660251 -1.72577E-08
vn 0.5 0.8660254 6.598921E-08
vn 0 0 -1
vn 0 0 1
vn 0.2588215 0.9659252 3.085393E-09
vn 0.2588147 -0.965927 3.085312E-09
vn -0.2588146 -0.9659271 6.170621E-09
vn -0.2588216 0.9659252 -1.234158E-08
vn -0.9659259 -0.2588189 -9.211787E-08
vn 0.7071065 0.7071071 -4.889037E-07
vn 0.9659261 0.2588181 1.151474E-07
vn -0.7071056 -0.707108 0
vn 0.7071054 -0.7071081 -1.685871E-08
vn -0.9659261 0.2588181 -1.514036E-07
vn -0.7071064 0.7071072 1.685873E-08
vn 0.9659259 -0.258819 -2.302947E-08

usemtl Default
f 3/3/1 4/4/2 2/2/2 1/1/1
f 7/7/3 8/8/4 6/6/4 5/5/3
f 10/3/5 3/4/1 1/2/1 9/1/5
f 8/7/4 12/8/6 11/6/6 6/5/4
f 14/3/7 10/4/5 9/2/5 13/1/7
f 12/7/6 16/8/8 15/6/8 11/5/6
f 18/3/9 14/4/7 13/2/7 17/1/9
f 16/7/8 20/8/10 19/6/10 15/5/8
f 22/3/11 18/4/9 17/2/9 21/1/11
f 20/7/10 24/8/12 23/6/12 19/5/10
f 26/3/3 22/4/11 21/2/11 25/1/3
f 24/7/12 28/8/2 27/6/2 23/5/12
f 30/3/4 26/4/3 25/2/3 29/1/4
f 28/7/2 32/8/1 31/6/1 27/5/2
f 34/3/6 30/4/4 29/2/4 33/1/6
f 32/7/1 36/8/5 35/6/5 31/5/1
f 38/3/8 34/4/6 33/2/6 37/1/8
f 36/7/5 40/8/7 39/6/7 35/5/5
f 42/3/13 38/4/8 37/2/8 41/1/13
f 40/7/7 44/8/14 43/6/14 39/5/7
f 46/3/15 42/4/13 41/2/13 45/1/15
f 44/7/14 48/8/16 47/6/16 43/5/14
f 4/3/2 46/4/15 45/2/15 2/1/2
f 48/7/16 7/8/3 5/6/3 47/5/16
f 5/11/17 6/12/17 1/10/17 2/9/17
f 8/15/18 7/16/18 4/14/18 3/13/18
f 6/12/17 11/18/17 9/17/17 1/10/17
f 51/20/18 52/15/18 50/13/18 49/19/18
f 11/18/17 15/22/17 13/21/17 9/17/17
f 54/24/18 51/20/18 49/19/18 53/23/18
f 15/22/17 19/20/17 17/19/17 13/21/17
f 20/26/18 16/24/18 14/23/18 18/25/18
f 19/20/17 23/28/17 21/27/17 17/19/17
f 24/30/18 20/26/18 18/25/18 22/29/18
f 23/28/17 27/16/17 25/14/17 21/27/17
f 57/11/18 58/30/18 56/29/18 55/9/18
f 27/16/17 31/32/17 29/31/17 25/14/17
f 60/34/18 57/11/18 55/9/18 59/33/18
f 31/32/17 35/36/17 33/35/17 29/31/17
f 36/38/18 32/34/18 30/33/18 34/37/18
f 35/36/17 39/40/17 37/39/17 33/35/17
f 40/40/18 36/38/18 34/37/18 38/39/18
f 39/40/17 43/38/17 41/37/17 37/39/17
f 63/36/18 64/40/18 62/39/18 61/41/18
f 43/38/17 47/34/17 45/33/17 41/37/17
f 66/32/18 63/36/18 61/41/18 65/31/18
f 47/34/17 5/11/17 2/9/17 45/33/17
f 7/16/18 48/32/18 46/31/18 4/14/18
f 55/42/19 56/43/19 22/4/19 26/3/19
f 57/44/20 60/45/20 32/8/20 28/7/20
f 56/48/5 58/49/5 24/47/5 22/46/5
f 58/44/21 57/45/21 28/8/21 24/7/21
f 59/42/22 55/43/22 26/4/22 30/3/22
f 60/52/13 59/53/13 30/51/13 32/50/13
f 61/42/23 62/43/23 38/4/23 42/3/23
f 63/44/24 66/45/24 48/8/24 44/7/24
f 62/56/3 64/57/3 40/55/3 38/54/3
f 64/44/25 63/45/25 44/8/25 40/7/25
f 65/42/26 61/43/26 42/4/26 46/3/26
f 66/52/5 65/53/5 46/51/5 48/50/5
f 49/42/27 50/43/27 3/4/27 10/3/27
f 51/44/28 54/45/28 16/8/28 12/7/28
f 50/48/13 52/49/13 8/47/13 3/46/13
f 52/44/29 51/45/29 12/8/29 8/7/29
f 53/42/30 49/43/30 10/4/30 14/3/30
f 54/60/3 53/61/3 14/59/3 16/58/3

