# ProBuilder 5.0.6
# https://unity3d.com/unity/features/worldbuilding/probuilder
# 10/31/2022 11:15:17 PM

mtllib ./FSR-S5-Tuner.mtl
o FSR-S5-Tuner

g FSR-S5-Tuner
v -0.3375 -0.05 -1.519309E-09
v -0.3375 0.05 -1.519309E-09
v -0.3118093 -0.05 0.1291557
v -0.3118093 0.05 0.1291557
v -0.2386485 -0.05 0.2386485
v -0.2386485 0.05 0.2386485
v -0.1291557 -0.05 0.3118093
v -0.1291557 0.05 0.3118093
v 1.266042E-08 -0.05 0.3375
v 1.266042E-08 0.05 0.3375
v 0.1291557 -0.05 0.3118093
v 0.1291557 0.05 0.3118093
v 0.2386485 -0.05 0.2386485
v 0.2386485 0.05 0.2386485
v 0.3118093 -0.05 0.1291557
v 0.3118093 0.05 0.1291557
v 0.3375 -0.05 -2.608049E-08
v 0.3375 0.05 -2.608049E-08
v 0.3118093 -0.05 -0.1291557
v 0.3118093 0.05 -0.1291557
v 0.2386486 -0.05 -0.2386485
v 0.2386486 0.05 -0.2386485
v 0.1291557 -0.05 -0.3118093
v 0.1291557 0.05 -0.3118093
v -1.042871E-08 -0.05 -0.3375
v -1.042871E-08 0.05 -0.3375
v -0.1291557 -0.05 -0.3118093
v -0.1291557 0.05 -0.3118093
v -0.2386485 -0.05 -0.2386486
v -0.2386485 0.05 -0.2386486
v -0.3118093 -0.05 -0.1291557
v -0.3118093 0.05 -0.1291557
v -2.832159E-09 -0.05 -0.2375
v 0.09088735 -0.05 -0.2194214
v 0.09088735 0.05 -0.2194214
v -2.832159E-09 0.05 -0.2375
v -0.09088735 -0.05 -0.2194214
v -0.09088735 0.05 -0.2194214
v 0.1679379 -0.05 -0.1679378
v 0.1679379 0.05 -0.1679378
v 0.2194214 -0.05 -0.09088732
v 0.2194214 0.05 -0.09088732
v 0.2375 -0.05 -2.076291E-08
v 0.2375 0.05 -2.076291E-08
v 0.2194214 -0.05 0.09088732
v 0.2194214 0.05 0.09088732
v 0.1679379 -0.05 0.1679379
v 0.1679379 0.05 0.1679379
v 0.09088731 -0.05 0.2194214
v 0.09088731 0.05 0.2194214
v 1.038145E-08 -0.05 0.2375
v 1.038145E-08 0.05 0.2375
v -0.09088732 -0.05 0.2194214
v -0.09088732 0.05 0.2194214
v -0.1679379 -0.05 0.1679379
v -0.1679379 0.05 0.1679379
v -0.2194214 -0.05 0.09088732
v -0.2194214 0.05 0.09088732
v -0.2375 -0.05 0
v -0.2375 0.05 0
v -0.2194214 -0.05 -0.09088732
v -0.2194214 0.05 -0.09088732
v -0.1679378 -0.05 -0.1679379
v -0.1679378 0.05 -0.1679379
v 0.2194214 -0.2 0.09088707
v 0.2375 -0.2 0
v 0.1679378 -0.2 0.1679382
v 0.2194214 -0.2 -0.09088707
v 0.1679379 -0.2 -0.1679382
v 0.09088734 -0.2 -0.2194214
v 0 -0.2 -0.2375002
v -0.09088735 -0.2 -0.2194214
v -0.1679378 -0.2 -0.1679382
v -0.2194214 -0.2 -0.09088707
v -0.2375 -0.2 0
v -0.2194214 -0.2 0.09088707
v -0.1679379 -0.2 0.1679382
v -0.09088731 -0.2 0.2194214
v 1.490116E-08 -0.2 0.2375002
v 0.09088731 -0.2 0.2194214
v -0.178125 0.0800004 0
v -0.164566 0.0800004 0.06816483
v 0 0.0800004 0
v -0.1259534 0.0800004 0.1259537
v -0.06816549 0.0800004 0.164566
v 7.786091E-09 0.0800004 0.1781244
v 0.06816548 0.0800004 0.164566
v 0.1259534 0.0800004 0.1259537
v 0.164566 0.0800004 0.06816483
v 0.178125 0.0800004 0
v 0.164566 0.0800004 -0.06816483
v 0.1259534 0.0800004 -0.1259537
v 0.06816551 0.0800004 -0.164566
v -2.124119E-09 0.0800004 -0.1781244
v -0.06816551 0.0800004 -0.164566
v -0.1259534 0.0800004 -0.1259537
v -0.164566 0.0800004 -0.06816483

vt 0.8341569 0.85
vt 0.8341569 0.95
vt 0.9658429 0.85
vt 0.9658429 0.95
vt 0.4 0.1625
vt 0.4908873 0.1805786
vt 0.4 0.0625
vt 0.5291557 0.08819067
vt 0.3091127 0.1805786
vt 0.2708443 0.08819067
vt 0.5679379 0.2320622
vt 0.6386486 0.1613515
vt 0.2320621 0.2320622
vt 0.1613514 0.1613515
vt 0.6194214 0.3091127
vt 0.7118093 0.2708443
vt 0.1805786 0.3091127
vt 0.08819067 0.2708443
vt 0.6375 0.4
vt 0.7375 0.4
vt 0.1625 0.4
vt 0.0625 0.4
vt 0.6194214 0.4908873
vt 0.7118093 0.5291557
vt 0.1805786 0.4908873
vt 0.08819067 0.5291557
vt 0.5679379 0.5679379
vt 0.6386485 0.6386485
vt 0.2320621 0.5679379
vt 0.1613515 0.6386485
vt 0.4908873 0.6194214
vt 0.5291557 0.7118093
vt 0.3091127 0.6194214
vt 0.2708443 0.7118093
vt 0.4 0.6375
vt 0.4 0.7375
vt 0.1625 0.4
vt 0.0625 0.4
vt 0.6375 0.4
vt 0.7375 0.4
vt 0.8536661 0.7750002
vt 0.946334 0.7750002
vt 0.8536663 0.6250002
vt 0.9463339 0.6250002
vt 0.8536661 0.7749999
vt 0.946334 0.7749999
vt 0.8536658 0.6249998
vt 0.9463342 0.6249998
vt 0.6194909 0.3952385
vt 0.5547863 0.3945282
vt 0.5415952 0.4627652
vt 0.6019027 0.486222
vt 0.3814931 0.3964224
vt 0.6052142 0.4780134
vt 0.5455122 0.4530557
vt 0.507661 0.5113462
vt 0.5547459 0.5557327
vt 0.3841912 0.3897343
vt 0.5597604 0.5505838
vt 0.5141469 0.5046864
vt 0.4568762 0.5440618
vt 0.4833994 0.6030847
vt 0.3893208 0.3844674
vt 0.4884237 0.6009485
vt 0.4643099 0.5409009
vt 0.3962205 0.5548365
vt 0.3976378 0.61953
vt 0.3962205 0.3815334
vt 0.4023622 0.6195297
vt 0.4037795 0.5548362
vt 0.3356901 0.5409006
vt 0.3115764 0.6009482
vt 0.4037795 0.3815333
vt 0.3166005 0.6030848
vt 0.3431237 0.5440619
vt 0.285853 0.5046865
vt 0.2402395 0.5505839
vt 0.4106791 0.3844674
vt 0.2452544 0.5557327
vt 0.2923393 0.5113461
vt 0.2544881 0.4530557
vt 0.1947861 0.4780134
vt 0.415809 0.3897344
vt 0.1980974 0.486222
vt 0.2584049 0.4627652
vt 0.2452137 0.3945282
vt 0.1805092 0.3952384
vt 0.4185069 0.3964224
vt 0.1805091 0.4047615
vt 0.2452137 0.4054717
vt 0.2584048 0.3372348
vt 0.1980973 0.313778
vt 0.4185069 0.4035776
vt 0.194786 0.3219867
vt 0.254488 0.3469444
vt 0.2923392 0.288654
vt 0.2452542 0.2442674
vt 0.4158089 0.4102658
vt 0.2402396 0.2494161
vt 0.285853 0.2953135
vt 0.3431237 0.2559381
vt 0.3166005 0.1969152
vt 0.4106792 0.4155326
vt 0.3115763 0.1990516
vt 0.3356901 0.2590991
vt 0.4037795 0.2451635
vt 0.4023622 0.18047
vt 0.4037795 0.4184666
vt 0.3976377 0.1804702
vt 0.3962203 0.2451637
vt 0.4643097 0.2590993
vt 0.4884236 0.1990518
vt 0.3962203 0.4184667
vt 0.4833995 0.1969153
vt 0.4568762 0.2559382
vt 0.5141469 0.2953136
vt 0.5597603 0.2494161
vt 0.3893208 0.4155326
vt 0.5547457 0.2442674
vt 0.5076608 0.288654
vt 0.545512 0.3469444
vt 0.6052141 0.3219867
vt 0.3841911 0.4102658
vt 0.6019027 0.313778
vt 0.5415952 0.3372348
vt 0.5547863 0.4054717
vt 0.6194909 0.4047615
vt 0.3814931 0.4035776

vn -1 0 0
vn -0.9238795 0 0.3826835
vn -0.7071068 0 0.7071068
vn -0.3826835 0 0.9238795
vn 3.798273E-08 0 1
vn 0.3826835 0 0.9238795
vn 0.7071068 0 0.7071068
vn 0.9238795 0 0.3826835
vn 1 0 -4.557928E-08
vn 0.9238795 0 -0.3826835
vn 0.7071069 0 -0.7071067
vn 0.3826835 0 -0.9238795
vn -2.278964E-08 0 -1
vn -0.3826835 0 -0.9238795
vn -0.7071068 0 -0.7071068
vn -0.9238795 0 -0.3826835
vn 0 -1 0
vn 0 1 0
vn -0.4491685 0.8889685 0.08934559
vn -0.3807851 0.8889695 0.2544325
vn -0.2544346 0.8889676 0.3807882
vn -0.08934525 0.8889683 0.449169
vn 0.08934459 0.8889701 0.4491655
vn 0.2544335 0.8889681 0.380788
vn 0.3807877 0.8889686 0.2544321
vn 0.4491681 0.8889688 0.08934508
vn 0.4491685 0.8889685 -0.0893456
vn 0.3807873 0.8889688 -0.2544318
vn 0.2544337 0.8889679 -0.3807881
vn 0.08934523 0.8889683 -0.449169
vn -0.08934307 0.8889694 -0.4491673
vn -0.2544335 0.8889681 -0.3807879
vn -0.3807878 0.8889679 -0.2544343
vn -0.4491682 0.8889688 -0.0893451

usemtl Default
f 82/51/18 83/53/18 81/50/18
f 84/56/18 83/58/18 82/55/18
f 85/61/18 83/63/18 84/60/18
f 86/66/18 83/68/18 85/65/18
f 87/71/18 83/73/18 86/70/18
f 88/76/18 83/78/18 87/75/18
f 89/81/18 83/83/18 88/80/18
f 90/86/18 83/88/18 89/85/18
f 91/91/18 83/93/18 90/90/18
f 92/96/18 83/98/18 91/95/18
f 93/101/18 83/103/18 92/100/18
f 94/106/18 83/108/18 93/105/18
f 95/111/18 83/113/18 94/110/18
f 96/116/18 83/118/18 95/115/18
f 97/121/18 83/123/18 96/120/18
f 81/126/18 83/128/18 97/125/18
f 4/4/2 2/2/1 1/1/1
f 1/1/1 3/3/2 4/4/2
f 6/4/3 4/2/2 3/1/2
f 3/1/2 5/3/3 6/4/3
f 8/4/4 6/2/3 5/1/3
f 5/1/3 7/3/4 8/4/4
f 10/4/5 8/2/4 7/1/4
f 7/1/4 9/3/5 10/4/5
f 12/4/6 10/2/5 9/1/5
f 9/1/5 11/3/6 12/4/6
f 14/4/7 12/2/6 11/1/6
f 11/1/6 13/3/7 14/4/7
f 16/4/8 14/2/7 13/1/7
f 13/1/7 15/3/8 16/4/8
f 18/4/9 16/2/8 15/1/8
f 15/1/8 17/3/9 18/4/9
f 20/4/10 18/2/9 17/1/9
f 17/1/9 19/3/10 20/4/10
f 22/4/11 20/2/10 19/1/10
f 19/1/10 21/3/11 22/4/11
f 24/4/12 22/2/11 21/1/11
f 21/1/11 23/3/12 24/4/12
f 26/4/13 24/2/12 23/1/12
f 23/1/12 25/3/13 26/4/13
f 28/4/14 26/2/13 25/1/13
f 25/1/13 27/3/14 28/4/14
f 30/4/15 28/2/14 27/1/14
f 27/1/14 29/3/15 30/4/15
f 32/4/16 30/2/15 29/1/15
f 29/1/15 31/3/16 32/4/16
f 2/4/1 32/2/16 31/1/16
f 31/1/16 1/3/1 2/4/1
f 23/8/17 34/6/17 33/5/17
f 33/5/17 25/7/17 23/8/17
f 26/7/18 36/5/18 35/9/18
f 35/9/18 24/10/18 26/7/18
f 25/7/17 33/5/17 37/9/17
f 37/9/17 27/10/17 25/7/17
f 28/8/18 38/6/18 36/5/18
f 36/5/18 26/7/18 28/8/18
f 21/12/17 39/11/17 34/6/17
f 34/6/17 23/8/17 21/12/17
f 24/10/18 35/9/18 40/13/18
f 40/13/18 22/14/18 24/10/18
f 19/16/17 41/15/17 39/11/17
f 39/11/17 21/12/17 19/16/17
f 22/14/18 40/13/18 42/17/18
f 42/17/18 20/18/18 22/14/18
f 17/20/17 43/19/17 41/15/17
f 41/15/17 19/16/17 17/20/17
f 20/18/18 42/17/18 44/21/18
f 44/21/18 18/22/18 20/18/18
f 15/24/17 45/23/17 43/19/17
f 43/19/17 17/20/17 15/24/17
f 18/22/18 44/21/18 46/25/18
f 46/25/18 16/26/18 18/22/18
f 13/28/17 47/27/17 45/23/17
f 45/23/17 15/24/17 13/28/17
f 16/26/18 46/25/18 48/29/18
f 48/29/18 14/30/18 16/26/18
f 11/32/17 49/31/17 47/27/17
f 47/27/17 13/28/17 11/32/17
f 14/30/18 48/29/18 50/33/18
f 50/33/18 12/34/18 14/30/18
f 9/36/17 51/35/17 49/31/17
f 49/31/17 11/32/17 9/36/17
f 12/34/18 50/33/18 52/35/18
f 52/35/18 10/36/18 12/34/18
f 7/34/17 53/33/17 51/35/17
f 51/35/17 9/36/17 7/34/17
f 10/36/18 52/35/18 54/31/18
f 54/31/18 8/32/18 10/36/18
f 5/30/17 55/29/17 53/33/17
f 53/33/17 7/34/17 5/30/17
f 8/32/18 54/31/18 56/27/18
f 56/27/18 6/28/18 8/32/18
f 3/26/17 57/25/17 55/29/17
f 55/29/17 5/30/17 3/26/17
f 6/28/18 56/27/18 58/23/18
f 58/23/18 4/24/18 6/28/18
f 1/38/17 59/37/17 57/25/17
f 57/25/17 3/26/17 1/38/17
f 4/24/18 58/23/18 60/39/18
f 60/39/18 2/40/18 4/24/18
f 31/18/17 61/17/17 59/37/17
f 59/37/17 1/38/17 31/18/17
f 2/40/18 60/39/18 62/15/18
f 62/15/18 32/16/18 2/40/18
f 29/14/17 63/13/17 61/17/17
f 61/17/17 31/18/17 29/14/17
f 32/16/18 62/15/18 64/11/18
f 64/11/18 30/12/18 32/16/18
f 27/10/17 37/9/17 63/13/17
f 63/13/17 29/14/17 27/10/17
f 30/12/18 64/11/18 38/6/18
f 38/6/18 28/8/18 30/12/18
f 66/44/9 43/42/9 45/41/8
f 45/41/8 65/43/8 66/44/9
f 65/48/8 45/46/8 47/45/7
f 47/45/7 67/47/7 65/48/8
f 68/44/10 41/42/10 43/41/9
f 43/41/9 66/43/9 68/44/10
f 69/44/11 39/42/11 41/41/10
f 41/41/10 68/43/10 69/44/11
f 70/48/12 34/46/12 39/45/11
f 39/45/11 69/47/11 70/48/12
f 71/44/13 33/42/13 34/41/12
f 34/41/12 70/43/12 71/44/13
f 72/48/14 37/46/14 33/45/13
f 33/45/13 71/47/13 72/48/14
f 73/44/15 63/42/15 37/41/14
f 37/41/14 72/43/14 73/44/15
f 74/48/16 61/46/16 63/45/15
f 63/45/15 73/47/15 74/48/16
f 75/44/1 59/42/1 61/41/16
f 61/41/16 74/43/16 75/44/1
f 76/44/2 57/42/2 59/41/1
f 59/41/1 75/43/1 76/44/2
f 77/44/3 55/42/3 57/41/2
f 57/41/2 76/43/2 77/44/3
f 78/48/4 53/46/4 55/45/3
f 55/45/3 77/47/3 78/48/4
f 79/44/5 51/42/5 53/41/4
f 53/41/4 78/43/4 79/44/5
f 80/48/6 49/46/6 51/45/5
f 51/45/5 79/47/5 80/48/6
f 67/44/7 47/42/7 49/41/6
f 49/41/6 80/43/6 67/44/7
f 58/52/19 82/51/19 81/50/19
f 81/50/19 60/49/19 58/52/19
f 84/56/20 82/55/20 58/54/20
f 58/54/20 56/57/20 84/56/20
f 85/61/21 84/60/21 56/59/21
f 56/59/21 54/62/21 85/61/21
f 52/67/22 86/66/22 85/65/22
f 85/65/22 54/64/22 52/67/22
f 50/72/23 87/71/23 86/70/23
f 86/70/23 52/69/23 50/72/23
f 48/77/24 88/76/24 87/75/24
f 87/75/24 50/74/24 48/77/24
f 46/82/25 89/81/25 88/80/25
f 88/80/25 48/79/25 46/82/25
f 46/84/26 44/87/26 90/86/26
f 90/86/26 89/85/26 46/84/26
f 44/89/27 42/92/27 91/91/27
f 91/91/27 90/90/27 44/89/27
f 42/94/28 40/97/28 92/96/28
f 92/96/28 91/95/28 42/94/28
f 40/99/29 35/102/29 93/101/29
f 93/101/29 92/100/29 40/99/29
f 36/107/30 94/106/30 93/105/30
f 93/105/30 35/104/30 36/107/30
f 36/109/31 38/112/31 95/111/31
f 95/111/31 94/110/31 36/109/31
f 38/114/32 64/117/32 96/116/32
f 96/116/32 95/115/32 38/114/32
f 96/120/33 64/119/33 62/122/33
f 62/122/33 97/121/33 96/120/33
f 81/126/34 97/125/34 62/124/34
f 62/124/34 60/127/34 81/126/34

