# ProBuilder 5.0.6
# https://unity3d.com/unity/features/worldbuilding/probuilder
# 10/31/2022 11:27:45 PM

mtllib ./FSR-S5-Mag.mtl
o FSR-S5-Mag

g FSR-S5-Mag
v -0.15 -2.725 -1.458332
v -0.15 -2.725 0.208334
v 0.15 -2.725 0.208334
v 0.15 -2.725 -1.458332
v -0.256066 -2.625 -1.465398
v -0.256066 -2.625 0.2154003
v -0.256066 -2.725 -1.465398
v -0.256066 -2.725 0.2154004
v -0.1570664 -2.625 0.3144
v 0.1570664 -2.625 0.3144
v -0.1570664 -2.725 0.3144
v 0.1570664 -2.725 0.3144
v 0.256066 -2.625 0.2154003
v 0.256066 -2.625 -1.465398
v 0.256066 -2.725 0.2154004
v 0.256066 -2.725 -1.465398
v 0.1570664 -2.625 -1.564398
v -0.1570664 -2.625 -1.564398
v 0.1570664 -2.725 -1.564398
v -0.1570664 -2.725 -1.564398
v 0.2 -2.625 0.208334
v 0.1860627 -2.625 0.2443967
v -0.1860627 -2.625 0.2443967
v -0.2 -2.625 0.208334
v -0.1860627 -2.725 0.2443967
v 0.1860627 -2.725 0.2443967
v 0.1860627 -2.725 -1.494395
v -0.2 -2.625 -1.458332
v -0.1860627 -2.625 -1.494395
v 0.1860627 -2.625 -1.494395
v 0.2 -2.625 -1.458332
v -0.1860627 -2.725 -1.494395
v -0.125 2.625 -0.2083321
v -0.2 2.625 -0.2083321
v 0.2 2.625 -0.2083321
v 0.125 2.625 -0.2083321
v -0.125 2.625 1.458334
v 0.125 2.625 1.458334
v 0.2 2.625 1.458334
v -0.2 2.625 1.458334
v 0.2 2.625 0.7750015
v -0.2 2.625 0.7750015
v -0.125 2.625 -0.1916656
v -0.125 2.625 0.7750015
v 0.125 2.625 0.7750015
v 0.125 2.625 -0.1916656
v 0.125 2.625 1.441668
v -0.125 2.625 1.441668
v 0.125 0.725 -0.6416664
v 0.125 0.725 0.07500076
v 0.125 0.725 0.9916668
v -0.125 0.725 0.9916668
v -0.125 0.725 0.07500076
v -0.125 0.725 -0.6416664
v -0.2 2.925 0.7750015
v -0.125 2.925 0.7750015
v -0.125 3.075 1.441668
v -0.125 3.075 1.458334
v -0.2 3.075 1.458334
v 0.125 2.925 0.7750015
v 0.2 2.925 0.7750015
v 0.125 3.075 1.458334
v 0.125 3.075 1.441668
v 0.2 3.075 1.458334
v -0.125 3.075 0.9833345
v -0.2 3.075 0.9916677
v 0.125 3.075 0.9833345
v 0.2 3.075 0.9916677

vt 0.385 0.2449866
vt 0.385 0.4116532
vt 0.415 0.4116532
vt 0.415 0.2449866
vt 0.2534602 0.1283198
vt 0.4215401 0.1283198
vt 0.2534602 0.1183198
vt 0.4215401 0.1183198
vt 0.3842934 0.1283198
vt 0.4157066 0.1283198
vt 0.3842934 0.1183198
vt 0.4157066 0.1183198
vt 0.37846 0.1283198
vt 0.5465398 0.1283198
vt 0.37846 0.1183198
vt 0.5465398 0.1183198
vt 0.3888748 0.1283198
vt 0.3888748 0.1183198
vt 0.4028755 0.1283198
vt 0.4028755 0.1183198
vt 0.4855127 0.1283198
vt 0.4855127 0.1183198
vt 0.4995134 0.1283198
vt 0.4995134 0.1183198
vt 0.3144873 0.1183198
vt 0.3144873 0.1283198
vt 0.3004867 0.1183198
vt 0.3004867 0.1283198
vt 0.3971245 0.1283198
vt 0.3971245 0.1183198
vt 0.4111252 0.1283198
vt 0.4111252 0.1183198
vt 0.38 0.4116537
vt 0.3813937 0.41526
vt 0.3842934 0.4222603
vt 0.4157066 0.4222603
vt 0.4186063 0.41526
vt 0.42 0.4116537
vt 0.415 0.4116532
vt 0.4256066 0.4123598
vt 0.4256066 0.2442799
vt 0.4186063 0.2413803
vt 0.415 0.2449866
vt 0.42 0.2449861
vt 0.4157066 0.2343795
vt 0.3842934 0.2343795
vt 0.3813937 0.2413798
vt 0.38 0.2449861
vt 0.385 0.2449866
vt 0.3743934 0.2442799
vt 0.3743934 0.4123598
vt 0.385 0.4116532
vt 0.4125 0.641356
vt 0.42 0.641356
vt 0.42 0.1016802
vt 0.38 0.1016802
vt 0.38 0.641356
vt 0.3875 0.641356
vt 0.3875 0.6799594
vt 0.4125 0.6799594
vt 0.42 0.6799594
vt 0.42 0.1402836
vt 0.38 0.1402836
vt 0.38 0.6799594
vt 0.2541666 0.6533198
vt 0.3224998 0.6533198
vt 0.4208332 0.6533198
vt 0.5458332 0.1283198
vt 0.3791666 0.1283198
vt 0.3791668 0.6533198
vt 0.4775002 0.6533198
vt 0.5458334 0.6533198
vt 0.4208334 0.1283198
vt 0.2541668 0.1283198
vt 0.42 0.3699866
vt 0.4125 0.3699866
vt 0.4125 0.3716532
vt 0.4125 0.46832
vt 0.42 0.46832
vt 0.3875 0.3699866
vt 0.38 0.3699866
vt 0.38 0.46832
vt 0.3875 0.46832
vt 0.3875 0.3716532
vt 0.3875 0.5349866
vt 0.3875 0.5366532
vt 0.4125 0.5366532
vt 0.4125 0.5349866
vt 0.3875 0.3266532
vt 0.3875 0.3983199
vt 0.3875 0.4899865
vt 0.4125 0.4899865
vt 0.4125 0.3983199
vt 0.4125 0.3266532
vt 0.42 0.6533198
vt 0.4125 0.6533198
vt 0.42 0.6833198
vt 0.4125 0.6833198
vt 0.2558332 0.6533198
vt 0.2558332 0.6983198
vt 0.2541666 0.6983198
vt 0.3875 0.6533198
vt 0.38 0.6533198
vt 0.3875 0.6983198
vt 0.38 0.6983198
vt 0.3875 0.6833198
vt 0.38 0.6833198
vt 0.5441668 0.6533198
vt 0.5458334 0.6983198
vt 0.5441668 0.6983198
vt 0.42 0.6983198
vt 0.4125 0.6983198
vt 0.3875 0.6418361
vt 0.4125 0.6418361
vt 0.3875 0.4465798
vt 0.4125 0.4465798
vt 0.3808334 0.6533198
vt 0.3358334 0.4633198
vt 0.4075001 0.4633198
vt 0.4191666 0.6533198
vt 0.3924999 0.4633198
vt 0.4641666 0.4633198
vt 0.4991667 0.4633198
vt 0.3008333 0.4633198
vt 0.3875 0.679479
vt 0.4125 0.679479
vt 0.3875 0.4842227
vt 0.4125 0.4842227
vt 0.3016666 0.6983198
vt 0.3224998 0.6833198
vt 0.4775002 0.6833198
vt 0.4991668 0.6983198
vt 0.4983335 0.6983198
vt 0.3008332 0.6983198
vt 0.42 0.624623
vt 0.4125 0.624623
vt 0.4125 0.6502945
vt 0.42 0.6509708
vt 0.4125 0.4891532
vt 0.42 0.5366532
vt 0.42 0.4899866
vt 0.3875 0.4891532
vt 0.38 0.4899866
vt 0.38 0.5366532
vt 0.3875 0.6502945
vt 0.3875 0.6246231
vt 0.38 0.6246231
vt 0.38 0.6509708

vn 0 -1 0
vn -1 0 0
vn 0 2.980242E-07 1
vn 1 0 0
vn 0 0 -1
vn 0.7071068 2.107349E-07 0.7071068
vn 0.7071066 0 -0.7071069
vn -0.7071066 0 -0.7071069
vn -0.7071068 2.107349E-07 0.7071068
vn 0.0001191697 1 5.048563E-05
vn 0 0.2316205 -0.9728062
vn 0 -0.2316205 0.9728062
vn 0 -0.2304668 0.9730802
vn 0 0.2304668 -0.9730802
vn -0.03155927 0.8160433 -0.5761902
vn 0 0.8115342 -0.5843049
vn -0.06311854 0.8205525 -0.5680754
vn 0.03155926 0.8160433 -0.5761902
vn 0.06311852 0.8205525 -0.5680754

usemtl Metal027
f 40/72/2 42/71/2 24/73/2
f 34/70/2 24/73/2 42/71/2
f 34/70/2 28/74/2 24/73/2
f 38/60/12 21/62/12 39/61/12
f 38/60/12 37/59/12 21/62/12
f 21/62/12 37/59/12 24/63/12
f 37/59/12 40/64/12 24/63/12
f 21/69/4 31/68/4 35/67/4
f 41/66/4 21/69/4 35/67/4
f 21/69/4 41/66/4 39/65/4
f 33/53/11 28/55/11 34/54/11
f 28/55/11 33/53/11 31/56/11
f 31/56/11 33/53/11 36/58/11
f 31/56/11 36/58/11 35/57/11
f 9/36/10 24/38/10 23/37/10
f 9/36/10 10/35/10 24/38/10
f 10/35/10 21/33/10 24/38/10
f 10/35/10 22/34/10 21/33/10
f 3/3/1 26/37/1 12/36/1
f 2/2/1 3/3/1 12/36/1
f 2/2/1 12/36/1 11/35/1
f 25/34/1 2/2/1 11/35/1
f 3/39/1 15/40/1 26/37/1
f 4/43/1 15/40/1 3/39/1
f 16/41/1 15/40/1 4/43/1
f 4/43/1 27/42/1 16/41/1
f 28/44/10 18/45/10 29/42/10
f 28/44/10 31/48/10 18/45/10
f 31/48/10 17/46/10 18/45/10
f 30/47/10 17/46/10 31/48/10
f 4/4/1 19/45/1 27/42/1
f 20/46/1 19/45/1 4/4/1
f 20/46/1 4/4/1 1/1/1
f 32/47/1 20/46/1 1/1/1
f 8/51/1 2/52/1 25/34/1
f 2/52/1 8/51/1 1/49/1
f 7/50/1 1/49/1 8/51/1
f 32/47/1 1/49/1 7/50/1
f 10/35/10 13/51/10 22/34/10
f 26/37/1 15/40/1 12/36/1
f 14/50/10 17/46/10 30/47/10
f 27/42/1 19/45/1 16/41/1
f 7/50/1 20/46/1 32/47/1
f 29/42/10 18/45/10 5/41/10
f 6/40/10 9/36/10 23/37/10
f 25/34/1 11/35/1 8/51/1
f 35/81/10 36/80/10 46/84/10
f 41/82/10 35/81/10 46/84/10
f 41/82/10 46/84/10 45/83/10
f 43/77/10 33/76/10 34/75/10
f 42/79/10 43/77/10 34/75/10
f 42/79/10 44/78/10 43/77/10
f 50/90/10 49/89/10 54/94/10
f 50/90/10 54/94/10 53/93/10
f 51/91/10 50/90/10 53/93/10
f 51/91/10 53/93/10 52/92/10
f 44/66/4 56/130/4 65/129/4
f 44/66/4 65/129/4 48/99/4
f 57/100/4 48/99/4 65/129/4
f 66/132/2 40/72/2 59/109/2
f 40/72/2 66/132/2 42/71/2
f 66/132/2 55/131/2 42/71/2
f 67/133/2 47/108/2 63/110/2
f 47/108/2 67/133/2 45/71/2
f 67/133/2 60/131/2 45/71/2
f 41/66/4 61/130/4 68/134/4
f 41/66/4 68/134/4 39/65/4
f 64/101/4 39/65/4 68/134/4
f 57/88/10 65/139/10 66/141/10
f 59/140/10 57/88/10 66/141/10
f 59/140/10 58/87/10 57/88/10
f 68/143/10 67/142/10 63/85/10
f 64/144/10 68/143/10 63/85/10
f 64/144/10 63/85/10 62/86/10
f 21/33/10 22/34/10 13/51/10
f 6/40/10 23/37/10 24/38/10
f 31/48/10 14/50/10 30/47/10
f 29/42/10 5/41/10 28/44/10
f 3/3/1 2/2/1 1/1/1
f 1/1/1 4/4/1 3/3/1
f 8/8/2 6/6/2 5/5/2
f 5/5/2 7/7/2 8/8/2
f 12/12/3 10/10/3 9/9/3
f 9/9/3 11/11/3 12/12/3
f 16/16/4 14/14/4 13/13/4
f 13/13/4 15/15/4 16/16/4
f 20/12/5 18/10/5 17/9/5
f 17/9/5 19/11/5 20/12/5
f 13/19/6 10/17/6 12/18/6
f 12/18/6 15/20/6 13/19/6
f 17/23/7 14/21/7 16/22/7
f 16/22/7 19/24/7 17/23/7
f 20/27/8 7/25/8 5/26/8
f 5/26/8 18/28/8 20/27/8
f 9/31/9 6/29/9 8/30/9
f 8/30/9 11/32/9 9/31/9
f 38/86/10 47/85/10 48/88/10
f 48/88/10 37/87/10 38/86/10
f 46/84/10 36/80/10 33/76/10
f 33/76/10 43/77/10 46/84/10
f 56/98/5 44/96/5 42/95/5
f 42/95/5 55/97/5 56/98/5
f 58/101/4 37/65/4 48/99/4
f 48/99/4 57/100/4 58/101/4
f 59/105/3 40/103/3 37/102/3
f 37/102/3 58/104/3 59/105/3
f 61/107/5 41/103/5 45/102/5
f 45/102/5 60/106/5 61/107/5
f 63/110/2 47/108/2 38/72/2
f 38/72/2 62/109/2 63/110/2
f 62/112/3 38/96/3 39/95/3
f 39/95/3 64/111/3 62/112/3
f 49/116/13 46/114/13 43/113/13
f 43/113/13 54/115/13 49/116/13
f 50/119/2 45/71/2 46/117/2
f 46/117/2 49/118/2 50/119/2
f 54/122/4 43/120/4 44/66/4
f 44/66/4 53/121/4 54/122/4
f 51/123/2 47/108/2 45/71/2
f 45/71/2 50/119/2 51/123/2
f 53/121/4 44/66/4 48/99/4
f 48/99/4 52/124/4 53/121/4
f 52/128/14 48/126/14 47/125/14
f 47/125/14 51/127/14 52/128/14
f 65/137/15 56/136/16 55/135/15
f 55/135/15 66/138/17 65/137/15
f 61/147/18 60/146/16 67/145/18
f 67/145/18 68/148/19 61/147/18
f 13/51/10 14/50/10 31/48/10
f 31/48/10 21/33/10 13/51/10
f 24/38/10 28/44/10 5/41/10
f 5/41/10 6/40/10 24/38/10

