# ProBuilder 5.0.6
# https://unity3d.com/unity/features/worldbuilding/probuilder
# 12/25/2022 12:44:21 AM

mtllib ./Stationary-Weapon-RailGun.mtl
o Stationary-Weapon-RailGun

g Stationary-Weapon-RailGun
v 0.1999989 -0.3000001 2
v -0.1999989 -0.3000001 2
v 0.1999989 0.3000001 2
v -0.1999989 0.3000001 2
v -0.2999992 -0.4000001 2
v -0.2999992 -0.4000001 1
v -0.2999989 0.3000001 2
v -0.2999989 0.3000001 1
v -0.1999989 -0.3000001 -1.4
v 0.1999989 -0.3000001 -1.4
v -0.1999989 0.3000001 -1.4
v 0.1999989 0.3000001 -1.4
v 0.2999992 -0.4000001 1
v 0.2999992 -0.4000001 2
v 0.2999989 0.3000001 1
v 0.2999989 0.3000001 2
v 0.09999885 0.8000001 2
v -0.09999885 0.8000001 2
v 0.09999885 0.8000001 1
v -0.09999885 0.8000001 1
v 0.1499989 -0.7500001 1
v -0.1499989 -0.7500001 1
v 0.1499989 -0.7500001 2
v -0.1499989 -0.7500001 2
v 0.1999992 -0.5000001 1
v 0.1999992 -0.5000001 2
v -0.1999992 -0.5000001 2
v -0.1999992 -0.5000001 1
v 0.1999989 0.4000001 2
v 0.1999989 0.4000001 1
v -0.1999989 0.4000001 1
v -0.1999989 0.4000001 2
v 0.1999989 -0.3000001 11
v 0.2552778 -0.4105574 11
v 0.1999992 -0.5000001 11
v -0.1999992 -0.5000001 11
v -0.2552778 -0.4105574 11
v -0.1999989 -0.3000001 11
v 0.1999989 0.3000001 11
v 0.2292882 0.3292894 11
v 0.2999989 0.3000001 11
v 0.2999992 -0.4000001 11
v -0.2999992 -0.4000001 11
v -0.2999989 0.3000001 11
v -0.2292882 0.3292894 11
v -0.1999989 0.3000001 11
v -0.1999989 0.4000001 11
v 0.1999989 0.4000001 11
v 0.2552778 -0.4105574 1
v -0.2552778 -0.4105574 1
v 0.2292882 0.3292894 1
v -0.2292882 0.3292894 1
v 0.1999989 0.7 1
v 0.1999989 0.7 2
v -0.1999989 0.7 2
v -0.1999989 0.7 1
v 0.09999847 0.8000001 7
v 0.1999989 0.7000002 7
v 0.1999989 0.4990003 2
v 0.1999989 0.4990002 7
v -0.09999847 0.8000001 7
v 0.1509988 0.4500002 2
v -0.1509988 0.4500002 2
v 0.1509991 0.4500002 7
v -0.1509991 0.4500002 7
v -0.1999989 0.4990003 2
v -0.1999989 0.4990002 7
v -0.1999989 0.7000002 7
v 0.1999989 0.4010001 2
v -0.1999989 0.4010001 2
v -0.5499989 -0.8000001 1
v 0.5499989 -0.8000001 1
v -0.5499989 -0.8000001 -1
v 0.5499989 -0.8000001 -1
v -0.6999989 0.6500001 1
v -0.6999989 -0.6500001 1
v -0.6999989 0.6500001 -1
v -0.6999989 -0.6500001 -1
v 0.6999989 -0.6500001 1
v 0.6999989 0.6500001 1
v 0.6999989 -0.6500001 -1
v 0.6999989 0.6500001 -1
v 0.5499989 0.8000001 1
v -0.5499989 0.8000001 1
v 0.5499989 0.8000001 -1
v -0.5499989 0.8000001 -1
v 0.1999989 0.3000001 1
v 0.5939329 0.6939341 1
v 0.5939329 -0.6939341 1
v 0.1999989 -0.3000001 1
v -0.1999989 0.3000001 1
v -0.5939329 0.6939341 1
v -0.1999989 -0.3000001 1
v -0.5939329 -0.6939341 1
v 0.1999989 -0.5500001 2
v 0.1999989 -0.5500001 1
v -0.1999989 -0.5500001 1
v -0.1999989 -0.5500001 2
v 0.1999989 -0.7000001 2
v 0.1999989 -0.7000001 1
v -0.1999989 -0.7000001 1
v -0.1999989 -0.7000001 2
v 0.1999989 -0.5500001 5.4
v 0.1999989 -0.7000002 5.4
v 0.1499987 -0.7500001 5.4
v -0.1499987 -0.7500001 5.4
v -0.1999989 -0.7000002 5.4
v -0.1999989 -0.5500001 5.4
v -0.6249989 0.7250001 -1
v -0.6249989 -0.7250001 -1
v 0.6249989 -0.7250001 -1
v 0.6249989 0.7250001 -1

vt 0.7166666 0.07291667
vt 0.6833334 0.07291667
vt 0.7166666 0.1229167
vt 0.6833334 0.1229167
vt 0.28 0.8720392
vt 0.2 0.8720392
vt 0.28 0.927961
vt 0.2 0.927961
vt 0.7156616 0.4751524
vt 0.6843383 0.4751524
vt 0.7156616 0.5248476
vt 0.6843383 0.5248476
vt 1 0.6720392
vt 0.9200001 0.6720392
vt 1 0.7279609
vt 0.9200001 0.7279609
vt 0.09166683 0.5041676
vt 0.1083333 0.5041676
vt 0.09166683 0.4208342
vt 0.1083333 0.4208342
vt 0.1125345 0.02916577
vt 0.08743687 0.02917443
vt 0.1125633 0.1125016
vt 0.08746564 0.1125103
vt 1 0.6636276
vt 0.9200001 0.6636276
vt 0.28 0.8636277
vt 0.2 0.8636277
vt 0.9200001 0.7355271
vt 1 0.7355271
vt 0.2 0.9355271
vt 0.28 0.9355271
vt 0.5166666 0.4791667
vt 0.5212731 0.4699535
vt 0.5166666 0.4625
vt 0.4833334 0.4625
vt 0.4787269 0.4699535
vt 0.4833334 0.4791667
vt 0.5166666 0.5291667
vt 0.5191073 0.5316074
vt 0.5249999 0.5291667
vt 0.5249999 0.4708333
vt 0.4750001 0.4708333
vt 0.4750001 0.5291667
vt 0.4808927 0.5316074
vt 0.4833334 0.5291667
vt 0.4833334 0.5375
vt 0.5166666 0.5375
vt 0.8750001 0.06666666
vt 0.8833334 0.05833333
vt 0.8787269 0.06578688
vt 0.925 0.06666666
vt 0.9166666 0.05833333
vt 0.9212732 0.06578688
vt 0.8750001 0.125
vt 0.8833334 0.1333334
vt 0.8808927 0.1274408
vt 0.925 0.125
vt 0.9166666 0.1333334
vt 0.9191074 0.1274408
vt 0.2 0.6720392
vt 0.2 0.6636276
vt 0.225 0.175
vt 0.225 0.225
vt 0.975 0.175
vt 0.975 0.225
vt 0.2 0.7279609
vt 0.225 0.3083334
vt 0.225 0.3416666
vt 0.975 0.3083334
vt 0.975 0.3416666
vt 0.06666666 0.2208343
vt 0.03333346 0.2208343
vt 0.06666666 0.9708343
vt 0.03333346 0.9708343
vt 1 0.8636277
vt 1 0.8720392
vt 1 0.927961
vt 1 0.9355271
vt 0.975 0.225
vt 0.975 0.175
vt 0.225 0.225
vt 0.225 0.175
vt 0.2 0.7355271
vt 1 0.7670597
vt 0.9200001 0.7670597
vt 1 0.7594935
vt 0.9200001 0.7594935
vt 0.28 0.9670597
vt 0.2 0.9670597
vt 0.28 0.9594936
vt 0.2 0.9594936
vt 0.52 0.7670597
vt 0.52 0.7594935
vt 0.9200001 0.743436
vt 0.52 0.743436
vt 0.1083333 0.9208342
vt 0.09166685 0.9208342
vt 0.2125835 0.2208334
vt 0.1874171 0.2208334
vt 0.2125836 0.6375
vt 0.187417 0.6375
vt 0.28 0.9434361
vt 0.68 0.9434361
vt 0.68 0.9594936
vt 0.68 0.9670597
vt 0.9200001 0.7393144
vt 0.52 0.7393144
vt 0.28 0.9393144
vt 0.68 0.9393144
vt 0.7833334 0.09587499
vt 0.7874168 0.1000417
vt 0.8125833 0.1000417
vt 0.8166666 0.09595832
vt 0.7166666 0.15625
vt 0.7166666 0.1395
vt 0.7125832 0.1354167
vt 0.6874167 0.1354167
vt 0.6833334 0.1395
vt 0.6833334 0.15625
vt 0.6916668 0.1645833
vt 0.7083332 0.1645833
vt 0.8166666 0.104125
vt 0.7833334 0.104125
vt 0.3541668 0.5833333
vt 0.4458332 0.5833333
vt 0.3541668 0.4166667
vt 0.4458332 0.4166667
vt 0.9833333 0.5541667
vt 0.9833333 0.4458333
vt 0.8166667 0.5541667
vt 0.8166667 0.4458333
vt 0.5166665 0.125
vt 0.5494944 0.1578278
vt 0.5583332 0.1541666
vt 0.5583332 0.04583328
vt 0.5494943 0.04217212
vt 0.5166665 0.07499996
vt 0.4833334 0.125
vt 0.4505056 0.1578278
vt 0.4541668 0.1666667
vt 0.5458332 0.1666666
vt 0.4833334 0.07499997
vt 0.4505056 0.04217213
vt 0.4416668 0.0458333
vt 0.4416668 0.1541667
vt 0.5458332 0.03333329
vt 0.4541668 0.0333333
vt 0.9200001 0.6596332
vt 1 0.6596332
vt 0.2 0.8596333
vt 0.28 0.8596333
vt 0.7833334 0.1020833
vt 0.8166666 0.1020833
vt 0.7833335 0.09791666
vt 0.8166665 0.09791666
vt 0.9200001 0.64765
vt 1 0.64765
vt 0.2 0.8476501
vt 0.28 0.8476501
vt 0.2 0.8434443
vt 0.28 0.8434443
vt 0.9200001 0.6434442
vt 1 0.6434442
vt 0.7166666 0.05208334
vt 0.7166666 0.03958333
vt 0.7124999 0.03541667
vt 0.6875001 0.03541667
vt 0.6833334 0.03958333
vt 0.6833334 0.05208334
vt 0.552 0.8434443
vt 0.552 0.8476501
vt 0.552 0.8596333
vt 0.6480001 0.6596332
vt 0.6480001 0.64765
vt 0.6480001 0.6434442
vt 0.1126611 0.3958435
vt 0.08756348 0.3958522
vt 0.2166669 0.1625
vt 0.1833337 0.1625
vt 0.2166669 0.4458334
vt 0.1833337 0.4458334
vt 0.8166667 0.5604167
vt 0.8166667 0.5666667
vt 0.9833333 0.5666667
vt 0.7430696 0.5662602
vt 0.7489428 0.5600483
vt 0.7548159 0.5538364
vt 0.9833333 0.4333333
vt 0.8166667 0.4333333
vt 0.7489428 0.4399517
vt 0.7430696 0.4337398
vt 0.7548159 0.4461636
vt 0.6510572 0.4399517
vt 0.645184 0.4461636
vt 0.6569303 0.4337398
vt 0.6569303 0.5662602
vt 0.6510572 0.5600483
vt 0.645184 0.5538364

vn 0 0 1
vn -1 4.683221E-07 0
vn 0 0 -1
vn 1 4.683221E-07 0
vn 0 1 0
vn 0 -1 0
vn 0.7071069 -0.7071067 0
vn -0.7071069 -0.7071067 0
vn 0.7071067 0.7071069 0
vn -0.7071067 0.7071069 0
vn -0.3917614 0.3917614 -0.8324938
vn -0.3917614 -0.3917614 -0.8324938
vn -0.6246947 0 -0.7808691
vn 0.3917614 -0.3917614 -0.8324938
vn 0 -0.6246947 -0.7808691
vn 0.3917614 0.3917614 -0.8324938
vn 0 0.6246947 -0.7808691
vn 0.6246947 0 -0.7808691

usemtl Railgun
f 33/33/1 35/35/1 34/34/1
f 33/33/1 38/38/1 35/35/1
f 38/38/1 36/36/1 35/35/1
f 37/37/1 36/36/1 38/38/1
f 42/42/1 33/33/1 34/34/1
f 42/42/1 41/41/1 33/33/1
f 33/33/1 41/41/1 39/39/1
f 40/40/1 39/39/1 41/41/1
f 45/45/1 44/44/1 46/46/1
f 44/44/1 38/38/1 46/46/1
f 38/38/1 43/43/1 37/37/1
f 38/38/1 44/44/1 43/43/1
f 48/48/1 39/39/1 40/40/1
f 47/47/1 39/39/1 48/48/1
f 47/47/1 46/46/1 39/39/1
f 45/45/1 46/46/1 47/47/1
f 13/49/3 25/50/3 49/51/3
f 34/34/1 35/35/1 42/42/1
f 43/43/1 36/36/1 37/37/1
f 50/54/3 28/53/3 6/52/3
f 41/41/1 48/48/1 40/40/1
f 51/57/3 30/56/3 15/55/3
f 8/58/3 31/59/3 52/60/3
f 45/45/1 47/47/1 44/44/1
f 54/88/4 59/95/4 53/87/4
f 59/95/4 30/30/4 53/87/4
f 59/95/4 69/29/4 30/30/4
f 69/29/4 29/29/4 30/30/4
f 69/114/1 62/113/1 29/114/1
f 29/114/1 62/113/1 63/112/1
f 29/114/1 63/112/1 32/111/1
f 63/112/1 70/111/1 32/111/1
f 68/120/1 67/119/1 65/118/1
f 64/117/1 60/116/1 58/115/1
f 58/115/1 57/122/1 64/117/1
f 64/117/1 57/122/1 65/118/1
f 57/122/1 61/121/1 65/118/1
f 68/120/1 65/118/1 61/121/1
f 31/31/2 32/32/2 70/32/2
f 31/31/2 70/32/2 66/103/2
f 56/92/2 31/31/2 66/103/2
f 56/92/2 66/103/2 55/91/2
f 59/123/1 62/113/1 69/114/1
f 63/112/1 66/124/1 70/111/1
f 84/185/10 86/184/10 109/183/10
f 109/183/10 77/131/10 75/129/10
f 84/185/10 109/183/10 75/129/10
f 79/136/1 90/138/1 89/137/1
f 79/136/1 87/133/1 90/138/1
f 87/133/1 79/136/1 80/135/1
f 88/134/1 87/133/1 80/135/1
f 83/142/1 87/133/1 88/134/1
f 83/142/1 84/141/1 87/133/1
f 84/141/1 91/139/1 87/133/1
f 84/141/1 92/140/1 91/139/1
f 76/145/1 94/144/1 93/143/1
f 91/139/1 76/145/1 93/143/1
f 75/146/1 76/145/1 91/139/1
f 92/140/1 75/146/1 91/139/1
f 89/137/1 90/138/1 72/147/1
f 90/138/1 93/143/1 72/147/1
f 93/143/1 71/148/1 72/147/1
f 94/144/1 71/148/1 93/143/1
f 80/135/1 83/142/1 88/134/1
f 92/140/1 84/141/1 75/146/1
f 72/147/1 79/136/1 89/137/1
f 94/144/1 76/145/1 71/148/1
f 108/170/1 107/169/1 106/168/1
f 105/167/1 104/166/1 103/165/1
f 106/168/1 105/167/1 103/165/1
f 108/170/1 106/168/1 103/165/1
f 11/11/11 109/187/11 86/186/11
f 11/11/11 77/188/11 109/187/11
f 9/9/12 73/192/12 110/191/12
f 9/9/12 110/191/12 78/193/12
f 81/195/14 111/194/14 10/10/14
f 10/10/14 111/194/14 74/196/14
f 112/198/16 12/12/16 85/197/16
f 82/199/16 12/12/16 112/198/16
f 4/4/1 2/2/1 1/1/1
f 1/1/1 3/3/1 4/4/1
f 8/8/2 6/6/2 5/5/2
f 5/5/2 7/7/2 8/8/2
f 12/12/3 10/10/3 9/9/3
f 9/9/3 11/11/3 12/12/3
f 16/16/4 14/14/4 13/13/4
f 13/13/4 15/15/4 16/16/4
f 20/20/5 18/18/5 17/17/5
f 17/17/5 19/19/5 20/20/5
f 24/24/6 22/22/6 21/21/6
f 21/21/6 23/23/6 24/24/6
f 25/25/7 13/13/7 14/14/7
f 14/14/7 26/26/7 25/25/7
f 27/27/8 5/5/8 6/6/8
f 6/6/8 28/28/8 27/27/8
f 29/29/9 16/16/9 15/15/9
f 15/15/9 30/30/9 29/29/9
f 31/31/10 8/8/10 7/7/10
f 7/7/10 32/32/10 31/31/10
f 35/62/7 26/26/7 14/14/7
f 14/14/7 42/61/7 35/62/7
f 39/66/2 3/64/2 1/63/2
f 1/63/2 33/65/2 39/66/2
f 42/61/4 14/14/4 16/16/4
f 16/16/4 41/67/4 42/61/4
f 33/71/5 1/69/5 2/68/5
f 2/68/5 38/70/5 33/71/5
f 36/75/6 27/73/6 26/72/6
f 26/72/6 35/74/6 36/75/6
f 43/77/8 5/5/8 27/27/8
f 27/27/8 36/76/8 43/77/8
f 44/78/2 7/7/2 5/5/2
f 5/5/2 43/77/2 44/78/2
f 47/79/10 32/32/10 7/7/10
f 7/7/10 44/78/10 47/79/10
f 38/83/4 2/81/4 4/80/4
f 4/80/4 46/82/4 38/83/4
f 41/67/9 16/16/9 29/29/9
f 29/29/9 48/84/9 41/67/9
f 48/75/5 29/73/5 32/72/5
f 32/72/5 47/74/5 48/75/5
f 46/71/6 4/69/6 3/68/6
f 3/68/6 39/70/6 46/71/6
f 53/87/9 19/85/9 17/86/9
f 17/86/9 54/88/9 53/87/9
f 55/91/10 18/89/10 20/90/10
f 20/90/10 56/92/10 55/91/10
f 58/94/9 54/88/9 17/86/9
f 17/86/9 57/93/9 58/94/9
f 60/96/4 59/95/4 54/88/4
f 54/88/4 58/94/4 60/96/4
f 57/98/5 17/17/5 18/18/5
f 18/18/5 61/97/5 57/98/5
f 65/102/6 63/100/6 62/99/6
f 62/99/6 64/101/6 65/102/6
f 68/105/2 55/91/2 66/103/2
f 66/103/2 67/104/2 68/105/2
f 61/106/10 18/89/10 55/91/10
f 55/91/10 68/105/10 61/106/10
f 62/107/7 59/95/7 60/96/7
f 60/96/7 64/108/7 62/107/7
f 66/103/8 63/109/8 65/110/8
f 65/110/8 67/104/8 66/103/8
f 74/128/6 72/126/6 71/125/6
f 71/125/6 73/127/6 74/128/6
f 78/132/2 76/130/2 75/129/2
f 75/129/2 77/131/2 78/132/2
f 82/129/4 80/131/4 79/132/4
f 79/132/4 81/130/4 82/129/4
f 86/128/5 84/126/5 83/125/5
f 83/125/5 85/127/5 86/128/5
f 96/150/4 25/25/4 26/26/4
f 26/26/4 95/149/4 96/150/4
f 98/152/2 27/27/2 28/28/2
f 28/28/2 97/151/2 98/152/2
f 95/156/1 26/154/1 27/153/1
f 27/153/1 98/155/1 95/156/1
f 100/158/4 96/150/4 95/149/4
f 95/149/4 99/157/4 100/158/4
f 102/160/2 98/152/2 97/151/2
f 97/151/2 101/159/2 102/160/2
f 101/159/8 22/161/8 24/162/8
f 24/162/8 102/160/8 101/159/8
f 99/157/7 23/163/7 21/164/7
f 21/164/7 100/158/7 99/157/7
f 107/172/8 102/160/8 24/162/8
f 24/162/8 106/171/8 107/172/8
f 108/173/2 98/152/2 102/160/2
f 102/160/2 107/172/2 108/173/2
f 104/175/4 99/157/4 95/149/4
f 95/149/4 103/174/4 104/175/4
f 105/176/7 23/163/7 99/157/7
f 99/157/7 104/175/7 105/176/7
f 106/178/6 24/24/6 23/23/6
f 23/23/6 105/177/6 106/178/6
f 103/182/5 95/180/5 98/179/5
f 98/179/5 108/181/5 103/182/5
f 71/189/8 76/130/8 78/132/8
f 78/132/8 73/190/8 71/189/8
f 78/193/13 77/188/13 11/11/13
f 11/11/13 9/9/13 78/193/13
f 79/132/7 72/190/7 74/189/7
f 74/189/7 81/130/7 79/132/7
f 73/192/15 9/9/15 10/10/15
f 10/10/15 74/196/15 73/192/15
f 80/131/9 82/129/9 85/185/9
f 85/185/9 83/184/9 80/131/9
f 11/11/17 86/186/17 85/197/17
f 85/197/17 12/12/17 11/11/17
f 10/10/18 12/12/18 82/199/18
f 82/199/18 81/195/18 10/10/18

