# ProBuilder 5.0.6
# https://unity3d.com/unity/features/worldbuilding/probuilder
# 11/22/2022 3:20:20 PM

mtllib ./FlagMesh.mtl
o FlagMesh

g FlagMesh
v 0 -0.25 -1.460314E-06
v 0 -0.15 -8.642673E-07
v -0.059375 -0.25 -1.460314E-06
v -0.059375 -0.15 -8.642673E-07
v 0 -0.05 -2.905726E-07
v -0.059375 -0.05 -2.905726E-07
v 0 0.05 2.905726E-07
v -0.059375 0.05 2.905726E-07
v 0 0.15 8.642673E-07
v -0.059375 0.15 8.642673E-07
v 0 0.25 1.460314E-06
v -0.059375 0.25 1.460314E-06
v -0.11875 -0.25 -1.460314E-06
v -0.11875 -0.15 -8.642673E-07
v -0.11875 -0.05 -2.905726E-07
v -0.11875 0.05 2.905726E-07
v -0.11875 0.15 8.642673E-07
v -0.11875 0.25 1.460314E-06
v -0.178125 -0.25 -1.460314E-06
v -0.178125 -0.15 -8.642673E-07
v -0.178125 -0.05 -2.905726E-07
v -0.178125 0.05 2.905726E-07
v -0.178125 0.15 8.642673E-07
v -0.178125 0.25 1.460314E-06
v -0.2375 -0.25 -1.460314E-06
v -0.2375 -0.15 -8.642673E-07
v -0.2375 -0.05 -2.905726E-07
v -0.2375 0.05 2.905726E-07
v -0.2375 0.15 8.642673E-07
v -0.2375 0.25 1.460314E-06
v -0.296875 -0.25 -1.460314E-06
v -0.296875 -0.15 -8.642673E-07
v -0.296875 -0.05 -2.905726E-07
v -0.296875 0.05 2.905726E-07
v -0.296875 0.15 8.642673E-07
v -0.296875 0.25 1.460314E-06
v -0.35625 -0.25 -1.460314E-06
v -0.35625 -0.15 -8.642673E-07
v -0.35625 -0.05 -2.905726E-07
v -0.35625 0.05 2.905726E-07
v -0.35625 0.15 8.642673E-07
v -0.35625 0.25 1.460314E-06
v -0.415625 -0.25 -1.460314E-06
v -0.415625 -0.15 -8.642673E-07
v -0.415625 -0.05 -2.905726E-07
v -0.415625 0.05 2.905726E-07
v -0.415625 0.15 8.642673E-07
v -0.415625 0.25 1.460314E-06
v -0.475 -0.25 -1.460314E-06
v -0.475 -0.15 -8.642673E-07
v -0.475 -0.05 -2.905726E-07
v -0.475 0.05 2.905726E-07
v -0.475 0.15 8.642673E-07
v -0.475 0.25 1.460314E-06
v -0.534375 -0.25 -1.460314E-06
v -0.534375 -0.15 -8.642673E-07
v -0.534375 -0.05 -2.905726E-07
v -0.534375 0.05 2.905726E-07
v -0.534375 0.15 8.642673E-07
v -0.534375 0.25 1.460314E-06
v -0.59375 -0.25 -1.460314E-06
v -0.59375 -0.15 -8.642673E-07
v -0.59375 -0.05 -2.905726E-07
v -0.59375 0.05 2.905726E-07
v -0.59375 0.15 8.642673E-07
v -0.59375 0.25 1.460314E-06
v -0.653125 -0.25 -1.460314E-06
v -0.653125 -0.15 -8.642673E-07
v -0.653125 -0.05 -2.905726E-07
v -0.653125 0.05 2.905726E-07
v -0.653125 0.15 8.642673E-07
v -0.653125 0.25 1.460314E-06
v -0.7125 -0.25 -1.460314E-06
v -0.7125 -0.15 -8.642673E-07
v -0.7125 -0.05 -2.905726E-07
v -0.7125 0.05 2.905726E-07
v -0.7125 0.15 8.642673E-07
v -0.7125 0.25 1.460314E-06
v -0.771875 -0.25 -1.460314E-06
v -0.771875 -0.15 -8.642673E-07
v -0.771875 -0.05 -2.905726E-07
v -0.771875 0.05 2.905726E-07
v -0.771875 0.15 8.642673E-07
v -0.771875 0.25 1.460314E-06
v -0.83125 -0.25 -1.460314E-06
v -0.83125 -0.15 -8.642673E-07
v -0.83125 -0.05 -2.905726E-07
v -0.83125 0.05 2.905726E-07
v -0.83125 0.15 8.642673E-07
v -0.83125 0.25 1.460314E-06
v -0.890625 -0.25 -1.460314E-06
v -0.890625 -0.15 -8.642673E-07
v -0.890625 -0.05 -2.905726E-07
v -0.890625 0.05 2.905726E-07
v -0.890625 0.15 8.642673E-07
v -0.890625 0.25 1.460314E-06
v -0.95 -0.25 -1.460314E-06
v -0.95 -0.15 -8.642673E-07
v -0.95 -0.05 -2.905726E-07
v -0.95 0.05 2.905726E-07
v -0.95 0.15 8.642673E-07
v -0.95 0.25 1.460314E-06

vt 0 0
vt 0 0.2
vt 0.0625 0
vt 0.0625 0.2
vt 0 0.4
vt 0.0625 0.4
vt 0 0.4
vt 0 0.6
vt 0.0625 0.4
vt 0.0625 0.6
vt 0 0.8
vt 0.0625 0.8
vt 0 0.8
vt 0 1
vt 0.0625 0.8
vt 0.0625 1
vt 0.125 0
vt 0.125 0.2
vt 0.125 0.4
vt 0.125 0.4
vt 0.125 0.6
vt 0.125 0.8
vt 0.125 0.8
vt 0.125 1
vt 0.1875 0
vt 0.1875 0.2
vt 0.1875 0.4
vt 0.1875 0.4
vt 0.1875 0.6
vt 0.1875 0.8
vt 0.1875 0.8
vt 0.1875 1
vt 0.25 0
vt 0.25 0.2
vt 0.25 0.4
vt 0.25 0.4
vt 0.25 0.6
vt 0.25 0.8
vt 0.25 0.8
vt 0.25 1
vt 0.3125 0
vt 0.3125 0.2
vt 0.3125 0.4
vt 0.3125 0.4
vt 0.3125 0.6
vt 0.3125 0.8
vt 0.3125 0.8
vt 0.3125 1
vt 0.375 0
vt 0.375 0.2
vt 0.375 0.4
vt 0.375 0.4
vt 0.375 0.6
vt 0.375 0.8
vt 0.375 0.8
vt 0.375 1
vt 0.4375 0
vt 0.4375 0.2
vt 0.4375 0.4
vt 0.4375 0.4
vt 0.4375 0.6
vt 0.4375 0.8
vt 0.4375 0.8
vt 0.4375 1
vt 0.5 0
vt 0.5 0.2
vt 0.5 0.4
vt 0.5 0.4
vt 0.5 0.6
vt 0.5 0.8
vt 0.5 0.8
vt 0.5 1
vt 0.5625 0
vt 0.5625 0.2
vt 0.5625 0.4
vt 0.5625 0.4
vt 0.5625 0.6
vt 0.5625 0.8
vt 0.5625 0.8
vt 0.5625 1
vt 0.625 0
vt 0.625 0.2
vt 0.625 0.4
vt 0.625 0.4
vt 0.625 0.6
vt 0.625 0.8
vt 0.625 0.8
vt 0.625 1
vt 0.6875 0
vt 0.6875 0.2
vt 0.6875 0.4
vt 0.6875 0.4
vt 0.6875 0.6
vt 0.6875 0.8
vt 0.6875 0.8
vt 0.6875 1
vt 0.75 0
vt 0.75 0.2
vt 0.75 0.4
vt 0.75 0.4
vt 0.75 0.6
vt 0.75 0.8
vt 0.75 0.8
vt 0.75 1
vt 0.8125 0
vt 0.8125 0.2
vt 0.8125 0.4
vt 0.8125 0.4
vt 0.8125 0.6
vt 0.8125 0.8
vt 0.8125 0.8
vt 0.8125 1
vt 0.875 0
vt 0.875 0.2
vt 0.875 0.4
vt 0.875 0.4
vt 0.875 0.6
vt 0.875 0.8
vt 0.875 0.8
vt 0.875 1
vt 0.9375 0
vt 0.9375 0.2
vt 0.9375 0.4
vt 0.9375 0.4
vt 0.9375 0.6
vt 0.9375 0.8
vt 0.9375 0.8
vt 0.9375 1
vt 1 0
vt 1 0.2
vt 1 0.4
vt 1 0.4
vt 1 0.6
vt 1 0.8
vt 1 0.8
vt 1 1

vn 0 5.960465E-06 -1

usemtl Flag0
f 3/3/1 4/4/1 2/2/1 1/1/1
f 4/4/1 6/6/1 5/5/1 2/2/1
f 6/9/1 8/10/1 7/8/1 5/7/1
f 8/10/1 10/12/1 9/11/1 7/8/1
f 10/15/1 12/16/1 11/14/1 9/13/1
f 13/17/1 14/18/1 4/4/1 3/3/1
f 14/18/1 15/19/1 6/6/1 4/4/1
f 15/20/1 16/21/1 8/10/1 6/9/1
f 16/21/1 17/22/1 10/12/1 8/10/1
f 17/23/1 18/24/1 12/16/1 10/15/1
f 19/25/1 20/26/1 14/18/1 13/17/1
f 20/26/1 21/27/1 15/19/1 14/18/1
f 21/28/1 22/29/1 16/21/1 15/20/1
f 22/29/1 23/30/1 17/22/1 16/21/1
f 23/31/1 24/32/1 18/24/1 17/23/1
f 25/33/1 26/34/1 20/26/1 19/25/1
f 26/34/1 27/35/1 21/27/1 20/26/1
f 27/36/1 28/37/1 22/29/1 21/28/1
f 28/37/1 29/38/1 23/30/1 22/29/1
f 29/39/1 30/40/1 24/32/1 23/31/1
f 31/41/1 32/42/1 26/34/1 25/33/1
f 32/42/1 33/43/1 27/35/1 26/34/1
f 33/44/1 34/45/1 28/37/1 27/36/1
f 34/45/1 35/46/1 29/38/1 28/37/1
f 35/47/1 36/48/1 30/40/1 29/39/1
f 37/49/1 38/50/1 32/42/1 31/41/1
f 38/50/1 39/51/1 33/43/1 32/42/1
f 39/52/1 40/53/1 34/45/1 33/44/1
f 40/53/1 41/54/1 35/46/1 34/45/1
f 41/55/1 42/56/1 36/48/1 35/47/1
f 43/57/1 44/58/1 38/50/1 37/49/1
f 44/58/1 45/59/1 39/51/1 38/50/1
f 45/60/1 46/61/1 40/53/1 39/52/1
f 46/61/1 47/62/1 41/54/1 40/53/1
f 47/63/1 48/64/1 42/56/1 41/55/1
f 49/65/1 50/66/1 44/58/1 43/57/1
f 50/66/1 51/67/1 45/59/1 44/58/1
f 51/68/1 52/69/1 46/61/1 45/60/1
f 52/69/1 53/70/1 47/62/1 46/61/1
f 53/71/1 54/72/1 48/64/1 47/63/1
f 55/73/1 56/74/1 50/66/1 49/65/1
f 56/74/1 57/75/1 51/67/1 50/66/1
f 57/76/1 58/77/1 52/69/1 51/68/1
f 58/77/1 59/78/1 53/70/1 52/69/1
f 59/79/1 60/80/1 54/72/1 53/71/1
f 61/81/1 62/82/1 56/74/1 55/73/1
f 62/82/1 63/83/1 57/75/1 56/74/1
f 63/84/1 64/85/1 58/77/1 57/76/1
f 64/85/1 65/86/1 59/78/1 58/77/1
f 65/87/1 66/88/1 60/80/1 59/79/1
f 67/89/1 68/90/1 62/82/1 61/81/1
f 68/90/1 69/91/1 63/83/1 62/82/1
f 69/92/1 70/93/1 64/85/1 63/84/1
f 70/93/1 71/94/1 65/86/1 64/85/1
f 71/95/1 72/96/1 66/88/1 65/87/1
f 73/97/1 74/98/1 68/90/1 67/89/1
f 74/98/1 75/99/1 69/91/1 68/90/1
f 75/100/1 76/101/1 70/93/1 69/92/1
f 76/101/1 77/102/1 71/94/1 70/93/1
f 77/103/1 78/104/1 72/96/1 71/95/1
f 79/105/1 80/106/1 74/98/1 73/97/1
f 80/106/1 81/107/1 75/99/1 74/98/1
f 81/108/1 82/109/1 76/101/1 75/100/1
f 82/109/1 83/110/1 77/102/1 76/101/1
f 83/111/1 84/112/1 78/104/1 77/103/1
f 85/113/1 86/114/1 80/106/1 79/105/1
f 86/114/1 87/115/1 81/107/1 80/106/1
f 87/116/1 88/117/1 82/109/1 81/108/1
f 88/117/1 89/118/1 83/110/1 82/109/1
f 89/119/1 90/120/1 84/112/1 83/111/1
f 91/121/1 92/122/1 86/114/1 85/113/1
f 92/122/1 93/123/1 87/115/1 86/114/1
f 93/124/1 94/125/1 88/117/1 87/116/1
f 94/125/1 95/126/1 89/118/1 88/117/1
f 95/127/1 96/128/1 90/120/1 89/119/1
f 97/129/1 98/130/1 92/122/1 91/121/1
f 98/130/1 99/131/1 93/123/1 92/122/1
f 99/132/1 100/133/1 94/125/1 93/124/1
f 100/133/1 101/134/1 95/126/1 94/125/1
f 101/135/1 102/136/1 96/128/1 95/127/1

