# ProBuilder 5.0.4
# https://unity3d.com/unity/features/worldbuilding/probuilder
# 5/21/2022 2:21:39 AM

mtllib ./Console-Type-0.mtl
o Console-Type-0

g Console-Type-0
v 0.275 0 0.275
v -0.275 0 0.275
v 0.275 1 0.275
v -0.275 1.1 0.275
v -0.275 0 -0.275
v -0.275 1.1 -0.275
v 0.275 0 -0.275
v 0.275 1 -0.275
v 0.25 1 0.25
v -0.25 1.1 0.25
v 0.25 1 -0.25
v -0.25 1.1 -0.25
v 0.25 0 -0.25
v -0.25 0 -0.25
v 0.25 0 0.25
v -0.25 0 0.25
v -0.2475481 1.125 0.2524519
v 0.2524519 1.025 0.2524519
v -0.2725481 1.125 0.2774519
v 0.2774519 1.025 0.2774519
v -0.2475481 1.125 -0.2475481
v -0.2725481 1.125 -0.2725481
v 0.2524519 1.025 -0.2475481
v 0.2774519 1.025 -0.2725481
v 0.275 0 0.09166665
v 0.275 0 -0.09166668
v 0.2774519 1.025 -0.08921478
v 0.2774519 1.025 0.09411855
v 0.275 1 0.09166665
v 0.275 1 -0.09166668
v 0.4250994 0.8999951 0.0916667
v 0.3775511 0.9749902 0.0941186
v 0.4250994 0.8999951 -0.0916667
v 0.4250994 0 -0.0916667
v 0.4250994 0 0.0916667
v 0.3775511 0.9749902 -0.0892148
v 0.3775511 0.9749902 -0.06810373
v 0.3775511 0.9749902 0.07300746
v 0.4250994 0.8999951 0.07055557
v 0.4250994 0.8999951 -0.07055557
v 0.4132123 0.9187438 -0.06994261
v 0.3894382 0.9562414 -0.06871669
v 0.3894382 0.9562414 0.07239449
v 0.4132123 0.9187438 0.07116854
v 0.4032965 0.9187974 -0.06994259
v 0.4032965 0.9187974 0.07116854
v 0.3795223 0.956295 0.07239449
v 0.3795223 0.956295 -0.0687167
v 0.3895226 0.956295 -0.0687167
v 0.3895226 0.956295 0.07239449
v 0.25 1.02 0.25
v -0.25 1.12 0.25
v 0.25 1.02 -0.25
v -0.25 1.12 -0.25

vt 0.275 0
vt -0.275 0
vt 0.275 1
vt -0.275 1.1
vt 0.275 1.1
vt -0.275 1
vt 0 1
vt 1 1
vt 0 0
vt 1 0
vt 0.25 -0.25
vt -0.25 -0.25
vt 0.25 0.25
vt -0.25 0.25
vt 0.275 0.275
vt -0.275 0.275
vt 0.4633716 0.04477373
vt -0.04653038 0.04477373
vt 0.4878861 0.07024997
vt -0.0710449 0.06836284
vt -0.275 -0.275
vt 0.2475481 -0.2475481
vt 0.2475481 0.2524519
vt 0.2725481 -0.2725481
vt 0.2725481 0.2774519
vt 0.275 -0.275
vt -0.04653038 -0.4458794
vt 0.4633716 -0.4458794
vt -0.0710449 -0.4713556
vt 0.4878861 -0.4694685
vt 0.25 1.019627
vt -0.25 1.019627
vt 0.2524519 1.044747
vt -0.2475481 1.044747
vt 0.279775 1.021297
vt -0.2701407 1.12176
vt 0.2822694 1.046413
vt -0.2676462 1.146876
vt 0.2451451 0.9710188
vt -0.2547624 1.07148
vt 0.2476438 0.9961341
vt -0.2522637 1.096596
vt 0.279775 1.069024
vt -0.2701407 0.968561
vt 0.2772805 1.09414
vt -0.2726351 0.9936768
vt 0.25 1.070345
vt -0.25 1.070345
vt 0.2475481 1.095465
vt -0.2524519 1.095465
vt 0.275 1.067905
vt -0.275 1.067905
vt 0.2774519 1.093025
vt -0.2725481 1.093025
vt 0.2451452 1.119336
vt -0.2547623 1.018875
vt 0.2426466 1.144452
vt -0.2572609 1.04399
vt 0.275 0.09166665
vt 0.275 -0.09166668
vt -0.2524519 0.2524519
vt -0.2524519 -0.2475481
vt -0.2774519 -0.2725481
vt -0.2774519 -0.08921478
vt -0.2774519 0.09411855
vt -0.2774519 0.2774519
vt -0.09166668 0
vt -0.09166668 1
vt -0.09166668 1.022067
vt -0.275 1.022067
vt -0.2774519 1.047187
vt -0.09411857 1.047187
vt 0.09166665 1
vt 0.275 1
vt 0.275 0
vt 0.09166665 0
vt 0.2725481 1.047187
vt 0.275 1.022067
vt 0.09166665 1.022067
vt 0.08921476 1.047187
vt 0.2800961 1.002636
vt 0.2826935 1.027742
vt 0.4299139 0.9022101
vt 0.3826049 0.9773809
vt -0.4250994 0.8999951
vt -0.4250994 0
vt 0.4250994 -0.0916667
vt 0.4250994 0.0916667
vt 0.4250994 0
vt 0.4250994 0.8999951
vt -0.272987 1.011068
vt -0.2704234 0.9859594
vt -0.3729772 0.9608408
vt -0.4203593 0.8857365
vt 0.2099022 0.09411851
vt 0.2099022 -0.08921482
vt 0.09800567 -0.08921484
vt 0.09800567 -0.06810377
vt 0.09800567 0.07300743
vt 0.09800567 0.09411856
vt -0.0916667 0.8999951
vt -0.07055557 0.8999951
vt 0.07055557 0.8999951
vt 0.0916667 0.8999951
vt 0.08921479 0.6212697
vt 0.09166668 0.5324716
vt 0.07055555 0.5324716
vt 0.0699426 0.5546711
vt 0.06871668 0.5990702
vt 0.06810372 0.6212697
vt -0.07239449 0.5990702
vt -0.07116854 0.5546711
vt -0.07055557 0.5324716
vt -0.0916667 0.5324716
vt -0.0941186 0.6212697
vt -0.07300746 0.6212697
vt 0.06994259 0.5600268
vt -0.07116854 0.5600268
vt -0.07239449 0.6044259
vt 0.0687167 0.6044259
vt 0.3894259 0.9534718
vt 0.4131998 0.9159541
vt 0.37951 0.9535254
vt 0.403284 0.9160076
vt -0.4082471 -0.06994261
vt -0.4082471 0.07116854
vt -0.3983311 -0.06994259
vt -0.3983311 0.07116854
vt -0.4132249 0.920581
vt -0.389451 0.9580987
vt -0.4033091 0.9206345
vt -0.3795351 0.9581524
vt 0.3842651 0.07239449
vt 0.3842651 -0.06871669
vt 0.3743491 0.07239449
vt 0.3743491 -0.0687167
vt -0.04510667 0.25
vt 0.4647953 0.25
vt -0.04510667 -0.25
vt 0.4647953 -0.25

vn 0 0 1
vn -1 0 0
vn 0 0 -1
vn 0.1961162 0.9805807 0
vn 0 -1 0
vn 0.1924501 0.9622504 0.1924503
vn 0.1842702 0.9653732 0.008180015
vn 0.1760902 0.968496 -0.1760902
vn 0 1 0
vn -0.995225 0.09760764 0
vn -0.01743617 -0.0958989 0.9952384
vn -0.01914606 -0.0957303 0.9952232
vn 0.01743617 0.0958989 -0.9952384
vn 0.9952249 -0.09760823 0
vn 0.01914595 0.09572971 -0.9952232
vn 1 0 -1.625581E-07
vn -0.06096435 -0.09150219 0.993937
vn -0.04241876 -0.06964282 0.9962547
vn -0.02387316 -0.04778345 0.9985724
vn 0.04645698 0.09298835 -0.9945828
vn 0.04204176 0.07473151 -0.9961388
vn 0.03762655 0.05647466 -0.9976948
vn 0.4469289 0.8945695 2.421731E-08
vn 0.8445573 0.5354652 -1.889778E-07
vn -0.0001786918 -0.03278899 0.9994623
vn 0.005397853 0.9999855 0
vn 0.0001769912 0.03278871 -0.9994623
vn -0.005403865 -0.9999855 0

usemtl Metal027
f 27/64/9 24/63/9 23/62/9
f 28/65/9 27/64/9 23/62/9
f 28/65/9 23/62/9 18/61/9
f 20/66/9 28/65/9 18/61/9
f 15/13/5 25/59/5 1/15/5
f 15/13/5 13/11/5 25/59/5
f 13/11/5 26/60/5 25/59/5
f 13/11/5 7/26/5 26/60/5
f 34/76/16 33/104/16 40/103/16
f 40/103/16 39/102/16 34/76/16
f 34/76/16 39/102/16 35/67/16
f 31/101/16 35/67/16 39/102/16
f 37/98/23 36/97/23 27/96/23
f 28/95/23 37/98/23 27/96/23
f 28/95/23 38/99/23 37/98/23
f 32/100/23 38/99/23 28/95/23
f 31/114/24 39/113/24 44/112/24
f 31/114/24 44/112/24 43/111/24
f 43/111/24 32/115/24 31/114/24
f 43/111/24 38/116/24 32/115/24
f 36/105/24 42/109/24 33/106/24
f 37/110/24 42/109/24 36/105/24
f 41/108/24 33/106/24 42/109/24
f 40/107/24 33/106/24 41/108/24
f 4/4/1 2/2/1 1/1/1
f 1/1/1 3/3/1 4/4/1
f 6/4/2 5/2/2 2/1/2
f 2/1/2 4/5/2 6/4/2
f 8/6/3 7/2/3 5/1/3
f 5/1/3 6/5/3 8/6/3
f 16/14/5 14/12/5 13/11/5
f 13/11/5 15/13/5 16/14/5
f 2/16/5 16/14/5 15/13/5
f 15/13/5 1/15/5 2/16/5
f 20/20/8 18/18/7 17/17/6
f 17/17/6 19/19/7 20/20/8
f 5/21/5 14/12/5 16/14/5
f 16/14/5 2/16/5 5/21/5
f 19/25/9 17/23/9 21/22/9
f 21/22/9 22/24/9 19/25/9
f 7/26/5 13/11/5 14/12/5
f 14/12/5 5/21/5 7/26/5
f 22/30/8 21/28/7 23/27/6
f 23/27/6 24/29/7 22/30/8
f 23/34/10 11/32/10 9/31/10
f 9/31/10 18/33/10 23/34/10
f 19/38/11 4/36/11 3/35/11
f 3/35/11 20/37/11 19/38/11
f 21/42/12 12/40/12 11/39/12
f 11/39/12 23/41/12 21/42/12
f 24/46/13 8/44/13 6/43/13
f 6/43/13 22/45/13 24/46/13
f 17/50/14 10/48/14 12/47/14
f 12/47/14 21/49/14 17/50/14
f 22/54/10 6/52/10 4/51/10
f 4/51/10 19/53/10 22/54/10
f 18/58/15 9/56/15 10/55/15
f 10/55/15 17/57/15 18/58/15
f 25/67/16 29/68/16 3/6/16
f 3/6/16 1/2/16 25/67/16
f 3/70/14 29/69/14 28/72/14
f 28/72/14 20/71/14 3/70/14
f 7/75/16 8/74/16 30/73/16
f 30/73/16 26/76/16 7/75/16
f 30/79/14 8/78/14 24/77/14
f 24/77/14 27/80/14 30/79/14
f 32/84/19 28/82/18 29/81/17
f 29/81/17 31/83/18 32/84/19
f 34/86/3 26/2/3 30/6/3
f 30/6/3 33/85/3 34/86/3
f 35/88/5 25/59/5 26/60/5
f 26/60/5 34/87/5 35/88/5
f 31/90/1 29/3/1 25/1/1
f 25/1/1 35/89/1 31/90/1
f 33/94/22 30/92/21 27/91/20
f 27/91/20 36/93/21 33/94/22
f 43/111/24 42/109/24 37/110/24
f 37/110/24 38/116/24 43/111/24
f 39/113/24 40/107/24 41/108/24
f 41/108/24 44/112/24 39/113/24
f 45/124/25 41/122/25 42/121/25
f 42/121/25 48/123/25 45/124/25
f 46/128/26 44/126/26 41/125/26
f 41/125/26 45/127/26 46/128/26
f 47/132/27 43/130/27 44/129/27
f 44/129/27 46/131/27 47/132/27
f 48/136/28 42/134/28 43/133/28
f 43/133/28 47/135/28 48/136/28

usemtl Glass-04
f 50/111/24 44/112/24 41/108/24 49/109/24
f 53/139/4 54/140/4 52/138/4 51/137/4

usemtl Watch-Default
f 11/9/4 12/10/4 10/8/4 9/7/4

usemtl Screen0
f 47/119/24 46/118/24 45/117/24 48/120/24

