# ProBuilder 5.0.4
# https://unity3d.com/unity/features/worldbuilding/probuilder
# 5/21/2022 1:19:17 AM

mtllib ./Desk-Type-1-Accessory-0.mtl
o Desk-Type-1-Accessory-0

g Desk-Type-1-Accessory-0
v 0.25 -0.005 0.285
v -0.25 -0.005 0.285
v 0.25 0.005 0.285
v -0.25 0.005 0.285
v -0.25 -0.005 -0.285
v -0.25 0.005 -0.285
v 0.25 -0.005 -0.285
v 0.25 0.005 -0.285
v 0.24 0.005 0.275
v -0.24 0.005 0.275
v 0.24 0.005 -0.275
v -0.24 0.005 -0.275
v 0.24 -0.005 -0.275
v -0.24 -0.005 -0.275
v 0.24 -0.005 0.275
v -0.24 -0.005 0.275
v -0.24 0.205 0.275
v 0.24 0.205 0.275
v -0.25 0.205 0.285
v 0.25 0.205 0.285
v -0.24 0.205 -0.275
v -0.25 0.205 -0.285
v 0.24 0.205 -0.275
v 0.25 0.205 -0.285
v -0.26 -0.015 -0.285
v 0.25 -0.015 -0.285
v -0.26 -0.015 -0.295
v 0.25 -0.015 -0.295
v -0.26 0.005 -0.285
v -0.26 0.005 -0.295
v 0.25 -0.005 -0.295
v 0.25 0.005 -0.295
v 0.26 0.215 -0.285
v -0.26 0.215 -0.285
v 0.26 0.215 -0.295
v -0.26 0.215 -0.295
v 0.26 0.005 -0.295
v 0.26 0.005 -0.285
v 0.25 0.205 -0.295
v -0.25 0.005 -0.295
v -0.25 0.205 -0.295
v -0.25 -0.005 -0.295
v -0.0333333 0.205 -0.2950001
v 0.03333342 0.205 -0.2950001
v 0.03333342 0.004999995 -0.2950001
v -0.0333333 0.004999995 -0.2950001
v 0.03333342 0.1883333 -0.2950001
v 0.03333342 0.1516667 -0.2950001
v -0.0333333 0.1516667 -0.2950001
v -0.0333333 0.1883333 -0.2950001
v 0.03333342 0.1516667 -0.2850001
v 0.03333342 0.1883333 -0.2850001
v -0.0333333 0.1883333 -0.2850001
v -0.0333333 0.1516667 -0.2850001

vt 0.25 -0.005
vt -0.25 -0.005
vt 0.25 0.005
vt -0.25 0.005
vt 0.285 -0.005
vt -0.285 -0.005
vt 0.285 0.005
vt -0.285 0.005
vt -0.24 0.275
vt 0.24 0.275
vt -0.24 -0.275
vt 0.24 -0.275
vt -0.25 0.285
vt -0.25 -0.285
vt 0.25 0.285
vt 0.25 -0.285
vt -0.26 -0.285
vt -0.26 -0.295
vt 0.25 -0.295
vt -0.285 -0.015
vt -0.295 0.005
vt -0.295 -0.015
vt 0.295 -0.005
vt 0.295 0.005
vt 0.26 -0.285
vt 0.26 -0.295
vt 0.275 0.005
vt -0.275 0.005
vt 0.275 0.205
vt -0.275 0.205
vt 0.295 0.215
vt 0.285 0.215
vt -0.285 0.215
vt -0.295 0.215
vt 0.24 0.005
vt -0.24 0.005
vt 0.24 0.205
vt -0.24 0.205
vt 0.285 0.205
vt -0.285 0.205
vt 0.25 0.205
vt -0.25 0.205
vt -0.26 0.215
vt -0.26 0.005
vt 0.26 0.005
vt 0.26 0.215
vt -0.26 -0.015
vt 0.285 -0.015
vt 0.295 -0.015
vt 0.26 -0.015
vt 0.25 -0.015
vt -0.25 -0.015
vt 0.0333333 0.2049987
vt -0.03333342 0.2049987
vt -0.26 0.2149987
vt 0.26 0.2149987
vt -0.25 0.005001319
vt -0.03333342 0.005001314
vt 0.0333333 0.005001314
vt 0.25 0.005001319
vt -0.0333333 0.1883333
vt -0.0333333 0.1516667
vt -0.0333333 0.004999995
vt -0.2499999 0.005
vt -0.2499999 0.205
vt 0.2499999 0.205
vt 0.2499999 0.005
vt 0.03333318 0.004999995
vt 0.03333318 0.1516667
vt 0.03333318 0.1883333
vt -0.2950001 0.1516667
vt -0.2950001 0.1883333
vt -0.2850001 0.1516667
vt -0.2850001 0.1883333
vt 0.03333342 -0.2950001
vt -0.0333333 -0.2950001
vt 0.03333342 -0.2850001
vt -0.0333333 -0.2850001
vt 0.2950001 0.1883333
vt 0.2950001 0.1516667
vt 0.2850001 0.1883333
vt 0.2850001 0.1516667

vn 0 0 1
vn -1 0 0
vn 1 0 0
vn 0 1 0
vn 0 -1 0
vn 0 0 -1

usemtl Metal027
f 42/1/6 40/60/6 46/59/6
f 42/1/6 46/59/6 31/2/6
f 31/2/6 46/59/6 45/58/6
f 32/57/6 31/2/6 45/58/6
f 43/53/6 36/56/6 35/55/6
f 43/53/6 41/41/6 36/56/6
f 35/55/6 44/54/6 43/53/6
f 35/55/6 39/42/6 44/54/6
f 47/61/6 44/54/6 39/65/6
f 32/64/6 47/61/6 39/65/6
f 32/64/6 48/62/6 47/61/6
f 32/64/6 45/63/6 48/62/6
f 50/70/6 41/66/6 43/53/6
f 50/70/6 40/67/6 41/66/6
f 50/70/6 49/69/6 40/67/6
f 49/69/6 46/68/6 40/67/6
f 4/4/1 2/2/1 1/1/1
f 1/1/1 3/3/1 4/4/1
f 6/8/2 5/6/2 2/5/2
f 2/5/2 4/7/2 6/8/2
f 3/8/3 1/6/3 7/5/3
f 7/5/3 8/7/3 3/8/3
f 12/12/4 10/10/4 9/9/4
f 9/9/4 11/11/4 12/12/4
f 16/9/5 14/11/5 13/12/5
f 13/12/5 15/10/5 16/9/5
f 5/14/5 14/11/5 16/9/5
f 16/9/5 2/13/5 5/14/5
f 20/13/4 18/9/4 17/10/4
f 17/10/4 19/15/4 20/13/4
f 19/15/4 17/10/4 21/12/4
f 21/12/4 22/16/4 19/15/4
f 7/16/5 13/12/5 14/11/5
f 14/11/5 5/14/5 7/16/5
f 22/16/4 21/12/4 23/11/4
f 23/11/4 24/14/4 22/16/4
f 1/15/5 15/10/5 13/12/5
f 13/12/5 7/16/5 1/15/5
f 24/14/4 23/11/4 18/9/4
f 18/9/4 20/13/4 24/14/4
f 2/13/5 16/9/5 15/10/5
f 15/10/5 1/15/5 2/13/5
f 28/19/5 26/16/5 25/17/5
f 25/17/5 27/18/5 28/19/5
f 27/22/2 25/20/2 29/8/2
f 29/8/2 30/21/2 27/22/2
f 32/24/3 8/7/3 7/5/3
f 7/5/3 31/23/3 32/24/3
f 36/26/4 34/25/4 33/17/4
f 33/17/4 35/18/4 36/26/4
f 23/30/2 11/28/2 9/27/2
f 9/27/2 18/29/2 23/30/2
f 33/32/3 38/7/3 37/24/3
f 37/24/3 35/31/3 33/32/3
f 36/34/2 30/21/2 29/8/2
f 29/8/2 34/33/2 36/34/2
f 21/38/1 12/36/1 11/35/1
f 11/35/1 23/37/1 21/38/1
f 20/40/3 3/8/3 8/7/3
f 8/7/3 24/39/3 20/40/3
f 19/42/1 4/4/1 3/3/1
f 3/3/1 20/41/1 19/42/1
f 18/38/6 9/36/6 10/35/6
f 10/35/6 17/37/6 18/38/6
f 22/40/2 6/8/2 4/7/2
f 4/7/2 19/39/2 22/40/2
f 17/30/3 10/28/3 12/27/3
f 12/27/3 21/29/3 17/30/3
f 38/25/5 8/16/5 32/19/5
f 32/19/5 37/26/5 38/25/5
f 37/44/6 32/4/6 39/42/6
f 39/42/6 35/43/6 37/44/6
f 33/46/1 24/41/1 8/3/1
f 8/3/1 38/45/1 33/46/1
f 25/47/1 5/2/1 6/4/1
f 6/4/1 29/44/1 25/47/1
f 34/43/1 22/42/1 24/41/1
f 24/41/1 33/46/1 34/43/1
f 28/49/3 31/23/3 7/5/3
f 7/5/3 26/48/3 28/49/3
f 29/44/1 6/4/1 22/42/1
f 22/42/1 34/43/1 29/44/1
f 36/46/6 41/41/6 40/3/6
f 40/3/6 30/45/6 36/46/6
f 30/45/6 40/3/6 42/1/6
f 42/1/6 27/50/6 30/45/6
f 26/51/1 7/1/1 5/2/1
f 5/2/1 25/47/1 26/51/1
f 27/50/6 42/1/6 31/2/6
f 31/2/6 28/52/6 27/50/6
f 43/53/6 44/54/6 47/61/6
f 47/61/6 50/70/6 43/53/6
f 49/69/6 48/62/6 45/63/6
f 45/63/6 46/68/6 49/69/6
f 53/70/6 52/61/6 51/62/6
f 51/62/6 54/69/6 53/70/6
f 52/74/2 47/72/2 48/71/2
f 48/71/2 51/73/2 52/74/2
f 53/78/5 50/76/5 47/75/5
f 47/75/5 52/77/5 53/78/5
f 54/82/3 49/80/3 50/79/3
f 50/79/3 53/81/3 54/82/3
f 51/78/4 48/76/4 49/75/4
f 49/75/4 54/77/4 51/78/4

