# ProBuilder 5.0.4
# https://unity3d.com/unity/features/worldbuilding/probuilder
# 5/21/2022 1:19:17 AM

mtllib ./Desk-Type-1.mtl
o Desk-Type-1

g Desk-Type-1
v 0.9377 -0.40005 0.375
v 0.8377001 -0.40005 0.375
v 0.9377 0.34995 0.375
v 0.8377001 0.34995 0.375
v -0.9377 -0.40005 0.375
v -0.9377 -0.40005 0.2749996
v -0.9377 0.34995 0.375
v -0.9377 0.34995 0.2749996
v 0.8377001 -0.40005 -0.3750004
v 0.9377 -0.40005 -0.3750004
v 0.8377001 0.34995 -0.3750004
v 0.9377 0.34995 -0.3750004
v 0.9377 -0.40005 0.2749996
v 0.9377 0.34995 0.2749996
v 0.9377 0.40005 0.375
v 0.8377 0.40005 0.375
v 0.9377 0.40005 0.2749996
v 0.8377 0.40005 0.2749996
v 0.8377001 -0.40005 0.2749996
v -0.3624001 -0.40005 0.375
v -0.3624001 -0.40005 0.2749996
v -0.3624001 0.34995 0.375
v 0.8377001 0.34995 0.2749996
v -0.3624001 0.34995 0.2749996
v -0.3624001 0.40005 0.2749996
v -0.3624001 0.40005 0.375
v -0.3875 -0.40005 0.375
v -0.3875 -0.40005 0.2749996
v -0.3875 0.34995 0.375
v -0.3624001 -0.40005 -0.3250004
v -0.3624001 0.34995 -0.3250004
v -0.3875 -0.40005 -0.3250004
v -0.3875 0.34995 -0.3250004
v -0.3875 0.40005 0.2749996
v -0.3875 0.40005 0.375
v -0.8876001 -0.40005 0.375
v -0.8876001 -0.40005 0.2749996
v -0.8876001 0.34995 0.375
v -0.3875 0.34995 0.2749996
v -0.8876001 0.34995 0.2749996
v -0.8876001 0.40005 0.2749996
v -0.8876001 0.40005 0.375
v -0.8876001 -0.40005 -0.3750004
v -0.8876001 0.34995 -0.3750004
v -0.9377 -0.40005 -0.3750004
v -0.9377 0.34995 -0.3750004
v -0.9377 0.40005 0.2749996
v -0.9377 0.40005 0.375
v 0.9377 0.34995 0.425
v 0.8377001 0.34995 0.425
v 0.9377 0.40005 0.425
v 0.8377 0.40005 0.425
v 0.9877 0.34995 0.2749996
v 0.9877 0.34995 0.375
v 0.9877 0.40005 0.2749996
v 0.9877 0.40005 0.375
v -0.3624001 0.34995 -0.4250004
v 0.8377001 0.34995 -0.4250004
v -0.3624001 0.40005 -0.4250004
v 0.8377 0.40005 -0.4250004
v 0.9377 0.34995 -0.4250004
v 0.9377 0.40005 -0.4250004
v -0.3624001 0.34995 0.425
v -0.3624001 0.40005 0.425
v -0.3875 0.34995 -0.4250004
v -0.3875 0.40005 -0.4250004
v -0.3875 0.34995 0.425
v -0.3875 0.40005 0.425
v -0.8876001 0.34995 -0.4250004
v -0.8876001 0.40005 -0.4250004
v -0.8876001 0.34995 0.425
v -0.8876001 0.40005 0.425
v -0.9377 0.34995 -0.4250004
v -0.9377 0.40005 -0.4250004
v -0.9377 0.34995 0.425
v -0.9377 0.40005 0.425
v -0.9877 0.34995 0.375
v -0.9877 0.34995 0.2749996
v -0.9877 0.40005 0.375
v -0.9877 0.40005 0.2749996
v -0.3875 0.40005 -0.3250004
v -0.8876001 0.40005 -0.3250004
v 0.9877 0.34995 -0.3250004
v 0.9877 0.40005 -0.3250004
v -0.3624001 0.40005 -0.3250004
v 0.8377001 0.34995 -0.3250004
v 0.8377 0.40005 -0.3250004
v -0.8876001 0.34995 -0.3250004
v 0.9377 0.40005 -0.3250004
v 0.8377001 -0.40005 -0.3250004
v 0.9377 -0.40005 -0.3250004
v 0.9377 0.34995 -0.3250004
v -0.9377 0.40005 -0.3250004
v -0.9377 0.34995 -0.3250004
v -0.9377 -0.40005 -0.3250004
v -0.9877 0.40005 -0.3250004
v -0.9877 0.34995 -0.3250004
v -0.8876001 -0.40005 -0.3250004
v -0.3875 0.34995 -0.3750004
v -0.8876001 0.40005 -0.3750004
v -0.9377 0.40005 -0.3750004
v 0.9877 0.34995 -0.3750004
v 0.9877 0.40005 -0.3750004
v -0.3875 0.40005 -0.3750004
v -0.3624001 0.34995 -0.3750004
v -0.3624001 0.40005 -0.3750004
v 0.8377 0.40005 -0.3750004
v 0.9377 0.40005 -0.3750004
v -0.9877 0.40005 -0.3750004
v -0.9877 0.34995 -0.3750004
v 0.9877 0.34995 -0.4250004
v 0.9877 0.40005 -0.4250004
v -0.9877 0.40005 -0.4250004
v -0.9877 0.34995 -0.4250004
v 0.9877 0.34995 0.425
v 0.9877 0.40005 0.425
v -0.9877 0.40005 0.425
v -0.9877 0.34995 0.425

vt 0.9377 -0.40005
vt 0.8377001 -0.40005
vt 0.9377 0.34995
vt 0.8377001 0.34995
vt 0.375 -0.40005
vt 0.2749996 -0.40005
vt 0.375 0.34995
vt 0.2749996 0.34995
vt -0.8377001 -0.40005
vt -0.9377 -0.40005
vt -0.8377001 0.34995
vt -0.9377 0.34995
vt -0.2749996 -0.40005
vt -0.375 -0.40005
vt -0.2749996 0.34995
vt -0.375 0.34995
vt -0.9377 0.375
vt -0.8377 0.375
vt -0.9377 0.2749996
vt -0.8377 0.2749996
vt 0.9377 0.2749996
vt 0.8377001 0.2749996
vt 0.9377 0.375
vt 0.8377001 0.375
vt -0.3624001 0.375
vt -0.3624001 0.2749996
vt -0.3624001 0.34995
vt -0.3624001 -0.40005
vt 0.3624001 -0.40005
vt 0.3624001 0.34995
vt 0.3624001 0.2749996
vt 0.3624001 0.375
vt -0.3875 0.375
vt -0.3875 0.2749996
vt -0.3875 0.34995
vt -0.3875 -0.40005
vt 0.3875 -0.40005
vt 0.3875 0.34995
vt 0.3875 0.2749996
vt 0.3875 0.375
vt -0.8876001 0.375
vt -0.8876001 0.2749996
vt -0.8876001 0.34995
vt -0.8876001 -0.40005
vt 0.8876001 -0.40005
vt 0.8876001 0.34995
vt 0.8876001 0.2749996
vt 0.8876001 0.375
vt 0.9377 0.40005
vt 0.8377 0.40005
vt -0.2749996 0.40005
vt -0.375 0.40005
vt 0.3624001 0.40005
vt -0.8377 0.40005
vt -0.9377 0.40005
vt -0.3624001 0.40005
vt 0.3875 0.40005
vt -0.3875 0.40005
vt 0.8876001 0.40005
vt -0.8876001 0.40005
vt 0.375 0.40005
vt 0.2749996 0.40005
vt 0.3250004 -0.40005
vt 0.3250004 0.34995
vt -0.3875 -0.3250004
vt -0.3624001 -0.3250004
vt 0.3875 -0.3250004
vt 0.8876001 -0.3250004
vt -0.3250004 0.34995
vt -0.3250004 -0.40005
vt 0.3250004 0.40005
vt 0.3624001 -0.3250004
vt 0.8377001 -0.3250004
vt -0.8377 -0.3250004
vt -0.8876001 -0.3250004
vt -0.9377 -0.3250004
vt 0.9377 -0.3250004
vt -0.3250004 0.40005
vt -0.8876001 -0.3750004
vt -0.3875 -0.3750004
vt 0.8876001 -0.3750004
vt 0.9377 -0.3750004
vt 0.3875 -0.3750004
vt -0.3624001 -0.3750004
vt 0.3624001 -0.3750004
vt 0.8377001 -0.3750004
vt -0.8377 -0.3750004
vt -0.9377 -0.3750004
vt -0.8876001 -0.4250004
vt -0.3875 -0.4250004
vt 0.8876001 -0.4250004
vt 0.9377 -0.4250004
vt 0.4250004 0.34995
vt 0.4250004 0.40005
vt 0.3875 -0.4250004
vt -0.3624001 -0.4250004
vt 0.3624001 -0.4250004
vt 0.8377001 -0.4250004
vt -0.8377 -0.4250004
vt -0.9377 -0.4250004
vt -0.4250004 0.40005
vt -0.4250004 0.34995
vt 0.9877 0.34995
vt 0.9877 0.40005
vt 0.9877 -0.4250004
vt 0.9877 -0.3750004
vt -0.9877 -0.3750004
vt -0.9877 -0.4250004
vt -0.9877 0.40005
vt -0.9877 0.34995
vt 0.9877 0.2749996
vt 0.9877 0.375
vt 0.9877 -0.3250004
vt -0.9877 -0.3250004
vt -0.9877 0.2749996
vt -0.9877 0.375
vt 0.9377 0.425
vt 0.8876001 0.425
vt 0.9877 0.425
vt -0.9377 0.425
vt -0.9877 0.425
vt -0.8876001 0.425
vt 0.3875 0.425
vt -0.3875 0.425
vt 0.3624001 0.425
vt -0.3624001 0.425
vt -0.8377 0.425
vt 0.8377001 0.425

vn 0 0 1
vn -1 0 0
vn 0 0 -1
vn 1 0 0
vn 0 1 0
vn 0 -1 0

usemtl Metal027
f 3/3/1 4/4/1 2/2/1 1/1/1
f 7/7/2 8/8/2 6/6/2 5/5/2
f 11/11/3 12/12/3 10/10/3 9/9/3
f 14/15/4 3/16/4 1/14/4 13/13/4
f 17/19/5 18/20/5 16/18/5 15/17/5
f 1/23/6 2/24/6 19/22/6 13/21/6
f 20/25/6 21/26/6 19/22/6 2/24/6
f 22/27/1 20/28/1 2/2/1 4/4/1
f 21/29/3 24/30/3 23/11/3 19/9/3
f 25/31/5 26/32/5 16/18/5 18/20/5
f 27/33/6 28/34/6 21/26/6 20/25/6
f 29/35/1 27/36/1 20/28/1 22/27/1
f 32/37/3 33/38/3 31/30/3 30/29/3
f 34/39/5 35/40/5 26/32/5 25/31/5
f 36/41/6 37/42/6 28/34/6 27/33/6
f 38/43/1 36/44/1 27/36/1 29/35/1
f 37/45/3 40/46/3 39/38/3 28/37/3
f 41/47/5 42/48/5 35/40/5 34/39/5
f 5/17/6 6/19/6 37/42/6 36/41/6
f 7/12/1 5/10/1 36/44/1 38/43/1
f 45/1/3 46/3/3 44/46/3 43/45/3
f 47/21/5 48/23/5 42/48/5 41/47/5
f 51/49/1 52/50/1 50/4/1 49/3/1
f 55/51/4 56/52/4 54/16/4 53/15/4
f 59/53/3 60/54/3 58/11/3 57/30/3
f 60/54/3 62/55/3 61/12/3 58/11/3
f 52/50/1 64/56/1 63/27/1 50/4/1
f 66/57/3 59/53/3 57/30/3 65/38/3
f 64/56/1 68/58/1 67/35/1 63/27/1
f 70/59/3 66/57/3 65/38/3 69/46/3
f 68/58/1 72/60/1 71/43/1 67/35/1
f 74/49/3 70/59/3 69/46/3 73/3/3
f 72/60/1 76/55/1 75/12/1 71/43/1
f 79/61/2 80/62/2 78/8/2 77/7/2
f 30/63/4 31/64/4 24/15/4 21/13/4
f 32/65/6 30/66/6 21/26/6 28/34/6
f 81/67/5 82/68/5 41/47/5 34/39/5
f 33/69/2 32/70/2 28/6/2 39/8/2
f 83/64/4 84/71/4 55/51/4 53/15/4
f 85/72/5 81/67/5 34/39/5 25/31/5
f 31/66/6 86/73/6 23/22/6 24/26/6
f 87/74/5 85/72/5 25/31/5 18/20/5
f 88/75/6 33/65/6 39/34/6 40/42/6
f 89/76/5 87/74/5 18/20/5 17/19/5
f 90/73/6 91/77/6 13/21/6 19/22/6
f 86/69/2 90/70/2 19/6/2 23/8/2
f 91/63/4 92/64/4 14/15/4 13/13/4
f 82/68/5 93/77/5 47/21/5 41/47/5
f 94/69/2 95/70/2 6/6/2 8/8/2
f 96/78/2 97/69/2 78/8/2 80/62/2
f 98/63/4 88/64/4 40/15/4 37/13/4
f 95/76/6 98/75/6 37/42/6 6/19/6
f 44/79/6 99/80/6 33/65/6 88/75/6
f 100/81/5 101/82/5 93/77/5 82/68/5
f 102/7/4 103/61/4 84/71/4 83/64/4
f 104/83/5 100/81/5 82/68/5 81/67/5
f 99/80/6 105/84/6 31/66/6 33/65/6
f 106/85/5 104/83/5 81/67/5 85/72/5
f 105/84/6 11/86/6 86/73/6 31/66/6
f 107/87/5 106/85/5 85/72/5 87/74/5
f 46/16/2 45/14/2 95/70/2 94/69/2
f 108/88/5 107/87/5 87/74/5 89/76/5
f 9/86/6 10/82/6 91/77/6 90/73/6
f 11/16/2 9/14/2 90/70/2 86/69/2
f 10/5/4 12/7/4 92/64/4 91/63/4
f 109/52/2 110/16/2 97/69/2 96/78/2
f 43/5/4 44/7/4 88/64/4 98/63/4
f 45/88/6 43/79/6 98/75/6 95/76/6
f 69/89/6 65/90/6 99/80/6 44/79/6
f 70/91/5 74/92/5 101/82/5 100/81/5
f 111/93/4 112/94/4 103/61/4 102/7/4
f 66/95/5 70/91/5 100/81/5 104/83/5
f 65/90/6 57/96/6 105/84/6 99/80/6
f 59/97/5 66/95/5 104/83/5 106/85/5
f 57/96/6 58/98/6 11/86/6 105/84/6
f 60/99/5 59/97/5 106/85/5 107/87/5
f 58/98/6 61/92/6 12/82/6 11/86/6
f 62/100/5 60/99/5 107/87/5 108/88/5
f 73/100/6 69/89/6 44/79/6 46/88/6
f 113/101/2 114/102/2 110/16/2 109/52/2
f 115/103/1 116/104/1 51/49/1 49/3/1
f 111/105/6 102/106/6 12/82/6 61/92/6
f 103/107/5 112/108/5 62/100/5 108/88/5
f 112/109/3 111/110/3 61/12/3 62/55/3
f 53/111/6 54/112/6 3/23/6 14/21/6
f 102/106/6 83/113/6 92/77/6 12/82/6
f 84/114/5 103/107/5 108/88/5 89/76/5
f 83/113/6 53/111/6 14/21/6 92/77/6
f 55/115/5 84/114/5 89/76/5 17/19/5
f 56/116/5 55/115/5 17/19/5 15/17/5
f 77/116/6 78/115/6 8/19/6 7/17/6
f 117/109/1 118/110/1 75/12/1 76/55/1
f 96/113/5 80/111/5 47/21/5 93/77/5
f 80/111/5 79/112/5 48/23/5 47/21/5
f 78/115/6 97/114/6 94/76/6 8/19/6
f 109/106/5 96/113/5 93/77/5 101/82/5
f 97/114/6 110/107/6 46/88/6 94/76/6
f 113/105/5 109/106/5 101/82/5 74/92/5
f 110/107/6 114/108/6 73/100/6 46/88/6
f 114/103/3 113/104/3 74/49/3 73/3/3
f 76/117/5 72/118/5 42/48/5 48/23/5
f 117/119/5 76/117/5 48/23/5 79/112/5
f 75/120/6 118/121/6 77/116/6 7/17/6
f 118/93/2 117/94/2 79/61/2 77/7/2
f 71/122/6 75/120/6 7/17/6 38/41/6
f 72/118/5 68/123/5 35/40/5 42/48/5
f 67/124/6 71/122/6 38/41/6 29/33/6
f 68/123/5 64/125/5 26/32/5 35/40/5
f 63/126/6 67/124/6 29/33/6 22/25/6
f 64/125/5 52/127/5 16/18/5 26/32/5
f 50/128/6 63/126/6 22/25/6 4/24/6
f 52/127/5 51/120/5 15/17/5 16/18/5
f 49/117/6 50/128/6 4/24/6 3/23/6
f 115/119/6 49/117/6 3/23/6 54/112/6
f 51/120/5 116/121/5 56/116/5 15/17/5
f 116/101/4 115/102/4 54/16/4 56/52/4

