# ProBuilder 5.0.4
# https://unity3d.com/unity/features/worldbuilding/probuilder
# 5/19/2022 11:15:22 PM

mtllib ./Door.mtl
o Door

g Door
v 1.5002 -1.11505 -0.0250001
v 1.5002 -1.11505 0.02499962
v 1.5002 1.11505 -0.02500105
v 1.5002 1.11505 0.02500105
v 1.4001 -1.11505 -0.0250001
v 1.4001 -1.11505 0.02499962
v 1.4001 1.11505 -0.04500103
v 1.4001 -1.11505 -0.04500008
v 1.5002 1.11505 -0.04500105
v 1.5002 -1.11505 -0.04500009
v 1.4001 -1.11505 0.0449996
v 1.4001 1.11505 0.04500103
v 1.5002 -1.11505 0.04499962
v 1.5002 1.11505 0.04500105
v 1.4001 1.11505 0.02500105
v 1.4001 1.11505 -0.02500105
v 0.47505 1.11505 -0.02500105
v 0.47505 1.11505 0.02500105
v 0.362525 1.11505 0.02500105
v 0 1.11505 0.02500105
v 0 1.11505 -0.02500105
v 0.362525 1.11505 -0.02500105
v 0.47505 -1.11505 0.02499962
v 0.47505 -1.11505 -0.0250001
v 0.362525 -1.11505 -0.0250001
v 0 -1.11505 -0.0250001
v 0 -1.11505 0.02499962
v 0.362525 -1.11505 0.02499962
v 0.47505 -0.7433666 0.02499986
v 1.22505 -0.3716833 0.0250001
v 1.22505 0 0.02500033
v 1.22505 0.3716834 0.02500057
v 0.47505 0.7433665 0.02500081
v 0.47505 0.7433665 -0.02500089
v 1.22505 0.3716832 -0.02500069
v 1.22505 0 -0.02500057
v 1.22505 -0.3716834 -0.02500045
v 0.47505 -0.7433666 -0.02500025
v 0.47505 0.7433665 -0.05000089
v 0.47505 1.11505 -0.05000105
v 0.362525 1.11505 -0.05000105
v 0.362525 0.6683666 -0.05000091
v 1.112525 0.2966833 -0.05000067
v 1.22505 0.3716832 -0.05000067
v 1.22505 -1.192093E-07 -0.05000055
v 1.112525 -1.192093E-07 -0.05000055
v 1.22505 -0.3716834 -0.05000043
v 1.112525 -0.2966834 -0.05000043
v 0.362525 -0.6683666 -0.05000031
v 0.47505 -0.7433666 -0.05000025
v 0.362525 -1.11505 -0.05000009
v 0.47505 -1.11505 -0.05000009
v 0.362525 0.6683666 0.05000079
v 0.362525 1.11505 0.05000105
v 0.47505 1.11505 0.05000105
v 0.47505 0.7433665 0.05000081
v 1.112525 0.2966833 0.05000055
v 1.22505 0.3716832 0.05000055
v 1.112525 -1.192093E-07 0.05000031
v 1.22505 -1.192093E-07 0.05000031
v 0.47505 -1.11505 0.04999962
v 0.362525 -1.11505 0.04999962
v 0.362525 -0.6683666 0.04999983
v 0.47505 -0.7433666 0.04999986
v 1.112525 -0.2966834 0.05000007
v 1.22505 -0.3716834 0.05000007
v 0.362525 -0.6683666 0.02499986
v 1.112525 -0.2966833 0.0250001
v 1.112525 0 0.02500033
v 1.112525 0.2966834 0.02500057
v 0.362525 0.6683666 0.02500081
v 1.112525 0.2966833 -0.02500069
v 1.112525 0 -0.02500057
v 1.112525 -0.2966834 -0.02500045
v 0.362525 0.6683666 -0.02500093
v 0.362525 -0.6683666 -0.02500021
v 0.362525 -0.3477889 -0.02500057
v 0.362525 0.3477888 -0.02500057
v 0.362525 0.3477888 0.02500057
v 0.362525 -0.3477888 0.0250001
v 0.362525 0.3477888 -0.03500057
v 1.112525 0 -0.03500057
v 1.112525 0.2966833 -0.03500069
v 0.362525 -0.3477889 -0.03500057
v 1.112525 -0.2966834 -0.03500045
v 1.112525 0 0.03500033
v 1.112525 -0.2966833 0.03500009
v 0.362525 -0.3477888 0.03500009
v 0.362525 0.3477888 0.03500057
v 1.112525 0.2966834 0.03500057

vt 0.0250001 -1.11505
vt -0.02499962 -1.11505
vt 0.02500105 1.11505
vt -0.02500105 1.11505
vt 1.4001 -0.0250001
vt 1.4001 0.02499962
vt 1.5002 -0.0250001
vt 1.5002 0.02499962
vt -1.4001 1.11505
vt -1.4001 -1.11505
vt -1.5002 1.11505
vt -1.5002 -1.11505
vt 1.4001 -1.11505
vt 1.4001 1.11505
vt 1.5002 -1.11505
vt 1.5002 1.11505
vt -1.4001 0.02500105
vt -1.4001 -0.02500105
vt -1.5002 0.02500105
vt -1.5002 -0.02500105
vt 0.02499962 -1.11505
vt 0.0449996 -1.11505
vt 0.04500103 1.11505
vt 1.5002 0.04499962
vt 1.4001 0.0449996
vt -1.4001 0.04500103
vt -1.5002 0.04500105
vt -0.04500105 1.11505
vt -0.04499962 -1.11505
vt -0.0250001 -1.11505
vt -0.04500008 -1.11505
vt -1.5002 -0.04500105
vt -1.4001 -0.04500103
vt 1.4001 -0.04500008
vt 1.5002 -0.04500009
vt 0.04500009 -1.11505
vt -0.47505 -0.02500105
vt -0.47505 0.02500105
vt -0.362525 0.02500105
vt 0 0.02500105
vt 0 -0.02500105
vt -0.362525 -0.02500105
vt 0.47505 0.02499962
vt 0.47505 -0.0250001
vt 0.362525 -0.0250001
vt 0 0.02499962
vt 0.362525 0.02499962
vt 0.47505 -1.11505
vt 0.47505 -0.7433666
vt 1.22505 -0.3716833
vt 1.22505 1.603662E-08
vt 1.22505 0.3716834
vt 0.47505 0.7433665
vt 0.47505 1.11505
vt -0.47505 1.11505
vt -0.47505 0.7433665
vt -1.22505 0.3716832
vt -1.22505 1.05786E-08
vt -1.22505 -0.3716834
vt -0.47505 -0.7433666
vt -0.47505 -1.11505
vt -0.362525 1.11505
vt -0.362525 0.6683666
vt -1.112525 0.2966833
vt -1.112525 -1.031726E-07
vt -1.112525 -0.2966833
vt -0.362525 -0.6683666
vt -0.362525 -1.11505
vt 0.362525 0.6683666
vt 0.362525 1.11505
vt 1.112525 0.2966833
vt 1.112525 -8.713629E-08
vt 0.362525 -1.11505
vt 0.362525 -0.6683666
vt 1.112525 -0.2966834
vt 0.47505 0.04999962
vt 0.362525 0.04999962
vt 0.02499986 -0.6683666
vt 0.04999962 -1.11505
vt 0.04999983 -0.6683666
vt -0.02499986 -0.7433666
vt -0.04999986 -0.7433666
vt -0.04999962 -1.11505
vt -0.02804267 0.02499986
vt -0.8650901 0.0250001
vt -0.02804267 0.04999983
vt -0.8650901 0.05000007
vt 0.9326102 0.02500197
vt 0.09556273 0.02500173
vt 0.9326102 0.05000195
vt 0.09556273 0.05000173
vt 0.0250001 -0.2966833
vt 0.02500033 0
vt 0.05000007 -0.2966834
vt 0.05000031 -1.192093E-07
vt -0.02500033 0
vt -0.0250001 -0.3716833
vt -0.05000031 -1.192093E-07
vt -0.05000007 -0.3716834
vt -0.02500057 0.3716834
vt -0.05000055 0.3716832
vt 0.02500057 0.2966834
vt 0.05000055 0.2966833
vt -0.09556298 0.02500081
vt -0.9326103 0.02500057
vt -0.09556298 0.05000081
vt -0.9326104 0.05000055
vt 0.8650903 0.02499733
vt 0.02804286 0.02499756
vt 0.8650903 0.0499973
vt 0.02804286 0.04999754
vt 0.02500081 0.6683666
vt 0.05000079 0.6683666
vt 0.05000105 1.11505
vt -0.02500081 0.7433665
vt -0.05000105 1.11505
vt -0.05000081 0.7433665
vt -0.362525 0.05000105
vt -0.47505 0.05000105
vt 0.02500069 0.3716832
vt 0.05000067 0.3716832
vt -0.9326102 -0.02500069
vt -0.09556285 -0.02500089
vt -0.9326102 -0.05000067
vt -0.09556285 -0.05000089
vt -0.02500069 0.2966833
vt -0.05000067 0.2966833
vt -0.02500045 -0.2966834
vt -0.05000043 -0.2966834
vt 0.02500045 -0.3716834
vt 0.05000043 -0.3716834
vt 0.02804276 -0.02500093
vt 0.8650902 -0.02500069
vt 0.02804276 -0.05000091
vt 0.8650902 -0.05000067
vt 0.02500089 0.7433665
vt 0.05000089 0.7433665
vt -0.47505 -0.05000105
vt -0.362525 -0.05000105
vt -0.02500093 0.6683666
vt -0.05000091 0.6683666
vt -0.8650902 -0.02500045
vt -0.02804273 -0.02500021
vt -0.8650902 -0.05000043
vt -0.02804273 -0.05000031
vt -0.02500021 -0.6683666
vt -0.05000031 -0.6683666
vt -0.05000009 -1.11505
vt 0.09556281 -0.02500025
vt 0.9326102 -0.02500045
vt 0.09556281 -0.05000025
vt 0.9326102 -0.05000043
vt 0.02500025 -0.7433666
vt 0.05000009 -1.11505
vt 0.05000025 -0.7433666
vt 0.362525 -0.05000009
vt 0.47505 -0.05000009
vt 2.615778E-15 1.11505
vt 2.615678E-15 -1.11505
vt -0.362525 -0.3477889
vt -0.362525 0.3477888
vt 0.362525 0.3477888
vt 0.362525 -0.3477888
vt 0.9999999 0.9637185
vt -8.940697E-08 0.5000001
vt -8.940697E-08 0.8955778
vt 0.9999999 0.0362815
vt -8.940697E-08 0.1044222
vt 0.9999999 0.4999999
vt 0.9999999 0.1044222
vt -8.940697E-08 0.0362815
vt -8.940697E-08 0.9637183
vt 0.9999999 0.8955778

vn 1 0 0
vn 0 -1 0
vn -1.860784E-07 -4.276375E-07 -1
vn -1.860784E-07 -6.414563E-07 1
vn 0 1 0
vn -1 0 0
vn -0.4440409 0.8960065 0
vn 0.4440409 -0.8960065 -2.136248E-06
vn 0.4440407 0.8960066 0
vn -0.4440407 -0.8960066 -4.272496E-06

usemtl Metal027
f 23/43/2 24/44/2 6/6/2
f 25/45/2 24/44/2 23/43/2
f 28/47/2 25/45/2 23/43/2
f 26/41/2 25/45/2 28/47/2
f 27/46/2 26/41/2 28/47/2
f 24/44/2 5/5/2 6/6/2
f 15/17/5 16/18/5 17/37/5
f 19/39/5 21/41/5 20/40/5
f 19/39/5 22/42/5 21/41/5
f 18/38/5 22/42/5 19/39/5
f 18/38/5 17/37/5 22/42/5
f 15/17/5 17/37/5 18/38/5
f 4/4/1 2/2/1 1/1/1
f 1/1/1 3/3/1 4/4/1
f 2/8/2 6/6/2 5/5/2
f 5/5/2 1/7/2 2/8/2
f 10/12/3 8/10/3 7/9/3
f 7/9/3 9/11/3 10/12/3
f 14/16/4 12/14/4 11/13/4
f 11/13/4 13/15/4 14/16/4
f 3/20/5 16/18/5 15/17/5
f 15/17/5 4/19/5 3/20/5
f 12/23/6 15/3/6 6/21/6
f 6/21/6 11/22/6 12/23/6
f 11/25/2 6/6/2 2/8/2
f 2/8/2 13/24/2 11/25/2
f 14/27/5 4/19/5 15/17/5
f 15/17/5 12/26/5 14/27/5
f 13/29/1 2/2/1 4/4/1
f 4/4/1 14/28/1 13/29/1
f 8/31/6 5/30/6 16/4/6
f 16/4/6 7/28/6 8/31/6
f 7/33/5 16/18/5 3/20/5
f 3/20/5 9/32/5 7/33/5
f 10/35/2 1/7/2 5/5/2
f 5/5/2 8/34/2 10/35/2
f 9/23/1 3/3/1 1/1/1
f 1/1/1 10/36/1 9/23/1
f 41/62/3 40/55/3 39/56/3
f 39/56/3 42/63/3 41/62/3
f 43/64/3 42/63/3 39/56/3
f 39/56/3 44/57/3 43/64/3
f 43/64/3 44/57/3 45/58/3
f 45/58/3 46/65/3 43/64/3
f 46/65/3 45/58/3 47/59/3
f 47/59/3 48/66/3 46/65/3
f 49/67/3 48/66/3 47/59/3
f 47/59/3 50/60/3 49/67/3
f 49/67/3 50/60/3 52/61/3
f 52/61/3 51/68/3 49/67/3
f 54/70/4 53/69/4 56/53/4
f 56/53/4 55/54/4 54/70/4
f 53/69/4 57/71/4 58/52/4
f 58/52/4 56/53/4 53/69/4
f 57/71/4 59/72/4 60/51/4
f 60/51/4 58/52/4 57/71/4
f 63/74/4 62/73/4 61/48/4
f 61/48/4 64/49/4 63/74/4
f 65/75/4 63/74/4 64/49/4
f 64/49/4 66/50/4 65/75/4
f 59/72/4 65/75/4 66/50/4
f 66/50/4 60/51/4 59/72/4
f 62/77/2 28/47/2 23/43/2
f 23/43/2 61/76/2 62/77/2
f 63/80/6 67/78/6 28/21/6
f 28/21/6 62/79/6 63/80/6
f 61/83/1 23/2/1 29/81/1
f 29/81/1 64/82/1 61/83/1
f 65/87/7 68/85/7 67/84/7
f 67/84/7 63/86/7 65/87/7
f 64/91/8 29/89/8 30/88/8
f 30/88/8 66/90/8 64/91/8
f 59/95/6 69/93/6 68/92/6
f 68/92/6 65/94/6 59/95/6
f 66/99/1 30/97/1 31/96/1
f 31/96/1 60/98/1 66/99/1
f 60/98/1 31/96/1 32/100/1
f 32/100/1 58/101/1 60/98/1
f 57/103/6 70/102/6 69/93/6
f 69/93/6 59/95/6 57/103/6
f 58/107/9 32/105/9 33/104/9
f 33/104/9 56/106/9 58/107/9
f 53/111/10 71/109/10 70/108/10
f 70/108/10 57/110/10 53/111/10
f 54/114/6 19/3/6 71/112/6
f 71/112/6 53/113/6 54/114/6
f 56/117/1 33/115/1 18/4/1
f 18/4/1 55/116/1 56/117/1
f 55/119/5 18/38/5 19/39/5
f 19/39/5 54/118/5 55/119/5
f 44/121/1 35/120/1 36/93/1
f 36/93/1 45/95/1 44/121/1
f 39/125/9 34/123/9 35/122/9
f 35/122/9 44/124/9 39/125/9
f 46/98/6 73/96/6 72/126/6
f 72/126/6 43/127/6 46/98/6
f 48/129/6 74/128/6 73/96/6
f 73/96/6 46/98/6 48/129/6
f 45/95/1 36/93/1 37/130/1
f 37/130/1 47/131/1 45/95/1
f 43/135/10 72/133/10 75/132/10
f 75/132/10 42/134/10 43/135/10
f 40/114/1 17/3/1 34/136/1
f 34/136/1 39/137/1 40/114/1
f 41/139/5 22/42/5 17/37/5
f 17/37/5 40/138/5 41/139/5
f 42/141/6 75/140/6 22/4/6
f 22/4/6 41/116/6 42/141/6
f 49/145/7 76/143/7 74/142/7
f 74/142/7 48/144/7 49/145/7
f 51/148/6 25/30/6 76/146/6
f 76/146/6 49/147/6 51/148/6
f 47/152/8 37/150/8 38/149/8
f 38/149/8 50/151/8 47/152/8
f 50/155/1 38/153/1 24/1/1
f 24/1/1 52/154/1 50/155/1
f 52/157/2 24/44/2 25/45/2
f 25/45/2 51/156/2 52/157/2

usemtl Metal011
f 34/56/3 17/55/3 16/9/3
f 35/57/3 34/56/3 16/9/3
f 36/58/3 35/57/3 16/9/3
f 16/9/3 5/10/3 36/58/3
f 5/10/3 37/59/3 36/58/3
f 5/10/3 38/60/3 37/59/3
f 5/10/3 24/61/3 38/60/3
f 29/49/4 23/48/4 6/13/4
f 30/50/4 29/49/4 6/13/4
f 31/51/4 30/50/4 6/13/4
f 31/51/4 6/13/4 15/14/4
f 15/14/4 32/52/4 31/51/4
f 15/14/4 33/53/4 32/52/4
f 15/14/4 18/54/4 33/53/4
f 27/159/4 28/73/4 67/74/4
f 27/159/4 67/74/4 80/163/4
f 20/158/4 27/159/4 80/163/4
f 79/162/4 20/158/4 80/163/4
f 71/69/4 20/158/4 79/162/4
f 20/158/4 71/69/4 19/70/4
f 22/62/3 75/63/3 21/158/3
f 78/161/3 21/158/3 75/63/3
f 77/160/3 21/158/3 78/161/3
f 77/160/3 26/159/3 21/158/3
f 77/160/3 76/67/3 26/159/3
f 76/67/3 25/68/3 26/159/3
f 72/64/3 78/161/3 75/63/3
f 72/64/3 73/65/3 78/161/3
f 73/65/3 77/160/3 78/161/3
f 73/65/3 74/66/3 77/160/3
f 74/66/3 76/67/3 77/160/3
f 70/71/4 71/69/4 79/162/4
f 80/163/4 68/75/4 69/72/4
f 79/162/4 80/163/4 69/72/4
f 79/162/4 69/72/4 70/71/4
f 80/163/4 67/74/4 68/75/4

usemtl SCP-Logo
f 83/166/3 82/165/3 81/164/3
f 82/165/3 84/167/3 81/164/3
f 82/165/3 85/168/3 84/167/3
f 88/171/4 87/170/4 86/169/4
f 89/172/4 88/171/4 86/169/4
f 89/172/4 86/169/4 90/173/4

