# ProBuilder 5.0.4
# https://unity3d.com/unity/features/worldbuilding/probuilder
# 5/20/2022 1:22:06 AM

mtllib ./Door-Frame.mtl
o Door-Frame

g Door-Frame
v 0.74 -1.11505 0.04999971
v -0.74 -1.11505 0.04999971
v 0.74 -1.11505 -0.05000019
v -0.74 -1.11505 -0.05000019
v -0.74 1.11505 -0.05000114
v -0.74 1.11505 0.05000114
v 0.74 1.11505 0.05000114
v 0.74 1.11505 -0.05000114
v 0.7500001 -1.22505 0.2499997
v -0.7499999 -1.22505 0.2499997
v 0.7400001 -1.11505 0.2499997
v -0.7399999 -1.11505 0.2499997
v 0.7500001 1.12505 0.2500011
v 0.7400001 1.11505 0.2500011
v -0.75 1.12505 -0.2500011
v -0.75 -1.22505 -0.2500002
v -0.74 1.11505 -0.2500011
v -0.74 -1.11505 -0.2500002
v 0.75 -1.22505 -0.2500002
v 0.74 -1.11505 -0.2500002
v -0.7499999 1.12505 0.2500011
v -0.7399999 1.11505 0.2500011
v 0.75 1.12505 -0.2500011
v 0.74 1.11505 -0.2500011
v 0.95 1.32505 0.05000103
v 0.95 -1.22505 0.04999959
v 0.9500001 1.32505 0.2000011
v 0.9500001 -1.22505 0.1999997
v 0.69 1.06505 0.05000117
v -0.69 1.06505 0.05000111
v 0.6900001 1.06505 0.2500012
v -0.6899999 1.06505 0.2500011
v 0.69 -1.11505 0.04999974
v 0.6900001 -1.11505 0.2499997
v 0.75 -1.22505 0.04999971
v -0.75 -1.22505 0.04999971
v -0.74 -1.10505 0.04999971
v 0.74 -1.10505 0.04999971
v -0.7399999 -1.10505 0.1499997
v 0.7400001 -1.10505 0.1499997
v -0.95 -1.22505 0.04999983
v -0.95 1.32505 0.05000126
v -0.95 -1.22505 0.1999999
v -0.95 1.32505 0.2000013
v -0.69 -1.11505 0.04999968
v -0.6899999 -1.11505 0.2499997
v 0.95 1.32505 -0.05000114
v -0.95 1.32505 -0.05000114
v 0.95 1.32505 -0.2000011
v -0.95 1.32505 -0.2000011
v 0.69 1.06505 -0.05000114
v 0.69 -1.11505 -0.05000019
v 0.69 1.06505 -0.2500011
v 0.69 -1.11505 -0.2500002
v -0.69 1.06505 -0.05000114
v -0.69 1.06505 -0.2500011
v -0.95 -1.22505 -0.05000019
v -0.95 -1.22505 -0.2000001
v -0.69 -1.11505 -0.05000019
v -0.69 -1.11505 -0.2500002
v -0.75 -1.22505 -0.05000019
v 0.75 -1.22505 -0.05000019
v 0.74 -1.10505 -0.05000019
v -0.74 -1.10505 -0.05000019
v 0.74 -1.10505 -0.1500002
v -0.74 -1.10505 -0.1500002
v 0.95 -1.22505 -0.05000019
v 0.95 -1.22505 -0.2000001
v 0.75 1.12505 -0.05000114
v 0.85 -1.22505 -0.05000019
v 0.85 1.22505 -0.05000114
v 0.85 -1.22505 -0.2500002
v -0.85 -1.22505 -0.05000019
v -0.85 -1.22505 -0.2500002
v 0.85 1.22505 -0.2500011
v -0.75 1.12505 -0.05000114
v -0.85 1.22505 -0.05000114
v -0.85 1.22505 -0.2500011
v -0.75 1.12505 0.05000114
v -0.85 -1.22505 0.04999977
v -0.85 1.22505 0.0500012
v -0.85 -1.22505 0.2499998
v 0.85 -1.22505 0.04999965
v 0.8500001 -1.22505 0.2499996
v -0.85 1.22505 0.2500012
v 0.75 1.12505 0.05000114
v 0.85 1.22505 0.05000108
v 0.8500001 1.22505 0.2500011

vt -0.74 0.04999971
vt 0.74 0.04999971
vt -0.74 -0.05000019
vt 0.74 -0.05000019
vt 0.05000019 -1.11505
vt -0.04999971 -1.11505
vt 0.05000114 1.11505
vt -0.05000114 1.11505
vt 0.04999971 -1.11505
vt -0.05000019 -1.11505
vt 0.74 0.05000114
vt -0.74 0.05000114
vt 0.7500001 -1.22505
vt -0.7499999 -1.22505
vt 0.7400001 -1.11505
vt -0.7399999 -1.11505
vt 0.7499999 1.12505
vt 0.7499999 -1.22505
vt 0.7399999 1.11505
vt 0.7399999 -1.11505
vt -0.75 -1.22505
vt -0.74 -1.11505
vt -0.7500016 1.12505
vt -0.7400016 1.11505
vt -0.7499999 1.12505
vt 0.7500001 1.12505
vt -0.7399999 1.11505
vt 0.7400001 1.11505
vt -0.0500014 1.32505
vt -0.04999997 -1.22505
vt -0.2000015 1.32505
vt -0.2 -1.22505
vt 0.69 0.05000117
vt -0.69 0.05000111
vt 0.6900001 0.2500012
vt -0.6899999 0.2500011
vt 0.05000138 1.06505
vt 0.2499999 -1.11505
vt 0.2500014 1.06505
vt 0.75 0.04999971
vt -0.75 0.04999971
vt 0.7500001 0.2499997
vt -0.7499999 0.2499997
vt 0.7399999 0.1499997
vt -0.7400001 0.1499997
vt 0.04999946 -1.22505
vt 0.05000089 1.32505
vt 0.1999995 -1.22505
vt 0.200001 1.32505
vt -0.05000091 1.06505
vt -0.2500009 1.06505
vt -0.2499995 -1.11505
vt 0.95 0.05000021
vt -0.95 0.04999997
vt 0.95 0.2000003
vt -0.9500001 0.2
vt -0.95 -0.05000009
vt 0.95 -0.05000009
vt -0.95 -0.2
vt 0.95 -0.2
vt -0.2500002 -1.11505
vt -0.69 -0.05000114
vt 0.69 -0.05000114
vt -0.69 -0.2500011
vt 0.69 -0.2500011
vt -0.05000019 -1.22505
vt 0.2500002 -1.11505
vt -0.75 -0.05000019
vt 0.75 -0.05000019
vt -0.75 -0.2500002
vt 0.75 -0.2500002
vt -0.74 -0.1500002
vt 0.74 -0.1500002
vt 0.05000019 -1.22505
vt 0.2000001 -1.22505
vt 0.85 -1.22505
vt 0.85 1.22505
vt 0.85 -0.2500002
vt 0.85 -0.05000019
vt -0.85 -0.05000019
vt -0.85 -0.2500002
vt -0.8499999 1.22505
vt -0.8499999 -1.22505
vt -0.85 1.22505
vt -0.85 -1.22505
vt -0.85 0.2499998
vt -0.85 0.04999977
vt 0.85 0.04999965
vt 0.8500001 0.2499996
vt 0.85 -1.22505
vt 0.8499999 1.22505
vt 0.95 -1.22505
vt 0.95 1.32505
vt -0.6484588 1.22505
vt -0.6484593 -1.22505
vt -0.7602623 1.32505
vt -0.7602627 -1.22505
vt -0.95 1.32505
vt 0.85 0.9839135
vt -0.85 0.9839135
vt 0.95 1.095717
vt -0.95 1.095717
vt -0.95 -1.22505
vt 0.6484595 -1.22505
vt 0.6484591 1.22505
vt 0.7602629 -1.22505
vt 0.7602625 1.32505
vt -0.95 0.1999999
vt 0.95 0.04999959
vt 0.9500001 0.1999997
vt -0.85 0.983914
vt -0.95 1.095717
vt -0.95 1.32505
vt -0.95 -1.22505
vt 0.69 1.06505
vt 0.69 -1.11505
vt -0.69 1.06505
vt 0.74 -0.2500002
vt -0.69 -1.11505
vt -0.74 -0.2500002
vt -0.7399999 0.2499997
vt -0.69 0.04999968
vt -0.6899999 0.2499997
vt 0.6900001 1.06505
vt -0.6900001 -1.11505
vt -0.6900001 1.06505
vt 0.7400001 0.2499997
vt 0.6900001 0.2499997
vt 0.69 0.04999974
vt 0.74 -1.10505
vt -0.74 -1.10505
vt 0.1500002 -1.10505
vt 0.05000019 -1.10505
vt -0.05000019 -1.10505
vt -0.1500002 -1.10505
vt 0.74 -0.359711
vt -0.74 -0.359711
vt 0.74 -0.2592123
vt -0.74 -0.2592123
vt 0.1499995 -1.105052
vt 0.04999949 -1.105052
vt -0.04999993 -1.10505
vt -0.1499999 -1.10505
vt -0.7400001 0.3597105
vt 0.7399999 0.3597105
vt -0.7400001 0.2592118
vt 0.7399999 0.2592118

vn 0 1 0
vn 1 0 0
vn -1 0 0
vn 0 -1 0
vn 0 0 1
vn -4.058016E-07 -4.058016E-07 -1
vn 0.4472141 -3.481458E-07 -0.8944269
vn 0 0.4472142 -0.8944269
vn -0.4472138 -3.481458E-07 -0.8944271
vn -0.447213 -5.222191E-07 0.8944275
vn 6.272002E-08 0.4472138 0.8944271
vn 0.4472134 -5.222189E-07 0.8944273
vn 0 0.9950372 -0.09950364
vn 0 0.9950372 0.09950364

usemtl Metal027
f 3/3/1 4/4/1 2/2/1 1/1/1
f 5/7/2 6/8/2 2/6/2 4/5/2
f 7/7/3 8/8/3 3/10/3 1/9/3
f 6/12/4 5/3/4 8/4/4 7/11/4
f 11/15/5 12/16/5 10/14/5 9/13/5
f 14/19/5 11/20/5 9/18/5 13/17/5
f 17/19/6 18/20/6 16/18/6 15/17/6
f 18/15/6 20/22/6 19/21/6 16/13/6
f 12/22/5 22/24/5 21/23/5 10/21/5
f 20/22/6 24/24/6 23/23/6 19/21/6
f 22/27/5 14/28/5 13/26/5 21/25/5
f 24/24/6 17/28/6 15/26/6 23/23/6
f 27/31/2 28/32/2 26/30/2 25/29/2
f 31/35/4 32/36/4 30/34/4 29/33/4
f 34/38/3 31/39/3 29/37/3 33/9/3
f 9/42/4 10/43/4 36/41/4 35/40/4
f 39/44/1 40/45/1 38/1/1 37/2/1
f 43/48/3 44/49/3 42/47/3 41/46/3
f 32/51/2 46/52/2 45/6/2 30/50/2
f 44/55/1 27/56/1 25/54/1 42/53/1
f 49/59/1 50/60/1 48/58/1 47/57/1
f 53/51/3 54/61/3 52/10/3 51/50/3
f 56/64/4 53/65/4 51/63/4 55/62/4
f 50/31/3 58/32/3 57/66/3 48/29/3
f 60/67/2 56/39/2 55/37/2 59/5/2
f 16/70/4 19/71/4 62/69/4 61/68/4
f 65/72/1 66/73/1 64/4/1 63/3/1
f 68/75/2 49/49/2 47/47/2 67/74/2
f 70/76/5 71/77/5 69/26/5 62/13/5
f 72/78/4 70/79/4 62/69/4 19/71/4
f 73/80/4 74/81/4 16/70/4 61/68/4
f 75/82/6 72/83/6 19/14/6 23/25/6
f 71/77/5 77/84/5 76/23/5 69/26/5
f 78/77/6 75/84/6 23/23/6 15/26/6
f 77/84/5 73/85/5 61/21/5 76/23/5
f 74/76/6 78/77/6 15/26/6 16/13/6
f 80/76/6 81/77/6 79/26/6 36/13/6
f 82/86/4 80/87/4 36/41/4 10/43/4
f 83/88/4 84/89/4 9/42/4 35/40/4
f 85/82/5 82/83/5 10/14/5 21/25/5
f 81/77/6 87/84/6 86/23/6 79/26/6
f 88/77/5 85/82/5 21/25/5 13/26/5
f 87/82/6 83/83/6 35/14/6 86/25/6
f 84/90/5 88/91/5 13/17/5 9/18/5
f 67/92/5 47/93/5 71/77/5 70/76/5
f 68/60/4 67/58/4 70/79/4 72/78/4
f 57/57/4 58/59/4 74/81/4 73/80/4
f 49/96/7 68/97/7 72/95/7 75/94/7
f 47/93/5 48/98/5 77/84/5 71/77/5
f 50/101/8 49/102/8 75/100/8 78/99/8
f 48/98/5 57/103/5 73/85/5 77/84/5
f 58/106/9 50/107/9 78/105/9 74/104/9
f 41/92/6 42/93/6 81/77/6 80/76/6
f 43/108/4 41/54/4 80/87/4 82/86/4
f 26/109/4 28/110/4 84/89/4 83/88/4
f 44/96/10 43/97/10 82/95/10 85/94/10
f 42/93/6 25/98/6 87/84/6 81/77/6
f 27/101/11 44/112/11 85/111/11 88/99/11
f 25/113/6 26/114/6 83/83/6 87/82/6
f 28/106/12 27/107/12 88/105/12 84/104/12
f 51/115/5 52/116/5 3/15/5 8/28/5
f 53/117/6 56/115/6 17/28/6 24/24/6
f 52/63/4 54/65/4 20/118/4 3/4/4
f 54/119/6 53/117/6 24/24/6 20/22/6
f 55/117/5 51/115/5 8/28/5 5/24/5
f 56/115/6 60/116/6 18/20/6 17/19/6
f 59/119/5 55/117/5 5/24/5 4/22/5
f 60/64/4 59/62/4 4/3/4 18/120/4
f 29/117/6 30/115/6 6/28/6 7/24/6
f 31/115/5 34/116/5 11/20/5 14/19/5
f 45/122/4 46/123/4 12/121/4 2/1/4
f 32/117/5 31/124/5 14/28/5 22/27/5
f 30/115/6 45/116/6 2/15/6 6/28/6
f 46/125/5 32/126/5 22/24/5 12/22/5
f 33/119/6 29/117/6 7/27/6 1/22/6
f 34/128/4 33/129/4 1/2/4 11/127/4
f 63/130/5 64/131/5 4/22/5 3/15/5
f 65/132/2 63/133/2 3/5/2 20/67/2
f 64/134/3 66/135/3 18/61/3 4/10/3
f 66/138/13 65/139/13 20/137/13 18/136/13
f 37/130/6 38/131/6 1/22/6 2/15/6
f 39/140/3 37/141/3 2/9/3 12/38/3
f 38/142/2 40/143/2 11/52/2 1/6/2
f 40/146/14 39/147/14 12/145/14 11/144/14

