# ProBuilder 5.0.6
# https://unity3d.com/unity/features/worldbuilding/probuilder
# 1/23/2023 1:22:54 AM

mtllib ./Superconductor-Contactor.mtl
o Superconductor-Contactor

g Superconductor-Contactor
v 0.25 -0.25 0.125
v -0.25 -0.25 0.125
v 0.25 0.25 0.125
v -0.25 0.25 0.125
v -0.4 -0.25 0.125
v -0.4 -0.25 -0.125
v -0.4 0.25 0.125
v -0.4 0.25 -0.125
v -0.25 -0.25 -0.125
v 0.25 -0.25 -0.125
v -0.25 0.25 -0.125
v 0.25 0.25 -0.125
v 0.4 -0.25 -0.125
v 0.4 -0.25 0.125
v 0.4 0.25 -0.125
v 0.4 0.25 0.125
v 0.35 -0.25 -0.125
v 0.35 -0.25 0.125
v 0.35 0.25 -0.125
v 0.25 -0.25 0.375
v 0.25 0.25 0.375
v 0.35 -0.25 0.375
v 0.35 0.25 0.375
v 0.35 0.25 0.125
v -0.35 -0.25 0.125
v -0.35 -0.25 -0.125
v -0.25 0.25 0.375
v -0.25 -0.25 0.375
v -0.35 0.25 0.375
v -0.35 -0.25 0.375
v -0.35 0.25 -0.125
v -0.35 0.25 0.125

vt 0.25 -0.25
vt -0.25 -0.25
vt 0.25 0.25
vt -0.25 0.25
vt 0.125 -0.25
vt -0.125 -0.25
vt 0.125 0.25
vt -0.125 0.25
vt -0.25 0.125
vt 0.25 0.125
vt -0.25 -0.125
vt 0.25 -0.125
vt 0.35 -0.125
vt 0.35 0.125
vt -0.35 0.25
vt -0.35 -0.25
vt 0.25 0.25
vt 0.35 -0.25
vt 0.35 0.25
vt -0.35 0.125
vt -0.35 -0.125
vt -0.25 0.25
vt -0.35 0.25
vt 0.35 -0.25
vt 0.35 0.25
vt 0.4 -0.125
vt 0.4 0.125
vt -0.4 0.25
vt -0.4 -0.25
vt -0.4 0.125
vt -0.4 -0.125
vt 0.4 -0.25
vt 0.4 0.25
vt 0.4 0.125
vt 0.35 0.125
vt 0.35 0.375
vt -0.35 0.375
vt -0.04412615 0.25
vt -0.04412615 -0.25
vt -0.2990771 0.25
vt -0.2990772 -0.25
vt 0.375 -0.25
vt 0.375 0.25
vt 0.25 0.125
vt 0.25 0.375
vt -0.25 0.375
vt -0.375 0.25
vt -0.375 -0.25
vt 0.35 0.375
vt -0.25 0.125
vt -0.35 0.125
vt -0.35 0.375
vt -0.4 0.125
vt 0.04412612 -0.25
vt 0.04412612 0.25
vt 0.2990771 -0.25
vt 0.2990771 0.25

vn 0 0 1
vn -1 0 0
vn 0 0 -1
vn 1 0 0
vn 0 1 0
vn 0 -1 0
vn 0.9805807 0 0.1961161
vn -0.9805807 0 0.1961162

usemtl Metal011-Red
f 22/36/6 18/35/6 14/34/6
f 23/37/5 16/30/5 24/20/5
f 29/49/5 32/14/5 7/27/5
f 30/52/6 5/53/6 25/51/6
f 4/4/1 2/2/1 1/1/1
f 1/1/1 3/3/1 4/4/1
f 8/8/2 6/6/2 5/5/2
f 5/5/2 7/7/2 8/8/2
f 12/4/3 10/2/3 9/1/3
f 9/1/3 11/3/3 12/4/3
f 16/8/4 14/6/4 13/5/4
f 13/5/4 15/7/4 16/8/4
f 11/12/5 4/10/5 3/9/5
f 3/9/5 12/11/5 11/12/5
f 2/9/6 9/11/6 10/12/6
f 10/12/6 1/10/6 2/9/6
f 18/14/6 1/10/6 10/12/6
f 10/12/6 17/13/6 18/14/6
f 17/16/3 10/2/3 12/4/3
f 12/4/3 19/15/3 17/16/3
f 23/19/1 21/17/1 20/1/1
f 20/1/1 22/18/1 23/19/1
f 19/21/5 12/11/5 3/9/5
f 3/9/5 24/20/5 19/21/5
f 26/21/6 9/11/6 2/9/6
f 2/9/6 25/20/6 26/21/6
f 30/16/1 28/2/1 27/22/1
f 27/22/1 29/23/1 30/16/1
f 31/25/3 11/3/3 9/1/3
f 9/1/3 26/24/3 31/25/3
f 32/14/5 4/10/5 11/12/5
f 11/12/5 31/13/5 32/14/5
f 14/27/6 18/14/6 17/13/6
f 17/13/6 13/26/6 14/27/6
f 13/29/3 17/16/3 19/15/3
f 19/15/3 15/28/3 13/29/3
f 15/31/5 19/21/5 24/20/5
f 24/20/5 16/30/5 15/31/5
f 6/31/6 26/21/6 25/20/6
f 25/20/6 5/30/6 6/31/6
f 8/33/3 31/25/3 26/24/3
f 26/24/3 6/32/3 8/33/3
f 7/27/5 32/14/5 31/13/5
f 31/13/5 8/26/5 7/27/5
f 22/41/7 14/39/7 16/38/7
f 16/38/7 23/40/7 22/41/7
f 21/43/2 3/7/2 1/5/2
f 1/5/2 20/42/2 21/43/2
f 20/45/6 1/44/6 18/35/6
f 18/35/6 22/36/6 20/45/6
f 23/37/5 24/20/5 3/9/5
f 3/9/5 21/46/5 23/37/5
f 28/48/4 2/6/4 4/8/4
f 4/8/4 27/47/4 28/48/4
f 27/45/5 4/10/5 32/14/5
f 32/14/5 29/49/5 27/45/5
f 30/52/6 25/51/6 2/50/6
f 2/50/6 28/46/6 30/52/6
f 29/57/8 7/55/8 5/54/8
f 5/54/8 30/56/8 29/57/8

