# ProBuilder 5.0.6
# https://unity3d.com/unity/features/worldbuilding/probuilder
# 1/23/2023 1:22:54 AM

mtllib ./Superconductor-Stand-1.mtl
o Superconductor-Stand-1

g Superconductor-Stand-1
v 0.2499999 3.726311E-07 -0.4500005
v -0.2500001 3.595926E-07 -0.4500005
v 0.25 0.2500004 -0.4500003
v -0.25 0.2500004 -0.4500003
v -0.3 -0.2499996 -0.5000003
v -0.3 -0.2499996 -1
v -0.3 0.2500004 -0.5000001
v -0.3 0.2500004 -1
v 0.3 -0.2499996 -1
v 0.3 -0.2499996 -0.5000003
v 0.3 0.2500004 -1
v 0.3 0.2500004 -0.5000001
v 0.25 -0.2499996 -0.5000003
v -0.25 -0.2499996 -0.5000003
v 0.3 0.25 0.25
v 0.2999999 -2.878796E-09 0.2499996
v -0.3000001 -1.591728E-08 0.2499996
v -0.3 0.25 0.25
v -0.25 0.2500004 -0.5000001
v 0.25 0.2500004 -0.5000001
v 0 0.2500004 -1
v 0.125 0.2500004 -1
v 0.25 0.2500004 -1
v -0.25 0.2500004 -1
v -0.125 0.2500004 -1
v 0.25 -0.2499996 -1
v 0.125 -0.2499996 -1
v 0 -0.2499996 -1
v -0.125 -0.2499996 -1
v -0.25 -0.2499996 -1
v 0.125 -0.2499995 -1.25
v 0.25 -0.2499994 -1.25
v 0.25 0.2500006 -1.25
v 0.125 0.2500005 -1.25
v -0.125 0.2500006 -1.25
v -0.25 0.2500005 -1.25
v -0.25 -0.2499994 -1.25
v -0.125 -0.2499994 -1.25
v 0.3 -0.2499994 -1.25
v 0.3 0.2500006 -1.25
v -0.3 0.2500005 -1.25
v -0.3 -0.2499994 -1.25
v 0.25 -0.2499997 -0.2500003
v 0.2499999 -1.369893E-07 0.4999993
v 0.3 -0.2499997 -0.2500003
v 0.2999999 -1.118436E-07 0.4999993
v 0.25 0.2499999 0.4999997
v 0.3 0.2499999 0.4999997
v -0.2500001 -1.500278E-07 0.4999993
v -0.25 -0.2499997 -0.2500003
v -0.3000001 -1.751735E-07 0.4999993
v -0.3 -0.2499998 -0.2500003
v -0.25 0.2499999 0.4999997
v -0.3 0.2499998 0.4999997

vt 0.2499999 1.044099E-07
vt -0.2500001 9.137143E-08
vt 0.25 0.2500001
vt -0.25 0.2500001
vt -0.5000003 -0.2499996
vt -1 -0.2499996
vt -0.5000001 0.2500004
vt -1 0.2500004
vt 1 -0.2499996
vt 0.5000003 -0.2499996
vt 1 0.2500004
vt 0.5000001 0.2500004
vt 0.25 -0.3432026
vt -0.25 -0.3432027
vt 0.2499999 -0.08825171
vt -0.2500001 -0.08825172
vt -0.25 0.25
vt -0.2499996 -2.878796E-09
vt 0.25 0.25
vt 0.25 -0.5000002
vt -0.25 -0.5000002
vt 0.25 -0.4500005
vt -0.25 -0.4500005
vt 0 -1
vt -0.125 -1
vt -0.25 -1
vt 0.25 -1
vt 0.125 -1
vt 0.125 -1
vt -0.125 -0.2500004
vt -0.25 -0.2500003
vt -0.25 0.2499997
vt -0.125 0.2499996
vt 0.125 0.2499997
vt 0.125 -0.2500003
vt 0 -0.2500003
vt -0.125 0.2499997
vt 0 0.2499997
vt 0.25 -0.2500004
vt 0.125 -0.2500003
vt 1.25 -0.2499994
vt 1.25 0.2500006
vt -0.25 -1.25
vt -0.125 -1.25
vt -1.25 0.2500005
vt -1.25 -0.2499995
vt 0.25 -1
vt 0.125 -1.25
vt 0.25 -1.25
vt 0.125 -1.25
vt 0.25 -1.25
vt -0.3 -0.5000001
vt -0.3 -1
vt -0.2499981 -0.4500003
vt -0.2499981 -0.5000001
vt -0.2999981 0.25
vt -0.2999981 -0.5000001
vt 0.2499999 -0.3162279
vt 0.2499999 0.474341
vt 0.3 -0.3162279
vt 0.2999999 0.474341
vt 0.25 0.2500006
vt 0.2999999 6.630158E-07
vt 0.3 0.2500007
vt 0.3 -1
vt 0.3 -0.5000003
vt 0.3 -1.25
vt -0.3 -1.25
vt -0.3 0.2499997
vt -0.3 -0.2500003
vt 0.3 -0.2500004
vt 0.3 0.2499996
vt -0.2500001 0.4743411
vt -0.2500001 -0.3162279
vt -0.3000001 0.4743411
vt -0.3000001 -0.3162279
vt -0.3 0.2500006
vt -0.3000001 5.996858E-07
vt -0.4500005 4.918404E-07
vt -0.4500003 0.2500005
vt 0.4999993 -1.77801E-08
vt 0.4999997 0.25
vt -0.4999994 -3.621832E-07
vt 0.2500003 -0.25
vt -0.25 0.4999996
vt -0.3 0.4999996
vt -0.4999998 0.25
vt -0.2500003 -0.2499999
vt 0.25 -0.2500002
vt 0.4500003 0.2500002
vt 0.4500005 2.403833E-07
vt -0.4999997 0.2499997
vt 0.3000005 0.4999996
vt 0.2500004 0.4999996
vt 0.25 0.2499998

vn 1.554309E-14 -5.960464E-07 1
vn -1 0 0
vn 1 0 0
vn 5.844698E-09 -0.1961155 0.9805808
vn 0 1 5.960495E-07
vn 9.934108E-09 -1 -5.463758E-08
vn -3.410605E-13 7.152557E-07 -1
vn 2.827293E-07 -0.9486834 0.3162274

usemtl Metal011
f 25/28/5 24/27/5 19/20/5
f 21/24/5 25/28/5 19/20/5
f 20/21/5 23/26/5 22/25/5
f 20/21/5 22/25/5 21/24/5
f 19/20/5 20/21/5 21/24/5
f 28/24/6 13/20/6 14/21/6
f 28/24/6 27/29/6 13/20/6
f 27/29/6 26/27/6 13/20/6
f 14/21/6 29/25/6 28/24/6
f 14/21/6 30/26/6 29/25/6
f 21/38/7 28/36/7 25/34/7
f 27/30/7 28/36/7 21/38/7
f 22/37/7 27/30/7 21/38/7
f 28/36/7 29/35/7 25/34/7
f 4/4/1 2/2/1 1/1/1
f 1/1/1 3/3/1 4/4/1
f 8/8/2 6/6/2 5/5/2
f 5/5/2 7/7/2 8/8/2
f 12/12/3 10/10/3 9/9/3
f 9/9/3 11/11/3 12/12/3
f 2/16/4 14/14/4 13/13/4
f 13/13/4 1/15/4 2/16/4
f 16/18/3 10/10/3 12/12/3
f 12/12/3 15/17/3 16/18/3
f 18/19/2 7/7/2 5/5/2
f 5/5/2 17/1/2 18/19/2
f 3/23/5 20/21/5 19/20/5
f 19/20/5 4/22/5 3/23/5
f 34/33/7 33/32/7 32/31/7
f 32/31/7 31/30/7 34/33/7
f 36/19/7 35/34/7 38/40/7
f 38/40/7 37/39/7 36/19/7
f 40/42/3 11/11/3 9/9/3
f 9/9/3 39/41/3 40/42/3
f 34/44/5 22/25/5 23/26/5
f 23/26/5 33/43/5 34/44/5
f 31/46/2 27/6/2 22/8/2
f 22/8/2 34/45/2 31/46/2
f 32/49/6 26/47/6 27/29/6
f 27/29/6 31/48/6 32/49/6
f 35/42/3 25/11/3 29/9/3
f 29/9/3 38/41/3 35/42/3
f 36/51/5 24/27/5 25/28/5
f 25/28/5 35/50/5 36/51/5
f 42/46/2 6/6/2 8/8/2
f 8/8/2 41/45/2 42/46/2
f 38/44/6 29/25/6 30/26/6
f 30/26/6 37/43/6 38/44/6
f 11/53/5 23/26/5 20/21/5
f 20/21/5 12/52/5 11/53/5
f 12/57/5 20/55/5 3/54/5
f 3/54/5 15/56/5 12/57/5
f 46/61/8 44/59/8 43/58/8
f 43/58/8 45/60/8 46/61/8
f 48/64/1 47/62/1 44/1/1
f 44/1/1 46/63/1 48/64/1
f 10/66/6 13/20/6 26/27/6
f 26/27/6 9/65/6 10/66/6
f 9/65/6 26/27/6 32/51/6
f 32/51/6 39/67/6 9/65/6
f 40/68/5 33/43/5 23/26/5
f 23/26/5 11/53/5 40/68/5
f 39/70/7 32/31/7 33/32/7
f 33/32/7 40/69/7 39/70/7
f 7/66/5 19/20/5 24/27/5
f 24/27/5 8/65/5 7/66/5
f 8/65/5 24/27/5 36/51/5
f 36/51/5 41/67/5 8/65/5
f 42/68/6 37/43/6 30/26/6
f 30/26/6 6/53/6 42/68/6
f 41/72/7 36/19/7 37/39/7
f 37/39/7 42/71/7 41/72/7
f 6/53/6 30/26/6 14/21/6
f 14/21/6 5/52/6 6/53/6
f 52/76/8 50/74/8 49/73/8
f 49/73/8 51/75/8 52/76/8
f 18/72/5 4/22/5 19/20/5
f 19/20/5 7/66/5 18/72/5
f 51/78/1 49/2/1 53/4/1
f 53/4/1 54/77/1 51/78/1
f 47/82/2 3/80/2 1/79/2
f 1/79/2 44/81/2 47/82/2
f 45/84/3 10/10/3 16/18/3
f 16/18/3 46/83/3 45/84/3
f 48/86/5 15/56/5 3/54/5
f 3/54/5 47/85/5 48/86/5
f 46/83/3 16/18/3 15/4/3
f 15/4/3 48/87/3 46/83/3
f 44/81/2 1/79/2 13/5/2
f 13/5/2 43/88/2 44/81/2
f 43/89/6 13/20/6 10/66/6
f 10/66/6 45/71/6 43/89/6
f 49/83/3 2/91/3 4/90/3
f 4/90/3 53/92/3 49/83/3
f 53/94/5 4/22/5 18/72/5
f 18/72/5 54/93/5 53/94/5
f 52/70/6 5/52/6 14/21/6
f 14/21/6 50/31/6 52/70/6
f 54/82/2 18/95/2 17/1/2
f 17/1/2 51/81/2 54/82/2
f 50/84/3 14/10/3 2/91/3
f 2/91/3 49/83/3 50/84/3
f 51/81/2 17/1/2 5/5/2
f 5/5/2 52/88/2 51/81/2

