# ProBuilder 5.0.6
# https://unity3d.com/unity/features/worldbuilding/probuilder
# 1/23/2023 1:30:21 AM

mtllib ./L27-Office-Wall.mtl
o L27-Office-Wall

g L27-Office-Wall
v -5.6 0 6.875
v -5.6 1.25 6.875
v -3.35 0 6.875
v -3.35 3 6.875
v -5.6 4.099999 6.875
v -5.6 4.999999 6.875
v -3.35 4.099999 6.875
v -3.35 4.999999 6.875
v -0.8500004 3 6.875
v -1.6 4.099999 6.875
v -1.6 4.999999 6.875
v 4.9 3 6.875
v 4.9 4.099999 6.875
v 4.9 4.999999 6.875
v 4.9 0 6.875
v 3.75 2.9 6.875
v 3.75 1.1 6.875
v -0.8500004 0 6.875
v 0.2999992 1.1 6.875
v 0.2999992 2.9 6.875

vt -5.6 0
vt -5.6 1.25
vt -3.35 0
vt -3.35 3
vt -5.6 4.099999
vt -5.6 4.999999
vt -3.35 4.099999
vt -3.35 4.999999
vt -5.6 4.100002
vt -3.35 4.100002
vt -3.350002 2.999999
vt -0.8500022 2.999999
vt -1.600002 4.099998
vt -1.600002 4.999999
vt -0.8500004 3
vt 4.9 3
vt 4.9 4.099999
vt 4.9 4.999999
vt 4.9 0
vt 3.75 2.9
vt 3.75 1.1
vt -0.8500004 0
vt 0.2999992 1.1
vt 0.2999992 2.9

vn 0 0 1

usemtl Concrete024-Warm
f 1/1/1 3/3/1 4/4/1 2/2/1
f 5/5/1 7/7/1 8/8/1 6/6/1
f 2/2/1 4/4/1 7/10/1 5/9/1
f 4/11/1 9/12/1 10/13/1 7/7/1
f 7/7/1 10/13/1 11/14/1 8/8/1
f 9/15/1 12/16/1 13/17/1 10/13/1
f 10/13/1 13/17/1 14/18/1 11/14/1
f 16/20/1 17/21/1 15/19/1 12/16/1
f 17/21/1 19/23/1 18/22/1 15/19/1
f 20/24/1 16/20/1 12/16/1 9/15/1
f 19/23/1 20/24/1 9/15/1 18/22/1

