# ProBuilder 5.0.6
# https://unity3d.com/unity/features/worldbuilding/probuilder
# 1/23/2023 1:30:21 AM

mtllib ./L27-Office.mtl
o L27-Office

g L27-Office
v 4.65 0 6.625
v -3.35 0 6.625
v 4.65 0 12.625
v -3.35 0 12.625
v -5.35 0 12.625
v -5.35 0 6.625
v -5.35 3 12.625
v -5.35 3 6.625
v -3.35 3 12.625
v 4.65 3 12.625
v -5.35 4 12.625
v -5.35 4 6.625
v -3.35 4 12.625
v 4.65 4 12.625
v -5.35 5 12.625
v -5.35 5 6.625
v -3.35 5 12.625
v 4.65 5 12.625
v 4.65 3 11.625
v 4.65 4 11.625
v 4.65 0 11.625
v 4.65 5 11.625
v 4.65 4 9.125
v 4.65 5 9.125
v 4.65 3 9.125
v 4.65 4 6.625
v 4.65 5 6.625
v 4.65 3 6.625
v 4.65 0 9.125
v 5.15 5 12.625
v -3.35 5 6.625
v 5.15 5 6.625
v 4.9 3 9.125
v 4.9 0 9.125
v 4.9 3 11.625
v 4.9 0 11.625

vt -4.65 6.625
vt 3.35 6.625
vt -4.65 12.625
vt 3.35 12.625
vt 5.35 12.625
vt 5.35 6.625
vt -12.625 0
vt -6.625 0
vt -12.625 3
vt -6.625 3
vt 3.35 0
vt 5.35 0
vt 3.35 3
vt 5.35 3
vt -4.65 0
vt -4.65 3
vt -12.625 4
vt -6.625 4
vt 3.35 4
vt 5.35 4
vt -4.65 4
vt -12.625 5
vt -6.625 5
vt 3.35 5
vt 5.35 5
vt -4.65 5
vt 12.625 3
vt 12.625 4
vt 11.625 3
vt 11.625 4
vt 12.625 0
vt 11.625 0
vt 12.625 5
vt 11.625 5
vt 9.125 4
vt 9.125 5
vt 9.125 3
vt 6.625 4
vt 6.625 5
vt 6.625 3
vt 9.125 0
vt 6.625 0
vt 5.15 12.625
vt -3.35 6.625
vt 5.15 6.625
vt -3.35 12.625
vt -5.35 12.625
vt -5.35 6.625
vt 4.65 3
vt 4.65 0
vt 4.9 3
vt 4.9 0
vt 4.65 11.625
vt 4.65 9.125
vt 4.9 11.625
vt 4.9 9.125
vt -4.9 0
vt -4.9 3
vt -4.65 11.625
vt -4.9 11.625
vt -4.9 9.125
vt -4.65 9.125

vn 0 1 0
vn 1 0 0
vn 0 0 -1
vn -1 0 0
vn 0 -1 0
vn 0 0 1

usemtl Concrete024-Warm
f 8/10/2 7/9/2 5/7/2 6/8/2
f 7/14/3 9/13/3 4/11/3 5/12/3
f 9/13/3 10/16/3 3/15/3 4/11/3
f 12/18/2 11/17/2 7/9/2 8/10/2
f 11/20/3 13/19/3 9/13/3 7/14/3
f 13/19/3 14/21/3 10/16/3 9/13/3
f 16/23/2 15/22/2 11/17/2 12/18/2
f 15/25/3 17/24/3 13/19/3 11/20/3
f 17/24/3 18/26/3 14/21/3 13/19/3
f 20/30/4 19/29/4 10/27/4 14/28/4
f 19/29/4 21/32/4 3/31/4 10/27/4
f 22/34/4 20/30/4 14/28/4 18/33/4
f 24/36/4 23/35/4 20/30/4 22/34/4
f 23/35/4 25/37/4 19/29/4 20/30/4
f 27/39/4 26/38/4 23/35/4 24/36/4
f 26/38/4 28/40/4 25/37/4 23/35/4
f 1/42/4 29/41/4 25/37/4 28/40/4
f 32/45/5 30/43/5 17/46/5 31/44/5
f 17/46/5 15/47/5 16/48/5 31/44/5
f 34/52/6 33/51/6 25/49/6 29/50/6
f 33/56/5 35/55/5 19/53/5 25/54/5
f 35/58/3 36/57/3 21/15/3 19/16/3
f 21/59/1 36/60/1 34/61/1 29/62/1

usemtl Concrete024-Ground
f 4/4/1 3/3/1 1/1/1 2/2/1
f 6/6/1 5/5/1 4/4/1 2/2/1

