# ProBuilder 5.0.6
# https://unity3d.com/unity/features/worldbuilding/probuilder
# 1/23/2023 1:30:21 AM

mtllib ./L28-Hallway-7.mtl
o L28-Hallway-7

g L28-Hallway-7
v -26.95 -1.35 17
v -29.95 -1.35 17
v -26.95 -1.35 21
v -29.95 -1.35 21
v -29.95 2.65 17
v -29.95 3.65 17
v -29.95 2.65 21
v -29.95 3.65 21
v -29.95 1.65 17
v -29.95 1.65 21
v -26.95 1.65 17
v -23.95 1.65 17
v -23.95 -1.35 17
v -26.95 2.65 17
v -23.95 2.65 17
v -26.95 3.65 17
v -23.95 3.65 17
v -23.95 -1.35 18
v -23.95 -1.35 21
v -23.95 1.65 18
v -23.95 2.65 18
v -23.95 3.65 18
v -21.95 -1.35 18
v -21.95 -1.35 21
v -21.95 1.65 18
v -21.95 2.65 18
v -21.95 3.65 18
v -11.95 -1.35 18
v -11.95 -1.35 21
v -11.95 1.65 18
v -11.95 2.65 18
v -11.95 3.65 18
v -11.95 1.65 21
v -21.95 1.65 21
v -11.95 2.65 21
v -21.95 2.65 21
v -11.95 3.65 21
v -21.95 3.65 21
v -23.95 -1.35 21.25
v -26.95 -1.35 21.25
v -21.95 -1.35 21.25
v -26.95 1.65 21
v -26.95 1.65 21.25
v -26.95 2.65 21
v -26.95 2.65 21.25
v -26.95 3.65 21
v -26.95 3.65 21.25
v -21.95 1.65 21.25
v -21.95 2.65 21.25
v -21.95 3.65 21.25
v -23.95 -1.35 21.5
v -26.95 -1.35 21.5
v -21.95 -1.35 21.5
v -27.45 -1.35 21.25
v -27.45 1.65 21.25
v -27.45 -1.35 21.5
v -27.45 1.65 21.5
v -27.45 2.65 21.25
v -27.45 2.65 21.5
v -27.45 3.65 21.25
v -27.45 3.65 21.5
v -21.45 1.65 21.25
v -21.45 -1.35 21.25
v -21.45 1.65 21.5
v -21.45 -1.35 21.5
v -21.45 2.65 21.25
v -21.45 2.65 21.5
v -21.45 3.65 21.25
v -21.45 3.65 21.5
v -23.95 -1.35 21.75
v -26.95 -1.35 21.75
v -21.95 -1.35 21.75
v -26.95 1.65 21.5
v -26.95 1.65 21.75
v -26.95 2.65 21.5
v -26.95 2.65 21.75
v -26.95 3.65 21.5
v -26.95 3.65 21.75
v -21.95 1.65 21.5
v -21.95 1.65 21.75
v -21.95 2.65 21.5
v -21.95 2.65 21.75
v -21.95 3.65 21.5
v -21.95 3.65 21.75
v -10.25 -1.35 18
v -10.25 -1.35 21
v -10.25 1.65 21
v -10.25 2.65 21
v -10.25 3.65 21
v -11.95 -1.35 16
v -10.25 -1.35 16
v -11.95 1.65 16
v -11.95 2.65 16
v -11.95 3.65 16
v -10.25 1.65 16
v -10.25 2.65 16
v -10.25 3.65 16
v -7.75 -1.35 16
v -7.75 -1.35 18
v -7.75 1.8 16
v -7.75 2.65 16
v -7.75 3.65 16
v -7.25 -1.35 21
v -5.25 -1.35 18
v -5.25 -1.35 21
v -5.25 -1.3 16
v -4.25 -1.35 18
v -4.25 -1.35 21
v -4.25 -1.35 16
v -5.25 1.65 21
v -7.25 1.65 21
v -4.25 1.65 21
v -5.25 1.8 16
v -4.25 1.65 16
v -4.25 1.65 18
v -5.25 2.65 21
v -7.25 2.65 21
v -4.25 2.65 21
v -5.25 2.65 16
v -4.25 2.65 16
v -4.25 2.65 18
v -5.25 3.65 21
v -7.25 3.65 21
v -4.25 3.65 21
v -5.25 3.65 16
v -4.25 3.65 16
v -4.25 3.65 18
v -5.25 1.8 15.6
v -7.75 1.8 15.6
v -7.75 -1.35 15.6
v -5.25 -1.25 15.6
v -7.25 -1.35 21.25
v -10.25 -1.35 21.25
v -10.25 1.65 21.25
v -10.25 2.65 21.25
v -10.25 3.65 21.25
v -7.25 2.65 21.25
v -7.25 1.65 21.25
v -7.25 3.65 21.25
v -7.25 -1.35 21.5
v -10.25 -1.35 21.5
v -10.75 -1.35 21.25
v -10.75 1.65 21.25
v -10.75 -1.35 21.5
v -10.75 1.65 21.5
v -10.75 2.65 21.25
v -10.75 3.65 21.25
v -10.75 2.65 21.5
v -10.75 3.65 21.5
v -7 2.65 21.25
v -7 1.65 21.25
v -7 2.65 21.5
v -7 1.65 21.5
v -7 3.65 21.25
v -7 3.65 21.5
v -7 -1.35 21.25
v -7 -1.35 21.5
v -7.25 -1.35 21.75
v -10.25 -1.35 21.75
v -10.25 1.65 21.5
v -10.25 1.65 21.75
v -10.25 2.65 21.5
v -10.25 3.65 21.5
v -10.25 2.65 21.75
v -10.25 3.65 21.75
v -7.25 2.65 21.5
v -7.25 1.65 21.5
v -7.25 2.65 21.75
v -7.25 1.65 21.75
v -7.25 3.65 21.5
v -7.25 3.65 21.75
v -10.25 6.65 21.5
v -10.25 6.65 21.25
v -10.75 6.65 21.5
v -10.75 6.65 21.25
v -7.25 6.65 21.25
v -7.25 6.65 21.5
v -7 6.65 21.25
v -7 6.65 21.5
v -26.95 7.65 21.5
v -26.95 7.65 21.25
v -27.45 7.65 21.5
v -27.45 7.65 21.25
v -21.95 7.65 21.25
v -21.95 7.65 21.5
v -21.45 7.65 21.25
v -21.45 7.65 21.5

vt 26.95 17
vt 29.95 17
vt 26.95 21
vt 29.95 21
vt -17 2.65
vt -17 3.65
vt -21 2.65
vt -21 3.65
vt -17 1.65
vt -21 1.65
vt -17 -1.35
vt -21 -1.35
vt -26.95 1.65
vt -26.95 -1.35
vt -23.95 1.65
vt -23.95 -1.35
vt -26.95 2.65
vt -23.95 2.65
vt -26.95 3.65
vt -23.95 3.65
vt 23.95 17
vt 23.95 18
vt 23.95 21
vt 17 -1.35
vt 18 -1.35
vt 17 1.65
vt 18 1.65
vt 17 2.65
vt 18 2.65
vt 17 3.65
vt 18 3.65
vt 21.95 18
vt 21.95 21
vt -21.95 1.65
vt -21.95 -1.35
vt -21.95 2.65
vt -21.95 3.65
vt 11.95 18
vt 11.95 21
vt -11.95 1.65
vt -11.95 -1.35
vt -11.95 2.65
vt -11.95 3.65
vt 11.95 -1.35
vt 21.95 -1.35
vt 11.95 1.65
vt 21.95 1.65
vt 11.95 2.65
vt 21.95 2.65
vt 11.95 3.65
vt 21.95 3.65
vt 23.95 21.25
vt 26.95 21.25
vt 21.95 21.25
vt -21.25 -1.35
vt -21.25 1.65
vt -21.25 2.65
vt -21.25 3.65
vt 21 1.65
vt 21 -1.35
vt 21.25 1.65
vt 21.25 -1.35
vt 21 2.65
vt 21.25 2.65
vt 21 3.65
vt 21.25 3.65
vt 23.95 21.5
vt 26.95 21.5
vt 21.95 21.5
vt -21.5 -1.35
vt -21.5 1.65
vt -21.5 2.65
vt -21.5 3.65
vt 21.5 1.65
vt 21.5 -1.35
vt 21.5 2.65
vt 21.5 3.65
vt 23.95 21.75
vt 26.95 21.75
vt 21.95 21.75
vt -21.75 -1.35
vt -21.75 1.65
vt -21.75 2.65
vt -21.75 3.65
vt 21.75 1.65
vt 21.75 -1.35
vt 21.75 2.65
vt 21.75 3.65
vt 10.25 18
vt 10.25 21
vt 10.25 -1.35
vt 10.25 1.65
vt 10.25 2.65
vt 10.25 3.65
vt 11.95 16
vt 10.25 16
vt -18 1.65
vt -18 -1.35
vt -16 1.65
vt -16 -1.35
vt -18 2.65
vt -16 2.65
vt -18 3.65
vt -16 3.65
vt -10.25 -1.35
vt -10.25 1.65
vt -10.25 2.65
vt -10.25 3.65
vt 7.75 16
vt 7.75 18
vt -7.75 1.8
vt -7.75 -1.35
vt -7.75 2.65
vt -7.75 3.65
vt 7.25 21
vt 5.25 18
vt 5.25 21
vt 7.775445 16
vt 7.775445 18
vt 5.274945 16
vt 5.275945 18
vt 4.25 18
vt 4.25 21
vt 5.178531 16.03397
vt 5.176034 18.03459
vt 4.177281 16.03397
vt 4.177281 18.03334
vt 5.25 -1.35
vt 7.25 -1.35
vt 5.25 1.65
vt 7.25 1.65
vt 4.25 -1.35
vt 4.25 1.65
vt -5.25 -1.3
vt -4.25 -1.35
vt -5.25 1.8
vt -4.25 1.65
vt 16 -1.35
vt 16 1.65
vt 5.25 2.65
vt 7.25 2.65
vt 4.25 2.65
vt -5.25 2.65
vt -4.25 2.65
vt 16 2.65
vt 5.25 3.65
vt 7.25 3.65
vt 4.25 3.65
vt -5.25 3.65
vt -4.25 3.65
vt 16 3.65
vt -5.25 16
vt -7.75 16
vt -5.25 15.6
vt -7.75 15.6
vt -16 1.8
vt -15.6 1.8
vt -15.6 -1.35
vt 16 -1.3
vt 16 1.8
vt 15.6 -1.25
vt 15.6 1.8
vt 7.775445 15.6
vt 5.273945 15.6
vt 7.25 21.25
vt 10.25 21.25
vt 7.25 21.5
vt 10.25 21.5
vt 7.25 21.75
vt 10.25 21.75
vt -10.75 1.65
vt -10.75 -1.35
vt 10.75 21.25
vt 10.75 21.5
vt 10.75 -1.35
vt 10.75 1.65
vt 10.75 2.65
vt -10.75 2.65
vt 10.75 3.65
vt -10.75 3.65
vt -10.25 21.5
vt -10.25 21.25
vt -10.75 21.5
vt -10.75 21.25
vt -7.25 -1.35
vt -7.25 1.65
vt -7 -1.35
vt -7 1.65
vt -7.25 2.65
vt -7.25 3.65
vt -7 2.65
vt -7 3.65
vt 7 1.65
vt 7 -1.35
vt 7 21.5
vt 7 21.25
vt 7 2.65
vt -7.25 21.25
vt -7.25 21.5
vt -7 21.25
vt -7 21.5
vt 7 3.65
vt -27.45 3.65
vt -27.45 2.65
vt -27.45 1.65
vt -27.45 -1.35
vt 26.95 2.65
vt 26.95 3.65
vt 27.45 2.65
vt 27.45 3.65
vt -26.95 21.5
vt -26.95 21.25
vt -27.45 21.5
vt -27.45 21.25
vt 26.95 1.65
vt 27.45 1.65
vt 27.45 21.25
vt 27.45 21.5
vt 26.95 -1.35
vt 27.45 -1.35
vt -21.45 2.65
vt -21.45 3.65
vt -21.95 21.25
vt -21.95 21.5
vt -21.45 21.25
vt -21.45 21.5
vt 21.45 3.65
vt 21.45 2.65
vt 21.45 1.65
vt -21.45 1.65
vt 21.45 -1.35
vt -21.45 -1.35
vt 21.45 21.5
vt 21.45 21.25
vt -7.25 21
vt -10.25 21
vt -10.25 21.75
vt -7.25 21.75
vt -7.25 6.65
vt -10.25 6.65
vt -7 6.65
vt 7.25 6.65
vt 7 6.65
vt 21.5 6.65
vt 21.25 6.65
vt 10.75 6.65
vt 10.25 6.65
vt -10.75 6.65
vt -21.25 6.65
vt -21.5 6.65
vt -21.95 21
vt -26.95 21
vt -26.95 21.75
vt -21.95 21.75
vt 27.45 7.65
vt 26.95 7.65
vt 21.95 7.65
vt -21.45 7.65
vt -21.95 7.65
vt -26.95 7.65
vt -27.45 7.65
vt -21.25 7.65
vt -21.5 7.65
vt 21.45 7.65
vt 21.5 7.65
vt 21.25 7.65
vt -29.95 21
vt -29.95 17
vt -26.95 17
vt -23.95 17
vt -23.95 18
vt -21.95 18
vt -11.95 18
vt -11.95 16
vt -10.25 16
vt -4.25 16
vt -4.25 18
vt -4.25 21
vt -5.25 21
vt -11.95 21

vn 0 1 0
vn 1 0 0
vn 0 0 1
vn -1 0 0
vn 0 0 -1
vn -0.01999598 0.9998001 0
vn -0.009997992 0.9997439 0.01249608
vn 0 0.9996877 0.02499217
vn 0.04992201 0.9984412 0.024961
vn 0.024961 0.9992206 0.0124805
vn 0 -1 0
vn -0.02982792 0.9956487 0.06196843
vn -0.03965985 0.9914973 0.1239369

usemtl Concrete024-Warm
f 127/277/11 124/278/11 122/279/11
f 122/279/11 123/235/11 127/277/11
f 127/277/11 123/235/11 102/153/11
f 125/152/11 127/277/11 102/153/11
f 125/152/11 126/276/11 127/277/11
f 102/153/11 123/235/11 89/236/11
f 89/236/11 97/275/11 102/153/11
f 97/275/11 89/236/11 32/273/11
f 32/273/11 94/274/11 97/275/11
f 37/280/11 32/273/11 89/236/11
f 27/272/11 32/273/11 37/280/11
f 38/251/11 27/272/11 37/280/11
f 22/271/11 27/272/11 38/251/11
f 46/252/11 22/271/11 38/251/11
f 46/252/11 16/269/11 22/271/11
f 6/268/11 16/269/11 46/252/11
f 8/267/11 6/268/11 46/252/11
f 16/269/11 17/270/11 22/271/11
f 7/7/2 5/5/2 6/6/2
f 6/6/2 8/8/2 7/7/2
f 10/10/2 9/9/2 5/5/2
f 5/5/2 7/7/2 10/10/2
f 4/12/2 2/11/2 9/9/2
f 9/9/2 10/10/2 4/12/2
f 12/15/3 11/13/3 1/14/3
f 1/14/3 13/16/3 12/15/3
f 15/18/3 14/17/3 11/13/3
f 11/13/3 12/15/3 15/18/3
f 17/20/3 16/19/3 14/17/3
f 14/17/3 15/18/3 17/20/3
f 12/26/4 13/24/4 18/25/4
f 18/25/4 20/27/4 12/26/4
f 15/28/4 12/26/4 20/27/4
f 20/27/4 21/29/4 15/28/4
f 17/30/4 15/28/4 21/29/4
f 21/29/4 22/31/4 17/30/4
f 25/34/3 20/15/3 18/16/3
f 18/16/3 23/35/3 25/34/3
f 26/36/3 21/18/3 20/15/3
f 20/15/3 25/34/3 26/36/3
f 27/37/3 22/20/3 21/18/3
f 21/18/3 26/36/3 27/37/3
f 30/40/3 25/34/3 23/35/3
f 23/35/3 28/41/3 30/40/3
f 31/42/3 26/36/3 25/34/3
f 25/34/3 30/40/3 31/42/3
f 32/43/3 27/37/3 26/36/3
f 26/36/3 31/42/3 32/43/3
f 33/46/5 29/44/5 24/45/5
f 24/45/5 34/47/5 33/46/5
f 35/48/5 33/46/5 34/47/5
f 34/47/5 36/49/5 35/48/5
f 37/50/5 35/48/5 36/49/5
f 36/49/5 38/51/5 37/50/5
f 40/55/2 3/12/2 42/10/2
f 42/10/2 43/56/2 40/55/2
f 43/56/2 42/10/2 44/7/2
f 44/7/2 45/57/2 43/56/2
f 45/57/2 44/7/2 46/8/2
f 46/8/2 47/58/2 45/57/2
f 48/61/4 34/59/4 24/60/4
f 24/60/4 41/62/4 48/61/4
f 49/64/4 36/63/4 34/59/4
f 34/59/4 48/61/4 49/64/4
f 50/66/4 38/65/4 36/63/4
f 36/63/4 49/64/4 50/66/4
f 56/70/2 54/55/2 55/56/2
f 55/56/2 57/71/2 56/70/2
f 57/71/2 55/56/2 58/57/2
f 58/57/2 59/72/2 57/71/2
f 59/72/2 58/57/2 60/58/2
f 60/58/2 61/73/2 59/72/2
f 64/74/4 62/61/4 63/62/4
f 63/62/4 65/75/4 64/74/4
f 67/76/4 66/64/4 62/61/4
f 62/61/4 64/74/4 67/76/4
f 69/77/4 68/66/4 66/64/4
f 66/64/4 67/76/4 69/77/4
f 71/81/2 52/70/2 73/71/2
f 73/71/2 74/82/2 71/81/2
f 74/82/2 73/71/2 75/72/2
f 75/72/2 76/83/2 74/82/2
f 76/83/2 75/72/2 77/73/2
f 77/73/2 78/84/2 76/83/2
f 80/85/4 79/74/4 53/75/4
f 53/75/4 72/86/4 80/85/4
f 82/87/4 81/76/4 79/74/4
f 79/74/4 80/85/4 82/87/4
f 84/88/4 83/77/4 81/76/4
f 81/76/4 82/87/4 84/88/4
f 86/91/5 29/44/5 33/46/5
f 33/46/5 87/92/5 86/91/5
f 87/92/5 33/46/5 35/48/5
f 35/48/5 88/93/5 87/92/5
f 88/93/5 35/48/5 37/50/5
f 37/50/5 89/94/5 88/93/5
f 92/99/2 30/97/2 28/98/2
f 28/98/2 90/100/2 92/99/2
f 93/102/2 31/101/2 30/97/2
f 30/97/2 92/99/2 93/102/2
f 94/104/2 32/103/2 31/101/2
f 31/101/2 93/102/2 94/104/2
f 92/40/3 90/41/3 91/105/3
f 91/105/3 95/106/3 92/40/3
f 93/42/3 92/40/3 95/106/3
f 95/106/3 96/107/3 93/42/3
f 94/43/3 93/42/3 96/107/3
f 96/107/3 97/108/3 94/43/3
f 100/111/3 95/106/3 91/105/3
f 91/105/3 98/112/3 100/111/3
f 101/113/3 96/107/3 95/106/3
f 95/106/3 100/111/3 101/113/3
f 102/114/3 97/108/3 96/107/3
f 96/107/3 101/113/3 102/114/3
f 110/130/5 105/128/5 103/129/5
f 103/129/5 111/131/5 110/130/5
f 112/133/5 108/132/5 105/128/5
f 105/128/5 110/130/5 112/133/5
f 113/136/3 106/134/3 109/135/3
f 109/135/3 114/137/3 113/136/3
f 114/139/4 109/138/4 107/25/4
f 107/25/4 115/27/4 114/139/4
f 115/27/4 107/25/4 108/60/4
f 108/60/4 112/59/4 115/27/4
f 116/140/5 110/130/5 111/131/5
f 111/131/5 117/141/5 116/140/5
f 118/142/5 112/133/5 110/130/5
f 110/130/5 116/140/5 118/142/5
f 119/143/3 113/136/3 114/137/3
f 114/137/3 120/144/3 119/143/3
f 120/145/4 114/139/4 115/27/4
f 115/27/4 121/29/4 120/145/4
f 121/29/4 115/27/4 112/59/4
f 112/59/4 118/63/4 121/29/4
f 122/146/5 116/140/5 117/141/5
f 117/141/5 123/147/5 122/146/5
f 124/148/5 118/142/5 116/140/5
f 116/140/5 122/146/5 124/148/5
f 125/149/3 119/143/3 120/144/3
f 120/144/3 126/150/3 125/149/3
f 126/151/4 120/145/4 121/29/4
f 121/29/4 127/31/4 126/151/4
f 127/31/4 121/29/4 118/63/4
f 118/63/4 124/65/4 127/31/4
f 125/149/3 102/114/3 101/113/3
f 101/113/3 119/143/3 125/149/3
f 119/143/3 101/113/3 100/111/3
f 100/111/3 113/136/3 119/143/3
f 128/154/11 113/152/11 100/153/11
f 100/153/11 129/155/11 128/154/11
f 129/157/2 100/156/2 98/100/2
f 98/100/2 130/158/2 129/157/2
f 131/161/4 106/159/4 113/160/4
f 113/160/4 128/162/4 131/161/4
f 133/55/2 86/12/2 87/10/2
f 87/10/2 134/56/2 133/55/2
f 135/57/2 88/7/2 89/8/2
f 89/8/2 136/58/2 135/57/2
f 134/56/2 87/10/2 88/7/2
f 88/7/2 135/57/2 134/56/2
f 137/64/4 117/63/4 111/59/4
f 111/59/4 138/61/4 137/64/4
f 139/66/4 123/65/4 117/63/4
f 117/63/4 137/64/4 139/66/4
f 138/61/4 111/59/4 103/60/4
f 103/60/4 132/62/4 138/61/4
f 144/70/2 142/55/2 143/56/2
f 143/56/2 145/71/2 144/70/2
f 148/72/2 146/57/2 147/58/2
f 147/58/2 149/73/2 148/72/2
f 145/71/2 143/56/2 146/57/2
f 146/57/2 148/72/2 145/71/2
f 152/76/4 150/64/4 151/61/4
f 151/61/4 153/74/4 152/76/4
f 155/77/4 154/66/4 150/64/4
f 150/64/4 152/76/4 155/77/4
f 153/74/4 151/61/4 156/62/4
f 156/62/4 157/75/4 153/74/4
f 159/81/2 141/70/2 160/71/2
f 160/71/2 161/82/2 159/81/2
f 164/83/2 162/72/2 163/73/2
f 163/73/2 165/84/2 164/83/2
f 161/82/2 160/71/2 162/72/2
f 162/72/2 164/83/2 161/82/2
f 168/87/4 166/76/4 167/74/4
f 167/74/4 169/85/4 168/87/4
f 171/88/4 170/77/4 166/76/4
f 166/76/4 168/87/4 171/88/4
f 169/85/4 167/74/4 140/75/4
f 140/75/4 158/86/4 169/85/4
f 142/172/3 133/105/3 134/106/3
f 134/106/3 143/171/3 142/172/3
f 144/174/1 141/168/1 133/166/1
f 133/166/1 142/173/1 144/174/1
f 145/176/5 160/92/5 141/91/5
f 141/91/5 144/175/5 145/176/5
f 148/177/5 162/93/5 160/92/5
f 160/92/5 145/176/5 148/177/5
f 143/171/3 134/106/3 135/107/3
f 135/107/3 146/178/3 143/171/3
f 149/179/5 163/94/5 162/93/5
f 162/93/5 148/177/5 149/179/5
f 146/178/3 135/107/3 136/108/3
f 136/108/3 147/180/3 146/178/3
f 175/184/11 173/182/11 172/181/11
f 172/181/11 174/183/11 175/184/11
f 151/188/3 138/186/3 132/185/3
f 132/185/3 156/187/3 151/188/3
f 154/192/3 139/190/3 137/189/3
f 137/189/3 150/191/3 154/192/3
f 157/194/5 140/129/5 167/131/5
f 167/131/5 153/193/5 157/194/5
f 156/196/1 132/165/1 140/167/1
f 140/167/1 157/195/1 156/196/1
f 150/191/3 137/189/3 138/186/3
f 138/186/3 151/188/3 150/191/3
f 153/193/5 167/131/5 166/141/5
f 166/141/5 152/197/5 153/193/5
f 179/201/11 177/199/11 176/198/11
f 176/198/11 178/200/11 179/201/11
f 152/197/5 166/141/5 170/147/5
f 170/147/5 155/202/5 152/197/5
f 58/204/3 45/17/3 47/19/3
f 47/19/3 60/203/3 58/204/3
f 54/206/3 40/14/3 43/13/3
f 43/13/3 55/205/3 54/206/3
f 61/210/5 77/208/5 75/207/5
f 75/207/5 59/209/5 61/210/5
f 183/214/11 181/212/11 180/211/11
f 180/211/11 182/213/11 183/214/11
f 55/205/3 43/13/3 45/17/3
f 45/17/3 58/204/3 55/205/3
f 59/209/5 75/207/5 73/215/5
f 73/215/5 57/216/5 59/209/5
f 56/218/1 52/68/1 40/53/1
f 40/53/1 54/217/1 56/218/1
f 57/216/5 73/215/5 52/219/5
f 52/219/5 56/220/5 57/216/5
f 68/222/3 50/37/3 49/36/3
f 49/36/3 66/221/3 68/222/3
f 187/226/11 185/224/11 184/223/11
f 184/223/11 186/225/11 187/226/11
f 67/228/5 81/49/5 83/51/5
f 83/51/5 69/227/5 67/228/5
f 64/229/5 79/47/5 81/49/5
f 81/49/5 67/228/5 64/229/5
f 66/221/3 49/36/3 48/34/3
f 48/34/3 62/230/3 66/221/3
f 65/231/5 53/45/5 79/47/5
f 79/47/5 64/229/5 65/231/5
f 62/230/3 48/34/3 41/35/3
f 41/35/3 63/232/3 62/230/3
f 63/234/1 41/54/1 53/69/1
f 53/69/1 65/233/1 63/234/1
f 139/198/11 136/182/11 89/236/11
f 89/236/11 123/235/11 139/198/11
f 177/199/11 172/181/11 173/182/11
f 173/182/11 176/198/11 177/199/11
f 171/238/11 165/237/11 163/181/11
f 163/181/11 170/199/11 171/238/11
f 173/240/3 136/108/3 139/190/3
f 139/190/3 176/239/3 173/240/3
f 176/239/3 139/190/3 154/192/3
f 154/192/3 178/241/3 176/239/3
f 179/243/5 155/202/5 170/147/5
f 170/147/5 177/242/5 179/243/5
f 178/245/4 154/66/4 155/77/4
f 155/77/4 179/244/4 178/245/4
f 172/247/5 163/94/5 149/179/5
f 149/179/5 174/246/5 172/247/5
f 177/242/5 170/147/5 163/94/5
f 163/94/5 172/247/5 177/242/5
f 175/248/3 147/180/3 136/108/3
f 136/108/3 173/240/3 175/248/3
f 174/250/2 149/73/2 147/58/2
f 147/58/2 175/249/2 174/250/2
f 50/223/11 47/212/11 46/252/11
f 46/252/11 38/251/11 50/223/11
f 185/224/11 180/211/11 181/212/11
f 181/212/11 184/223/11 185/224/11
f 84/254/11 78/253/11 77/211/11
f 77/211/11 83/224/11 84/254/11
f 180/256/5 77/208/5 61/210/5
f 61/210/5 182/255/5 180/256/5
f 185/257/5 83/51/5 77/208/5
f 77/208/5 180/256/5 185/257/5
f 184/259/3 50/37/3 68/222/3
f 68/222/3 186/258/3 184/259/3
f 181/260/3 47/19/3 50/37/3
f 50/37/3 184/259/3 181/260/3
f 183/261/3 60/203/3 47/19/3
f 47/19/3 181/260/3 183/261/3
f 182/263/2 61/73/2 60/58/2
f 60/58/2 183/262/2 182/263/2
f 187/264/5 69/227/5 83/51/5
f 83/51/5 185/257/5 187/264/5
f 186/266/4 68/66/4 69/77/4
f 69/77/4 187/265/4 186/266/4

usemtl Concrete024-Ground
f 18/22/1 13/21/1 1/1/1
f 3/3/1 18/22/1 1/1/1
f 3/3/1 19/23/1 18/22/1
f 3/3/1 1/1/1 2/2/1
f 2/2/1 4/4/1 3/3/1
f 23/32/1 18/22/1 19/23/1
f 19/23/1 24/33/1 23/32/1
f 28/38/1 23/32/1 24/33/1
f 24/33/1 29/39/1 28/38/1
f 85/89/1 28/38/1 29/39/1
f 29/39/1 86/90/1 85/89/1
f 90/95/1 28/38/1 85/89/1
f 85/89/1 91/96/1 90/95/1
f 98/109/1 91/96/1 85/89/1
f 85/89/1 99/110/1 98/109/1
f 99/110/1 85/89/1 86/90/1
f 86/90/1 103/115/1 99/110/1
f 104/116/1 99/110/1 103/115/1
f 103/115/1 105/117/1 104/116/1
f 106/120/7 98/118/6 99/119/7
f 99/119/7 104/121/8 106/120/7
f 107/122/1 104/116/1 105/117/1
f 105/117/1 108/123/1 107/122/1
f 109/126/10 106/124/9 104/125/10
f 104/125/10 107/127/1 109/126/10
f 130/163/12 98/118/6 106/120/12
f 106/120/12 131/164/13 130/163/12

usemtl Metal011-Warning-Line1
f 40/53/1 39/52/1 19/23/1 3/3/1
f 39/52/1 41/54/1 24/33/1 19/23/1
f 52/68/1 51/67/1 39/52/1 40/53/1
f 51/67/1 53/69/1 41/54/1 39/52/1
f 71/79/1 70/78/1 51/67/1 52/68/1
f 70/78/1 72/80/1 53/69/1 51/67/1
f 133/166/1 132/165/1 103/115/1 86/90/1
f 141/168/1 140/167/1 132/165/1 133/166/1
f 159/170/1 158/169/1 140/167/1 141/168/1

