# ProBuilder 5.0.6
# https://unity3d.com/unity/features/worldbuilding/probuilder
# 1/23/2023 1:30:21 AM

mtllib ./L28-Hallway-0.mtl
o L28-Hallway-0

g L28-Hallway-0
v -1.25 -0.5 2
v 1.25 -0.5 2
v -1.25 -0.5 -1
v 1.25 -0.5 -1
v -5.25 -1.25 2
v -5.25 -1.25 -1
v -7.75 -1.35 2
v -7.75 -1.35 -1
v -5.25 -1.25 2.15
v -7.75 -1.35 2.15
v -12.45 -1.35 2
v -12.45 -1.35 -1
v 4.25 -0.5 -1
v 4.25 -0.5 2
v 4.25 2.5 2
v 1.25 3 2
v -1.25 3 2
v -5.25 1.75 2
v -7.75 1.65 2
v -12.45 1.65 2
v -7.75 1.65 -1
v -5.25 1.75 -1
v -1.25 2.5 -1
v 1.25 2.5 -1
v 4.25 2.5 -1
v -12.45 1.65 -1
v 4.25 3.5 2
v 1.25 3.5 2
v -1.25 3.5 2
v -5.25 2.75 2
v -7.75 2.65 2
v -12.45 2.65 2
v -7.75 2.65 -1
v -5.25 2.75 -1
v -1.25 3.5 -1
v 1.25 3.5 -1
v 4.25 3.5 -1
v -12.45 2.65 -1
v -5.25 1.75 2.15
v -7.75 1.65 2.15
v -14.95 1.65 -1
v -14.95 2.65 -1
v -14.95 -1.35 2
v -14.95 -1.35 -1
v -14.95 1.65 2
v -14.95 2.65 2
v -26.95 1.65 -1
v -26.95 2.65 -1
v -26.95 -1.35 2
v -26.95 -1.35 -1
v -26.95 1.65 2
v -26.95 2.65 2
v 4.25 4.5 2
v 1.25 4.5 2
v 1.25 4.5 -1
v 4.25 4.5 -1
v -1.25 4.5 -1
v -1.25 4.5 2
v -5.25 3.75 2
v -7.75 3.65 2
v -12.45 3.65 2
v -14.95 3.65 2
v -26.95 3.65 2
v -26.95 3.65 -1
v -14.95 3.65 -1
v -12.45 3.65 -1
v -7.75 3.65 -1
v -5.25 3.75 -1
v -29.95 -1.35 2
v -29.95 -1.35 -1
v -29.95 1.65 -1
v -29.95 2.65 -1
v -29.95 3.65 -1
v -29.95 1.65 2
v -29.95 2.65 2
v -29.95 3.65 2
v -26.95 -1.35 21
v -29.95 -1.35 21
v -26.95 1.65 21
v -29.95 1.65 21
v -26.95 2.65 21
v -29.95 2.65 21
v -26.95 3.65 21
v -29.95 3.65 21
v 1.25 0 2
v -1.25 0 2

vt 1.25 2
vt -1.25 2
vt 1.25 -1
vt -1.25 -1
vt 1.320735 2
vt 1.320735 -1
vt 5.39044 2
vt 5.39044 -1
vt 5.295765 2
vt 5.295765 -1
vt 7.797764 2
vt 7.797764 -1
vt 5.295765 2.15
vt 7.797765 2.15
vt 7.75 2
vt 7.75 -1
vt 12.45 2
vt 12.45 -1
vt -4.25 -1
vt -4.25 2
vt -4.25 -0.5
vt -1.25 -0.5
vt -4.25 2.5
vt -1.25 3
vt 1.25 -0.5
vt 5.25 -1.25
vt 1.25 3
vt 5.25 1.75
vt 7.75 -1.35
vt 12.45 -1.35
vt 7.75 1.65
vt 12.45 1.65
vt -7.75 -1.35
vt -5.25 -1.25
vt -7.75 1.65
vt -5.25 1.75
vt -1.25 2.5
vt 4.25 -0.5
vt 1.25 2.5
vt 4.25 2.5
vt -12.45 -1.35
vt -12.45 1.65
vt -4.25 3.5
vt -1.25 3.5
vt 1.25 3.5
vt 5.25 2.75
vt 7.75 2.65
vt 12.45 2.65
vt -7.75 2.65
vt -5.25 2.75
vt 4.25 3.5
vt -12.45 2.65
vt 2 1.75
vt 2 -1.25
vt 2.15 1.75
vt 2.15 -1.25
vt -7.67786 2
vt -5.175861 2
vt -7.67786 2.15
vt -5.175861 2.15
vt -2 -1.35
vt -2 1.65
vt -2.15 -1.35
vt -2.15 1.65
vt -14.95 1.65
vt -14.95 2.65
vt 14.95 2
vt 14.95 -1
vt 14.95 1.65
vt 14.95 -1.35
vt 14.95 2.65
vt -26.95 1.65
vt -26.95 2.65
vt 26.95 2
vt 26.95 -1
vt 26.95 1.65
vt 26.95 -1.35
vt 26.95 2.65
vt -26.95 -1.35
vt -14.95 -1.35
vt -4.25 4.5
vt -1.25 4.5
vt 1.25 4.5
vt 4.25 4.5
vt 5.25 3.75
vt 7.75 3.65
vt 12.45 3.65
vt 14.95 3.65
vt 26.95 3.65
vt -26.95 3.65
vt -14.95 3.65
vt -12.45 3.65
vt -7.75 3.65
vt -5.25 3.75
vt 29.95 2
vt 29.95 -1
vt -29.95 -1.35
vt -29.95 1.65
vt -29.95 2.65
vt -29.95 3.65
vt 1 -1.35
vt 1 1.65
vt -2 2.65
vt 1 2.65
vt -2 3.65
vt 1 3.65
vt 29.95 -1.35
vt 29.95 1.65
vt 29.95 2.65
vt 29.95 3.65
vt -1.25 0
vt 1.25 0
vt 4.25 2
vt 4.25 -1
vt -0.3992918 2
vt -4.468997 2
vt -4.468997 -1
vt -0.3992918 -1
vt -5.239171 2
vt -7.739449 2
vt -12.43943 2
vt -14.93942 2
vt -26.93937 2
vt -26.93937 -1
vt -14.93942 -1
vt -12.43943 -1
vt -7.739449 -1
vt -5.239171 -1

vn 0 1 0
vn -0.1842885 0.9828721 0
vn -0.0399681 0.9992009 0
vn 0 0 -1
vn 0 0 1
vn -1 0 0
vn 0.0399681 -0.999201 0
vn 1 0 0
vn 0 -1 0
vn 0.1842885 -0.9828721 0
vn 0.0133227 -0.9997336 0
vn 0.0266454 -0.9994673 0

usemtl Concrete024-Warm
f 54/1/9 55/3/9 53/113/9
f 57/4/9 55/3/9 54/1/9
f 58/2/9 57/4/9 54/1/9
f 55/3/9 56/114/9 53/113/9
f 60/120/11 67/127/12 59/119/7
f 66/126/9 67/127/12 60/120/11
f 61/121/9 66/126/9 60/120/11
f 65/125/9 66/126/9 61/121/9
f 62/122/9 65/125/9 61/121/9
f 64/124/9 65/125/9 62/122/9
f 63/123/9 64/124/9 62/122/9
f 67/127/12 68/128/7 59/119/7
f 15/23/4 14/21/4 2/22/4
f 2/22/4 16/24/4 15/23/4
f 17/27/4 1/25/4 5/26/4
f 5/26/4 18/28/4 17/27/4
f 19/31/4 7/29/4 11/30/4
f 11/30/4 20/32/4 19/31/4
f 21/35/5 8/33/5 6/34/5
f 6/34/5 22/36/5 21/35/5
f 22/36/5 6/34/5 3/22/5
f 3/22/5 23/37/5 22/36/5
f 24/39/5 4/25/5 13/38/5
f 13/38/5 25/40/5 24/39/5
f 26/42/5 12/41/5 8/33/5
f 8/33/5 21/35/5 26/42/5
f 23/37/5 3/22/5 4/25/5
f 4/25/5 24/39/5 23/37/5
f 27/43/4 15/23/4 16/24/4
f 16/24/4 28/44/4 27/43/4
f 29/45/4 17/27/4 18/28/4
f 18/28/4 30/46/4 29/45/4
f 31/47/4 19/31/4 20/32/4
f 20/32/4 32/48/4 31/47/4
f 33/49/5 21/35/5 22/36/5
f 22/36/5 34/50/5 33/49/5
f 34/50/5 22/36/5 23/37/5
f 23/37/5 35/44/5 34/50/5
f 36/45/5 24/39/5 25/40/5
f 25/40/5 37/51/5 36/45/5
f 38/52/5 26/42/5 21/35/5
f 21/35/5 33/49/5 38/52/5
f 35/44/5 23/37/5 24/39/5
f 24/39/5 36/45/5 35/44/5
f 31/47/4 30/46/4 18/28/4
f 18/28/4 19/31/4 31/47/4
f 39/55/6 18/53/6 5/54/6
f 5/54/6 9/56/6 39/55/6
f 40/59/7 19/57/7 18/58/7
f 18/58/7 39/60/7 40/59/7
f 10/63/8 7/61/8 19/62/8
f 19/62/8 40/64/8 10/63/8
f 16/24/4 17/27/4 29/45/4
f 29/45/4 28/44/4 16/24/4
f 41/65/5 26/42/5 38/52/5
f 38/52/5 42/66/5 41/65/5
f 45/69/4 20/32/4 11/30/4
f 11/30/4 43/70/4 45/69/4
f 46/71/4 32/48/4 20/32/4
f 20/32/4 45/69/4 46/71/4
f 47/72/5 41/65/5 42/66/5
f 42/66/5 48/73/5 47/72/5
f 51/76/4 45/69/4 43/70/4
f 43/70/4 49/77/4 51/76/4
f 52/78/4 46/71/4 45/69/4
f 45/69/4 51/76/4 52/78/4
f 47/72/5 50/79/5 44/80/5
f 44/80/5 41/65/5 47/72/5
f 53/81/4 27/43/4 28/44/4
f 28/44/4 54/82/4 53/81/4
f 55/83/5 36/45/5 37/51/5
f 37/51/5 56/84/5 55/83/5
f 57/82/5 35/44/5 36/45/5
f 36/45/5 55/83/5 57/82/5
f 58/83/4 29/45/4 30/46/4
f 30/46/4 59/85/4 58/83/4
f 59/85/4 30/46/4 31/47/4
f 31/47/4 60/86/4 59/85/4
f 60/86/4 31/47/4 32/48/4
f 32/48/4 61/87/4 60/86/4
f 61/87/4 32/48/4 46/71/4
f 46/71/4 62/88/4 61/87/4
f 62/88/4 46/71/4 52/78/4
f 52/78/4 63/89/4 62/88/4
f 64/90/5 48/73/5 42/66/5
f 42/66/5 65/91/5 64/90/5
f 65/91/5 42/66/5 38/52/5
f 38/52/5 66/92/5 65/91/5
f 66/92/5 38/52/5 33/49/5
f 33/49/5 67/93/5 66/92/5
f 67/93/5 33/49/5 34/50/5
f 34/50/5 68/94/5 67/93/5
f 68/94/5 34/50/5 35/44/5
f 35/44/5 57/82/5 68/94/5
f 54/82/4 28/44/4 29/45/4
f 29/45/4 58/83/4 54/82/4
f 70/97/5 50/79/5 47/72/5
f 47/72/5 71/98/5 70/97/5
f 71/98/5 47/72/5 48/73/5
f 48/73/5 72/99/5 71/98/5
f 72/99/5 48/73/5 64/90/5
f 64/90/5 73/100/5 72/99/5
f 74/62/8 69/61/8 70/101/8
f 70/101/8 71/102/8 74/62/8
f 75/103/8 74/62/8 71/102/8
f 71/102/8 72/104/8 75/103/8
f 76/105/8 75/103/8 72/104/8
f 72/104/8 73/106/8 76/105/8
f 79/76/4 77/77/4 78/107/4
f 78/107/4 80/108/4 79/76/4
f 81/78/4 79/76/4 80/108/4
f 80/108/4 82/109/4 81/78/4
f 83/89/4 81/78/4 82/109/4
f 82/109/4 84/110/4 83/89/4
f 57/118/10 58/115/10 59/116/10
f 59/116/10 68/117/10 57/118/10

usemtl Concrete024-Ground
f 4/4/1 3/3/1 1/1/1 2/2/1
f 6/8/2 5/7/2 1/5/2 3/6/2
f 8/12/3 7/11/3 5/9/3 6/10/3
f 10/14/3 9/13/3 5/9/3 7/11/3
f 12/18/1 11/17/1 7/15/1 8/16/1
f 14/20/1 13/19/1 4/4/1 2/2/1
f 44/68/1 43/67/1 11/17/1 12/18/1
f 50/75/1 49/74/1 43/67/1 44/68/1
f 70/96/1 69/95/1 49/74/1 50/75/1
f 86/112/4 85/111/4 2/22/4 1/25/4

