# ProBuilder 5.0.6
# https://unity3d.com/unity/features/worldbuilding/probuilder
# 1/23/2023 1:30:21 AM

mtllib ./L28-Hallway-4.mtl
o L28-Hallway-4

g L28-Hallway-4
v 14.8 -1.35 32.75
v 17.8 -1.35 32.75
v 14.8 -1.35 2
v 17.8 -1.35 2
v 14.8 1.65 32.75
v 14.8 1.65 2
v 17.8 1.65 2
v 17.8 1.65 32.75
v 14.8 2.65 32.75
v 14.8 2.65 2
v 17.8 2.65 2
v 17.8 2.65 32.75
v 14.8 3.65 32.75
v 14.8 3.65 2
v 17.8 3.65 2
v 17.8 3.65 32.75

vt -14.8 32.75
vt -17.8 32.75
vt -14.8 2
vt -17.8 2
vt -32.75 -1.35
vt -2 -1.35
vt -32.75 1.65
vt -2 1.65
vt 2 -1.35
vt 32.75 -1.35
vt 2 1.65
vt 32.75 1.65
vt -32.75 2.65
vt -2 2.65
vt 2 2.65
vt 32.75 2.65
vt -32.75 3.65
vt -2 3.65
vt 2 3.65
vt 32.75 3.65
vt 14.8 32.75
vt 14.8 2
vt 17.8 2
vt 17.8 32.75

vn 0 1 0
vn 1 0 0
vn -1 0 0
vn 0 -1 0

usemtl Concrete024-Warm
f 6/8/2 5/7/2 1/5/2 3/6/2
f 8/12/3 7/11/3 4/9/3 2/10/3
f 10/14/2 9/13/2 5/7/2 6/8/2
f 12/16/3 11/15/3 7/11/3 8/12/3
f 14/18/2 13/17/2 9/13/2 10/14/2
f 16/20/3 15/19/3 11/15/3 12/16/3
f 15/23/4 16/24/4 13/21/4 14/22/4

usemtl Concrete024-Ground
f 4/4/1 3/3/1 1/1/1 2/2/1

