# ProBuilder 5.0.6
# https://unity3d.com/unity/features/worldbuilding/probuilder
# 1/23/2023 1:30:21 AM

mtllib ./L28-Hallway-5.mtl
o L28-Hallway-5

g L28-Hallway-5
v 14.8 -1.35 1.75
v 17.8 -1.35 1.75
v 14.8 -1.35 -0.75
v 17.8 -1.35 -0.75
v 14.8 -1.35 -1
v 17.8 -1.35 -1
v 17.8 -1.35 2
v 14.8 -1.35 2
v 17.8 1.65 1.75
v 17.8 1.65 2
v 17.8 1.65 -1
v 17.8 1.65 -0.75
v 14.8 1.65 -1
v 17.8 2.65 1.75
v 17.8 2.65 2
v 17.8 2.65 -1
v 17.8 2.65 -0.75
v 14.8 2.65 -1
v 17.8 3.65 1.75
v 17.8 3.65 2
v 17.8 3.65 -1
v 17.8 3.65 -0.75
v 14.8 3.65 -1
v 14.8 3.65 2

vt -14.8 1.75
vt -17.8 1.75
vt -14.8 -0.75
vt -17.8 -0.75
vt -14.8 -1
vt -17.8 -1
vt -17.8 2
vt -14.8 2
vt 1.75 -1.35
vt 2 -1.35
vt 1.75 1.65
vt 2 1.65
vt -1 -1.35
vt -0.75 -1.35
vt -1 1.65
vt -0.75 1.65
vt 14.8 -1.35
vt 17.8 -1.35
vt 14.8 1.65
vt 17.8 1.65
vt 1.75 2.65
vt 2 2.65
vt -1 2.65
vt -0.75 2.65
vt 14.8 2.65
vt 17.8 2.65
vt 1.75 3.65
vt 2 3.65
vt -1 3.65
vt -0.75 3.65
vt 14.8 3.65
vt 17.8 3.65
vt 17.8 2
vt 17.8 1.75
vt 17.8 -0.75
vt 17.8 -1
vt 14.8 -1
vt 14.8 2

vn 0 1 0
vn -1 0 0
vn 0 0 1
vn 0 -1 0

usemtl Concrete024-Warm
f 24/38/4 19/34/4 20/33/4
f 24/38/4 22/35/4 19/34/4
f 21/36/4 22/35/4 24/38/4
f 21/36/4 24/38/4 23/37/4
f 9/11/2 2/9/2 7/10/2
f 7/10/2 10/12/2 9/11/2
f 11/15/2 6/13/2 4/14/2
f 4/14/2 12/16/2 11/15/2
f 13/19/3 5/17/3 6/18/3
f 6/18/3 11/20/3 13/19/3
f 14/21/2 9/11/2 10/12/2
f 10/12/2 15/22/2 14/21/2
f 16/23/2 11/15/2 12/16/2
f 12/16/2 17/24/2 16/23/2
f 18/25/3 13/19/3 11/20/3
f 11/20/3 16/26/3 18/25/3
f 19/27/2 14/21/2 15/22/2
f 15/22/2 20/28/2 19/27/2
f 21/29/2 16/23/2 17/24/2
f 17/24/2 22/30/2 21/29/2
f 23/31/3 18/25/3 16/26/3
f 16/26/3 21/32/3 23/31/3
f 19/27/2 22/30/2 17/24/2
f 17/24/2 14/21/2 19/27/2
f 14/21/2 17/24/2 12/16/2
f 12/16/2 9/11/2 14/21/2

usemtl Concrete024-Ground
f 4/4/1 3/3/1 1/1/1 2/2/1
f 6/6/1 5/5/1 3/3/1 4/4/1
f 8/8/1 7/7/1 2/2/1 1/1/1

