# ProBuilder 5.0.6
# https://unity3d.com/unity/features/worldbuilding/probuilder
# 1/23/2023 1:30:21 AM

mtllib ./Silo.mtl
o Silo

g Silo
v -7.5 12.25 -6.000001
v 4.25 12.25 -6.000001
v -7.5 22.25 -6.000003
v 4.25 22.25 -6.000003
v 4.5 12.25 -5.000001
v 4.5 22.25 -5.000003
v 4.5 12.25 -4.500001
v 4.5 12.25 4.499999
v 4.5 22.25 -4.500003
v 4.5 22.25 4.499997
v -7.5 12.25 5.999999
v -7.5 22.25 5.999997
v 4.25 12.25 5.999999
v 4.25 22.25 5.999997
v 4.5 12.25 4.999999
v 4.5 22.25 4.999997

vt -7.5 12.25
vt 4.25 12.25
vt -7.5 22.25
vt 4.25 22.25
vt -4.79008 12.25
vt -3.759304 12.25
vt -4.790082 22.25
vt -3.759305 22.25
vt -4.500001 12.25
vt 4.499999 12.25
vt -4.500003 22.25
vt 4.499997 22.25
vt -5.999999 12.25
vt 6.000001 12.25
vt -5.999997 22.25
vt 6.000003 22.25
vt -4.25 12.25
vt 7.5 12.25
vt -4.25 22.25
vt 7.5 22.25
vt 3.759301 12.25
vt 4.790077 12.25
vt 3.759299 22.25
vt 4.790076 22.25
vt 4.999999 12.25
vt 4.999997 22.25
vt -5.000001 12.25
vt -5.000003 22.25

vn 0 1.430512E-07 1
vn -0.9701425 3.4695E-08 0.2425356
vn -1 0 0
vn 1 0 0
vn 0 -1.430512E-07 -1
vn -0.9701425 -3.4695E-08 -0.2425356

usemtl Concrete024-Warm
f 4/4/1 3/3/1 1/1/1 2/2/1
f 6/8/2 4/7/2 2/5/2 5/6/2
f 10/12/3 9/11/3 7/9/3 8/10/3
f 3/16/4 12/15/4 11/13/4 1/14/4
f 12/20/5 14/19/5 13/17/5 11/18/5
f 14/24/6 16/23/6 15/21/6 13/22/6
f 16/26/3 10/12/3 8/10/3 15/25/3
f 9/11/3 6/28/3 5/27/3 7/9/3

