# ProBuilder 5.0.6
# https://unity3d.com/unity/features/worldbuilding/probuilder
# 8/21/2022 5:23:57 PM

mtllib ./Thresher-Room-Capacitor.mtl
o Thresher-Room-Capacitor

g Thresher-Room-Capacitor
v 0.5 -1 3
v -0.5 -1 3
v 0.5 9 3
v -0.5 9 3
v -1 -1 2.5
v -1 -1 -4.5
v -1 9 2.5
v -1 9 -4.5
v -0.5 -1 -5
v 0.5 -1 -5
v -0.5 9 -5
v 0.5 9 -5
v 1 -1 -4.5
v 1 -1 2.5
v 1 9 -4.5
v 1 9 2.5
v 0.5 16 3
v -0.5 16 3
v 0.5 16 -1
v -0.5 16 -1
v 0.5 -11 -0.9999998
v -0.5 -11 -0.9999998
v 0.5 -11 3
v -0.5 -11 3
v 1 15.54043 -0.6969596
v 1 15.5 2.5
v -1 15.5 2.5
v -1 15.54043 -0.6969596
v 1 -10.5 2.5
v 1 -10.52109 -0.6436737
v -1 -10.52109 -0.6436737
v -1 -10.5 2.5

vt 0.5 -1
vt -0.5 -1
vt 0.5 9
vt -0.5 9
vt 2.5 -1
vt -4.5 -1
vt 2.5 9
vt -4.5 9
vt 4.5 -1
vt -2.5 -1
vt 4.5 9
vt -2.5 9
vt -0.5 3
vt 0.5 3
vt 0.5 -0.9999998
vt -0.5 -0.9999998
vt 0.5 16
vt -0.5 16
vt 0.6969596 15.54043
vt -2.5 15.5
vt 2.5 15.5
vt -0.6969596 15.54043
vt 0.5 5.333494
vt -0.5 5.333494
vt 0.5 13.39575
vt -0.5 13.39575
vt -0.5 0.9284767
vt 0.5 0.9284767
vt -0.5 -9.841853
vt 0.5 -9.841853
vt -2.5 -10.5
vt 0.6436737 -10.52109
vt -0.6436737 -10.52109
vt 2.5 -10.5
vt -0.5 -11
vt 0.5 -11
vt 1.767767 -1
vt 1.767767 9
vt 1.06066 -1
vt 1.06066 9
vt 1.767767 16
vt 1.06066 15.5
vt 1.06066 -10.5
vt 1.767767 -11
vt -2.474874 -1
vt -2.474874 9
vt -3.18198 -1
vt -3.18198 9
vt -2.474874 6.84497
vt 0.2142819 13.91666
vt -3.181981 6.84497
vt -0.3535534 14.39466
vt -3.18198 0.09622503
vt -0.3535532 -10.29608
vt -2.474874 0.09622503
vt 0.2519607 -9.807595
vt -10.96015 3
vt -10.96015 -1
vt -10.25305 2.5
vt -10.28163 -0.6969596
vt 7.247775 -0.9999998
vt 7.247775 3
vt 6.555418 -0.6436737
vt 6.540832 2.5
vt -0.1352113 14.07718
vt 2.72434 7.072658
vt 0.4222802 14.56936
vt 3.429928 7.089239
vt 3.18198 -1
vt 3.18198 9
vt 2.474874 -1
vt 2.474874 9
vt 0.4016089 -10.34906
vt 3.356219 0.008079857
vt -0.1986354 -9.85304
vt 2.649849 0.0164843
vt -1.767767 9
vt -1.767767 -1
vt -1.06066 9
vt -1.06066 -1
vt -1.06066 -10.5
vt -1.767767 -11
vt -1.767767 16
vt -1.06066 15.5
vt 10.45933 -1
vt 10.45933 3
vt 9.780209 -0.6969596
vt 9.752851 2.5
vt -7.424621 3
vt -7.424621 -0.9999998
vt -6.717515 2.5
vt -6.732425 -0.6436737

vn 0 0 1
vn -1 0 0
vn 0 0 -1
vn 1 0 0
vn 0 1 0
vn 0 -1 0
vn 0 0.4961389 -0.8682432
vn 0 -0.3713907 -0.9284767
vn -0.7071068 0 0.7071068
vn -0.7071068 0 -0.7071068
vn -0.6539855 0.3802708 -0.6539855
vn -0.6773661 0.3671107 -0.6366994
vn -0.7007468 0.3539505 -0.6194134
vn -0.6804138 -0.2721655 -0.6804138
vn -0.697261 -0.2674816 -0.6646244
vn -0.7141082 -0.2627977 -0.6488349
vn -0.7071068 0.7071068 0
vn -0.6903584 0.7230673 0.004672695
vn -0.6736101 0.7390279 0.00934539
vn -0.6917146 -0.722171 0
vn -0.7005866 -0.7134512 0.002363549
vn -0.7094585 -0.7047314 0.004727098
vn 0.7020934 0.3579413 -0.6155834
vn 0.6788517 0.3662878 -0.6355968
vn 0.6556101 0.3746343 -0.6556101
vn 0.7071068 0 -0.7071068
vn 0.713182 -0.260337 -0.6508425
vn 0.6964794 -0.2678336 -0.6653098
vn 0.6797767 -0.2753302 -0.6797771
vn 0.7071068 0 0.7071068
vn 0.6767158 0.7362444 0
vn 0.6941116 0.7194334 0.004442512
vn 0.7115074 0.7026224 0.008885024
vn 0.7071068 -0.7071068 0
vn 0.6985032 -0.7154978 0.0024278
vn 0.6898996 -0.7238888 0.0048556

usemtl Metal002-02
f 3/3/1 4/4/1 2/2/1 1/1/1
f 7/7/2 8/8/2 6/6/2 5/5/2
f 11/3/3 12/4/3 10/2/3 9/1/3
f 15/11/4 16/12/4 14/10/4 13/9/4
f 19/2/5 20/1/5 18/14/5 17/13/5
f 23/14/6 24/13/6 22/16/6 21/15/6
f 17/17/1 18/18/1 4/4/1 3/3/1
f 25/19/4 26/20/4 16/12/4 15/11/4
f 27/21/2 28/22/2 8/8/2 7/7/2
f 20/25/7 19/26/7 12/24/7 11/23/7
f 21/29/8 22/30/8 9/28/8 10/27/8
f 29/31/4 30/32/4 13/9/4 14/10/4
f 31/33/2 32/34/2 5/5/2 6/6/2
f 24/35/1 23/36/1 1/1/1 2/2/1
f 7/40/9 5/39/9 2/37/9 4/38/9
f 27/42/9 7/40/9 4/38/9 18/41/9
f 24/44/9 2/37/9 5/39/9 32/43/9
f 11/48/10 9/47/10 6/45/10 8/46/10
f 20/52/13 11/51/12 8/49/11 28/50/12
f 31/56/16 6/55/15 9/53/14 22/54/15
f 28/60/19 27/59/18 18/57/17 20/58/18
f 32/64/22 31/63/21 22/61/20 24/62/21
f 12/68/25 19/67/24 25/65/23 15/66/24
f 15/72/26 13/71/26 10/69/26 12/70/26
f 13/76/29 30/75/28 21/73/27 10/74/28
f 14/80/30 16/79/30 3/77/30 1/78/30
f 1/78/30 23/82/30 29/81/30 14/80/30
f 16/79/30 26/84/30 17/83/30 3/77/30
f 26/88/33 25/87/32 19/85/31 17/86/32
f 30/92/36 29/91/35 23/89/34 21/90/35

