# ProBuilder 5.0.6
# https://unity3d.com/unity/features/worldbuilding/probuilder
# 8/21/2022 5:23:57 PM

mtllib ./Thresher-Room-Walkway-Stair.mtl
o Thresher-Room-Walkway-Stair

g Thresher-Room-Walkway-Stair
v -2.5 -1.5 -3.5
v 2.5 -1.5 -3.5
v -2.5 -1.2 -3.5
v 2.5 -1.2 -3.5
v -2.5 -1.2 -2.8
v 2.5 -1.2 -2.8
v -2.5 -0.9 -2.8
v 2.5 -0.9 -2.8
v -2.5 -0.9 -2.1
v 2.5 -0.9 -2.1
v -2.5 -0.6 -2.1
v 2.5 -0.6 -2.1
v -2.5 -0.6 -1.4
v 2.5 -0.6 -1.4
v -2.5 -0.3 -1.4
v 2.5 -0.3 -1.4
v -2.5 -0.3 -0.6999999
v 2.5 -0.3 -0.6999999
v -2.5 0 -0.6999999
v 2.5 0 -0.6999999
v -2.5 0 0
v 2.5 0 0
v -2.5 0.3000001 0
v 2.5 0.3000001 0
v -2.5 0.3000001 0.7000002
v 2.5 0.3000001 0.7000002
v -2.5 0.6 0.7000002
v 2.5 0.6 0.7000002
v -2.5 0.6 1.4
v 2.5 0.6 1.4
v -2.5 0.9 1.4
v 2.5 0.9 1.4
v -2.5 0.9 2.1
v 2.5 0.9 2.1
v -2.5 1.2 2.1
v 2.5 1.2 2.1
v -2.5 1.2 2.8
v 2.5 1.2 2.8
v -2.5 1.5 2.8
v 2.5 1.5 2.8
v -2.5 1.5 3.5
v 2.5 1.5 3.5
v -2.5 -1.75 -3.5
v 2.5 -1.75 -3.5
v 2.5 1.25 3.5
v -2.5 1.25 3.5
v -2.6 -1.5 -3.5
v -2.6 1.5 3.5
v -2.6 -1.75 -3.5
v -2.6 1.25 3.5
v 2.6 1.5 3.5
v 2.6 -1.5 -3.5
v 2.6 1.25 3.5
v 2.6 -1.75 -3.5
v 2.5 3 3.5
v 2.5 0 -3.5
v 2.599999 3 3.5
v 2.599999 0 -3.5
v -2.5 0 -3.5
v -2.5 3 3.5
v -2.599999 0 -3.5
v -2.599999 3 3.5

vt 2.5 -1.5
vt -2.5 -1.5
vt 2.5 -1.2
vt -2.5 -1.2
vt 2.5 -3.5
vt -2.5 -3.5
vt 2.5 -2.8
vt -2.5 -2.8
vt 2.5 -0.9
vt -2.5 -0.9
vt 2.5 -2.1
vt -2.5 -2.1
vt 2.5 -0.6
vt -2.5 -0.6
vt 2.5 -1.4
vt -2.5 -1.4
vt 2.5 -0.3
vt -2.5 -0.3
vt 2.5 -0.6999999
vt -2.5 -0.6999999
vt 2.5 0
vt -2.5 0
vt 2.5 0.3000001
vt -2.5 0.3000001
vt 2.5 0.7000002
vt -2.5 0.7000002
vt 2.5 0.6
vt -2.5 0.6
vt 2.5 1.4
vt -2.5 1.4
vt 2.5 0.9
vt -2.5 0.9
vt 2.5 2.1
vt -2.5 2.1
vt 2.5 1.2
vt -2.5 1.2
vt 2.5 2.8
vt -2.5 2.8
vt 2.5 1.5
vt -2.5 1.5
vt 2.5 3.5
vt -2.5 3.5
vt -2.8 1.2
vt -2.8 1.5
vt -3.5 1.5
vt -2.1 0.9
vt -2.1 1.2
vt -1.4 0.6
vt -1.4 0.9
vt -0.7000002 0.3000001
vt -0.7000002 0.6
vt 0 0
vt 0 0.3000001
vt 0.6999999 -0.3
vt 0.6999999 0
vt 1.4 -0.6
vt 1.4 -0.3
vt 2.1 -0.9
vt 2.1 -0.6
vt 2.8 -1.2
vt 2.8 -0.9
vt 3.5 -1.5
vt 3.5 -1.2
vt 2.8 1.2
vt 3.5 1.5
vt 2.8 1.5
vt 2.1 0.9
vt 2.1 1.2
vt 1.4 0.6
vt 1.4 0.9
vt -3.5 -1.5
vt -2.8 -1.2
vt -3.5 -1.2
vt -2.8 -0.9
vt -2.1 -0.9
vt -2.1 -0.6
vt -1.4 -0.6
vt -1.4 -0.3
vt -0.6999999 -0.3
vt -0.6999999 0
vt 0.7000002 0.3000001
vt 0.7000002 0.6
vt -2.5 -3.906366
vt 2.5 -3.906366
vt 2.5 3.709407
vt -2.5 3.709407
vt -3.5 -1.75
vt 3.5 1.25
vt -2.5 1.25
vt 2.5 1.25
vt -3.5 1.25
vt 3.5 -1.75
vt -2.5 -1.75
vt 2.5 -1.75
vt 2.5 -3.807887
vt 2.5 3.807887
vt 2.6 -3.807887
vt 2.6 3.807887
vt 2.6 -1.75
vt 2.6 -1.5
vt -2.6 1.5
vt -2.6 1.25
vt -2.6 3.709407
vt -2.6 -3.906366
vt -2.5 3.807887
vt -2.5 -3.807887
vt -2.6 3.807887
vt -2.6 -3.807887
vt 2.6 1.25
vt 2.6 1.5
vt -2.6 -1.5
vt -2.6 -1.75
vt 2.6 -3.906366
vt 2.6 3.709407
vt -2.5 4.398766
vt -2.5 -3.217008
vt -2.599999 4.398766
vt -2.599999 -3.217008
vt 2.5 -3.217008
vt 2.5 4.398766
vt 2.599999 -3.217008
vt 2.599999 4.398766
vt 3.5 3
vt -3.5 0
vt 2.599999 3
vt 2.5 3
vt -2.599999 0
vt 3.5 -1.500001
vt -3.5 1.499999
vt 3.5 -8.265177E-07
vt -3.5 2.999999
vt 3.5 0
vt -3.5 3
vt 2.599999 0
vt -2.5 3
vt -2.599999 3
vt 3.5 1.499999
vt -3.5 -1.500001
vt 3.5 2.999999
vt -3.5 -8.265177E-07

vn 0 0 -1
vn 0 1 0
vn 1 0 0
vn -1 0 0
vn 0 -0.919145 0.3939193
vn 0 0 1
vn 0 0.919145 -0.3939193

usemtl Metal002-02
f 38/43/3 40/44/3 42/45/3
f 34/46/3 36/47/3 38/43/3
f 30/48/3 32/49/3 34/46/3
f 26/50/3 28/51/3 30/48/3
f 22/52/3 24/53/3 26/50/3
f 18/54/3 20/55/3 22/52/3
f 14/56/3 16/57/3 18/54/3
f 10/58/3 12/59/3 14/56/3
f 6/60/3 8/61/3 10/58/3
f 2/62/3 4/63/3 6/60/3
f 37/64/4 41/65/4 39/66/4
f 33/67/4 37/64/4 35/68/4
f 29/69/4 33/67/4 31/70/4
f 1/71/4 5/72/4 3/73/4
f 7/74/4 5/72/4 9/75/4
f 11/76/4 9/75/4 13/77/4
f 15/78/4 13/77/4 17/79/4
f 19/80/4 17/79/4 21/52/4
f 23/53/4 21/52/4 25/81/4
f 27/82/4 25/81/4 29/69/4
f 4/4/1 2/2/1 1/1/1
f 1/1/1 3/3/1 4/4/1
f 6/8/2 4/6/2 3/5/2
f 3/5/2 5/7/2 6/8/2
f 8/10/1 6/4/1 5/3/1
f 5/3/1 7/9/1 8/10/1
f 10/12/2 8/8/2 7/7/2
f 7/7/2 9/11/2 10/12/2
f 12/14/1 10/10/1 9/9/1
f 9/9/1 11/13/1 12/14/1
f 14/16/2 12/12/2 11/11/2
f 11/11/2 13/15/2 14/16/2
f 16/18/1 14/14/1 13/13/1
f 13/13/1 15/17/1 16/18/1
f 18/20/2 16/16/2 15/15/2
f 15/15/2 17/19/2 18/20/2
f 20/22/1 18/18/1 17/17/1
f 17/17/1 19/21/1 20/22/1
f 22/22/2 20/20/2 19/19/2
f 19/19/2 21/21/2 22/22/2
f 24/24/1 22/22/1 21/21/1
f 21/21/1 23/23/1 24/24/1
f 26/26/2 24/22/2 23/21/2
f 23/21/2 25/25/2 26/26/2
f 28/28/1 26/24/1 25/23/1
f 25/23/1 27/27/1 28/28/1
f 30/30/2 28/26/2 27/25/2
f 27/25/2 29/29/2 30/30/2
f 32/32/1 30/28/1 29/27/1
f 29/27/1 31/31/1 32/32/1
f 34/34/2 32/30/2 31/29/2
f 31/29/2 33/33/2 34/34/2
f 36/36/1 34/32/1 33/31/1
f 33/31/1 35/35/1 36/36/1
f 38/38/2 36/34/2 35/33/2
f 35/33/2 37/37/2 38/38/2
f 40/40/1 38/36/1 37/35/1
f 37/35/1 39/39/1 40/40/1
f 42/42/2 40/38/2 39/37/2
f 39/37/2 41/41/2 42/42/2
f 45/85/5 46/86/5 43/83/5
f 43/83/5 44/84/5 45/85/5
f 50/88/4 48/65/4 47/71/4
f 47/71/4 49/87/4 50/88/4
f 45/90/6 42/39/6 41/40/6
f 41/40/6 46/89/6 45/90/6
f 54/92/3 52/62/3 51/45/3
f 51/45/3 53/91/3 54/92/3
f 43/94/1 1/1/1 2/2/1
f 2/2/1 44/93/1 43/94/1
f 48/98/7 41/96/7 1/95/7
f 1/95/7 47/97/7 48/98/7
f 47/100/1 1/1/1 43/94/1
f 43/94/1 49/99/1 47/100/1
f 50/102/6 46/89/6 41/40/6
f 41/40/6 48/101/6 50/102/6
f 49/104/5 43/83/5 46/86/5
f 46/86/5 50/103/5 49/104/5
f 52/108/7 2/106/7 42/105/7
f 42/105/7 51/107/7 52/108/7
f 51/110/6 42/39/6 45/90/6
f 45/90/6 53/109/6 51/110/6
f 54/112/1 44/93/1 2/2/1
f 2/2/1 52/111/1 54/112/1
f 53/114/5 45/85/5 44/84/5
f 44/84/5 54/113/5 53/114/5

usemtl MetalWalkway013
f 57/117/7 58/118/7 56/116/7 55/115/7
f 61/121/7 62/122/7 60/120/7 59/119/7
f 55/123/4 56/124/4 2/71/4 42/65/4
f 57/125/6 55/126/6 42/39/6 51/110/6
f 56/22/1 58/127/1 52/111/1 2/2/1
f 58/130/3 57/131/3 51/129/3 52/128/3
f 59/132/3 60/133/3 41/45/3 1/62/3
f 61/134/1 59/21/1 1/1/1 47/100/1
f 60/135/6 62/136/6 48/101/6 41/40/6
f 62/139/4 61/140/4 47/138/4 48/137/4

