# ProBuilder 5.0.6
# https://unity3d.com/unity/features/worldbuilding/probuilder
# 8/21/2022 5:32:52 PM

mtllib ./Thresher-Room-Wall.mtl
o Thresher-Room-Wall

g Thresher-Room-Wall
v 0.5 0 -3.82816
v 0.5 0 3.82816
v 0.5 15 -3.82816
v 0.5 15 3.82816
v -0.5 0 -3.82816
v -0.5 0 3.82816
v -1.5 15 -6.82816
v -1.5 0 -6.82816
v 0.5 15 -6.82816
v 0.5 0 -6.82816
v -1.5 0 6.82816
v -1.5 15 6.82816
v 0.5 0 6.82816
v 0.5 15 6.82816
v -0.5 15 3.82816
v -0.5 15 -3.82816
v -1.5 0 4.82816
v -1.5 15 4.82816
v 0.5 0 4.82816
v 0.5 15 4.82816
v -1.5 15 -4.82816
v -1.5 0 -4.82816
v 0.5 15 -4.82816
v 0.5 0 -4.82816

vt 3.82816 0
vt -3.82816 0
vt 3.82816 15
vt -3.82816 15
vt -0.5 -3.82816
vt -0.5 3.82816
vt 0.5 -3.82816
vt 0.5 3.82816
vt 1.5 15
vt 1.5 0
vt -0.5 15
vt -0.5 0
vt -1.5 0
vt -1.5 15
vt 0.5 0
vt 0.5 15
vt 3.060472 0
vt 3.060472 15
vt 4.474685 0
vt 4.474685 15
vt 0.5 4.82816
vt -1.5 4.82816
vt 1.5 4.82816
vt -0.5 4.82816
vt -4.82816 15
vt -4.82816 0
vt 4.82816 0
vt 4.82816 15
vt 6.82816 0
vt 6.82816 15
vt 0.5 6.82816
vt -1.5 6.82816
vt 1.5 6.82816
vt -0.5 6.82816
vt -6.82816 15
vt -6.82816 0
vt -3.060472 15
vt -3.060472 0
vt -4.474685 15
vt -4.474685 0
vt -0.5 -4.82816
vt 1.5 -4.82816
vt -1.5 -4.82816
vt 0.5 -4.82816
vt -0.5 -6.82816
vt 1.5 -6.82816
vt -1.5 -6.82816
vt 0.5 -6.82816

vn 1 0 0
vn 0 -1 0
vn 0 0 -1
vn 0 0 1
vn 0 1 0
vn -1 0 0
vn -0.7071068 0 -0.7071068
vn -0.7071068 0 0.7071068

usemtl Metal002-02
f 3/3/1 4/4/1 2/2/1 1/1/1
f 1/7/2 2/8/2 6/6/2 5/5/2
f 9/11/3 10/12/3 8/10/3 7/9/3
f 13/15/4 14/16/4 12/14/4 11/13/4
f 4/6/5 3/5/5 16/7/5 15/8/5
f 15/3/6 16/4/6 5/2/6 6/1/6
f 17/19/7 18/20/7 15/18/7 6/17/7
f 19/21/2 17/22/2 6/6/2 2/8/2
f 18/23/5 20/24/5 4/6/5 15/8/5
f 20/25/1 19/26/1 2/2/1 4/4/1
f 11/29/6 12/30/6 18/28/6 17/27/6
f 13/31/2 11/32/2 17/22/2 19/21/2
f 12/33/5 14/34/5 20/24/5 18/23/5
f 14/35/1 13/36/1 19/26/1 20/25/1
f 21/39/8 22/40/8 5/38/8 16/37/8
f 23/41/5 21/42/5 16/7/5 3/5/5
f 22/43/2 24/44/2 1/7/2 5/5/2
f 24/27/1 23/28/1 3/3/1 1/1/1
f 7/35/6 8/36/6 22/26/6 21/25/6
f 9/45/5 7/46/5 21/42/5 23/41/5
f 8/47/2 10/48/2 24/44/2 22/43/2
f 10/29/1 9/30/1 23/28/1 24/27/1

