# ProBuilder 5.0.6
# https://unity3d.com/unity/features/worldbuilding/probuilder
# 8/21/2022 5:49:19 PM

mtllib ./Thresher-Room-Roof-Gate.mtl
o Thresher-Room-Roof-Gate

g Thresher-Room-Roof-Gate
v -6.825 -0.4999981 15
v -6.825 0.500002 15
v 0 -0.5 0
v 0 0.5 0
v 6.825 0.500002 15
v 6.825 -0.4999981 15
v 0 -0.499999 7.500001
v 3.4125 -0.4999981 15
v 0 -0.999999 7.500001
v 0 -0.9999982 15
v 3.4125 -0.9999982 15
v -3.4125 -0.4999981 15
v 0 -0.4999981 15
v -3.4125 -0.9999982 15

vt -0.333333 -2.826545
vt 0.666667 -2.826545
vt -0.333333 13.65316
vt 0.666667 13.65316
vt -6.825 0
vt 6.825 0
vt 0 15
vt -0.666667 -2.826545
vt 0.333333 -2.826545
vt -0.666667 13.65316
vt 0.333333 13.65316
vt 0 7.5
vt -3.4125 0
vt 0 0
vt -6.825 0.666667
vt 6.825 0.666667
vt 6.825 -0.333333
vt 3.4125 -0.333333
vt -3.4125 -0.333333
vt -6.825 -0.333333
vt 0 -0.333333
vt 3.4125 0
vt -3.4125 -0.833333
vt 0 -0.833333
vt 3.4125 -0.833333
vt -0.333333 6.82658
vt -0.333333 -1.413273
vt -0.833333 6.82658
vt -0.833333 -1.413273
vt 0.333333 -1.413273
vt 0.333333 6.82658
vt 0.833333 -1.413273
vt 0.833333 6.82658

vn -0.9102106 0 -0.4141458
vn 0 1 -1.311302E-07
vn 0.9102106 0 -0.4141458
vn -2.18332E-09 -1 1.251697E-07
vn 0 0 1
vn 0 0 0

usemtl Metal002-02
f 2/5/2 5/6/2 4/7/2
f 11/13/4 10/14/4 9/12/4
f 12/19/5 5/16/5 2/15/5
f 12/19/5 8/18/5 5/16/5
f 8/18/5 6/17/5 5/16/5
f 2/15/5 1/20/5 12/19/5
f 12/19/6 13/21/6 8/18/6
f 9/12/4 10/14/4 14/22/4
f 3/3/1 1/1/1 2/2/1
f 2/2/1 4/4/1 3/3/1
f 4/10/3 5/8/3 6/9/3
f 6/9/3 3/11/3 4/10/3
f 7/12/4 3/7/4 6/5/4
f 6/5/4 8/13/4 7/12/4
f 12/22/4 1/6/4 3/7/4
f 3/7/4 7/12/4 12/22/4
f 10/24/5 13/21/5 12/19/5
f 12/19/5 14/23/5 10/24/5
f 11/25/5 8/18/5 13/21/5
f 13/21/5 10/24/5 11/25/5
f 14/29/1 12/27/1 7/26/1
f 7/26/1 9/28/1 14/29/1
f 9/33/3 7/31/3 8/30/3
f 8/30/3 11/32/3 9/33/3

