# ProBuilder 5.0.6
# https://unity3d.com/unity/features/worldbuilding/probuilder
# 8/21/2022 11:39:29 PM

mtllib ./Thresher-Room-Compute-Module.mtl
o Thresher-Room-Compute-Module

g Thresher-Room-Compute-Module
v -0.3999996 -1.05 -2
v -0.3999996 0.9500003 -2
v -0.3999996 -1.050001 2
v -0.3999996 0.9499997 2
v -0.25 1.45 -1.5
v 0.25 1.45 -1.5
v -0.25 1.45 1.5
v 0.25 1.45 1.5
v 0.3999996 0.9500003 -2
v 0.3999996 -1.05 -2
v 0.3999996 0.9499997 2
v 0.3999996 -1.050001 2
v 0.25 -1.050001 2.5
v -0.25 -1.050001 2.5
v 0.25 0.9499997 2.5
v -0.25 0.9499997 2.5
v 0.25 0.9500003 -2.5
v -0.25 0.9500003 -2.5
v 0.25 -1.05 -2.5
v -0.25 -1.05 -2.5
v -0.25 1.45 -2
v 0.25 1.45 -2
v -0.5 0.9499997 2
v -0.5 0.9500003 -2
v -0.5 1.273223 1.676777
v -0.5 1.273224 -1.676777
v 0.5 0.9500003 -2
v 0.5 0.9499997 2
v 0.5 1.273224 -1.676777
v 0.5 1.273223 1.676777
v 0.25 1.45 2
v -0.25 1.45 2
v -0.5 1.273224 -1.926777
v -0.5 0.9500003 -2.25
v 0.5 -1.05 -2
v 0.5 -1.05 -2.25
v 0.5 0.9500003 -2.25
v -0.5 -1.05 -2
v -0.5 -1.05 -2.25
v 0.5 1.273224 -1.926777
v 0.5 -1.050001 2
v 0.5 0.9499997 2.25
v 0.5 -1.050001 2.25
v -0.5 -1.050001 2
v -0.5 -1.050001 2.25
v -0.5 0.9499997 2.25
v 0.5 1.273223 1.926777
v -0.5 1.273223 1.926777
v 0.25 -1.150001 2.5
v 0.5 -1.150001 2.25
v 0.5 -1.150001 2
v 0.5 -1.15 -2
v -0.5 -1.15 -2
v -0.5 -1.150001 2
v -0.5 -1.150001 2.25
v -0.25 -1.15 -2.5
v -0.5 -1.15 -2.25
v 0.5 -1.15 -2.25
v 0.25 -1.15 -2.5
v -0.25 -1.150001 2.5
v 0.0666666 -1.150001 2
v -0.0666666 -1.150001 2
v -0.0666666 -1.15 -2
v 0.0666666 -1.15 -2
v 0.0666666 -1.45 -2
v -0.0666666 -1.45 -2
v -0.0666666 -1.45 2
v 0.0666666 -1.45 2
v -0.25 1.007403 -2.638582
v 0.25 1.007403 -2.638582
v -0.25 1.588582 -2.057403
v 0.25 1.588582 -2.057403
v 0.25 -1.05 -2.650001
v -0.25 -1.05 -2.650001
v -0.25 1.6 -1.5
v 0.25 1.6 -1.5
v -0.25 1.6 1.5
v 0.25 1.6 1.5
v -0.25 1.588582 2.057403
v 0.25 1.588582 2.057403
v 0.25 1.007402 2.638582
v -0.25 1.007402 2.638582
v 0.25 -1.050001 2.65
v -0.25 -1.050001 2.65

vt 0.42 0.66
vt 0.42 0.9400001
vt 0.98 0.66
vt 0.98 0.94
vt 0.9349999 0.08999997
vt 0.8649999 0.08999997
vt 0.9349999 0.5100001
vt 0.8649999 0.5100001
vt 0.98 0.9400001
vt 0.98 0.66
vt 0.42 0.94
vt 0.42 0.66
vt 0.9349999 0.07599989
vt 0.8649999 0.07599989
vt 0.9349999 0.3559999
vt 0.8649999 0.3559999
vt 0.9349999 0.426
vt 0.8649999 0.426
vt 0.7300001 0.444
vt 0.1700001 0.4440001
vt 0.6847488 0.4892513
vt 0.2152513 0.4892514
vt 0.1802514 0.4892514
vt 0.1350001 0.4440001
vt 0.7300001 0.1640001
vt 0.7650001 0.1640001
vt 0.765 0.4440001
vt 0.17 0.1640001
vt 0.135 0.1640001
vt 0.7197488 0.4892514
vt 0.8649999 0.02000001
vt 0.9349999 0.02000001
vt 0.9349999 0.58
vt 0.8649999 0.58
vt 0.24 0.6400001
vt 0.24 0.22
vt 0.275 0.6647488
vt 0.275 0.1952513
vt 0.275 0.1602513
vt 0.24 0.1500001
vt 0.275 0.6997488
vt 0.24 0.7100001
vt 0.17 0.486
vt 0.17 0.556
vt 0.135 0.486
vt 0.135 0.5312512
vt 0.17 0.2059999
vt 0.135 0.2059999
vt 0.24 0.486
vt 0.24 0.2059999
vt 0.275 0.486
vt 0.275 0.2059999
vt 0.24 0.556
vt 0.275 0.5312512
vt 0.17 0.22
vt 0.17 0.6400001
vt 0.135 0.1952513
vt 0.135 0.6647488
vt 0.135 0.6997488
vt 0.17 0.7100001
vt 0.135 0.1602513
vt 0.17 0.1500001
vt 0.135 0.206
vt 0.135 0.4860001
vt 0.1490001 0.206
vt 0.1490001 0.4860001
vt 0.275 0.71
vt 0.275 0.15
vt 0.2609999 0.71
vt 0.2609999 0.15
vt 0.135 0.2200001
vt 0.135 0.7800001
vt 0.1490001 0.2200001
vt 0.1490001 0.7800001
vt 0.2609999 0.4859999
vt 0.2609999 0.2059999
vt 0.275 0.4860001
vt 0.275 0.206
vt 0.2609999 0.4860001
vt 0.2609999 0.206
vt 0.275 0.7800001
vt 0.275 0.2200001
vt 0.2609999 0.7800001
vt 0.2609999 0.2200001
vt 0.135 0.15
vt 0.135 0.71
vt 0.1490001 0.15
vt 0.1490001 0.71
vt 0.1490001 0.2059999
vt 0.1490001 0.4859999
vt 0.24 0.192
vt 0.275 0.192
vt 0.7300001 0.1500001
vt 0.765 0.15
vt 0.135 0.192
vt 0.17 0.192
vt 0.24 0.85
vt 0.275 0.815
vt 0.2143333 0.78
vt 0.1956667 0.78
vt 0.135 0.815
vt 0.17 0.85
vt 0.135 0.185
vt 0.135 0.22
vt 0.1956667 0.22
vt 0.2143333 0.22
vt 0.275 0.22
vt 0.275 0.185
vt 1.5 0.06666655
vt 1.5 -0.06666666
vt -2.5 -0.06666661
vt -2.5 0.0666666
vt 0.1956667 0.192
vt 0.2143333 0.192
vt 0.1956667 0.15
vt 0.2143333 0.15
vt -2.5 -1.15
vt 1.5 -1.15
vt -2.5 -1.45
vt 1.5 -1.45
vt 1.5 1.15
vt -2.5 1.15
vt 1.5 1.45
vt -2.5 1.45
vt -0.25 -1.06066
vt -0.75 -1.06066
vt -0.25 -0.3535534
vt -0.75 -0.3535534
vt -0.25 -1
vt -0.75 -1
vt -0.25 1
vt -0.75 1
vt -0.25 -1.5
vt -0.75 -1.5
vt -0.25 1.5
vt -0.75 1.5
vt -0.75 -2
vt -0.25 -2
vt -0.25 2
vt -0.75 2
vt -0.75 1.06066
vt -0.25 1.06066
vt -0.75 0.3535534
vt -0.25 0.3535534
vt 2 -1.05
vt 2 0.9500003
vt 2.150001 -1.05
vt 2.138582 1.007403
vt -2.5 1.45
vt -3 0.9500003
vt -2.557403 1.588582
vt -3.138582 1.007403
vt 1.5 1.45
vt 1.557403 1.588582
vt 1 1.45
vt -2 1.45
vt 1 1.6
vt -2 1.6
vt -3 -1.05
vt -3.150001 -1.05
vt -0.75 -2.5
vt -0.25 -2.5
vt -0.75 -2.650001
vt -0.25 -2.650001
vt 1 1.45
vt -2 1.45
vt 1 1.6
vt -2 1.6
vt -0.25 2.5
vt -0.75 2.5
vt -0.25 2.65
vt -0.75 2.65
vt -3 0.9499997
vt 2 0.9499997

vn -1 0 0
vn 0 1 1.986821E-07
vn 1 0 0
vn 0 -2.384185E-07 1
vn 0 2.384185E-07 -1
vn 0 0.7071068 -0.7071068
vn 0 0.7071068 0.7071068
vn -0.5773501 0.8164967 1.622233E-07
vn -0.5773503 0.5773503 0.5773503
vn -0.7071068 -1.685873E-07 0.7071068
vn -0.7071068 1.685873E-07 -0.7071068
vn -0.5773501 0.5773504 -0.5773504
vn 0.5773503 0.8164966 1.622233E-07
vn 0.5773503 0.5773503 0.5773503
vn 0.7071068 -1.685873E-07 0.7071068
vn 0.5773503 0.5773503 -0.5773503
vn 0.7071068 1.685873E-07 -0.7071068
vn 0 -1 -1.490116E-07
vn 0 0.005549913 -0.9999846
vn 0 0.9997903 -0.02047998
vn 0 0.9997903 0.02048019
vn 0 0.005549449 0.9999846

usemtl Compute-Module
f 61/99/18 51/81/18 50/98/18
f 49/97/18 61/99/18 50/98/18
f 49/97/18 60/102/18 61/99/18
f 60/102/18 62/100/18 61/99/18
f 55/101/18 54/72/18 62/100/18
f 60/102/18 55/101/18 62/100/18
f 64/106/18 58/108/18 52/107/18
f 58/108/18 64/106/18 59/40/18
f 64/106/18 63/105/18 59/40/18
f 63/105/18 56/62/18 59/40/18
f 63/105/18 57/103/18 56/62/18
f 63/105/18 53/104/18 57/103/18
f 4/4/1 2/2/1 1/1/1
f 1/1/1 3/3/1 4/4/1
f 8/8/2 6/6/2 5/5/2
f 5/5/2 7/7/2 8/8/2
f 12/12/3 10/10/3 9/9/3
f 9/9/3 11/11/3 12/12/3
f 16/16/4 14/14/4 13/13/4
f 13/13/4 15/15/4 16/16/4
f 20/13/5 18/15/5 17/16/5
f 17/16/5 19/14/5 20/13/5
f 22/18/6 17/16/6 18/15/6
f 18/15/6 21/17/6 22/18/6
f 26/22/1 24/20/1 23/19/1
f 23/19/1 25/21/1 26/22/1
f 30/22/3 28/20/3 27/19/3
f 27/19/3 29/21/3 30/22/3
f 32/18/7 16/16/7 15/15/7
f 15/15/7 31/17/7 32/18/7
f 34/24/1 24/20/1 26/22/1
f 26/22/1 33/23/1 34/24/1
f 37/27/3 27/19/3 35/25/3
f 35/25/3 36/26/3 37/27/3
f 39/29/1 38/28/1 24/20/1
f 24/20/1 34/24/1 39/29/1
f 40/30/3 29/21/3 27/19/3
f 27/19/3 37/27/3 40/30/3
f 21/32/2 5/5/2 6/6/2
f 6/6/2 22/31/2 21/32/2
f 43/29/3 41/28/3 28/20/3
f 28/20/3 42/24/3 43/29/3
f 46/27/1 23/19/1 44/25/1
f 44/25/1 45/26/1 46/27/1
f 42/24/3 28/20/3 30/22/3
f 30/22/3 47/23/3 42/24/3
f 48/30/1 25/21/1 23/19/1
f 23/19/1 46/27/1 48/30/1
f 31/34/2 8/8/2 7/7/2
f 7/7/2 32/33/2 31/34/2
f 25/37/8 7/35/8 5/36/8
f 5/36/8 26/38/8 25/37/8
f 21/40/8 33/39/8 26/38/8
f 26/38/8 5/36/8 21/40/8
f 7/35/8 25/37/8 48/41/8
f 48/41/8 32/42/8 7/35/8
f 46/45/9 16/43/9 32/44/9
f 32/44/9 48/46/9 46/45/9
f 45/48/10 14/47/10 16/43/10
f 16/43/10 46/45/10 45/48/10
f 34/51/11 18/49/11 20/50/11
f 20/50/11 39/52/11 34/51/11
f 33/54/12 21/53/12 18/49/12
f 18/49/12 34/51/12 33/54/12
f 29/57/13 6/55/13 8/56/13
f 8/56/13 30/58/13 29/57/13
f 31/60/13 47/59/13 30/58/13
f 30/58/13 8/56/13 31/60/13
f 47/54/14 31/53/14 15/49/14
f 15/49/14 42/51/14 47/54/14
f 6/55/13 29/57/13 40/61/13
f 40/61/13 22/62/13 6/55/13
f 42/51/15 15/49/15 13/50/15
f 13/50/15 43/52/15 42/51/15
f 37/45/16 17/43/16 22/44/16
f 22/44/16 40/46/16 37/45/16
f 36/48/17 19/47/17 17/43/17
f 17/43/17 37/45/17 36/48/17
f 2/66/4 24/64/4 38/63/4
f 38/63/4 1/65/4 2/66/4
f 1/70/2 38/68/2 44/67/2
f 44/67/2 3/69/2 1/70/2
f 4/74/18 23/72/18 24/71/18
f 24/71/18 2/73/18 4/74/18
f 3/76/5 44/52/5 23/51/5
f 23/51/5 4/75/5 3/76/5
f 10/80/4 35/78/4 27/77/4
f 27/77/4 9/79/4 10/80/4
f 9/84/18 27/82/18 28/81/18
f 28/81/18 11/83/18 9/84/18
f 12/88/2 41/86/2 35/85/2
f 35/85/2 10/87/2 12/88/2
f 11/90/5 28/45/5 41/48/5
f 41/48/5 12/89/5 11/90/5
f 50/92/15 43/52/15 13/50/15
f 13/50/15 49/91/15 50/92/15
f 52/93/3 35/25/3 41/28/3
f 41/28/3 51/62/3 52/93/3
f 54/93/1 44/25/1 38/28/1
f 38/28/1 53/62/1 54/93/1
f 55/94/1 45/26/1 44/25/1
f 44/25/1 54/93/1 55/94/1
f 57/92/11 39/52/11 20/50/11
f 20/50/11 56/91/11 57/92/11
f 53/62/1 38/28/1 39/29/1
f 39/29/1 57/85/1 53/62/1
f 58/94/3 36/26/3 35/25/3
f 35/25/3 52/93/3 58/94/3
f 59/96/17 19/47/17 36/48/17
f 36/48/17 58/95/17 59/96/17
f 56/91/5 20/50/5 19/47/5
f 19/47/5 59/96/5 56/91/5
f 51/62/3 41/28/3 43/29/3
f 43/29/3 50/85/3 51/62/3
f 49/91/4 13/50/4 14/47/4
f 14/47/4 60/96/4 49/91/4
f 60/96/10 14/47/10 45/48/10
f 45/48/10 55/95/10 60/96/10
f 53/104/18 63/105/18 62/100/18
f 62/100/18 54/72/18 53/104/18
f 64/106/18 52/107/18 51/81/18
f 51/81/18 61/99/18 64/106/18
f 66/116/5 63/114/5 64/113/5
f 64/113/5 65/115/5 66/116/5
f 68/116/4 61/114/4 62/113/4
f 62/113/4 67/115/4 68/116/4

usemtl Chip-Pins2
f 68/112/18 67/111/18 66/110/18 65/109/18
f 68/119/3 65/120/3 64/118/3 61/117/3
f 66/123/1 67/124/1 62/122/1 63/121/1

usemtl Glass-00
f 71/127/6 72/128/6 70/126/6 69/125/6
f 73/131/19 74/132/19 69/130/19 70/129/19
f 77/135/2 78/136/2 76/134/2 75/133/2
f 72/137/20 71/138/20 75/133/20 76/134/20
f 79/139/21 80/140/21 78/136/21 77/135/21
f 80/143/7 79/144/7 82/142/7 81/141/7
f 81/130/22 82/129/22 84/131/22 83/132/22
f 73/147/3 70/148/3 17/146/3 19/145/3
f 71/151/1 69/152/1 18/150/1 21/149/1
f 70/148/3 72/154/3 22/153/3 17/146/3
f 76/157/3 78/158/3 8/156/3 6/155/3
f 69/152/1 74/160/1 20/159/1 18/150/1
f 74/163/18 73/164/18 19/162/18 20/161/18
f 77/167/1 75/168/1 5/166/1 7/165/1
f 72/154/3 76/157/3 6/155/3 22/153/3
f 75/168/1 71/151/1 21/149/1 5/166/1
f 79/154/1 77/167/1 7/165/1 32/123/1
f 78/158/3 80/151/3 31/124/3 8/156/3
f 83/171/18 84/172/18 14/170/18 13/169/18
f 80/151/3 81/152/3 15/173/3 31/124/3
f 82/148/1 79/154/1 32/123/1 16/174/1
f 81/152/3 83/160/3 13/159/3 15/173/3
f 84/147/1 82/148/1 16/174/1 14/145/1

