# ProBuilder 5.0.3
# https://unity3d.com/unity/features/worldbuilding/probuilder
# 2021/10/20 23:19:50

mtllib ./ServerStack-1M.mtl
o ServerStack-1M

g ServerStack-1M
v 0.5 -0.005 0.52
v -0.5 -0.005 0.52
v 0.5 0.005 0.52
v -0.5 0.005 0.52
v -0.51 -0.005 0.5
v -0.51 -0.005 -0.5
v -0.51 0.005 0.5
v -0.51 0.005 -0.5
v -0.5 -0.005 -0.52
v 0.5 -0.005 -0.52
v -0.5 0.005 -0.52
v 0.5 0.005 -0.52
v 0.51 -0.005 -0.5
v 0.51 -0.005 0.5
v 0.51 0.005 -0.5
v 0.51 0.005 0.5
v 0.5 0.005 0.5
v -0.5 0.005 0.5
v 0.5 0.005 -0.5
v -0.5 0.005 -0.5
v 0.5 -0.005 -0.5
v -0.5 -0.005 -0.5
v 0.5 -0.005 0.5
v -0.5 -0.005 0.5
v 0.5 -0.005 0.51
v -0.5 -0.005 0.51
v 0.51 0.005 0.51
v 0.51 -0.005 0.51
v -0.51 -0.005 0.51
v -0.51 0.005 0.51
v -0.5 0.005 0.51
v 0.5 0.005 0.51
v -0.5 -0.005 -0.51
v 0.5 -0.005 -0.51
v -0.51 0.005 -0.51
v -0.51 -0.005 -0.51
v 0.51 -0.005 -0.51
v 0.51 0.005 -0.51
v 0.5 0.005 -0.51
v -0.5 0.005 -0.51
v 0.51 0.005 0.52
v 0.51 -0.005 0.52
v -0.51 -0.005 0.52
v -0.51 0.005 0.52
v -0.5 1.175 0.51
v -0.5 1.175 0.52
v -0.51 0.005 -0.52
v -0.51 -0.005 -0.52
v 0.51 -0.005 -0.52
v 0.51 0.005 -0.52
v 0.5 1.175 -0.51
v 0.5 1.175 -0.52
v -0.5 1.005 0.51
v 0.5 1.005 0.51
v -0.51 1.005 0.52
v -0.51 1.005 0.51
v 0.51 1.005 0.51
v 0.51 1.005 0.52
v 0.5 1.005 0.52
v -0.5 1.005 0.52
v 0.5 1.005 -0.51
v -0.5 1.005 -0.51
v 0.51 1.005 -0.52
v 0.51 1.005 -0.51
v -0.51 1.005 -0.51
v -0.51 1.005 -0.52
v -0.5 1.005 -0.52
v 0.5 1.005 -0.52
v -0.51 1.015 0.52
v -0.51 1.015 0.51
v 0.51 1.015 0.51
v 0.51 1.015 0.52
v 0.5 1.015 0.52
v -0.5 1.015 0.52
v 0.51 1.015 -0.52
v 0.51 1.015 -0.51
v -0.51 1.015 -0.51
v -0.51 1.015 -0.52
v -0.5 1.015 -0.52
v 0.5 1.015 -0.52
v -0.5 1.175 -0.51
v 0.51 1.175 -0.51
v 0.51 1.175 -0.52
v 0.5 1.175 0.51
v 0.51 1.175 0.51
v 0.5 1.005 -0.5
v 0.51 1.005 -0.5
v 0.5 1.005 0.5
v 0.51 1.005 0.5
v 0.5 1.175 0.52
v 0.51 1.175 0.52
v -0.5 1.005 -0.5
v -0.51 1.005 -0.5
v -0.5 1.175 -0.52
v -0.51 1.175 -0.52
v -0.51 1.175 -0.51
v -0.5 1.005 0.5
v -0.51 1.005 0.5
v -0.51 1.175 0.51
v -0.51 1.175 0.52
v -0.51 1.165 -0.52
v -0.5 1.165 -0.52
v -0.5 1.165 0.52
v -0.51 1.165 0.52
v -0.51 1.165 -0.51
v 0.5 1.165 0.52
v 0.5 1.165 -0.52
v 0.5 1.015 -0.51
v 0.5 1.015 0.51
v 0.5 1.165 -0.51
v 0.5 1.165 0.51
v 0.51 1.165 -0.52
v 0.51 1.165 -0.51
v 0.51 1.165 0.51
v 0.51 1.165 0.52
v -0.5 1.015 0.51
v -0.5 1.015 -0.51
v -0.5 1.165 0.51
v -0.5 1.165 -0.51
v -0.51 1.165 0.51

vt 0.5 -0.005
vt -0.5 -0.005
vt 0.5 0.005
vt -0.5 0.005
vt -0.5 0.5
vt 0.5 0.5
vt -0.5 -0.5
vt 0.5 -0.5
vt 0.5 0.51
vt -0.5 0.51
vt -0.51 0.005
vt -0.51 -0.005
vt 0.51 -0.005
vt 0.51 0.005
vt -0.5 -0.51
vt 0.5 -0.51
vt 0.5 0.52
vt -0.5 0.52
vt -0.52 0.005
vt -0.52 -0.005
vt 0.52 -0.005
vt 0.52 0.005
vt -0.5 -0.52
vt 0.5 -0.52
vt 5 0.05000019
vt -5 0.05000019
vt 5 10.05
vt -5 10.05
vt 0.52 1.005
vt 0.51 1.005
vt -0.51 1.005
vt -0.52 1.005
vt 0.5 -0.495
vt -0.5 -0.495
vt 0.5 0.505
vt -0.5 0.505
vt 0.52 1.015
vt 0.51 1.015
vt -0.51 1.015
vt -0.52 1.015
vt 0.5 1.005
vt -0.5 1.005
vt 0.5 1.015
vt -0.5 1.015
vt -0.51 -0.51
vt -0.51 -0.52
vt -0.51 0.51
vt 0.51 -0.51
vt 0.51 0.51
vt 0.51 -0.5
vt 0.51 0.5
vt 0.51 -0.52
vt -0.51 0.5
vt -0.51 -0.5
vt 0.51 0.52
vt -0.51 0.52
vt 0.51 1.165
vt 0.5 1.165
vt -0.5 1.165
vt -0.51 1.165
vt -0.52 1.165
vt 0.9807665 0.8097939
vt 0.009337991 0.8097939
vt 0.9807665 0.9526511
vt 0.009337991 0.9526511
vt 0.52 1.165
vt 0.009942412 0.7624495
vt 0.981371 0.7624495
vt 0.009942412 0.6195924
vt 0.981371 0.6195922
vt 0.51 1.175
vt 0.5 1.175
vt -0.5 1.175
vt -0.51 1.175
vt -0.52 1.175
vt 0.52 1.175

vn 0 0 1
vn -1 0 0
vn 0 0 -1
vn 1 0 0
vn 0 1 0
vn 0 -1 0

usemtl Metal010_1
f 91/56/5 84/10/5 90/18/5
f 91/56/5 85/47/5 84/10/5
f 46/17/5 84/10/5 45/9/5
f 46/17/5 90/18/5 84/10/5
f 99/49/5 46/17/5 45/9/5
f 99/49/5 100/55/5 46/17/5
f 85/47/5 51/15/5 84/10/5
f 85/47/5 82/45/5 51/15/5
f 45/9/5 51/15/5 81/16/5
f 45/9/5 84/10/5 51/15/5
f 96/48/5 45/9/5 81/16/5
f 96/48/5 99/49/5 45/9/5
f 95/52/5 81/16/5 94/24/5
f 95/52/5 96/48/5 81/16/5
f 52/23/5 81/16/5 51/15/5
f 52/23/5 94/24/5 81/16/5
f 82/45/5 52/23/5 51/15/5
f 82/45/5 83/46/5 52/23/5
f 4/4/1 2/2/1 1/1/1
f 1/1/1 3/3/1 4/4/1
f 8/4/2 6/2/2 5/1/2
f 5/1/2 7/3/2 8/4/2
f 12/4/3 10/2/3 9/1/3
f 9/1/3 11/3/3 12/4/3
f 16/4/4 14/2/4 13/1/4
f 13/1/4 15/3/4 16/4/4
f 20/8/5 18/6/5 17/5/5
f 17/5/5 19/7/5 20/8/5
f 24/5/6 22/7/6 21/8/6
f 21/8/6 23/6/6 24/5/6
f 26/10/6 24/5/6 23/6/6
f 23/6/6 25/9/6 26/10/6
f 28/12/4 14/2/4 16/4/4
f 16/4/4 27/11/4 28/12/4
f 30/14/2 7/3/2 5/1/2
f 5/1/2 29/13/2 30/14/2
f 32/10/5 17/5/5 18/6/5
f 18/6/5 31/9/5 32/10/5
f 34/16/6 21/8/6 22/7/6
f 22/7/6 33/15/6 34/16/6
f 36/12/2 6/2/2 8/4/2
f 8/4/2 35/11/2 36/12/2
f 38/14/4 15/3/4 13/1/4
f 13/1/4 37/13/4 38/14/4
f 40/16/5 20/8/5 19/7/5
f 19/7/5 39/15/5 40/16/5
f 2/18/6 26/10/6 25/9/6
f 25/9/6 1/17/6 2/18/6
f 42/20/4 28/12/4 27/11/4
f 27/11/4 41/19/4 42/20/4
f 44/22/2 30/14/2 29/13/2
f 29/13/2 43/21/2 44/22/2
f 10/24/6 34/16/6 33/15/6
f 33/15/6 9/23/6 10/24/6
f 48/20/2 36/12/2 35/11/2
f 35/11/2 47/19/2 48/20/2
f 50/22/4 38/14/4 37/13/4
f 37/13/4 49/21/4 50/22/4
f 56/30/2 30/14/2 44/22/2
f 44/22/2 55/29/2 56/30/2
f 58/32/4 41/19/4 27/11/4
f 27/11/4 57/31/4 58/32/4
f 64/30/4 38/14/4 50/22/4
f 50/22/4 63/29/4 64/30/4
f 66/32/2 47/19/2 35/11/2
f 35/11/2 65/31/2 66/32/2
f 70/38/2 56/30/2 55/29/2
f 55/29/2 69/37/2 70/38/2
f 72/40/4 58/32/4 57/31/4
f 57/31/4 71/39/4 72/40/4
f 74/44/1 60/42/1 59/41/1
f 59/41/1 73/43/1 74/44/1
f 76/38/4 64/30/4 63/29/4
f 63/29/4 75/37/4 76/38/4
f 78/40/2 66/32/2 65/31/2
f 65/31/2 77/39/2 78/40/2
f 80/44/3 68/42/3 67/41/3
f 67/41/3 79/43/3 80/44/3
f 53/10/6 62/15/6 61/16/6
f 61/16/6 54/9/6 53/10/6
f 57/31/4 64/30/4 76/38/4
f 76/38/4 71/39/4 57/31/4
f 70/38/2 77/39/2 65/31/2
f 65/31/2 56/30/2 70/38/2
f 57/49/6 54/9/6 61/16/6
f 61/16/6 64/48/6 57/49/6
f 72/38/1 73/43/1 59/41/1
f 59/41/1 58/30/1 72/38/1
f 14/51/6 23/6/6 21/8/6
f 21/8/6 13/50/6 14/51/6
f 63/31/3 68/42/3 80/44/3
f 80/44/3 75/39/3 63/31/3
f 49/12/3 10/2/3 12/4/3
f 12/4/3 50/11/3 49/12/3
f 50/11/3 12/4/3 68/42/3
f 68/42/3 63/31/3 50/11/3
f 87/30/1 86/41/1 19/3/1
f 19/3/1 15/14/1 87/30/1
f 37/48/6 34/16/6 10/24/6
f 10/24/6 49/52/6 37/48/6
f 16/53/5 17/5/5 32/10/5
f 32/10/5 27/47/5 16/53/5
f 13/50/6 21/8/6 34/16/6
f 34/16/6 37/48/6 13/50/6
f 38/45/5 39/15/5 19/7/5
f 19/7/5 15/54/5 38/45/5
f 15/54/5 19/7/5 17/5/5
f 17/5/5 16/53/5 15/54/5
f 28/49/6 25/9/6 23/6/6
f 23/6/6 14/51/6 28/49/6
f 16/11/3 17/4/3 88/42/3
f 88/42/3 89/31/3 16/11/3
f 42/55/6 1/17/6 25/9/6
f 25/9/6 28/49/6 42/55/6
f 41/14/1 3/3/1 1/1/1
f 1/1/1 42/13/1 41/14/1
f 58/30/1 59/41/1 3/3/1
f 3/3/1 41/14/1 58/30/1
f 86/42/2 61/31/2 39/11/2
f 39/11/2 19/4/2 86/42/2
f 19/8/6 39/16/6 38/48/6
f 38/48/6 15/50/6 19/8/6
f 87/54/5 64/45/5 61/15/5
f 61/15/5 86/7/5 87/54/5
f 15/3/4 38/14/4 64/30/4
f 64/30/4 87/41/4 15/3/4
f 17/3/2 32/14/2 54/30/2
f 54/30/2 88/41/2 17/3/2
f 88/5/5 54/10/5 57/47/5
f 57/47/5 89/53/5 88/5/5
f 16/51/6 27/49/6 32/9/6
f 32/9/6 17/6/6 16/51/6
f 89/42/4 57/31/4 27/11/4
f 27/11/4 16/4/4 89/42/4
f 48/46/6 9/23/6 33/15/6
f 33/15/6 36/45/6 48/46/6
f 8/11/1 20/4/1 92/42/1
f 92/42/1 93/31/1 8/11/1
f 66/30/3 67/41/3 11/3/3
f 11/3/3 47/14/3 66/30/3
f 6/54/6 22/7/6 24/5/6
f 24/5/6 5/53/6 6/54/6
f 47/14/3 11/3/3 9/1/3
f 9/1/3 48/13/3 47/14/3
f 7/51/5 18/6/5 20/8/5
f 20/8/5 8/50/5 7/51/5
f 8/50/5 20/8/5 40/16/5
f 40/16/5 35/48/5 8/50/5
f 36/45/6 33/15/6 22/7/6
f 22/7/6 6/54/6 36/45/6
f 5/53/6 24/5/6 26/10/6
f 26/10/6 29/47/6 5/53/6
f 30/49/5 31/9/5 18/6/5
f 18/6/5 7/51/5 30/49/5
f 29/47/6 26/10/6 2/18/6
f 2/18/6 43/56/6 29/47/6
f 44/11/1 4/4/1 60/42/1
f 60/42/1 55/31/1 44/11/1
f 43/12/1 2/2/1 4/4/1
f 4/4/1 44/11/1 43/12/1
f 98/30/3 97/41/3 18/3/3
f 18/3/3 7/14/3 98/30/3
f 55/31/1 60/42/1 74/44/1
f 74/44/1 69/39/1 55/31/1
f 78/38/3 79/43/3 67/41/3
f 67/41/3 66/30/3 78/38/3
f 65/45/6 62/15/6 53/10/6
f 53/10/6 56/47/6 65/45/6
f 97/42/4 53/31/4 31/11/4
f 31/11/4 18/4/4 97/42/4
f 18/5/6 31/10/6 30/47/6
f 30/47/6 7/53/6 18/5/6
f 98/51/5 56/49/5 53/9/5
f 53/9/5 97/6/5 98/51/5
f 7/3/2 30/14/2 56/30/2
f 56/30/2 98/41/2 7/3/2
f 20/3/4 40/14/4 62/30/4
f 62/30/4 92/41/4 20/3/4
f 92/8/5 62/16/5 65/48/5
f 65/48/5 93/50/5 92/8/5
f 8/54/6 35/45/6 40/15/6
f 40/15/6 20/7/6 8/54/6
f 93/42/2 65/31/2 35/11/2
f 35/11/2 8/4/2 93/42/2
f 102/58/3 79/43/3 78/38/3
f 78/38/3 101/57/3 102/58/3
f 104/60/1 69/39/1 74/44/1
f 74/44/1 103/59/1 104/60/1
f 101/61/2 78/40/2 77/39/2
f 77/39/2 105/60/2 101/61/2
f 103/59/1 74/44/1 73/43/1
f 73/43/1 106/58/1 103/59/1
f 107/59/3 80/44/3 79/43/3
f 79/43/3 102/58/3 107/59/3
f 112/60/3 75/39/3 80/44/3
f 80/44/3 107/59/3 112/60/3
f 113/57/4 76/38/4 75/37/4
f 75/37/4 112/66/4 113/57/4
f 115/61/4 72/40/4 71/39/4
f 71/39/4 114/60/4 115/61/4
f 106/58/1 73/43/1 72/38/1
f 72/38/1 115/57/1 106/58/1
f 120/57/2 70/38/2 69/37/2
f 69/37/2 104/66/2 120/57/2
f 94/72/3 102/58/3 101/57/3
f 101/57/3 95/71/3 94/72/3
f 100/74/1 104/60/1 103/59/1
f 103/59/1 46/73/1 100/74/1
f 95/75/2 101/61/2 105/60/2
f 105/60/2 96/74/2 95/75/2
f 46/73/1 103/59/1 106/58/1
f 106/58/1 90/72/1 46/73/1
f 52/73/3 107/59/3 102/58/3
f 102/58/3 94/72/3 52/73/3
f 85/74/4 114/60/4 113/57/4
f 113/57/4 82/71/4 85/74/4
f 83/74/3 112/60/3 107/59/3
f 107/59/3 52/73/3 83/74/3
f 82/71/4 113/57/4 112/66/4
f 112/66/4 83/76/4 82/71/4
f 91/75/4 115/61/4 114/60/4
f 114/60/4 85/74/4 91/75/4
f 96/74/2 105/60/2 120/57/2
f 120/57/2 99/71/2 96/74/2
f 90/72/1 106/58/1 115/57/1
f 115/57/1 91/71/1 90/72/1
f 99/71/2 120/57/2 104/66/2
f 104/66/2 100/76/2 99/71/2
f 109/10/5 71/47/5 76/45/5
f 76/45/5 108/15/5 109/10/5
f 108/43/1 76/38/1 113/57/1
f 113/57/1 110/58/1 108/43/1
f 111/59/3 114/60/3 71/39/3
f 71/39/3 109/44/3 111/59/3
f 110/16/6 113/48/6 114/49/6
f 114/49/6 111/9/6 110/16/6
f 117/16/5 77/48/5 70/49/5
f 70/49/5 116/9/5 117/16/5
f 116/43/3 70/38/3 120/57/3
f 120/57/3 118/58/3 116/43/3
f 119/59/1 105/60/1 77/39/1
f 77/39/1 117/44/1 119/59/1
f 118/10/6 120/47/6 105/45/6
f 105/45/6 119/15/6 118/10/6

usemtl Metal010_2
f 59/35/1 60/36/1 4/34/1 3/33/1
f 67/35/3 68/36/3 12/34/3 11/33/3

usemtl Metal010
f 53/27/3 54/28/3 32/26/3 31/25/3
f 61/27/1 62/28/1 40/26/1 39/25/1

usemtl ServerStack-Texture
f 110/64/4 111/65/4 109/63/4 108/62/4
f 118/69/2 119/70/2 117/68/2 116/67/2

