# ProBuilder 5.0.4
# https://unity3d.com/unity/features/worldbuilding/probuilder
# 5/23/2022 9:27:48 PM

mtllib ./1-Meter-Shelf.mtl
o 1-Meter-Shelf

g 1-Meter-Shelf
v 5 4.85 1.5
v -5 4.85 1.5
v 5 5.05 1.5
v -5 5.05 1.5
v -5 4.85 -1.5
v 5 4.85 -1.5
v -5 5.05 -1.5
v 5 5.05 -1.5
v -5 -5.05 1.5
v -5.2 -5.05 1.5
v -5.2 5.05 1.5
v -5.2 -5.05 -1.5
v -5.2 5.05 -1.5
v -5 -5.05 -1.5
v 5.2 -5.05 1.5
v 5 -5.05 1.5
v 5.199999 5.05 1.5
v 5 -5.05 -1.5
v 5.2 -5.05 -1.5
v 5.199999 5.05 -1.5
v 5 -2.65 1.5
v -5 -2.65 1.5
v 5 -2.45 1.5
v -5 -2.45 1.5
v -5 -2.65 -1.5
v 5 -2.65 -1.5
v -5 -2.45 -1.5
v 5 -2.45 -1.5
v 5 -0.1500001 1.5
v -5 -0.1500001 1.5
v 5 0.04999971 1.5
v -5 0.04999971 1.5
v -5 -0.1500001 -1.5
v 5 -0.1500001 -1.5
v -5 0.04999971 -1.5
v 5 0.04999971 -1.5
v 5 2.35 1.5
v -5 2.35 1.5
v 5 2.55 1.5
v -5 2.55 1.5
v -5 2.35 -1.5
v 5 2.35 -1.5
v -5 2.55 -1.5
v 5 2.55 -1.5

vt 2.665 2.207476
vt 1.665 2.207476
vt 2.665 2.227476
vt 1.665 2.227476
vt 1.664999 -1.6775
vt 2.664999 -1.6775
vt 1.664999 -1.9775
vt 2.664999 -1.9775
vt 2.665 -1.9775
vt 1.665 -1.9775
vt 2.665 -1.6775
vt 1.665 -1.6775
vt 1.665 1.2175
vt 1.645 1.2175
vt 1.665 2.2275
vt 1.645 2.2275
vt -1.384999 1.2175
vt -1.684999 1.2175
vt -1.384999 2.2275
vt -1.684999 2.2275
vt 2.685 1.2175
vt 2.665 1.2175
vt 2.685 2.2275
vt 2.665 2.2275
vt 2.684976 -1.6775
vt 2.684976 -1.9775
vt 1.645 -1.9775
vt 1.645 -1.6775
vt -1.384999 1.217501
vt -1.684999 1.217501
vt 1.645 -1.6775
vt 1.645 -1.9775
vt 2.665 1.4575
vt 1.665 1.4575
vt 2.665 1.4775
vt 1.665 1.4775
vt 2.665 1.7075
vt 1.665 1.7075
vt 2.665 1.7275
vt 1.665 1.7275
vt 2.665 1.9575
vt 1.665 1.9575
vt 2.665 1.9775
vt 1.665 1.9775

vn 0 0 1
vn 0 0 -1
vn 0 1 0
vn 0 -1 0
vn -1 0 0
vn 1 0 0

usemtl Metal027
f 3/3/1 4/4/1 2/2/1 1/1/1
f 7/3/2 8/4/2 6/2/2 5/1/2
f 8/7/3 7/8/3 4/6/3 3/5/3
f 1/11/4 2/12/4 5/10/4 6/9/4
f 4/15/1 11/16/1 10/14/1 9/13/1
f 11/19/5 13/20/5 12/18/5 10/17/5
f 13/23/2 7/24/2 14/22/2 12/21/2
f 7/19/6 4/20/6 9/18/6 14/17/6
f 7/8/3 13/26/3 11/25/3 4/6/3
f 9/12/4 10/28/4 12/27/4 14/10/4
f 17/23/1 3/24/1 16/22/1 15/21/1
f 3/19/5 8/20/5 18/18/5 16/17/5
f 8/15/2 20/16/2 19/14/2 18/13/2
f 20/19/6 17/20/6 15/30/6 19/29/6
f 20/32/3 8/7/3 3/5/3 17/31/3
f 15/25/4 16/6/4 18/8/4 19/26/4
f 23/35/1 24/36/1 22/34/1 21/33/1
f 27/35/2 28/36/2 26/34/2 25/33/2
f 28/7/3 27/8/3 24/6/3 23/5/3
f 21/11/4 22/12/4 25/10/4 26/9/4
f 31/39/1 32/40/1 30/38/1 29/37/1
f 35/39/2 36/40/2 34/38/2 33/37/2
f 36/7/3 35/8/3 32/6/3 31/5/3
f 29/11/4 30/12/4 33/10/4 34/9/4
f 39/43/1 40/44/1 38/42/1 37/41/1
f 43/43/2 44/44/2 42/42/2 41/41/2
f 44/7/3 43/8/3 40/6/3 39/5/3
f 37/11/4 38/12/4 41/10/4 42/9/4

