# ProBuilder 5.0.6
# https://unity3d.com/unity/features/worldbuilding/probuilder
# 1/23/2023 2:37:14 AM

mtllib ./Cheyenne-Door-Frame-0.mtl
o Cheyenne-Door-Frame-0

g Cheyenne-Door-Frame-0
v -1.25 3.0625 0.3749993
v -1.25 -0.06249976 0.3749998
v -1.25 3.0625 0.1249993
v -1.25 -0.06249976 0.1249998
v 1.25 0.06249976 0.3749998
v 1.25 3.0625 0.3749993
v 1.25 0.06249976 0.1249998
v 1.25 3.0625 0.1249993
v 1.5 0.06249976 0.1249998
v 1.5 3.3125 0.1249993
v 1.5 0.06249976 -0.1249999
v 1.5 3.3125 -0.1250007
v -4.25 3.3125 0.1249993
v -4.25 -0.06249976 0.1249997
v -4.25 3.3125 -0.1250007
v -4.25 -0.06249976 -0.1250003
v 1.25 0.06249976 -0.1249999
v 1.25 3.0625 -0.1250007
v 1.25 0.06249964 -0.3749998
v 1.25 3.0625 -0.3750007
v -1.25 3.0625 -0.1250007
v -1.25 -0.06249976 -0.1250003
v -1.25 3.0625 -0.3750007
v -1.25 -0.06249976 -0.3750003

vt -0.3749993 3.0625
vt -0.3749998 -0.06249976
vt -0.1249993 3.0625
vt -0.1249998 -0.06249976
vt 0.3749998 0.06249976
vt 0.3749993 3.0625
vt 0.1249998 0.06249976
vt 0.1249993 3.0625
vt 1.25 0.3749993
vt -1.25 0.3749993
vt 1.25 0.1249993
vt -1.25 0.1249993
vt 0.1249993 3.3125
vt -0.1249999 0.06249976
vt -0.1250007 3.3125
vt -0.1249993 3.3125
vt 0.1250007 3.3125
vt 0.1250003 -0.06249976
vt 1.5 0.1249993
vt -4.25 0.1249993
vt 1.5 -0.1250007
vt -4.25 -0.1250007
vt -0.1250007 3.0625
vt -0.3749998 0.06249964
vt -0.3750007 3.0625
vt 0.1250007 3.0625
vt 0.3750007 3.0625
vt 0.3750003 -0.06249976
vt 1.25 -0.1250007
vt -1.25 -0.1250007
vt 1.25 -0.3750007
vt -1.25 -0.3750007
vt -1.25 3.0625
vt -1.25 0.06249974
vt -1.5 3.3125
vt -1.5 0.06249974
vt -1.25 -0.1249999
vt -1.5 0.1249998
vt -1.5 -0.1249999
vt 1.25 0.0624998
vt 1.25 3.0625
vt 1.5 0.0624998
vt 1.5 3.3125
vt -4.25 3.3125
vt 4.25 3.3125
vt -1.25 -0.06249975
vt -4.25 -0.06249975
vt 1.25 -0.06249978
vt 4.25 -0.06249978
vt 4.25 -0.1250003
vt 4.25 0.1249997
vt 1.251562 0.3749998
vt -1.251562 0.3749998
vt -1.251562 0.1249998
vt -1.251562 -0.1249999
vt -1.251562 -0.3749998
vt 1.251562 -0.3750003
vt 1.251562 -0.1250003
vt 1.251562 0.1249998

vn 1 0 0
vn -1 0 0
vn 0 -1 0
vn 1.589457E-07 -1.589457E-07 -1
vn 0 1 0
vn 0 2.78155E-07 1
vn -0.04993743 0.9987524 0

usemtl Concrete024-Warm
f 4/4/1 3/3/1 1/1/1 2/2/1
f 8/8/2 7/7/2 5/5/2 6/6/2
f 3/12/3 8/11/3 6/9/3 1/10/3
f 12/15/2 11/14/2 9/7/2 10/13/2
f 16/18/1 15/17/1 13/16/1 14/4/1
f 15/22/3 12/21/3 10/19/3 13/20/3
f 20/25/2 19/24/2 17/14/2 18/23/2
f 24/28/1 23/27/1 21/26/1 22/18/1
f 23/32/3 20/31/3 18/29/3 21/30/3
f 10/35/4 9/36/4 7/34/4 8/33/4
f 11/42/6 12/43/6 18/41/6 17/40/6
f 12/43/6 15/44/6 21/33/6 18/41/6
f 13/45/4 10/35/4 8/33/4 3/41/4
f 15/44/6 16/47/6 22/46/6 21/33/6
f 14/49/4 13/45/4 3/41/4 4/48/4

usemtl Metal011-Warning-Line1
f 19/56/7 24/57/7 22/58/7
f 17/55/7 19/56/7 22/58/7
f 4/59/7 17/55/7 22/58/7
f 4/59/7 7/54/7 17/55/7
f 5/53/7 7/54/7 4/59/7
f 5/53/7 4/59/7 2/52/7
f 11/39/5 17/37/5 7/12/5
f 7/12/5 9/38/5 11/39/5
f 14/51/5 4/11/5 22/29/5
f 22/29/5 16/50/5 14/51/5

