# ProBuilder 5.0.6
# https://unity3d.com/unity/features/worldbuilding/probuilder
# 1/23/2023 2:37:14 AM

mtllib ./Cheyenne-Door-Frame-1.mtl
o Cheyenne-Door-Frame-1

g Cheyenne-Door-Frame-1
v -1.25 3 0.375
v -1.25 0 0.375
v -1.25 3 0.125
v -1.25 0 0.125
v 1.25 3 0.375
v 1.25 3 0.125
v 1.25 0 0.375
v 1.25 0 0.125
v -1.25 0 -0.125
v 1.25 0 -0.125
v -1.5 3.25 0.125
v -1.5 0 0.125
v -1.5 3.25 -0.125
v -1.5 0 -0.125
v 3.75 3.25 0.125
v 3.75 3.25 -0.125
v 3.75 0 0.125
v 3.75 0 -0.125
v -1.25 0 -0.375
v 1.25 0 -0.375
v -1.25 3 -0.125
v -1.25 3 -0.375
v 1.25 3 -0.125
v 1.25 3 -0.375

vt -0.375 3
vt -0.375 0
vt -0.125 3
vt -0.125 0
vt 1.25 0.375
vt -1.25 0.375
vt 1.25 0.125
vt -1.25 0.125
vt 0.375 0
vt 0.375 3
vt 0.125 0
vt 0.125 3
vt 1.25 -0.125
vt -1.25 -0.125
vt -0.125 3.25
vt 0.125 3.25
vt 3.75 0.125
vt -1.5 0.125
vt 3.75 -0.125
vt -1.5 -0.125
vt 1.25 -0.375
vt -1.25 -0.375
vt 1.25 0
vt 1.25 3
vt 1.5 0
vt 1.5 3.25
vt -1.25 3
vt -1.25 0
vt -3.75 3.25
vt -3.75 0
vt -1.5 3.25
vt -1.5 0
vt 1.5 -0.125
vt 1.5 0.125
vt 3.75 3.25
vt -3.75 0.125
vt -3.75 -0.125
vt 3.75 0

vn 1 0 0
vn 0 -1 0
vn -1 0 0
vn 0 1 0
vn 0 0 -1
vn 0 0 1

usemtl Concrete024-Warm
f 4/4/1 3/3/1 1/1/1 2/2/1
f 3/8/2 6/7/2 5/5/2 1/6/2
f 6/12/3 8/11/3 7/9/3 5/10/3
f 2/5/4 7/6/4 8/8/4 4/7/4
f 10/14/4 9/13/4 4/7/4 8/8/4
f 14/11/1 13/16/1 11/15/1 12/4/1
f 13/20/2 16/19/2 15/17/2 11/18/2
f 16/15/3 18/4/3 17/11/3 15/16/3
f 20/22/4 19/21/4 9/13/4 10/14/4
f 19/9/1 22/10/1 21/12/1 9/11/1
f 22/22/2 24/21/2 23/13/2 21/14/2
f 24/1/3 20/2/3 10/4/3 23/3/3
f 12/25/5 11/26/5 3/24/5 4/23/5
f 15/29/5 17/30/5 8/28/5 6/27/5
f 13/31/6 14/32/6 9/28/6 21/27/6
f 14/33/4 12/34/4 4/7/4 9/13/4
f 11/26/5 15/29/5 6/27/5 3/24/5
f 16/35/6 13/31/6 21/27/6 23/24/6
f 17/36/4 18/37/4 10/14/4 8/8/4
f 18/38/6 16/35/6 23/24/6 10/23/6

