# ProBuilder 5.0.6
# https://unity3d.com/unity/features/worldbuilding/probuilder
# 8/21/2022 5:38:24 PM

mtllib ./Thresher-Device-Head.mtl
o Thresher-Device-Head

g Thresher-Device-Head
v -3.923141 -2.5 0.7803612
v -3.923141 0 0.7803612
v -3.325878 -2.5 2.222281
v -3.325878 0 2.222281
v -2.222281 -2.5 3.325878
v -2.222281 0 3.325878
v -0.7803612 -2.5 3.923141
v -0.7803612 0 3.923141
v 0.7803612 -2.5 3.923141
v 0.7803612 0 3.923141
v 2.222281 -2.5 3.325879
v 2.222281 0 3.325879
v 3.325879 -2.5 2.222281
v 3.325879 0 2.222281
v 3.923141 -2.5 0.7803616
v 3.923141 0 0.7803616
v 3.923141 -2.5 -0.7803616
v 3.923141 0 -0.7803616
v 3.325878 -2.5 -2.222281
v 3.325878 0 -2.222281
v 2.222281 -2.5 -3.325878
v 2.222281 0 -3.325878
v 0.7803617 -2.5 -3.923141
v 0.7803617 0 -3.923141
v -0.7803612 -2.5 -3.923141
v -0.7803612 0 -3.923141
v -2.222282 -2.5 -3.325878
v -2.222282 0 -3.325878
v -3.325878 -2.5 -2.222281
v -3.325878 0 -2.222281
v -3.923141 -2.5 -0.7803613
v -3.923141 0 -0.7803613
v -3.923141 2.5 0.7803612
v -3.325878 2.5 2.222281
v -2.222281 2.5 3.325878
v -0.7803612 2.5 3.923141
v 0.7803612 2.5 3.923141
v 2.222281 2.5 3.325879
v 3.325879 2.5 2.222281
v 3.923141 2.5 0.7803616
v 3.923141 2.5 -0.7803616
v 3.325878 2.5 -2.222281
v 2.222281 2.5 -3.325878
v 0.7803617 2.5 -3.923141
v -0.7803612 2.5 -3.923141
v -2.222282 2.5 -3.325878
v -3.325878 2.5 -2.222281
v -3.923141 2.5 -0.7803613
v 0 -2.5 0
v -1.11114 3.75 1.662939
v -1.662939 3.75 1.11114
v -0.3901806 8.5 2.46157
v 0.3901806 8.5 2.461571
v 1.662939 3.75 1.11114
v 1.11114 3.75 1.662939
v 1.111141 3.75 -1.662939
v 1.662939 3.75 -1.11114
v -0.3901806 8.5 -2.461571
v 0.3901808 8.5 -2.461571
v -1.111141 3.75 -1.662939
v -1.662939 3.75 -1.111141
v -2.461571 8.5 -0.3901806
v -2.461571 8.5 0.3901806
v 2.461571 8.5 -0.3901807
v 2.461571 8.5 0.3901808
v -0.5555702 3.75 0.8314695
v -0.8314695 3.75 0.5555702
v 0.8314697 3.75 0.5555702
v 0.5555702 3.75 0.8314697
v 0.5555703 3.75 -0.8314695
v 0.8314697 3.75 -0.5555702
v -0.5555704 3.75 -0.8314694
v -0.8314695 3.75 -0.5555703
v 0.9807853 3.75 -0.1950904
v 0.9807853 3.75 0.1950904
v 0.1950903 3.75 0.9807853
v -0.1950903 3.75 0.9807852
v -0.9807853 3.75 0.1950903
v -0.9807853 3.75 -0.1950903
v -0.1950903 3.75 -0.9807853
v 0.1950904 3.75 -0.9807853
v -0.9807853 3.024166 0.1950903
v -0.4903926 3.024166 0.09754515
v -0.4157348 3.024166 0.2777851
v -0.8314696 3.024166 0.5555702
v -0.2777851 3.024166 0.4157348
v -0.5555702 3.024166 0.8314695
v -0.09754515 3.024166 0.4903926
v -0.1950903 3.024166 0.9807852
v 0.09754515 3.024166 0.4903926
v 0.1950903 3.024166 0.9807853
v 0.2777851 3.024166 0.4157348
v 0.5555702 3.024166 0.8314697
v 0.4157348 3.024166 0.2777851
v 0.8314697 3.024166 0.5555702
v 0.4903927 3.024166 0.09754519
v 0.9807853 3.024166 0.1950904
v 0.2777852 3.024166 -0.4157348
v 0.5555703 3.024166 -0.8314695
v 0.8314697 3.024166 -0.5555702
v 0.4157348 3.024166 -0.2777851
v 0.09754521 3.024166 -0.4903926
v 0.1950904 3.024166 -0.9807853
v -0.09754515 3.024166 -0.4903927
v -0.1950903 3.024166 -0.9807853
v -0.5555704 3.024166 -0.8314694
v -0.2777851 3.024166 -0.4157347
v -0.4157347 3.024166 -0.2777852
v -0.8314695 3.024166 -0.5555703
v -0.4903926 3.024166 -0.09754515
v -0.9807852 3.024166 -0.1950903
v 0.4903926 3.024166 -0.09754518
v 0.9807853 3.024166 -0.1950904
v 0.2926356 6.375 -2.221178
v -0.2926354 6.375 -2.221178
v 2.221178 6.375 -0.2926356
v 2.221178 6.375 0.2926354
v -0.2926354 6.375 2.221178
v 0.2926355 6.375 2.221178
v -2.221178 6.375 -0.2926354
v -2.221178 6.375 0.2926354
v 0.09754521 3.75 -0.4903926
v -0.09754515 3.75 -0.4903927
v 0.4903927 3.75 0.09754519
v 0.4903926 3.75 -0.09754518
v 0.4157348 3.75 -0.2777851
v 0.2777852 3.75 -0.4157348
v -0.2777852 3.75 -0.4157347
v -0.4157347 3.75 -0.2777852
v -0.4903926 3.75 -0.09754515
v -0.4903927 3.75 0.09754515
v -0.4157348 3.75 0.2777851
v -0.2777851 3.75 0.4157348
v -0.09754515 3.75 0.4903926
v 0.09754515 3.75 0.4903927
v 0.2777851 3.75 0.4157348
v 0.4157348 3.75 0.2777851
v -0.2451963 5 0.04877258
v -0.2078674 5 0.1388926
v 0 6.25 0
v -0.1388926 5 0.2078674
v -0.04877258 5 0.2451963
v 0.04877258 5 0.2451963
v 0.1388925 5 0.2078674
v 0.2078674 5 0.1388925
v 0.2451963 5 0.0487726
v 0.2078674 5 -0.1388925
v 0.1388926 5 -0.2078674
v 0.04877261 5 -0.2451963
v -0.04877258 5 -0.2451963
v -0.1388926 5 -0.2078674
v -0.2078674 5 -0.1388926
v -0.2451963 5 -0.04877257
v 0.2451963 5 -0.04877259

vt 5.326904 1.09375
vt 5.326904 1.40625
vt 5.521994 1.09375
vt 5.521994 1.40625
vt 1.051517 1.09375
vt 1.051517 1.40625
vt 1.246607 1.09375
vt 1.246607 1.40625
vt 2.324275 1.09375
vt 2.324275 1.40625
vt 2.519365 1.09375
vt 2.519365 1.40625
vt -0.6950891 -1.0125
vt -0.3049085 -1.0125
vt 5.522007 1.09375
vt 5.522007 1.40625
vt 6.599676 1.09375
vt 6.599676 1.40625
vt 6.794766 1.09375
vt 6.794766 1.40625
vt 5.326904 3.59375
vt 5.326904 3.90625
vt 5.521994 3.59375
vt 5.521994 3.90625
vt 1.051517 3.59375
vt 1.051517 3.90625
vt 1.246607 3.59375
vt 1.246607 3.90625
vt 2.324275 3.59375
vt 2.324275 3.90625
vt 2.519365 3.59375
vt 2.519365 3.90625
vt -0.6950891 -0.5
vt -0.6950891 0.01249999
vt -0.3049085 -0.5
vt -0.3049085 0.01249999
vt 5.522007 3.59375
vt 5.522007 3.90625
vt 6.599676 3.59375
vt 6.599676 3.90625
vt 6.794766 3.59375
vt 6.794766 3.90625
vt 1.716374 4.99293
vt 2.206767 4.895385
vt 1.791032 5.17317
vt 2.052335 5.655992
vt 2.46807 5.378207
vt 2.190284 5.793941
vt 2.673106 6.05525
vt 2.950891 5.639515
vt 2.853346 6.129908
vt 3.825596 6.129913
vt 3.923141 5.639521
vt 4.020687 6.129913
vt 4.992943 6.129913
vt 4.895398 5.639521
vt 5.173183 6.055255
vt 5.655995 5.793945
vt 5.37821 5.37821
vt 5.793945 5.655995
vt 6.055248 5.173183
vt 5.639513 4.895398
vt 6.129906 4.992943
vt 6.129913 4.020686
vt 5.639521 3.923141
vt 6.129913 3.825596
vt 6.129913 2.853346
vt 5.639521 2.950891
vt 6.055255 2.673106
vt 5.793941 2.190284
vt 5.378207 2.46807
vt 5.655992 2.052335
vt 5.173183 1.791032
vt 4.895398 2.206767
vt 4.992943 1.716374
vt 4.020691 1.716374
vt 3.923146 2.206767
vt 3.825601 1.716374
vt 2.85335 1.716374
vt 2.950895 2.206767
vt 2.67311 1.791032
vt 2.190285 2.052335
vt 2.46807 2.46807
vt 2.052335 2.190285
vt 1.791032 2.673108
vt 2.206767 2.950893
vt 1.716374 2.853348
vt 1.716374 3.825596
vt 2.206767 3.923141
vt 1.716374 4.020686
vt 5.990291 6.053445
vt 6.161394 6.293524
vt 6.299344 6.155574
vt 6.059266 5.98447
vt 3.874373 8.385966
vt 3.971919 8.385966
vt 4.020691 7.614035
vt 3.825601 7.614035
vt 1.787025 5.984461
vt 1.546947 6.155565
vt 1.684896 6.293515
vt 1.856 6.053436
vt 1.853272 1.79737
vt 1.689484 1.552243
vt 1.547438 1.685971
vt 1.78225 1.864234
vt 3.969853 8.386218
vt 4.022754 7.614559
vt 3.827666 7.613516
vt 3.872309 8.385696
vt 6.299344 1.690717
vt 6.161395 1.552767
vt 5.990291 1.792845
vt 6.059266 1.86182
vt 3.824891 7.614203
vt 3.875074 8.386045
vt 3.972619 8.385866
vt 4.019981 7.613847
vt 4.963186 4.997674
vt 5.032632 5.101607
vt 5.101607 5.032632
vt 4.997674 4.963186
vt 2.84861 4.963194
vt 2.744676 5.03264
vt 2.813651 5.101615
vt 2.883097 4.997682
vt 2.883097 2.84861
vt 2.813651 2.744676
vt 2.744676 2.813651
vt 2.848609 2.883097
vt 5.101606 2.813651
vt 5.032631 2.744676
vt 4.963185 2.84861
vt 4.997673 2.883097
vt 6.876128 5.329941
vt 6.554068 5.377073
vt 6.814588 5.515071
vt 0.9804468 7.62536
vt 1.163508 8.376855
vt 1.26837 7.777163
vt 5.50938 6.795828
vt 5.345592 6.550701
vt 5.331472 6.875885
vt 6.579381 7.776258
vt 6.680322 8.376623
vt 6.86829 7.62634
vt 1.165972 8.376623
vt 1.266913 7.776258
vt 0.9780037 7.62634
vt 2.50069 6.550673
vt 2.336902 6.7958
vt 2.514809 6.875856
vt 6.682784 8.376855
vt 6.865845 7.62536
vt 6.577921 7.777163
vt 0.9637782 5.341656
vt 1.038436 5.521895
vt 1.288389 5.365571
vt 1.286543 2.48546
vt 1.041415 2.321671
vt 0.9613584 2.499579
vt 2.519577 0.9732827
vt 2.339337 1.047941
vt 2.495662 1.297894
vt 5.506942 1.047941
vt 5.326703 0.9732831
vt 5.350617 1.297894
vt 6.882493 2.504627
vt 6.807836 2.324387
vt 6.557882 2.480711
vt 2.727898 3.282219
vt 2.623964 3.212772
vt 2.709233 3.327279
vt 2.727898 4.564064
vt 2.709233 4.519004
vt 2.623964 4.63351
vt 3.327279 5.13702
vt 3.282219 5.118355
vt 3.212773 5.222289
vt 4.633519 5.222265
vt 4.564073 5.118331
vt 4.519013 5.136996
vt 5.137019 4.519004
vt 5.118355 4.564064
vt 5.222288 4.63351
vt 5.137043 3.327286
vt 5.222312 3.212779
vt 5.118379 3.282226
vt 4.633529 2.623976
vt 4.519023 2.709245
vt 4.564083 2.72791
vt 3.327279 2.709239
vt 3.212773 2.62397
vt 3.282219 2.727904
vt 4.656747 4.233284
vt 4.595448 4.22109
vt 4.586116 4.24362
vt 4.638083 4.278343
vt 4.51239 4.477902
vt 4.460423 4.443179
vt 4.443179 4.460423
vt 4.477902 4.51239
vt 4.278343 4.638067
vt 4.24362 4.5861
vt 4.22109 4.595432
vt 4.233284 4.656732
vt 3.935335 4.628062
vt 3.910948 4.628062
vt 3.898755 4.689362
vt 3.947528 4.689362
vt 3.60268 4.586085
vt 3.567957 4.638052
vt 3.613017 4.656717
vt 3.62521 4.595417
vt 3.385887 4.443179
vt 3.33392 4.477902
vt 3.368408 4.51239
vt 3.403131 4.460423
vt 3.250875 4.22109
vt 3.189576 4.233284
vt 3.208241 4.278343
vt 3.260207 4.24362
vt 3.403131 3.385887
vt 3.368408 3.33392
vt 3.33392 3.368408
vt 3.385887 3.403131
vt 3.62521 3.250865
vt 3.613017 3.189565
vt 3.567957 3.20823
vt 3.60268 3.260197
vt 3.910948 3.218202
vt 3.935334 3.218202
vt 3.947527 3.156903
vt 3.898755 3.156903
vt 4.278308 3.20823
vt 4.233249 3.189565
vt 4.221056 3.250865
vt 4.243586 3.260197
vt 4.460422 3.40312
vt 4.512389 3.368396
vt 4.477901 3.333909
vt 4.443178 3.385876
vt 4.595417 3.62521
vt 4.656717 3.613017
vt 4.638052 3.567957
vt 4.586085 3.60268
vt 4.689362 3.947547
vt 4.689362 3.898774
vt 4.628062 3.910967
vt 4.628062 3.935354
vt 3.218202 3.910967
vt 3.156903 3.898774
vt 3.156903 3.947547
vt 3.218202 3.935354
vt 3.260207 3.60268
vt 3.208241 3.567957
vt 3.189576 3.613017
vt 3.250875 3.62521
vt -0.3536821 7.118917
vt -0.6463177 7.118917
vt -0.6950902 8.188193
vt -0.3049095 8.188193
vt -0.3510915 5.986506
vt -0.4050481 4.535035
vt -0.6001372 4.535732
vt -0.6437252 5.987551
vt 3.34141 7.388303
vt 3.198643 7.388303
vt 3.239026 7.736688
vt 3.17373 8.323972
vt 3.265087 8.925869
vt 3.278684 8.658618
vt 4.574365 7.739415
vt 4.678766 7.404596
vt 4.538484 7.378074
vt 4.567432 8.658343
vt 4.579703 8.925659
vt 4.674046 8.324223
vt -0.4024546 4.535379
vt -0.597545 4.535379
vt -0.6463175 5.987034
vt -0.353682 5.987034
vt 3.910948 7.355627
vt 3.935334 7.355627
vt 3.910948 7.264898
vt 3.935334 7.264898
vt 3.898755 7.355627
vt 3.947527 7.355627
vt 3.898755 7.264898
vt 3.947527 7.264898
vt 4.055955 7.499507
vt 4.068112 7.500449
vt 4.086481 7.342166
vt 4.062168 7.340284
vt 4.049743 7.658731
vt 3.709226 7.500758
vt 3.721322 7.49922
vt 3.707278 7.340496
vt 3.683087 7.343573
vt 3.735365 7.657944
vt 3.778138 7.50043
vt 3.790299 7.499547
vt 3.784863 7.340296
vt 3.760541 7.34206
vt 3.795735 7.658799
vt 3.917083 7.499982
vt 3.929276 7.499974
vt 3.935263 7.340742
vt 3.910877 7.340759
vt 3.92329 7.659205
vt 4.085711 7.34206
vt 4.061389 7.340296
vt 4.050517 7.658799
vt 4.124961 7.49922
vt 4.137056 7.500758
vt 4.163196 7.343573
vt 4.139004 7.340496
vt 4.110918 7.657944
vt 3.784115 7.340284
vt 3.759801 7.342166
vt 3.79654 7.658731
vt 3.703706 7.340714
vt 3.67959 7.344333
vt 3.7389 7.657454
vt 4.124912 7.499989
vt 4.137105 7.499989
vt 4.143202 7.340761
vt 4.118815 7.340761
vt 4.131009 7.659217
vt 3.778152 7.499989
vt 3.796442 7.340761
vt 3.772056 7.340761
vt 3.784249 7.659217
vt 3.911096 7.340742

vn -0.9807853 0 0.1950904
vn -0.9657295 0 0.2595506
vn -0.8314696 0 0.5555703
vn -0.5555702 0 0.8314697
vn -0.1950904 0 0.9807853
vn -0.2595505 0 0.9657295
vn 0.1950902 0 0.9807853
vn 0.2595504 0 0.9657295
vn 0.5555702 0 0.8314696
vn 0.8314697 0 0.5555702
vn 0.9807853 0 0.1950904
vn 0.9657295 0 0.2595505
vn 0.9807853 0 -0.1950904
vn 0.9657295 0 -0.2595507
vn 0.8314695 0 -0.5555704
vn 0.5555704 0 -0.8314695
vn 0.1950905 0 -0.9807853
vn 0.2595507 0 -0.9657295
vn -0.1950904 0 -0.9807853
vn -0.2595506 0 -0.9657295
vn -0.5555704 0 -0.8314695
vn -0.8314696 0 -0.5555702
vn -0.9807853 0 -0.1950904
vn -0.9657295 0 -0.2595507
vn 0 -1 0
vn -0.3800021 0.8433249 0.3800021
vn -5.936863E-07 0.2366744 0.971589
vn 0.3800021 0.8433248 0.3800021
vn 0.3800021 0.8433248 -0.3800021
vn 0 0.2366743 -0.971589
vn -0.3800021 0.8433249 -0.3800021
vn -0.971589 0.2366743 -1.484215E-07
vn 0.971589 0.2366743 -7.421077E-08
vn 0 1 0
vn -0.4964966 0.8433249 0.2056558
vn -0.2048493 0.1131248 0.9722343
vn -0.2056556 0.8433248 0.4964967
vn -0.9722343 0.1131248 0.2048494
vn 0.9722343 0.1131248 0.2048493
vn 0.2056556 0.8433248 0.4964966
vn 0.2048492 0.1131248 0.9722344
vn 0.4964967 0.8433249 0.2056556
vn 0.2048492 0.1131248 -0.9722344
vn 0.4964966 0.8433248 -0.2056558
vn 0.9722343 0.1131248 -0.2048492
vn 0.2056557 0.8433248 -0.4964966
vn -0.2056557 0.8433249 -0.4964966
vn -0.9722343 0.1131248 -0.2048494
vn -0.2048494 0.1131248 -0.9722343
vn -0.4964967 0.8433248 -0.2056557
vn 0 0.112409 0.9936621
vn -1.38118E-07 0.4272342 0.9041409
vn -0.5625258 0.3360483 0.7554047
vn 0.2661217 0.1204084 0.9563895
vn 0.5625261 0.3360483 0.7554045
vn -0.2661215 0.1204084 0.9563896
vn -0.904141 0.4272342 6.905903E-08
vn -0.9936621 0.1124089 0
vn -0.7554044 0.3360482 -0.5625262
vn -0.9563896 0.1204083 0.2661217
vn -0.7554045 0.3360482 0.5625262
vn -0.9563897 0.1204085 -0.2661213
vn 8.095654E-07 0.112409 -0.9936621
vn 7.366299E-07 0.4272342 -0.904141
vn 0.5625262 0.3360482 -0.7554044
vn -0.2661214 0.1204084 -0.9563897
vn -0.5625262 0.3360481 -0.7554045
vn 0.2661211 0.1204084 -0.9563898
vn 0.9936621 0.112409 0
vn 0.9041409 0.4272343 0
vn 0.7554046 0.3360482 0.562526
vn 0.9563896 0.1204084 -0.2661215
vn 0.7554046 0.3360483 -0.5625259
vn 0.9563897 0.1204084 0.2661216
vn 1.527616E-07 -1.568076E-15 -1
vn -0.9238796 0 0.3826834
vn 1 0 -1.527616E-07
vn 0.9238796 0 -0.3826834
vn 0.7071068 2.90334E-08 -0.7071068
vn 0.3826835 0 -0.9238795
vn -0.7071068 0 0.7071068
vn -0.3826835 7.856383E-09 0.9238795
vn -1.527616E-07 -3.136152E-15 1
vn -0.3826838 3.400576E-08 -0.9238793
vn 0.3826838 -3.142555E-08 0.9238793
vn -0.7071068 -5.806679E-08 -0.7071068
vn -0.9238794 -2.222119E-08 -0.3826836
vn 0.7071068 0 0.7071068
vn -1 0 -1.527617E-07
vn 0.9238794 7.586792E-08 0.3826836
vn -0.9066021 0.1924887 0.3755271
vn -0.6938833 0.1924888 0.6938833
vn -0.3755269 0.1924887 0.9066023
vn -2.998098E-07 0.1924887 0.9812992
vn 0.3755269 0.1924888 0.9066022
vn 0.6938834 0.1924888 0.6938832
vn 0.9066022 0.1924888 0.375527
vn 0.6938833 0.1924888 -0.6938833
vn 0.3755271 0.1924888 -0.9066022
vn 1.499049E-07 0.1924888 -0.9812992
vn -0.3755273 0.1924887 -0.9066021
vn -0.6938833 0.1924887 -0.6938833
vn -0.9066022 0.1924888 -0.3755271
vn -0.9812992 0.1924888 -1.499049E-07
vn 0.9812992 0.1924888 -1.499049E-07
vn 0.9066023 0.1924888 -0.3755268

usemtl Metal_pattern_20
f 36/98/27 37/97/27 53/96/27 52/95/27
f 44/109/30 45/108/30 58/107/30 59/110/30
f 33/118/32 63/117/32 62/116/32 48/115/32
f 40/98/33 41/97/33 64/96/33 65/95/33

usemtl Metal_pattern_01-Opaque
f 26/35/20 44/34/17 24/33/18
f 26/35/20 45/36/19 44/34/17
f 25/14/19 24/33/18 23/13/17
f 25/14/19 26/35/20 24/33/18
f 2/35/2 48/34/23 32/33/24
f 2/35/2 33/36/1 48/34/23
f 1/14/1 32/33/24 31/13/23
f 1/14/1 2/35/2 32/33/24
f 10/35/8 36/34/5 8/33/6
f 10/35/8 37/36/7 36/34/5
f 9/14/7 8/33/6 7/13/5
f 9/14/7 10/35/8 8/33/6
f 18/35/14 40/34/11 16/33/12
f 18/35/14 41/36/13 40/34/11
f 17/14/13 16/33/12 15/13/11
f 17/14/13 18/35/14 16/33/12

usemtl Metal_pattern_19
f 59/262/51 58/261/51 115/260/51 114/259/51
f 115/266/52 80/265/52 81/264/52 114/263/52
f 117/282/57 116/281/57 74/280/57 75/279/57
f 65/262/58 64/261/58 116/260/58 117/259/58
f 119/260/63 118/259/63 52/262/63 53/261/63
f 119/266/64 76/265/64 77/264/64 118/263/64
f 121/260/69 120/259/69 62/262/69 63/261/69
f 121/266/70 78/265/70 79/264/70 120/263/70

usemtl Light-01_1
f 139/292/91 140/295/91 138/291/91
f 141/297/92 140/300/92 139/296/92
f 142/302/93 140/305/93 141/301/93
f 143/307/94 140/310/94 142/306/94
f 144/292/95 140/313/95 143/291/95
f 145/315/96 140/318/96 144/314/96
f 146/302/97 140/321/97 145/301/97
f 148/297/98 140/324/98 147/296/98
f 149/302/99 140/321/99 148/301/99
f 150/307/100 140/310/100 149/306/100
f 151/292/101 140/295/101 150/291/101
f 152/326/102 140/329/102 151/325/102
f 153/302/103 140/333/103 152/330/103
f 138/307/104 140/310/104 153/306/104
f 154/307/105 140/310/105 146/306/105
f 147/292/106 140/313/106 154/291/106
f 84/197/34 83/196/34 82/195/34
f 82/195/34 85/198/34 84/197/34
f 86/201/34 84/200/34 85/199/34
f 85/199/34 87/202/34 86/201/34
f 88/205/34 86/204/34 87/203/34
f 87/203/34 89/206/34 88/205/34
f 90/208/34 88/207/34 89/210/34
f 89/210/34 91/209/34 90/208/34
f 91/213/34 93/212/34 92/211/34
f 92/211/34 90/214/34 91/213/34
f 95/216/34 94/215/34 92/218/34
f 92/218/34 93/217/34 95/216/34
f 97/220/34 96/219/34 94/222/34
f 94/222/34 95/221/34 97/220/34
f 99/224/34 98/223/34 101/226/34
f 101/226/34 100/225/34 99/224/34
f 99/229/34 103/228/34 102/227/34
f 102/227/34 98/230/34 99/229/34
f 102/231/34 103/234/34 105/233/34
f 105/233/34 104/232/34 102/231/34
f 104/237/34 105/236/34 106/235/34
f 106/235/34 107/238/34 104/237/34
f 106/241/34 109/240/34 108/239/34
f 108/239/34 107/242/34 106/241/34
f 109/245/34 111/244/34 110/243/34
f 110/243/34 108/246/34 109/245/34
f 110/249/34 111/248/34 82/247/34
f 82/247/34 83/250/34 110/249/34
f 97/253/34 113/252/34 112/251/34
f 112/251/34 96/254/34 97/253/34
f 113/257/34 100/256/34 101/255/34
f 101/255/34 112/258/34 113/257/34

usemtl Metal_pattern_30-Darker
f 1/43/25 49/44/25 3/45/25
f 3/46/25 49/47/25 5/48/25
f 5/49/25 49/50/25 7/51/25
f 7/52/25 49/53/25 9/54/25
f 9/55/25 49/56/25 11/57/25
f 11/58/25 49/59/25 13/60/25
f 13/61/25 49/62/25 15/63/25
f 15/64/25 49/65/25 17/66/25
f 17/67/25 49/68/25 19/69/25
f 19/70/25 49/71/25 21/72/25
f 21/73/25 49/74/25 23/75/25
f 23/76/25 49/77/25 25/78/25
f 25/79/25 49/80/25 27/81/25
f 27/82/25 49/83/25 29/84/25
f 29/85/25 49/86/25 31/87/25
f 31/88/25 49/89/25 1/90/25
f 34/137/35 51/136/35 33/135/35
f 51/140/36 63/139/36 33/138/36
f 36/143/37 50/142/37 35/141/37
f 36/146/38 52/145/38 50/144/38
f 37/149/39 55/148/39 53/147/39
f 37/152/40 38/151/40 55/150/40
f 54/155/41 40/154/41 65/153/41
f 54/158/42 39/157/42 40/156/42
f 41/149/43 57/148/43 64/147/43
f 41/161/44 42/160/44 57/159/44
f 56/155/45 44/154/45 59/153/45
f 56/164/46 43/163/46 44/162/46
f 60/167/47 45/166/47 46/165/47
f 60/140/48 58/139/48 45/138/48
f 61/155/49 48/154/49 62/153/49
f 61/170/50 47/169/50 48/168/50
f 74/173/34 57/172/34 71/171/34
f 54/176/34 75/175/34 68/174/34
f 55/179/34 69/178/34 76/177/34
f 77/182/34 66/181/34 50/180/34
f 51/185/34 67/184/34 78/183/34
f 73/188/34 61/187/34 79/186/34
f 72/191/34 80/190/34 60/189/34
f 70/194/34 56/193/34 81/192/34
f 115/269/53 60/268/53 80/267/53
f 115/272/54 58/271/54 60/270/54
f 81/275/55 56/274/55 114/273/55
f 56/278/56 59/277/56 114/276/56
f 116/269/59 57/268/59 74/267/59
f 116/272/60 64/271/60 57/270/60
f 75/275/61 54/274/61 117/273/61
f 54/278/62 65/277/62 117/276/62
f 119/269/65 55/268/65 76/267/65
f 119/272/66 53/271/66 55/270/66
f 77/275/67 50/274/67 118/273/67
f 50/278/68 52/277/68 118/276/68
f 121/269/71 51/268/71 78/267/71
f 121/272/72 63/271/72 51/270/72
f 79/275/73 61/274/73 120/273/73
f 61/278/74 62/277/74 120/276/74
f 4/4/3 2/2/2 1/1/1
f 1/1/1 3/3/3 4/4/3
f 6/8/4 4/6/3 3/5/3
f 3/5/3 5/7/4 6/8/4
f 8/12/6 6/10/4 5/9/4
f 5/9/4 7/11/5 8/12/6
f 12/16/9 10/2/8 9/1/7
f 9/1/7 11/15/9 12/16/9
f 14/20/10 12/18/9 11/17/9
f 11/17/9 13/19/10 14/20/10
f 16/12/12 14/10/10 13/9/10
f 13/9/10 15/11/11 16/12/12
f 20/16/15 18/2/14 17/1/13
f 17/1/13 19/15/15 20/16/15
f 22/8/16 20/6/15 19/5/15
f 19/5/15 21/7/16 22/8/16
f 24/12/18 22/10/16 21/9/16
f 21/9/16 23/11/17 24/12/18
f 28/16/21 26/2/20 25/1/19
f 25/1/19 27/15/21 28/16/21
f 30/20/22 28/18/21 27/17/21
f 27/17/21 29/19/22 30/20/22
f 32/12/24 30/10/22 29/9/22
f 29/9/22 31/11/23 32/12/24
f 34/24/3 33/22/1 2/21/2
f 2/21/2 4/23/3 34/24/3
f 35/28/4 34/26/3 4/25/3
f 4/25/3 6/27/4 35/28/4
f 36/32/5 35/30/4 6/29/4
f 6/29/4 8/31/6 36/32/5
f 38/38/9 37/22/7 10/21/8
f 10/21/8 12/37/9 38/38/9
f 39/42/10 38/40/9 12/39/9
f 12/39/9 14/41/10 39/42/10
f 40/32/11 39/30/10 14/29/10
f 14/29/10 16/31/12 40/32/11
f 42/38/15 41/22/13 18/21/14
f 18/21/14 20/37/15 42/38/15
f 43/28/16 42/26/15 20/25/15
f 20/25/15 22/27/16 43/28/16
f 44/32/17 43/30/16 22/29/16
f 22/29/16 24/31/18 44/32/17
f 46/38/21 45/22/19 26/21/20
f 26/21/20 28/37/21 46/38/21
f 47/42/22 46/40/21 28/39/21
f 28/39/21 30/41/22 47/42/22
f 48/32/23 47/30/22 30/29/22
f 30/29/22 32/31/24 48/32/23
f 35/92/26 50/91/26 51/94/26
f 51/94/26 34/93/26 35/92/26
f 39/100/28 54/99/28 55/102/28
f 55/102/28 38/101/28 39/100/28
f 42/105/29 43/104/29 56/103/29
f 56/103/29 57/106/29 42/105/29
f 60/113/31 46/112/31 47/111/31
f 47/111/31 61/114/31 60/113/31
f 50/120/34 66/119/34 67/122/34
f 67/122/34 51/121/34 50/120/34
f 54/124/34 68/123/34 69/126/34
f 69/126/34 55/125/34 54/124/34
f 56/128/34 70/127/34 71/130/34
f 71/130/34 57/129/34 56/128/34
f 72/133/34 60/132/34 61/131/34
f 61/131/34 73/134/34 72/133/34
f 104/286/75 123/284/75 122/283/75
f 122/283/75 102/285/75 104/286/75
f 113/290/76 74/288/76 71/287/76
f 71/287/76 100/289/76 113/290/76
f 112/286/77 125/284/77 124/283/77
f 124/283/77 96/285/77 112/286/77
f 101/286/78 126/284/78 125/283/78
f 125/283/78 112/285/78 101/286/78
f 98/286/79 127/284/79 126/283/79
f 126/283/79 101/285/79 98/286/79
f 102/286/80 122/284/80 127/283/80
f 127/283/80 98/285/80 102/286/80
f 100/290/81 71/288/81 70/287/81
f 70/287/81 99/289/81 100/290/81
f 99/290/82 70/288/82 81/287/82
f 81/287/82 103/289/82 99/290/82
f 103/290/83 81/288/83 80/287/83
f 80/287/83 105/289/83 103/290/83
f 107/286/84 128/284/84 123/283/84
f 123/283/84 104/285/84 107/286/84
f 105/290/85 80/288/85 72/287/85
f 72/287/85 106/289/85 105/290/85
f 108/286/86 129/284/86 128/283/86
f 128/283/86 107/285/86 108/286/86
f 110/286/87 130/284/87 129/283/87
f 129/283/87 108/285/87 110/286/87
f 106/290/88 72/288/88 73/287/88
f 73/287/88 109/289/88 106/290/88
f 83/286/89 131/284/89 130/283/89
f 130/283/89 110/285/89 83/286/89
f 109/290/90 73/288/90 79/287/90
f 79/287/90 111/289/90 109/290/90
f 111/290/77 79/288/77 78/287/77
f 78/287/77 82/289/77 111/290/77
f 82/290/78 78/288/78 67/287/78
f 67/287/78 85/289/78 82/290/78
f 84/286/76 132/284/76 131/283/76
f 131/283/76 83/285/76 84/286/76
f 85/290/79 67/288/79 66/287/79
f 66/287/79 87/289/79 85/290/79
f 86/286/81 133/284/81 132/283/81
f 132/283/81 84/285/81 86/286/81
f 87/290/80 66/288/80 77/287/80
f 77/287/80 89/289/80 87/290/80
f 88/286/82 134/284/82 133/283/82
f 133/283/82 86/285/82 88/286/82
f 90/286/83 135/284/83 134/283/83
f 134/283/83 88/285/83 90/286/83
f 94/286/88 137/284/88 136/283/88
f 136/283/88 92/285/88 94/286/88
f 89/290/75 77/288/75 76/287/75
f 76/287/75 91/289/75 89/290/75
f 92/286/85 136/284/85 135/283/85
f 135/283/85 90/285/85 92/286/85
f 91/290/84 76/288/84 69/287/84
f 69/287/84 93/289/84 91/290/84
f 93/290/86 69/288/86 68/287/86
f 68/287/86 95/289/86 93/290/86
f 96/286/90 124/284/90 137/283/90
f 137/283/90 94/285/90 96/286/90
f 95/290/87 68/288/87 75/287/87
f 75/287/87 97/289/87 95/290/87
f 97/290/89 75/288/89 74/287/89
f 74/287/89 113/289/89 97/290/89
f 132/293/91 139/292/91 138/291/91
f 138/291/91 131/294/91 132/293/91
f 132/299/92 133/298/92 141/297/92
f 141/297/92 139/296/92 132/299/92
f 134/303/93 142/302/93 141/301/93
f 141/301/93 133/304/93 134/303/93
f 134/309/94 135/308/94 143/307/94
f 143/307/94 142/306/94 134/309/94
f 136/311/95 144/292/95 143/291/95
f 143/291/95 135/312/95 136/311/95
f 136/317/96 137/316/96 145/315/96
f 145/315/96 144/314/96 136/317/96
f 137/320/97 124/319/97 146/302/97
f 146/302/97 145/301/97 137/320/97
f 127/322/98 148/297/98 147/296/98
f 147/296/98 126/323/98 127/322/98
f 127/320/99 122/319/99 149/302/99
f 149/302/99 148/301/99 127/320/99
f 122/309/100 123/308/100 150/307/100
f 150/307/100 149/306/100 122/309/100
f 128/293/101 151/292/101 150/291/101
f 150/291/101 123/294/101 128/293/101
f 129/327/102 152/326/102 151/325/102
f 151/325/102 128/328/102 129/327/102
f 129/332/103 130/331/103 153/302/103
f 153/302/103 152/330/103 129/332/103
f 130/309/104 131/308/104 138/307/104
f 138/307/104 153/306/104 130/309/104
f 125/308/105 154/307/105 146/306/105
f 146/306/105 124/334/105 125/308/105
f 125/312/106 126/311/106 147/292/106
f 147/292/106 154/291/106 125/312/106

