# ProBuilder 5.0.6
# https://unity3d.com/unity/features/worldbuilding/probuilder
# 11/19/2022 3:21:03 AM

mtllib ./Console-Type-1-Chip-Block.mtl
o Console-Type-1-Chip-Block

g Console-Type-1-Chip-Block
v -0.0675 0.05 0.5000001
v 0.0675 -0.05 0.5000001
v -0.0675 0.0175 0.5000001
v -0.0675 -0.0175 0.5000001
v -0.5 0.0175 0.5000001
v -0.5 -0.0175 0.5000001
v -0.0675 -0.05 0.5000001
v -0.5 -0.05 0.5000001
v 0.5 -0.05 0.5000001
v 0.0675 -0.0175 0.5000001
v 0.5 -0.0175 0.5000001
v 0.0675 0.0175 0.5000001
v 0.0675 0.05 0.5000001
v 0.5 0.0175 0.5000001
v -0.5 0.05 -0.5
v -0.5 -0.05 -0.5
v 0.5 0.05 0.5000001
v -0.5 0.05 0.5000001
v 0.5 0.05 -0.5
v 0.5 -0.05 -0.5
v -0.0675 0.0175 0.355
v -0.0675 -0.0175 0.355
v 0.0675 -0.0175 0.355
v 0.0675 0.0175 0.355

vt 0.0675 0.5000001
vt -0.0675 0.5000001
vt -0.0675 0.0175
vt -0.0675 -0.0175
vt -0.5 0.0175
vt -0.5 -0.0175
vt 0.5 0.5000001
vt -0.5 0.5000001
vt 0.0675 -0.0175
vt 0.5 -0.0175
vt 0.0675 0.0175
vt 0.5 0.0175
vt 0.5 -0.5
vt -0.5 -0.05
vt -0.5 -0.5
vt -0.0675 -0.05
vt 0.0675 -0.05
vt 0.5 -0.05
vt 0.0675 0.05
vt -0.0675 0.05
vt 0.5 0.05
vt -0.5000001 0.05
vt -0.0675 0.355
vt 0.0675 0.355
vt -0.355 -0.0175
vt -0.355 0.0175
vt 0.355 0.0175
vt 0.355 -0.0175

vn 0 0 0
vn 0 0 1
vn 0 -0.5 0
vn 0 -1 0
vn 0 1 0
vn -1 0 0
vn 0 0.6666667 0
vn 0 0 -1
vn 1 0 0
vn 0.6666667 0 0
vn 0.5 0 0

usemtl Console-Type-1-Generic
f 18/21/6 16/14/6 5/12/6
f 18/21/6 15/22/6 16/14/6
f 16/14/6 8/18/6 5/12/6
f 19/21/9 9/14/10 20/18/9
f 19/21/9 17/22/11 9/14/10
f 17/22/11 14/5/1 9/14/10
f 2/2/1 7/1/1 8/7/3
f 16/13/4 9/8/4 8/7/3
f 16/13/4 20/15/4 9/8/4
f 19/15/5 18/7/7 17/8/5
f 1/1/1 13/2/1 18/7/7
f 19/15/5 15/13/5 18/7/7
f 9/18/2 11/10/2 10/9/2
f 10/9/2 2/17/2 9/18/2
f 7/16/2 4/4/2 6/6/2
f 6/6/2 8/14/2 7/16/2
f 13/19/2 12/11/2 14/12/2
f 14/12/2 17/21/2 13/19/2
f 18/22/2 5/5/2 3/3/2
f 3/3/2 1/20/2 18/22/2
f 6/6/2 4/4/2 3/3/2
f 3/3/2 5/5/2 6/6/2
f 14/12/2 12/11/2 10/9/2
f 10/9/2 11/10/2 14/12/2
f 1/20/2 3/3/2 12/11/2
f 12/11/2 13/19/2 1/20/2
f 2/17/2 10/9/2 4/4/2
f 4/4/2 7/16/2 2/17/2
f 21/3/2 22/4/2 23/9/2
f 23/9/2 24/11/2 21/3/2
f 22/24/5 4/1/5 10/2/5
f 10/2/5 23/23/5 22/24/5
f 21/26/9 3/5/9 4/6/9
f 4/6/9 22/25/9 21/26/9
f 23/28/6 10/10/6 12/12/6
f 12/12/6 24/27/6 23/28/6
f 24/24/4 12/1/4 3/2/4
f 3/2/4 21/23/4 24/24/4
f 16/18/8 15/21/8 19/22/8
f 19/22/8 20/14/8 16/18/8

