# ProBuilder 5.0.6
# https://unity3d.com/unity/features/worldbuilding/probuilder
# 11/19/2022 3:21:03 AM

mtllib ./Console-Type-1-Backbone.mtl
o Console-Type-1-Backbone

g Console-Type-1-Backbone
v -0.25 -0.25 -0.5
v 0.25 -0.25 -0.5
v -0.25 -0.35 -0.5
v 0.25 -0.35 -0.5
v -0.25 -0.25 -0.7
v -0.25 -0.35 -0.7
v 0.25 -0.25 -0.7
v 0.25 -0.35 -0.7

vt -0.25 -0.25
vt 0.25 -0.25
vt -0.25 -0.35
vt 0.25 -0.35
vt -0.7 -0.25
vt -0.5 -0.25
vt -0.7 -0.35
vt -0.5 -0.35
vt 0.5 -0.25
vt 0.7 -0.25
vt 0.5 -0.35
vt 0.7 -0.35

vn 0 0 1
vn -1 0 0
vn 1 0 0
vn 0 0 -1

usemtl Console-Type-1-Generic
f 3/3/1 4/4/1 2/2/1 1/1/1
f 6/7/2 3/8/2 1/6/2 5/5/2
f 4/11/3 8/12/3 7/10/3 2/9/3
f 8/3/4 6/4/4 5/2/4 7/1/4

