# ProBuilder 5.0.6
# https://unity3d.com/unity/features/worldbuilding/probuilder
# 11/19/2022 3:21:03 AM

mtllib ./Console-Type-1-Body.mtl
o Console-Type-1-Body

g Console-Type-1-Body
v 0.25 -0.5 -0.5
v 0.5 -0.5 -0.5
v 0.5 0.5 -0.5
v 0.25 0.5 -0.5
v -0.25 0.5 -0.7
v -0.25 -0.5 -0.7
v 0.25 -0.5 -0.7
v 0.25 0.5 -0.7
v -0.25 0.5 -0.5
v -0.5 0.5 -0.5
v -0.5 -0.5 -0.5
v -0.25 -0.5 -0.5
v -0.5 0.5 0.49
v -0.5 -0.5 0.49
v 0.5 -0.5 0.49
v 0.5 0.5 0.49
v 0.25 -0.5 0.49
v -0.25 -0.5 0.49
v -0.125 -0.5 0.49
v 0 -0.5 0.49
v 0.125 -0.5 0.49
v 0 -0.5 0.5
v -0.25 -0.5 0.5
v -0.5 -0.5 0.5
v -0.5 0.5 0.5
v -0.25 0.5 0.5
v -0.25 0.5 0.49
v -0.125 0.5 0.49
v -0.125 -0.5 0.5
v -0.125 0.5 0.5
v 0.125 0.5 0.5
v 0.125 -0.5 0.5
v 0.25 -0.5 0.5
v 0.25 0.5 0.5
v 0.5 0.5 0.5
v 0.5 -0.5 0.5
v 0.125 0.5 0.49
v 0.25 0.5 0.49

vt -0.25 -0.5
vt -0.5 -0.5
vt -0.5 0.5
vt -0.25 0.5
vt 0.25 0.5
vt 0.25 -0.5
vt 0.5 0.5
vt 0.5 -0.5
vt 0.7 -0.5
vt 0.7 0.5
vt -0.7 0.5
vt -0.7 -0.5
vt -0.25 -0.7
vt 0.25 -0.7
vt 0.49 0.5
vt 0.49 -0.5
vt -0.49 -0.5
vt -0.49 0.5
vt 0.25 0.49
vt 0.5 0.49
vt -0.5 0.49
vt -0.25 0.49
vt -0.125 0.49
vt 0 0.49
vt 0.125 0.49
vt 0 -0.5
vt -0.125 -0.5
vt -0.125 0.5
vt 0.125 0.5
vt 0.125 -0.5
vt 0 0.5

vn 0 0 -1
vn 1 0 0
vn -1 0 0
vn 0 -1 0
vn 0 0 1

usemtl Console-Type-1-Generic
f 17/19/4 1/6/4 15/20/4
f 1/6/4 17/19/4 21/25/4
f 21/25/4 20/24/4 1/6/4
f 1/6/4 20/24/4 12/1/4
f 12/1/4 20/24/4 19/23/4
f 18/22/4 12/1/4 19/23/4
f 11/2/4 12/1/4 18/22/4
f 14/21/4 11/2/4 18/22/4
f 1/6/4 2/8/4 15/20/4
f 30/28/5 32/30/5 31/29/5
f 30/28/5 22/26/5 32/30/5
f 29/27/5 22/26/5 30/28/5
f 10/3/3 11/2/3 14/16/3
f 14/16/3 13/15/3 10/3/3
f 3/7/2 16/18/2 15/17/2
f 15/17/2 2/8/2 3/7/2
f 4/4/1 3/3/1 2/2/1
f 2/2/1 1/1/1 4/4/1
f 5/5/1 8/4/1 7/1/1
f 7/1/1 6/6/1 5/5/1
f 10/7/1 9/5/1 12/6/1
f 12/6/1 11/8/1 10/7/1
f 8/10/2 4/7/2 1/8/2
f 1/8/2 7/9/2 8/10/2
f 6/12/3 12/2/3 9/3/3
f 9/3/3 5/11/3 6/12/3
f 7/14/4 1/6/4 12/1/4
f 12/1/4 6/13/4 7/14/4
f 34/5/5 33/6/5 36/8/5
f 36/8/5 35/7/5 34/5/5
f 25/3/5 24/2/5 23/1/5
f 23/1/5 26/4/5 25/3/5
f 24/3/4 14/21/4 18/22/4
f 18/22/4 23/4/4 24/3/4
f 25/7/3 13/15/3 14/16/3
f 14/16/3 24/8/3 25/7/3
f 23/2/2 18/17/2 27/18/2
f 27/18/2 26/3/2 23/2/2
f 32/2/2 21/17/2 37/18/2
f 37/18/2 31/3/2 32/2/2
f 22/31/4 20/24/4 21/25/4
f 21/25/4 32/29/4 22/31/4
f 29/28/4 19/23/4 20/24/4
f 20/24/4 22/31/4 29/28/4
f 30/7/3 28/15/3 19/16/3
f 19/16/3 29/8/3 30/7/3
f 33/5/4 17/19/4 15/20/4
f 15/20/4 36/7/4 33/5/4
f 34/7/3 38/15/3 17/16/3
f 17/16/3 33/8/3 34/7/3
f 36/2/2 15/17/2 16/18/2
f 16/18/2 35/3/2 36/2/2

usemtl Console-Type-1-Generic1
f 28/28/5 27/4/5 18/1/5 19/27/5
f 38/5/5 37/29/5 21/30/5 17/6/5

