# ProBuilder 5.0.4
# https://unity3d.com/unity/features/worldbuilding/probuilder
# 6/13/2022 11:00:01 PM

mtllib ./Armor-Shoulder.mtl
o Armor-Shoulder

g Armor-Shoulder
v -1.375 -0.5 1.25
v -1.375 -0.5 -1.25
v -1.375 -0.25 1.25
v -1.375 -0.25 -1.25
v -0.5 -0.5 -2.5
v 0.5 -0.5 -2.5
v -0.5 0.25 -1.5
v 0.5 0.25 -1.5
v 1.375 -0.5 -1.25
v 1.375 -0.5 1.25
v 1.375 -0.25 -1.25
v 1.375 -0.25 1.25
v 0.5 -0.5 -1.25
v -0.5 -0.5 -1.25
v 0.5 -0.5 1.25
v -0.5 -0.5 1.25
v 0.5 -0.5 2.5
v -0.5 -0.5 2.5
v 1.25 -0.25 1.5
v 1.25 -0.5 1.5
v -1.25 -0.5 1.5
v -1.25 -0.25 1.5
v -0.5 0.25 1.25
v 0.5 0.25 1.25
v -0.5 0.25 1.5
v 0.5 0.25 1.5
v -1.25 -0.25 -1.5
v -1.25 -0.5 -1.5
v 1.25 -0.5 -1.5
v 1.25 -0.25 -1.5
v 0.5 0.25 -1.25
v -0.5 0.25 -1.25
v -0.75 -0.5 1.25
v -0.75 -0.5 -1.25
v -0.75 -0.5 2.5
v -0.75 0.25 -1.5
v -0.75 0.25 -1.25
v -0.75 0.25 1.25
v -0.75 -0.5 -2.5
v -0.5 -0.4999293 -3.000071
v -0.5 0.2500708 -2.000071
v -0.75 -0.4999293 -3.000071
v -0.75 0.2500708 -2.000071
v -0.75 0.25 1.5
v -0.5 0.2500708 2.000071
v -0.5 -0.4999293 3.000071
v -0.75 0.2500708 2.000071
v -0.75 -0.4999293 3.000071
v 0.75 0.25 1.5
v 0.75 0.25 1.25
v 0.75 -0.5 -2.5
v 0.75 -0.5 -1.25
v 0.75 0.25 -1.25
v 0.75 0.25 -1.5
v 0.5 0.2500708 -2.000071
v 0.5 -0.4999293 -3.000071
v 0.75 0.2500708 -2.000071
v 0.75 -0.4999293 -3.000071
v 0.75 -0.5 1.25
v 0.75 -0.5 2.5
v 0.5 -0.4999293 3.000071
v 0.5 0.2500708 2.000071
v 0.75 -0.4999293 3.000071
v 0.75 0.2500708 2.000071
v 0.5 0.1250999 1.25
v -0.5 0.1250999 1.25
v -0.5 0.1250999 -1.25
v 0.5 0.1250999 -1.25
v 0.5 0.1250999 0.06666684
v 0.5 0.1250999 -0.06666648
v -0.5 0.1250999 -0.0666666
v -0.5 0.1250999 0.0666666
v -0.3666663 0.1250999 0.06666672
v 0.3666663 0.1250999 0.06666672
v 0.3666663 0.1250999 -0.06666648
v -0.3666663 0.1250999 -0.0666666
v 0.5 -0.125 2
v 0.5 0.0625 1.75
v -0.5 0.0625 1.75
v -0.5 -0.125 2
v 0.3666663 0.0625 1.75
v -0.3666663 0.0625 1.75
v -0.3666663 -0.125 2
v 0.3666663 -0.125 2

vt 1.25 -0.5
vt -1.25 -0.5
vt 1.25 -0.25
vt -1.25 -0.25
vt 0.5 -2.3
vt -0.5 -2.3
vt 0.5 -1.05
vt -0.5 -1.05
vt 0.5 -1.25
vt -0.5 -1.25
vt 0.5 1.25
vt -0.5 1.25
vt 0.5 2.5
vt -0.5 2.5
vt -0.5031154 -0.25
vt -0.5031154 -0.5
vt -0.7826239 -0.25
vt -0.7826238 -0.5
vt 0.5031151 -0.5
vt 0.5031151 -0.25
vt 0.7826235 -0.5
vt 0.7826236 -0.25
vt 0.5 1.5
vt -0.5 1.5
vt -0.5 -2.5
vt 0.5 -2.5
vt -0.5 -1.25
vt 0.5 -1.25
vt -0.5 -1.5
vt 0.5 -1.5
vt -0.75 1.25
vt -0.75 -1.25
vt -0.75 2.5
vt 0.75 -1.5
vt 0.75 -1.25
vt 0.75 1.25
vt -0.75 -2.5
vt 0.5 -2.700014
vt 0.5 -1.450014
vt 0.75 -2.700014
vt 0.75 -1.450014
vt 0.75 1.5
vt 0.5 1.450014
vt 0.5 2.700014
vt 0.75 1.450014
vt 0.75 2.700014
vt -0.75 1.5
vt 0.75 -2.5
vt 0.75 -1.25
vt -0.75 -1.25
vt -0.75 -1.5
vt -0.5 -1.450014
vt -0.5 -2.700014
vt -0.75 -1.450014
vt -0.75 -2.700014
vt 0.75 2.5
vt -0.5 2.700014
vt -0.5 1.450014
vt -0.75 2.700014
vt -0.75 1.450014
vt -1.375 1.25
vt -1.375 -1.25
vt -1.25 1.5
vt 0.4294779 -1.25
vt 0.4294779 1.25
vt 1.229868 -1.25
vt 1.229868 1.25
vt -1.25 -1.5
vt 1.25 -1.5
vt 1.375 -1.25
vt 1.375 1.25
vt -0.4294779 1.25
vt -0.4294779 -1.25
vt -1.229868 1.25
vt -1.229868 -1.25
vt 1.25 1.5
vt -0.5 0.25
vt 0.5 0.25
vt -0.5 0.1250999
vt 0.5 0.1250999
vt 2.5 -0.5
vt 1.5 0.25
vt 3.000071 -0.4999293
vt 2.000071 0.2500708
vt -0.75 -2.499929
vt -0.5 -2.499929
vt -0.75 -3
vt -0.5 -3
vt 0.5 -1.500035
vt 0.75 -1.500035
vt 0.5 -2.000106
vt 0.75 -2.000106
vt -1.5 0.25
vt -2.5 -0.5
vt -2.000071 0.2500708
vt -3.000071 -0.4999293
vt -0.75 -1.500035
vt -0.5 -1.500035
vt -0.75 -2.000106
vt -0.5 -2.000106
vt 0.5 -2.499929
vt 0.75 -2.499929
vt 0.5 -3
vt 0.75 -3
vt 0.75 2.000106
vt 0.5 2.000106
vt -0.5 2.499929
vt -0.75 2.499929
vt -0.5 3
vt -0.75 3
vt 1.5 0.25
vt 0.75 2.499929
vt 0.5 2.499929
vt 0.75 3
vt 0.5 3
vt -0.5 2.000106
vt -0.75 2.000106
vt -1.5 0.25
vt 0.8974509 -0.2348059
vt 1.753882 -1.113711
vt 0.6393203 -0.8486595
vt 0.6393202 -1.084463
vt -1.753882 -1.113711
vt -0.6393203 -0.8486595
vt -0.6393202 -1.084463
vt -0.8974509 -0.2348059
vt 0.3932343 1.115796
vt 0.3932343 1.362185
vt 1.192471 1.108521
vt 1.099194 1.369002
vt 0.3932344 -1.362185
vt 1.192471 -1.108521
vt 1.099194 -1.369002
vt 0.3932344 -1.115796
vt -0.3932344 -1.115796
vt -0.3932344 -1.362185
vt -1.192471 -1.108521
vt -1.099194 -1.369002
vt -0.3932343 1.362185
vt -1.192471 1.108521
vt -1.099194 1.369002
vt -0.3932343 1.115796
vt -1.25 0.25
vt 1.25 0.25
vt 1.25 0.1250999
vt 0.06666684 0.1250999
vt -0.06666648 0.1250999
vt -1.25 0.1250999
vt -1.25 0.25
vt 1.25 0.25
vt 1.25 0.1250999
vt -1.25 0.1250999
vt 0.5 0.0666666
vt 0.3666663 0.06666672
vt -0.3666663 0.06666672
vt -0.5 0.06666684
vt 0.5 -0.0666666
vt -0.5 -0.06666648
vt -0.3666663 -0.06666648
vt 0.3666663 -0.0666666
vt 2 -0.125
vt 1.75 0.0625
vt -1.75 0.0625
vt -2 -0.125
vt 0.5 1.05
vt -0.5 1.05
vt -0.5 1.3625
vt -0.3666663 1.3625
vt 0.3666663 1.3625
vt 0.5 1.3625
vt 0.5 1.675
vt 0.3666663 1.675
vt -0.3666663 1.675
vt -0.5 1.675
vt -0.5 2.3
vt 0.5 2.3
vt 0.5 1.675
vt 0.3666663 1.675
vt -0.3666663 1.675
vt -0.5 1.675

vn -1 0 0
vn 0 0.8 -0.6
vn 1 0 0
vn 0 -1 0
vn 0.8944272 0 0.4472136
vn -0.8944271 0 0.4472138
vn 0 1 0
vn -0.8944272 0 -0.4472136
vn 0.8944272 0 -0.4472136
vn 0 0.8 0.6
vn -0.6246951 0.7808688 0
vn 0 -0.5 0
vn 0 0 0
vn 0.6246951 0.7808688 0
vn 0 0 -1
vn 0 0 1
vn -0.6246951 0.6246951 0.4685214
vn 0.6246951 0.6246951 0.4685214
vn 0.624695 0.6246951 -0.4685213
vn -0.624695 0.6246951 -0.4685213
vn -0.6666667 0.6666667 0.3333333
vn -0.6666666 0.6666667 -0.3333333
vn 0.6666666 0.6666667 -0.3333333
vn 0.6666667 0.6666667 0.3333333
vn 0 0.8 0.6

usemtl Metal028-Helmet
f 31/143/1 68/148/1 70/147/1
f 69/146/1 65/145/1 24/144/1
f 70/147/1 69/146/1 24/144/1
f 31/143/1 70/147/1 24/144/1
f 72/147/3 32/150/3 23/149/3
f 72/147/3 71/146/3 32/150/3
f 71/146/3 67/151/3 32/150/3
f 23/149/3 66/152/3 72/147/3
f 45/95/3 79/163/3 25/118/3
f 45/95/3 80/164/3 79/163/3
f 18/94/3 80/164/3 45/95/3
f 46/96/3 18/94/3 45/95/3
f 62/84/1 17/81/1 61/83/1
f 62/84/1 77/161/1 17/81/1
f 78/162/1 77/161/1 62/84/1
f 26/111/1 78/162/1 62/84/1
f 22/121/17 35/120/17 44/119/17
f 22/121/6 21/122/6 35/120/6
f 20/125/5 19/124/5 60/123/5
f 19/124/18 49/126/18 60/123/18
f 30/121/19 51/120/19 54/119/19
f 30/121/9 29/122/9 51/120/9
f 28/125/8 27/124/8 39/123/8
f 27/124/20 36/126/20 39/123/20
f 3/129/11 44/128/11 38/127/11
f 3/129/21 22/130/21 44/128/21
f 27/133/22 4/132/22 36/131/22
f 4/132/11 37/134/11 36/131/11
f 11/137/14 54/136/14 53/135/14
f 11/137/23 30/138/23 54/136/23
f 19/141/24 12/140/24 49/139/24
f 12/140/14 50/142/14 49/139/14
f 65/12/7 69/156/7 74/155/7
f 73/154/7 72/153/7 66/11/7
f 74/155/7 73/154/7 66/11/7
f 65/12/7 74/155/7 66/11/7
f 71/157/7 76/160/7 67/28/7
f 76/160/7 68/27/7 67/28/7
f 75/159/7 68/27/7 76/160/7
f 70/158/7 68/27/7 75/159/7
f 83/172/25 80/171/25 18/176/25
f 17/175/25 77/174/25 84/173/25
f 17/175/25 84/173/25 83/172/25
f 18/176/25 17/175/25 83/172/25
f 82/169/10 25/165/10 79/170/10
f 82/169/10 81/168/10 25/165/10
f 25/165/10 81/168/10 26/166/10
f 81/168/10 78/167/10 26/166/10
f 4/4/1 2/2/1 1/1/1
f 1/1/1 3/3/1 4/4/1
f 8/8/2 6/6/2 5/5/2
f 5/5/2 7/7/2 8/8/2
f 12/4/3 10/2/3 9/1/3
f 9/1/3 11/3/3 12/4/3
f 16/12/4 14/10/4 13/9/4
f 13/9/4 15/11/4 16/12/4
f 18/14/4 16/12/4 15/11/4
f 15/11/4 17/13/4 18/14/4
f 20/18/5 10/16/5 12/15/5
f 12/15/5 19/17/5 20/18/5
f 22/22/6 3/20/6 1/19/6
f 1/19/6 21/21/6 22/22/6
f 26/24/7 24/12/7 23/11/7
f 23/11/7 25/23/7 26/24/7
f 6/26/4 13/9/4 14/10/4
f 14/10/4 5/25/4 6/26/4
f 28/18/8 2/16/8 4/15/8
f 4/15/8 27/17/8 28/18/8
f 30/22/9 11/20/9 9/19/9
f 9/19/9 29/21/9 30/22/9
f 7/30/7 32/28/7 31/27/7
f 31/27/7 8/29/7 7/30/7
f 34/32/4 14/10/4 16/12/4
f 16/12/4 33/31/4 34/32/4
f 33/31/4 16/12/4 18/14/4
f 18/14/4 35/33/4 33/31/4
f 37/35/7 32/28/7 7/30/7
f 7/30/7 36/34/7 37/35/7
f 38/36/7 23/11/7 32/28/7
f 32/28/7 37/35/7 38/36/7
f 39/37/4 5/25/4 14/10/4
f 14/10/4 34/32/4 39/37/4
f 43/41/2 41/39/2 40/38/2
f 40/38/2 42/40/2 43/41/2
f 44/42/7 25/23/7 23/11/7
f 23/11/7 38/36/7 44/42/7
f 48/46/10 46/44/10 45/43/10
f 45/43/10 47/45/10 48/46/10
f 50/31/7 24/12/7 26/24/7
f 26/24/7 49/47/7 50/31/7
f 52/49/4 13/9/4 6/26/4
f 6/26/4 51/48/4 52/49/4
f 54/51/7 8/29/7 31/27/7
f 31/27/7 53/50/7 54/51/7
f 58/55/2 56/53/2 55/52/2
f 55/52/2 57/54/2 58/55/2
f 59/36/4 15/11/4 13/9/4
f 13/9/4 52/49/4 59/36/4
f 53/50/7 31/27/7 24/12/7
f 24/12/7 50/31/7 53/50/7
f 60/56/4 17/13/4 15/11/4
f 15/11/4 59/36/4 60/56/4
f 64/60/10 62/58/10 61/57/10
f 61/57/10 63/59/10 64/60/10
f 2/62/4 34/32/4 33/31/4
f 33/31/4 1/61/4 2/62/4
f 1/61/4 33/31/4 35/33/4
f 35/33/4 21/63/4 1/61/4
f 3/67/11 38/65/11 37/64/11
f 37/64/11 4/66/11 3/67/11
f 28/68/13 39/37/12 34/32/4
f 34/32/4 2/62/12 28/68/13
f 9/70/4 52/49/4 51/48/4
f 51/48/4 29/69/4 9/70/4
f 10/71/4 59/36/4 52/49/4
f 52/49/4 9/70/4 10/71/4
f 11/75/14 53/73/14 50/72/14
f 50/72/14 12/74/14 11/75/14
f 20/76/13 60/56/12 59/36/4
f 59/36/4 10/71/12 20/76/13
f 66/80/15 23/78/15 24/77/15
f 24/77/15 65/79/15 66/80/15
f 68/80/16 31/78/16 32/77/16
f 32/77/16 67/79/16 68/80/16
f 41/84/3 7/82/3 5/81/3
f 5/81/3 40/83/3 41/84/3
f 40/88/4 5/86/4 39/85/4
f 39/85/4 42/87/4 40/88/4
f 43/92/7 36/90/7 7/89/7
f 7/89/7 41/91/7 43/92/7
f 42/96/1 39/94/1 36/93/1
f 36/93/1 43/95/1 42/96/1
f 56/96/1 6/94/1 8/93/1
f 8/93/1 55/95/1 56/96/1
f 55/100/7 8/98/7 54/97/7
f 54/97/7 57/99/7 55/100/7
f 58/104/4 51/102/4 6/101/4
f 6/101/4 56/103/4 58/104/4
f 57/84/3 54/82/3 51/81/3
f 51/81/3 58/83/3 57/84/3
f 45/106/7 25/23/7 44/42/7
f 44/42/7 47/105/7 45/106/7
f 48/110/4 35/108/4 18/107/4
f 18/107/4 46/109/4 48/110/4
f 47/84/1 44/111/1 35/81/1
f 35/81/1 48/83/1 47/84/1
f 61/115/4 17/113/4 60/112/4
f 60/112/4 63/114/4 61/115/4
f 64/117/7 49/47/7 26/24/7
f 26/24/7 62/116/7 64/117/7
f 63/96/3 60/94/3 49/118/3
f 49/118/3 64/95/3 63/96/3
f 70/158/7 75/159/7 74/155/7
f 74/155/7 69/156/7 70/158/7
f 76/160/7 71/157/7 72/153/7
f 72/153/7 73/154/7 76/160/7
f 82/169/10 79/170/25 80/177/10
f 80/177/10 83/178/10 82/169/10
f 78/167/10 81/168/10 84/179/10
f 84/179/10 77/180/25 78/167/10

usemtl Light-SRA
f 74/155/7 75/159/7 76/160/7 73/154/7
f 83/178/10 84/179/10 81/168/10 82/169/10

