# ProBuilder 5.0.4
# https://unity3d.com/unity/features/worldbuilding/probuilder
# 5/27/2022 2:06:06 AM

mtllib ./Door-Type-1-Right.mtl
o Door-Type-1-Right

g Door-Type-1-Right
v 1.192093E-07 0.6599096 -0.04999995
v 1.192093E-07 1.1 -0.04999995
v 1.192093E-07 1.1 0.04999995
v 1.192093E-07 0.6599096 0.04999995
v 1.192093E-07 0.2199095 -0.04999995
v 1.192093E-07 0.2199095 0.04999995
v 1.192093E-07 -0.2199097 -0.04999995
v 1.192093E-07 -0.2199097 0.04999995
v 1.192093E-07 -1.1 -0.04999995
v 1.192093E-07 -0.6599097 -0.04999995
v 1.192093E-07 -0.6599097 0.04999995
v 1.192093E-07 -1.1 0.04999995
v 0.5002002 1.1 0.07499995
v 0.5002002 0.66 0.07499995
v 0.4001001 1.1 0.07499995
v 0.4001001 0.6099548 0.07499995
v 1.0002 0.22 0.07499995
v 1.0002 -0.22 0.07499995
v 0.9001001 0.1699549 0.07499995
v 0.9001001 -0.1699548 0.07499995
v 0.5002002 0.66 -0.07499995
v 0.5002002 1.1 -0.07499995
v 0.4001001 0.6099548 -0.07499995
v 0.4001001 1.1 -0.07499995
v 0.5002002 1.1 -0.04999995
v 0.5002002 1.1 0.04999995
v 0.4001001 1.1 -0.04999995
v 0.4001001 1.1 0.04999995
v 0.5002002 -0.6600001 0.07499995
v 0.4001001 -0.6099549 0.07499995
v 1.0002 0.22 -0.07499995
v 0.9001001 0.1699549 -0.07499995
v 0.5002002 -1.1 0.07499995
v 0.4001001 -1.1 0.07499995
v 1.0002 -0.22 -0.07499995
v 0.9001001 -0.1699548 -0.07499995
v 0.5002002 -0.6600001 -0.07499995
v 0.4001001 -0.6099549 -0.07499995
v 0.5002002 -1.1 0.04999995
v 0.5002002 -1.1 -0.04999995
v 0.4001001 -1.1 0.04999995
v 0.4001001 -1.1 -0.04999995
v 0.5002002 -1.1 -0.07499995
v 0.4001001 -1.1 -0.07499995
v 0.4001001 0.6099548 0.04999995
v 0.9001001 0.1699549 0.04999995
v 0.9001001 -0.1699548 0.04999995
v 0.4001001 0.6099548 -0.04999995
v 0.4001001 -0.6099549 0.04999995
v 0.9001001 0.1699549 -0.04999995
v 0.9001001 -0.1699548 -0.04999995
v 0.4001001 -0.6099549 -0.04999995
v 1.0002 0.22 0.04999995
v 1.0002 -0.22 0.04999995
v 0.5002002 -0.6600001 0.04999995
v 0.5002002 0.66 0.04999995
v 0.5002002 -0.6600001 -0.04999995
v 1.0002 -0.22 -0.04999995
v 1.0002 0.22 -0.04999995
v 0.5002002 0.66 -0.04999995
v 0.9001001 0.1699549 0.05500007
v 0.9001001 -0.1699548 0.05500007
v 0.5000001 0.2199097 0.05500007
v 0.5000001 -0.2199097 0.05500007
v 0.9001001 -0.1699548 -0.05500007
v 0.9001001 0.1699549 -0.05500007
v 0.5000001 -0.2199097 -0.05500007
v 0.5000001 0.2199097 -0.05500007
v 0.6003002 1.1 -0.04999995
v 0.6003002 1.1 0.04999995
v 0.6003002 0.6600451 0.04999995
v 0.6003002 0.6600451 -0.04999995
v 1.1003 0.2200452 0.04999995
v 1.1003 0.2200452 -0.04999995
v 1.1003 -0.2200452 0.04999995
v 1.1003 -0.2200452 -0.04999995
v 0.6003002 -0.6600453 0.04999995
v 0.6003002 -0.6600453 -0.04999995
v 0.6003002 -1.1 0.04999995
v 0.6003002 -1.1 -0.04999995

vt -0.04999995 0.6599096
vt -0.04999995 1.1
vt 0.04999995 1.1
vt 0.04999995 0.6599096
vt -0.04999995 0.2199095
vt 0.04999995 0.2199095
vt -0.04999995 -0.2199097
vt 0.04999995 -0.2199097
vt -0.04999995 -1.1
vt -0.04999995 -0.6599097
vt 0.04999995 -0.6599097
vt 0.04999995 -1.1
vt 0.4002002 1.1
vt 0.4002002 0.66
vt 0.3001001 1.1
vt 0.3001001 0.6099548
vt 0.9002001 0.22
vt 0.9002001 -0.22
vt 0.8001001 0.1699549
vt 0.8001001 -0.1699548
vt -0.6002002 0.66
vt -0.6002002 1.1
vt -0.5001001 0.6099548
vt -0.5001001 1.1
vt -0.5002002 -0.04999995
vt -0.5002002 0.04999995
vt -0.4001001 -0.04999995
vt -0.4001001 0.04999995
vt 0.4002002 -0.6600001
vt 0.3001001 -0.6099549
vt -1.1002 0.22
vt -1.0001 0.1699549
vt 0.4002002 -1.1
vt 0.3001001 -1.1
vt -1.1002 -0.22
vt -1.0001 -0.1699548
vt -0.6002002 -0.6600001
vt -0.5001001 -0.6099549
vt 0.5002002 0.04999995
vt 0.5002002 -0.04999995
vt 0.4001001 0.04999995
vt 0.4001001 -0.04999995
vt -0.6002002 -1.1
vt -0.5001001 -1.1
vt 0.4001001 0.6099548
vt 1.192093E-07 1.1
vt 1.192093E-07 0.6599096
vt 0.9001001 0.1699549
vt 0.9001001 -0.1699548
vt 1.192093E-07 0.2199095
vt 1.192093E-07 -0.2199097
vt -0.4001001 0.6099548
vt -0.4001001 1.1
vt -1.192093E-07 -0.04999995
vt -1.192093E-07 0.04999995
vt 0.4001001 -0.6099549
vt 1.192093E-07 -0.6599097
vt -0.9001001 0.1699549
vt 1.192093E-07 -1.1
vt -0.9001001 -0.1699548
vt -0.4001001 -0.6099549
vt -0.4001001 -1.1
vt -0.04999995 0.22
vt -0.04999995 -0.22
vt -0.07499995 0.22
vt -0.07499995 -0.22
vt 0.5634404 0.04999995
vt -0.1025926 0.04999995
vt 0.5634404 0.07499995
vt -0.1025926 0.07499995
vt 0.5002002 0.07499995
vt 0.4001001 0.07499995
vt 0.04999995 -0.1699548
vt 0.04999995 0.1699549
vt 0.07499995 -0.1699548
vt 0.07499995 0.1699549
vt 0.6055256 0.04999995
vt -0.06050752 0.04999995
vt 0.6055256 0.07499995
vt -0.06050752 0.07499995
vt 0.1025927 0.04999995
vt -0.5634404 0.04999995
vt 0.1025927 0.07499995
vt -0.5634404 0.07499995
vt -0.04999995 -0.6600001
vt -0.07499995 -0.6600001
vt -0.07499995 -1.1
vt 0.04999995 -0.6099549
vt 0.07499995 -1.1
vt 0.07499995 -0.6099549
vt 0.0605073 0.04999995
vt -0.6055257 0.04999995
vt 0.0605073 0.07499995
vt -0.6055257 0.07499995
vt 0.04999995 0.6099548
vt 0.07499995 0.6099548
vt 0.07499995 1.1
vt -0.07499995 1.1
vt -0.07499995 0.66
vt -0.4001001 0.07499995
vt -0.5002002 0.07499995
vt 0.04999995 -0.6600001
vt 0.07499995 -0.6600001
vt 0.4001001 -0.07499995
vt 0.5002002 -0.07499995
vt -0.5002002 -0.07499995
vt -0.4001001 -0.07499995
vt -0.04999995 -0.6099549
vt -0.07499995 -0.6099549
vt -0.06050752 -0.04999995
vt 0.6055256 -0.04999995
vt -0.06050752 -0.07499995
vt 0.6055256 -0.07499995
vt -0.5634404 -0.04999995
vt 0.1025927 -0.04999995
vt -0.5634404 -0.07499995
vt 0.1025927 -0.07499995
vt 0.04999995 -0.22
vt 0.04999995 0.22
vt 0.07499995 -0.22
vt 0.07499995 0.22
vt -0.04999995 0.1699549
vt -0.04999995 -0.1699548
vt -0.07499995 0.1699549
vt -0.07499995 -0.1699548
vt -0.6055257 -0.04999995
vt 0.0605073 -0.04999995
vt -0.6055257 -0.07499995
vt 0.0605073 -0.07499995
vt -0.1025926 -0.04999995
vt 0.5634404 -0.04999995
vt -0.1025926 -0.07499995
vt 0.5634404 -0.07499995
vt 0.07499995 0.66
vt -0.04999995 0.6099548
vt -0.07499995 0.6099548
vt 0.9548459 0.8864198
vt 0.9548459 0.1135803
vt 0.04515412 1
vt 0.04515412 0
vt 0.04515412 0.1135803
vt 0.04515412 0.8864198
vt 0.9548459 0
vt 0.9548459 1
vt -0.04999995 0.6600451
vt 0.04999995 0.6600451
vt -0.6806423 0.04999995
vt -0.6806423 -0.04999995
vt -0.01460931 -0.04999995
vt -0.01460931 0.04999995
vt 0.6806422 0.04999995
vt 0.01460912 0.04999995
vt 0.01460912 -0.04999995
vt 0.6806422 -0.04999995
vt 1.0002 0.22
vt 0.5002002 0.66
vt 1.1003 0.2200452
vt 0.6003002 0.6600451
vt -1.0002 0.22
vt -1.0002 -0.22
vt -0.5002002 -0.6600001
vt 1.0002 -0.22
vt 1.1003 -0.2200452
vt -0.5002002 0.66
vt -0.6003002 0.6600451
vt 0.5002002 1.1
vt 0.6003002 1.1
vt -0.6003002 0.04999995
vt -0.6003002 -0.04999995
vt 0.5002002 -0.6600001
vt 0.6003002 -0.6600453
vt 0.6003002 -0.04999995
vt 0.6003002 0.04999995
vt 0.5002002 -1.1
vt 0.6003002 -1.1

vn -1 0 0
vn 0 0 1
vn 0 0 -1
vn 0 1 0
vn 0 -1 0
vn 1 0 0
vn -0.6606278 -0.7507136 0
vn 0.660628 -0.7507135 0
vn -0.660628 0.7507135 0
vn 0.6606278 0.7507136 0

usemtl Metal011
f 2/2/1 1/1/1 4/4/1 3/3/1
f 4/4/1 1/1/1 5/5/1 6/6/1
f 5/5/1 7/7/1 8/8/1 6/6/1
f 10/10/1 9/9/1 12/12/1 11/11/1
f 7/7/1 10/10/1 11/11/1 8/8/1
f 27/27/4 28/28/4 26/26/4 25/25/4
f 41/41/5 42/42/5 40/40/5 39/39/5
f 3/46/2 4/47/2 45/45/2 28/13/2
f 6/50/2 8/51/2 47/49/2 46/48/2
f 1/47/3 2/46/3 27/53/3 48/52/3
f 2/54/4 3/55/4 28/28/4 27/27/4
f 8/51/2 11/57/2 49/56/2 47/49/2
f 4/47/2 6/50/2 46/48/2 45/45/2
f 5/50/3 1/47/3 48/52/3 50/58/3
f 11/57/2 12/59/2 41/33/2 49/56/2
f 7/51/3 5/50/3 50/58/3 51/60/3
f 10/57/3 7/51/3 51/60/3 52/61/3
f 12/55/5 9/54/5 42/42/5 41/41/5
f 9/59/3 10/57/3 52/61/3 42/62/3
f 17/65/6 18/66/6 54/64/6 53/63/6
f 19/69/7 16/70/7 45/68/7 46/67/7
f 33/71/5 34/72/5 41/41/5 39/39/5
f 20/75/1 19/76/1 46/74/1 47/73/1
f 18/79/8 29/80/8 55/78/8 54/77/8
f 30/83/9 20/84/9 47/82/9 49/81/9
f 29/86/6 33/87/6 39/9/6 55/85/6
f 34/89/1 30/90/1 49/88/1 41/12/1
f 14/93/10 17/94/10 53/92/10 56/91/10
f 16/96/1 15/97/1 28/3/1 45/95/1
f 13/98/6 14/99/6 56/1/6 26/2/6
f 15/100/4 13/101/4 26/26/4 28/28/4
f 43/89/6 37/103/6 57/102/6 40/12/6
f 44/104/5 43/105/5 40/40/5 42/42/5
f 22/106/4 24/107/4 27/27/4 25/25/4
f 38/109/1 44/87/1 42/9/1 52/108/1
f 37/112/8 35/113/8 58/111/8 57/110/8
f 36/116/9 38/117/9 52/115/9 51/114/9
f 35/120/6 31/121/6 59/119/6 58/118/6
f 32/124/1 36/125/1 51/123/1 50/122/1
f 31/128/10 21/129/10 60/127/10 59/126/10
f 23/132/7 32/133/7 50/131/7 48/130/7
f 21/134/6 22/97/6 25/3/6 60/4/6
f 24/98/1 23/136/1 48/135/1 27/2/1
f 71/145/6 72/146/6 69/3/6 70/2/6
f 71/150/10 73/147/10 74/148/10 72/149/10
f 75/64/6 76/118/6 74/119/6 73/63/6
f 78/153/8 76/154/8 75/151/8 77/152/8
f 79/9/6 80/12/6 78/102/6 77/85/6
f 73/157/2 71/158/2 56/156/2 53/155/2
f 74/31/3 76/35/3 58/160/3 59/159/3
f 76/35/3 78/37/3 57/161/3 58/160/3
f 75/163/2 73/157/2 53/155/2 54/162/2
f 72/165/3 74/31/3 59/159/3 60/164/3
f 71/158/2 70/167/2 26/166/2 56/156/2
f 70/168/4 69/169/4 25/25/4 26/26/4
f 69/22/3 72/165/3 60/164/3 25/24/3
f 77/171/2 75/163/2 54/162/2 55/170/2
f 78/37/3 80/43/3 40/44/3 57/161/3
f 80/172/5 79/173/5 39/39/5 40/40/5
f 79/175/2 77/171/2 55/170/2 39/174/2

usemtl SCP-Logo
f 63/139/2 64/140/2 62/138/2 61/137/2
f 67/143/3 68/144/3 66/142/3 65/141/3

usemtl Metal011-Warning-Line
f 15/15/2 16/16/2 14/14/2 13/13/2
f 19/19/2 20/20/2 18/18/2 17/17/2
f 23/23/3 24/24/3 22/22/3 21/21/3
f 20/20/2 30/30/2 29/29/2 18/18/2
f 16/16/2 19/19/2 17/17/2 14/14/2
f 32/32/3 23/23/3 21/21/3 31/31/3
f 30/30/2 34/34/2 33/33/2 29/29/2
f 36/36/3 32/32/3 31/31/3 35/35/3
f 38/38/3 36/36/3 35/35/3 37/37/3
f 44/44/3 38/38/3 37/37/3 43/43/3

