# ProBuilder 5.0.4
# https://unity3d.com/unity/features/worldbuilding/probuilder
# 5/25/2022 8:22:16 PM

mtllib ./Door-Type-1-Right.mtl
o Door-Type-1-Right

g Door-Type-1-Right
v 1.192093E-07 0.6599096 -0.04999995
v 1.192093E-07 1.1 -0.04999995
v 1.192093E-07 1.1 0.04999995
v 1.192093E-07 0.6599096 0.04999995
v 1.192093E-07 0.2199095 -0.04999995
v 1.192093E-07 0.2199095 0.04999995
v 1.192093E-07 -0.2199097 -0.04999995
v 1.192093E-07 -0.2199097 0.04999995
v 1.192093E-07 -1.1 -0.04999995
v 1.192093E-07 -0.6599097 -0.04999995
v 1.192093E-07 -0.6599097 0.04999995
v 1.192093E-07 -1.1 0.04999995
v 0.5002002 1.1 0.07499995
v 0.5002002 0.66 0.07499995
v 0.4001001 1.1 0.07499995
v 0.4001001 0.6099548 0.07499995
v 1.0002 0.22 0.07499995
v 1.0002 -0.22 0.07499995
v 0.9001001 0.1699549 0.07499995
v 0.9001001 -0.1699548 0.07499995
v 0.5002002 0.66 -0.07499995
v 0.5002002 1.1 -0.07499995
v 0.4001001 0.6099548 -0.07499995
v 0.4001001 1.1 -0.07499995
v 0.5002002 1.1 -0.04999995
v 0.5002002 1.1 0.04999995
v 0.4001001 1.1 -0.04999995
v 0.4001001 1.1 0.04999995
v 0.5002002 -0.6600001 0.07499995
v 0.4001001 -0.6099549 0.07499995
v 1.0002 0.22 -0.07499995
v 0.9001001 0.1699549 -0.07499995
v 0.5002002 -1.1 0.07499995
v 0.4001001 -1.1 0.07499995
v 1.0002 -0.22 -0.07499995
v 0.9001001 -0.1699548 -0.07499995
v 0.5002002 -0.6600001 -0.07499995
v 0.4001001 -0.6099549 -0.07499995
v 0.5002002 -1.1 0.04999995
v 0.5002002 -1.1 -0.04999995
v 0.4001001 -1.1 0.04999995
v 0.4001001 -1.1 -0.04999995
v 0.5002002 -1.1 -0.07499995
v 0.4001001 -1.1 -0.07499995
v 0.4001001 0.6099548 0.04999995
v 0.9001001 0.1699549 0.04999995
v 0.9001001 -0.1699548 0.04999995
v 0.4001001 0.6099548 -0.04999995
v 0.4001001 -0.6099549 0.04999995
v 0.9001001 0.1699549 -0.04999995
v 0.9001001 -0.1699548 -0.04999995
v 0.4001001 -0.6099549 -0.04999995
v 1.0002 0.22 0.04999995
v 1.0002 -0.22 0.04999995
v 0.5002002 -0.6600001 0.04999995
v 0.5002002 0.66 0.04999995
v 0.5002002 -0.6600001 -0.04999995
v 1.0002 -0.22 -0.04999995
v 1.0002 0.22 -0.04999995
v 0.5002002 0.66 -0.04999995
v 0.9001001 0.1699549 0.05500007
v 0.9001001 -0.1699548 0.05500007
v 0.5000001 0.2199097 0.05500007
v 0.5000001 -0.2199097 0.05500007
v 0.9001001 -0.1699548 -0.05500007
v 0.9001001 0.1699549 -0.05500007
v 0.5000001 -0.2199097 -0.05500007
v 0.5000001 0.2199097 -0.05500007
v 0.6003002 1.1 -0.04999995
v 0.6003002 1.1 0.04999995
v 0.6003002 0.6600451 0.04999995
v 0.6003002 0.6600451 -0.04999995
v 1.1003 0.2200452 0.04999995
v 1.1003 0.2200452 -0.04999995
v 1.1003 -0.2200452 0.04999995
v 1.1003 -0.2200452 -0.04999995
v 0.6003002 -0.6600453 0.04999995
v 0.6003002 -0.6600453 -0.04999995
v 0.6003002 -1.1 0.04999995
v 0.6003002 -1.1 -0.04999995

vt -0.04999995 0.6599096
vt -0.04999995 1.1
vt 0.04999995 1.1
vt 0.04999995 0.6599096
vt -0.04999995 0.2199095
vt 0.04999995 0.2199095
vt -0.04999995 -0.2199097
vt 0.04999995 -0.2199097
vt -0.04999995 -1.1
vt -0.04999995 -0.6599097
vt 0.04999995 -0.6599097
vt 0.04999995 -1.1
vt 0.4002002 1.1
vt 0.4002002 0.66
vt 0.3001001 1.1
vt 0.3001001 0.6099548
vt 0.9002001 0.22
vt 0.9002001 -0.22
vt 0.8001001 0.1699549
vt 0.8001001 -0.1699548
vt -0.5002002 0.66
vt -0.5002002 1.1
vt -0.4001001 0.6099548
vt -0.4001001 1.1
vt -0.5002002 -0.04999995
vt -0.5002002 0.04999995
vt -0.4001001 -0.04999995
vt -0.4001001 0.04999995
vt 0.4002002 -0.6600001
vt 0.3001001 -0.6099549
vt -1.0002 0.22
vt -0.9001001 0.1699549
vt 0.4002002 -1.1
vt 0.3001001 -1.1
vt -1.1002 -0.22
vt -1.1002 0.22
vt -1.0001 -0.1699548
vt -1.0001 0.1699549
vt -0.5002002 -0.6600001
vt -1.0002 -0.22
vt -0.4001001 -0.6099549
vt -0.9001001 -0.1699548
vt 0.5002002 0.04999995
vt 0.5002002 -0.04999995
vt 0.4001001 0.04999995
vt 0.4001001 -0.04999995
vt -0.5002002 -1.1
vt -0.4001001 -1.1
vt 0.4001001 0.6099548
vt 1.192093E-07 1.1
vt 1.192093E-07 0.6599096
vt 0.9001001 0.1699549
vt 0.9001001 -0.1699548
vt 1.192093E-07 0.2199095
vt 1.192093E-07 -0.2199097
vt -1.192093E-07 -0.04999995
vt -1.192093E-07 0.04999995
vt 0.4001001 -0.6099549
vt 1.192093E-07 -0.6599097
vt 1.192093E-07 -1.1
vt -0.04999995 0.22
vt -0.04999995 -0.22
vt -0.07499995 0.22
vt -0.07499995 -0.22
vt 0.5634404 0.04999995
vt -0.1025926 0.04999995
vt 0.5634404 0.07499995
vt -0.1025926 0.07499995
vt 0.5002002 0.07499995
vt 0.4001001 0.07499995
vt 0.04999995 -0.1699548
vt 0.04999995 0.1699549
vt 0.07499995 -0.1699548
vt 0.07499995 0.1699549
vt 0.6055256 0.04999995
vt -0.06050752 0.04999995
vt 0.6055256 0.07499995
vt -0.06050752 0.07499995
vt 0.1025927 0.04999995
vt -0.5634404 0.04999995
vt 0.1025927 0.07499995
vt -0.5634404 0.07499995
vt -0.04999995 -0.6600001
vt -0.07499995 -0.6600001
vt -0.07499995 -1.1
vt 0.04999995 -0.6099549
vt 0.07499995 -1.1
vt 0.07499995 -0.6099549
vt 0.0605073 0.04999995
vt -0.6055257 0.04999995
vt 0.0605073 0.07499995
vt -0.6055257 0.07499995
vt 0.04999995 0.6099548
vt 0.07499995 0.6099548
vt 0.07499995 1.1
vt -0.07499995 1.1
vt -0.07499995 0.66
vt -0.4001001 0.07499995
vt -0.5002002 0.07499995
vt 0.04999995 -0.6600001
vt 0.07499995 -0.6600001
vt 0.4001001 -0.07499995
vt 0.5002002 -0.07499995
vt -0.5002002 -0.07499995
vt -0.4001001 -0.07499995
vt -0.04999995 -0.6099549
vt -0.07499995 -0.6099549
vt -0.06050752 -0.04999995
vt 0.6055256 -0.04999995
vt -0.06050752 -0.07499995
vt 0.6055256 -0.07499995
vt -0.5634404 -0.04999995
vt 0.1025927 -0.04999995
vt -0.5634404 -0.07499995
vt 0.1025927 -0.07499995
vt 0.04999995 -0.22
vt 0.04999995 0.22
vt 0.07499995 -0.22
vt 0.07499995 0.22
vt -0.04999995 0.1699549
vt -0.04999995 -0.1699548
vt -0.07499995 0.1699549
vt -0.07499995 -0.1699548
vt -0.6055257 -0.04999995
vt 0.0605073 -0.04999995
vt -0.6055257 -0.07499995
vt 0.0605073 -0.07499995
vt -0.1025926 -0.04999995
vt 0.5634404 -0.04999995
vt -0.1025926 -0.07499995
vt 0.5634404 -0.07499995
vt 0.07499995 0.66
vt -0.04999995 0.6099548
vt -0.07499995 0.6099548
vt 0.9548459 0.8864198
vt 0.9548459 0.1135803
vt 0.04515412 1
vt 0.04515412 0
vt 0.04515412 0.1135803
vt 0.04515412 0.8864198
vt 0.9548459 0
vt 0.9548459 1
vt -0.04999995 0.6600451
vt 0.04999995 0.6600451
vt -0.6806423 0.04999995
vt -0.6806423 -0.04999995
vt -0.01460931 -0.04999995
vt -0.01460931 0.04999995
vt 0.6806422 0.04999995
vt 0.01460912 0.04999995
vt 0.01460912 -0.04999995
vt 0.6806422 -0.04999995
vt 1.0002 0.22
vt 0.5002002 0.66
vt 1.1003 0.2200452
vt 0.6003002 0.6600451
vt -0.6003002 -0.6600453
vt 1.0002 -0.22
vt 1.1003 -0.2200452
vt -0.6003002 0.6600451
vt 0.5002002 1.1
vt 0.6003002 1.1
vt -0.6003002 0.04999995
vt -0.6003002 -0.04999995
vt -0.6003002 1.1
vt 0.5002002 -0.6600001
vt 0.6003002 -0.6600453
vt -0.6003002 -1.1
vt 0.6003002 -0.04999995
vt 0.6003002 0.04999995
vt 0.5002002 -1.1
vt 0.6003002 -1.1

vn -1 0 0
vn 0 0 1
vn 0 0 -1
vn 0 1 0
vn 0 -1 0
vn 1 0 0
vn -0.6606278 -0.7507136 0
vn 0.660628 -0.7507135 0
vn -0.660628 0.7507135 0
vn 0.6606278 0.7507136 0

usemtl Metal011
f 2/2/1 1/1/1 4/4/1 3/3/1
f 4/4/1 1/1/1 5/5/1 6/6/1
f 5/5/1 7/7/1 8/8/1 6/6/1
f 10/10/1 9/9/1 12/12/1 11/11/1
f 7/7/1 10/10/1 11/11/1 8/8/1
f 27/27/4 28/28/4 26/26/4 25/25/4
f 41/45/5 42/46/5 40/44/5 39/43/5
f 3/50/2 4/51/2 45/49/2 28/13/2
f 6/54/2 8/55/2 47/53/2 46/52/2
f 1/51/3 2/50/3 27/24/3 48/23/3
f 2/56/4 3/57/4 28/28/4 27/27/4
f 8/55/2 11/59/2 49/58/2 47/53/2
f 4/51/2 6/54/2 46/52/2 45/49/2
f 5/54/3 1/51/3 48/23/3 50/32/3
f 11/59/2 12/60/2 41/33/2 49/58/2
f 7/55/3 5/54/3 50/32/3 51/42/3
f 10/59/3 7/55/3 51/42/3 52/41/3
f 12/57/5 9/56/5 42/46/5 41/45/5
f 9/60/3 10/59/3 52/41/3 42/48/3
f 17/63/6 18/64/6 54/62/6 53/61/6
f 19/67/7 16/68/7 45/66/7 46/65/7
f 33/69/5 34/70/5 41/45/5 39/43/5
f 20/73/1 19/74/1 46/72/1 47/71/1
f 18/77/8 29/78/8 55/76/8 54/75/8
f 30/81/9 20/82/9 47/80/9 49/79/9
f 29/84/6 33/85/6 39/9/6 55/83/6
f 34/87/1 30/88/1 49/86/1 41/12/1
f 14/91/10 17/92/10 53/90/10 56/89/10
f 16/94/1 15/95/1 28/3/1 45/93/1
f 13/96/6 14/97/6 56/1/6 26/2/6
f 15/98/4 13/99/4 26/26/4 28/28/4
f 43/87/6 37/101/6 57/100/6 40/12/6
f 44/102/5 43/103/5 40/44/5 42/46/5
f 22/104/4 24/105/4 27/27/4 25/25/4
f 38/107/1 44/85/1 42/9/1 52/106/1
f 37/110/8 35/111/8 58/109/8 57/108/8
f 36/114/9 38/115/9 52/113/9 51/112/9
f 35/118/6 31/119/6 59/117/6 58/116/6
f 32/122/1 36/123/1 51/121/1 50/120/1
f 31/126/10 21/127/10 60/125/10 59/124/10
f 23/130/7 32/131/7 50/129/7 48/128/7
f 21/132/6 22/95/6 25/3/6 60/4/6
f 24/96/1 23/134/1 48/133/1 27/2/1
f 71/143/6 72/144/6 69/3/6 70/2/6
f 71/148/10 73/145/10 74/146/10 72/147/10
f 75/62/6 76/116/6 74/117/6 73/61/6
f 78/151/8 76/152/8 75/149/8 77/150/8
f 79/9/6 80/12/6 78/100/6 77/83/6
f 73/155/2 71/156/2 56/154/2 53/153/2
f 74/36/3 76/35/3 58/40/3 59/31/3
f 76/35/3 78/157/3 57/39/3 58/40/3
f 75/159/2 73/155/2 53/153/2 54/158/2
f 72/160/3 74/36/3 59/31/3 60/21/3
f 71/156/2 70/162/2 26/161/2 56/154/2
f 70/163/4 69/164/4 25/25/4 26/26/4
f 69/165/3 72/160/3 60/21/3 25/22/3
f 77/167/2 75/159/2 54/158/2 55/166/2
f 78/157/3 80/168/3 40/47/3 57/39/3
f 80/169/5 79/170/5 39/43/5 40/44/5
f 79/172/2 77/167/2 55/166/2 39/171/2

usemtl SCP-Logo
f 63/137/2 64/138/2 62/136/2 61/135/2
f 67/141/3 68/142/3 66/140/3 65/139/3

usemtl Metal011-Warning-Line
f 15/15/2 16/16/2 14/14/2 13/13/2
f 19/19/2 20/20/2 18/18/2 17/17/2
f 23/23/3 24/24/3 22/22/3 21/21/3
f 20/20/2 30/30/2 29/29/2 18/18/2
f 16/16/2 19/19/2 17/17/2 14/14/2
f 32/32/3 23/23/3 21/21/3 31/31/3
f 30/30/2 34/34/2 33/33/2 29/29/2
f 36/37/3 32/38/3 31/36/3 35/35/3
f 38/41/3 36/42/3 35/40/3 37/39/3
f 44/48/3 38/41/3 37/39/3 43/47/3

