# ProBuilder 5.0.4
# https://unity3d.com/unity/features/worldbuilding/probuilder
# 5/25/2022 8:22:16 PM

mtllib ./Door-Type-1-Left.mtl
o Door-Type-1-Left

g Door-Type-1-Left
v 0 -1.1 -0.04999995
v 0 -1.1 0.04999995
v 0 1.1 -0.04999995
v 0 1.1 0.04999995
v -0.9 1.1 0.04999995
v -0.9 1.1 -0.04999995
v -0.9 -1.1 -0.04999995
v -0.9 -1.1 0.04999995
v -0.9 0.7099999 -0.04999995
v -0.4 0.2700001 -0.04999995
v -0.4 -0.27 -0.04999995
v -0.9 -0.7100001 -0.04999995
v -0.9 -0.7100001 0.04999995
v -0.4 -0.27 0.04999995
v -0.4 0.2700001 0.04999995
v -0.9 0.7099999 0.04999995
v -0.9002 0.6599097 -0.04999995
v -0.9002 1.1 -0.04999995
v -0.9002 1.1 0.04999995
v -0.9002 0.6599097 0.04999995
v -0.4002 0.2199099 -0.04999995
v -0.4002 0.2199099 0.04999995
v -0.4002 -0.2199097 -0.04999995
v -0.4002 -0.2199097 0.04999995
v -0.9002 -1.1 -0.04999995
v -0.9002 -0.6599097 -0.04999995
v -0.9002 -0.6599097 0.04999995
v -0.9002 -1.1 0.04999995
v -0.9 1.1 0.07499995
v -0.9 0.7099999 0.07499995
v -1.0001 1.1 0.07499995
v -1.0001 0.6599549 0.07499995
v -0.4 0.2700001 0.07499995
v -0.4 -0.27 0.07499995
v -0.5001 0.2199551 0.07499995
v -0.5001 -0.2199548 0.07499995
v -0.9 0.7099999 -0.07499995
v -0.9 1.1 -0.07499995
v -1.0001 0.6599549 -0.07499995
v -1.0001 1.1 -0.07499995
v -1.0001 1.1 -0.04999995
v -1.0001 1.1 0.04999995
v -0.9 -0.7100001 0.07499995
v -1.0001 -0.6599549 0.07499995
v -0.4 0.2700001 -0.07499995
v -0.5001 0.2199551 -0.07499995
v -0.9 -1.1 0.07499995
v -1.0001 -1.1 0.07499995
v -0.4 -0.27 -0.07499995
v -0.5001 -0.2199548 -0.07499995
v -0.9 -0.7100001 -0.07499995
v -1.0001 -0.6599549 -0.07499995
v -1.0001 -1.1 0.04999995
v -1.0001 -1.1 -0.04999995
v -0.9 -1.1 -0.07499995
v -1.0001 -1.1 -0.07499995
v -1.0001 0.6599549 0.04999995
v -0.5001 0.2199551 0.04999995
v -0.5001 -0.2199548 0.04999995
v -1.0001 -0.6599549 0.04999995
v -1.0001 -0.6599549 -0.04999995
v -0.5001 -0.2199548 -0.04999995
v -0.5001 0.2199551 -0.04999995
v -1.0001 0.6599549 -0.04999995

vt 0.04999995 -1.1
vt -0.04999995 -1.1
vt 0.04999995 1.1
vt -0.04999995 1.1
vt 0 0.04999995
vt 0.9 0.04999995
vt 0 -0.04999995
vt 0.9 -0.04999995
vt -0.9 -0.04999995
vt -0.9 0.04999995
vt 0.9 -1.1
vt 0 -1.1
vt 0 1.1
vt 0.9 1.1
vt 0.9 0.7099999
vt 0.4 0.2700001
vt 0.4 -0.27
vt 0.9 -0.7100001
vt -0.9 -1.1
vt -0.9 -0.7100001
vt -0.4 -0.27
vt -0.4 0.2700001
vt -0.9 0.7099999
vt -0.9 1.1
vt -0.04999995 0.6599097
vt 0.04999995 0.6599097
vt -0.4457142 -0.04999995
vt -1.111747 -0.04999995
vt -1.111747 0.04999995
vt -0.4457142 0.04999995
vt -0.04999995 -0.2199097
vt -0.04999995 0.2199099
vt 0.04999995 0.2199099
vt 0.04999995 -0.2199097
vt -0.04999995 -0.6599097
vt 0.04999995 -0.6599097
vt 1.111747 -0.04999995
vt 0.445714 -0.04999995
vt 0.445714 0.04999995
vt 1.111747 0.04999995
vt -1.0001 1.1
vt -1.0001 0.6599549
vt -0.5001 0.2199551
vt -0.5001 -0.2199548
vt 1.0001 0.6599549
vt 1.0001 1.1
vt 1.0001 -0.04999995
vt 1.0001 0.04999995
vt -1.0001 -0.6599549
vt 0.5001 0.2199551
vt -1.0001 -1.1
vt 0.5001 -0.2199548
vt 1.0001 -0.6599549
vt -1.0001 0.04999995
vt -1.0001 -0.04999995
vt 1.0001 -1.1
vt -0.04999995 0.7099999
vt -0.07499995 1.1
vt -0.07499995 0.7099999
vt 1.0001 0.07499995
vt 0.9 0.07499995
vt -0.9 0.07499995
vt -1.0001 0.07499995
vt 0.07499995 0.6599549
vt 0.07499995 1.1
vt 1.144688 0.04999995
vt 0.478655 0.04999995
vt 1.144688 0.07499995
vt 0.478655 0.07499995
vt -0.5207403 0.04999995
vt -1.186773 0.04999995
vt -0.5207403 0.07499995
vt -1.186773 0.07499995
vt -0.04999995 0.2700001
vt -0.04999995 -0.27
vt -0.07499995 0.2700001
vt -0.07499995 -0.27
vt 0.07499995 -0.2199548
vt 0.07499995 0.2199551
vt -0.478655 0.04999995
vt -1.144688 0.04999995
vt -0.478655 0.07499995
vt -1.144688 0.07499995
vt 1.186773 0.04999995
vt 0.5207402 0.04999995
vt 1.186773 0.07499995
vt 0.5207402 0.07499995
vt -0.04999995 -0.7100001
vt -0.07499995 -0.7100001
vt -0.07499995 -1.1
vt 0.07499995 -1.1
vt 0.07499995 -0.6599549
vt -1.144688 -0.04999995
vt -0.478655 -0.04999995
vt -1.144688 -0.07499995
vt -0.478655 -0.07499995
vt -0.07499995 -0.6599549
vt 0.9 -0.07499995
vt 1.0001 -0.07499995
vt 0.5207402 -0.04999995
vt 1.186773 -0.04999995
vt 0.5207402 -0.07499995
vt 1.186773 -0.07499995
vt 0.04999995 -0.27
vt 0.04999995 0.2700001
vt 0.07499995 -0.27
vt 0.07499995 0.2700001
vt -0.07499995 0.2199551
vt -0.07499995 -0.2199548
vt 0.478655 -0.04999995
vt 1.144688 -0.04999995
vt 0.478655 -0.07499995
vt 1.144688 -0.07499995
vt -1.186773 -0.04999995
vt -0.5207403 -0.04999995
vt -1.186773 -0.07499995
vt -0.5207403 -0.07499995
vt 0.04999995 0.7099999
vt 0.07499995 0.7099999
vt -0.07499995 0.6599549
vt 0.04999995 -0.7100001
vt 0.07499995 -0.7100001
vt -1.0001 -0.07499995
vt -0.9 -0.07499995
vt 0.4002 -0.2199097
vt 0.9002 -0.6599097
vt 0.9002 0.6599097
vt 0.4002 0.2199099
vt -0.4002 0.2199099
vt -0.9002 0.6599097
vt -0.9002 1.1
vt 0.9002 -1.1
vt -0.4002 -0.2199097
vt 0.9002 1.1
vt -0.9002 -0.6599097
vt 0.9002 0.04999995
vt 0.9002 -0.04999995
vt -0.9002 -1.1
vt -0.9002 -0.04999995
vt -0.9002 0.04999995

vn 1 0 0
vn 0 1 0
vn 0 -1 0
vn 0 0 -1
vn 0 0 1
vn -1 0 0
vn -0.6606277 -0.7507136 0
vn -0.660628 0.7507135 0
vn 0.6606277 0.7507136 0
vn 0.660628 -0.7507135 0

usemtl Metal011
f 13/20/5 8/19/5 2/12/5
f 14/21/5 13/20/5 2/12/5
f 15/22/5 14/21/5 2/12/5
f 2/12/5 4/13/5 15/22/5
f 4/13/5 16/23/5 15/22/5
f 4/13/5 5/24/5 16/23/5
f 9/15/4 6/14/4 3/13/4
f 10/16/4 9/15/4 3/13/4
f 10/16/4 3/13/4 1/12/4
f 1/12/4 11/17/4 10/16/4
f 1/12/4 12/18/4 11/17/4
f 1/12/4 7/11/4 12/18/4
f 4/4/1 2/2/1 1/1/1
f 1/1/1 3/3/1 4/4/1
f 6/8/2 5/6/2 4/5/2
f 4/5/2 3/7/2 6/8/2
f 8/10/3 7/9/3 1/7/3
f 1/7/3 2/5/3 8/10/3
f 17/25/6 20/26/6 19/3/6
f 19/3/6 18/4/6 17/25/6
f 17/28/7 21/27/7 22/30/7
f 22/30/7 20/29/7 17/28/7
f 23/31/6 24/34/6 22/33/6
f 22/33/6 21/32/6 23/31/6
f 25/2/6 28/1/6 27/36/6
f 27/36/6 26/35/6 25/2/6
f 26/37/8 27/40/8 24/39/8
f 24/39/8 23/38/8 26/37/8
f 42/48/2 5/6/2 6/8/2
f 6/8/2 41/47/2 42/48/2
f 54/55/3 7/9/3 8/10/3
f 8/10/3 53/54/3 54/55/3
f 30/59/1 16/57/1 5/4/1
f 5/4/1 29/58/1 30/59/1
f 29/61/2 5/6/2 42/48/2
f 42/48/2 31/60/2 29/61/2
f 48/63/3 53/54/3 8/10/3
f 8/10/3 47/62/3 48/63/3
f 31/65/6 42/3/6 57/26/6
f 57/26/6 32/64/6 31/65/6
f 33/69/9 15/67/9 16/66/9
f 16/66/9 30/68/9 33/69/9
f 32/73/7 57/71/7 58/70/7
f 58/70/7 35/72/7 32/73/7
f 34/77/1 14/75/1 15/74/1
f 15/74/1 33/76/1 34/77/1
f 35/79/6 58/33/6 59/34/6
f 59/34/6 36/78/6 35/79/6
f 43/83/10 13/81/10 14/80/10
f 14/80/10 34/82/10 43/83/10
f 36/87/8 59/85/8 60/84/8
f 60/84/8 44/86/8 36/87/8
f 47/90/1 8/2/1 13/88/1
f 13/88/1 43/89/1 47/90/1
f 44/92/6 60/36/6 53/1/6
f 53/1/6 48/91/6 44/92/6
f 49/96/10 11/94/10 12/93/10
f 12/93/10 51/95/10 49/96/10
f 56/90/6 54/2/6 61/35/6
f 61/35/6 52/97/6 56/90/6
f 40/99/2 41/47/2 6/8/2
f 6/8/2 38/98/2 40/99/2
f 52/103/8 61/101/8 62/100/8
f 62/100/8 50/102/8 52/103/8
f 45/107/1 10/105/1 11/104/1
f 11/104/1 49/106/1 45/107/1
f 50/109/6 62/31/6 63/32/6
f 63/32/6 46/108/6 50/109/6
f 37/113/9 9/111/9 10/110/9
f 10/110/9 45/112/9 37/113/9
f 46/117/7 63/115/7 64/114/7
f 64/114/7 39/116/7 46/117/7
f 38/65/1 6/3/1 9/118/1
f 9/118/1 37/119/1 38/65/1
f 39/120/6 64/25/6 41/4/6
f 41/4/6 40/58/6 39/120/6
f 51/122/1 12/121/1 7/1/1
f 7/1/1 55/91/1 51/122/1
f 55/124/3 7/9/3 54/55/3
f 54/55/3 56/123/3 55/124/3
f 27/126/4 60/53/4 59/52/4
f 59/52/4 24/125/4 27/126/4
f 22/128/4 58/50/4 57/45/4
f 57/45/4 20/127/4 22/128/4
f 17/130/5 64/42/5 63/43/5
f 63/43/5 21/129/5 17/130/5
f 18/131/5 41/41/5 64/42/5
f 64/42/5 17/130/5 18/131/5
f 24/125/4 59/52/4 58/50/4
f 58/50/4 22/128/4 24/125/4
f 28/132/4 53/56/4 60/53/4
f 60/53/4 27/126/4 28/132/4
f 21/129/5 63/43/5 62/44/5
f 62/44/5 23/133/5 21/129/5
f 20/127/4 57/45/4 42/46/4
f 42/46/4 19/134/4 20/127/4
f 23/133/5 62/44/5 61/49/5
f 61/49/5 26/135/5 23/133/5
f 25/137/2 54/47/2 53/48/2
f 53/48/2 28/136/2 25/137/2
f 26/135/5 61/49/5 54/51/5
f 54/51/5 25/138/5 26/135/5
f 19/140/3 42/54/3 41/55/3
f 41/55/3 18/139/3 19/140/3

usemtl Metal011-Warning-Line
f 31/41/5 32/42/5 30/23/5 29/24/5
f 35/43/5 36/44/5 34/21/5 33/22/5
f 39/45/4 40/46/4 38/14/4 37/15/4
f 36/44/5 44/49/5 43/20/5 34/21/5
f 32/42/5 35/43/5 33/22/5 30/23/5
f 46/50/4 39/45/4 37/15/4 45/16/4
f 44/49/5 48/51/5 47/19/5 43/20/5
f 50/52/4 46/50/4 45/16/4 49/17/4
f 52/53/4 50/52/4 49/17/4 51/18/4
f 56/56/4 52/53/4 51/18/4 55/11/4

