# ProBuilder 4.5.0
# https://unity3d.com/unity/features/worldbuilding/probuilder
# 2021/3/10 19:45:37

mtllib ./VolumetricLight.mtl
o VolumetricLight

g VolumetricLight
v -0.5 -0.5 0
v 0 0.5 0
v -0.4330127 -0.5 0.25
v -0.25 -0.5 0.4330127
v 0 -0.5 0.5
v 0.25 -0.5 0.4330127
v 0.4330127 -0.5 0.25
v 0.5 -0.5 -4.371139E-08
v 0.4330127 -0.5 -0.25
v 0.2499999 -0.5 -0.4330127
v 0 -0.5 -0.5
v -0.2499999 -0.5 -0.4330127
v -0.4330127 -0.5 -0.2500001

vt 0.2557192 0.03084934
vt 0.2557192 0.9995993
vt 0.4979067 0.03084934
vt 0.0135316 0.03084934
vt 0.4330126 0.9995993
vt 0.1908251 0.03084934
vt 0.4330126 0.03084934
vt 0.6752002 0.03084934
vt 0.8524937 0.03084934

vn -0.8944272 0.4472136 -7.661565E-09
vn -2.284237E-08 1 -7.994828E-08
vn -0.7745967 0.4472136 0.4472136
vn -0.4472136 0.4472136 0.7745966
vn 5.363095E-08 0.4472136 0.8944272
vn 0.4472135 0.4472136 0.7745968
vn 0.7745966 0.4472136 0.4472136
vn 0.8944272 0.4472136 -5.363095E-08
vn 0.7745966 0.4472136 -0.4472136
vn 0.4472135 0.4472136 -0.7745967
vn 0 0.4472136 -0.8944272
vn -0.4472135 0.4472136 -0.7745968
vn -0.7745966 0.4472136 -0.4472137

usemtl VolumetricLight
f 3/3/3 2/2/2 1/1/1
f 4/6/4 2/5/2 3/4/3
f 5/7/5 2/5/2 4/6/4
f 6/8/6 2/5/2 5/7/5
f 7/9/7 2/5/2 6/8/6
f 8/1/8 2/2/2 7/4/7
f 9/3/9 2/2/2 8/1/8
f 10/6/10 2/5/2 9/4/9
f 11/7/11 2/5/2 10/6/10
f 12/8/12 2/5/2 11/7/11
f 13/9/13 2/5/2 12/8/12
f 1/1/1 2/2/2 13/4/13

