# ProBuilder 5.0.3
# https://unity3d.com/unity/features/worldbuilding/probuilder
# 2021/4/19 23:13:21

mtllib ./VolumetricLight-Mode-2.mtl
o VolumetricLight-Mode-2

g VolumetricLight-Mode-2
v -0.5 -0.5 0
v -0.5 0.5 0
v -0.4330127 -0.5 0.25
v -0.4330127 0.5 0.25
v -0.25 -0.5 0.4330127
v -0.25 0.5 0.4330127
v 2.185569E-08 -0.5 0.5
v 2.185569E-08 0.5 0.5
v 0.25 -0.5 0.4330127
v 0.25 0.5 0.4330127
v 0.4330127 -0.5 0.25
v 0.4330127 0.5 0.25
v 0.5 -0.5 -4.371139E-08
v 0.5 0.5 -4.371139E-08
v 0.4330127 -0.5 -0.25
v 0.4330127 0.5 -0.25
v 0.25 -0.5 -0.4330127
v 0.25 0.5 -0.4330127
v -5.96244E-09 -0.5 -0.5
v -5.96244E-09 0.5 -0.5
v -0.25 -0.5 -0.4330127
v -0.25 0.5 -0.4330127
v -0.4330127 -0.5 -0.2500001
v -0.4330127 0.5 -0.2500001

vt -0.1294095 0
vt -0.1294095 1
vt 0.1294095 0
vt 0.1294095 1

vn -1 0 -1.542682E-08
vn -0.8660254 0 0.5
vn -0.5 0 0.8660254
vn 4.628045E-08 0 1
vn 0.5 0 0.8660254
vn 0.8660254 0 0.5
vn 1 0 -6.170727E-08
vn 0.8660254 0 -0.5000001
vn 0.5 0 -0.8660254
vn 0 0 -1
vn -0.4999999 0 -0.8660254
vn -0.8660253 0 -0.5000001

usemtl VolumetricLight
f 3/3/2 4/4/2 2/2/1 1/1/1
f 5/3/3 6/4/3 4/2/2 3/1/2
f 7/3/4 8/4/4 6/2/3 5/1/3
f 9/3/5 10/4/5 8/2/4 7/1/4
f 11/3/6 12/4/6 10/2/5 9/1/5
f 13/3/7 14/4/7 12/2/6 11/1/6
f 15/3/8 16/4/8 14/2/7 13/1/7
f 17/3/9 18/4/9 16/2/8 15/1/8
f 19/3/10 20/4/10 18/2/9 17/1/9
f 21/3/11 22/4/11 20/2/10 19/1/10
f 23/3/12 24/4/12 22/2/11 21/1/11
f 1/3/1 2/4/1 24/2/12 23/1/12

