# ProBuilder 5.0.6
# https://unity3d.com/unity/features/worldbuilding/probuilder
# 12/30/2022 5:05:20 AM

mtllib ./FSS-S2-Ammo-Counter.mtl
o FSS-S2-Ammo-Counter

g FSS-S2-Ammo-Counter
v -0.3535533 -4.400002 -0.4535534
v -0.1913419 -4.400002 -0.5619397
v -0.1913419 -4.200002 -1.06194
v 0.1913419 -4.400002 -0.5619398
v 0.3535535 -4.400002 -0.4535533
v 0.1913419 -4.200002 -1.06194
v 0 -3.500002 -0.5
v 0.1913419 -3.500002 -0.4619397
v 0 -4.400004 -0.5000001
v 0.1913419 -4.400003 -0.4619399
v 0 -3.500002 -1.1
v -0.1913419 -3.500002 -1.06194
v 0 -4.200002 -1.100001
v -0.1913419 -3.500002 -0.4619397
v -0.1913419 -4.400003 -0.4619398
v 0.1913419 -3.500002 -1.06194
v 0.3535535 -3.500002 -0.3535533
v 0.3535535 -4.400003 -0.3535534
v 0.3535535 -3.500001 -0.4535532
v -0.3535533 -3.500001 -0.4535533
v -0.3535533 -3.500002 -0.3535533
v -0.3535533 -4.400003 -0.3535535
v 0.1913419 -3.500001 -0.5619396
v 0 -3.500001 -0.5999999
v -0.1913419 -3.500001 -0.5619396
v -0.1530735 -4.360004 -0.6119401
v -0.1530735 -4.200004 -1.011941
v 0.1530735 -4.200004 -1.011941
v 0.1530735 -4.360004 -0.6119401
v -0.1530735 -4.220003 -1.01194
v -0.1530735 -4.380003 -0.6119399
v 0.1530735 -4.380003 -0.6119399
v 0.1530735 -4.220003 -1.01194

vt 0.6272792 0.7032551
vt 0.5688831 0.7386311
vt 0.5688831 0.9169614
vt 0.4311169 0.7386312
vt 0.3727207 0.7032551
vt 0.431117 0.9169614
vt 0.09999998 0.3620005
vt 0.1572741 0.3620006
vt 0.09999998 0.03799975
vt 0.1572741 0.03799987
vt 0.06622025 0.9259999
vt 0.1337798 0.926
vt 0.06622025 0.6739998
vt 0.1337798 0.6739998
vt 0.04272586 0.3620006
vt 0.04272586 0.03799987
vt -0.001339242 0.926
vt -0.001339242 0.6739998
vt 0.2058287 0.3620005
vt 0.2058287 0.03799987
vt 0.6379998 0.6914183
vt 0.638 0.9085815
vt 0.9620003 0.6914183
vt 0.8900002 0.9085815
vt 0.962 0.6085814
vt 0.9620003 0.3914183
vt 0.7099998 0.6085815
vt 0.6379998 0.3914185
vt -0.005828679 0.3620005
vt -0.005828679 0.03799987
vt 0.731117 0.2593413
vt 0.6727207 0.2983604
vt 0.731117 0.2953413
vt 0.6727207 0.3343604
vt 0.6380001 0.6569283
vt 0.9620006 0.6569283
vt 0.3727207 0.6706161
vt 0.4311169 0.7059923
vt 0.8 0.2456396
vt 0.8 0.2816396
vt 0.8688831 0.2593413
vt 0.8688831 0.2953413
vt 0.5688831 0.7059922
vt 0.6272792 0.6706161
vt 0.9272792 0.2983604
vt 0.9272792 0.3343604
vt 0.6379994 0.3569283
vt 0.9619999 0.3569283
vt 0.3239373 0.5975581
vt 0.3239373 0.4024419
vt 0.4760627 0.4024419
vt 0.4760627 0.5975581
vt 0.5 0.7184147
vt 0.5000001 0.9293839
vt 0.5551065 0.8991284
vt 0.5551065 0.7564641
vt 0.4448936 0.7564641
vt 0.4448936 0.8991284
vt 0.6095097 0.2252001
vt 0.4655095 0.1676
vt 0.6095098 0.2323998
vt 0.4655096 0.1747997
vt 0.5551064 0.09640018
vt 0.4448935 0.09640018
vt 0.5551064 0.1035998
vt 0.4448935 0.1035998
vt 0.5344905 0.1676
vt 0.3904903 0.2252001
vt 0.5344905 0.1747997
vt 0.3904902 0.2323998
vt 0.554876 0.2252003
vt 0.4446631 0.2252003
vt 0.554876 0.2324
vt 0.4446631 0.2324
vt 0.8 0.06563938
vt 0.8688831 0.07934105
vt 0.731117 0.07934105

vn -0.2408505 -0.9011444 -0.3604579
vn 0.2408506 -0.9011443 -0.3604579
vn -0.1950905 -1.299094E-07 0.9807853
vn -0.1950899 3.340534E-07 -0.9807854
vn 0.1950905 -1.299094E-07 0.9807853
vn 0.19509 3.340533E-07 -0.9807854
vn -0.5555705 -2.202638E-07 0.8314694
vn 0.9662448 3.412371E-08 -0.2576258
vn -0.9662449 8.774665E-08 -0.2576255
vn 0.5555708 -1.376649E-07 0.8314692
vn -4.779192E-06 1 7.152564E-06
vn 1 0 0
vn 6.372263E-06 -1 -9.536752E-06
vn -1 0 0
vn 0 -0.9284766 -0.3713908
vn 0 -8.941132E-06 -1
vn 0 1.192151E-05 1

usemtl Default
f 3/3/1 2/2/1 1/1/1
f 6/6/2 5/5/2 4/4/2
f 9/53/13 4/4/13 10/38/13
f 2/2/13 4/4/13 9/53/13
f 15/43/13 2/2/13 9/53/13
f 3/3/13 13/54/13 6/6/13
f 20/45/11 25/41/11 12/76/11
f 24/39/11 12/76/11 25/41/11
f 24/39/11 11/75/11 12/76/11
f 16/77/11 11/75/11 24/39/11
f 23/31/11 16/77/11 24/39/11
f 23/31/11 19/32/11 16/77/11
f 10/10/3 8/8/3 7/7/3
f 7/7/3 9/9/3 10/10/3
f 3/14/4 12/12/4 11/11/4
f 11/11/4 13/13/4 3/14/4
f 9/9/5 7/7/5 14/15/5
f 14/15/5 15/16/5 9/9/5
f 13/13/6 11/11/6 16/17/6
f 16/17/6 6/18/6 13/13/6
f 18/20/7 17/19/7 8/8/7
f 8/8/7 10/10/7 18/20/7
f 6/24/8 16/22/8 19/21/8
f 19/21/8 5/23/8 6/24/8
f 1/28/9 20/26/9 12/25/9
f 12/25/9 3/27/9 1/28/9
f 15/16/10 14/15/10 21/29/10
f 21/29/10 22/30/10 15/16/10
f 17/34/11 19/32/11 23/31/11
f 23/31/11 8/33/11 17/34/11
f 18/36/12 5/23/12 19/21/12
f 19/21/12 17/35/12 18/36/12
f 10/38/13 4/4/13 5/5/13
f 5/5/13 18/37/13 10/38/13
f 8/33/11 23/31/11 24/39/11
f 24/39/11 7/40/11 8/33/11
f 7/40/11 24/39/11 25/41/11
f 25/41/11 14/42/11 7/40/11
f 22/44/13 1/1/13 2/2/13
f 2/2/13 15/43/13 22/44/13
f 14/42/11 25/41/11 20/45/11
f 20/45/11 21/46/11 14/42/11
f 21/48/14 20/26/14 1/28/14
f 1/28/14 22/47/14 21/48/14
f 29/52/15 26/49/15 27/50/15
f 27/50/15 28/51/15 29/52/15
f 31/56/15 2/2/15 3/3/15
f 3/3/15 30/55/15 31/56/15
f 32/57/15 4/4/15 2/2/15
f 2/2/15 31/56/15 32/57/15
f 33/58/15 6/6/15 4/4/15
f 4/4/15 32/57/15 33/58/15
f 30/55/15 3/3/15 6/6/15
f 6/6/15 33/58/15 30/55/15
f 26/62/12 31/60/12 30/59/12
f 30/59/12 27/61/12 26/62/12
f 29/66/16 32/64/16 31/63/16
f 31/63/16 26/65/16 29/66/16
f 28/70/14 33/68/14 32/67/14
f 32/67/14 29/69/14 28/70/14
f 27/74/17 30/72/17 33/71/17
f 33/71/17 28/73/17 27/74/17

