# ProBuilder 5.0.6
# https://unity3d.com/unity/features/worldbuilding/probuilder
# 1/1/2023 1:22:08 AM

mtllib ./FSS-S2-ammunition-drum.mtl
o FSS-S2-ammunition-drum

g FSS-S2-ammunition-drum
v 1.817941E-07 -0.9375 0.2249998
v 1.236796E-07 -0.9375 -0.07500006
v -0.3206437 -0.8809619 0.2249998
v -0.3206438 -0.8809618 -0.07500008
v -0.6026132 -0.7181666 0.2249998
v -0.6026133 -0.7181667 -0.07500011
v -0.8118987 -0.46875 0.2249998
v -0.8118988 -0.46875 -0.07500011
v -0.9232573 -0.1627952 0.2249998
v -0.9232573 -0.1627953 -0.07500011
v -0.9232573 0.1627952 0.2249998
v -0.9232573 0.1627951 -0.07500011
v -0.8118988 0.4687501 0.2249998
v -0.8118988 0.46875 -0.07500011
v -0.6026135 0.7181666 0.225
v -0.6026135 0.7181666 -0.07499999
v -0.4901136 0.9431667 0.2249999
v -0.4901136 0.9431667 -0.07499975
v -0.2081442 1.105962 0.2249999
v -0.2081442 1.105962 -0.07499975
v -0.3206441 0.8809619 0.225
v -0.3206441 0.8809617 -0.07499999
v -9.015202E-08 0.9375 0.2250004
v -3.278008E-08 0.9375001 -0.07499995
v 0.3206437 0.8809618 0.2250004
v 0.3206438 0.8809618 -0.07499991
v 0.2081436 1.105962 0.2250005
v 0.2081437 1.105962 -0.07499973
v 0.4901131 0.9431668 0.2250004
v 0.4901131 0.9431667 -0.07499972
v 0.6026132 0.7181668 0.2250004
v 0.6026133 0.7181667 -0.07499987
v 0.8118988 0.4687499 0.2250005
v 0.8118988 0.46875 -0.07499987
v 0.9232573 0.1627952 0.2250004
v 0.9232573 0.1627952 -0.07499987
v 0.9232573 -0.1627951 0.2250004
v 0.9232573 -0.1627951 -0.07499987
v 0.811899 -0.4687499 0.2250004
v 0.8118989 -0.4687499 -0.07499987
v 0.6026136 -0.7181665 0.2249998
v 0.6026136 -0.7181666 -0.07499999
v 0.3206443 -0.8809618 0.2249998
v 0.3206442 -0.8809618 -0.07500003
v 4.470349E-09 0 -0.075
v -0.2885792 -0.7928658 0.2249998
v 2.446025E-07 -0.8437498 0.2249998
v -0.286014 -0.785818 0.9749998
v 3.911551E-08 1.192093E-07 0.9749999
v 3.258019E-07 -0.8362497 0.9749998
v -0.5423518 -0.6463498 0.2249998
v -0.5375309 -0.6406043 0.9749998
v -0.7307088 -0.4218748 0.2249999
v -0.7242136 -0.4181247 0.9749999
v -0.8309315 -0.1465155 0.2249998
v -0.8235454 -0.1452131 0.9749998
v -0.8309315 0.1465158 0.2249998
v -0.8235454 0.1452136 0.9749998
v -0.730709 0.4218752 0.2249999
v -0.7242138 0.4181253 0.9749999
v -0.5423522 0.6463501 0.225
v -0.5375313 0.6406049 0.975
v -0.2885798 0.7928658 0.225
v -0.2860146 0.7858181 0.9749999
v -1.245737E-07 0.8437501 0.2250009
v -1.419007E-07 0.8362501 0.9750009
v 0.2885793 0.7928656 0.2250009
v 0.2860141 0.785818 0.975001
v 0.5423518 0.6463501 0.2250009
v 0.5375309 0.6406049 0.9750009
v 0.7307089 0.421875 0.2250009
v 0.7242137 0.418125 0.9750009
v 0.8309315 0.1465156 0.225001
v 0.8235455 0.1452132 0.975001
v 0.8309315 -0.1465156 0.225001
v 0.8235455 -0.1452132 0.975001
v 0.7307091 -0.4218749 0.2250009
v 0.7242139 -0.4181249 0.9750008
v 0.5423523 -0.6463498 0.2249998
v 0.5375314 -0.6406045 0.9749998
v 0.2885799 -0.7928656 0.2249998
v 0.2860149 -0.7858179 0.9749998
v 0.7307089 0.421875 0.9650009
v 0.8309316 0.1465156 0.9650009
v 0.5423518 0.6463502 0.9650009
v 0.8309316 -0.1465156 0.9650009
v 0.7307091 -0.4218749 0.9650009
v 0.5423523 -0.6463498 0.9649999
v 0.28858 -0.7928655 0.9649998
v 3.262012E-07 -0.8437498 0.9649999
v -0.2885791 -0.7928656 0.9649998
v -0.5423518 -0.6463497 0.9649999
v -0.7307088 -0.4218748 0.9649999
v -0.8309315 -0.1465154 0.9649999
v -0.8309315 0.146516 0.9649999
v -0.730709 0.4218752 0.9649999
v -0.5423522 0.6463502 0.965
v -0.2885798 0.7928658 0.9649999
v -1.422166E-07 0.8437501 0.9650009
v 0.2885793 0.7928658 0.9650009

vt 0.3091393 0.8658667
vt 0.3091393 0.931931
vt 0.4032865 0.8658667
vt 0.4032865 0.931931
vt 0.4860782 0.8658667
vt 0.4860782 0.931931
vt 0.1322003 0.8680689
vt 0.1322003 0.9341332
vt 0.2054339 0.8680689
vt 0.2054338 0.9341332
vt 0.2952681 0.8680689
vt 0.2952681 0.9341332
vt 0.3908677 0.8680689
vt 0.3908677 0.9341332
vt 0.480702 0.8680689
vt 0.480702 0.9341332
vt 0.5539355 0.8680689
vt 0.5539355 0.9341332
vt 0.2127611 0.2768775
vt 0.2127611 0.3231226
vt 0.2629509 0.2768775
vt 0.2629509 0.3231226
vt 0.02582643 0.2735744
vt 0.02582645 0.3264258
vt 0.1 0.2735743
vt 0.1000001 0.3264258
vt 0.1741736 0.2735743
vt 0.1741736 0.3264258
vt 0.3370491 0.2768774
vt 0.3370491 0.3231226
vt 0.3872389 0.2768774
vt 0.3872389 0.3231226
vt 0.2460645 0.8680689
vt 0.2460645 0.9341334
vt 0.3192981 0.8680689
vt 0.3192981 0.9341334
vt 0.4091324 0.8680689
vt 0.4091323 0.9341334
vt 0.5047319 0.8680689
vt 0.5047319 0.9341334
vt 0.5945662 0.8680689
vt 0.5945662 0.9341334
vt 0.6677997 0.8680691
vt 0.6677997 0.9341334
vt 0.1322003 0.8658668
vt 0.1322003 0.931931
vt 0.214992 0.8658668
vt 0.214992 0.931931
vt 0.6999999 0.35
vt 0.6999999 0.5793902
vt 0.7784559 0.363834
vt 0.847449 0.4036671
vt 0.8986576 0.4646951
vt 0.925905 0.539557
vt 0.925905 0.6192234
vt 0.8986576 0.6940852
vt 0.8474491 0.7551132
vt 0.778456 0.7949464
vt 0.6999999 0.8087803
vt 0.6215439 0.7949464
vt 0.5525509 0.7551132
vt 0.5013423 0.6940852
vt 0.4740948 0.6192234
vt 0.4740948 0.539557
vt 0.5013423 0.4646951
vt 0.5525508 0.4036672
vt 0.6215438 0.363834
vt 0.4669678 0.2669665
vt 0.4669678 0.3330308
vt 0.5330322 0.2669664
vt 0.5330322 0.3330308
vt 0.847519 0.7550337
vt 0.7785232 0.7948922
vt 0.8200102 0.8100892
vt 0.7510144 0.8499477
vt 0.6490707 0.85
vt 0.5800777 0.8101668
vt 0.9330322 0.9330323
vt 0.9330322 0.8669678
vt 0.8669679 0.9330322
vt 0.8669679 0.8669678
vt 0.6491232 0.8499975
vt 0.8199223 0.8101668
vt 0.7509292 0.85
vt 0.6213503 0.3639472
vt 0.629209 0.3854945
vt 0.6998361 0.3730122
vt 0.1315961 0.4120614
vt 0.2000001 0.6
vt 0.2000001 0.4
vt 0.5523545 0.4038058
vt 0.5671127 0.4213672
vt 0.07144253 0.4467911
vt 0.521037 0.4763033
vt 0.02679493 0.5
vt 0.4739395 0.5397053
vt 0.4965392 0.5436767
vt 0.003038436 0.5652704
vt 0.4739784 0.6193548
vt 0.4965742 0.6153614
vt 0.003038436 0.6347297
vt 0.5211377 0.6827109
vt 0.0267949 0.7
vt 0.5672671 0.737602
vt 0.07144243 0.7532089
vt 0.6293983 0.7734139
vt 0.1315959 0.7879386
vt 0.7000487 0.8087615
vt 0.7000375 0.7858274
vt 0.2 0.8
vt 0.7706646 0.7733449
vt 0.2684041 0.7879385
vt 0.8327608 0.7374723
vt 0.3285576 0.7532089
vt 0.8987143 0.6939936
vt 0.8788366 0.6825362
vt 0.3732052 0.7
vt 0.9033343 0.6151627
vt 0.3969617 0.6347296
vt 0.9258952 0.5394846
vt 0.9032993 0.5434781
vt 0.3969617 0.5652703
vt 0.8787358 0.4761286
vt 0.3732052 0.4999999
vt 0.8326065 0.4212375
vt 0.3285577 0.4467911
vt 0.7704753 0.3854255
vt 0.2684042 0.4120614
vt 0.2436049 0.1825803
vt 0.3244557 0.1825803
vt 0.2436049 0.01962154
vt 0.3244557 0.01962154
vt 0.1776946 0.1825803
vt 0.1776946 0.01962154
vt 0.4104953 0.1825803
vt 0.4104954 0.01962154
vt 0.4913462 0.1825803
vt 0.4913462 0.01962154
vt 0.5572563 0.1825805
vt 0.5572563 0.01962177
vt 0.06043753 0.1803782
vt 0.13495 0.1803782
vt 0.06043753 0.01741941
vt 0.13495 0.01741941
vt 0.2196826 0.1803781
vt 0.2196826 0.01741941
vt 0.3044151 0.1803781
vt 0.3044151 0.01741941
vt 0.3789277 0.1803781
vt 0.3789277 0.01741941
vt 0.06383049 0.1825803
vt 0.1297407 0.1825803
vt 0.06383052 0.01962154
vt 0.1297407 0.01962154
vt 0.2105915 0.1825803
vt 0.2105915 0.01962154
vt 0.2966312 0.1825803
vt 0.2966312 0.01962154
vt 0.377482 0.1825803
vt 0.3774821 0.01962154
vt 0.4433922 0.1825803
vt 0.4433922 0.01962154
vt 0.04274365 0.1803783
vt 0.1172562 0.1803783
vt 0.04274368 0.01741959
vt 0.1172562 0.01741962
vt 0.2019888 0.1803781
vt 0.2019888 0.01741941
vt 0.2867212 0.1803781
vt 0.2867212 0.01741941
vt 0.3612338 0.1803781
vt 0.3612338 0.01741941
vt 0.9456163 0.2618979
vt 0.9582172 0.2086449
vt 0.9469222 0.262453
vt 0.9596362 0.2087225
vt 0.9517348 0.1543494
vt 0.9530956 0.1539399
vt 0.9269509 0.1055599
vt 0.9280894 0.1047129
vt 0.8868549 0.06816132
vt 0.8876339 0.06697892
vt 0.836283 0.0466644
vt 0.8366084 0.04528919
vt 0.7813347 0.04366207
vt 0.7811673 0.04225993
vt 0.7286378 0.05951631
vt 0.7279978 0.05825637
vt 0.6845482 0.0923151
vt 0.6835127 0.0913493
vt 0.6543838 0.1381022
vt 0.6530778 0.137547
vt 0.6417829 0.191355
vt 0.6403639 0.1912775
vt 0.6482654 0.2456507
vt 0.6469045 0.2460601
vt 0.6730493 0.2944402
vt 0.6719107 0.2952871
vt 0.7131453 0.3318387
vt 0.7123663 0.3330211
vt 0.7637172 0.3533356
vt 0.7633919 0.3547108
vt 0.8186655 0.356338
vt 0.8188329 0.3577401
vt 0.8713624 0.3404837
vt 0.8720024 0.3417436
vt 0.9154519 0.307685
vt 0.9164873 0.3086508

vn 1.134828E-07 -1 -9.1962E-09
vn -0.3420202 -0.9396926 -6.929528E-08
vn -0.6427876 -0.7660445 1.925507E-07
vn -0.8660253 -0.5000002 2.04484E-07
vn -0.9848077 -0.1736483 7.327071E-08
vn -0.9848078 0.1736482 -5.17512E-08
vn -0.8660254 0.5 -1.079663E-07
vn -0.7660445 0.6427876 -1.277104E-07
vn -0.5000004 0.8660251 -4.967063E-08
vn -0.4999999 0.8660255 -7.875971E-07
vn -0.1736479 0.9848078 -6.21492E-07
vn 8.32207E-08 1 -6.563738E-10
vn 0.1736485 0.9848077 1.316864E-07
vn 0.4999996 0.8660257 7.450569E-08
vn 0.7660444 0.6427876 2.448892E-08
vn 0.8660253 0.5000001 3.967711E-08
vn 0.9848077 0.1736483 1.725039E-08
vn 0.9848078 -0.173648 -8.625178E-09
vn 0.8660255 -0.4999999 -2.946952E-07
vn 0.6427879 -0.7660441 -6.277811E-08
vn 0.3420204 -0.9396926 -6.700875E-08
vn 5.768319E-08 6.357829E-08 -1
vn -0.8944271 -0.4472139 -1.777065E-07
vn 0 0 1
vn 0.8944269 0.4472142 8.88531E-08
vn -0.8944275 0.447213 -8.885326E-08
vn 0.8944274 -0.4472131 4.442666E-07
vn 0.9396926 0.3420202 0
vn 1 0 -8.054683E-08
vn 0.9396928 -0.3420198 -9.635073E-08
vn 0.7660446 -0.6427875 0
vn 0.5000007 -0.866025 2.948209E-08
vn 0.1736473 -0.9848079 1.376662E-07
vn -0.1736471 -0.984808 1.914781E-08
vn -0.5000007 -0.866025 1.999213E-07
vn -0.7660443 -0.6427879 1.03549E-07
vn -0.9396925 -0.3420205 1.032379E-07
vn -1 0 8.054681E-08
vn -0.9396927 0.3420199 1.370487E-08
vn 0.7558668 0.2751133 0.5941196
vn 0.8043798 0 0.5941155
vn 0.7558697 -0.2751142 0.5941154
vn 0.6161875 -0.5170452 0.594119
vn 0.4021896 -0.6966117 0.5941176
vn 0.1396786 -0.7921605 0.5941143
vn -0.1396776 -0.7921554 0.5941212
vn -0.4021902 -0.6966124 0.5941164
vn -0.6161864 -0.5170423 0.5941225
vn -0.7558669 -0.2751133 0.5941194
vn -0.8043764 0 0.5941201
vn -0.7558667 0.2751126 0.59412
vn -0.61619 0.5170445 0.5941169
vn -0.4021887 0.6966113 0.5941187
vn -0.1396803 0.792156 0.5941198
vn 0.1396782 0.7921553 0.5941212
vn 0.402189 0.696612 0.5941176
vn 0.6161878 0.517043 0.5941205

usemtl Default
f 4/51/22 45/50/22 2/49/22
f 6/52/22 45/50/22 4/51/22
f 8/53/22 45/50/22 6/52/22
f 10/54/22 45/50/22 8/53/22
f 12/55/22 45/50/22 10/54/22
f 14/56/22 45/50/22 12/55/22
f 16/57/22 45/50/22 14/56/22
f 22/58/22 45/50/22 16/57/22
f 24/59/22 45/50/22 22/58/22
f 26/60/22 45/50/22 24/59/22
f 32/61/22 45/50/22 26/60/22
f 34/62/22 45/50/22 32/61/22
f 36/63/22 45/50/22 34/62/22
f 38/64/22 45/50/22 36/63/22
f 40/65/22 45/50/22 38/64/22
f 42/66/22 45/50/22 40/65/22
f 44/67/22 45/50/22 42/66/22
f 2/49/22 45/50/22 44/67/22
f 50/90/24 49/89/24 48/88/24
f 48/88/24 49/89/24 52/93/24
f 52/93/24 49/89/24 54/95/24
f 54/95/24 49/89/24 56/98/24
f 56/98/24 49/89/24 58/101/24
f 58/101/24 49/89/24 60/103/24
f 60/103/24 49/89/24 62/105/24
f 62/105/24 49/89/24 64/107/24
f 64/107/24 49/89/24 66/110/24
f 66/110/24 49/89/24 68/112/24
f 68/112/24 49/89/24 70/114/24
f 70/114/24 49/89/24 72/117/24
f 72/117/24 49/89/24 74/119/24
f 74/119/24 49/89/24 76/122/24
f 76/122/24 49/89/24 78/124/24
f 78/124/24 49/89/24 80/126/24
f 80/126/24 49/89/24 82/128/24
f 82/128/24 49/89/24 50/90/24
f 4/4/2 2/2/1 1/1/1
f 1/1/1 3/3/2 4/4/2
f 6/6/3 4/4/2 3/3/2
f 3/3/2 5/5/3 6/6/3
f 8/10/4 6/8/3 5/7/3
f 5/7/3 7/9/4 8/10/4
f 10/12/5 8/10/4 7/9/4
f 7/9/4 9/11/5 10/12/5
f 12/14/6 10/12/5 9/11/5
f 9/11/5 11/13/6 12/14/6
f 14/16/7 12/14/6 11/13/6
f 11/13/6 13/15/7 14/16/7
f 16/18/8 14/16/7 13/15/7
f 13/15/7 15/17/8 16/18/8
f 20/22/10 18/20/9 17/19/9
f 17/19/9 19/21/9 20/22/10
f 24/26/12 22/24/11 21/23/11
f 21/23/11 23/25/12 24/26/12
f 26/28/13 24/26/12 23/25/12
f 23/25/12 25/27/13 26/28/13
f 30/32/14 28/30/14 27/29/14
f 27/29/14 29/31/14 30/32/14
f 34/36/16 32/34/15 31/33/15
f 31/33/15 33/35/16 34/36/16
f 36/38/17 34/36/16 33/35/16
f 33/35/16 35/37/17 36/38/17
f 38/40/18 36/38/17 35/37/17
f 35/37/17 37/39/18 38/40/18
f 40/42/19 38/40/18 37/39/18
f 37/39/18 39/41/19 40/42/19
f 42/44/20 40/42/19 39/41/19
f 39/41/19 41/43/20 42/44/20
f 44/48/21 42/46/20 41/45/20
f 41/45/20 43/47/21 44/48/21
f 2/2/1 44/48/21 43/47/21
f 43/47/21 1/1/1 2/2/1
f 28/71/23 26/69/23 25/68/23
f 25/68/23 27/70/23 28/71/23
f 27/75/24 25/73/24 31/72/24
f 31/72/24 29/74/24 27/75/24
f 30/77/22 32/61/22 26/60/22
f 26/60/22 28/76/22 30/77/22
f 29/81/25 31/79/25 32/78/25
f 32/78/25 30/80/25 29/81/25
f 18/78/26 16/80/26 15/81/26
f 15/81/26 17/79/26 18/78/26
f 17/77/24 15/61/24 21/60/24
f 21/60/24 19/82/24 17/77/24
f 20/84/22 22/58/22 16/57/22
f 16/57/22 18/83/22 20/84/22
f 19/68/27 21/70/27 22/71/27
f 22/71/27 20/69/27 19/68/27
f 47/87/24 46/86/24 3/85/24
f 3/85/24 1/49/24 47/87/24
f 3/85/24 46/86/24 51/92/24
f 51/92/24 5/91/24 3/85/24
f 51/92/24 53/94/24 7/65/24
f 7/65/24 5/91/24 51/92/24
f 55/97/24 9/96/24 7/65/24
f 7/65/24 53/94/24 55/97/24
f 55/97/24 57/100/24 11/99/24
f 11/99/24 9/96/24 55/97/24
f 59/102/24 13/62/24 11/99/24
f 11/99/24 57/100/24 59/102/24
f 61/104/24 15/61/24 13/62/24
f 13/62/24 59/102/24 61/104/24
f 63/106/24 21/60/24 15/61/24
f 15/61/24 61/104/24 63/106/24
f 23/108/24 21/60/24 63/106/24
f 63/106/24 65/109/24 23/108/24
f 25/73/24 23/108/24 65/109/24
f 65/109/24 67/111/24 25/73/24
f 31/72/24 25/73/24 67/111/24
f 67/111/24 69/113/24 31/72/24
f 33/115/24 31/72/24 69/113/24
f 69/113/24 71/116/24 33/115/24
f 35/55/24 33/115/24 71/116/24
f 71/116/24 73/118/24 35/55/24
f 35/55/24 73/118/24 75/121/24
f 75/121/24 37/120/24 35/55/24
f 37/120/24 75/121/24 77/123/24
f 77/123/24 39/53/24 37/120/24
f 39/53/24 77/123/24 79/125/24
f 79/125/24 41/52/24 39/53/24
f 41/52/24 79/125/24 81/127/24
f 81/127/24 43/51/24 41/52/24
f 43/51/24 81/127/24 47/87/24
f 47/87/24 1/49/24 43/51/24
f 84/132/28 73/130/28 71/129/28
f 71/129/28 83/131/28 84/132/28
f 83/131/15 71/129/15 69/133/15
f 69/133/15 85/134/15 83/131/15
f 86/136/29 75/135/29 73/130/29
f 73/130/29 84/132/29 86/136/29
f 87/138/30 77/137/30 75/135/30
f 75/135/30 86/136/30 87/138/30
f 88/140/31 79/139/31 77/137/31
f 77/137/31 87/138/31 88/140/31
f 89/144/32 81/142/32 79/141/32
f 79/141/32 88/143/32 89/144/32
f 90/146/33 47/145/33 81/142/33
f 81/142/33 89/144/33 90/146/33
f 91/148/34 46/147/34 47/145/34
f 47/145/34 90/146/34 91/148/34
f 92/150/35 51/149/35 46/147/35
f 46/147/35 91/148/35 92/150/35
f 93/154/36 53/152/36 51/151/36
f 51/151/36 92/153/36 93/154/36
f 94/156/37 55/155/37 53/152/37
f 53/152/37 93/154/37 94/156/37
f 95/158/38 57/157/38 55/155/38
f 55/155/38 94/156/38 95/158/38
f 96/160/39 59/159/39 57/157/39
f 57/157/39 95/158/39 96/160/39
f 97/162/8 61/161/8 59/159/8
f 59/159/8 96/160/8 97/162/8
f 98/166/9 63/164/9 61/163/9
f 61/163/9 97/165/9 98/166/9
f 99/168/11 65/167/11 63/164/11
f 63/164/11 98/166/11 99/168/11
f 100/170/13 67/169/13 65/167/13
f 65/167/13 99/168/13 100/170/13
f 85/172/14 69/171/14 67/169/14
f 67/169/14 100/170/14 85/172/14
f 83/175/40 72/173/40 74/174/40
f 74/174/40 84/176/40 83/175/40
f 84/176/41 74/174/41 76/177/41
f 76/177/41 86/178/41 84/176/41
f 86/178/42 76/177/42 78/179/42
f 78/179/42 87/180/42 86/178/42
f 87/180/43 78/179/43 80/181/43
f 80/181/43 88/182/43 87/180/43
f 88/182/44 80/181/44 82/183/44
f 82/183/44 89/184/44 88/182/44
f 89/184/45 82/183/45 50/185/45
f 50/185/45 90/186/45 89/184/45
f 90/186/46 50/185/46 48/187/46
f 48/187/46 91/188/46 90/186/46
f 91/188/47 48/187/47 52/189/47
f 52/189/47 92/190/47 91/188/47
f 92/190/48 52/189/48 54/191/48
f 54/191/48 93/192/48 92/190/48
f 93/192/49 54/191/49 56/193/49
f 56/193/49 94/194/49 93/192/49
f 94/194/50 56/193/50 58/195/50
f 58/195/50 95/196/50 94/194/50
f 95/196/51 58/195/51 60/197/51
f 60/197/51 96/198/51 95/196/51
f 96/198/52 60/197/52 62/199/52
f 62/199/52 97/200/52 96/198/52
f 97/200/53 62/199/53 64/201/53
f 64/201/53 98/202/53 97/200/53
f 98/202/54 64/201/54 66/203/54
f 66/203/54 99/204/54 98/202/54
f 99/204/55 66/203/55 68/205/55
f 68/205/55 100/206/55 99/204/55
f 100/206/56 68/205/56 70/207/56
f 70/207/56 85/208/56 100/206/56
f 85/208/57 70/207/57 72/173/57
f 72/173/57 83/175/57 85/208/57

