# ProBuilder 5.0.6
# https://unity3d.com/unity/features/worldbuilding/probuilder
# 1/1/2023 1:22:08 AM

mtllib ./FSS-S2-MainBody-Shell-Cover.mtl
o FSS-S2-MainBody-Shell-Cover

g FSS-S2-MainBody-Shell-Cover
v -0.1435065 0.02637219 0.150001
v -0.2651651 -0.05491757 0.150001
v -0.1435065 0.02637219 -0.1500001
v -0.2651651 -0.05491757 -0.1500001
v 0.2651651 -0.05491757 0.150001
v 0.1435063 0.02637219 0.150001
v 0.2651651 -0.05491757 -0.1500001
v 0.1435063 0.02637219 -0.1500001
v -8.940697E-08 0.05491757 0.1500006
v -8.940697E-08 0.05491757 -0.1500006

vt 0.3112634 0.6778761
vt 0.3208119 0.6778761
vt 0.3112634 0.6566372
vt 0.3208119 0.6566372
vt 0.2791882 0.6778761
vt 0.2887367 0.6778761
vt 0.2791882 0.6566372
vt 0.2887367 0.6566372
vt 0.3 0.6778761
vt 0.3 0.6566372

vn -0.3826843 0.9238791 0
vn -0.5555708 0.8314692 0
vn 0.5555702 0.8314696 0
vn 0.382684 0.9238793 0
vn 0 1 0

usemtl Default
f 3/3/1 4/4/2 2/2/2 1/1/1
f 7/7/3 8/8/4 6/6/4 5/5/3
f 8/8/4 10/10/5 9/9/5 6/6/4
f 10/10/5 3/3/1 1/1/1 9/9/5

