# ProBuilder 5.0.4
# https://unity3d.com/unity/features/worldbuilding/probuilder
# 6/22/2022 9:01:09 PM

mtllib ./Generic-Capacitor.mtl
o Generic-Capacitor

g Generic-Capacitor
v -0.25 -0.4798 0
v -0.25 0.5 0
v -0.2309704 -0.4798 0.09567261
v -0.2309699 0.5 0.09567086
v -0.1767769 -0.4798 0.1767731
v -0.1767767 0.5 0.1767767
v -0.0956707 -0.4798 0.2309723
v -0.09567086 0.5 0.2309699
v 0 -0.4798 0.25
v 1.092785E-08 0.5 0.25
v 0.0956707 -0.4798 0.2309723
v 0.09567085 0.5 0.2309699
v 0.1767769 -0.4798 0.1767731
v 0.1767767 0.5 0.1767767
v 0.2309704 -0.4798 0.09567261
v 0.2309699 0.5 0.09567087
v 0.25 -0.4798 0
v 0.25 0.5 -2.185569E-08
v 0.2309704 -0.4798 -0.09567261
v 0.2309699 0.5 -0.09567086
v 0.1767769 -0.4798 -0.1767731
v 0.1767767 0.5 -0.1767767
v 0.0956707 -0.4798 -0.2309723
v 0.09567089 0.5 -0.2309699
v 0 -0.4798 -0.25
v -2.98122E-09 0.5 -0.25
v -0.0956707 -0.4798 -0.2309723
v -0.0956709 0.5 -0.2309699
v -0.1767769 -0.4798 -0.1767731
v -0.1767767 0.5 -0.1767767
v -0.2309704 -0.4798 -0.09567261
v -0.2309699 0.5 -0.09567086
v 0 -0.4798 0
v -0.1768265 0.5100703 0.1768341
v -0.2310352 0.5100703 0.09570313
v -0.169733 0.5201924 0.1697388
v -0.2217674 0.5201924 0.09185791
v -0.0956974 0.5100703 0.2310333
v -0.09185982 0.5201924 0.2217712
v -0.2500706 0.5100703 0
v -0.2400379 0.5201924 0
v -0.2310352 0.5100703 -0.09570313
v -0.2217674 0.5201924 -0.09185791
v -0.1768265 0.5100703 -0.1768341
v -0.169733 0.5201924 -0.1697388
v -0.0956974 0.5100703 -0.2310333
v -0.09185982 0.5201924 -0.2217712
v 0 0.5100703 -0.2500763
v 0 0.5201924 -0.2400513
v 0.0956974 0.5100703 -0.2310333
v 0.09185982 0.5201924 -0.2217712
v 0.1768265 0.5100703 -0.1768341
v 0.169733 0.5201924 -0.1697388
v 0.2310352 0.5100703 -0.09570313
v 0.2217674 0.5201924 -0.09185791
v 0.2500706 0.5100703 0
v 0.2400379 0.5201924 0
v 0.2310352 0.5100703 0.09570313
v 0.2217674 0.5201924 0.09185791
v 0.1768265 0.5100703 0.1768341
v 0.169733 0.5201924 0.1697388
v 0.0956974 0.5100703 0.2310333
v 0.09185982 0.5201924 0.2217712
v 0 0.5100703 0.2500763
v 0 0.5201924 0.2400513
v 0 0.5202 0
v -0.1940465 0.5201933 0.08037567
v -0.2100332 0.5201933 0
v -0.1485164 0.5201933 0.1485214
v -0.08037734 0.5201933 0.1940498
v 0 0.5201933 0.2100449
v 0.08037734 0.5201933 0.1940498
v 0.1485164 0.5201933 0.1485214
v 0.1940465 0.5201933 0.08037567
v 0.2100332 0.5201933 0
v 0.1940465 0.5201933 -0.08037567
v 0.1485164 0.5201933 -0.1485214
v 0.08037734 0.5201933 -0.1940498
v 0 0.5201933 -0.2100449
v -0.08037734 0.5201933 -0.1940498
v -0.1485164 0.5201933 -0.1485214
v -0.1940465 0.5201933 -0.08037567

vt 0.2134171 0.2499981
vt 0.2134171 0.7398981
vt 0.2612534 0.2499981
vt 0.2612525 0.7398981
vt 0.3018036 0.2499981
vt 0.3018054 0.7398981
vt 0.1250248 0.2499981
vt 0.1250249 0.7398981
vt 0.1655779 0.2499981
vt 0.1655778 0.7398981
vt 0.05505005 0.1469161
vt 0.54495 0.1469162
vt 0.05505003 0.09999995
vt 0.54495 0.09999993
vt 0.05505005 0.05308377
vt 0.54495 0.05308368
vt 0.4760756 0.2499981
vt 0.4760756 0.7398981
vt 0.523911 0.2499981
vt 0.5239111 0.7398981
vt 0.675 0.5
vt 0.8 0.5
vt 0.6845148 0.5478363
vt 0.7116116 0.5883865
vt 0.7521647 0.6154861
vt 0.8 0.625
vt 0.8478354 0.6154861
vt 0.8883885 0.5883865
vt 0.9154852 0.5478363
vt 0.925 0.5
vt 0.9154852 0.4521637
vt 0.8883885 0.4116135
vt 0.8478354 0.3845139
vt 0.8 0.375
vt 0.7521647 0.3845139
vt 0.7116116 0.4116135
vt 0.6845148 0.4521637
vt 0.3334322 0.4584408
vt 0.3605366 0.4178753
vt 0.3298855 0.4548931
vt 0.3559027 0.4159527
vt 0.2928677 0.4855404
vt 0.2909489 0.4809093
vt 0.2612686 0.7449332
vt 0.2134171 0.7449332
vt 0.259346 0.7499943
vt 0.2134171 0.7499943
vt 0.1655655 0.7449332
vt 0.1674881 0.7499943
vt 0.3605366 0.3221722
vt 0.3334322 0.2816067
vt 0.3559027 0.3240948
vt 0.3298855 0.2851543
vt 0.2928677 0.2545071
vt 0.2909489 0.2591381
vt 0.5239244 0.7449332
vt 0.4760756 0.7449332
vt 0.5220056 0.7499943
vt 0.4760756 0.7499943
vt 0.1971703 0.2545071
vt 0.1566057 0.2816067
vt 0.1990891 0.2591381
vt 0.1601524 0.2851543
vt 0.1295013 0.3221722
vt 0.1341352 0.3240948
vt 0.1295013 0.4178753
vt 0.1566057 0.4584408
vt 0.1341352 0.4159527
vt 0.1601524 0.4548931
vt 0.1971703 0.4855404
vt 0.1990891 0.4809093
vt 0.125 0.7449332
vt 0.3018341 0.7449332
vt 0.8000001 0.8
vt 0.8970233 0.8401878
vt 0.9050167 0.8
vt 0.2970232 0.9176441
vt 0.3108836 0.9233852
vt 0.3200189 0.8774562
vt 0.3050165 0.8774562
vt 0.8742583 0.8742607
vt 0.2742581 0.951717
vt 0.2848665 0.9623256
vt 0.8401887 0.8970249
vt 0.2401886 0.9744812
vt 0.2459298 0.9883419
vt 0.8000001 0.9050224
vt 0.1999999 0.9824787
vt 0.1999999 0.9974819
vt 0.7598114 0.8970249
vt 0.1598113 0.9744812
vt 0.15407 0.9883419
vt 0.7257419 0.8742607
vt 0.1257417 0.951717
vt 0.1151334 0.9623256
vt 0.7029768 0.8401878
vt 0.1029767 0.9176441
vt 0.08911622 0.9233852
vt 0.6949835 0.8
vt 0.09498334 0.8774562
vt 0.07998097 0.8774562
vt 0.7029768 0.7598122
vt 0.1029767 0.8372684
vt 0.08911622 0.8315273
vt 0.7257419 0.7257393
vt 0.1257417 0.8031955
vt 0.1151334 0.7925869
vt 0.7598114 0.7029751
vt 0.1598113 0.7804313
vt 0.15407 0.7665706
vt 0.8000001 0.6949776
vt 0.1999999 0.7724338
vt 0.1999999 0.7574306
vt 0.5220056 0.2591381
vt 0.4760756 0.2650013
vt 0.5162643 0.2729988
vt 0.8401887 0.7029751
vt 0.2848665 0.7925869
vt 0.2459298 0.7665706
vt 0.2401886 0.7804313
vt 0.2742581 0.8031955
vt 0.8742583 0.7257393
vt 0.3108836 0.8315273
vt 0.2970232 0.8372684
vt 0.8970233 0.7598122

vn -0.700215 -0.713932 -1.47874E-06
vn -0.9999938 -0.003518698 -2.537259E-06
vn -0.6469091 -0.7139335 0.2679695
vn -0.9238724 -0.003623743 0.3826835
vn -0.4951358 -0.7139308 0.4951196
vn -0.7070992 -0.00366423 0.7071049
vn -0.2679602 -0.7139338 0.6469125
vn -0.3826872 -0.00350796 0.9238713
vn -4.191533E-06 -0.7139311 0.7002161
vn 6.616643E-06 -0.003693638 0.9999932
vn 0.267972 -0.7139341 0.6469073
vn 0.3826773 -0.003513819 0.9238754
vn 0.4951255 -0.713931 0.4951297
vn 0.7070999 -0.003751273 0.7071037
vn 0.646912 -0.7139333 0.2679628
vn 0.9238746 -0.003595446 0.3826786
vn 0.700215 -0.713932 1.489379E-06
vn 0.9999938 -0.003518769 2.552453E-06
vn 0.6469091 -0.7139335 -0.2679695
vn 0.9238724 -0.00362378 -0.3826835
vn 0.4951358 -0.7139308 -0.4951196
vn 0.7070993 -0.003663919 -0.7071048
vn 0.2679603 -0.7139338 -0.6469125
vn 0.3826874 -0.003507331 -0.9238713
vn 4.180894E-06 -0.7139311 -0.7002161
vn -6.692609E-06 -0.003693857 -0.9999932
vn -0.267972 -0.7139341 -0.6469073
vn -0.3826774 -0.003514141 -0.9238754
vn -0.4951254 -0.713931 -0.4951297
vn -0.7070999 -0.003751118 -0.7071038
vn -0.646912 -0.7139333 -0.2679628
vn -0.9238745 -0.003595143 -0.3826786
vn 0 -1 0
vn -0.6543421 0.3789627 0.654388
vn -0.8549027 0.3791517 0.3540977
vn -0.2706984 0.9238215 0.2706957
vn -0.3536829 0.9238238 0.1464857
vn -0.3541344 0.3790436 0.8549355
vn -0.146554 0.9237634 0.3538122
vn -0.9253112 0.3792087 -1.592505E-06
vn -0.3828453 0.9238125 -6.489351E-08
vn -0.8549071 0.3791404 -0.3540995
vn -0.3536941 0.923818 -0.1464952
vn -0.6543116 0.3790967 -0.6543409
vn -0.2707309 0.9237986 -0.2707415
vn -0.3541077 0.3790945 -0.854924
vn -0.1465832 0.9237444 -0.3538496
vn -1.018968E-05 0.378874 -0.9254482
vn -1.407499E-06 0.9237432 -0.3830123
vn 0.3541344 0.379044 -0.8549354
vn 0.146554 0.9237634 -0.3538122
vn 0.6543422 0.3789627 -0.654388
vn 0.2706984 0.9238215 -0.2706957
vn 0.8549028 0.3791517 -0.3540977
vn 0.3536829 0.9238238 -0.1464857
vn 0.9253112 0.3792086 1.592505E-06
vn 0.3828453 0.9238125 6.489351E-08
vn 0.8549072 0.3791402 0.3540995
vn 0.3536941 0.923818 0.1464952
vn 0.6543116 0.3790967 0.6543409
vn 0.2707309 0.9237986 0.2707415
vn 0.3541077 0.3790946 0.854924
vn 0.1465832 0.9237444 0.3538496
vn 1.01774E-05 0.3788739 0.9254483
vn 1.407499E-06 0.9237432 0.3830123
vn 0 1 3.410605E-13

usemtl Capacitor-Type-0
f 1/21/1 33/22/33 3/23/3
f 3/23/3 33/22/33 5/24/5
f 5/24/5 33/22/33 7/25/7
f 7/25/7 33/22/33 9/26/9
f 9/26/9 33/22/33 11/27/11
f 11/27/11 33/22/33 13/28/13
f 13/28/13 33/22/33 15/29/15
f 15/29/15 33/22/33 17/30/17
f 17/30/17 33/22/33 19/31/19
f 19/31/19 33/22/33 21/32/21
f 21/32/21 33/22/33 23/33/23
f 23/33/23 33/22/33 25/34/25
f 25/34/25 33/22/33 27/35/27
f 27/35/27 33/22/33 29/36/29
f 29/36/29 33/22/33 31/37/31
f 31/37/31 33/22/33 1/21/1
f 72/90/66 73/93/66 66/74/66
f 73/93/66 74/96/66 66/74/66
f 71/87/66 72/90/66 66/74/66
f 70/84/66 71/87/66 66/74/66
f 69/81/66 70/84/66 66/74/66
f 67/75/66 69/81/66 66/74/66
f 67/75/66 66/74/66 68/76/66
f 66/74/66 74/96/66 75/99/66
f 68/76/66 66/74/66 82/125/66
f 75/99/66 76/102/66 66/74/66
f 76/102/66 77/105/66 66/74/66
f 77/105/66 78/108/66 66/74/66
f 78/108/66 79/111/66 66/74/66
f 66/74/66 79/111/66 80/117/66
f 66/74/66 80/117/66 81/122/66
f 66/74/66 81/122/66 82/125/66
f 4/4/4 2/2/2 1/1/1
f 1/1/1 3/3/3 4/4/4
f 6/6/6 4/4/4 3/3/3
f 3/3/3 5/5/5 6/6/6
f 8/10/8 6/8/6 5/7/5
f 5/7/5 7/9/7 8/10/8
f 10/14/10 8/12/8 7/11/7
f 7/11/7 9/13/9 10/14/10
f 12/16/12 10/14/10 9/13/9
f 9/13/9 11/15/11 12/16/12
f 14/6/14 12/4/12 11/3/11
f 11/3/11 13/5/13 14/6/14
f 16/10/16 14/8/14 13/7/13
f 13/7/13 15/9/15 16/10/16
f 18/2/18 16/10/16 15/9/15
f 15/9/15 17/1/17 18/2/18
f 20/4/20 18/2/18 17/1/17
f 17/1/17 19/3/19 20/4/20
f 22/6/22 20/4/20 19/3/19
f 19/3/19 21/5/21 22/6/22
f 24/10/24 22/8/22 21/7/21
f 21/7/21 23/9/23 24/10/24
f 26/2/26 24/10/24 23/9/23
f 23/9/23 25/1/25 26/2/26
f 28/20/28 26/18/26 25/17/25
f 25/17/25 27/19/27 28/20/28
f 30/6/30 28/4/28 27/3/27
f 27/3/27 29/5/29 30/6/30
f 32/10/32 30/8/30 29/7/29
f 29/7/29 31/9/31 32/10/32
f 2/2/2 32/10/32 31/9/31
f 31/9/31 1/1/1 2/2/2
f 37/41/37 35/39/35 34/38/34
f 34/38/34 36/40/36 37/41/37
f 36/40/36 34/38/34 38/42/38
f 38/42/38 39/43/39 36/40/36
f 41/47/41 40/45/40 35/44/35
f 35/44/35 37/46/37 41/47/41
f 43/49/43 42/48/42 40/45/40
f 40/45/40 41/47/41 43/49/43
f 45/53/45 44/51/44 42/50/42
f 42/50/42 43/52/43 45/53/45
f 47/55/47 46/54/46 44/51/44
f 44/51/44 45/53/45 47/55/47
f 49/59/49 48/57/48 46/56/46
f 46/56/46 47/58/47 49/59/49
f 51/49/51 50/48/50 48/45/48
f 48/45/48 49/47/49 51/49/51
f 53/63/53 52/61/52 50/60/50
f 50/60/50 51/62/51 53/63/53
f 55/65/55 54/64/54 52/61/52
f 52/61/52 53/63/53 55/65/55
f 57/47/57 56/45/56 54/44/54
f 54/44/54 55/46/55 57/47/57
f 59/49/59 58/48/58 56/45/56
f 56/45/56 57/47/57 59/49/59
f 61/69/61 60/67/60 58/66/58
f 58/66/58 59/68/59 61/69/61
f 63/71/63 62/70/62 60/67/60
f 60/67/60 61/69/61 63/71/63
f 65/47/65 64/45/64 62/44/62
f 62/44/62 63/46/63 65/47/65
f 39/49/39 38/48/38 64/45/64
f 64/45/64 65/47/65 39/49/39
f 38/48/38 8/10/8 10/2/10
f 10/2/10 64/45/64 38/48/38
f 34/72/34 6/8/6 8/10/8
f 8/10/8 38/48/38 34/72/34
f 35/44/35 4/4/4 6/6/6
f 6/6/6 34/73/34 35/44/35
f 40/45/40 2/2/2 4/4/4
f 4/4/4 35/44/35 40/45/40
f 42/48/42 32/10/32 2/2/2
f 2/2/2 40/45/40 42/48/42
f 44/72/44 30/8/30 32/10/32
f 32/10/32 42/48/42 44/72/44
f 46/44/46 28/4/28 30/6/30
f 30/6/30 44/73/44 46/44/46
f 48/57/48 26/18/26 28/20/28
f 28/20/28 46/56/46 48/57/48
f 50/48/50 24/10/24 26/2/26
f 26/2/26 48/45/48 50/48/50
f 52/72/52 22/8/22 24/10/24
f 24/10/24 50/48/50 52/72/52
f 54/44/54 20/4/20 22/6/22
f 22/6/22 52/73/52 54/44/54
f 56/45/56 18/2/18 20/4/20
f 20/4/20 54/44/54 56/45/56
f 58/48/58 16/10/16 18/2/18
f 18/2/18 56/45/56 58/48/58
f 60/72/60 14/8/14 16/10/16
f 16/10/16 58/48/58 60/72/60
f 62/44/62 12/4/12 14/6/14
f 14/6/14 60/73/60 62/44/62
f 64/45/64 10/2/10 12/4/12
f 12/4/12 62/44/62 64/45/64
f 37/78/37 67/77/66 68/80/66
f 68/80/66 41/79/41 37/78/37
f 36/83/36 69/82/66 67/77/66
f 67/77/66 37/78/37 36/83/36
f 39/86/39 70/85/66 69/82/66
f 69/82/66 36/83/36 39/86/39
f 65/89/65 71/88/66 70/85/66
f 70/85/66 39/86/39 65/89/65
f 65/89/65 63/92/63 72/91/66
f 72/91/66 71/88/66 65/89/65
f 63/92/63 61/95/61 73/94/66
f 73/94/66 72/91/66 63/92/63
f 61/95/61 59/98/59 74/97/66
f 74/97/66 73/94/66 61/95/61
f 59/98/59 57/101/57 75/100/66
f 75/100/66 74/97/66 59/98/59
f 57/101/57 55/104/55 76/103/66
f 76/103/66 75/100/66 57/101/57
f 55/104/55 53/107/53 77/106/66
f 77/106/66 76/103/66 55/104/55
f 53/107/53 51/110/51 78/109/66
f 78/109/66 77/106/66 53/107/53
f 51/110/51 49/113/49 79/112/66
f 79/112/66 78/109/66 51/110/51
f 79/115/66 49/17/49 47/114/47
f 47/114/47 80/116/66 79/115/66
f 80/120/66 47/119/47 45/118/45
f 45/118/45 81/121/66 80/120/66
f 81/121/66 45/118/45 43/123/43
f 43/123/43 82/124/66 81/121/66
f 68/80/66 82/124/66 43/123/43
f 43/123/43 41/79/41 68/80/66

