# ProBuilder 5.0.4
# https://unity3d.com/unity/features/worldbuilding/probuilder
# 7/4/2022 1:33:03 AM

mtllib ./Door-Type-2-Top.mtl
o Door-Type-2-Top

g Door-Type-2-Top
v 0.05000079 -9.536743E-07 -1.25
v -0.04999924 9.536743E-07 -1.25
v 0.05000114 -1.250101 -1.25
v -0.04999924 -1.250099 -1.25
v -0.04999924 9.536743E-07 1.25
v 0.05000079 -9.536743E-07 1.25
v -0.04999924 -1.250099 1.25
v 0.05000114 -1.250101 1.25
v -0.04999924 -1.750099 -0.416667
v -0.04999924 -1.750099 0.416667
v -0.04999924 -1.750099 0
v 0.05000114 -1.750101 -0.416667
v 0.05000114 -1.750101 0
v 0.05000114 -1.750101 0.416667
v -0.01666577 -1.750099 -0.416667
v 0.01666769 -1.7501 -0.416667
v 0.01666769 -1.7501 0.416667
v -0.01666577 -1.7501 0.416667
v 0.01666769 -1.7501 0.277778
v -0.01666577 -1.750099 0.277778
v 0.01666832 -1.9502 0.2777777
v 0.01666832 -1.9502 0.1388893
v -0.01666641 -1.950199 0.1388893
v -0.01666641 -1.950199 0.2777777
v 0.01666769 -1.7501 0.138889
v 0.01666769 -1.7501 0
v -0.01666577 -1.750099 0
v -0.01666577 -1.750099 0.138889
v 0.01666769 -1.7501 -0.277778
v 0.01666769 -1.7501 -0.138889
v -0.01666577 -1.750099 -0.138889
v -0.01666577 -1.750099 -0.277778
v 0.01666832 -1.9502 -0.1388893
v 0.01666832 -1.9502 -0.2777777
v -0.01666641 -1.950199 -0.2777777
v -0.01666641 -1.950199 -0.1388893
v 0.05285454 -0.2500007 0.75
v 0.05285454 -0.2500007 -0.75
v 0.05285454 -1.500101 0
v 0.05285454 -1.500101 -0.416667
v 0.05285454 -1.500101 -0.75
v 0.05285454 -1.500101 0.416667
v 0.05285454 -1.500101 0.75
v -0.05639458 -0.249999 0.75
v -0.05639458 -1.500099 0.75
v -0.05639458 -1.500099 0.416667
v -0.05639458 -1.500099 0
v -0.05639458 -1.500099 -0.416667
v -0.05639458 -1.500099 -0.75
v -0.05639458 -0.249999 -0.75

vt 0.06666679 0.5867288
vt 0.09333345 0.5867293
vt 0.06666669 0.2533689
vt 0.09333345 0.2533694
vt 0.4888888 0.4666535
vt 0.2666667 0.5999868
vt 0.2666667 0.9333468
vt 0.9333334 0.9333468
vt 0.9333334 0.5999868
vt 0.7111112 0.4666535
vt 0.6 0.4666535
vt 0.06666915 0.2888979
vt 0.07555725 0.2888979
vt 0.08444535 0.2888979
vt 0.09333345 0.2888979
vt 0.09333099 0.06667567
vt 0.06666669 0.06667566
vt 0.06666926 0.5111202
vt 0.06666669 0.7333424
vt 0.09333088 0.7333424
vt 0.09333345 0.5111202
vt 0.08444539 0.5111202
vt 0.07555733 0.5111202
vt 0.08444461 0.4740831
vt 0.07555565 0.4740831
vt 0.08444473 0.4370462
vt 0.07555547 0.4370462
vt 0.08444461 0.400009
vt 0.07555565 0.400009
vt 0.09333345 0.400009
vt 0.08444461 0.3259349
vt 0.08444461 0.362972
vt 0.07555566 0.362972
vt 0.07555566 0.3259349
vt 0.06666669 0.400009
vt 0.4370371 0.1200357
vt 0.4740741 0.1200357
vt 0.4370372 0.06667566
vt 0.474074 0.06667566
vt 0.07555564 0.1200359
vt 0.08444457 0.1200357
vt 0.07555547 0.0666759
vt 0.08444472 0.06667572
vt 0.325926 0.1200538
vt 0.362989 0.1200357
vt 0.3259 0.06667566
vt 0.3629629 0.06665754
vt 5.960464E-08 0.9167
vt 1 0.9167
vt 0.5000001 0.08330005
vt 0.777778 0.08330011
vt 1 0.08329996
vt 0.2222221 0.08330005
vt 5.960464E-08 0.08330005

vn 0 0 -1
vn 0 0 1
vn -1 0 0
vn 1 2.315912E-07 -5.721591E-08
vn -1.226648E-05 -0.8574928 -0.5144959
vn -1.533311E-05 -0.8574928 0.5144959
vn -2.145759E-05 -1 -8.583058E-07

usemtl Door-Type-2-Top
f 10/10/3 7/9/3 5/8/3
f 11/11/3 10/10/3 5/8/3
f 2/7/3 4/6/3 9/5/3
f 2/7/3 9/5/3 11/11/3
f 5/8/3 2/7/3 11/11/3
f 13/11/4 1/8/4 6/7/4
f 13/11/4 12/10/4 1/8/4
f 12/10/4 3/9/4 1/8/4
f 6/7/4 14/5/4 13/11/4
f 6/7/4 8/6/4 14/5/4
f 17/22/6 14/21/6 8/20/6
f 18/23/6 17/22/6 8/20/6
f 7/19/6 18/23/6 8/20/6
f 7/19/6 10/18/6 18/23/6
f 3/16/5 12/15/5 16/14/5
f 3/16/5 16/14/5 15/13/5
f 4/17/5 3/16/5 15/13/5
f 4/17/5 15/13/5 9/12/5
f 19/24/7 14/21/7 17/22/7
f 13/30/7 14/21/7 19/24/7
f 25/26/7 13/30/7 19/24/7
f 25/26/7 26/28/7 13/30/7
f 30/32/7 13/30/7 26/28/7
f 29/31/7 13/30/7 30/32/7
f 12/15/7 13/30/7 29/31/7
f 16/14/7 12/15/7 29/31/7
f 20/25/7 18/23/7 10/18/7
f 11/35/7 20/25/7 10/18/7
f 11/35/7 28/27/7 20/25/7
f 11/35/7 27/29/7 28/27/7
f 31/33/7 27/29/7 11/35/7
f 9/12/7 31/33/7 11/35/7
f 9/12/7 32/34/7 31/33/7
f 9/12/7 15/13/7 32/34/7
f 4/4/1 2/2/1 1/1/1
f 1/1/1 3/3/1 4/4/1
f 8/4/2 6/2/2 5/1/2
f 5/1/2 7/3/2 8/4/2
f 20/25/7 19/24/7 17/22/7
f 17/22/7 18/23/7 20/25/7
f 23/27/7 22/26/7 21/24/7
f 21/24/7 24/25/7 23/27/7
f 25/26/7 28/27/7 27/29/7
f 27/29/7 26/28/7 25/26/7
f 30/32/7 26/28/7 27/29/7
f 27/29/7 31/33/7 30/32/7
f 35/34/7 34/31/7 33/32/7
f 33/32/7 36/33/7 35/34/7
f 15/13/7 16/14/7 29/31/7
f 29/31/7 32/34/7 15/13/7
f 34/39/4 29/37/4 30/36/4
f 30/36/4 33/38/4 34/39/4
f 33/43/2 30/41/2 31/40/2
f 31/40/2 36/42/2 33/43/2
f 35/43/1 32/41/1 29/40/1
f 29/40/1 34/42/1 35/43/1
f 36/47/3 31/45/3 32/44/3
f 32/44/3 35/46/3 36/47/3
f 22/47/4 25/45/4 19/44/4
f 19/44/4 21/46/4 22/47/4
f 23/43/1 28/41/1 25/40/1
f 25/40/1 22/42/1 23/43/1
f 24/39/3 20/37/3 28/36/3
f 28/36/3 23/38/3 24/39/3
f 21/43/2 19/41/2 20/40/2
f 20/40/2 24/42/2 21/43/2

usemtl SCP-Logo
f 39/50/4 38/49/4 37/48/4
f 39/50/4 40/51/4 38/49/4
f 40/51/4 41/52/4 38/49/4
f 37/48/4 42/53/4 39/50/4
f 37/48/4 43/54/4 42/53/4
f 46/51/3 45/52/3 44/49/3
f 47/50/3 46/51/3 44/49/3
f 50/48/3 49/54/3 48/53/3
f 50/48/3 48/53/3 47/50/3
f 44/49/3 50/48/3 47/50/3

