# ProBuilder 5.0.6
# https://unity3d.com/unity/features/worldbuilding/probuilder
# 12/18/2022 3:21:51 AM

mtllib ./XOLOTL-79-Lower-Hull.mtl
o XOLOTL-79-Lower-Hull

g XOLOTL-79-Lower-Hull
v -0.25 -0.125 0.4330127
v -0.5 -0.125 0
v -0.25 0.125 0.4330127
v -0.5 0.125 0
v -0.18453 -0.125 1.986821E-09
v -0.09226497 -0.125 0.1598077
v -0.18453 0.125 1.986821E-09
v -0.09226497 0.125 0.1598077
v 0.25 -0.125 0.4330127
v 0.25 0.125 0.4330127
v 0.09226498 -0.125 0.1598076
v 0.09226498 0.125 0.1598076
v 0.5 -0.125 -4.371139E-08
v 0.5 0.125 -4.371139E-08
v 0.18453 -0.125 -1.827955E-08
v 0.18453 0.125 -1.827955E-08
v 0.25 -0.125 -0.4330127
v 0.25 0.125 -0.4330127
v 0.09226495 -0.125 -0.1598077
v 0.09226495 0.125 -0.1598077
v -0.25 -0.125 -0.4330127
v -0.25 0.125 -0.4330127
v -0.09226495 -0.125 -0.1598077
v -0.09226495 0.125 -0.1598077
v -0.3 -0.125 0
v -0.15 -0.125 0.2598076
v -0.15 0.125 0.2598076
v -0.3 0.125 0
v 0.15 -0.125 0.2598076
v 0.15 0.125 0.2598076
v 0.3 -0.125 -2.622683E-08
v 0.3 0.125 -2.622683E-08
v 0.15 -0.125 -0.2598076
v 0.15 0.125 -0.2598076
v -0.15 -0.125 -0.2598076
v -0.15 0.125 -0.2598076
v 0.3 -0.275 -2.622683E-08
v 0.15 -0.275 -0.2598076
v 0.242265 -0.275 -2.225319E-08
v 0.1211325 -0.275 -0.2098076
v 0.3 0.325 -2.622683E-08
v 0.15 0.325 0.2598076
v 0.242265 0.325 -2.225319E-08
v 0.1211325 0.325 0.2098076
v 0.15 0.275 -0.2598076
v 0.3 0.275 -2.622683E-08
v 0.1211325 0.275 -0.2098076
v 0.242265 0.275 -2.225319E-08
v 0.15 -0.425 -0.2598076
v -0.15 -0.425 -0.2598076
v 0.1211325 -0.425 -0.2098076
v -0.1211325 -0.425 -0.2098076
v -0.15 0.325 -0.2598076
v 0.15 0.325 -0.2598076
v -0.1211325 0.325 -0.2098076
v 0.1211325 0.325 -0.2098076
v -0.15 -0.275 -0.2598076
v -0.3 -0.275 0
v -0.1211325 -0.275 -0.2098076
v -0.242265 -0.275 1.986821E-09
v -0.3 0.275 0
v -0.15 0.275 -0.2598076
v -0.242265 0.275 1.986821E-09
v -0.1211325 0.275 -0.2098076
v -0.3 -0.425 0
v -0.15 -0.425 0.2598076
v -0.242265 -0.425 0
v -0.1211325 -0.425 0.2098077
v -0.15 0.325 0.2598076
v -0.3 0.325 0
v -0.1211325 0.325 0.2098076
v -0.242265 0.325 1.986821E-09
v -0.15 -0.275 0.2598076
v 0.15 -0.275 0.2598076
v -0.1211325 -0.275 0.2098076
v 0.1211325 -0.275 0.2098076
v 0.15 0.275 0.2598076
v -0.15 0.275 0.2598076
v 0.1211325 0.275 0.2098076
v -0.1211325 0.275 0.2098076
v 0.15 -0.425 0.2598076
v 0.3 -0.425 -2.980232E-08
v 0.1211325 -0.425 0.2098076
v 0.242265 -0.425 -1.490116E-08
v 0.18453 -0.275 -1.827955E-08
v 0.09226495 -0.275 -0.1598077
v 0.18453 0.275 -1.827955E-08
v 0.09226498 0.275 0.1598076
v 0.09226495 0.275 -0.1598077
v -0.09226495 -0.275 -0.1598077
v -0.09226495 0.275 -0.1598077
v -0.18453 -0.275 1.986821E-09
v -0.18453 0.275 1.986821E-09
v -0.09226497 -0.275 0.1598077
v -0.09226497 0.275 0.1598077
v 0.09226498 -0.275 0.1598076
v 0.3866026 0.125 0.04999997
v 0.2366025 0.125 0.3098076
v 0.3866026 0.275 0.04999997
v 0.2366025 0.275 0.3098076
v -0.2366025 0.125 0.3098077
v -0.3866026 0.125 0.05000001
v -0.2366025 0.275 0.3098077
v -0.3866026 0.275 0.05
v -0.15 0.125 -0.3598076
v 0.15 0.125 -0.3598076
v -0.15 0.275 -0.3598076
v 0.15 0.275 -0.3598076
v 0.2366025 -0.125 0.3098076
v 0.3866026 -0.125 0.04999997
v 0.2366025 -0.275 0.3098076
v 0.3866026 -0.275 0.04999997
v 0.15 -0.125 -0.3598076
v -0.15 -0.125 -0.3598076
v 0.15 -0.275 -0.3598076
v -0.15 -0.275 -0.3598076
v -0.3866026 -0.125 0.05000001
v -0.2366025 -0.125 0.3098077
v -0.3866026 -0.275 0.05000001
v -0.2366025 -0.275 0.3098077
v 0.3866026 0.325 0.04999997
v 0.2366025 0.325 0.3098076
v -0.15 0.325 -0.3598076
v 0.15 0.325 -0.3598076
v -0.2366025 0.325 0.3098077
v -0.3866026 0.325 0.05

vt 0.3464101 0.85
vt 0.173205 0.85
vt 0.3464101 0.95
vt 0.173205 0.95
vt 0.1732052 0.55
vt 0.1092821 0.55
vt 0.1732052 0.65
vt 0.1092821 0.65
vt 0.2 0.85
vt -2.980232E-08 0.85
vt 0.2 0.95
vt -2.980232E-08 0.95
vt 0.1915471 0.55
vt 0.1177351 0.55
vt 0.1915471 0.65
vt 0.1177351 0.65
vt 0.2371282 0.55
vt 0.2371282 0.65
vt 0.2546409 0.85
vt 0.05464098 0.85
vt 0.2546409 0.95
vt 0.05464098 0.95
vt 0.1369061 0.55
vt 0.06309412 0.55
vt 0.1369061 0.65
vt 0.06309412 0.65
vt 0.6000001 0.8
vt 0.7 0.9732051
vt 0.6800001 0.8
vt 0.74 0.903923
vt 0.9 0.9732051
vt 1 0.8
vt 0.86 0.903923
vt 0.92 0.8
vt 0.86 0.903923
vt 0.6999999 0.9732051
vt 0.7399999 0.903923
vt 0.9999999 0.8
vt 0.92 0.8
vt 0.5999999 0.8
vt 0.6799999 0.8
vt 0.9 0.6267949
vt 0.86 0.696077
vt 0.6999999 0.6267948
vt 0.7399999 0.6960769
vt 0.7 0.6267949
vt 0.74 0.696077
vt 0.86 0.6960769
vt 0.9199998 0.21
vt 0.8599998 0.1060769
vt 0.8969058 0.21
vt 0.8484528 0.126077
vt 0.6800001 0.21
vt 0.7400001 0.313923
vt 0.7030941 0.21
vt 0.7515471 0.2939231
vt 0.7400001 0.106077
vt 0.7515472 0.126077
vt 0.7399999 0.106077
vt 0.8600001 0.106077
vt 0.6799999 0.2100001
vt 0.7030939 0.2100001
vt 0.9200001 0.21
vt 0.7399999 0.3139231
vt 0.8600001 0.3139231
vt 0.8484531 0.2939231
vt 0.8599999 0.3139231
vt 0.8738118 0.21
vt 0.8369058 0.1460769
vt 0.7261881 0.21
vt 0.7630941 0.273923
vt 0.7630941 0.1460769
vt 0.8369061 0.273923
vt 0.1519615 0.07
vt 0.04803848 0.07
vt 0.1519615 0.13
vt 0.04803848 0.13
vt 0.2371282 0.71
vt 0.1732052 0.71
vt 0.1915471 0.71
vt 0.1177351 0.71
vt 0.3519 0.06999999
vt 0.2481 0.06999999
vt 0.3519 0.13
vt 0.2481 0.13
vt 0.1092821 0.71
vt 0.1369061 0.71
vt 0.06309412 0.71
vt 0.1525 0.07000001
vt 0.0475 0.07000001
vt 0.1525 0.13
vt 0.0475 0.13
vt 0.44 0.23
vt 0.56 0.23
vt 0.44 0.17
vt 0.56 0.17
vt 0.1732052 0.49
vt 0.2371282 0.49
vt 0.1177351 0.49
vt 0.1915471 0.49
vt 0.4480385 0.503852
vt 0.5519615 0.503852
vt 0.4480385 0.4464265
vt 0.5519615 0.4464265
vt 0.4480385 0.23
vt 0.5519615 0.23
vt 0.4480385 0.17
vt 0.5519615 0.17
vt 0.1092821 0.49
vt 0.5520209 0.503928
vt 0.06309412 0.49
vt 0.1369061 0.49
vt 0.1519615 0.19
vt 0.04803845 0.19
vt 0.1519615 0.21
vt 0.04803845 0.21
vt 0.05773504 0.3067949
vt 0.03464101 0.3067949
vt 0.05773504 0.3267949
vt 0.03464101 0.3267949
vt 0.2771281 0.3067949
vt 0.2571281 0.3067949
vt 0.2771281 0.3267949
vt 0.2571281 0.3267949
vt 0.3419615 0.19
vt 0.2580385 0.19
vt 0.3419615 0.21
vt 0.2580385 0.21
vt 0.16 0.19
vt 0.04000003 0.19
vt 0.16 0.21
vt 0.04000003 0.21
vt 0.08928205 0.3067949
vt 0.06928201 0.3067949
vt 0.08928205 0.3267949
vt 0.06928201 0.3267949
vt 0.3423964 0.19
vt 0.2576036 0.19
vt 0.3423964 0.21
vt 0.2576036 0.21
vt 0.274641 0.3067949
vt 0.251547 0.3067949
vt 0.274641 0.3267949
vt 0.251547 0.3267949
vt 0.4479791 0.3774129
vt 0.5519591 0.3773621
vt 0.8985641 0.53
vt 0.9185641 0.53
vt 0.8985641 0.47
vt 0.710718 0.53
vt 0.730718 0.53
vt 0.730718 0.47
vt 0.692983 0.53
vt 0.7898889 0.53
vt 0.692983 0.47
vt 0.7898889 0.47
vt 0.4480385 0.3774096
vt 0.6760769 0.53
vt 0.699171 0.53
vt 0.699171 0.47
vt 0.8146411 0.53
vt 0.8146411 0.47
vt 0.892983 0.53
vt 0.916077 0.53
vt 0.892983 0.47
vt 0.38 0.4
vt 0.38 0.46
vt 0.42 0.4
vt 0.42 0.46
vt 0.38 0.34
vt 0.42 0.34
vt 0.3826796 0.4
vt 0.3826796 0.46
vt 0.4173205 0.4
vt 0.4173205 0.46
vt 0.3826796 0.34
vt 0.4173205 0.34
vt 0.4173205 0.62
vt 0.4173205 0.56
vt 0.3826795 0.62
vt 0.3826795 0.56
vt 0.4173205 0.64
vt 0.3826795 0.64
vt 0.7053591 0.333923
vt 0.6453591 0.23
vt 0.42 0.62
vt 0.42 0.56
vt 0.38 0.62
vt 0.38 0.56
vt 0.38 0.56
vt 0.38 0.62
vt 0.42 0.56
vt 0.42 0.62
vt 0.42 0.64
vt 0.38 0.64
vt 0.38 0.64
vt 0.42 0.64
vt 0.7400001 0.06607696
vt 0.8600001 0.06607696
vt 0.9546412 0.23
vt 0.8946412 0.333923

vn -0.8660254 0 0.5
vn 0.8660254 0 -0.5
vn 5.960464E-08 0 1
vn -1.61504E-07 0 -1
vn 0.8660254 0 0.4999999
vn -0.8660254 0 -0.5
vn 0.8660254 0 0.5000001
vn 0 -1 0
vn 0 1 0
vn 0 -0.5547001 -0.8320503
vn 0.7205767 -0.5547001 0.4160252
vn -0.8660254 -2.483527E-08 0.4999999
vn -0.8660254 -2.450676E-08 -0.5
vn -0.7205767 -0.5547002 0.4160252
vn 0.8660254 6.622737E-09 -0.5
vn 1 0 0
vn -1 0 0
vn -0.5000001 0 -0.8660254
vn 0.5000001 0 0.8660253
vn -0.4999999 0 0.8660255
vn 0.5 0 -0.8660254
vn 0.5 0 -0.8660254
vn -0.5 -8.603188E-08 0.8660254

usemtl Default
f 49/170/16 115/168/16 38/166/16
f 116/166/17 50/171/17 57/168/17
f 65/176/18 119/174/18 58/172/18
f 120/172/19 66/177/19 73/174/19
f 81/176/20 111/174/20 74/172/20
f 112/172/21 82/177/21 37/174/21
f 4/4/1 2/2/1 1/1/1
f 1/1/1 3/3/1 4/4/1
f 8/8/2 6/6/2 5/5/2
f 5/5/2 7/7/2 8/8/2
f 3/12/3 1/10/3 9/9/3
f 9/9/3 10/11/3 3/12/3
f 12/16/4 11/14/4 6/13/4
f 6/13/4 8/15/4 12/16/4
f 10/12/5 9/10/5 13/2/5
f 13/2/5 14/4/5 10/12/5
f 16/7/6 15/5/6 11/17/6
f 11/17/6 12/18/6 16/7/6
f 14/4/2 13/2/2 17/1/2
f 17/1/2 18/3/2 14/4/2
f 20/8/1 19/6/1 15/5/1
f 15/5/1 16/7/1 20/8/1
f 18/22/4 17/20/4 21/19/4
f 21/19/4 22/21/4 18/22/4
f 24/26/3 23/24/3 19/23/3
f 19/23/3 20/25/3 24/26/3
f 22/12/6 21/10/6 2/2/6
f 2/2/6 4/4/6 22/12/6
f 7/7/7 5/5/7 23/17/7
f 23/17/7 24/18/7 7/7/7
f 26/30/8 1/28/8 2/27/8
f 2/27/8 25/29/8 26/30/8
f 28/34/9 4/32/9 3/31/9
f 3/31/9 27/33/9 28/34/9
f 29/35/8 9/31/8 1/28/8
f 1/28/8 26/30/8 29/35/8
f 27/33/9 3/31/9 10/36/9
f 10/36/9 30/37/9 27/33/9
f 31/39/8 13/38/8 9/31/8
f 9/31/8 29/35/8 31/39/8
f 30/37/9 10/36/9 14/40/9
f 14/40/9 32/41/9 30/37/9
f 33/43/8 17/42/8 13/38/8
f 13/38/8 31/39/8 33/43/8
f 32/41/9 14/40/9 18/44/9
f 18/44/9 34/45/9 32/41/9
f 35/47/8 21/46/8 17/42/8
f 17/42/8 33/43/8 35/47/8
f 34/45/9 18/44/9 22/42/9
f 22/42/9 36/48/9 34/45/9
f 25/29/8 2/27/8 21/46/8
f 21/46/8 35/47/8 25/29/8
f 36/48/9 22/42/9 4/32/9
f 4/32/9 28/34/9 36/48/9
f 40/52/8 38/50/8 37/49/8
f 37/49/8 39/51/8 40/52/8
f 44/56/9 42/54/9 41/53/9
f 41/53/9 43/55/9 44/56/9
f 48/55/9 46/53/9 45/57/9
f 45/57/9 47/58/9 48/55/9
f 52/58/8 50/59/8 49/50/8
f 49/50/8 51/52/8 52/58/8
f 56/58/9 54/57/9 53/60/9
f 53/60/9 55/52/9 56/58/9
f 60/62/8 58/61/8 57/59/8
f 57/59/8 59/58/8 60/62/8
f 64/52/9 62/60/9 61/63/9
f 61/63/9 63/51/9 64/52/9
f 68/56/8 66/64/8 65/61/8
f 65/61/8 67/62/8 68/56/8
f 72/51/9 70/63/9 69/65/9
f 69/65/9 71/66/9 72/51/9
f 76/66/8 74/67/8 73/64/8
f 73/64/8 75/56/8 76/66/8
f 80/66/9 78/65/9 77/54/9
f 77/54/9 79/56/9 80/66/9
f 84/51/8 82/49/8 81/67/8
f 81/67/8 83/66/8 84/51/8
f 86/69/8 40/52/8 39/51/8
f 39/51/8 85/68/8 86/69/8
f 88/71/9 79/56/9 48/55/9
f 48/55/9 87/70/9 88/71/9
f 87/70/9 48/55/9 47/58/9
f 47/58/9 89/72/9 87/70/9
f 90/72/8 59/58/8 40/52/8
f 40/52/8 86/69/8 90/72/8
f 89/72/9 47/58/9 64/52/9
f 64/52/9 91/69/9 89/72/9
f 92/70/8 60/62/8 59/58/8
f 59/58/8 90/72/8 92/70/8
f 91/69/9 64/52/9 63/51/9
f 63/51/9 93/68/9 91/69/9
f 94/71/8 75/56/8 60/62/8
f 60/62/8 92/70/8 94/71/8
f 93/68/9 63/51/9 80/66/9
f 80/66/9 95/73/9 93/68/9
f 96/73/8 76/66/8 75/56/8
f 75/56/8 94/71/8 96/73/8
f 95/73/9 80/66/9 79/56/9
f 79/56/9 88/71/9 95/73/9
f 85/68/8 39/51/8 76/66/8
f 76/66/8 96/73/8 85/68/8
f 100/77/5 98/75/7 97/74/7
f 97/74/7 99/76/7 100/77/5
f 87/79/6 16/7/6 12/18/6
f 12/18/6 88/78/6 87/79/6
f 104/77/1 102/75/1 101/74/1
f 101/74/1 103/76/1 104/77/1
f 88/81/4 12/16/4 8/15/4
f 8/15/4 95/80/4 88/81/4
f 78/85/3 27/83/3 30/82/3
f 30/82/3 77/84/3 78/85/3
f 89/86/1 20/8/1 16/7/1
f 16/7/1 87/79/1 89/86/1
f 91/88/3 24/26/3 20/25/3
f 20/25/3 89/87/3 91/88/3
f 46/85/2 32/83/2 34/82/2
f 34/82/2 45/84/2 46/85/2
f 93/79/7 7/7/7 24/18/7
f 24/18/7 91/78/7 93/79/7
f 108/92/4 106/90/4 105/89/4
f 105/89/4 107/91/4 108/92/4
f 95/86/2 8/8/2 7/7/2
f 7/7/2 93/79/2 95/86/2
f 62/85/6 36/83/6 28/82/6
f 28/82/6 61/84/6 62/85/6
f 74/96/3 29/94/3 26/93/3
f 26/93/3 73/95/3 74/96/3
f 90/98/7 23/17/7 5/5/7
f 5/5/7 92/97/7 90/98/7
f 94/100/4 6/13/4 11/14/4
f 11/14/4 96/99/4 94/100/4
f 112/104/7 110/102/7 109/101/7
f 109/101/7 111/103/7 112/104/7
f 96/98/6 11/17/6 15/5/6
f 15/5/6 85/97/6 96/98/6
f 38/108/2 33/106/2 31/105/2
f 31/105/2 37/107/2 38/108/2
f 85/97/1 15/5/1 19/6/1
f 19/6/1 86/109/1 85/97/1
f 116/104/4 114/110/4 113/101/4
f 113/101/4 115/103/4 116/104/4
f 86/112/3 19/23/3 23/24/3
f 23/24/3 90/111/3 86/112/3
f 58/108/6 25/106/6 35/105/6
f 35/105/6 57/107/6 58/108/6
f 120/104/1 118/102/1 117/101/1
f 117/101/1 119/103/1 120/104/1
f 92/97/2 5/5/2 6/6/2
f 6/6/2 94/109/2 92/97/2
f 122/116/7 100/114/7 99/113/7
f 99/113/7 121/115/7 122/116/7
f 41/120/4 46/118/4 48/117/4
f 48/117/4 43/119/4 41/120/4
f 44/124/1 79/122/1 77/121/1
f 77/121/1 42/123/1 44/124/1
f 43/128/6 48/126/6 79/125/6
f 79/125/6 44/127/6 43/128/6
f 124/132/4 108/130/4 107/129/4
f 107/129/4 123/131/4 124/132/4
f 53/136/1 62/134/1 64/133/1
f 64/133/1 55/135/1 53/136/1
f 56/124/7 47/122/7 45/121/7
f 45/121/7 54/123/7 56/124/7
f 55/140/3 64/138/3 47/137/3
f 47/137/3 56/139/3 55/140/3
f 126/116/1 104/114/1 103/113/1
f 103/113/1 125/115/1 126/116/1
f 69/136/7 78/134/7 80/133/7
f 80/133/7 71/135/7 69/136/7
f 72/144/4 63/142/4 61/141/4
f 61/141/4 70/143/4 72/144/4
f 71/128/2 80/126/2 63/125/2
f 63/125/2 72/127/2 71/128/2
f 50/146/10 116/104/10 115/103/10
f 115/103/10 49/145/10 50/146/10
f 49/50/7 38/148/7 40/147/7
f 40/147/7 51/149/7 49/50/7
f 52/152/1 59/151/1 57/150/1
f 57/150/1 50/59/1 52/152/1
f 51/156/3 40/154/3 59/153/3
f 59/153/3 52/155/3 51/156/3
f 82/146/11 112/104/11 111/103/11
f 111/103/11 81/157/11 82/146/11
f 81/67/12 74/148/12 76/147/1
f 76/147/1 83/149/12 81/67/12
f 84/160/4 39/159/4 37/158/4
f 37/158/4 82/49/4 84/160/4
f 83/149/6 76/147/6 39/161/13
f 39/161/13 84/162/6 83/149/6
f 66/146/14 120/104/14 119/103/14
f 119/103/14 65/157/14 66/146/14
f 65/61/4 58/164/4 60/163/4
f 60/163/4 67/165/4 65/61/4
f 68/152/7 75/151/7 73/150/7
f 73/150/7 66/64/7 68/152/7
f 67/162/15 60/161/2 75/151/2
f 75/151/2 68/152/2 67/162/15
f 113/169/16 33/167/16 38/166/16
f 38/166/16 115/168/16 113/169/16
f 116/166/17 57/168/17 35/169/17
f 35/169/17 114/167/17 116/166/17
f 117/175/18 25/173/18 58/172/18
f 58/172/18 119/174/18 117/175/18
f 120/172/19 73/174/19 26/175/19
f 26/175/19 118/173/19 120/172/19
f 109/175/20 29/173/20 74/172/20
f 74/172/20 111/174/20 109/175/20
f 112/172/21 37/174/21 31/175/21
f 31/175/21 110/173/21 112/172/21
f 97/181/21 32/179/22 46/178/22
f 46/178/22 99/180/22 97/181/21
f 100/178/23 77/180/23 30/181/20
f 30/181/20 98/179/23 100/178/23
f 99/180/22 46/178/22 41/182/22
f 41/182/22 121/183/22 99/180/22
f 122/182/23 42/183/23 77/180/23
f 77/180/23 100/178/23 122/182/23
f 121/185/9 41/53/9 42/54/9
f 42/54/9 122/184/9 121/185/9
f 105/189/17 36/187/17 62/186/17
f 62/186/17 107/188/17 105/189/17
f 108/193/16 45/191/16 34/190/16
f 34/190/16 106/192/16 108/193/16
f 107/188/17 62/186/17 53/194/17
f 53/194/17 123/195/17 107/188/17
f 124/197/16 54/196/16 45/191/16
f 45/191/16 108/193/16 124/197/16
f 123/199/9 53/60/9 54/57/9
f 54/57/9 124/198/9 123/199/9
f 101/181/19 27/179/19 78/178/19
f 78/178/19 103/180/19 101/181/19
f 104/178/18 61/180/18 28/181/18
f 28/181/18 102/179/18 104/178/18
f 103/180/19 78/178/19 69/182/19
f 69/182/19 125/183/19 103/180/19
f 126/182/18 70/183/18 61/180/18
f 61/180/18 104/178/18 126/182/18
f 125/201/9 69/65/9 70/63/9
f 70/63/9 126/200/9 125/201/9

