# ProBuilder 5.0.6
# https://unity3d.com/unity/features/worldbuilding/probuilder
# 12/21/2022 2:44:58 AM

mtllib ./XOLOTL-79-Ring.mtl
o XOLOTL-79-Ring

g XOLOTL-79-Ring
v -0.9659258 -0.05 0.2588191
v -0.7071067 -0.05 0.7071069
v -0.9659258 0.05 0.2588191
v -0.7071067 0.05 0.7071069
v -0.258819 -0.05 0.9659259
v -0.258819 0.05 0.9659259
v 0.2588192 -0.05 0.9659258
v 0.7071068 -0.05 0.7071068
v 0.2588192 0.05 0.9659258
v 0.7071068 0.05 0.7071068
v 0.9659259 -0.05 0.2588189
v 0.9659259 0.05 0.2588189
v 0.9659258 -0.05 -0.2588191
v 0.7071067 -0.05 -0.7071069
v 0.9659258 0.05 -0.2588191
v 0.7071067 0.05 -0.7071069
v 0.258819 -0.05 -0.9659259
v 0.258819 0.05 -0.9659259
v -0.258819 -0.05 -0.9659258
v -0.7071067 -0.05 -0.7071069
v -0.258819 0.05 -0.9659258
v -0.7071067 0.05 -0.7071069
v -0.9659259 -0.05 -0.258819
v -0.9659259 0.05 -0.258819
v -1.207407 0.05 -0.3235237
v -0.8838834 0.05 -0.8838836
v -1.207407 0.075 -0.3235237
v -0.8838834 0.075 -0.8838836
v -0.7071067 0.075 -0.7071069
v -0.9659259 0.075 -0.258819
v -0.3235238 0.05 -1.207407
v -0.3235238 0.075 -1.207407
v -0.258819 0.075 -0.9659258
v 0.3235237 0.05 -1.207407
v 0.3235237 0.075 -1.207407
v 0.8838834 0.05 -0.8838837
v 0.8838834 0.075 -0.8838837
v 0.7071067 0.075 -0.7071069
v 0.258819 0.075 -0.9659259
v 1.207407 0.05 -0.3235238
v 1.207407 0.075 -0.3235238
v 0.9659258 0.075 -0.2588191
v 1.207407 0.05 0.3235236
v 1.207407 0.075 0.3235236
v 0.8838835 0.05 0.8838835
v 0.8838835 0.075 0.8838835
v 0.7071068 0.075 0.7071068
v 0.9659259 0.075 0.2588189
v 0.323524 0.05 1.207407
v 0.323524 0.075 1.207407
v 0.2588192 0.075 0.9659258
v -0.3235237 0.05 1.207407
v -0.3235237 0.075 1.207407
v -0.8838834 0.05 0.8838836
v -0.8838834 0.075 0.8838836
v -0.7071067 0.075 0.7071069
v -0.258819 0.075 0.9659259
v -1.207407 0.05 0.3235239
v -1.207407 0.075 0.3235239
v -0.9659258 0.075 0.2588191
v -0.8838834 -0.05 -0.8838836
v -1.207407 -0.05 -0.3235237
v -0.8838834 -0.075 -0.8838836
v -1.207407 -0.075 -0.3235237
v -0.7071067 -0.075 -0.7071069
v -0.258819 -0.075 -0.9659258
v -0.9659259 -0.075 -0.258819
v -1.207407 -0.05 0.3235239
v -1.207407 -0.075 0.3235239
v -0.8838834 -0.05 0.8838836
v -0.8838834 -0.075 0.8838836
v -0.7071067 -0.075 0.7071069
v -0.9659258 -0.075 0.2588191
v -0.3235237 -0.05 1.207407
v -0.3235237 -0.075 1.207407
v -0.258819 -0.075 0.9659259
v 0.323524 -0.05 1.207407
v 0.323524 -0.075 1.207407
v 0.8838835 -0.05 0.8838835
v 0.8838835 -0.075 0.8838835
v 0.7071068 -0.075 0.7071068
v 0.2588192 -0.075 0.9659258
v 1.207407 -0.05 0.3235236
v 1.207407 -0.075 0.3235236
v 0.9659259 -0.075 0.2588189
v 1.207407 -0.05 -0.3235238
v 1.207407 -0.075 -0.3235238
v 0.8838834 -0.05 -0.8838837
v 0.8838834 -0.075 -0.8838837
v 0.7071067 -0.075 -0.7071069
v 0.9659258 -0.075 -0.2588191
v 0.3235237 -0.05 -1.207407
v 0.3235237 -0.075 -1.207407
v 0.258819 -0.075 -0.9659259
v -0.3235238 -0.05 -1.207407
v -0.3235238 -0.075 -1.207407
v -0.1294094 0.05 0.9659258
v 0.1294096 0.05 0.9659258
v 0.1294096 -0.05 0.9659258
v -0.1294094 -0.05 0.9659258
v -0.9659258 0.05 -0.1294095
v -0.9659258 0.05 0.1294096
v -0.9659258 -0.05 0.1294096
v -0.9659258 -0.05 -0.1294095
v 0.9659258 -0.05 -0.1294096
v 0.9659258 -0.05 -8.940697E-08
v 0.9659258 -0.05 0.1294094
v 0.9659258 0.05 -8.940697E-08
v 0.9659258 0.05 -0.1294096
v 0.9659258 0.05 0.1294094
v -0.1294095 0.05 -0.9659258
v 0.1294095 0.05 -0.9659258
v -0.1294095 -0.05 -0.9659258
v 0.1294095 -0.05 -0.9659258
v 0.1294095 -0.05 -0.3659258
v -0.1294095 -0.05 -0.3659258
v -0.1294095 0.05 -0.3659258
v 0.1294095 0.05 -0.3659258
v -0.3659258 -0.05 0.1294096
v -0.3659258 0.05 0.1294096
v -0.3659258 0.05 -0.1294095
v -0.3659258 -0.05 -0.1294095
v 0.3659258 -0.05 -8.940697E-08
v 0.3659258 -0.05 -0.1294096
v 0.3659258 0.05 -0.1294096
v 0.3659258 0.05 0.1294094
v 0.3659258 -0.05 0.1294094
v 0.3659258 0.05 -8.940697E-08
v 0.1294096 -0.05 0.3659258
v 0.1294096 0.05 0.3659258
v -0.1294094 0.05 0.3659258
v -0.1294094 -0.05 0.3659258
v 0.2766128 0.07625 -1.032333
v -0.2766128 0.07625 -1.032333
v -1.032333 0.07625 -0.2766128
v -1.032333 0.07625 0.2766129
v 1.032333 0.07625 0.2766127
v 1.032333 0.07625 -0.2766129
v 0.276613 0.07625 1.032333
v -0.2766127 0.07625 1.032333
v -1.147037 0.12375 -0.3073475
v -1.032333 0.12375 -0.2766128
v -1.032333 0.12375 0.2766129
v -1.147037 0.12375 0.3073477
v -0.2766127 0.12375 1.032333
v 0.276613 0.12375 1.032333
v 0.3073478 0.12375 1.147037
v -0.3073475 0.12375 1.147037
v 1.032333 0.12375 -0.2766129
v 1.147037 0.12375 -0.3073477
v 1.147037 0.12375 0.3073474
v 1.032333 0.12375 0.2766127
v -0.2766128 0.12375 -1.032333
v -0.3073476 0.12375 -1.147037
v 0.3073475 0.12375 -1.147037
v 0.2766128 0.12375 -1.032333
v 1.032333 -0.07625 0.2766127
v 1.032333 -0.07625 -0.2766129
v 0.2766128 -0.07625 -1.032333
v -0.2766128 -0.07625 -1.032333
v -1.032333 -0.07625 -0.2766128
v -1.032333 -0.07625 0.2766129
v 0.276613 -0.07625 1.032333
v -0.2766127 -0.07625 1.032333
v 0.2766128 -0.12375 -1.032333
v 0.3073475 -0.12375 -1.147037
v -0.3073476 -0.12375 -1.147037
v -0.2766128 -0.12375 -1.032333
v -1.032333 -0.12375 -0.2766128
v -1.147037 -0.12375 -0.3073475
v -1.147037 -0.12375 0.3073477
v -1.032333 -0.12375 0.2766129
v 1.147037 -0.12375 0.3073474
v 1.147037 -0.12375 -0.3073477
v 1.032333 -0.12375 -0.2766129
v 1.032333 -0.12375 0.2766127
v 0.3073478 -0.12375 1.147037
v 0.276613 -0.12375 1.032333
v -0.2766127 -0.12375 1.032333
v -0.3073475 -0.12375 1.147037

vt 0.5614153 0.192546
vt 0.4945847 0.192546
vt 0.5614153 0.207454
vt 0.4945847 0.207454
vt 0.7054153 0.192546
vt 0.6385847 0.192546
vt 0.7054153 0.207454
vt 0.6385847 0.207454
vt 0.7517692 0.907454
vt 0.6682309 0.907454
vt 0.7517692 0.911181
vt 0.6682309 0.911181
vt 0.7054154 0.2981365
vt 0.6385847 0.2981365
vt 0.7054154 0.3018635
vt 0.6385847 0.3018635
vt 0.9317691 0.907454
vt 0.8482308 0.907454
vt 0.9317691 0.911181
vt 0.8482308 0.911181
vt 0.5614153 0.2981365
vt 0.4945847 0.2981365
vt 0.5614153 0.3018635
vt 0.4945847 0.3018635
vt 0.6682309 0.8925461
vt 0.7517692 0.8925461
vt 0.6682309 0.888819
vt 0.7517692 0.888819
vt 0.4945847 0.1018635
vt 0.5614153 0.1018635
vt 0.4945847 0.09813649
vt 0.5614153 0.09813649
vt 0.6385847 0.1018635
vt 0.7054154 0.1018635
vt 0.6385847 0.09813649
vt 0.7054154 0.09813649
vt 0.8482308 0.8925461
vt 0.8482308 0.888819
vt 0.9317691 0.8925461
vt 0.9317691 0.888819
vt 0.6192924 0.2981365
vt 0.5807077 0.2981365
vt 0.5807077 0.1018635
vt 0.6192924 0.1018635
vt 0.6 0.1018635
vt 0.6 0.2981365
vt 0.5807077 0.192546
vt 0.5807077 0.207454
vt 0.6192924 0.207454
vt 0.6192924 0.192546
vt 0.8192924 0.356
vt 0.7807077 0.356
vt 0.8192924 0.4454479
vt 0.7807077 0.4454479
vt 0.7552761 0.792546
vt 0.7552761 0.807454
vt 0.8447239 0.792546
vt 0.8447239 0.807454
vt 0.944 0.5192924
vt 0.944 0.4807077
vt 0.8545521 0.5192924
vt 0.8545521 0.4807077
vt 0.656 0.4807077
vt 0.656 0.5192924
vt 0.7454479 0.4807077
vt 0.7454479 0.5192924
vt 0.944 0.5
vt 0.8545521 0.5
vt 0.656 0.5
vt 0.7454479 0.5
vt 0.7807077 0.644
vt 0.8192924 0.644
vt 0.7807077 0.5545521
vt 0.8192924 0.5545521
vt 0.151773 0.02001069
vt 0.06823477 0.06824155
vt 0.09458857 0.09459539
vt 0.1614192 0.05601071
vt 0.1587665 0.0461107
vt 0.3317729 0.06824155
vt 0.2482346 0.02001069
vt 0.2412412 0.0461107
vt 0.2385885 0.05601072
vt 0.305419 0.09459539
vt 0.3800037 0.1517799
vt 0.3440037 0.1614261
vt 0.3539037 0.1587734
vt 0.3317728 0.33178
vt 0.3800037 0.2482416
vt 0.3539037 0.2412481
vt 0.3440037 0.2385955
vt 0.305419 0.3054261
vt 0.02000391 0.2482416
vt 0.06823476 0.3317799
vt 0.09458856 0.3054261
vt 0.0560039 0.2385954
vt 0.04610391 0.2412481
vt 0.02000393 0.1517799
vt 0.04610392 0.1587734
vt 0.05600391 0.1614261
vt 0.1517729 0.3800108
vt 0.1587664 0.3539107
vt 0.1614191 0.3440108
vt 0.2482346 0.3800108
vt 0.2385885 0.3440108
vt 0.2412411 0.3539108
vt 0.7709998 0.1541807
vt 0.7538998 0.1587627
vt 0.7538998 0.2412374
vt 0.7709998 0.2458193
vt 0.6412374 0.3539
vt 0.5587627 0.3539
vt 0.5541808 0.3710001
vt 0.6458193 0.3710001
vt 0.4461002 0.1587627
vt 0.4290003 0.1541808
vt 0.4290003 0.2458194
vt 0.4461002 0.2412374
vt 0.6412373 0.04610009
vt 0.6458192 0.02900006
vt 0.5541807 0.02900009
vt 0.5587627 0.04610009
vt 0.3799963 0.2482201
vt 0.3439963 0.2385739
vt 0.3799962 0.1517584
vt 0.3439963 0.1614045
vt 0.2482271 0.01998919
vt 0.2385809 0.05598922
vt 0.1517654 0.01998922
vt 0.1614116 0.05598924
vt 0.01999629 0.1517584
vt 0.0559963 0.1614046
vt 0.01999633 0.2482202
vt 0.05599631 0.238574
vt 0.2482272 0.3799893
vt 0.238581 0.3439893
vt 0.1517655 0.3799893
vt 0.1614117 0.3439893
vt 0.6458192 0.02899998
vt 0.6458193 0.3709999
vt 0.5541808 0.3709999
vt 0.02000001 0.02726761
vt 0.04609999 0.02708128
vt 0.029 0.02000001
vt 0.04609999 0.02000001
vt 0.2517692 0.88
vt 0.3482309 0.8799999
vt 0.2541807 0.871
vt 0.3458194 0.871
vt 0.1587626 0.02708128
vt 0.2412374 0.02708128
vt 0.1587626 0.02000001
vt 0.2412374 0.02000001
vt 0.3539 0.02708128
vt 0.38 0.02726761
vt 0.3539 0.02000001
vt 0.3710001 0.02000001
vt 0.371 0.02000001
vt 0.09549999 0.6517692
vt 0.09550002 0.7482308
vt 0.1045 0.6541807
vt 0.1045 0.7458193
vt 0.2482308 0.5955
vt 0.1517692 0.5955
vt 0.2458193 0.6045
vt 0.1541807 0.6045
vt 0.4045 0.7482308
vt 0.4045 0.6517692
vt 0.3955 0.7458193
vt 0.3955 0.6541807
vt 0.04609999 0.04981592
vt 0.02000001 0.04962958
vt 0.04609999 0.05689722
vt 0.029 0.05689722
vt 0.3799999 0.04962958
vt 0.3539 0.04981592
vt 0.371 0.05689722
vt 0.3539 0.05689722
vt 0.5412374 0.4964594
vt 0.4587626 0.4964594
vt 0.5412374 0.5035406
vt 0.4587626 0.5035406
vt 0.09550003 0.6517692
vt 0.1045 0.7458193
vt 0.3710001 0.05689722

vn 0.8660254 0 -0.5
vn 0.7071068 0 -0.7071068
vn 0.4999999 0 -0.8660254
vn -0.5000001 0 -0.8660254
vn -0.7071068 0 -0.7071068
vn -0.8660254 0 -0.5
vn -0.8660254 0 0.4999999
vn -0.7071067 0 0.7071068
vn -0.4999998 0 0.8660255
vn 0.4999998 0 0.8660256
vn 0.7071067 0 0.7071069
vn 0.8660254 0 0.5
vn -0.8660253 0 -0.5
vn 0.8660254 0 0.5
vn 0 0 -1
vn 1 0 -1.842358E-07
vn 0.5000001 0 0.8660254
vn 1.842357E-07 0 1
vn -0.8660254 0 0.5000001
vn -1 0 1.842357E-07
vn 0 -1 0
vn 0 1 0
vn 0.8660254 0 -0.5
vn 0.003569822 0.9999745 -0.006183115
vn 0.002611934 0.9999859 -0.002264535
vn -0.00387794 0.9999101 0.00897626
vn -0.009409925 0.9998229 0.01629847
vn -0.001395353 0.9999315 0.003923135
vn -0.002611934 0.9999859 -0.002264534
vn -0.003569822 0.9999745 -0.006183113
vn 0.00139535 0.9999316 0.003923132
vn 0.009409917 0.9998229 0.01629846
vn 0.003877936 0.9999101 0.008976255
vn -0.006183113 0.9999745 -0.003569823
vn -0.002264535 0.9999859 -0.002611934
vn 0.00897626 0.9999101 0.003877942
vn 0.01629848 0.9998229 0.009409929
vn 0.003923136 0.9999316 0.001395354
vn -0.002264534 0.9999859 0.002611934
vn -0.006183113 0.9999745 0.003569823
vn 0.003923135 0.9999315 -0.001395354
vn 0.01629847 0.9998229 -0.009409929
vn 0.00897626 0.9999101 -0.003877942
vn 0.006183114 0.9999745 0.003569823
vn 0.002264535 0.9999859 0.002611934
vn -0.00897626 0.9999101 -0.003877942
vn -0.01629848 0.9998229 -0.009409928
vn -0.003923135 0.9999316 -0.001395354
vn 0.002264535 0.9999859 -0.002611934
vn 0.006183114 0.9999745 -0.003569823
vn -0.003923136 0.9999316 0.001395353
vn -0.01629848 0.9998229 0.009409926
vn -0.008976261 0.9999101 0.003877941
vn 0.002611934 0.9999859 0.002264534
vn 0.003569823 0.9999745 0.006183113
vn -0.001395353 0.9999316 -0.003923134
vn -0.009409927 0.9998229 -0.01629847
vn -0.003877941 0.9999101 -0.008976258
vn -0.003569822 0.9999745 0.006183115
vn -0.002611934 0.9999859 0.002264535
vn 0.003877942 0.9999101 -0.008976262
vn 0.009409929 0.9998229 -0.01629848
vn 0.001395354 0.9999316 -0.003923137
vn 0.01881986 0.9998229 -4.05531E-09
vn -4.194711E-09 0.9998229 -0.01881986
vn -0.01881986 0.9998229 4.334114E-09
vn 1.083527E-09 0.9998229 0.01881985
vn 0.002264535 -0.9999859 0.002611934
vn 0.006183115 -0.9999745 0.003569823
vn -0.003923135 -0.9999316 -0.001395354
vn -0.01629848 -0.9998229 -0.009409928
vn -0.00897626 -0.9999101 -0.003877942
vn 0.006183114 -0.9999745 -0.003569822
vn 0.002264535 -0.9999859 -0.002611933
vn -0.008976261 -0.9999101 0.003877941
vn -0.01629848 -0.9998229 0.009409926
vn -0.003923136 -0.9999316 0.001395353
vn 0.002611934 -0.9999859 -0.002264534
vn 0.003569822 -0.9999745 -0.006183113
vn -0.001395353 -0.9999316 0.003923135
vn -0.009409925 -0.9998229 0.01629847
vn -0.00387794 -0.9999101 0.00897626
vn -0.003569822 -0.9999745 -0.006183114
vn -0.002611934 -0.9999859 -0.002264534
vn 0.003877936 -0.9999101 0.008976255
vn 0.009409917 -0.9998229 0.01629846
vn 0.00139535 -0.9999316 0.003923132
vn -0.002264535 -0.9999859 -0.002611934
vn -0.006183114 -0.9999745 -0.003569823
vn 0.003923135 -0.9999316 0.001395354
vn 0.01629848 -0.9998229 0.009409929
vn 0.00897626 -0.9999101 0.003877942
vn -0.006183114 -0.9999745 0.003569823
vn -0.002264535 -0.9999859 0.002611934
vn 0.00897626 -0.9999101 -0.003877942
vn 0.01629847 -0.9998229 -0.009409929
vn 0.003923135 -0.9999316 -0.001395354
vn 0.003569823 -0.9999745 0.006183113
vn 0.002611934 -0.9999859 0.002264534
vn -0.003877941 -0.9999101 -0.008976258
vn -0.009409927 -0.9998229 -0.01629847
vn -0.001395353 -0.9999316 -0.003923134
vn -0.002611934 -0.9999859 0.002264536
vn -0.003569823 -0.9999745 0.006183116
vn 0.001395354 -0.9999316 -0.003923136
vn 0.009409929 -0.9998229 -0.01629848
vn 0.003877942 -0.9999101 -0.008976262
vn 0 -0.9998229 0.01881986
vn 0.01881986 -0.9998229 -4.334113E-09
vn -0.01881986 -0.9998229 4.194713E-09
vn -4.05531E-09 -0.9998229 -0.01881986
vn 0.9659258 -1.917484E-08 -0.2588193
vn 1.157468E-07 -0.7780082 0.6282541
vn -0.9659259 0 -0.258819
vn 0.2588191 -2.246115E-07 0.9659258
vn 0.258819 0 -0.9659259
vn -0.6282541 -0.7780082 1.157468E-07
vn 0.9659259 0 0.258819
vn -0.9659258 -2.246115E-07 0.2588191
vn 0 -0.7780083 -0.628254
vn 0.6282541 -0.7780082 -1.157469E-07
vn -0.2588188 0 0.9659259
vn -0.2588191 -2.246115E-07 -0.9659258
vn 0 0.7780083 -0.628254
vn 0.6282541 0.7780083 -1.157469E-07
vn -0.6282541 0.7780083 1.157468E-07
vn 1.157468E-07 0.7780083 0.6282541

usemtl XOLOTL-79-Ring
f 72/95/95 71/94/94 162/97/97
f 73/134/96 72/95/95 162/97/97
f 69/133/93 162/97/97 71/94/94
f 55/88/39 136/90/41 59/89/40
f 136/90/41 56/92/43 60/91/42
f 136/90/41 55/88/39 56/92/43
f 72/95/107 76/138/106 164/102/105
f 72/95/107 164/102/105 71/94/103
f 164/102/105 75/137/104 71/94/103
f 55/88/60 53/104/59 140/106/63
f 55/88/60 140/106/63 56/92/61
f 140/106/63 57/105/62 56/92/61
f 163/106/102 80/88/99 78/135/98
f 81/92/100 80/88/99 163/106/102
f 82/136/101 81/92/100 163/106/102
f 139/102/56 47/95/58 51/103/57
f 139/102/56 46/94/54 47/95/58
f 50/101/55 46/94/54 139/102/56
f 80/88/68 157/90/70 84/123/69
f 81/92/72 157/90/70 80/88/68
f 85/124/71 157/90/70 81/92/72
f 47/95/46 137/97/48 48/96/47
f 46/94/45 137/97/48 47/95/46
f 44/93/44 137/97/48 46/94/45
f 89/80/74 87/125/73 158/87/77
f 89/80/74 158/87/77 90/84/75
f 90/84/75 158/87/77 91/126/76
f 42/100/52 138/99/51 38/77/53
f 38/77/53 138/99/51 37/76/49
f 138/99/51 41/98/50 37/76/49
f 159/82/80 89/80/78 90/84/82
f 159/82/80 93/127/79 89/80/78
f 159/82/80 90/84/82 94/128/81
f 39/78/27 38/77/26 133/79/28
f 37/76/25 35/75/24 133/79/28
f 38/77/26 37/76/25 133/79/28
f 160/79/87 66/130/86 65/77/85
f 160/79/87 65/77/85 63/76/84
f 63/76/84 96/129/83 160/79/87
f 134/82/31 32/81/30 28/80/29
f 28/80/29 29/84/33 134/82/31
f 29/84/33 33/83/32 134/82/31
f 161/99/90 65/77/92 67/132/91
f 63/76/88 65/77/92 161/99/90
f 63/76/88 161/99/90 64/131/89
f 27/85/34 135/87/38 28/80/35
f 135/87/38 29/84/36 28/80/35
f 30/86/37 29/84/36 135/87/38
f 102/42/16 30/16/16 60/23/16
f 102/42/16 101/41/16 30/16/16
f 101/41/16 24/14/16 30/16/16
f 60/23/16 3/21/16 102/42/16
f 112/41/18 18/14/18 39/16/18
f 33/23/18 21/21/18 111/42/18
f 33/23/18 111/42/18 112/41/18
f 39/16/18 33/23/18 112/41/18
f 110/41/20 12/14/20 48/16/20
f 108/46/20 110/41/20 48/16/20
f 42/23/20 15/21/20 109/42/20
f 42/23/20 109/42/20 108/46/20
f 48/16/20 42/23/20 108/46/20
f 98/42/15 57/16/15 51/23/15
f 98/42/15 97/41/15 57/16/15
f 97/41/15 6/14/15 57/16/15
f 51/23/15 9/21/15 98/42/15
f 67/35/16 23/33/16 104/44/16
f 104/44/16 103/43/16 67/35/16
f 67/35/16 103/43/16 73/32/16
f 1/30/16 73/32/16 103/43/16
f 76/35/15 5/33/15 100/44/15
f 100/44/15 99/43/15 76/35/15
f 76/35/15 99/43/15 82/32/15
f 7/30/15 82/32/15 99/43/15
f 107/44/20 85/35/20 11/33/20
f 107/44/20 106/45/20 85/35/20
f 85/35/20 106/45/20 91/32/20
f 91/32/20 106/45/20 105/43/20
f 105/43/20 13/30/20 91/32/20
f 114/44/18 94/35/18 17/33/18
f 94/35/18 114/44/18 66/32/18
f 66/32/18 114/44/18 113/43/18
f 113/43/18 19/30/18 66/32/18
f 58/18/19 68/37/19 70/39/19
f 70/39/19 54/17/19 58/18/19
f 4/4/2 2/2/2 1/1/1
f 1/1/1 3/3/1 4/4/2
f 70/25/9 74/26/9 52/9/9
f 52/9/9 54/10/9 70/25/9
f 6/8/3 5/6/3 2/5/2
f 2/5/2 4/7/2 6/8/3
f 49/18/17 77/37/17 79/39/17
f 79/39/17 45/17/17 49/18/17
f 10/4/5 8/2/5 7/1/4
f 7/1/4 9/3/4 10/4/5
f 43/9/12 45/10/12 79/25/12
f 79/25/12 83/26/12 43/9/12
f 12/8/6 11/6/6 8/5/5
f 8/5/5 10/7/5 12/8/6
f 86/37/23 88/39/23 36/17/23
f 36/17/23 40/18/23 86/37/23
f 16/4/8 14/2/8 13/1/7
f 13/1/7 15/3/7 16/4/8
f 34/9/3 36/10/3 88/25/3
f 88/25/3 92/26/3 34/9/3
f 18/8/9 17/6/9 14/5/8
f 14/5/8 16/7/8 18/8/9
f 95/37/4 61/39/4 26/17/4
f 26/17/4 31/18/4 95/37/4
f 22/4/11 20/2/11 19/1/10
f 19/1/10 21/3/10 22/4/11
f 61/25/13 62/26/13 25/9/13
f 25/9/13 26/10/13 61/25/13
f 24/8/12 23/6/12 20/5/11
f 20/5/11 22/7/11 24/8/12
f 28/12/13 26/10/13 25/9/13
f 25/9/13 27/11/13 28/12/13
f 30/16/14 24/14/14 22/13/14
f 22/13/14 29/15/14 30/16/14
f 32/20/4 31/18/4 26/17/4
f 26/17/4 28/19/4 32/20/4
f 29/24/10 22/22/10 21/21/10
f 21/21/10 33/23/10 29/24/10
f 35/11/15 34/9/15 31/18/15
f 31/18/15 32/20/15 35/11/15
f 37/12/3 36/10/3 34/9/3
f 34/9/3 35/11/3 37/12/3
f 39/16/9 18/14/9 16/13/9
f 16/13/9 38/15/9 39/16/9
f 41/20/1 40/18/1 36/17/1
f 36/17/1 37/19/1 41/20/1
f 38/24/7 16/22/7 15/21/7
f 15/21/7 42/23/7 38/24/7
f 44/11/16 43/9/16 40/18/16
f 40/18/16 41/20/16 44/11/16
f 46/12/14 45/10/14 43/9/14
f 43/9/14 44/11/14 46/12/14
f 48/16/6 12/14/6 10/13/6
f 10/13/6 47/15/6 48/16/6
f 50/20/17 49/18/17 45/17/17
f 45/17/17 46/19/17 50/20/17
f 47/24/4 10/22/4 9/21/4
f 9/21/4 51/23/4 47/24/4
f 53/11/18 52/9/18 49/18/18
f 49/18/18 50/20/18 53/11/18
f 55/12/9 54/10/9 52/9/9
f 52/9/9 53/11/9 55/12/9
f 57/16/3 6/14/3 4/13/3
f 4/13/3 56/15/3 57/16/3
f 59/20/19 58/18/19 54/17/19
f 54/17/19 55/19/19 59/20/19
f 56/24/1 4/22/1 3/21/1
f 3/21/1 60/23/1 56/24/1
f 27/11/20 25/9/20 58/18/20
f 58/18/20 59/20/20 27/11/20
f 64/28/13 62/26/13 61/25/13
f 61/25/13 63/27/13 64/28/13
f 66/32/10 19/30/10 20/29/10
f 20/29/10 65/31/10 66/32/10
f 65/36/14 20/34/14 23/33/14
f 23/33/14 67/35/14 65/36/14
f 69/38/20 68/37/20 62/26/20
f 62/26/20 64/28/20 69/38/20
f 71/40/19 70/39/19 68/37/19
f 68/37/19 69/38/19 71/40/19
f 73/32/1 1/30/1 2/29/1
f 2/29/1 72/31/1 73/32/1
f 75/28/9 74/26/9 70/25/9
f 70/25/9 71/27/9 75/28/9
f 72/36/3 2/34/3 5/33/3
f 5/33/3 76/35/3 72/36/3
f 78/38/18 77/37/18 74/26/18
f 74/26/18 75/28/18 78/38/18
f 80/40/17 79/39/17 77/37/17
f 77/37/17 78/38/17 80/40/17
f 82/32/4 7/30/4 8/29/4
f 8/29/4 81/31/4 82/32/4
f 84/28/14 83/26/14 79/25/14
f 79/25/14 80/27/14 84/28/14
f 81/36/6 8/34/6 11/33/6
f 11/33/6 85/35/6 81/36/6
f 87/38/16 86/37/16 83/26/16
f 83/26/16 84/28/16 87/38/16
f 89/40/1 88/39/1 86/37/1
f 86/37/1 87/38/1 89/40/1
f 91/32/7 13/30/7 14/29/7
f 14/29/7 90/31/7 91/32/7
f 93/28/3 92/26/3 88/25/3
f 88/25/3 89/27/3 93/28/3
f 90/36/9 14/34/9 17/33/9
f 17/33/9 94/35/9 90/36/9
f 96/38/15 95/37/15 92/26/15
f 92/26/15 93/28/15 96/38/15
f 63/40/4 61/39/4 95/37/4
f 95/37/4 96/38/4 63/40/4
f 21/3/18 19/1/18 113/47/18
f 113/47/18 111/48/18 21/3/18
f 112/49/18 114/50/18 17/6/18
f 17/6/18 18/8/18 112/49/18
f 15/3/20 13/1/20 105/47/20
f 105/47/20 109/48/20 15/3/20
f 110/49/20 107/50/20 11/6/20
f 11/6/20 12/8/20 110/49/20
f 6/8/15 97/49/15 100/50/15
f 100/50/15 5/6/15 6/8/15
f 98/48/15 9/3/15 7/1/15
f 7/1/15 99/47/15 98/48/15
f 102/48/16 3/3/16 1/1/16
f 1/1/16 103/47/16 102/48/16
f 24/8/16 101/49/16 104/50/16
f 104/50/16 23/6/16 24/8/16
f 116/54/21 113/52/21 114/51/21
f 114/51/21 115/53/21 116/54/21
f 117/58/20 111/56/20 113/55/20
f 113/55/20 116/57/20 117/58/20
f 115/55/16 114/57/16 112/58/16
f 112/58/16 118/56/16 115/55/16
f 118/54/22 112/52/22 111/51/22
f 111/51/22 117/53/22 118/54/22
f 120/58/18 102/56/18 103/55/18
f 103/55/18 119/57/18 120/58/18
f 121/62/22 101/60/22 102/59/22
f 102/59/22 120/61/22 121/62/22
f 122/55/15 104/57/15 101/58/15
f 101/58/15 121/56/15 122/55/15
f 119/66/21 103/64/21 104/63/21
f 104/63/21 122/65/21 119/66/21
f 124/62/21 105/60/21 106/67/21
f 106/67/21 123/68/21 124/62/21
f 125/58/15 109/56/15 105/55/15
f 105/55/15 124/57/15 125/58/15
f 127/55/18 107/57/18 110/58/18
f 110/58/18 126/56/18 127/55/18
f 126/66/22 110/64/22 108/69/22
f 108/69/22 128/70/22 126/66/22
f 123/68/21 106/67/21 107/59/21
f 107/59/21 127/61/21 123/68/21
f 128/70/22 108/69/22 109/63/22
f 109/63/22 125/65/22 128/70/22
f 130/58/16 98/56/16 99/55/16
f 99/55/16 129/57/16 130/58/16
f 131/74/22 97/72/22 98/71/22
f 98/71/22 130/73/22 131/74/22
f 132/55/20 100/57/20 97/58/20
f 97/58/20 131/56/20 132/55/20
f 129/74/21 99/72/21 100/71/21
f 100/71/21 132/73/21 129/74/21
f 143/109/22 142/108/22 141/107/22
f 141/107/22 144/110/22 143/109/22
f 60/91/64 30/86/64 135/87/64
f 135/87/64 136/90/64 60/91/64
f 146/112/22 145/111/22 148/114/22
f 148/114/22 147/113/22 146/112/22
f 51/103/65 57/105/65 140/106/65
f 140/106/65 139/102/65 51/103/65
f 137/97/66 138/99/66 42/100/66
f 42/100/66 48/96/66 137/97/66
f 151/117/22 150/116/22 149/115/22
f 149/115/22 152/118/22 151/117/22
f 134/82/67 33/83/67 39/78/67
f 39/78/67 133/79/67 134/82/67
f 155/121/22 154/120/22 153/119/22
f 153/119/22 156/122/22 155/121/22
f 160/79/108 159/82/108 94/128/108
f 94/128/108 66/130/108 160/79/108
f 166/139/21 165/119/21 168/122/21
f 168/122/21 167/121/21 166/139/21
f 161/99/109 67/132/109 73/134/109
f 73/134/109 162/97/109 161/99/109
f 170/116/21 169/115/21 172/118/21
f 172/118/21 171/117/21 170/116/21
f 175/108/21 174/107/21 173/110/21
f 173/110/21 176/109/21 175/108/21
f 91/126/110 158/87/110 157/90/110
f 157/90/110 85/124/110 91/126/110
f 179/112/21 178/111/21 177/140/21
f 177/140/21 180/141/21 179/112/21
f 76/138/111 82/136/111 163/106/111
f 163/106/111 164/102/111 76/138/111
f 178/145/112 163/143/112 78/142/112
f 78/142/112 177/144/112 178/145/112
f 177/149/113 78/147/113 75/146/113
f 75/146/113 180/148/113 177/149/113
f 179/153/15 164/151/15 163/150/15
f 163/150/15 178/152/15 179/153/15
f 180/157/114 75/155/114 164/154/114
f 164/154/114 179/156/114 180/157/114
f 169/153/16 161/151/16 162/150/16
f 162/150/16 172/152/16 169/153/16
f 172/145/115 162/143/115 69/142/115
f 69/142/115 171/144/115 172/145/115
f 170/158/116 64/155/116 161/154/116
f 161/154/116 169/156/116 170/158/116
f 171/162/117 69/160/117 64/159/117
f 64/159/117 170/161/117 171/162/117
f 165/153/18 159/151/18 160/150/18
f 160/150/18 168/152/18 165/153/18
f 166/158/118 93/155/118 159/154/118
f 159/154/118 165/156/118 166/158/118
f 168/145/119 160/143/119 96/142/119
f 96/142/119 167/144/119 168/145/119
f 167/166/120 96/164/120 93/163/120
f 93/163/120 166/165/120 167/166/120
f 174/170/121 87/168/121 84/167/121
f 84/167/121 173/169/121 174/170/121
f 173/158/122 84/155/122 157/154/122
f 157/154/122 176/156/122 173/158/122
f 175/145/123 158/143/123 87/142/123
f 87/142/123 174/144/123 175/145/123
f 176/153/20 157/151/20 158/150/20
f 158/150/20 175/152/20 176/153/20
f 154/174/119 32/172/119 134/171/119
f 134/171/119 153/173/119 154/174/119
f 155/166/124 35/164/124 32/163/124
f 32/163/124 154/165/124 155/166/124
f 156/178/118 133/176/118 35/175/118
f 35/175/118 155/177/118 156/178/118
f 153/182/18 134/180/18 133/179/18
f 133/179/18 156/181/18 153/182/18
f 150/174/123 41/172/123 138/171/123
f 138/171/123 149/173/123 150/174/123
f 149/182/20 138/180/20 137/179/20
f 137/179/20 152/181/20 149/182/20
f 151/184/125 44/160/125 41/183/125
f 41/183/125 150/161/125 151/184/125
f 152/178/122 137/176/122 44/175/122
f 44/175/122 151/177/122 152/178/122
f 142/178/116 135/176/116 27/175/116
f 27/175/116 141/177/116 142/178/116
f 141/170/126 27/168/126 59/167/126
f 59/167/126 144/169/126 141/170/126
f 143/182/16 136/180/16 135/179/16
f 135/179/16 142/181/16 143/182/16
f 144/174/115 59/172/115 136/171/115
f 136/171/115 143/173/115 144/174/115
f 145/178/114 140/176/114 53/175/114
f 53/175/114 148/185/114 145/178/114
f 146/182/15 139/180/15 140/179/15
f 140/179/15 145/181/15 146/182/15
f 147/174/112 50/172/112 139/171/112
f 139/171/112 146/173/112 147/174/112
f 148/149/127 53/147/127 50/146/127
f 50/146/127 147/148/127 148/149/127
f 25/9/20 62/26/20 68/37/20
f 68/37/20 58/18/20 25/9/20
f 40/18/16 43/9/16 83/26/16
f 83/26/16 86/37/16 40/18/16
f 31/18/15 34/9/15 92/26/15
f 92/26/15 95/37/15 31/18/15
f 52/9/18 74/26/18 77/37/18
f 77/37/18 49/18/18 52/9/18

