# ProBuilder 5.0.6
# https://unity3d.com/unity/features/worldbuilding/probuilder
# 12/18/2022 3:21:51 AM

mtllib ./XOLOTL-79-Top.mtl
o XOLOTL-79-Top

g XOLOTL-79-Top
v 0.3 0.525 -2.980232E-08
v 0.15 0.525 0.2598076
v 0.242265 0.525 -1.490116E-08
v 0.1211325 0.525 0.2098076
v -0.15 0.525 -0.2598076
v 0.15 0.525 -0.2598076
v -0.1211325 0.525 -0.2098077
v 0.1211325 0.525 -0.2098077
v -0.15 0.525 0.2598076
v -0.3 0.525 0
v -0.1211325 0.525 0.2098076
v -0.242265 0.525 0
v 0.3866026 0.325 0.04999997
v 0.2366025 0.325 0.3098076
v 0.3 0.5 -2.980232E-08
v 0.15 0.5 0.2598076
v 0.242265 0.325 -2.225319E-08
v 0.3 0.325 -2.622683E-08
v 0.242265 0.5 -1.490116E-08
v 0.15 0.325 0.2598076
v 0.1211325 0.325 0.2098076
v 0.1211325 0.5 0.2098076
v -0.15 0.325 -0.3598076
v 0.15 0.325 -0.3598076
v -0.15 0.5 -0.2598076
v 0.15 0.5 -0.2598076
v -0.1211325 0.325 -0.2098076
v -0.15 0.325 -0.2598076
v -0.1211325 0.5 -0.2098077
v 0.15 0.325 -0.2598076
v 0.1211325 0.325 -0.2098076
v 0.1211325 0.5 -0.2098077
v -0.2366025 0.325 0.3098077
v -0.3866026 0.325 0.05
v -0.15 0.5 0.2598076
v -0.3 0.5 0
v -0.1211325 0.325 0.2098076
v -0.15 0.325 0.2598076
v -0.1211325 0.5 0.2098076
v -0.3 0.325 0
v -0.242265 0.325 1.986821E-09
v -0.242265 0.5 0
v 7.450581E-09 0.5 0.1848076
v 0.1600481 0.5 -0.09240384
v 7.450581E-09 0.575 0.1848076
v 0.1600481 0.575 -0.09240385
v -0.1600481 0.5 -0.09240384
v -0.1600481 0.575 -0.09240384
v -0.2033494 0.5 -0.1174038
v -0.2466506 0.5 -0.1424038
v -0.2033494 0.525 -0.1174038
v -0.2466506 0.525 -0.1424038
v 7.450581E-09 0.5 0.2848076
v 7.450581E-09 0.5 0.2348076
v 7.450581E-09 0.525 0.2848076
v 7.450581E-09 0.525 0.2348076
v 0.2466506 0.5 -0.1424038
v 0.2033494 0.5 -0.1174038
v 0.2466506 0.525 -0.1424038
v 0.2033494 0.525 -0.1174038

vt 0.22 0.7925
vt 0.31 0.9483846
vt 0.2546409 0.7925
vt 0.3273205 0.9183846
vt 0.4899999 0.6366154
vt 0.3099999 0.6366155
vt 0.4726794 0.6666154
vt 0.3273205 0.6666154
vt 0.49 0.9483846
vt 0.58 0.7925
vt 0.4726795 0.9183846
vt 0.545359 0.7925
vt 0.8929423 0.2429651
vt 0.7070577 0.2429651
vt 0.8929423 0.3444476
vt 0.7070577 0.3444476
vt 0.154641 0.025
vt 0.12 0.025
vt 0.154641 0.13
vt 0.12 0.13
vt 0.4398076 0.025
vt 0.4098076 0.025
vt 0.4398076 0.13
vt 0.4098076 0.13
vt 0.8629423 0.04749998
vt 0.7370577 0.04749998
vt 0.8629423 0.1525
vt 0.7370577 0.1525
vt 0.8899984 0.2429003
vt 0.7099622 0.2429624
vt 0.8900335 0.3444428
vt 0.7099973 0.344505
vt 0.1580385 0.025
vt 0.1280385 0.025
vt 0.1580385 0.13
vt 0.1280385 0.13
vt 0.3798077 0.025
vt 0.3798077 0.13
vt 0.8726795 0.04749998
vt 0.7273206 0.04749998
vt 0.8726795 0.1525
vt 0.7273206 0.1525
vt 0.09803846 0.025
vt 0.09803846 0.13
vt 0.48 0.025
vt 0.445359 0.025
vt 0.48 0.13
vt 0.445359 0.13
vt 0.8929423 0.3570349
vt 0.7070577 0.3570349
vt 0.8900378 0.3570376
vt 0.7100016 0.3570997
vt 0.8726795 0.6258846
vt 0.945359 0.5
vt 0.8 0.6108846
vt 0.8960289 0.4445577
vt 0.2826795 0.145
vt 0.2826795 0.13
vt 0.21 0.175
vt 0.21 0.13
vt 0.2539231 0.13
vt 0.2539231 0.145
vt 0.3093654 0.13
vt 0.3093654 0.175
vt 0.6590573 0.7962914
vt 0.7262707 0.921959
vt 0.7083235 0.7430199
vt 0.7971303 0.9090602
vt 0.8726795 0.3741154
vt 0.7273206 0.3741154
vt 0.7039711 0.4445577
vt 0.3798077 0.145
vt 0.1580385 0.145
vt 0.2284808 0.13
vt 0.2284808 0.175
vt 0.8737292 0.6780409
vt 0.7327866 0.6743323
vt 0.8945462 0.74792
vt 0.654641 0.5
vt 0.7273206 0.6258846
vt 0.2839231 0.145
vt 0.2839231 0.13
vt 0.1373205 0.13
vt 0.1373205 0.145
vt 0.8672134 0.9256677
vt 0.9409427 0.8037086
vt 0.3273206 0.2666153
vt 0.3100001 0.2366154
vt 0.2779904 0.3220577
vt 0.2520097 0.3070576
vt 0.3243653 0.145
vt 0.3243653 0.13
vt 0.1280385 0.145
vt 0.1984808 0.13
vt 0.1984808 0.145
vt 0.5479904 0.7070577
vt 0.5220096 0.7220577
vt 0.22 0.3925
vt 0.2546411 0.3925
vt 0.49 0.5483845
vt 0.4726795 0.5183846
vt 0.4 0.5633845
vt 0.4 0.5333846
vt 0.3 0.145
vt 0.3 0.13
vt 0.21 0.145
vt 0.2273205 0.13
vt 0.2273205 0.145
vt 0.3 0.13
vt 0.3 0.145
vt 0.4 0.9333846
vt 0.4 0.9633846
vt 0.3273205 0.5183846
vt 0.31 0.5483846
vt 0.3726795 0.145
vt 0.3726795 0.13
vt 0.12 0.145
vt 0.49 0.2366154
vt 0.4726795 0.2666153
vt 0.5479904 0.3070576
vt 0.5220097 0.3220577
vt 0.4098076 0.145
vt 0.3393654 0.145
vt 0.3393654 0.13
vt 0.2134808 0.13
vt 0.2134808 0.145
vt 0.2779903 0.7220578
vt 0.2520096 0.7070577
vt 0.545359 0.3925
vt 0.58 0.3924999
vt 0.06803848 0.02500003
vt 0.3 0.025
vt 0.3519615 0.02500003
vt 0.06803848 0.025
vt 0.5319616 0.025
vt 0.4698077 0.025

vn 0 1 0
vn 0.7519205 0.4961391 0.4341215
vn -6.882551E-08 4.20116E-08 -1
vn -0.8660254 0 0.5
vn -0.8660254 0 -0.5
vn 0 0.496139 -0.8682432
vn 0.8660254 0 0.5
vn 0 8.51495E-08 1
vn -0.7519206 0.496139 0.4341215
vn 0.8660253 -5.676632E-09 -0.5
vn 0.8660254 0 0.4999999
vn 0 -1 0
vn -0.2021256 0 0.9793596
vn 0.7470874 0 -0.6647258
vn 0.3393319 0.920039 0.1959134
vn 0.9492131 0 -0.314634
vn -0.9492131 0 -0.314634
vn 0 0.9200391 -0.3918267
vn -0.7470875 0 -0.6647258
vn 0.2021259 0 0.9793596
vn -0.339332 0.920039 0.1959134
vn 0.7470875 0 0.6647258
vn -0.7720426 0 -0.6355708
vn -0.9364417 0 -0.3508233
vn 0.9492131 0 0.314634
vn 0.164399 0 0.9863939
vn -0.2021259 0 -0.9793596
vn 0.2021256 0 -0.9793596
vn -0.1643988 0 0.986394
vn 0.7720427 0 -0.6355706
vn -0.7470874 0 0.6647258
vn -0.9492131 0 0.314634
vn 0.9364417 0 -0.3508233
vn 0.5 6.745541E-08 -0.8660254
vn -0.5000001 0 0.8660254
vn 0.5000001 0 0.8660254
vn -0.5 0 -0.8660254
vn -1 0 0
vn 1 0 0

usemtl Default
f 44/56/12 43/55/12 47/71/12
f 45/68/1 46/67/1 48/78/1
f 15/20/34 13/131/34 18/18/34
f 14/133/35 16/105/35 20/132/35
f 35/20/36 33/134/36 38/18/36
f 34/135/37 36/47/37 40/45/37
f 25/36/38 23/134/38 28/34/38
f 24/136/39 26/24/39 30/22/39
f 4/4/1 2/2/1 1/1/1
f 1/1/1 3/3/1 4/4/1
f 8/8/1 6/6/1 5/5/1
f 5/5/1 7/7/1 8/8/1
f 12/12/1 10/10/1 9/9/1
f 9/9/1 11/11/1 12/12/1
f 16/16/2 14/14/2 13/13/2
f 13/13/2 15/15/2 16/16/2
f 15/20/3 18/18/3 17/17/3
f 17/17/3 19/19/3 15/20/3
f 22/24/4 21/22/4 20/21/4
f 20/21/4 16/23/4 22/24/4
f 19/28/5 17/26/5 21/25/5
f 21/25/5 22/27/5 19/28/5
f 26/32/6 24/30/6 23/29/6
f 23/29/6 25/31/6 26/32/6
f 25/36/4 28/34/4 27/33/4
f 27/33/4 29/35/4 25/36/4
f 32/38/7 31/37/7 30/22/7
f 30/22/7 26/24/7 32/38/7
f 29/42/8 27/40/8 31/39/8
f 31/39/8 32/41/8 29/42/8
f 36/16/9 34/14/9 33/13/9
f 33/13/9 35/15/9 36/16/9
f 35/44/7 38/43/7 37/34/7
f 37/34/7 39/36/7 35/44/7
f 42/48/3 41/46/3 40/45/3
f 40/45/3 36/47/3 42/48/3
f 39/28/10 37/26/10 41/25/10
f 41/25/10 42/27/10 39/28/10
f 2/50/11 16/16/11 15/15/11
f 15/15/11 1/49/11 2/50/11
f 6/52/3 26/32/3 25/31/3
f 25/31/3 5/51/3 6/52/3
f 10/50/4 36/16/4 35/15/4
f 35/15/4 9/49/4 10/50/4
f 44/56/12 19/54/12 22/53/12
f 22/53/12 43/55/12 44/56/12
f 43/60/13 22/58/13 4/57/13
f 4/57/13 45/59/13 43/60/13
f 46/64/14 3/62/14 19/61/14
f 19/61/14 44/63/14 46/64/14
f 45/68/15 4/66/15 3/65/15
f 3/65/15 46/67/15 45/68/15
f 47/71/12 29/70/12 32/69/12
f 32/69/12 44/56/12 47/71/12
f 44/63/16 32/38/16 8/72/16
f 8/72/16 46/64/16 44/63/16
f 48/75/17 7/73/17 29/35/17
f 29/35/17 47/74/17 48/75/17
f 46/67/18 8/77/18 7/76/18
f 7/76/18 48/78/18 46/67/18
f 43/55/12 39/80/12 42/79/12
f 42/79/12 47/71/12 43/55/12
f 47/74/19 42/82/19 12/81/19
f 12/81/19 48/75/19 47/74/19
f 45/59/20 11/84/20 39/83/20
f 39/83/20 43/60/20 45/59/20
f 48/78/21 12/86/21 11/85/21
f 11/85/21 45/68/21 48/78/21
f 50/90/12 25/88/12 29/87/12
f 29/87/12 49/89/12 50/90/12
f 49/92/22 29/38/22 7/72/22
f 7/72/22 51/91/22 49/92/22
f 52/95/23 5/93/23 25/36/23
f 25/36/23 50/94/23 52/95/23
f 51/97/1 7/7/1 5/5/1
f 5/5/1 52/96/1 51/97/1
f 49/89/12 42/99/12 36/98/12
f 36/98/12 50/90/12 49/89/12
f 50/94/24 36/82/24 10/81/24
f 10/81/24 52/95/24 50/94/24
f 51/91/25 12/62/25 42/61/25
f 42/61/25 49/92/25 51/91/25
f 52/96/1 10/10/1 12/12/1
f 12/12/1 51/97/1 52/96/1
f 54/103/12 22/101/12 16/100/12
f 16/100/12 53/102/12 54/103/12
f 53/60/26 16/105/26 2/104/26
f 2/104/26 55/106/26 53/60/26
f 56/110/27 4/108/27 22/107/27
f 22/107/27 54/109/27 56/110/27
f 55/112/1 2/2/1 4/4/1
f 4/4/1 56/111/1 55/112/1
f 53/102/12 35/114/12 39/113/12
f 39/113/12 54/103/12 53/102/12
f 54/109/28 39/116/28 11/115/28
f 11/115/28 56/110/28 54/109/28
f 55/106/29 9/117/29 35/20/29
f 35/20/29 53/60/29 55/106/29
f 56/111/1 11/11/1 9/9/1
f 9/9/1 55/112/1 56/111/1
f 58/121/12 32/119/12 26/118/12
f 26/118/12 57/120/12 58/121/12
f 57/124/30 26/24/30 6/122/30
f 6/122/30 59/123/30 57/124/30
f 60/126/31 8/73/31 32/35/31
f 32/35/31 58/125/31 60/126/31
f 59/128/1 6/6/1 8/8/1
f 8/8/1 60/127/1 59/128/1
f 57/120/12 15/130/12 19/129/12
f 19/129/12 58/121/12 57/120/12
f 58/125/32 19/82/32 3/81/32
f 3/81/32 60/126/32 58/125/32
f 59/123/33 1/62/33 15/61/33
f 15/61/33 57/124/33 59/123/33
f 60/127/1 3/3/1 1/1/1
f 1/1/1 59/128/1 60/127/1

