# ProBuilder 5.0.6
# https://unity3d.com/unity/features/worldbuilding/probuilder
# 12/26/2022 2:32:33 AM

mtllib ./Circle-32f.mtl
o Circle-32f

g Circle-32f
v -0.5 0 0
v 0 0 0
v -0.4903927 0.09754515 0
v -0.4619398 0.1913418 0
v -0.4157348 0.2777851 0
v -0.3535533 0.3535533 0
v -0.2777851 0.4157348 0
v -0.1913416 0.4619398 0
v -0.09754515 0.4903927 0
v 0 0.5 0
v 0.09754515 0.4903927 0
v 0.1913416 0.4619398 0
v 0.2777851 0.4157348 0
v 0.3535533 0.3535533 0
v 0.4157348 0.2777851 0
v 0.4619398 0.1913418 0
v 0.4903927 0.09754515 0
v 0.5 0 0
v 0.4903927 -0.09754515 0
v 0.4619398 -0.1913418 0
v 0.4157348 -0.2777852 0
v 0.3535535 -0.3535533 0
v 0.2777853 -0.4157348 0
v 0.1913419 -0.4619398 0
v 0.09754515 -0.4903927 0
v 0 -0.5 0
v -0.09754515 -0.4903927 0
v -0.1913419 -0.4619397 0
v -0.2777851 -0.4157349 0
v -0.3535533 -0.3535534 0
v -0.4157348 -0.2777852 0
v -0.4619398 -0.1913418 0
v -0.4903927 -0.09754515 0

vt 1 0.5
vt 0.5 0.5
vt 0.9903927 0.5975451
vt 0.9619398 0.6913418
vt 0.9157348 0.7777851
vt 0.8535533 0.8535533
vt 0.7777851 0.9157348
vt 0.6913416 0.9619398
vt 0.5975451 0.9903927
vt 0.5 1
vt 0.4024549 0.9903927
vt 0.3086584 0.9619398
vt 0.2222149 0.9157348
vt 0.1464467 0.8535533
vt 0.08426523 0.7777851
vt 0.03806019 0.6913418
vt 0.009607315 0.5975451
vt 0 0.5
vt 0.009607315 0.4024549
vt 0.03806019 0.3086582
vt 0.08426523 0.2222148
vt 0.1464465 0.1464467
vt 0.2222147 0.08426523
vt 0.3086581 0.03806019
vt 0.4024549 0.009607315
vt 0.5 0
vt 0.5975451 0.009607315
vt 0.6913419 0.03806031
vt 0.7777851 0.08426511
vt 0.8535533 0.1464466
vt 0.9157348 0.2222148
vt 0.9619398 0.3086582
vt 0.9903927 0.4024549

vn 0 0 -1

usemtl Portal
f 3/3/1 2/2/1 1/1/1
f 4/4/1 2/2/1 3/3/1
f 5/5/1 2/2/1 4/4/1
f 6/6/1 2/2/1 5/5/1
f 7/7/1 2/2/1 6/6/1
f 8/8/1 2/2/1 7/7/1
f 9/9/1 2/2/1 8/8/1
f 10/10/1 2/2/1 9/9/1
f 11/11/1 2/2/1 10/10/1
f 12/12/1 2/2/1 11/11/1
f 13/13/1 2/2/1 12/12/1
f 14/14/1 2/2/1 13/13/1
f 15/15/1 2/2/1 14/14/1
f 16/16/1 2/2/1 15/15/1
f 17/17/1 2/2/1 16/16/1
f 18/18/1 2/2/1 17/17/1
f 19/19/1 2/2/1 18/18/1
f 20/20/1 2/2/1 19/19/1
f 21/21/1 2/2/1 20/20/1
f 22/22/1 2/2/1 21/21/1
f 23/23/1 2/2/1 22/22/1
f 24/24/1 2/2/1 23/23/1
f 25/25/1 2/2/1 24/24/1
f 26/26/1 2/2/1 25/25/1
f 27/27/1 2/2/1 26/26/1
f 28/28/1 2/2/1 27/27/1
f 29/29/1 2/2/1 28/28/1
f 30/30/1 2/2/1 29/29/1
f 31/31/1 2/2/1 30/30/1
f 32/32/1 2/2/1 31/31/1
f 33/33/1 2/2/1 32/32/1
f 1/1/1 2/2/1 33/33/1

