# ProBuilder 4.3.1
# https://unity3d.com/unity/features/worldbuilding/probuilder
# 2020/6/25 22:18:48

mtllib ./Frame.mtl
o Frame

g Frame
v 0 0 0
v -0.6419549 0 0
v 0 4.5 0
v -0.6419549 4.5 0
v -0.6419549 0 -0.1937219
v -0.6419549 4.5 -0.1937219
v 0 0 -0.1
v 0 4.5 -0.1
v -0.638 0 0.807
v -1.638 0 0.807
v -0.638 4.5 0.807
v -1.638 4.5 0.807
v -1.638 0 -0.193
v -1.638 4.5 -0.193
v -0.638 0 -0.193
v -0.638 4.5 -0.193
v 0 0 0.608
v -0.6419549 0 0.608
v 0 4.5 0.608
v -0.6419549 4.5 0.608
v -0.6419549 0 0.8017218
v -0.6419549 4.5 0.8017218
v 0 0 0.708
v 0 4.5 0.708

vt 0 0
vt -0.6419549 0
vt 0 4.5
vt -0.6419549 4.5
vt -0.1937219 0
vt -0.1937219 4.5
vt 0.6632066 0
vt 0.0144463 0
vt 0.6632066 4.5
vt 0.0144463 4.5
vt 0.1 0
vt 0.1 4.5
vt 0.6419549 0
vt 0 -0.1
vt 0.6419549 -0.1937219
vt -0.6419549 -0.1937219
vt -1 0
vt -1 4.5
vt 1 0
vt 1 4.5
vt 0 -1
vt 1 -1
vt -1 -1
vt 0.6419549 4.5
vt 0.1937218 0
vt 0.1937218 4.5
vt -0.6632066 0
vt -0.01444626 0
vt -0.6632066 4.5
vt -0.01444626 4.5
vt -0.1 0
vt -0.1 4.5
vt 0 0.1000001
vt 0.6419549 0.1937218
vt -0.6419549 0.1937218

vn 0 0 1
vn -1 0 0
vn 0.144463 0 -0.9895102
vn 1 0 0
vn 0 1 0
vn 0 -1 0
vn 0 0 -1
vn 0.1444629 0 0.9895102

usemtl Body
f 3/3/1 4/4/1 2/2/1 1/1/1
f 4/3/2 6/6/2 5/5/2 2/1/2
f 6/9/3 8/10/3 7/8/3 5/7/3
f 8/12/4 3/3/4 1/1/4 7/11/4
f 8/14/5 6/15/5 4/13/5 3/1/5
f 1/1/6 2/2/6 5/16/6 7/14/6
f 11/3/1 12/18/1 10/17/1 9/1/1
f 12/3/2 14/18/2 13/17/2 10/1/2
f 14/20/7 16/3/7 15/1/7 13/19/7
f 16/20/4 11/3/4 9/1/4 15/19/4
f 16/21/5 14/22/5 12/19/5 11/1/5
f 9/1/6 10/17/6 13/23/6 15/21/6
f 17/1/7 18/13/7 20/24/7 19/3/7
f 18/1/2 21/25/2 22/26/2 20/3/2
f 21/27/8 23/28/8 24/30/8 22/29/8
f 23/31/4 17/1/4 19/3/4 24/32/4
f 19/1/5 20/13/5 22/34/5 24/33/5
f 23/33/6 21/35/6 18/2/6 17/1/6

