# ProBuilder 5.0.4
# https://unity3d.com/unity/features/worldbuilding/probuilder
# 5/30/2022 12:26:55 AM

mtllib ./Warhead.mtl
o Warhead

g Warhead
v -5 -5 0
v -5 5 0
v -4.330127 -5 2.5
v -4.330127 5 2.5
v -2.5 -5 4.330127
v -2.5 5 4.330127
v 2.185569E-07 -5 5
v 2.185569E-07 5 5
v 2.5 -5 4.330127
v 2.5 5 4.330127
v 4.330127 -5 2.5
v 4.330127 5 2.5
v 5 -5 -4.371139E-07
v 5 5 -4.371139E-07
v 4.330127 -5 -2.5
v 4.330127 5 -2.5
v 2.5 -5 -4.330127
v 2.5 5 -4.330127
v -5.96244E-08 -5 -5
v -5.96244E-08 5 -5
v -2.5 -5 -4.330127
v -2.5 5 -4.330127
v -4.330127 -5 -2.500001
v -4.330127 5 -2.500001
v 0 -5 0
v -3.75 5.9 0
v -2.5 6.2 0
v -2.165062 6.2 1.25
v -3.247597 5.9 1.875
v -1.25 6.2 2.165064
v -1.875 5.9 3.247595
v 0 6.2 2.5
v 0 5.9 3.75
v 1.25 6.2 2.165063
v 1.875 5.9 3.247595
v 2.165062 6.2 1.25
v 3.247597 5.9 1.875
v 2.5 6.2 -2.384186E-07
v 3.75 5.9 -2.384186E-07
v 2.165062 6.2 -1.25
v 3.247597 5.9 -1.875
v 1.25 6.2 -2.165064
v 1.875 5.9 -3.247595
v 0 6.2 -2.5
v 0 5.9 -3.75
v -1.25 6.2 -2.165064
v -1.875 5.9 -3.247595
v -2.165062 6.2 -1.25
v -3.247597 5.9 -1.875001
v -1.25 6.45 0
v -1.082531 6.45 0.625
v -1.25 6.7001 0
v 0 6.7001 0
v -1.082531 6.7001 0.625
v -0.625 6.45 1.082532
v -0.625 6.7001 1.082532
v 0 6.45 1.25
v 0 6.7001 1.25
v 0.625 6.45 1.082532
v 0.625 6.7001 1.082532
v 1.082531 6.45 0.625
v 1.082531 6.7001 0.625
v 1.25 6.45 0
v 1.25 6.7001 0
v 1.082531 6.45 -0.625
v 1.082531 6.7001 -0.625
v 0.625 6.45 -1.082532
v 0.625 6.7001 -1.082532
v 0 6.45 -1.25
v 0 6.7001 -1.25
v -0.625 6.45 -1.082532
v -0.625 6.7001 -1.082532
v -1.082531 6.45 -0.6250002
v -1.082531 6.7001 -0.6250002
v -4.375 5.5 0
v -3.78886 5.5 2.1875
v -2.1875 5.5 3.788861
v 0 5.5 4.375
v 2.1875 5.5 3.788861
v 3.78886 5.5 2.1875
v 4.375 5.5 -4.768372E-07
v 3.78886 5.5 -2.1875
v 2.1875 5.5 -3.788861
v 0 5.5 -4.375
v -2.1875 5.5 -3.788861
v -3.78886 5.5 -2.187501
v 3.910961 4.45 3.453425
v 3.45343 4.45 3.910957
v 3.910961 4.7001 3.453425
v 3.45343 4.7001 3.910957
v -3.45343 4.45 3.910956
v -3.910961 4.45 3.453424
v -3.45343 4.7001 3.910956
v -3.910961 4.7001 3.453424
v -3.910961 4.45 -3.453424
v -3.45343 4.45 -3.910956
v -3.910961 4.7001 -3.453424
v -3.45343 4.7001 -3.910956
v 3.45343 4.45 -3.910955
v 3.910961 4.45 -3.453424
v 3.45343 4.7001 -3.910955
v 3.910961 4.7001 -3.453424
v 1.789639 6.4501 1.332106
v 1.789639 6.2 1.332106
v 1.332108 6.2 1.789638
v 1.332108 6.4501 1.789638
v -1.332108 6.4501 1.789638
v -1.332108 6.2 1.789638
v -1.789639 6.2 1.332106
v -1.789639 6.4501 1.332106
v 1.332108 6.4501 -1.789638
v 1.332108 6.2 -1.789638
v 1.789639 6.2 -1.332106
v 1.789639 6.4501 -1.332106
v -1.789639 6.4501 -1.332107
v -1.789639 6.2 -1.332107
v -1.332108 6.2 -1.789638
v -1.332108 6.4501 -1.789638
v 2.8503 5.9501 2.392766
v 2.8503 5.7 2.392766
v 2.392769 5.7 2.850297
v 2.392769 5.9501 2.850297
v -2.392769 5.9501 2.850297
v -2.392769 5.7 2.850297
v -2.8503 5.7 2.392765
v -2.8503 5.9501 2.392765
v 2.392769 5.9501 -2.850297
v 2.392769 5.7 -2.850297
v 2.8503 5.7 -2.392765
v 2.8503 5.9501 -2.392765
v -2.8503 5.9501 -2.392766
v -2.8503 5.7 -2.392766
v -2.392769 5.7 -2.850298
v -2.392769 5.9501 -2.850298
v 3.203854 5.7001 2.746319
v 3.203854 5.45 2.746319
v 2.746323 5.45 3.203851
v 2.746323 5.7001 3.203851
v -2.746323 5.7001 3.20385
v -2.746323 5.45 3.20385
v -3.203854 5.45 2.746318
v -3.203854 5.7001 2.746318
v 2.746323 5.7001 -3.20385
v 2.746323 5.45 -3.20385
v 3.203854 5.45 -2.746318
v 3.203854 5.7001 -2.746318
v -3.203854 5.7001 -2.746319
v -3.203854 5.45 -2.746319
v -2.746323 5.45 -3.203851
v -2.746323 5.7001 -3.203851
v 3.557407 5.2001 3.099872
v 3.557407 4.95 3.099872
v 3.099876 4.95 3.557404
v 3.099876 5.2001 3.557404
v -3.099876 5.2001 3.557403
v -3.099876 4.95 3.557403
v -3.557407 4.95 3.099871
v -3.557407 5.2001 3.099871
v 3.099876 5.2001 -3.557403
v 3.099876 4.95 -3.557403
v 3.557407 4.95 -3.099871
v 3.557407 5.2001 -3.099871
v -3.557407 5.2001 -3.099872
v -3.557407 4.95 -3.099872
v -3.099876 4.95 -3.557404
v -3.099876 5.2001 -3.557404
v 3.557407 -5.05 3.099872
v 3.099876 -5.05 3.557404
v 3.910961 -5.05 3.453425
v 3.45343 -5.05 3.910957
v -3.099876 -5.05 3.557403
v -3.557407 -5.05 3.099871
v -3.45343 -5.05 3.910956
v -3.910961 -5.05 3.453424
v 3.099876 -5.05 -3.557403
v 3.557407 -5.05 -3.099871
v 3.45343 -5.05 -3.910956
v 3.910961 -5.05 -3.453424
v -3.557407 -5.05 -3.099872
v -3.099876 -5.05 -3.557404
v -3.910961 -5.05 -3.453425
v -3.45343 -5.05 -3.910957
v -0.625 6.7101 1.082532
v 0 6.7101 0
v 0 6.7101 1.25
v 0.625 6.7101 1.082532
v 1.082531 6.7101 0.625
v 1.25 6.7101 0
v 1.082531 6.7101 -0.625
v 0.625 6.7101 -1.082532
v 0 6.7101 -1.25
v -0.625 6.7101 -1.082532
v -1.082531 6.7101 -0.6250002
v -1.25 6.7101 0
v -1.082531 6.7101 0.625

vt -1.294096 -5
vt -1.294096 5
vt 1.294095 -5
vt 1.294095 5
vt -5 0
vt 0 0
vt -4.330127 2.5
vt -2.5 4.330127
vt 2.185569E-07 5
vt 2.5 4.330127
vt 4.330127 2.5
vt 5 -4.371139E-07
vt 4.330127 -2.5
vt 2.5 -4.330127
vt -5.96244E-08 -5
vt -2.5 -4.330127
vt -4.330127 -2.500001
vt 1.032084 -0.7476647
vt -0.2320732 -0.7224422
vt -0.5381731 0.5349306
vt 0.5729373 1.138394
vt 0.1417342 -0.7454466
vt -0.7284787 0.2123683
vt -0.04134272 1.27377
vt 1.26398 -0.1629529
vt 0.508496 -0.5632155
vt -0.7327435 -0.1971463
vt -0.6972882 1.066765
vt 1.164571 0.517661
vt -0.5084956 -0.5632158
vt -1.164571 0.5176607
vt 0.6972886 1.066765
vt 0.732744 -0.1971463
vt 0.7284775 0.2123679
vt -0.1417355 -0.7454466
vt -1.263981 -0.1629527
vt 0.04134155 1.273769
vt 0.5381744 0.5349306
vt 0.2320745 -0.7224426
vt -1.032082 -0.7476651
vt -0.5729361 1.138394
vt 0.2320743 0.7224424
vt 0.5381742 -0.5349302
vt -0.5729362 -1.138394
vt -1.032083 0.747665
vt 0.7284783 -0.2123685
vt 0.04134237 -1.27377
vt -1.263981 0.1629528
vt -0.1417346 0.7454466
vt -1.164571 -0.5176607
vt -0.508496 0.5632157
vt 0.7327436 0.1971467
vt 0.6972882 -1.066765
vt -0.6972882 -1.066765
vt -0.7327435 0.1971467
vt 0.508496 0.5632157
vt 1.164571 -0.5176607
vt 0.1417365 0.7454457
vt 1.263983 0.1629514
vt -0.04134056 -1.27377
vt -0.7284765 -0.2123688
vt 0.5729352 -1.138395
vt -0.5381752 -0.5349309
vt -0.2320754 0.7224424
vt 1.032081 0.7476649
vt -1.475933 -0.6922785
vt -1.628983 -0.06359211
vt 1.25 0
vt 1.082531 0.625
vt -0.9650466 -1.313893
vt -1.400153 -0.8349858
vt 0.625 1.082532
vt -0.1416699 -1.624056
vt -0.7622896 -1.441021
vt 0 1.25
vt 0.7622901 -1.441021
vt 0.1416703 -1.624056
vt -0.625 1.082532
vt 1.400152 -0.8349862
vt 0.9650455 -1.313893
vt -1.082531 0.625
vt 1.628984 -0.06359219
vt 1.475934 -0.6922786
vt -1.25 0
vt 1.475934 0.6922789
vt 1.628984 0.06359249
vt -1.082531 -0.625
vt 0.9650463 1.313893
vt 1.400153 0.8349857
vt -0.625 -1.082532
vt 0.1416699 1.624056
vt 0.7622896 1.441021
vt 0 -1.25
vt -0.7622896 1.441021
vt -0.1416699 1.624056
vt 0.625 -1.082532
vt -1.400151 0.8349855
vt -0.9650444 1.313893
vt 1.082531 -0.6250002
vt -1.628985 0.06359197
vt -1.475935 0.6922786
vt 2.539804 -0.7135935
vt 1.765647 -0.7355703
vt 1.229974 1.464832
vt 1.927607 1.801152
vt 0.3795321 1.874707
vt 1.902406 0.1985308
vt 0.8313296 2.503739
vt 2.571758 0.588109
vt -0.6500144 1.798903
vt 1.522155 1.158282
vt -0.5909224 2.571115
vt 1.891557 1.838976
vt -1.522154 1.158281
vt 0.6500148 1.798903
vt -1.891557 1.838975
vt 0.5909224 2.571115
vt -1.902408 0.198531
vt -0.3795332 1.874706
vt -2.571759 0.5881092
vt -0.8313311 2.503738
vt -1.765646 -0.7355709
vt -1.229972 1.464832
vt -2.539803 -0.7135941
vt -1.927606 1.801152
vt -1.229973 -1.464832
vt -1.765646 0.7355703
vt -1.927606 -1.801151
vt -2.539803 0.7135935
vt -0.3795324 -1.874707
vt -1.902407 -0.1985309
vt -0.8313296 -2.503739
vt -2.571759 -0.5881088
vt 0.5909223 -2.571114
vt -1.891556 -1.838976
vt -1.522155 -1.158282
vt 0.6500145 -1.798903
vt 1.891556 -1.838976
vt -0.5909221 -2.571114
vt -0.6500144 -1.798903
vt 1.522155 -1.158282
vt 1.902409 -0.1985323
vt 0.3795342 -1.874707
vt 2.57176 -0.5881105
vt 0.8313313 -2.503739
vt 1.927605 -1.801153
vt 1.229972 -1.464833
vt 1.765645 0.7355705
vt 2.539802 0.7135937
vt 0.3235237 6.45
vt -0.3235239 6.45
vt 0.3235237 6.7001
vt -0.3235239 6.7001
vt 0.3235216 4.45
vt -0.3235255 4.45
vt 0.3235216 4.7001
vt -0.3235255 4.7001
vt -1.207407 6.7001
vt -1.207407 6.45
vt -2.207407 6.4501
vt -2.207407 6.2
vt 1.207407 6.45
vt 1.207407 6.7001
vt 2.207407 6.2
vt 2.207407 6.4501
vt 0.5508811 -0.08367828
vt 0.1003357 -0.5480905
vt -0.1889497 0.6340617
vt -0.6394951 0.1696495
vt -0.100336 -0.5480903
vt -0.5508814 -0.08367784
vt 0.6394948 0.1696495
vt 0.1889495 0.634062
vt 0.100336 0.5480903
vt 0.5508814 0.08367784
vt -0.6394948 -0.1696495
vt -0.1889495 -0.634062
vt -0.5508811 0.08367814
vt -0.1003358 0.5480904
vt 0.1889496 -0.6340617
vt 0.639495 -0.1696497
vt -3.707407 5.9501
vt -3.707407 5.7
vt 3.707407 5.7
vt 3.707407 5.9501
vt 0.183177 0.2721709
vt -0.262151 -0.1972467
vt -0.9639029 1.360385
vt -1.409231 0.8909667
vt 0.2621502 -0.1972468
vt -0.1831777 0.2721711
vt 1.40923 0.8909663
vt 0.9639021 1.360384
vt -0.2621502 0.1972468
vt 0.1831777 -0.2721711
vt -1.40923 -0.8909663
vt -0.9639021 -1.360384
vt -0.1831763 -0.2721708
vt 0.2621517 0.1972465
vt 0.9639035 -1.360385
vt 1.409231 -0.890967
vt -4.207407 5.7001
vt -4.207407 5.45
vt 4.207407 5.45
vt 4.207407 5.7001
vt -0.2725555 0.6778351
vt -0.7039198 0.1955542
vt -0.6892226 1.050513
vt -1.120587 0.5682318
vt 0.7039198 0.1955537
vt 0.2725555 0.6778346
vt 1.120587 0.5682313
vt 0.6892226 1.050512
vt -0.7039189 -0.1955528
vt -0.2725547 -0.6778338
vt -1.120586 -0.5682302
vt -0.6892217 -1.050511
vt 0.2725547 -0.6778347
vt 0.7039189 -0.1955537
vt 0.6892217 -1.050512
vt 1.120586 -0.5682311
vt -4.707407 5.2001
vt -4.707407 4.95
vt 4.707407 4.95
vt 4.707407 5.2001
vt 1.048594 -0.3452306
vt 0.6750219 -0.8735428
vt 0.4712436 0.06301712
vt 0.09767121 -0.465295
vt -0.6750219 -0.8735432
vt -1.048594 -0.345231
vt -0.09767121 -0.4652955
vt -0.4712436 0.06301671
vt 0.675023 0.873544
vt 1.048595 0.3452317
vt 0.09767225 0.4652964
vt 0.4712445 -0.06301577
vt -1.048595 0.3452309
vt -0.675023 0.8735431
vt -0.4712445 -0.06301659
vt -0.09767225 0.4652956
vt 3.557407 3.099872
vt 3.099876 3.557404
vt 3.910961 3.453425
vt 3.45343 3.910957
vt -5.207407 4.7001
vt -5.207407 4.45
vt 5.207407 4.45
vt 5.207407 4.7001
vt -0.1061071 0.4712649
vt -0.4796795 -0.0570473
vt -3.099876 3.557403
vt -3.557407 3.099871
vt -3.45343 3.910956
vt -3.910961 3.453424
vt 0.4796795 -0.05704771
vt 0.1061071 0.4712645
vt 3.099876 -3.557403
vt 3.557407 -3.099871
vt 3.45343 -3.910956
vt 3.910961 -3.453424
vt -0.4796785 0.05704894
vt -0.1061062 -0.4712633
vt -3.557407 -3.099872
vt -3.099876 -3.557404
vt -3.910961 -3.453425
vt -3.45343 -3.910957
vt 0.1061062 -0.4712641
vt 0.4796785 0.05704811
vt -5.207407 -5.05
vt -4.707407 -5.05
vt 4.707407 -5.05
vt 5.207407 -5.05
vt -0.3235225 -5.05
vt 0.3235247 -5.05
vt 0.75 0.9330128
vt 0.5 0.5
vt 0.5 1
vt 0.25 0.9330127
vt 0.06698761 0.75
vt 0 0.5
vt 0.06698761 0.25
vt 0.25 0.06698723
vt 0.5 0
vt 0.75 0.06698723
vt 0.9330124 0.2499999
vt 1 0.5
vt 0.9330124 0.75

vn -0.6947466 -0.7192546 3.215319E-08
vn -0.8991213 0.4376994 4.234366E-08
vn -0.6016682 -0.7192546 0.3473733
vn -0.7786618 0.4376995 0.4495607
vn -0.3473733 -0.7192546 0.6016682
vn -0.4495607 0.4376994 0.7786619
vn 5.358864E-08 -0.7192546 0.6947466
vn 7.198423E-08 0.4376994 0.8991213
vn 0.3473733 -0.7192546 0.6016682
vn 0.4495607 0.4376996 0.7786618
vn 0.6016682 -0.7192546 0.3473733
vn 0.7786618 0.4376996 0.4495607
vn 0.6947466 -0.7192546 -5.358864E-08
vn 0.8991213 0.4376994 -6.774987E-08
vn 0.6016682 -0.7192546 -0.3473733
vn 0.7786618 0.4376995 -0.4495607
vn 0.3473733 -0.7192546 -0.6016682
vn 0.4495607 0.4376994 -0.7786619
vn 0 -0.7192546 -0.6947466
vn 8.468733E-09 0.4376995 -0.8991213
vn -0.3473732 -0.7192546 -0.6016682
vn -0.4495606 0.4376995 -0.778662
vn -0.6016681 -0.7192546 -0.3473734
vn -0.7786618 0.4376996 -0.4495608
vn 0 -1 0
vn -0.3910056 0.9203883 1.064279E-07
vn -0.2147783 0.9766629 -7.091136E-08
vn -0.1860033 0.9766629 0.1073891
vn -0.3386211 0.9203882 0.1955029
vn -0.1073892 0.9766629 0.1860034
vn -0.1955028 0.9203883 0.3386208
vn 2.239306E-08 0.9766629 0.2147783
vn 3.800998E-08 0.9203884 0.3910054
vn 0.1073893 0.9766628 0.1860035
vn 0.1955027 0.9203884 0.3386207
vn 0.1860033 0.9766629 0.1073892
vn 0.338621 0.9203882 0.1955028
vn 0.2147782 0.9766629 -1.212958E-08
vn 0.3910059 0.9203882 -2.280599E-08
vn 0.1860033 0.9766629 -0.1073891
vn 0.3386211 0.9203882 -0.195503
vn 0.1073892 0.9766629 -0.1860034
vn 0.1955028 0.9203883 -0.3386208
vn 0 0.9766628 -0.2147784
vn 0 0.9203884 -0.3910054
vn -0.1073892 0.9766628 -0.1860035
vn -0.1955027 0.9203883 -0.3386208
vn -0.1860034 0.9766629 -0.1073892
vn -0.3386208 0.9203883 -0.1955029
vn -0.1961161 0.9805807 9.326076E-09
vn -0.1698416 0.9805806 0.09805813
vn 0 1 0
vn -0.09805813 0.9805807 0.1698415
vn 3.73043E-08 0.9805807 0.1961161
vn 0.09805815 0.9805807 0.1698415
vn 0.1698416 0.9805806 0.09805815
vn 0.1961161 0.9805807 -3.73043E-09
vn 0.1698416 0.9805806 -0.09805813
vn 0.09805813 0.9805807 -0.1698415
vn 0 0.9805807 -0.1961161
vn -0.0980581 0.9805807 -0.1698415
vn -0.1698416 0.9805806 -0.09805813
vn -0.5826088 0.8127527 6.79638E-08
vn -0.504554 0.8127527 0.2913044
vn -0.2913043 0.8127528 0.5045539
vn 5.286073E-08 0.8127528 0.5826087
vn 0.2913044 0.8127527 0.504554
vn 0.5045542 0.8127526 0.2913045
vn 0.5826086 0.8127528 -4.153344E-08
vn 0.5045541 0.8127527 -0.2913045
vn 0.2913044 0.8127528 -0.5045539
vn 0 0.8127528 -0.5826088
vn -0.2913044 0.8127528 -0.504554
vn -0.5045542 0.8127525 -0.2913046
vn 0.2588192 0 0.9659258
vn 0.7071075 0 0.7071061
vn -0.2588188 0 0.9659259
vn -0.7071075 0 0.7071061
vn -0.9659255 0 0.2588202
vn -0.9659256 0 -0.2588201
vn -0.7071075 0 -0.7071061
vn -0.2588188 0 -0.9659259
vn 0.2588188 0 -0.9659259
vn 0.7071075 0 -0.7071061
vn 0.9659255 0 -0.2588202
vn 0.9659255 0 0.2588202
vn 0.1714987 0.9701425 0.1714984
vn -0.1714987 0.9701425 0.1714984
vn 0.1714987 0.9701425 -0.1714984
vn -0.1714987 0.9701425 -0.1714984
vn 0.2236069 0.9486833 0.2236066
vn -0.223607 0.9486833 0.2236066
vn 0.223607 0.9486833 -0.2236066
vn -0.2236068 0.9486833 -0.2236066
vn 0.3162281 0.8944272 0.3162274
vn -0.3162281 0.8944272 0.3162274
vn 0.3162282 0.8944271 -0.3162275
vn -0.3162282 0.8944271 -0.3162275
vn 0.5000005 0.7071068 0.4999995
vn -0.5000005 0.7071068 0.4999995
vn 0.5000006 0.7071066 -0.4999996
vn -0.5000006 0.7071066 -0.4999996

usemtl Metal002
f 1/5/1 25/6/25 3/7/3
f 3/7/3 25/6/25 5/8/5
f 5/8/5 25/6/25 7/9/7
f 7/9/7 25/6/25 9/10/9
f 9/10/9 25/6/25 11/11/11
f 11/11/11 25/6/25 13/12/13
f 13/12/13 25/6/25 15/13/15
f 15/13/15 25/6/25 17/14/17
f 17/14/17 25/6/25 19/15/19
f 19/15/19 25/6/25 21/16/21
f 21/16/21 25/6/25 23/17/23
f 23/17/23 25/6/25 1/5/1
f 54/69/52 53/6/52 52/68/52
f 56/72/52 53/6/52 54/69/52
f 58/75/52 53/6/52 56/72/52
f 60/78/52 53/6/52 58/75/52
f 62/81/52 53/6/52 60/78/52
f 64/84/52 53/6/52 62/81/52
f 66/87/52 53/6/52 64/84/52
f 68/90/52 53/6/52 66/87/52
f 70/93/52 53/6/52 68/90/52
f 72/96/52 53/6/52 70/93/52
f 74/99/52 53/6/52 72/96/52
f 52/68/52 53/6/52 74/99/52
f 4/4/4 2/2/2 1/1/1
f 1/1/1 3/3/3 4/4/4
f 6/4/6 4/2/4 3/1/3
f 3/1/3 5/3/5 6/4/6
f 8/4/8 6/2/6 5/1/5
f 5/1/5 7/3/7 8/4/8
f 10/4/10 8/2/8 7/1/7
f 7/1/7 9/3/9 10/4/10
f 12/4/12 10/2/10 9/1/9
f 9/1/9 11/3/11 12/4/12
f 14/4/14 12/2/12 11/1/11
f 11/1/11 13/3/13 14/4/14
f 16/4/16 14/2/14 13/1/13
f 13/1/13 15/3/15 16/4/16
f 18/4/18 16/2/16 15/1/15
f 15/1/15 17/3/17 18/4/18
f 20/4/20 18/2/18 17/1/17
f 17/1/17 19/3/19 20/4/20
f 22/4/22 20/2/20 19/1/19
f 19/1/19 21/3/21 22/4/22
f 24/4/24 22/2/22 21/1/21
f 21/1/21 23/3/23 24/4/24
f 2/4/2 24/2/24 23/1/23
f 23/1/23 1/3/1 2/4/2
f 28/20/28 27/19/27 26/18/26
f 26/18/26 29/21/29 28/20/28
f 31/24/31 30/23/30 28/22/28
f 28/22/28 29/25/29 31/24/31
f 33/28/33 32/27/32 30/26/30
f 30/26/30 31/29/31 33/28/33
f 33/32/33 35/31/35 34/30/34
f 34/30/34 32/33/32 33/32/33
f 37/36/37 36/35/36 34/34/34
f 34/34/34 35/37/35 37/36/37
f 39/40/39 38/39/38 36/38/36
f 36/38/36 37/41/37 39/40/39
f 41/44/41 40/43/40 38/42/38
f 38/42/38 39/45/39 41/44/41
f 41/48/41 43/47/43 42/46/42
f 42/46/42 40/49/40 41/48/41
f 42/51/42 43/50/43 45/53/45
f 45/53/45 44/52/44 42/51/42
f 44/55/44 45/54/45 47/57/47
f 47/57/47 46/56/46 44/55/44
f 47/60/47 49/59/49 48/58/48
f 48/58/48 46/61/46 47/60/47
f 27/64/27 48/63/48 49/62/49
f 49/62/49 26/65/26 27/64/27
f 51/67/51 50/66/50 27/19/27
f 27/19/27 28/20/28 51/67/51
f 30/23/30 55/71/53 51/70/51
f 51/70/51 28/22/28 30/23/30
f 32/27/32 57/74/54 55/73/53
f 55/73/53 30/26/30 32/27/32
f 32/33/32 34/30/34 59/77/55
f 59/77/55 57/76/54 32/33/32
f 36/35/36 61/80/56 59/79/55
f 59/79/55 34/34/34 36/35/36
f 38/39/38 63/83/57 61/82/56
f 61/82/56 36/38/36 38/39/38
f 40/43/40 65/86/58 63/85/57
f 63/85/57 38/42/38 40/43/40
f 40/49/40 42/46/42 67/89/59
f 67/89/59 65/88/58 40/49/40
f 67/91/59 42/51/42 44/52/44
f 44/52/44 69/92/60 67/91/59
f 69/94/60 44/55/44 46/56/46
f 46/56/46 71/95/61 69/94/60
f 46/61/46 48/58/48 73/98/62
f 73/98/62 71/97/61 46/61/46
f 50/101/50 73/100/62 48/63/48
f 48/63/48 27/64/27 50/101/50
f 76/104/64 75/103/63 2/102/2
f 2/102/2 4/105/4 76/104/64
f 29/21/29 26/18/26 75/103/63
f 75/103/63 76/104/64 29/21/29
f 77/106/65 31/24/31 29/25/29
f 29/25/29 76/107/64 77/106/65
f 6/108/6 77/106/65 76/107/64
f 76/107/64 4/109/4 6/108/6
f 78/110/66 33/28/33 31/29/31
f 31/29/31 77/111/65 78/110/66
f 8/112/8 78/110/66 77/111/65
f 77/111/65 6/113/6 8/112/8
f 78/115/66 79/114/67 35/31/35
f 35/31/35 33/32/33 78/115/66
f 8/117/8 10/116/10 79/114/67
f 79/114/67 78/115/66 8/117/8
f 80/118/68 37/36/37 35/37/35
f 35/37/35 79/119/67 80/118/68
f 12/120/12 80/118/68 79/119/67
f 79/119/67 10/121/10 12/120/12
f 81/122/69 39/40/39 37/41/37
f 37/41/37 80/123/68 81/122/69
f 14/124/14 81/122/69 80/123/68
f 80/123/68 12/125/12 14/124/14
f 82/126/70 41/44/41 39/45/39
f 39/45/39 81/127/69 82/126/70
f 16/128/16 82/126/70 81/127/69
f 81/127/69 14/129/14 16/128/16
f 82/131/70 83/130/71 43/47/43
f 43/47/43 41/48/41 82/131/70
f 16/133/16 18/132/18 83/130/71
f 83/130/71 82/131/70 16/133/16
f 83/136/71 18/135/18 20/134/20
f 20/134/20 84/137/72 83/136/71
f 43/50/43 83/136/71 84/137/72
f 84/137/72 45/53/45 43/50/43
f 84/140/72 20/139/20 22/138/22
f 22/138/22 85/141/73 84/140/72
f 45/54/45 84/140/72 85/141/73
f 85/141/73 47/57/47 45/54/45
f 47/60/47 85/143/73 86/142/74
f 86/142/74 49/59/49 47/60/47
f 22/145/22 24/144/24 86/142/74
f 86/142/74 85/143/73 22/145/22
f 24/146/24 2/149/2 75/148/63
f 75/148/63 86/147/74 24/146/24
f 26/65/26 49/62/49 86/147/74
f 86/147/74 75/148/63 26/65/26
f 58/153/75 57/151/75 59/150/75
f 59/150/75 60/152/75 58/153/75
f 90/157/76 88/155/76 87/154/76
f 87/154/76 89/156/76 90/157/76
f 56/153/77 55/151/77 57/150/77
f 57/150/77 58/152/77 56/153/77
f 94/157/78 92/155/78 91/154/78
f 91/154/78 93/156/78 94/157/78
f 52/153/79 50/151/79 51/150/79
f 51/150/79 54/152/79 52/153/79
f 74/153/80 73/151/80 50/150/80
f 50/150/80 52/152/80 74/153/80
f 98/157/81 96/155/81 95/154/81
f 95/154/81 97/156/81 98/157/81
f 70/153/82 69/151/82 71/150/82
f 71/150/82 72/152/82 70/153/82
f 68/153/83 67/151/83 69/150/83
f 69/150/83 70/152/83 68/153/83
f 102/157/84 100/155/84 99/154/84
f 99/154/84 101/156/84 102/157/84
f 64/153/85 63/151/85 65/150/85
f 65/150/85 66/152/85 64/153/85
f 62/153/86 61/151/86 63/150/86
f 63/150/86 64/152/86 62/153/86
f 104/161/84 61/159/84 62/158/84
f 62/158/84 103/160/84 104/161/84
f 106/165/78 60/163/78 59/162/78
f 59/162/78 105/164/78 106/165/78
f 103/169/87 62/167/87 60/166/87
f 60/166/87 106/168/87 103/169/87
f 108/161/76 55/159/76 56/158/76
f 56/158/76 107/160/76 108/161/76
f 110/165/81 54/163/81 51/162/81
f 51/162/81 109/164/81 110/165/81
f 107/173/88 56/171/88 54/170/88
f 54/170/88 110/172/88 107/173/88
f 112/161/81 67/159/81 68/158/81
f 68/158/81 111/160/81 112/161/81
f 114/165/76 66/163/76 65/162/76
f 65/162/76 113/164/76 114/165/76
f 111/177/89 68/175/89 66/174/89
f 66/174/89 114/176/89 111/177/89
f 116/161/78 73/159/78 74/158/78
f 74/158/78 115/160/78 116/161/78
f 118/165/84 72/163/84 71/162/84
f 71/162/84 117/164/84 118/165/84
f 115/181/90 74/179/90 72/178/90
f 72/178/90 118/180/90 115/181/90
f 120/183/84 104/161/84 103/160/84
f 103/160/84 119/182/84 120/183/84
f 122/185/78 106/165/78 105/164/78
f 105/164/78 121/184/78 122/185/78
f 119/189/91 103/187/91 106/186/91
f 106/186/91 122/188/91 119/189/91
f 124/183/76 108/161/76 107/160/76
f 107/160/76 123/182/76 124/183/76
f 126/185/81 110/165/81 109/164/81
f 109/164/81 125/184/81 126/185/81
f 123/193/92 107/191/92 110/190/92
f 110/190/92 126/192/92 123/193/92
f 128/183/81 112/161/81 111/160/81
f 111/160/81 127/182/81 128/183/81
f 130/185/76 114/165/76 113/164/76
f 113/164/76 129/184/76 130/185/76
f 127/197/93 111/195/93 114/194/93
f 114/194/93 130/196/93 127/197/93
f 132/183/78 116/161/78 115/160/78
f 115/160/78 131/182/78 132/183/78
f 134/185/84 118/165/84 117/164/84
f 117/164/84 133/184/84 134/185/84
f 131/201/94 115/199/94 118/198/94
f 118/198/94 134/200/94 131/201/94
f 136/203/84 120/183/84 119/182/84
f 119/182/84 135/202/84 136/203/84
f 138/205/78 122/185/78 121/184/78
f 121/184/78 137/204/78 138/205/78
f 135/209/95 119/207/95 122/206/95
f 122/206/95 138/208/95 135/209/95
f 140/203/76 124/183/76 123/182/76
f 123/182/76 139/202/76 140/203/76
f 142/205/81 126/185/81 125/184/81
f 125/184/81 141/204/81 142/205/81
f 139/213/96 123/211/96 126/210/96
f 126/210/96 142/212/96 139/213/96
f 144/203/81 128/183/81 127/182/81
f 127/182/81 143/202/81 144/203/81
f 146/205/76 130/185/76 129/184/76
f 129/184/76 145/204/76 146/205/76
f 143/217/97 127/215/97 130/214/97
f 130/214/97 146/216/97 143/217/97
f 148/203/78 132/183/78 131/182/78
f 131/182/78 147/202/78 148/203/78
f 150/205/84 134/185/84 133/184/84
f 133/184/84 149/204/84 150/205/84
f 147/221/98 131/219/98 134/218/98
f 134/218/98 150/220/98 147/221/98
f 152/223/84 136/203/84 135/202/84
f 135/202/84 151/222/84 152/223/84
f 154/225/78 138/205/78 137/204/78
f 137/204/78 153/224/78 154/225/78
f 151/229/99 135/227/99 138/226/99
f 138/226/99 154/228/99 151/229/99
f 156/223/76 140/203/76 139/202/76
f 139/202/76 155/222/76 156/223/76
f 158/225/81 142/205/81 141/204/81
f 141/204/81 157/224/81 158/225/81
f 155/233/100 139/231/100 142/230/100
f 142/230/100 158/232/100 155/233/100
f 160/223/81 144/203/81 143/202/81
f 143/202/81 159/222/81 160/223/81
f 162/225/76 146/205/76 145/204/76
f 145/204/76 161/224/76 162/225/76
f 159/237/101 143/235/101 146/234/101
f 146/234/101 162/236/101 159/237/101
f 164/223/78 148/203/78 147/202/78
f 147/202/78 163/222/78 164/223/78
f 166/225/84 150/205/84 149/204/84
f 149/204/84 165/224/84 166/225/84
f 163/241/102 147/239/102 150/238/102
f 150/238/102 166/240/102 163/241/102
f 170/245/25 168/243/25 167/242/25
f 167/242/25 169/244/25 170/245/25
f 87/247/84 152/223/84 151/222/84
f 151/222/84 89/246/84 87/247/84
f 90/249/78 154/225/78 153/224/78
f 153/224/78 88/248/78 90/249/78
f 89/251/99 151/229/99 154/228/99
f 154/228/99 90/250/99 89/251/99
f 174/255/25 172/253/25 171/252/25
f 171/252/25 173/254/25 174/255/25
f 91/247/76 156/223/76 155/222/76
f 155/222/76 93/246/76 91/247/76
f 94/249/81 158/225/81 157/224/81
f 157/224/81 92/248/81 94/249/81
f 93/257/100 155/233/100 158/232/100
f 158/232/100 94/256/100 93/257/100
f 178/261/25 176/259/25 175/258/25
f 175/258/25 177/260/25 178/261/25
f 99/247/81 160/223/81 159/222/81
f 159/222/81 101/246/81 99/247/81
f 102/249/76 162/225/76 161/224/76
f 161/224/76 100/248/76 102/249/76
f 101/263/101 159/237/101 162/236/101
f 162/236/101 102/262/101 101/263/101
f 182/267/25 180/265/25 179/264/25
f 179/264/25 181/266/25 182/267/25
f 95/247/78 164/223/78 163/222/78
f 163/222/78 97/246/78 95/247/78
f 98/249/84 166/225/84 165/224/84
f 165/224/84 96/248/84 98/249/84
f 97/269/102 163/241/102 166/240/102
f 166/240/102 98/268/102 97/269/102
f 175/271/81 160/223/81 99/247/81
f 99/247/81 177/270/81 175/271/81
f 178/273/76 100/248/76 161/224/76
f 161/224/76 176/272/76 178/273/76
f 177/275/84 99/154/84 100/155/84
f 100/155/84 178/274/84 177/275/84
f 179/271/78 164/223/78 95/247/78
f 95/247/78 181/270/78 179/271/78
f 182/273/84 96/248/84 165/224/84
f 165/224/84 180/272/84 182/273/84
f 181/275/81 95/154/81 96/155/81
f 96/155/81 182/274/81 181/275/81
f 171/271/76 156/223/76 91/247/76
f 91/247/76 173/270/76 171/271/76
f 174/273/81 92/248/81 157/224/81
f 157/224/81 172/272/81 174/273/81
f 173/275/78 91/154/78 92/155/78
f 92/155/78 174/274/78 173/275/78
f 167/271/84 152/223/84 87/247/84
f 87/247/84 169/270/84 167/271/84
f 170/273/78 88/248/78 153/224/78
f 153/224/78 168/272/78 170/273/78
f 169/275/76 87/154/76 88/155/76
f 88/155/76 170/274/76 169/275/76

usemtl SCP-Logo2
f 185/278/52 184/277/52 183/276/52
f 186/279/52 184/277/52 185/278/52
f 187/280/52 184/277/52 186/279/52
f 188/281/52 184/277/52 187/280/52
f 189/282/52 184/277/52 188/281/52
f 190/283/52 184/277/52 189/282/52
f 191/284/52 184/277/52 190/283/52
f 192/285/52 184/277/52 191/284/52
f 193/286/52 184/277/52 192/285/52
f 194/287/52 184/277/52 193/286/52
f 195/288/52 184/277/52 194/287/52
f 183/276/52 184/277/52 195/288/52

