# ProBuilder 5.0.4
# https://unity3d.com/unity/features/worldbuilding/probuilder
# 5/30/2022 12:26:55 AM

mtllib ./Warhead-Silo.mtl
o Warhead-Silo

g Warhead-Silo
v 7.5 9.82495 -7.499937
v 0.75 9.82495 -7.499937
v 7.5 12.07505 -7.499937
v 0.75 12.07505 -7.499937
v -0.75 9.82495 -7.499937
v -7.5 9.82495 -7.499937
v -0.75 12.07505 -7.499937
v -7.5 12.07505 -7.499937
v 7.5 14.27515 -7.499937
v 0.75 14.27515 -7.499937
v -0.75 14.27515 -7.499937
v -7.5 14.27515 -7.499937
v 7.5 -15.27515 -7.600063
v 0.75 -15.27515 -7.600063
v 7.5 -15.27515 -7.499954
v 0.75 -15.27515 -7.499963
v 0.75 9.82495 -7.600037
v 0.75 12.07505 -7.600037
v -0.75 12.07505 -7.600037
v -0.75 -15.27515 -7.600063
v -7.5 -15.27515 -7.600063
v -0.75 -15.27515 -7.499963
v -7.5 -15.27515 -7.499954
v -0.75 9.82495 -7.600037
v 0.75 9.82495 -5.399937
v 5.4 9.82495 -5.399937
v 0.75 9.72485 -5.399937
v 5.4 9.72485 -5.399937
v -5.4 9.82495 -5.399937
v -0.75 9.82495 -5.399937
v -5.4 9.72485 -5.399937
v -0.75 9.72485 -5.399937
v -0.75 14.27515 -6.499937
v -6.5 14.27515 -6.499937
v -0.75 15.27515 -6.499937
v -6.5 15.27515 -6.499937
v 0.75 14.27515 -6.499937
v 0.75 15.27515 -6.499937
v 6.5 14.27515 -6.499937
v 6.5 15.27515 -6.499937
v -7.6 -15.27515 -7.499949
v -7.6 -15.27515 -7.600063
v 7.6 -15.27515 -7.600063
v 7.6 -15.27515 -7.499949
v 5.4 9.72485 4.400064
v 5.4 9.82495 4.400064
v 7.6 -15.27515 7.500063
v 7.5 -15.27515 7.500063
v 7.5 9.82495 7.500063
v 7.5 12.07505 7.500063
v 7.5 14.27515 7.500063
v 6.5 14.27515 6.500063
v 6.5 15.27515 6.500063
v -7.5 12.07505 7.500063
v -7.5 9.82495 7.500063
v -7.5 -15.27515 7.500063
v -7.6 -15.27515 7.500063
v -5.400002 9.82495 4.400064
v -5.400002 9.72485 4.400064
v -7.5 14.27515 7.500063
v -6.5 15.27515 6.500063
v -6.5 14.27515 6.500063
v 7.6 -15.27515 7.600063
v 7.5 -15.27515 7.600063
v 0.75 9.82495 7.500063
v 0.75 12.07505 7.500063
v 0.75 9.82495 7.600063
v 0.75 12.07505 7.600063
v -0.75 12.07505 7.500063
v -0.75 9.82495 7.500063
v -0.75 12.07505 7.600063
v -0.75 9.82495 7.600063
v -7.5 -15.27515 7.600063
v -7.6 -15.27515 7.600063
v 0.75 14.27515 6.500063
v 0.75 15.27515 6.500063
v 0.75 14.27515 7.500063
v 0.75 9.72485 4.400064
v 0.75 9.82495 4.400064
v 0.75 -15.27515 7.600063
v 0.75 -15.27515 7.500063
v -0.75 9.82495 4.400064
v -0.75 9.72485 4.400064
v -0.75 -15.27515 7.500063
v -0.75 -15.27515 7.600063
v -0.75 14.27515 7.500063
v -0.75 15.27515 6.500063
v -0.75 14.27515 6.500063
v -0.75 9.72485 -7.499937
v 0.75 9.72485 -7.499937
v 7.5 9.72485 -7.499937
v -7.5 9.72485 7.500063
v -7.5 9.72485 -7.499937
v -0.75 9.72485 7.500063
v 0.75 9.72485 7.500063
v 7.5 9.72485 7.500063
v 0.75 9.82495 -5.499937
v 5.5 9.82495 -5.499937
v -0.75 9.82495 -5.499937
v 5.5 9.72485 4.500063
v 5.5 9.72485 -5.499937
v 0.75 9.72485 -5.499937
v 5.5 9.82495 4.500063
v 0.75 9.72485 4.500063
v 0.75 9.82495 4.500063
v -5.5 9.82495 -5.499937
v -0.75 9.82495 4.500063
v -0.75 9.72485 4.500063
v -5.5 9.82495 4.500063
v -5.5 9.72485 4.500063
v -5.5 9.72485 -5.499937
v -0.75 9.72485 -5.499937
v -5.5 11.22495 -5.499937
v -0.75 11.22495 -5.499937
v -5.4 11.22495 -5.399937
v -0.75 11.22495 -5.399937
v -5.5 11.22495 4.500063
v -5.400002 11.22495 4.400064
v -0.75 11.22495 4.500063
v -0.75 11.22495 4.400064
v 0.75 11.22495 4.500063
v 0.75 11.22495 4.400064
v 5.5 11.22495 4.500063
v 5.4 11.22495 4.400064
v 5.5 11.22495 -5.499937
v 5.4 11.22495 -5.399937
v 0.75 11.22495 -5.499937
v 0.75 11.22495 -5.399937
v 6.5 16.27515 -6.499937
v 0.75 16.27515 -6.499937
v -0.75 16.27515 -6.499937
v -6.5 16.27515 -6.499937
v -6.5 16.27515 6.500063
v -0.75 16.27515 6.500063
v 0.75 16.27515 6.500063
v 6.5 16.27515 6.500063
v -0.5 15.27515 -6.499937
v -0.5 15.27515 6.500063
v 0.5 15.27515 6.500063
v 0.5 15.27515 -6.499937
v -0.4500008 15.02515 -6.499937
v -0.4500008 15.02515 6.500063
v -0.04999924 15.02515 -6.499937
v -0.04999924 15.02515 6.500063
v 0.4500008 15.02515 6.500063
v 0.4500008 15.02515 -6.499937
v 0.04999924 15.02515 6.500063
v 0.04999924 15.02515 -6.499937
v 0 15.27515 -6.499937
v 0 15.27515 6.500063

vt 7.5 9.82495
vt 0.75 9.82495
vt 7.5 12.07505
vt 0.75 12.07505
vt -0.75 9.82495
vt -7.5 9.82495
vt -0.75 12.07505
vt -7.5 12.07505
vt 7.5 14.27515
vt 0.75 14.27515
vt -0.75 14.27515
vt -7.5 14.27515
vt 7.5 -7.600063
vt 0.75 -7.600063
vt 7.5 -7.499954
vt 0.75 -7.499963
vt -7.600037 9.82495
vt -7.600037 12.07505
vt -7.499937 9.82495
vt -7.499937 12.07505
vt -0.75 -7.600037
vt -0.75 -7.499937
vt -7.5 -7.600063
vt -7.5 -7.499954
vt 7.600037 12.07505
vt 7.600037 9.82495
vt 7.499937 12.07505
vt 7.499937 9.82495
vt 5.4 9.82495
vt 0.75 9.72485
vt 5.4 9.72485
vt -5.4 9.82495
vt -5.4 9.72485
vt -0.75 9.72485
vt -6.5 14.27515
vt -0.75 15.27515
vt -6.5 15.27515
vt 0.75 15.27515
vt 6.5 14.27515
vt 6.5 15.27515
vt -7.6 -7.499949
vt -7.6 -7.600063
vt 7.6 -7.600063
vt 7.6 -7.499949
vt -5.399937 9.72485
vt -5.399937 9.82495
vt 4.400064 9.72485
vt 4.400064 9.82495
vt 7.6 7.500063
vt 7.5 7.500063
vt -7.499937 14.27515
vt -6.499937 14.27515
vt -6.499937 15.27515
vt -7.5 7.500063
vt -7.6 7.500063
vt 5.399936 9.82495
vt 5.399936 9.72485
vt -4.400065 9.82495
vt -4.400065 9.72485
vt 7.499937 14.27515
vt 6.499937 15.27515
vt 6.499937 14.27515
vt 7.6 7.600063
vt 7.5 7.600063
vt -7.5 7.600063
vt -7.6 7.600063
vt 0.75 7.600063
vt 0.75 7.500063
vt -0.75 7.500063
vt -0.75 7.600063
vt -0.75 -15.27516
vt 0.75 -15.27516
vt 7.5 9.724842
vt 7.5 -15.27516
vt -7.500063 9.72485
vt 7.499937 9.72485
vt -7.500063 -15.27515
vt 7.499954 -15.27515
vt -7.499937 9.72485
vt -7.499954 -15.27515
vt -0.75 -5.499937
vt -5.5 -5.499937
vt 0.75 -5.499937
vt 5.5 4.500063
vt 5.5 -5.499937
vt -5.5 4.500063
vt 0.75 4.500063
vt -0.75 4.500063
vt -0.75 -5.399937
vt -5.4 -5.399937
vt 0.75 -5.399937
vt 5.4 4.400064
vt 5.4 -5.399937
vt -5.4 4.400064
vt 0.75 4.400064
vt -0.75 4.400064
vt 5.400002 4.400064
vt -5.400002 4.400064
vt 5.5 9.82495
vt 5.5 11.22495
vt 0.75 11.22495
vt 5.399936 11.22495
vt -4.400065 11.22495
vt -0.75 11.22495
vt -5.4 11.22495
vt -5.5 9.82495
vt -5.5 11.22495
vt 5.4 11.22495
vt 5.499937 9.82495
vt -4.500063 9.82495
vt 5.499937 11.22495
vt -4.500063 11.22495
vt 4.400064 11.22495
vt -5.399937 11.22495
vt 4.500063 9.82495
vt -5.499937 9.82495
vt 4.500063 11.22495
vt -5.499937 11.22495
vt 6.5 6.500063
vt 6.5 -6.499937
vt 0.75 6.500063
vt 0.75 -6.499937
vt -0.75 -6.499937
vt -6.5 -6.499937
vt -6.5 6.500063
vt -0.75 6.500063
vt 6.5 16.27515
vt 0.75 16.27515
vt -0.75 16.27515
vt -6.5 16.27515
vt -0.5 -6.499937
vt -0.5 6.500063
vt 0.5 6.500063
vt 0.5 -6.499937
vt -0.4500008 -6.499937
vt -0.4500008 6.500063
vt -0.04999924 -6.499937
vt -0.04999924 6.500063
vt 0.4500008 6.500063
vt 0.4500008 -6.499937
vt 0.04999924 6.500063
vt 0.04999924 -6.499937
vt -6.500063 15.07658
vt 6.499937 15.07658
vt -6.500063 14.82163
vt 6.499937 14.82163
vt -6.499937 14.97853
vt 6.500063 14.97853
vt -6.499937 14.72357
vt 6.500063 14.72357
vt -6.499937 15.07658
vt 6.500063 15.07658
vt -6.499937 14.82163
vt 6.500063 14.82163
vt -6.500063 14.97853
vt 6.499937 14.97853
vt -6.500063 14.72357
vt 6.499937 14.72357

vn 0 0 1
vn 0 -1 0
vn -1 0 0
vn 1 0 0
vn 0 1 0
vn 0 0 -1
vn 0.9805812 -0.1961132 0
vn -0.9805812 -0.1961132 0

usemtl MetalPlates006
f 3/3/1 4/4/1 2/2/1 1/1/1
f 7/7/1 8/8/1 6/6/1 5/5/1
f 9/9/1 10/10/1 4/4/1 3/3/1
f 11/11/1 12/12/1 8/8/1 7/7/1
f 11/11/1 7/7/1 4/4/1 10/10/1
f 15/15/2 16/16/2 14/14/2 13/13/2
f 2/19/3 4/20/3 18/18/3 17/17/3
f 4/16/2 7/22/2 19/21/2 18/14/2
f 22/22/2 23/24/2 21/23/2 20/21/2
f 7/27/4 5/28/4 24/26/4 19/25/4
f 27/30/1 28/31/1 26/29/1 25/2/1
f 31/33/1 32/34/1 30/5/1 29/32/1
f 24/14/5 5/16/5 2/22/5 17/21/5
f 30/5/1 32/34/1 27/30/1 25/2/1
f 22/22/2 20/21/2 14/14/2 16/16/2
f 35/36/1 36/37/1 34/35/1 33/11/1
f 38/38/1 35/36/1 33/11/1 37/10/1
f 40/40/1 38/38/1 37/10/1 39/39/1
f 41/41/2 42/42/2 21/23/2 23/24/2
f 43/43/2 44/44/2 15/15/2 13/13/2
f 45/47/3 46/48/3 26/46/3 28/45/3
f 47/49/2 48/50/2 15/15/2 44/44/2
f 49/1/3 50/3/3 3/20/3 1/19/3
f 50/3/3 51/9/3 9/51/3 3/20/3
f 52/39/3 53/40/3 40/53/3 39/52/3
f 54/8/4 55/6/4 6/28/4 8/27/4
f 56/54/2 57/55/2 41/41/2 23/24/2
f 58/58/4 59/59/4 31/57/4 29/56/4
f 60/12/4 54/8/4 8/27/4 12/60/4
f 61/37/4 62/35/4 34/62/4 36/61/4
f 63/63/2 64/64/2 48/50/2 47/49/2
f 67/26/3 68/25/3 66/3/3 65/1/3
f 71/18/4 72/17/4 70/6/4 69/8/4
f 73/65/2 74/66/2 57/55/2 56/54/2
f 75/11/6 76/36/6 53/37/6 52/35/6
f 66/7/6 77/11/6 51/12/6 50/8/6
f 65/5/6 66/7/6 50/8/6 49/6/6
f 78/34/6 79/5/6 46/46/6 45/45/6
f 80/67/2 81/68/2 48/50/2 64/64/2
f 82/2/6 83/30/6 59/31/6 58/29/6
f 84/69/2 85/70/2 73/65/2 56/54/2
f 69/4/6 70/2/6 55/1/6 54/3/6
f 86/10/6 69/4/6 54/3/6 60/9/6
f 87/38/6 88/10/6 62/39/6 61/40/6
f 77/11/6 66/7/6 69/4/6 86/10/6
f 66/68/2 68/67/2 71/70/2 69/69/2
f 76/36/6 75/11/6 88/10/6 87/38/6
f 79/5/6 78/34/6 83/30/6 82/2/6
f 67/70/5 65/69/5 70/68/5 72/67/5
f 81/68/2 80/67/2 85/70/2 84/69/2
f 22/71/1 16/72/1 90/30/1 89/34/1
f 16/72/1 15/74/1 91/73/1 90/30/1
f 56/77/4 23/78/4 93/76/4 92/75/4
f 23/77/1 22/71/1 89/34/1 93/75/1
f 84/72/6 56/74/6 92/73/6 94/30/6
f 81/71/6 84/72/6 94/30/6 95/34/6
f 48/77/6 81/71/6 95/34/6 96/75/6
f 15/80/3 48/74/3 96/73/3 91/79/3
f 97/81/5 98/82/5 1/24/5 2/22/5
f 99/83/5 97/81/5 2/22/5 5/16/5
f 100/84/2 101/85/2 91/15/2 96/50/2
f 101/85/2 102/83/2 90/16/2 91/15/2
f 98/82/5 103/86/5 49/54/5 1/24/5
f 104/87/2 100/84/2 96/50/2 95/68/2
f 103/86/5 105/88/5 65/69/5 49/54/5
f 106/85/5 99/83/5 5/16/5 6/15/5
f 105/88/5 107/87/5 70/68/5 65/69/5
f 108/88/2 104/87/2 95/68/2 94/69/2
f 107/87/5 109/84/5 55/50/5 70/68/5
f 110/86/2 108/88/2 94/69/2 92/54/2
f 109/84/5 106/85/5 6/15/5 55/50/5
f 111/82/2 110/86/2 92/54/2 93/24/2
f 112/81/2 111/82/2 93/24/2 89/22/2
f 102/83/2 112/81/2 89/22/2 90/16/2
f 25/89/5 26/90/5 98/82/5 97/81/5
f 30/91/5 25/89/5 97/81/5 99/83/5
f 45/92/2 28/93/2 101/85/2 100/84/2
f 28/93/2 27/91/2 102/83/2 101/85/2
f 26/90/5 46/94/5 103/86/5 98/82/5
f 78/95/2 45/92/2 100/84/2 104/87/2
f 46/94/5 79/96/5 105/88/5 103/86/5
f 29/93/5 30/91/5 99/83/5 106/85/5
f 79/96/5 82/95/5 107/87/5 105/88/5
f 83/96/2 78/95/2 104/87/2 108/88/2
f 82/95/5 58/97/5 109/84/5 107/87/5
f 59/98/2 83/96/2 108/88/2 110/86/2
f 58/97/5 29/93/5 106/85/5 109/84/5
f 31/90/2 59/98/2 110/86/2 111/82/2
f 32/89/2 31/90/2 111/82/2 112/81/2
f 27/91/2 32/89/2 112/81/2 102/83/2
f 52/119/2 39/120/2 9/15/2 51/50/2
f 75/121/2 52/119/2 51/50/2 77/68/2
f 39/120/2 37/122/2 10/16/2 9/15/2
f 37/122/2 33/123/2 11/22/2 10/16/2
f 33/123/2 34/124/2 12/24/2 11/22/2
f 34/124/2 62/125/2 60/54/2 12/24/2
f 62/125/2 88/126/2 86/69/2 60/54/2
f 88/126/2 75/121/2 77/68/2 86/69/2
f 129/127/1 130/128/1 38/38/1 40/40/1
f 130/128/1 131/129/1 35/36/1 38/38/1
f 131/129/1 132/130/1 36/37/1 35/36/1
f 133/127/6 134/128/6 87/38/6 61/40/6
f 134/128/6 135/129/6 76/36/6 87/38/6
f 135/129/6 136/130/6 53/37/6 76/36/6
f 137/131/2 138/132/2 61/125/2 36/124/2
f 139/133/2 140/134/2 40/120/2 53/119/2
f 143/137/2 144/138/2 142/136/2 141/135/2
f 147/141/2 148/142/2 146/140/2 145/139/2
f 145/145/7 146/146/7 140/144/7 139/143/7
f 148/149/8 147/150/8 150/148/8 149/147/8
f 141/153/8 142/154/8 138/152/8 137/151/8
f 144/157/7 143/158/7 149/156/7 150/155/7

usemtl MetalWalkway013
f 115/93/5 116/91/5 114/83/5 113/85/5
f 118/97/5 115/93/5 113/85/5 117/84/5
f 120/95/5 118/97/5 117/84/5 119/87/5
f 122/96/5 120/95/5 119/87/5 121/88/5
f 124/94/5 122/96/5 121/88/5 123/86/5
f 126/90/5 124/94/5 123/86/5 125/82/5
f 128/89/5 126/90/5 125/82/5 127/81/5
f 116/91/5 128/89/5 127/81/5 114/83/5
f 113/100/6 114/101/6 99/2/6 106/99/6
f 115/102/4 118/103/4 58/58/4 29/56/4
f 116/104/1 115/105/1 29/32/1 30/5/1
f 114/101/6 127/104/6 97/5/6 99/2/6
f 128/101/1 116/104/1 30/5/1 25/2/1
f 127/104/6 125/107/6 98/106/6 97/5/6
f 126/108/1 128/101/1 25/2/1 26/29/1
f 125/111/4 123/112/4 103/110/4 98/109/4
f 124/113/3 126/114/3 26/46/3 46/48/3
f 123/100/1 121/101/1 105/2/1 103/99/1
f 122/104/6 124/114/6 46/46/6 79/5/6
f 121/101/1 119/104/1 107/5/1 105/2/1
f 120/101/6 122/104/6 79/5/6 82/2/6
f 119/104/1 117/107/1 109/106/1 107/5/1
f 118/108/6 120/101/6 82/2/6 58/29/6
f 117/117/3 113/118/3 106/116/3 109/115/3

