# ProBuilder 5.0.4
# https://unity3d.com/unity/features/worldbuilding/probuilder
# 7/7/2022 3:35:51 AM

mtllib ./Thresher-ST-Anchor-Room.mtl
o Thresher-ST-Anchor-Room

g Thresher-ST-Anchor-Room
v -6.475001 0 -2.5
v -6.475002 0 -1.25
v -6.475002 2.9501 -2.5
v -6.475002 3.0001 -1.25
v -6.475002 0 1.25
v -6.475001 0 2.5
v -6.475002 3.0001 1.25
v -6.475002 2.9501 2.5
v -6.475002 3.3501 -2.5
v -6.475002 3.3501 -0.75
v -6.475002 3.3501 0.75
v -6.475002 3.3501 2.5
v -5.474998 3.8501 -2.5
v -5.474998 3.8501 -0.75
v -5.474998 3.8501 0.75
v -5.474998 3.8501 2.5
v -5.475 4.2501 -2.5
v -5.475 4.2501 -0.75
v -5.475 4.2501 0.75
v -5.475 4.2501 2.5
v -5.475 5.3501 -2.5
v -5.475 5.3501 -0.75
v -5.475 5.3501 0.75
v -5.475 5.3501 2.5
v -6.5751 3.0001 1.25
v -6.5751 0 1.25
v -6.5751 3.0001 -1.25
v -6.5751 0 -1.25
v -1.725 0 2.75
v -1.725 0 0.75
v -1.725 0 -0.75
v -1.725 0 -2.75
v -1.475 0 -7.5
v -6.475001 0 -7.5
v -6.475002 2.9501 -7.5
v -6.475002 3.3501 -7.5
v -5.474998 3.8501 -6.5
v -5.475 4.2501 -6.5
v -5.475 5.3501 -6.5
v -6.475002 2.9501 7.5
v -6.475001 0 7.5
v -6.475002 3.3501 7.5
v -5.474998 3.8501 6.5
v -5.475 4.2501 6.5
v -5.475 5.3501 6.5
v -1.475 0 7.5
v 3.775 0 -2.75
v 3.525 0 -7.5
v 3.525 0 7.5
v 3.775 0 2.75
v 8.525 0 -2.5
v 8.525 0 -7.5
v 8.525 0 7.5
v 8.525 0 2.5
v 8.525002 2.9501 -7.5
v 8.525002 3.3501 -7.5
v 7.525002 3.8501 -6.5
v 7.525 4.2501 -6.5
v 7.525 5.3501 -6.5
v 7.525 5.3501 6.5
v 7.525 4.2501 6.5
v 7.525002 3.8501 6.5
v 8.525002 3.3501 7.5
v 8.525002 2.9501 7.5
v 8.525002 2.9501 -2.5
v 8.525002 3.3501 -2.5
v 7.525002 3.8501 -2.5
v 7.525 4.2501 -2.5
v 7.525 5.3501 -2.5
v 8.525002 2.9501 2.5
v 8.525002 3.3501 2.5
v 7.525002 3.8501 2.5
v 7.525 4.2501 2.5
v 7.525 5.3501 2.5
v -1.725 -1 2.75
v 3.775 -1 2.75
v -1.475 -1 2.5
v 3.525 -1 2.5
v 3.775 -1 -2.75
v -1.725 -1 -2.75
v 3.525 -1 -2.5
v -1.475 -1 -2.5
v -1.725 0.04999995 -2.75
v 3.775 0.04999995 -2.75
v -1.475 0.04999995 -2.5
v 3.525 0.04999995 -2.5
v 3.775 0.04999995 2.75
v -1.725 0.04999995 2.75
v 3.525 0.04999995 2.5
v -1.475 0.04999995 2.5
v -1.725 -1 -0.75
v -1.475 -1 -0.75
v -1.725 0.04999995 -0.75
v -1.475 0.04999995 -0.75
v -1.725 -1 0.75
v -1.475 -1 0.75
v -1.725 0.04999995 0.75
v -1.475 0.04999995 0.75
v -1.475 0 -2.5
v -1.475 0 -0.75
v 3.525 0 -2.5
v 3.525 0 2.5
v -1.475 0 2.5
v -1.475 0 0.75
v -6.475001 4.35 -0.75
v -6.475001 4.35 -2.5
v -1.725 4.35 -0.75
v -1.725 4.35 -2.75
v -6.475001 4.35 0.75
v -1.725 4.35 0.75
v -6.475001 4.35 2.5
v -1.725 4.35 2.75
v -6.475001 4.35 7.5
v -1.475 4.35 7.5
v 3.525 4.35 7.5
v 3.775 4.35 2.75
v 8.525 4.35 7.5
v 8.525 4.35 2.5
v 3.775 4.35 -2.75
v 8.525 4.35 -2.5
v 3.525 4.35 -7.5
v 8.525 4.35 -7.5
v -1.475 4.35 -7.5
v -6.475001 4.35 -7.5
v -1.475 5.35 -0.75
v -1.475 5.35 -2.5
v -1.475 4.35 -0.75
v -1.475 4.35 -2.5
v 3.525 5.35 -2.5
v 3.525 4.35 -2.5
v 3.525 5.35 2.5
v 3.525 4.35 2.5
v -1.475 5.35 2.5
v -1.475 4.35 2.5
v -1.475 5.35 0.75
v -1.475 4.35 0.75
v -1.725 5.35 -2.75
v 3.775 5.35 -2.75
v -1.725 4.3 -2.75
v -1.725 4.3 -0.75
v -1.475 4.3 -2.5
v -1.475 4.3 -0.75
v 3.775 4.3 -2.75
v 3.525 4.3 -2.5
v 3.775 5.35 2.75
v 3.775 4.3 2.75
v 3.525 4.3 2.5
v -1.725 5.35 2.75
v -1.725 4.3 2.75
v -1.475 4.3 2.5
v -1.725 5.35 0.75
v -1.725 4.3 0.75
v -1.475 4.3 0.75
v -1.725 5.35 -0.75

vt 10 0
vt 8.75 0
vt 10 2.9501
vt 8.75 3.0001
vt 6.25 0
vt 5 0
vt 6.25 3.0001
vt 5 2.9501
vt 10 3.3501
vt 8.25 3.3501
vt 6.75 3.3501
vt 5 3.3501
vt 0.1000977 5
vt 0.1000977 6.75
vt 1.100101 5
vt 1.100101 6.75
vt 0.1000977 8.25
vt 0.1000977 10
vt 1.100101 8.25
vt 1.100101 10
vt 10 3.8501
vt 8.25 3.8501
vt 10 4.2501
vt 8.25 4.2501
vt 6.75 3.8501
vt 5 3.8501
vt 6.75 4.2501
vt 5 4.2501
vt 10 5.3501
vt 8.25 5.3501
vt 6.75 5.3501
vt 5 5.3501
vt 15.1001 3.0001
vt 15.1001 0
vt 15 3.0001
vt 15 0
vt 0 6.25
vt 0 8.75
vt 0.1000977 6.25
vt 0.1000977 8.75
vt 0 0
vt 0 3.0001
vt 0.1000977 0
vt 0.1000977 3.0001
vt 15.2001 8.85
vt 15.2001 6.35
vt 15.1 8.85
vt 15.1 6.35
vt 15.1 10.1
vt 10.35 10.35
vt 10.35 8.35
vt 10.35 6.85
vt 15.1 5.1
vt 10.35 4.85
vt 10.1 0.0999999
vt 15.1 0.0999999
vt 15 2.9501
vt 15 3.3501
vt 1.100101 1
vt 14 3.8501
vt 14 4.2501
vt 14 5.3501
vt 0 2.9501
vt 0 3.3501
vt 1.100101 14
vt 0.1000977 15
vt 1 4.2501
vt 1 3.8501
vt 1 5.3501
vt 15.1 15.1
vt 10.1 15.1
vt 4.85 4.85
vt 5.1 0.0999999
vt 5.1 15.1
vt 4.85 10.35
vt 0.1000004 5.1
vt 0.1000004 0.0999999
vt 0.1000004 15.1
vt 0.1000004 10.1
vt 0.1000977 2.9501
vt 15.1001 2.9501
vt 0.1000977 3.3501
vt 15.1001 3.3501
vt 14.1001 1
vt 1.100101 3.8501
vt 1.1001 4.2501
vt 14.1001 3.8501
vt 14.1001 4.2501
vt 1.1001 5.3501
vt 14.1001 5.3501
vt 14.1001 14
vt 15.1001 15
vt 15.1001 5
vt 14.1001 5
vt 15.1001 10
vt 14.1001 10
vt 4.8501 10.25
vt 10.3501 10.25
vt 5.1001 10
vt 10.1001 10
vt 10.3501 4.75
vt 4.8501 4.75
vt 10.1001 5
vt 5.1001 5
vt 10.1 5.1
vt 5.1 5.1
vt 5.1 10.1
vt 10.1 10.1
vt 4.8501 6.75
vt 5.1001 6.75
vt 10.1 6.85
vt 4.8501 8.25
vt 5.1001 8.25
vt 10.1 8.35
vt 10.25 0
vt 4.750002 0
vt 10.25 0.04999995
vt 4.750002 0.04999995
vt 8.25 0
vt 10 0.04999995
vt 8.25 0.04999995
vt 10.1001 0
vt 5.1001 0
vt 10.1001 0.04999995
vt 5.1001 0.04999995
vt 5 0.04999995
vt 10.3501 0
vt 4.8501 0
vt 10.3501 0.04999995
vt 4.8501 0.04999995
vt 6.75 0
vt 6.75 0.04999995
vt 5.1001 15
vt 10.1001 15
vt 8.25 4.35
vt 10 4.35
vt 5.1001 5.35
vt 10.1001 5.35
vt 5.1001 4.35
vt 10.1001 4.35
vt 5 4.35
vt 6.75 4.35
vt 4.8501 4.35
vt 10.3501 4.35
vt 4.8501 4.3
vt 10.3501 4.3
vt 5 4.3
vt 6.75 4.3
vt 10 4.3
vt 4.75 4.35
vt 10.25 4.35
vt 4.75 4.3
vt 10.25 4.3
vt 5.1001 4.3
vt 10.1001 4.3
vt 8.25 4.3

vn 1 4.849027E-07 1.144409E-06
vn 0.4472122 -0.8944279 0
vn 0 0 -1
vn 0 -1 0
vn 0 0 1
vn 0 1 0
vn 0 -0.8944272 0.4472136
vn 0 -0.8944272 -0.4472136
vn -1 0 0
vn -0.4472136 -0.8944272 0

usemtl MetalPlates006
f 101/106/6 99/105/6 100/111/6
f 101/106/6 100/111/6 104/114/6
f 102/107/6 101/106/6 104/114/6
f 102/107/6 104/114/6 103/108/6
f 78/100/4 76/98/4 75/97/4
f 75/97/4 77/99/4 78/100/4
f 82/104/4 80/102/4 79/101/4
f 79/101/4 81/103/4 82/104/4
f 81/103/4 79/101/4 76/98/4
f 76/98/4 78/100/4 81/103/4
f 92/110/4 91/109/4 80/102/4
f 80/102/4 82/104/4 92/110/4
f 96/113/4 95/112/4 91/109/4
f 91/109/4 92/110/4 96/113/4
f 84/118/3 47/116/3 32/115/3
f 32/115/3 83/117/3 84/118/3
f 94/121/1 100/119/1 99/1/1
f 99/1/1 85/120/1 94/121/1
f 85/125/5 99/123/5 101/122/5
f 101/122/5 86/124/5 85/125/5
f 87/118/1 50/116/1 47/115/1
f 47/115/1 84/117/1 87/118/1
f 86/126/9 101/6/9 102/1/9
f 102/1/9 89/120/9 86/126/9
f 88/130/5 29/128/5 50/127/5
f 50/127/5 87/129/5 88/130/5
f 89/126/3 102/6/3 103/1/3
f 103/1/3 90/120/3 89/126/3
f 97/121/9 30/119/9 29/115/9
f 29/115/9 88/117/9 97/121/9
f 90/126/1 103/6/1 104/131/1
f 104/131/1 98/132/1 90/126/1
f 93/132/9 31/131/9 30/119/9
f 30/119/9 97/121/9 93/132/9
f 98/132/1 104/131/1 100/119/1
f 100/119/1 94/121/1 98/132/1
f 83/118/9 32/116/9 31/131/9
f 31/131/9 93/132/9 83/118/9
f 128/136/1 126/29/1 125/30/1
f 125/30/1 127/135/1 128/136/1
f 130/140/5 129/138/5 126/137/5
f 126/137/5 128/139/5 130/140/5
f 132/136/9 131/29/9 129/32/9
f 129/32/9 130/141/9 132/136/9
f 134/136/3 133/29/3 131/32/3
f 131/32/3 132/141/3 134/136/3
f 127/135/1 125/30/1 135/31/1
f 135/31/1 136/142/1 127/135/1
f 136/142/1 135/31/1 133/32/1
f 133/32/1 134/141/1 136/142/1
f 129/106/6 138/72/6 137/54/6
f 137/54/6 126/105/6 129/106/6
f 131/107/6 145/75/6 138/72/6
f 138/72/6 129/106/6 131/107/6
f 133/108/6 148/50/6 145/75/6
f 145/75/6 131/107/6 133/108/6
f 135/114/6 151/51/6 148/50/6
f 148/50/6 133/108/6 135/114/6
f 125/111/6 154/52/6 151/51/6
f 151/51/6 135/114/6 125/111/6
f 126/105/6 137/54/6 154/52/6
f 154/52/6 125/111/6 126/105/6
f 146/146/5 116/144/5 112/143/5
f 112/143/5 149/145/5 146/146/5
f 153/148/1 136/142/1 134/141/1
f 134/141/1 150/147/1 153/148/1
f 150/149/3 134/136/3 132/141/3
f 132/141/3 147/147/3 150/149/3
f 143/153/1 119/151/1 116/150/1
f 116/150/1 146/152/1 143/153/1
f 147/149/9 132/136/9 130/141/9
f 130/141/9 144/147/9 147/149/9
f 139/153/3 108/151/3 119/150/3
f 119/150/3 143/152/3 139/153/3
f 144/155/5 130/140/5 128/139/5
f 128/139/5 141/154/5 144/155/5
f 140/148/9 107/142/9 108/150/9
f 108/150/9 139/152/9 140/148/9
f 141/149/1 128/136/1 127/135/1
f 127/135/1 142/156/1 141/149/1
f 152/156/9 110/135/9 107/142/9
f 107/142/9 140/148/9 152/156/9
f 142/156/1 127/135/1 136/142/1
f 136/142/1 153/148/1 142/156/1
f 149/153/9 112/151/9 110/135/9
f 110/135/9 152/156/9 149/153/9

usemtl PaintedMetal016
f 85/105/6 86/106/6 84/72/6 83/54/6
f 89/107/6 90/108/6 88/50/6 87/75/6
f 94/111/6 85/105/6 83/54/6 93/52/6
f 98/114/6 94/111/6 93/52/6 97/51/6
f 90/108/6 98/114/6 97/51/6 88/50/6
f 86/106/6 89/107/6 87/75/6 84/72/6
f 141/104/4 142/110/4 140/109/4 139/102/4
f 144/103/4 141/104/4 139/102/4 143/101/4
f 147/100/4 144/103/4 143/101/4 146/98/4
f 150/99/4 147/100/4 146/98/4 149/97/4
f 153/113/4 150/99/4 149/97/4 152/112/4
f 142/110/4 153/113/4 152/112/4 140/109/4

usemtl ContainmentZone-Generic1
f 3/3/1 4/4/1 2/2/1 1/1/1
f 7/7/1 8/8/1 6/6/1 5/5/1
f 9/9/1 10/10/1 4/4/1 3/3/1
f 11/11/1 12/12/1 8/8/1 7/7/1
f 11/11/1 7/7/1 4/4/1 10/10/1
f 13/15/2 14/16/2 10/14/2 9/13/2
f 15/19/2 16/20/2 12/18/2 11/17/2
f 14/16/2 15/19/2 11/17/2 10/14/2
f 17/23/1 18/24/1 14/22/1 13/21/1
f 19/27/1 20/28/1 16/26/1 15/25/1
f 18/24/1 19/27/1 15/25/1 14/22/1
f 21/29/1 22/30/1 18/24/1 17/23/1
f 23/31/1 24/32/1 20/28/1 19/27/1
f 22/30/1 23/31/1 19/27/1 18/24/1
f 7/35/3 5/36/3 26/34/3 25/33/3
f 4/39/4 7/40/4 25/38/4 27/37/4
f 2/43/5 4/44/5 27/42/5 28/41/5
f 34/36/1 35/57/1 3/3/1 1/1/1
f 35/57/1 36/58/1 9/9/1 3/3/1
f 36/43/2 37/59/2 13/15/2 9/13/2
f 37/60/1 38/61/1 17/23/1 13/21/1
f 38/61/1 39/62/1 21/29/1 17/23/1
f 40/63/1 41/41/1 6/6/1 8/8/1
f 42/64/1 40/63/1 8/8/1 12/12/1
f 43/65/2 42/66/2 12/18/2 16/20/2
f 44/67/1 43/68/1 16/26/1 20/28/1
f 45/69/1 44/67/1 20/28/1 24/32/1
f 52/34/5 55/81/5 35/80/5 34/43/5
f 55/81/5 56/83/5 36/82/5 35/80/5
f 56/34/7 57/84/7 37/59/7 36/43/7
f 57/87/5 58/88/5 38/86/5 37/85/5
f 58/88/5 59/90/5 39/89/5 38/86/5
f 60/69/3 61/67/3 44/61/3 45/62/3
f 61/67/3 62/68/3 43/60/3 44/61/3
f 62/91/8 63/92/8 42/66/8 43/65/8
f 63/64/3 64/63/3 40/57/3 42/58/3
f 64/63/3 53/41/3 41/36/3 40/57/3
f 65/8/9 66/12/9 56/64/9 55/63/9
f 66/93/10 67/94/10 57/84/10 56/34/10
f 67/26/9 68/28/9 58/67/9 57/68/9
f 68/28/9 69/32/9 59/69/9 58/67/9
f 51/6/9 65/8/9 55/63/9 52/41/9
f 70/3/9 71/9/9 66/12/9 65/8/9
f 71/95/10 72/96/10 67/94/10 66/93/10
f 72/21/9 73/23/9 68/28/9 67/26/9
f 73/23/9 74/29/9 69/32/9 68/28/9
f 54/1/9 70/3/9 65/8/9 51/6/9
f 64/57/9 63/58/9 71/9/9 70/3/9
f 63/92/10 62/91/10 72/96/10 71/95/10
f 62/60/9 61/61/9 73/23/9 72/21/9
f 61/61/9 60/62/9 74/29/9 73/23/9
f 53/36/9 64/57/9 70/3/9 54/1/9
f 105/14/4 106/13/4 108/102/4 107/109/4
f 109/17/4 105/14/4 107/109/4 110/112/4
f 111/18/4 109/17/4 110/112/4 112/97/4
f 111/18/4 112/97/4 114/133/4 113/66/4
f 114/133/4 112/97/4 116/98/4 115/134/4
f 115/134/4 116/98/4 118/95/4 117/92/4
f 119/101/4 120/93/4 118/95/4 116/98/4
f 119/101/4 121/122/4 122/34/4 120/93/4
f 108/102/4 123/123/4 121/122/4 119/101/4
f 108/102/4 106/13/4 124/43/4 123/123/4

usemtl ContainmentZone-Generic
f 5/47/6 2/48/6 28/46/6 26/45/6
f 29/50/6 30/51/6 5/47/6 6/49/6
f 30/51/6 31/52/6 2/48/6 5/47/6
f 31/52/6 32/54/6 1/53/6 2/48/6
f 33/55/6 34/56/6 1/53/6 32/54/6
f 41/70/6 46/71/6 29/50/6 6/49/6
f 47/72/6 48/73/6 33/55/6 32/54/6
f 49/74/6 50/75/6 29/50/6 46/71/6
f 51/76/6 52/77/6 48/73/6 47/72/6
f 53/78/6 54/79/6 50/75/6 49/74/6
f 50/75/6 54/79/6 51/76/6 47/72/6

