# ProBuilder 5.0.4
# https://unity3d.com/unity/features/worldbuilding/probuilder
# 7/6/2022 1:50:53 AM

mtllib ./Thresher-ST-Anchor-Room.mtl
o Thresher-ST-Anchor-Room

g Thresher-ST-Anchor-Room
v -6.475001 0 -2.5
v -6.475002 0 -1.25
v -6.475002 2.9501 -2.5
v -6.475002 3.0001 -1.25
v -6.475002 0 1.25
v -6.475001 0 2.5
v -6.475002 3.0001 1.25
v -6.475002 2.9501 2.5
v -6.475002 3.3501 -2.5
v -6.475002 3.3501 -0.75
v -6.475002 3.3501 0.75
v -6.475002 3.3501 2.5
v -5.474998 3.8501 -2.5
v -5.474998 3.8501 -0.75
v -5.474998 3.8501 0.75
v -5.474998 3.8501 2.5
v -5.475 4.2501 -2.5
v -5.475 4.2501 -0.75
v -5.475 4.2501 0.75
v -5.475 4.2501 2.5
v -5.475 5.3501 -2.5
v -5.475 5.3501 -0.75
v -5.475 5.3501 0.75
v -5.475 5.3501 2.5
v -6.5751 3.0001 1.25
v -6.5751 0 1.25
v -6.575101 0 7.6
v -6.575101 2.2501 7.6
v -6.475001 0 7.6
v -6.475001 2.2501 7.6
v -6.575101 2.7501 7.6
v -6.475001 2.7501 7.6
v -6.575101 3.2501 7.6
v -6.475001 3.2501 7.6
v -6.575101 4.2501 7.6
v -6.475001 4.2501 7.6
v -6.575101 5.3501 0.75
v -6.575101 5.3501 -0.75
v -6.575101 5.3501 7.6
v -6.475001 5.3501 7.6
v -6.575101 5.3501 2.5
v -6.575101 5.3501 -2.5
v -6.575101 5.3501 -7.6
v -6.575101 4.2501 -7.6
v -6.475001 5.3501 -7.6
v -6.475001 4.2501 -7.6
v -6.5751 3.0001 -1.25
v -6.575101 3.2501 -7.6
v -6.475001 3.2501 -7.6
v -6.575101 2.7501 -7.6
v -6.475001 2.7501 -7.6
v -6.575101 2.2501 -7.6
v -6.475001 2.2501 -7.6
v -6.575101 0 -7.6
v -6.475001 0 -7.6
v -6.5751 0 -1.25
v -1.725 0 2.75
v -1.725 0 0.75
v -1.725 0 -0.75
v -1.725 0 -2.75
v -6.575101 2.2501 -2.5
v -6.575101 0 -2.5
v -6.575101 2.2501 -7.5
v -6.575101 0 -7.5
v -1.475 0 -7.5
v -6.475001 0 -7.5
v -6.475002 2.9501 -7.5
v -6.475002 3.3501 -7.5
v -6.575101 2.7501 -2.5
v -6.575101 2.7501 -7.5
v -5.474998 3.8501 -6.5
v -6.575101 3.2501 -2.5
v -6.575101 3.2501 -7.5
v -5.475 4.2501 -6.5
v -6.575101 4.2501 -2.5
v -6.575101 4.2501 -7.5
v -5.475 5.3501 -6.5
v -6.575101 5.3501 -7.5
v -6.575101 0 2.5
v -6.575101 2.2501 2.5
v -6.575101 0 7.5
v -6.575101 2.2501 7.5
v -6.575101 5.3501 7.5
v -5.475 5.3501 6.5
v -6.475002 2.9501 7.5
v -6.475001 0 7.5
v -6.575101 2.7501 2.5
v -6.575101 2.7501 7.5
v -6.475002 3.3501 7.5
v -6.575101 3.2501 2.5
v -6.575101 3.2501 7.5
v -5.474998 3.8501 6.5
v -6.575101 4.2501 2.5
v -6.575101 4.2501 7.5
v -5.475 4.2501 6.5
v -1.475 0 7.5
v 8.625 2.2501 -7.5
v 8.625 2.7501 -7.5
v 8.625 2.2501 -7.6
v 8.625 2.7501 -7.6
v 8.625 0 -7.5
v 8.625 0 -7.6
v 8.625 3.2501 -7.5
v 8.625 3.2501 -7.6
v 8.625 4.2501 -7.5
v 8.625 4.2501 -7.6
v 8.625 5.3501 -7.5
v 8.625 5.3501 -7.6
v 8.625 2.2501 7.5
v 8.625 0 7.5
v 8.625 2.2501 7.6
v 8.625 0 7.6
v 8.625 2.7501 7.5
v 8.625 2.7501 7.6
v 8.625 3.2501 7.5
v 8.625 3.2501 7.6
v 8.625 4.2501 7.5
v 8.625 4.2501 7.6
v 8.625 5.3501 7.5
v 8.625 5.3501 7.6
v 3.775 0 -2.75
v 3.525 0 -7.5
v 3.525 0 7.5
v 3.775 0 2.75
v 8.525 0 -2.5
v 8.525 0 -7.5
v 8.525 0 7.5
v 8.525 0 2.5
v 7.525 5.3501 -6.5
v 8.525 5.3501 -7.6
v 8.525002 2.9501 -7.5
v 8.525 2.2501 -7.6
v 8.525 0 -7.6
v 8.525002 3.3501 -7.5
v 8.525 2.7501 -7.6
v 7.525002 3.8501 -6.5
v 8.525 3.2501 -7.6
v 7.525 4.2501 -6.5
v 8.525 4.2501 -7.6
v 7.525 5.3501 6.5
v 7.525 4.2501 6.5
v 8.525 5.3501 7.6
v 8.525 4.2501 7.6
v 7.525002 3.8501 6.5
v 8.525 3.2501 7.6
v 8.525002 3.3501 7.5
v 8.525 2.7501 7.6
v 8.525002 2.9501 7.5
v 8.525 2.2501 7.6
v 8.525 0 7.6
v 8.525002 2.9501 -2.5
v 8.525002 3.3501 -2.5
v 8.625 2.2501 -2.5
v 8.625 0 -2.5
v 7.525 5.3501 -2.5
v 8.625 5.3501 -2.5
v 8.625 2.7501 -2.5
v 7.525002 3.8501 -2.5
v 8.625 3.2501 -2.5
v 7.525 4.2501 -2.5
v 8.625 4.2501 -2.5
v 8.525002 2.9501 2.5
v 8.525002 3.3501 2.5
v 8.625 2.2501 2.5
v 8.625 0 2.5
v 7.525 5.3501 2.5
v 8.625 5.3501 2.5
v 8.625 2.7501 2.5
v 7.525002 3.8501 2.5
v 8.625 3.2501 2.5
v 7.525 4.2501 2.5
v 8.625 4.2501 2.5
v -1.725 -1 2.75
v 3.775 -1 2.75
v -1.475 -1 2.5
v 3.525 -1 2.5
v 3.775 -1 -2.75
v -1.725 -1 -2.75
v 3.525 -1 -2.5
v -1.475 -1 -2.5
v -1.725 0.04999995 -2.75
v 3.775 0.04999995 -2.75
v -1.475 0.04999995 -2.5
v 3.525 0.04999995 -2.5
v 3.775 0.04999995 2.75
v -1.725 0.04999995 2.75
v 3.525 0.04999995 2.5
v -1.475 0.04999995 2.5
v -1.725 -1 -0.75
v -1.475 -1 -0.75
v -1.725 0.04999995 -0.75
v -1.475 0.04999995 -0.75
v -1.725 -1 0.75
v -1.475 -1 0.75
v -1.725 0.04999995 0.75
v -1.475 0.04999995 0.75
v -1.475 0 -2.5
v -1.475 0 -0.75
v 3.525 0 -2.5
v 3.525 0 2.5
v -1.475 0 2.5
v -1.475 0 0.75
v -6.475001 4.35 -0.75
v -6.475001 4.35 -2.5
v -1.725 4.35 -0.75
v -1.725 4.35 -2.75
v -6.475001 4.35 0.75
v -1.725 4.35 0.75
v -6.475001 4.35 2.5
v -1.725 4.35 2.75
v -6.475001 4.35 7.5
v -1.475 4.35 7.5
v 3.525 4.35 7.5
v 3.775 4.35 2.75
v 8.525 4.35 7.5
v 8.525 4.35 2.5
v 3.775 4.35 -2.75
v 8.525 4.35 -2.5
v 3.525 4.35 -7.5
v 8.525 4.35 -7.5
v -1.475 4.35 -7.5
v -6.475001 4.35 -7.5
v -1.475 5.35 -0.75
v -1.475 5.35 -2.5
v -1.475 4.35 -0.75
v -1.475 4.35 -2.5
v 3.525 5.35 -2.5
v 3.525 4.35 -2.5
v -6.475001 5.35 -2.5
v -6.475001 5.35 -0.75
v -6.475001 5.35 0.75
v -1.475 5.35 -7.5
v -6.475001 5.35 -7.5
v 3.525 5.35 2.5
v 3.525 4.35 2.5
v 3.525 5.35 -7.5
v 8.525 5.35 -2.5
v 8.525 5.35 -7.5
v -1.475 5.35 2.5
v -1.475 4.35 2.5
v 8.525 5.35 2.5
v 8.525 5.35 7.5
v 3.525 5.35 7.5
v -1.475 5.35 0.75
v -1.475 4.35 0.75
v -1.475 5.35 7.5
v -6.475001 5.35 7.5
v -6.475001 5.35 2.5
v -1.725 5.35 -2.75
v 3.775 5.35 -2.75
v -1.725 4.3 -2.75
v -1.725 4.3 -0.75
v -1.475 4.3 -2.5
v -1.475 4.3 -0.75
v 3.775 4.3 -2.75
v 3.525 4.3 -2.5
v 3.775 5.35 2.75
v 3.775 4.3 2.75
v 3.525 4.3 2.5
v -1.725 5.35 2.75
v -1.725 4.3 2.75
v -1.475 4.3 2.5
v -1.725 5.35 0.75
v -1.725 4.3 0.75
v -1.475 4.3 0.75
v -1.725 5.35 -0.75

vt 10 0
vt 8.25 0
vt 10 2.2501
vt 8.25 2.2501
vt 6.75 0
vt 5 0
vt 6.75 2.2501
vt 5 2.2501
vt 10.1 3.2501
vt 8.35 3.2501
vt 10.1 3.7501
vt 8.35 3.7501
vt 6.85 3.2501
vt 5.1 3.2501
vt 6.85 3.7501
vt 5.1 3.7501
vt 0.1001 5.1
vt 0.1001 6.85
vt 1.100101 5.1
vt 1.100101 6.85
vt 0.1001 8.35
vt 0.1001 10.1
vt 1.100101 8.35
vt 1.100101 10.1
vt 10.1 4.2501
vt 8.35 4.2501
vt 10.1 5.2501
vt 8.35 5.2501
vt 6.85 4.2501
vt 5.1 4.2501
vt 6.85 5.2501
vt 5.1 5.2501
vt 10.1 6.3501
vt 8.35 6.3501
vt 6.85 6.3501
vt 5.1 6.3501
vt 15.2001 3.2501
vt 15.2001 1
vt 15.1 3.2501
vt 15.1 1
vt 0 1
vt 0 3.2501
vt 0.1001 1
vt 0.1001 3.2501
vt 0 3.7501
vt 0.1001 3.7501
vt 0 4.2501
vt 0.1001 4.2501
vt 0 5.2501
vt 0.1001 5.2501
vt 15.2001 8.35
vt 15.2001 6.85
vt 14.1 8.35
vt 14.1 6.85
vt 0 6.3501
vt 0.1001 6.3501
vt 15.2001 10.1
vt 14.1 10.1
vt 15.2001 5.1
vt 14.1 5.1
vt 15.2001 6.3501
vt 15.2001 5.2501
vt 15.1 6.3501
vt 15.1 5.2501
vt 0 6.85
vt 0 8.35
vt 15.2001 4.2501
vt 15.1 4.2501
vt 15.2001 3.7501
vt 15.1 3.7501
vt 15.1 8.35
vt 15.1 6.85
vt 15.1 10.1
vt 10.35 10.35
vt 10.35 8.35
vt 10.35 6.85
vt 15.1 5.1
vt 10.35 4.85
vt 5.1 1
vt 0.0999999 3.2501
vt 0.0999999 1
vt 10.1 0.0999999
vt 15.1 0.0999999
vt 15 0
vt 15 2.2501
vt 0.0999999 3.7501
vt 0.1001 0.0999999
vt 1.100101 1.1
vt 0.0999999 4.2501
vt 14.1 4.2501
vt 14.1 5.2501
vt 0.0999999 5.2501
vt 14.1 6.3501
vt 0.0999999 6.3501
vt 14.1 1.1
vt 15.2001 0.0999999
vt 10.1 1
vt 15.2001 15.1
vt 14.1 14.1
vt 0 2.2501
vt 0 0
vt 1.100101 14.1
vt 0.1001 15.1
vt 1.1 5.2501
vt 1.1 4.2501
vt 1.1 6.3501
vt 15.1 15.1
vt 10.1 15.1
vt 15.2 3.2501
vt 15.2 3.7501
vt 15.2 1
vt 15.2 4.2501
vt 15.2 5.2501
vt 15.2 6.3501
vt 15.1 0
vt 15.2001 0
vt 15.2001 15.2
vt 15.1 15.2
vt 4.85 4.85
vt 5.1 0.0999999
vt 5.1 15.1
vt 4.85 10.35
vt 0.1000004 0
vt 1.100101 4.2501
vt 1.100101 5.2501
vt 1.100101 6.3501
vt 0.1000004 15.2
vt 0 0.0999999
vt 0 15.2
vt 0 15.1
vt 0 5.1
vt 0 10.1
vt 5.100101 10.1
vt 10.1001 10.1
vt 10.1001 5.1
vt 5.100101 5.1
vt 4.850101 6.85
vt 5.100101 6.85
vt 10.1 6.85
vt 4.850101 8.35
vt 5.100101 8.35
vt 10.1 8.35
vt 10.35 1
vt 4.85 1
vt 10.35 1.05
vt 4.85 1.05
vt 8.35 1
vt 10.1 1.05
vt 8.35 1.05
vt 5.100101 1
vt 5.100101 1.05
vt 4.85 1
vt 4.85 1.05
vt 5.1 1.05
vt 6.85 1
vt 6.85 1.05
vt 8.35 6.35
vt 10.1 6.35
vt 8.35 5.35
vt 10.1 5.35
vt 5.100101 6.35
vt 5.100101 5.35
vt 5.1 6.35
vt 6.85 6.35
vt 5.1 5.35
vt 6.85 5.35
vt 15.1 6.35
vt 15.1 5.35
vt 0.0999999 6.35
vt 0.0999999 5.35
vt 0.1000004 6.35
vt 0.1000004 5.35
vt 4.850101 5.35
vt 10.3501 5.35
vt 4.850101 5.3
vt 10.3501 5.3
vt 5.1 5.3
vt 6.85 5.3
vt 5.1 5.3
vt 10.1 5.3
vt 4.85 5.35
vt 4.85 5.3
vt 8.35 5.3
vt 1.475 -2.5
vt 1.475 -0.75
vt 1.475 0.75
vt 1.475 2.5
vt -3.525 2.5
vt -3.525 -2.5

vn 1 4.849027E-07 1.144409E-06
vn 0.4472122 -0.8944279 0
vn 0 0 -1
vn 0 0 1
vn 0 1 0
vn 0 -1 0
vn -1 0 0
vn 0 -0.8944272 0.4472136
vn 0 -0.8944272 -0.4472136
vn -0.4472136 -0.8944272 0

usemtl MetalPlates006
f 199/189/5 197/184/5 198/185/5
f 199/189/5 198/185/5 202/186/5
f 200/188/5 199/189/5 202/186/5
f 200/188/5 202/186/5 201/187/5
f 176/134/6 174/74/6 173/122/6
f 173/122/6 175/133/6 176/134/6
f 180/136/6 178/119/6 177/78/6
f 177/78/6 179/135/6 180/136/6
f 179/135/6 177/78/6 174/74/6
f 174/74/6 176/134/6 179/135/6
f 190/138/6 189/137/6 178/119/6
f 178/119/6 180/136/6 190/138/6
f 194/141/6 193/140/6 189/137/6
f 189/137/6 190/138/6 194/141/6
f 182/146/3 121/144/3 60/143/3
f 60/143/3 181/145/3 182/146/3
f 192/149/1 198/147/1 197/97/1
f 197/97/1 183/148/1 192/149/1
f 183/151/4 197/150/4 199/97/4
f 199/97/4 184/148/4 183/151/4
f 185/153/1 124/152/1 121/143/1
f 121/143/1 182/145/1 185/153/1
f 184/154/7 199/79/7 200/97/7
f 200/97/7 187/148/7 184/154/7
f 186/146/4 57/144/4 124/143/4
f 124/143/4 185/145/4 186/146/4
f 187/151/3 200/150/3 201/97/3
f 201/97/3 188/148/3 187/151/3
f 195/149/7 58/147/7 57/143/7
f 57/143/7 186/145/7 195/149/7
f 188/154/1 201/79/1 202/155/1
f 202/155/1 196/156/1 188/154/1
f 191/156/7 59/155/7 58/147/7
f 58/147/7 195/149/7 191/156/7
f 196/156/1 202/155/1 198/147/1
f 198/147/1 192/149/1 196/156/1
f 181/153/7 60/152/7 59/155/7
f 59/155/7 191/156/7 181/153/7
f 226/160/1 224/158/1 223/157/1
f 223/157/1 225/159/1 226/160/1
f 228/160/4 227/158/4 224/161/4
f 224/161/4 226/162/4 228/160/4
f 203/166/7 230/164/7 229/163/7
f 229/163/7 204/165/7 203/166/7
f 207/159/7 231/157/7 230/164/7
f 230/164/7 203/166/7 207/159/7
f 222/168/3 233/167/3 232/158/3
f 232/158/3 221/160/3 222/168/3
f 204/165/7 229/163/7 233/169/7
f 233/169/7 222/170/7 204/165/7
f 235/160/7 234/158/7 227/163/7
f 227/163/7 228/165/7 235/160/7
f 221/160/3 232/158/3 236/161/3
f 236/161/3 219/162/3 221/160/3
f 220/168/1 238/167/1 237/158/1
f 237/158/1 218/160/1 220/168/1
f 219/162/3 236/161/3 238/171/3
f 238/171/3 220/172/3 219/162/3
f 240/160/3 239/158/3 234/161/3
f 234/161/3 235/162/3 240/160/3
f 218/160/1 237/158/1 241/163/1
f 241/163/1 216/165/1 218/160/1
f 216/165/1 241/163/1 242/169/1
f 242/169/1 215/170/1 216/165/1
f 215/168/4 242/167/4 243/158/4
f 243/158/4 213/160/4 215/168/4
f 225/159/1 223/157/1 244/164/1
f 244/164/1 245/166/1 225/159/1
f 213/160/4 243/158/4 246/161/4
f 246/161/4 212/162/4 213/160/4
f 212/162/4 246/161/4 247/171/4
f 247/171/4 211/172/4 212/162/4
f 211/168/7 247/167/7 248/158/7
f 248/158/7 209/160/7 211/168/7
f 245/166/1 244/164/1 239/163/1
f 239/163/1 240/165/1 245/166/1
f 209/160/7 248/158/7 231/157/7
f 231/157/7 207/159/7 209/160/7
f 227/136/5 250/119/5 249/78/5
f 249/78/5 224/135/5 227/136/5
f 234/133/5 257/122/5 250/119/5
f 250/119/5 227/136/5 234/133/5
f 239/134/5 260/74/5 257/122/5
f 257/122/5 234/133/5 239/134/5
f 244/142/5 263/75/5 260/74/5
f 260/74/5 239/134/5 244/142/5
f 223/139/5 266/76/5 263/75/5
f 263/75/5 244/142/5 223/139/5
f 224/135/5 249/78/5 266/76/5
f 266/76/5 223/139/5 224/135/5
f 258/176/4 214/174/4 210/173/4
f 210/173/4 261/175/4 258/176/4
f 265/178/1 245/166/1 240/165/1
f 240/165/1 262/177/1 265/178/1
f 262/180/3 240/160/3 235/162/3
f 235/162/3 259/179/3 262/180/3
f 255/176/1 217/174/1 214/181/1
f 214/181/1 258/182/1 255/176/1
f 259/180/7 235/160/7 228/165/7
f 228/165/7 256/177/7 259/180/7
f 251/176/3 206/174/3 217/173/3
f 217/173/3 255/175/3 251/176/3
f 256/180/4 228/160/4 226/162/4
f 226/162/4 253/179/4 256/180/4
f 252/178/7 205/166/7 206/181/7
f 206/181/7 251/182/7 252/178/7
f 253/180/1 226/160/1 225/159/1
f 225/159/1 254/183/1 253/180/1
f 264/183/7 208/159/7 205/166/7
f 205/166/7 252/178/7 264/183/7
f 254/183/1 225/159/1 245/166/1
f 245/166/1 265/178/1 254/183/1
f 261/176/7 210/174/7 208/159/7
f 208/159/7 264/183/7 261/176/7

usemtl PaintedMetal016
f 183/135/5 184/136/5 182/119/5 181/78/5
f 187/133/5 188/134/5 186/74/5 185/122/5
f 192/139/5 183/135/5 181/78/5 191/76/5
f 196/142/5 192/139/5 191/76/5 195/75/5
f 188/134/5 196/142/5 195/75/5 186/74/5
f 184/136/5 187/133/5 185/122/5 182/119/5
f 253/136/6 254/138/6 252/137/6 251/119/6
f 256/135/6 253/136/6 251/119/6 255/78/6
f 259/134/6 256/135/6 255/78/6 258/74/6
f 262/133/6 259/134/6 258/74/6 261/122/6
f 265/141/6 262/133/6 261/122/6 264/140/6
f 254/138/6 265/141/6 264/140/6 252/137/6

usemtl ContainmentZone-Generic1
f 3/3/1 4/4/1 2/2/1 1/1/1
f 7/7/1 8/8/1 6/6/1 5/5/1
f 9/11/1 10/12/1 4/10/1 3/9/1
f 11/15/1 12/16/1 8/14/1 7/13/1
f 11/15/1 7/13/1 4/10/1 10/12/1
f 13/19/2 14/20/2 10/18/2 9/17/2
f 15/23/2 16/24/2 12/22/2 11/21/2
f 14/20/2 15/23/2 11/21/2 10/18/2
f 17/27/1 18/28/1 14/26/1 13/25/1
f 19/31/1 20/32/1 16/30/1 15/29/1
f 18/28/1 19/31/1 15/29/1 14/26/1
f 21/33/1 22/34/1 18/28/1 17/27/1
f 23/35/1 24/36/1 20/32/1 19/31/1
f 22/34/1 23/35/1 19/31/1 18/28/1
f 7/39/3 5/40/3 26/38/3 25/37/3
f 29/43/4 30/44/4 28/42/4 27/41/4
f 30/44/4 32/46/4 31/45/4 28/42/4
f 32/46/4 34/48/4 33/47/4 31/45/4
f 34/48/4 36/50/4 35/49/4 33/47/4
f 23/53/5 22/54/5 38/52/5 37/51/5
f 36/50/4 40/56/4 39/55/4 35/49/4
f 24/58/5 23/53/5 37/51/5 41/57/5
f 22/54/5 21/60/5 42/59/5 38/52/5
f 45/63/3 46/64/3 44/62/3 43/61/3
f 4/18/6 7/21/6 25/66/6 47/65/6
f 46/64/3 49/68/3 48/67/3 44/62/3
f 49/68/3 51/70/3 50/69/3 48/67/3
f 51/70/3 53/39/3 52/37/3 50/69/3
f 53/39/3 55/40/3 54/38/3 52/37/3
f 2/43/4 4/44/4 47/42/4 56/41/4
f 63/80/7 64/81/7 62/79/7 61/14/7
f 66/84/1 67/85/1 3/3/1 1/1/1
f 67/39/1 68/70/1 9/11/1 3/9/1
f 70/86/7 63/80/7 61/14/7 69/16/7
f 68/87/2 71/88/2 13/19/2 9/17/2
f 73/89/7 70/86/7 69/16/7 72/30/7
f 71/90/1 74/91/1 17/27/1 13/25/1
f 76/92/7 73/89/7 72/30/7 75/32/7
f 74/91/1 77/93/1 21/33/1 17/27/1
f 78/94/7 76/92/7 75/32/7 42/36/7
f 77/95/5 78/96/5 42/59/5 21/60/5
f 81/40/7 82/39/7 80/9/7 79/97/7
f 83/98/5 84/99/5 24/58/5 41/57/5
f 85/100/1 86/101/1 6/6/1 8/8/1
f 82/39/7 88/70/7 87/11/7 80/9/7
f 89/86/1 85/80/1 8/14/1 12/16/1
f 88/70/7 91/68/7 90/25/7 87/11/7
f 92/102/2 89/103/2 12/22/2 16/24/2
f 91/68/7 94/64/7 93/27/7 90/25/7
f 95/104/1 92/105/1 16/30/1 20/32/1
f 94/64/7 83/63/7 41/33/7 93/27/7
f 84/106/1 95/104/1 20/32/1 24/36/1
f 52/42/7 54/41/7 64/81/7 63/80/7
f 99/109/1 100/110/1 98/70/1 97/39/1
f 102/111/1 99/109/1 97/39/1 101/40/1
f 50/45/7 52/42/7 63/80/7 70/86/7
f 100/110/1 104/112/1 103/68/1 98/70/1
f 48/47/7 50/45/7 70/86/7 73/89/7
f 104/112/1 106/113/1 105/64/1 103/68/1
f 44/49/7 48/47/7 73/89/7 76/92/7
f 106/113/1 108/114/1 107/63/1 105/64/1
f 43/55/7 44/49/7 76/92/7 78/94/7
f 45/115/5 43/116/5 78/96/5 77/95/5
f 27/111/7 28/109/7 82/39/7 81/40/7
f 39/117/5 40/118/5 84/99/5 83/98/5
f 111/42/1 112/41/1 110/81/1 109/80/1
f 28/109/7 31/110/7 88/70/7 82/39/7
f 114/45/1 111/42/1 109/80/1 113/86/1
f 31/110/7 33/112/7 91/68/7 88/70/7
f 116/47/1 114/45/1 113/86/1 115/89/1
f 33/112/7 35/113/7 94/64/7 91/68/7
f 118/49/1 116/47/1 115/89/1 117/92/1
f 35/113/7 39/114/7 83/63/7 94/64/7
f 120/55/1 118/49/1 117/92/1 119/94/1
f 129/88/5 130/123/5 45/115/5 77/95/5
f 126/84/4 131/85/4 67/100/4 66/101/4
f 132/44/3 133/43/3 55/40/3 53/39/3
f 131/39/4 134/70/4 68/46/4 67/44/4
f 135/46/3 132/44/3 53/39/3 51/70/3
f 134/83/8 136/95/8 71/88/8 68/87/8
f 137/48/3 135/46/3 51/70/3 49/68/3
f 136/90/4 138/91/4 74/125/4 71/124/4
f 139/50/3 137/48/3 49/68/3 46/64/3
f 138/91/4 129/93/4 77/126/4 74/125/4
f 130/56/3 139/50/3 46/64/3 45/63/3
f 140/126/3 141/125/3 95/91/3 84/93/3
f 142/127/5 140/102/5 84/99/5 40/118/5
f 143/64/4 142/63/4 40/56/4 36/50/4
f 141/125/3 144/124/3 92/90/3 95/91/3
f 145/68/4 143/64/4 36/50/4 34/48/4
f 144/99/9 146/107/9 89/103/9 92/102/9
f 147/70/4 145/68/4 34/48/4 32/46/4
f 146/46/3 148/44/3 85/39/3 89/70/3
f 149/39/4 147/70/4 32/46/4 30/44/4
f 148/100/3 127/101/3 86/84/3 85/85/3
f 150/40/4 149/39/4 30/44/4 29/43/4
f 107/128/5 108/101/5 130/123/5 129/88/5
f 99/42/3 102/41/3 133/43/3 132/44/3
f 100/45/3 99/42/3 132/44/3 135/46/3
f 104/47/3 100/45/3 135/46/3 137/48/3
f 106/49/3 104/47/3 137/48/3 139/50/3
f 108/55/3 106/49/3 139/50/3 130/56/3
f 120/129/5 119/130/5 140/102/5 142/127/5
f 118/62/4 120/61/4 142/63/4 143/64/4
f 116/67/4 118/62/4 143/64/4 145/68/4
f 114/69/4 116/67/4 145/68/4 147/70/4
f 111/37/4 114/69/4 147/70/4 149/39/4
f 112/38/4 111/37/4 149/39/4 150/40/4
f 151/14/7 152/16/7 134/86/7 131/80/7
f 153/9/1 154/97/1 101/40/1 97/39/1
f 155/19/5 156/131/5 107/128/5 129/88/5
f 157/11/1 153/9/1 97/39/1 98/70/1
f 152/77/10 158/60/10 136/95/10 134/83/10
f 159/25/1 157/11/1 98/70/1 103/68/1
f 158/30/7 160/32/7 138/104/7 136/105/7
f 161/27/1 159/25/1 103/68/1 105/64/1
f 160/32/7 155/36/7 129/106/7 138/104/7
f 156/33/1 161/27/1 105/64/1 107/63/1
f 125/6/7 151/8/7 131/100/7 126/101/7
f 162/9/7 163/11/7 152/16/7 151/14/7
f 164/14/1 165/79/1 154/97/1 153/9/1
f 166/24/5 167/132/5 156/131/5 155/19/5
f 168/16/1 164/14/1 153/9/1 157/11/1
f 163/73/10 169/58/10 158/60/10 152/77/10
f 170/30/1 168/16/1 157/11/1 159/25/1
f 169/25/7 171/27/7 160/32/7 158/30/7
f 172/32/1 170/30/1 159/25/1 161/27/1
f 171/27/7 166/33/7 155/36/7 160/32/7
f 167/36/1 172/32/1 161/27/1 156/33/1
f 128/1/7 162/3/7 151/8/7 125/6/7
f 148/39/7 146/70/7 163/11/7 162/9/7
f 109/80/1 110/81/1 165/79/1 164/14/1
f 140/102/5 119/130/5 167/132/5 166/24/5
f 113/86/1 109/80/1 164/14/1 168/16/1
f 146/107/10 144/99/10 169/58/10 163/73/10
f 115/89/1 113/86/1 168/16/1 170/30/1
f 144/90/7 141/91/7 171/27/7 169/25/7
f 117/92/1 115/89/1 170/30/1 172/32/1
f 141/91/7 140/93/7 166/33/7 171/27/7
f 119/94/1 117/92/1 172/32/1 167/36/1
f 127/84/7 148/85/7 162/3/7 128/1/7
f 203/18/6 204/17/6 206/119/6 205/137/6
f 207/21/6 203/18/6 205/137/6 208/140/6
f 209/22/6 207/21/6 208/140/6 210/122/6
f 209/22/6 210/122/6 212/121/6 211/103/6
f 212/121/6 210/122/6 214/74/6 213/108/6
f 213/108/6 214/74/6 216/73/6 215/107/6
f 217/78/6 218/77/6 216/73/6 214/74/6
f 217/78/6 219/82/6 220/83/6 218/77/6
f 206/119/6 221/120/6 219/82/6 217/78/6
f 206/119/6 204/17/6 222/87/6 221/120/6

usemtl ContainmentZone-Generic
f 5/71/5 2/72/5 56/52/5 26/51/5
f 57/74/5 58/75/5 5/71/5 6/73/5
f 58/75/5 59/76/5 2/72/5 5/71/5
f 59/76/5 60/78/5 1/77/5 2/72/5
f 65/82/5 66/83/5 1/77/5 60/78/5
f 86/107/5 96/108/5 57/74/5 6/73/5
f 121/119/5 122/120/5 65/82/5 60/78/5
f 123/121/5 124/122/5 57/74/5 96/108/5
f 125/17/5 126/87/5 122/120/5 121/119/5
f 127/103/5 128/22/5 124/122/5 123/121/5
f 124/122/5 128/22/5 125/17/5 121/119/5

