# ProBuilder 5.0.4
# https://unity3d.com/unity/features/worldbuilding/probuilder
# 6/23/2022 7:29:38 PM

mtllib ./Heat-Sink-8.7-0.5-3.85.mtl
o Heat-Sink-8.7-0.5-3.85

g Heat-Sink-8.7-0.5-3.85
v 4.35 -0.25 -1.874998
v -4.35 -0.25 -1.874998
v 4.35 0.25 -1.874998
v -4.35 0.25 -1.874998
v -4.35 -0.25 -1.924997
v -4.35 0.25 -1.924997
v 4.35 -0.25 -1.924997
v 4.35 0.25 -1.924997
v 4.35 -0.25 -0.874999
v -4.35 -0.25 -0.874999
v 4.35 0.25 -0.874999
v -4.35 0.25 -0.874999
v -4.35 -0.25 -0.9249983
v -4.35 0.25 -0.9249983
v 4.35 -0.25 -0.9249983
v 4.35 0.25 -0.9249983
v 4.35 -0.25 -0.6749992
v -4.35 -0.25 -0.6749992
v 4.35 0.25 -0.6749992
v -4.35 0.25 -0.6749992
v -4.35 -0.25 -0.7249985
v -4.35 0.25 -0.7249985
v 4.35 -0.25 -0.7249985
v 4.35 0.25 -0.7249985
v 4.35 -0.25 -0.4749994
v -4.35 -0.25 -0.4749994
v 4.35 0.25 -0.4749994
v -4.35 0.25 -0.4749994
v -4.35 -0.25 -0.5249987
v -4.35 0.25 -0.5249987
v 4.35 -0.25 -0.5249987
v 4.35 0.25 -0.5249987
v 4.35 -0.25 -0.2749996
v -4.35 -0.25 -0.2749996
v 4.35 0.25 -0.2749996
v -4.35 0.25 -0.2749996
v -4.35 -0.25 -0.3249989
v -4.35 0.25 -0.3249989
v 4.35 -0.25 -0.3249989
v 4.35 0.25 -0.3249989
v 4.35 -0.25 -0.07499981
v -4.35 -0.25 -0.07499981
v 4.35 0.25 -0.07499981
v -4.35 0.25 -0.07499981
v -4.35 -0.25 -0.124999
v -4.35 0.25 -0.124999
v 4.35 -0.25 -0.124999
v 4.35 0.25 -0.124999
v 4.35 -0.25 0.125
v -4.35 -0.25 0.125
v 4.35 0.25 0.125
v -4.35 0.25 0.125
v -4.35 -0.25 0.07500076
v -4.35 0.25 0.07500076
v 4.35 -0.25 0.07500076
v 4.35 0.25 0.07500076
v 4.35 -0.25 0.3249998
v -4.35 -0.25 0.3249998
v 4.35 0.25 0.3249998
v -4.35 0.25 0.3249998
v -4.35 -0.25 0.2750006
v -4.35 0.25 0.2750006
v 4.35 -0.25 0.2750006
v 4.35 0.25 0.2750006
v 4.35 -0.25 0.5249996
v -4.35 -0.25 0.5249996
v 4.35 0.25 0.5249996
v -4.35 0.25 0.5249996
v -4.35 -0.25 0.4750004
v -4.35 0.25 0.4750004
v 4.35 -0.25 0.4750004
v 4.35 0.25 0.4750004
v 4.35 -0.25 0.7249994
v -4.35 -0.25 0.7249994
v 4.35 0.25 0.7249994
v -4.35 0.25 0.7249994
v -4.35 -0.25 0.6750002
v -4.35 0.25 0.6750002
v 4.35 -0.25 0.6750002
v 4.35 0.25 0.6750002
v 4.35 -0.25 0.9249992
v -4.35 -0.25 0.9249992
v 4.35 0.25 0.9249992
v -4.35 0.25 0.9249992
v -4.35 -0.25 0.875
v -4.35 0.25 0.875
v 4.35 -0.25 0.875
v 4.35 0.25 0.875
v 4.35 -0.25 1.124999
v -4.35 -0.25 1.124999
v 4.35 0.25 1.124999
v -4.35 0.25 1.124999
v -4.35 -0.25 1.075
v -4.35 0.25 1.075
v 4.35 -0.25 1.075
v 4.35 0.25 1.075
v 4.35 -0.25 1.324999
v -4.35 -0.25 1.324999
v 4.35 0.25 1.324999
v -4.35 0.25 1.324999
v -4.35 -0.25 1.275
v -4.35 0.25 1.275
v 4.35 -0.25 1.275
v 4.35 0.25 1.275
v 4.35 -0.25 1.524999
v -4.35 -0.25 1.524999
v 4.35 0.25 1.524999
v -4.35 0.25 1.524999
v -4.35 -0.25 1.474999
v -4.35 0.25 1.474999
v 4.35 -0.25 1.474999
v 4.35 0.25 1.474999
v 4.35 -0.25 1.724998
v -4.35 -0.25 1.724998
v 4.35 0.25 1.724998
v -4.35 0.25 1.724998
v -4.35 -0.25 1.674999
v -4.35 0.25 1.674999
v 4.35 -0.25 1.674999
v 4.35 0.25 1.674999
v 4.35 -0.25 1.924998
v -4.35 -0.25 1.924998
v 4.35 0.25 1.924998
v -4.35 0.25 1.924998
v -4.35 -0.25 1.874999
v -4.35 0.25 1.874999
v 4.35 -0.25 1.874999
v 4.35 0.25 1.874999
v -0.3750001 -0.2 1.900002
v -0.3750001 -0.2 -1.899998
v -0.3750001 0.09999999 1.900002
v -0.3750001 0.09999999 -1.899998
v 0.6750001 -0.2 -1.899998
v 0.6750001 -0.2 1.900002
v 0.6750001 0.09999999 -1.899998
v 0.6750001 0.09999999 1.900002
v -3.975 -0.2 1.900002
v -3.975 -0.2 -1.899998
v -3.975 0.09999999 1.900002
v -3.975 0.09999999 -1.899998
v -2.925 -0.2 -1.899998
v -2.925 -0.2 1.900002
v -2.925 0.09999999 -1.899998
v -2.925 0.09999999 1.900002
v 4.35 -0.25 -1.274999
v -4.35 -0.25 -1.274999
v 4.35 0.25 -1.274999
v -4.35 0.25 -1.274999
v -4.35 -0.25 -1.324998
v -4.35 0.25 -1.324998
v 4.35 -0.25 -1.324998
v 4.35 0.25 -1.324998
v 4.35 -0.25 -1.074999
v -4.35 -0.25 -1.074999
v 4.35 0.25 -1.074999
v -4.35 0.25 -1.074999
v -4.35 -0.25 -1.124998
v -4.35 0.25 -1.124998
v 4.35 -0.25 -1.124998
v 4.35 0.25 -1.124998
v 4.35 -0.25 -1.674998
v -4.35 -0.25 -1.674998
v 4.35 0.25 -1.674998
v -4.35 0.25 -1.674998
v -4.35 -0.25 -1.724998
v -4.35 0.25 -1.724998
v 4.35 -0.25 -1.724998
v 4.35 0.25 -1.724998
v 4.35 -0.25 -1.474998
v -4.35 -0.25 -1.474998
v 4.35 0.25 -1.474998
v -4.35 0.25 -1.474998
v -4.35 -0.25 -1.524998
v -4.35 0.25 -1.524998
v 4.35 -0.25 -1.524998
v 4.35 0.25 -1.524998

vt 8.700001 0
vt 0 0
vt 8.700001 0.5
vt 0 0.5
vt 0.04999924 0
vt 0.04999924 0.5
vt 3.849996 0
vt 3.799996 0
vt 3.849996 0.5
vt 3.799996 0.5
vt 0 0.04999924
vt 8.700001 0.04999924
vt 1.049998 0
vt 0.999999 0
vt 1.049998 0.5
vt 0.999999 0.5
vt 2.849997 0
vt 2.799997 0
vt 2.849997 0.5
vt 2.799997 0.5
vt 0 1.049998
vt 8.700001 1.049998
vt 0 0.999999
vt 8.700001 0.999999
vt 1.249998 0
vt 1.199999 0
vt 1.249998 0.5
vt 1.199999 0.5
vt 2.649997 0
vt 2.599998 0
vt 2.649997 0.5
vt 2.599998 0.5
vt 0 1.249998
vt 8.700001 1.249998
vt 0 1.199999
vt 8.700001 1.199999
vt 1.449998 0
vt 1.399999 0
vt 1.449998 0.5
vt 1.399999 0.5
vt 2.449997 0
vt 2.399998 0
vt 2.449997 0.5
vt 2.399998 0.5
vt 0 1.449998
vt 8.700001 1.449998
vt 0 1.399999
vt 8.700001 1.399999
vt 1.649998 0
vt 1.599998 0
vt 1.649998 0.5
vt 1.599998 0.5
vt 2.249997 0
vt 2.199998 0
vt 2.249997 0.5
vt 2.199998 0.5
vt 0 1.649998
vt 8.700001 1.649998
vt 0 1.599998
vt 8.700001 1.599998
vt 1.849998 0
vt 1.799998 0
vt 1.849998 0.5
vt 1.799998 0.5
vt 2.049997 0
vt 1.999998 0
vt 2.049997 0.5
vt 1.999998 0.5
vt 0 1.849998
vt 8.700001 1.849998
vt 0 1.799998
vt 8.700001 1.799998
vt 0 2.049997
vt 8.700001 2.049997
vt 0 1.999998
vt 8.700001 1.999998
vt 0 2.249997
vt 8.700001 2.249997
vt 0 2.199998
vt 8.700001 2.199998
vt 0 2.449997
vt 8.700001 2.449997
vt 0 2.399998
vt 8.700001 2.399998
vt 0 2.649997
vt 8.700001 2.649997
vt 0 2.599998
vt 8.700001 2.599998
vt 0 2.849997
vt 8.700001 2.849997
vt 0 2.799997
vt 8.700001 2.799997
vt 3.049996 0
vt 2.999997 0
vt 3.049996 0.5
vt 2.999997 0.5
vt 0.8499985 0
vt 0.7999992 0
vt 0.8499985 0.5
vt 0.7999992 0.5
vt 0 3.049996
vt 8.700001 3.049996
vt 0 2.999997
vt 8.700001 2.999997
vt 3.249996 0
vt 3.199997 0
vt 3.249996 0.5
vt 3.199997 0.5
vt 0.6499987 0
vt 0.5999994 0
vt 0.6499987 0.5
vt 0.5999994 0.5
vt 0 3.249996
vt 8.700001 3.249996
vt 0 3.199997
vt 8.700001 3.199997
vt 3.449996 0
vt 3.399997 0
vt 3.449996 0.5
vt 3.399997 0.5
vt 0.4499989 0
vt 0.3999996 0
vt 0.4499989 0.5
vt 0.3999996 0.5
vt 0 3.449996
vt 8.700001 3.449996
vt 0 3.399997
vt 8.700001 3.399997
vt 3.649996 0
vt 3.599997 0
vt 3.649996 0.5
vt 3.599997 0.5
vt 0.249999 0
vt 0.1999998 0
vt 0.249999 0.5
vt 0.1999998 0.5
vt 0 3.649996
vt 8.700001 3.649996
vt 0 3.599997
vt 8.700001 3.599997
vt 0 3.849996
vt 8.700001 3.849996
vt 0 3.799996
vt 8.700001 3.799996
vt 3.824999 0.05
vt 0.02499962 0.05
vt 3.824999 0.35
vt 0.02499962 0.35
vt 3.675 3.824999
vt 4.725 3.824999
vt 3.675 0.02499962
vt 4.725 0.02499962
vt 5.025001 0.02499962
vt 3.975 0.02499962
vt 5.025001 3.824999
vt 3.975 3.824999
vt 7.275001 3.824999
vt 8.325001 3.824999
vt 7.275001 0.02499962
vt 8.325001 0.02499962
vt 1.425 0.02499962
vt 0.3750002 0.02499962
vt 1.425 3.824999
vt 0.3750002 3.824999
vt 0 0.6499987
vt 8.700001 0.6499987
vt 0 0.5999994
vt 8.700001 0.5999994
vt 0 0.8499985
vt 8.700001 0.8499985
vt 0 0.7999992
vt 8.700001 0.7999992
vt 0 0.249999
vt 8.700001 0.249999
vt 0 0.1999998
vt 8.700001 0.1999998
vt 0 0.4499989
vt 8.700001 0.4499989
vt 0 0.3999996
vt 8.700001 0.3999996

vn 0 0 1
vn -1 0 0
vn 0 0 -1
vn 1 0 0
vn 0 1 0
vn 0 -1 0

usemtl Metal011
f 3/3/1 4/4/1 2/2/1 1/1/1
f 4/6/2 6/4/2 5/2/2 2/5/2
f 6/3/3 8/4/3 7/2/3 5/1/3
f 8/9/4 3/10/4 1/8/4 7/7/4
f 8/2/5 6/1/5 4/12/5 3/11/5
f 1/12/6 2/11/6 5/2/6 7/1/6
f 11/3/1 12/4/1 10/2/1 9/1/1
f 12/15/2 14/16/2 13/14/2 10/13/2
f 14/3/3 16/4/3 15/2/3 13/1/3
f 16/19/4 11/20/4 9/18/4 15/17/4
f 16/23/5 14/24/5 12/22/5 11/21/5
f 9/22/6 10/21/6 13/23/6 15/24/6
f 19/3/1 20/4/1 18/2/1 17/1/1
f 20/27/2 22/28/2 21/26/2 18/25/2
f 22/3/3 24/4/3 23/2/3 21/1/3
f 24/31/4 19/32/4 17/30/4 23/29/4
f 24/35/5 22/36/5 20/34/5 19/33/5
f 17/34/6 18/33/6 21/35/6 23/36/6
f 27/3/1 28/4/1 26/2/1 25/1/1
f 28/39/2 30/40/2 29/38/2 26/37/2
f 30/3/3 32/4/3 31/2/3 29/1/3
f 32/43/4 27/44/4 25/42/4 31/41/4
f 32/47/5 30/48/5 28/46/5 27/45/5
f 25/46/6 26/45/6 29/47/6 31/48/6
f 35/3/1 36/4/1 34/2/1 33/1/1
f 36/51/2 38/52/2 37/50/2 34/49/2
f 38/3/3 40/4/3 39/2/3 37/1/3
f 40/55/4 35/56/4 33/54/4 39/53/4
f 40/59/5 38/60/5 36/58/5 35/57/5
f 33/58/6 34/57/6 37/59/6 39/60/6
f 43/3/1 44/4/1 42/2/1 41/1/1
f 44/63/2 46/64/2 45/62/2 42/61/2
f 46/3/3 48/4/3 47/2/3 45/1/3
f 48/67/4 43/68/4 41/66/4 47/65/4
f 48/71/5 46/72/5 44/70/5 43/69/5
f 41/70/6 42/69/6 45/71/6 47/72/6
f 51/3/1 52/4/1 50/2/1 49/1/1
f 52/67/2 54/68/2 53/66/2 50/65/2
f 54/3/3 56/4/3 55/2/3 53/1/3
f 56/63/4 51/64/4 49/62/4 55/61/4
f 56/75/5 54/76/5 52/74/5 51/73/5
f 49/74/6 50/73/6 53/75/6 55/76/6
f 59/3/1 60/4/1 58/2/1 57/1/1
f 60/55/2 62/56/2 61/54/2 58/53/2
f 62/3/3 64/4/3 63/2/3 61/1/3
f 64/51/4 59/52/4 57/50/4 63/49/4
f 64/79/5 62/80/5 60/78/5 59/77/5
f 57/78/6 58/77/6 61/79/6 63/80/6
f 67/3/1 68/4/1 66/2/1 65/1/1
f 68/43/2 70/44/2 69/42/2 66/41/2
f 70/3/3 72/4/3 71/2/3 69/1/3
f 72/39/4 67/40/4 65/38/4 71/37/4
f 72/83/5 70/84/5 68/82/5 67/81/5
f 65/82/6 66/81/6 69/83/6 71/84/6
f 75/3/1 76/4/1 74/2/1 73/1/1
f 76/31/2 78/32/2 77/30/2 74/29/2
f 78/3/3 80/4/3 79/2/3 77/1/3
f 80/27/4 75/28/4 73/26/4 79/25/4
f 80/87/5 78/88/5 76/86/5 75/85/5
f 73/86/6 74/85/6 77/87/6 79/88/6
f 83/3/1 84/4/1 82/2/1 81/1/1
f 84/19/2 86/20/2 85/18/2 82/17/2
f 86/3/3 88/4/3 87/2/3 85/1/3
f 88/15/4 83/16/4 81/14/4 87/13/4
f 88/91/5 86/92/5 84/90/5 83/89/5
f 81/90/6 82/89/6 85/91/6 87/92/6
f 91/3/1 92/4/1 90/2/1 89/1/1
f 92/95/2 94/96/2 93/94/2 90/93/2
f 94/3/3 96/4/3 95/2/3 93/1/3
f 96/99/4 91/100/4 89/98/4 95/97/4
f 96/103/5 94/104/5 92/102/5 91/101/5
f 89/102/6 90/101/6 93/103/6 95/104/6
f 99/3/1 100/4/1 98/2/1 97/1/1
f 100/107/2 102/108/2 101/106/2 98/105/2
f 102/3/3 104/4/3 103/2/3 101/1/3
f 104/111/4 99/112/4 97/110/4 103/109/4
f 104/115/5 102/116/5 100/114/5 99/113/5
f 97/114/6 98/113/6 101/115/6 103/116/6
f 107/3/1 108/4/1 106/2/1 105/1/1
f 108/119/2 110/120/2 109/118/2 106/117/2
f 110/3/3 112/4/3 111/2/3 109/1/3
f 112/123/4 107/124/4 105/122/4 111/121/4
f 112/127/5 110/128/5 108/126/5 107/125/5
f 105/126/6 106/125/6 109/127/6 111/128/6
f 115/3/1 116/4/1 114/2/1 113/1/1
f 116/131/2 118/132/2 117/130/2 114/129/2
f 118/3/3 120/4/3 119/2/3 117/1/3
f 120/135/4 115/136/4 113/134/4 119/133/4
f 120/139/5 118/140/5 116/138/5 115/137/5
f 113/138/6 114/137/6 117/139/6 119/140/6
f 123/3/1 124/4/1 122/2/1 121/1/1
f 124/9/2 126/10/2 125/8/2 122/7/2
f 126/3/3 128/4/3 127/2/3 125/1/3
f 128/6/4 123/4/4 121/2/4 127/5/4
f 128/143/5 126/144/5 124/142/5 123/141/5
f 121/142/6 122/141/6 125/143/6 127/144/6
f 131/147/2 132/148/2 130/146/2 129/145/2
f 135/147/4 136/148/4 134/146/4 133/145/4
f 135/151/5 132/152/5 131/150/5 136/149/5
f 134/155/6 129/156/6 130/154/6 133/153/6
f 139/147/2 140/148/2 138/146/2 137/145/2
f 143/147/4 144/148/4 142/146/4 141/145/4
f 143/159/5 140/160/5 139/158/5 144/157/5
f 142/163/6 137/164/6 138/162/6 141/161/6
f 147/3/1 148/4/1 146/2/1 145/1/1
f 148/111/2 150/112/2 149/110/2 146/109/2
f 150/3/3 152/4/3 151/2/3 149/1/3
f 152/107/4 147/108/4 145/106/4 151/105/4
f 152/167/5 150/168/5 148/166/5 147/165/5
f 145/166/6 146/165/6 149/167/6 151/168/6
f 155/3/1 156/4/1 154/2/1 153/1/1
f 156/99/2 158/100/2 157/98/2 154/97/2
f 158/3/3 160/4/3 159/2/3 157/1/3
f 160/95/4 155/96/4 153/94/4 159/93/4
f 160/171/5 158/172/5 156/170/5 155/169/5
f 153/170/6 154/169/6 157/171/6 159/172/6
f 163/3/1 164/4/1 162/2/1 161/1/1
f 164/135/2 166/136/2 165/134/2 162/133/2
f 166/3/3 168/4/3 167/2/3 165/1/3
f 168/131/4 163/132/4 161/130/4 167/129/4
f 168/175/5 166/176/5 164/174/5 163/173/5
f 161/174/6 162/173/6 165/175/6 167/176/6
f 171/3/1 172/4/1 170/2/1 169/1/1
f 172/123/2 174/124/2 173/122/2 170/121/2
f 174/3/3 176/4/3 175/2/3 173/1/3
f 176/119/4 171/120/4 169/118/4 175/117/4
f 176/179/5 174/180/5 172/178/5 171/177/5
f 169/178/6 170/177/6 173/179/6 175/180/6

