# ProBuilder 5.0.4
# https://unity3d.com/unity/features/worldbuilding/probuilder
# 5/26/2022 9:40:28 PM

mtllib ./Book-6-9-V2.mtl
o Book-6-9-V2

g Book-6-9-V2
v 7.62 -1 11.43
v -7.62 -1 11.43
v 7.62 1 11.43
v -7.62 1 11.43
v -7.62 -1 -11.43
v -7.62 1 -11.43
v 7.62 -1 -11.43
v 7.62 1 -11.43
v 7.61 1.01 11.42
v -7.61 1.01 11.42
v 7.61 1.01 -11.42
v -7.61 1.01 -11.42
v 7.61 -1.01 -11.42
v -7.61 -1.01 -11.42
v 7.61 -1.01 11.42
v -7.61 -1.01 11.42
v 7.62 -1.01 -11.43
v 7.62 -1.01 11.43
v 7.62 1.01 -11.43
v -7.62 1.01 -11.43
v 7.62 1.01 11.43
v -7.62 -1.01 11.43
v -7.62 1.01 11.43
v -7.62 -1.01 -11.43

vt 0.4661459 0.1010772
vt 0.1015625 0.1010772
vt 0.4661459 0.1489228
vt 0.1015625 0.1489228
vt 0.6484375 0.1010772
vt 0.6484375 0.1489228
vt 0.7734375 0.3510772
vt 0.2265625 0.3510772
vt 0.7734375 0.3989228
vt 0.2265625 0.3989228
vt 0.5679476 0.9896879
vt 0.9320524 0.9896879
vt 0.5679476 0.4432914
vt 0.9320524 0.4432914
vt 0.5570524 0.4432914
vt 0.1929476 0.4432914
vt 0.5570524 0.9896879
vt 0.1929476 0.9896879
vt 0.6484375 0.149162
vt 0.1015625 0.149162
vt 0.7734375 0.399162
vt 0.2265625 0.399162
vt 0.4661459 0.149162
vt 0.1015625 0.100838
vt 0.6484375 0.100838
vt 0.2265625 0.350838
vt 0.7734375 0.350838
vt 0.4661459 0.100838

vn 0 0 1
vn -1 0 0
vn 0 0 -1
vn 1 0 0
vn 0 1 0
vn 0 -1 0
vn -0.4472136 0.8944272 0
vn -0.4472136 -0.8944272 0

usemtl Default
f 3/3/1 4/4/1 2/2/1 1/1/1
f 4/6/2 6/4/2 5/2/2 2/5/2
f 6/3/3 8/4/3 7/2/3 5/1/3
f 8/9/4 3/10/4 1/8/4 7/7/4
f 11/13/5 12/14/5 10/12/5 9/11/5
f 15/17/6 16/18/6 14/16/6 13/15/6
f 17/15/6 18/17/6 15/17/6 13/15/6
f 19/13/5 20/14/7 12/14/5 11/13/5
f 21/11/5 19/13/5 11/13/5 9/11/5
f 18/17/6 22/18/8 16/18/6 15/17/6
f 23/12/7 21/11/5 9/11/5 10/12/5
f 22/18/8 24/16/8 14/16/6 16/18/6
f 20/14/7 23/12/7 10/12/5 12/14/5
f 24/16/8 17/15/6 13/15/6 14/16/6
f 23/19/7 20/20/7 6/4/2 4/6/2
f 19/21/4 21/22/4 3/10/4 8/9/4
f 20/23/3 19/20/3 8/4/3 6/3/3
f 21/23/1 23/20/1 4/4/1 3/3/1
f 24/24/8 22/25/8 2/5/2 5/2/2
f 18/26/4 17/27/4 7/7/4 1/8/4
f 22/24/1 18/28/1 1/1/1 2/2/1
f 17/24/3 24/28/3 5/1/3 7/2/3

