# ProBuilder 5.0.4
# https://unity3d.com/unity/features/worldbuilding/probuilder
# 5/23/2022 7:24:51 PM

mtllib ./Book-6-9.mtl
o Book-6-9

g Book-6-9
v 7.62 -1 11.43
v -7.62 -1 11.43
v 7.62 1 11.43
v -7.62 1 11.43
v -7.62 -1 -11.43
v -7.62 1 -11.43
v 7.62 -1 -11.43
v 7.62 1 -11.43
v 7.61 1.01 11.42
v -7.61 1.01 11.42
v 7.61 1.01 -11.42
v -7.61 1.01 -11.42
v 7.61 -1.01 -11.42
v -7.61 -1.01 -11.42
v 7.61 -1.01 11.42
v -7.61 -1.01 11.42
v 7.62 -1.01 -11.43
v 7.62 -1.01 11.43
v 7.62 1.01 -11.43
v -7.62 1.01 -11.43
v 7.62 1.01 11.43
v -7.62 -1.01 11.43
v -7.62 1.01 11.43
v -7.62 -1.01 -11.43

vt 0.8875672 0.4017498
vt 0.4708816 0.4018937
vt 0.8875861 0.4565744
vt 0.4709006 0.4567182
vt 0.6600062 0.2384276
vt 0.6600062 0.8634276
vt 0.7146868 0.2384276
vt 0.7146869 0.8634276
vt 0.3933359 0.4994889
vt 0.3933359 1.000123
vt 0.4773359 0.4994889
vt 0.4773359 1.000123
vt 0.0009449869 1.00053
vt 0.389055 1.00053
vt 0.0009449869 0.50947
vt 0.389055 0.50947
vt 0.389055 -0.0005836785
vt 0.0009449869 -0.0005836785
vt 0.389055 0.4996123
vt 0.0009449869 0.4996123
vt 0.4777559 0.4994889
vt 0.4777559 1.000123
vt 0.6597328 0.8634276
vt 0.6597328 0.2384276
vt 0.3929159 1.000123
vt 0.3929159 0.4994889
vt 0.887567 0.4014757

vn 0 0 1
vn -1 0 0
vn 0 0 -1
vn 1 0 0
vn 0 1 0
vn 0 -1 0
vn -0.4472136 0.8944272 0
vn -0.4472136 -0.8944272 0

usemtl ThomasCalculus
f 3/3/1 4/4/1 2/2/1 1/1/1
f 4/7/2 6/8/2 5/6/2 2/5/2
f 6/3/3 8/4/3 7/2/3 5/1/3
f 8/11/4 3/12/4 1/10/4 7/9/4
f 11/15/5 12/16/5 10/14/5 9/13/5
f 15/19/6 16/20/6 14/18/6 13/17/6
f 17/17/6 18/19/6 15/19/6 13/17/6
f 19/15/5 20/16/7 12/16/5 11/15/5
f 21/13/5 19/15/5 11/15/5 9/13/5
f 18/19/6 22/20/8 16/20/6 15/19/6
f 23/14/7 21/13/5 9/13/5 10/14/5
f 22/20/8 24/18/8 14/18/6 16/20/6
f 20/16/7 23/14/7 10/14/5 12/16/5
f 24/18/8 17/17/6 13/17/6 14/18/6
f 23/7/7 20/8/7 6/8/2 4/7/2
f 19/21/4 21/22/4 3/12/4 8/11/4
f 20/3/3 19/4/3 8/4/3 6/3/3
f 21/3/1 23/4/1 4/4/1 3/3/1
f 24/23/8 22/24/8 2/5/2 5/6/2
f 18/25/4 17/26/4 7/9/4 1/10/4
f 22/2/1 18/27/1 1/1/1 2/2/1
f 17/2/3 24/27/3 5/1/3 7/2/3

