# ProBuilder 5.0.3
# https://unity3d.com/unity/features/worldbuilding/probuilder
# 1/9/2022 2:29:29 AM

mtllib ./SpaceStation-00-Railgun.mtl
o SpaceStation-00-Railgun

g SpaceStation-00-Railgun
v -0.6154701 -0.5 -3.973643E-09
v -0.6154701 0.5 -3.973643E-09
v -0.307735 -0.5 0.5330127
v -0.307735 0.5 0.5330127
v 0.3077351 -0.5 0.5330127
v 0.3077351 0.5 0.5330127
v 0.6154701 -0.5 -5.563232E-08
v 0.6154701 0.5 -5.563232E-08
v 0.307735 -0.5 -0.5330127
v 0.307735 0.5 -0.5330127
v -0.307735 -0.5 -0.5330127
v -0.307735 0.5 -0.5330127
v -0.5 -0.5 0
v 0 -0.5 0
v -0.25 -0.5 0.4330127
v -0.5 0.5 0
v 0 0.5 0
v -0.25 0.5 0.4330127
v 0.25 -0.5 0.4330127
v 0.25 0.5 0.4330127
v 0.5 -0.5 -4.371139E-08
v 0.5 0.5 -4.371139E-08
v 0.25 -0.5 -0.4330127
v 0.25 0.5 -0.4330127
v -0.25 -0.5 -0.4330127
v -0.25 0.5 -0.4330127
v -0.25 7.5 -0.4330127
v -0.5 7.5 0
v -0.307735 6.5 -0.5330127
v -0.6154701 6.5 -3.973643E-09
v -0.5 3.75 0
v -0.25 3.75 0.4330127
v -0.6154701 3.75 -3.973643E-09
v -0.307735 3.75 0.5330127
v 0.25 3.75 -0.4330127
v -0.25 3.75 -0.4330127
v 0.307735 3.75 -0.5330127
v -0.307735 3.75 -0.5330127
v 0.5 7.5 -4.371139E-08
v 0.25 7.5 -0.4330127
v 0.6154701 6.5 -5.563232E-08
v 0.307735 6.5 -0.5330127
v 0.25 3.75 0.4330127
v 0.5 3.75 -4.371139E-08
v 0.3077351 3.75 0.5330127
v 0.6154701 3.75 -5.563232E-08
v -0.25 7.5 0.4330127
v 0.25 7.5 0.4330127
v -0.307735 6.5 0.5330127
v 0.3077351 6.5 0.5330127

vt 0.4616912 0.06275684
vt 0.4616912 0.1872431
vt 0.5383088 0.06275684
vt 0.5383088 0.1872431
vt 0.5869481 0.125
vt 0.6491913 0.125
vt 0.6180697 0.1789041
vt 0.7114344 0.125
vt 0.6803128 0.1789041
vt 0.6803128 0.07109582
vt 0.6180697 0.07109582
vt 0.5725737 0.125
vt 0.6108825 0.05864722
vt 0.3196874 0.9257049
vt 0.3819305 0.9257049
vt 0.3125001 0.8005978
vt 0.3891177 0.8005978
vt 0.6108825 0.1913528
vt 0.7258089 0.125
vt 0.6875001 0.1913528
vt 0.6875001 0.05864722
vt 0.3819305 0.06429797
vt 0.3196874 0.06429797
vt 0.3819305 0.4688784
vt 0.3196874 0.4688784
vt 0.3891177 0.06429797
vt 0.3125001 0.06429797
vt 0.3891177 0.4688784
vt 0.3125001 0.4688784
vt 0.3819305 0.935702
vt 0.3196874 0.935702
vt 0.4274265 0.4688784
vt 0.4130521 0.4688784
vt 0.4274265 0.8112158
vt 0.4130521 0.935702
vt 0.2885658 0.4688784
vt 0.2741913 0.4688784
vt 0.2885658 0.935702
vt 0.2741913 0.8112158
vt 0.3891177 0.8112158
vt 0.3125001 0.8112158

vn -0.8660254 0 0.5
vn 9.68441E-08 0 1
vn 0.8660254 0 0.4999999
vn 0.8660254 0 -0.5000001
vn 0 0 -1
vn -0.8660254 0 -0.5000001
vn 0 -1 0
vn 0 1 0
vn -0.8617275 0.09950372 -0.4975187
vn 0.8617274 0.09950372 -0.4975187
vn 5.930884E-08 0.09950375 0.9950372
vn -0.8660254 0 0.5000001
vn 0.8660254 0 0.5000001
vn 0.8660254 0 -0.5
vn -0.8660254 0 -0.4999999

usemtl Lit
f 13/5/7 14/6/7 15/7/7
f 15/7/7 14/6/7 19/9/7
f 19/9/7 14/6/7 21/8/7
f 21/8/7 14/6/7 23/10/7
f 23/10/7 14/6/7 25/11/7
f 25/11/7 14/6/7 13/5/7
f 18/9/8 17/6/8 16/8/8
f 20/7/8 17/6/8 18/9/8
f 22/5/8 17/6/8 20/7/8
f 24/11/8 17/6/8 22/5/8
f 26/10/8 17/6/8 24/11/8
f 16/8/8 17/6/8 26/10/8
f 4/4/1 2/2/1 1/1/1
f 1/1/1 3/3/1 4/4/1
f 6/4/2 4/2/2 3/1/2
f 3/1/2 5/3/2 6/4/2
f 8/4/3 6/2/3 5/1/3
f 5/1/3 7/3/3 8/4/3
f 10/4/4 8/2/4 7/1/4
f 7/1/4 9/3/4 10/4/4
f 12/4/5 10/2/5 9/1/5
f 9/1/5 11/3/5 12/4/5
f 2/4/6 12/2/6 11/1/6
f 11/1/6 1/3/6 2/4/6
f 11/13/7 25/11/7 13/5/7
f 13/5/7 1/12/7 11/13/7
f 30/17/9 28/15/9 27/14/9
f 27/14/9 29/16/9 30/17/9
f 1/12/7 13/5/7 15/7/7
f 15/7/7 3/18/7 1/12/7
f 34/20/8 32/9/8 31/8/8
f 31/8/8 33/19/8 34/20/8
f 9/21/7 23/10/7 25/11/7
f 25/11/7 11/13/7 9/21/7
f 38/21/8 36/10/8 35/11/8
f 35/11/8 37/13/8 38/21/8
f 7/19/7 21/8/7 23/10/7
f 23/10/7 9/21/7 7/19/7
f 42/17/10 40/15/10 39/14/10
f 39/14/10 41/16/10 42/17/10
f 5/20/7 19/9/7 21/8/7
f 21/8/7 7/19/7 5/20/7
f 46/12/8 44/5/8 43/7/8
f 43/7/8 45/18/8 46/12/8
f 3/18/7 15/7/7 19/9/7
f 19/9/7 5/20/7 3/18/7
f 50/17/11 48/15/11 47/14/11
f 47/14/11 49/16/11 50/17/11
f 35/25/12 24/23/12 22/22/12
f 22/22/12 44/24/12 35/25/12
f 45/29/3 6/27/3 8/26/3
f 8/26/3 46/28/3 45/29/3
f 46/29/4 8/27/4 10/26/4
f 10/26/4 37/28/4 46/29/4
f 36/25/2 26/23/2 24/22/2
f 24/22/2 35/24/2 36/25/2
f 37/29/5 10/27/5 12/26/5
f 12/26/5 38/28/5 37/29/5
f 31/25/13 16/23/13 26/22/13
f 26/22/13 36/24/13 31/25/13
f 38/29/6 12/27/6 2/26/6
f 2/26/6 33/28/6 38/29/6
f 32/25/14 18/23/14 16/22/14
f 16/22/14 31/24/14 32/25/14
f 33/29/12 2/27/12 4/26/12
f 4/26/12 34/28/12 33/29/12
f 43/25/5 20/23/5 18/22/5
f 18/22/5 32/24/5 43/25/5
f 34/29/2 4/27/2 6/26/2
f 6/26/2 45/28/2 34/29/2
f 44/25/15 22/23/15 20/22/15
f 20/22/15 43/24/15 44/25/15
f 40/31/12 35/25/12 44/24/12
f 44/24/12 39/30/12 40/31/12
f 39/35/2 44/33/2 46/32/2
f 46/32/2 41/34/2 39/35/2
f 42/39/15 37/37/15 35/36/15
f 35/36/15 40/38/15 42/39/15
f 41/41/4 46/29/4 37/28/4
f 37/28/4 42/40/4 41/41/4
f 28/31/13 31/25/13 36/24/13
f 36/24/13 27/30/13 28/31/13
f 27/35/14 36/33/14 38/32/14
f 38/32/14 29/34/14 27/35/14
f 30/39/2 33/37/2 31/36/2
f 31/36/2 28/38/2 30/39/2
f 29/41/6 38/29/6 33/28/6
f 33/28/6 30/40/6 29/41/6
f 48/31/5 43/25/5 32/24/5
f 32/24/5 47/30/5 48/31/5
f 47/35/6 32/33/6 34/32/6
f 34/32/6 49/34/6 47/35/6
f 50/39/4 45/37/4 43/36/4
f 43/36/4 48/38/4 50/39/4
f 49/41/2 34/29/2 45/28/2
f 45/28/2 50/40/2 49/41/2

