# ProBuilder 5.0.3
# https://unity3d.com/unity/features/worldbuilding/probuilder
# 1/9/2022 2:29:29 AM

mtllib ./SpaceStation-00-MainBody.mtl
o SpaceStation-00-MainBody

g SpaceStation-00-MainBody
v -1.5 1 0
v -1.5 4 0
v -1.06066 1 1.06066
v -1.06066 4 1.06066
v 6.556708E-08 1 1.5
v 6.556708E-08 4 1.5
v 1.06066 1 1.06066
v 1.06066 4 1.06066
v 1.5 1 -1.311342E-07
v 1.5 4 -1.311342E-07
v 1.06066 1 -1.06066
v 1.06066 4 -1.06066
v -1.788732E-08 1 -1.5
v -1.788732E-08 4 -1.5
v -1.06066 1 -1.06066
v -1.06066 4 -1.06066
v -1.5 -1.5001 0
v 0 -1.5001 0
v -1.06066 -1.5001 1.06066
v 0 4 0
v 6.556708E-08 -1.5001 1.5
v 1.06066 -1.5001 1.06066
v 1.5 -1.5001 -1.311342E-07
v 1.06066 -1.5001 -1.06066
v -1.788732E-08 -1.5001 -1.5
v -1.06066 -1.5001 -1.06066

vt 0.75 0.4545554
vt 0.75 1
vt 0.9428438 0.4545554
vt 0.9428438 1
vt 0.5571562 0.4545554
vt 0.5571562 1
vt 0 0.2727223
vt 0.2727223 0.2727223
vt 0.07987852 0.4655661
vt 0.5454446 0.2727223
vt 0.4655661 0.4655661
vt 0.2727223 0.5454446
vt 0.4655661 0.07987852
vt 0.0798785 0.07987852
vt 0.2727223 0
vt 0.5571562 -2.980232E-08
vt 0.75 -2.980232E-08
vt 0.9428437 -2.980232E-08

vn -0.9238795 0 0.3826835
vn -0.3826835 0 0.9238796
vn 0.3826835 0 0.9238795
vn 0.9238796 0 0.3826835
vn 0.9238796 0 -0.3826834
vn 0.3826835 0 -0.9238796
vn -0.3826833 0 -0.9238796
vn -0.9238795 0 -0.3826835
vn 0 -1 0
vn 0 1 0

usemtl Lit
f 17/7/9 18/8/9 19/9/9
f 19/9/9 18/8/9 21/12/9
f 21/12/9 18/8/9 22/11/9
f 22/11/9 18/8/9 23/10/9
f 23/10/9 18/8/9 24/13/9
f 24/13/9 18/8/9 25/15/9
f 25/15/9 18/8/9 26/14/9
f 26/14/9 18/8/9 17/7/9
f 4/11/10 20/8/10 2/10/10
f 6/12/10 20/8/10 4/11/10
f 8/9/10 20/8/10 6/12/10
f 10/7/10 20/8/10 8/9/10
f 12/14/10 20/8/10 10/7/10
f 14/15/10 20/8/10 12/14/10
f 16/13/10 20/8/10 14/15/10
f 2/10/10 20/8/10 16/13/10
f 4/4/1 2/2/1 1/1/1
f 1/1/1 3/3/1 4/4/1
f 6/2/2 4/6/2 3/5/2
f 3/5/2 5/1/2 6/2/2
f 8/4/3 6/2/3 5/1/3
f 5/1/3 7/3/3 8/4/3
f 10/2/4 8/6/4 7/5/4
f 7/5/4 9/1/4 10/2/4
f 12/4/5 10/2/5 9/1/5
f 9/1/5 11/3/5 12/4/5
f 14/2/6 12/6/6 11/5/6
f 11/5/6 13/1/6 14/2/6
f 16/4/7 14/2/7 13/1/7
f 13/1/7 15/3/7 16/4/7
f 2/2/8 16/6/8 15/5/8
f 15/5/8 1/1/8 2/2/8
f 17/17/8 1/1/8 15/5/8
f 15/5/8 26/16/8 17/17/8
f 26/18/7 15/3/7 13/1/7
f 13/1/7 25/17/7 26/18/7
f 19/18/1 3/3/1 1/1/1
f 1/1/1 17/17/1 19/18/1
f 21/17/2 5/1/2 3/5/2
f 3/5/2 19/16/2 21/17/2
f 22/18/3 7/3/3 5/1/3
f 5/1/3 21/17/3 22/18/3
f 23/17/4 9/1/4 7/5/4
f 7/5/4 22/16/4 23/17/4
f 24/18/5 11/3/5 9/1/5
f 9/1/5 23/17/5 24/18/5
f 25/17/6 13/1/6 11/5/6
f 11/5/6 24/16/6 25/17/6

