# ProBuilder 5.0.3
# https://unity3d.com/unity/features/worldbuilding/probuilder
# 2021/10/20 23:18:17

mtllib ./ServerMachine-00.mtl
o ServerMachine-00

g ServerMachine-00
v 0.5000501 -0.07500005 -0.51
v 0.5000501 -0.07500005 0.51
v 0.5000501 0.07499993 -0.51
v 0.5000501 0.07499993 0.51
v -0.5000501 -0.07500005 -0.51
v -0.5000501 -0.07500005 0.51
v -0.5000501 0.07499993 -0.51
v -0.5000501 0.07499993 0.51

vt 0.9807664 -0.1914286
vt 0.009337872 -0.1914286
vt 0.9807664 -0.0485715
vt 0.009337872 -0.0485715
vt 0.009337872 -0.3814286
vt 0.9807664 -0.3814286
vt 0.009337872 -0.2385715
vt 0.9807664 -0.2385715
vt -1.0001 -1.02
vt -1.0001 1.02
vt 1.0001 -1.02
vt 1.0001 1.02
vt 1.495152 1.15
vt 1.495152 0.8499998
vt -0.5050479 1.15
vt -0.5050479 0.8499998

vn 1 0 0
vn -1 0 0
vn 0 1 0
vn 0 0 1
vn 0 -1 0
vn 0 0 -1

usemtl ServerMachine-00
f 3/3/1 4/4/1 2/2/1 1/1/1
f 5/5/2 6/6/2 8/8/2 7/7/2

usemtl Metal010_2
f 7/11/3 8/12/3 4/10/3 3/9/3
f 6/10/5 5/9/5 1/11/5 2/12/5

usemtl Metal010
f 8/15/4 6/16/4 2/14/4 4/13/4
f 5/14/6 7/13/6 3/15/6 1/16/6

