# ProBuilder 5.0.6
# https://unity3d.com/unity/features/worldbuilding/probuilder
# 8/21/2022 5:32:52 PM

mtllib ./Thresher-Room-Wall-Door.mtl
o Thresher-Room-Wall-Door

g Thresher-Room-Wall-Door
v -0.5000001 0 3.82816
v -0.5000001 0 -3.82816
v 0.4999999 0 3.82816
v 0.4999999 0 -3.82816
v -0.5000001 15 3.82816
v 0.4999999 15 3.82816
v -1.5 15 4.82816
v 1.5 15 4.82816
v 0.4999999 15 -3.82816
v -0.5000001 15 -3.82816
v 1.5 15 -4.828161
v -1.5 15 -4.828161
v 0.4999999 0 -5.828161
v -0.5000001 0 -5.828161
v 0.4999999 6 -5.828161
v -0.5000001 6 -5.828161
v 1.5 0 -4.828161
v 1.5 6 -4.828161
v 0.4999999 6 -3.82816
v -1.5 0 -4.828161
v -0.5000001 6 -3.82816
v -1.5 6 -4.828161
v -1.5 0 -6.828161
v 1.5 0 -6.828161
v -1.5 6 -6.828161
v 1.5 6 -6.828161
v -0.5000001 0 5.82816
v 0.4999999 0 5.82816
v -0.5000001 6 5.82816
v 0.4999999 6 5.82816
v -1.5 0 4.82816
v -1.5 6 4.82816
v -0.5000001 6 3.82816
v 1.5 0 4.82816
v 0.4999999 6 3.82816
v 1.5 6 4.82816
v 1.5 0 6.82816
v -1.5 0 6.82816
v 1.5 6 6.82816
v -1.5 6 6.82816
v 1.5 15 6.82816
v -1.5 15 6.82816
v -1.5 15 -6.828161
v 1.5 15 -6.828161
v -0.5000001 8 3.82816
v 0.4999999 8 3.82816
v -0.5000001 8 -3.82816
v 0.4999999 8 -3.82816
v 0.3999999 6 -3.82816
v 0.3999999 0 -3.82816
v 0.3999999 6 -5.828161
v 0.3999999 0 -5.828161
v -0.4000001 0 -3.82816
v -0.4000001 6 -3.82816
v -0.4000001 0 -5.828161
v -0.4000001 6 -5.828161
v -0.4000001 6 3.82816
v -0.4000001 0 3.82816
v -0.4000001 6 5.82816
v -0.4000001 0 5.82816
v 0.3999999 0 3.82816
v 0.3999999 6 3.82816
v 0.3999999 0 5.82816
v 0.3999999 6 5.82816
v -0.4000001 8 -3.82816
v -0.4000001 8 3.82816
v 0.3999999 8 3.82816
v 0.3999999 8 -3.82816

vt 0.5000001 3.82816
vt 0.5000001 -3.82816
vt -0.4999999 3.82816
vt -0.4999999 -3.82816
vt 1.5 4.82816
vt -1.5 4.82816
vt -1.5 -4.828161
vt 1.5 -4.828161
vt 0.4999999 0
vt -0.5000001 0
vt 0.4999999 6
vt -0.5000001 6
vt 4.474686 0
vt 3.060472 0
vt 4.474686 6
vt 3.060472 6
vt -3.060472 0
vt -4.474686 0
vt -3.060472 6
vt -4.474686 6
vt 1.5 0
vt -1.5 0
vt 1.5 6
vt -1.5 6
vt 0.5000001 0
vt -0.4999999 0
vt 0.5000001 6
vt -0.4999999 6
vt 4.474684 15
vt 3.060471 15
vt -3.060471 15
vt -4.474684 15
vt 1.5 15
vt -1.5 15
vt -0.5000001 3.82816
vt 0.4999999 3.82816
vt -0.5000001 -3.82816
vt 0.4999999 -3.82816
vt 3.82816 15
vt 3.82816 6
vt -3.82816 15
vt -3.82816 6
vt -1.5 -6.828161
vt 1.5 -6.828161
vt -4.828161 6
vt -4.828161 0
vt -6.828161 6
vt -6.828161 0
vt 4.828161 0
vt 4.828161 6
vt 6.828161 0
vt 6.828161 6
vt -4.828161 15
vt -6.828161 15
vt 4.828161 15
vt 6.828161 15
vt 1.5 6.82816
vt -1.5 6.82816
vt -0.4999999 -5.828161
vt 0.5000001 -5.828161
vt -3.82816 0
vt -5.828161 6
vt -5.828161 0
vt 3.82816 0
vt 5.828161 0
vt 5.828161 6
vt -0.5000001 -5.828161
vt 0.4999999 -5.828161
vt 0.5000001 5.82816
vt -0.4999999 5.82816
vt 0.4999999 5.82816
vt -0.5000001 5.82816
vt -0.4000001 0
vt -0.4000001 6
vt -0.4000001 -5.828161
vt -0.4000001 -3.82816
vt 0.4000001 -3.82816
vt 0.4000001 -5.828161
vt 0.4000001 6
vt 0.4000001 0
vt 0.3999999 6
vt 0.3999999 0
vt -0.3999999 -5.828161
vt -0.3999999 -3.82816
vt 0.3999999 -3.82816
vt 0.3999999 -5.828161
vt -0.3999999 0
vt -0.3999999 6
vt 0.3999999 5.82816
vt 0.3999999 3.82816
vt -0.3999999 3.82816
vt -0.3999999 5.82816
vt 0.4000001 5.82816
vt 0.4000001 3.82816
vt -0.4000001 3.82816
vt -0.4000001 5.82816
vt 0.5000001 8
vt -0.4999999 8
vt 3.82816 8
vt -3.82816 8
vt 0.4999999 8
vt -0.5000001 8
vt 0.3999999 8
vt -0.3999999 8
vt 0.4000001 8
vt -0.4000001 8

vn 0 1 0
vn 0 0 1
vn 0.7071069 0 0.7071066
vn -0.707107 0 0.7071066
vn 0 0 -1
vn -0.7071066 0 -0.7071069
vn 0.7071066 0 -0.7071069
vn 0 -1 0
vn -1 0 0
vn 1 0 0

usemtl Metal002-02
f 3/3/1 4/4/1 2/2/1 1/1/1
f 7/5/1 8/6/1 6/3/1 5/1/1
f 11/7/1 12/8/1 10/2/1 9/4/1
f 15/11/2 16/12/2 14/10/2 13/9/2
f 18/15/3 19/16/3 4/14/3 17/13/3
f 21/19/4 22/20/4 20/18/4 2/17/4
f 25/23/5 26/24/5 24/22/5 23/21/5
f 29/27/5 30/28/5 28/26/5 27/25/5
f 32/15/6 33/16/6 1/14/6 31/13/6
f 35/19/7 36/20/7 34/18/7 3/17/7
f 39/23/2 40/24/2 38/22/2 37/21/2
f 7/29/6 5/30/6 33/16/6 32/15/6
f 6/31/7 8/32/7 36/20/7 35/19/7
f 41/33/2 42/34/2 40/24/2 39/23/2
f 11/29/3 9/30/3 19/16/3 18/15/3
f 10/31/4 12/32/4 22/20/4 21/19/4
f 43/33/5 44/34/5 26/24/5 25/23/5
f 47/37/8 48/38/8 46/36/8 45/35/8
f 10/41/9 21/42/9 33/40/9 5/39/9
f 19/40/10 9/39/10 6/41/10 35/42/10
f 9/4/1 10/2/1 5/1/1 6/3/1
f 23/43/8 24/44/8 17/8/8 20/7/8
f 25/47/9 23/48/9 20/46/9 22/45/9
f 24/51/10 26/52/10 18/50/10 17/49/10
f 43/54/9 25/47/9 22/45/9 12/53/9
f 26/52/10 44/56/10 11/55/10 18/50/10
f 44/43/1 43/44/1 12/8/1 11/7/1
f 41/54/10 39/47/10 36/45/10 8/53/10
f 40/52/9 42/56/9 7/55/9 32/50/9
f 42/57/1 41/58/1 8/6/1 7/5/1
f 37/57/8 38/58/8 31/6/8 34/5/8
f 39/47/10 37/48/10 34/46/10 36/45/10
f 38/51/9 40/52/9 32/50/9 31/49/9
f 13/59/1 14/60/1 2/2/1 4/4/1
f 51/62/9 52/63/9 50/61/9 49/42/9
f 55/65/10 56/66/10 54/40/10 53/64/10
f 16/67/8 15/68/8 19/38/8 21/37/8
f 27/69/1 28/70/1 3/3/1 1/1/1
f 59/62/10 60/63/10 58/61/10 57/42/10
f 63/65/9 64/66/9 62/40/9 61/64/9
f 30/71/8 29/72/8 33/35/8 35/36/8
f 53/73/2 54/74/2 21/12/2 2/10/2
f 55/75/8 53/76/8 2/37/8 14/67/8
f 54/77/1 56/78/1 16/60/1 21/2/1
f 56/79/5 55/80/5 14/25/5 16/27/5
f 49/81/2 50/82/2 4/9/2 19/11/2
f 51/83/1 49/84/1 19/4/1 15/59/1
f 50/85/8 52/86/8 13/68/8 4/38/8
f 52/87/5 51/88/5 15/28/5 13/26/5
f 61/87/5 62/88/5 35/28/5 3/26/5
f 63/89/8 61/90/8 3/36/8 28/71/8
f 62/91/1 64/92/1 30/70/1 35/3/1
f 64/81/2 63/82/2 28/9/2 30/11/2
f 57/79/5 58/80/5 1/25/5 33/27/5
f 59/93/1 57/94/1 33/1/1 29/69/1
f 58/95/8 60/96/8 27/72/8 1/35/8
f 60/73/2 59/74/2 29/12/2 27/10/2
f 45/97/5 46/98/5 35/28/5 33/27/5
f 65/99/10 66/100/10 57/42/10 54/40/10
f 67/99/9 68/100/9 49/42/9 62/40/9
f 48/101/2 47/102/2 21/12/2 19/11/2
f 62/90/8 49/85/8 19/38/8 35/36/8
f 67/103/2 62/81/2 35/11/2 46/101/2
f 49/88/5 68/104/5 48/98/5 19/28/5
f 68/84/1 67/91/1 46/3/1 48/4/1
f 54/76/8 57/95/8 33/35/8 21/37/8
f 65/105/5 54/79/5 21/27/5 47/97/5
f 57/74/2 66/106/2 45/102/2 33/12/2
f 66/94/1 65/77/1 47/2/1 45/1/1

