# ProBuilder 5.0.6
# https://unity3d.com/unity/features/worldbuilding/probuilder
# 8/21/2022 5:23:57 PM

mtllib ./Thresher-Room-Pillar-1-End.mtl
o Thresher-Room-Pillar-1-End

g Thresher-Room-Pillar-1-End
v 0.05 -5 1
v -0.05 -5 1
v 0.05 4.901 1
v -0.05 4.901 1
v -1 -5 0.05
v -1 -5 -0.05
v -1 4.901 0.05
v -1 4.901 -0.05
v -0.05 -5 -1
v 0.05 -5 -1
v -0.05 4.901 -1
v 0.05 4.901 -1
v 1 -5 -0.05
v 1 -5 0.05
v 1 4.901 -0.05
v 1 4.901 0.05
v 0.05 5 0.05
v -0.05 5 0.05
v 0.05 5 -0.05
v -0.05 5 -0.05
v 0.05 -5 -0.05
v -0.05 -5 -0.05
v 0.05 -5 0.05
v -0.05 -5 0.05
v -1 4.901 -0.901
v -1 -5 -0.901
v 1 -5 -0.901
v 1 4.901 -0.901
v 0.05 5 -0.901
v -0.05 5 -0.901
v 1 4.901 0.901
v 1 -5 0.901
v -1 -5 0.901
v -1 4.901 0.901
v -0.05 5 0.901
v 0.05 5 0.901
v 0.901 5 0.05
v 0.901 5 -0.05
v 0.901 5 0.901
v 0.901 -5 1
v 0.901 4.901 1
v 0.901 5 -0.901
v 0.901 4.901 -1
v 0.901 -5 -1
v -0.901 5 -0.901
v -0.901 5 -0.05
v -0.901 5 0.05
v -0.901 5 0.901
v -0.901 4.901 1
v -0.901 -5 1
v -0.901 -5 -1
v -0.901 4.901 -1

vt 0.05 -5
vt -0.05 -5
vt 0.05 4.901
vt -0.05 4.901
vt -0.05 0.05
vt 0.05 0.05
vt -0.05 -0.05
vt 0.05 -0.05
vt -0.05 -1
vt 0.05 -1
vt -0.901 4.901
vt -0.901 -5
vt 0.901 -5
vt 0.901 4.901
vt -0.05 -0.901
vt 0.05 -0.901
vt 0.05 1
vt -0.05 1
vt 0.05 0.901
vt -0.05 0.901
vt -0.901 0.05
vt -0.901 -0.05
vt -0.901 0.901
vt 1 -0.05
vt 1 0.05
vt -0.901 -0.901
vt 0.901 -0.901
vt 0.901 -0.05
vt 0.901 0.05
vt 0.901 0.901
vt -1 0.05
vt -1 -0.05
vt -0.05 2.758424
vt 0.05 2.758424
vt -0.05 2.898431
vt 0.05 2.898431
vt 0.901 2.898431
vt 0.901 2.758424
vt -0.901 2.898431
vt -0.901 2.758424
vt 2.758424 0.05
vt 2.758424 -0.05
vt 2.898431 0.05
vt 2.898431 -0.05
vt 2.758424 -0.901
vt 2.898431 -0.901
vt 2.758424 0.901
vt 2.898431 0.901
vt 0.07000355 -5
vt 0.07000355 4.901
vt -0.07000355 -5
vt -0.07000355 4.901
vt -2.758424 0.05
vt -2.758424 0.901
vt -2.898431 0.05
vt -2.898431 0.901
vt -2.758424 -0.901
vt -2.758424 -0.05
vt -2.898431 -0.901
vt -2.898431 -0.05
vt -0.901 -1
vt -1 -0.901
vt 1 -0.901
vt 0.901 -1
vt 0.901 1
vt 1 0.901
vt -1 0.901
vt -0.901 1
vt 0 3.346819
vt -0.07000355 3.22557
vt 0.07000355 3.22557

vn 0 0 1
vn -1 0 0
vn 0 0 -1
vn 1 0 0
vn 0 1 0
vn 0 -1 0
vn 0 0.7071068 0.7071068
vn 0.7071068 0.7071068 0
vn -0.7071068 0 -0.7071068
vn 0.7071068 0 -0.7071068
vn 0.7071068 0 0.7071068
vn -0.7071068 0 0.7071068
vn -0.7071068 0.7071068 0
vn 0 0.7071068 -0.7071068
vn 0.5773503 0.5773503 0.5773503
vn -0.5773503 0.5773503 0.5773503
vn 0.5773503 0.5773503 -0.5773503
vn -0.5773503 0.5773503 -0.5773503

usemtl Metal002-02
f 6/32/6 26/62/6 22/7/6
f 26/62/6 51/61/6 22/7/6
f 51/61/6 9/9/6 22/7/6
f 27/63/6 13/24/6 21/8/6
f 44/64/6 27/63/6 21/8/6
f 21/8/6 10/10/6 44/64/6
f 23/6/6 32/66/6 40/65/6
f 23/6/6 14/25/6 32/66/6
f 1/17/6 23/6/6 40/65/6
f 24/5/6 2/18/6 50/68/6
f 24/5/6 50/68/6 33/67/6
f 33/67/6 5/31/6 24/5/6
f 39/69/15 41/70/15 31/71/15
f 34/70/16 49/71/16 48/69/16
f 43/71/17 42/69/17 28/70/17
f 45/69/18 52/70/18 25/71/18
f 26/12/2 6/2/2 8/4/2
f 8/4/2 25/11/2 26/12/2
f 28/14/4 15/3/4 13/1/4
f 13/1/4 27/13/4 28/14/4
f 32/12/4 14/2/4 16/4/4
f 16/4/4 31/11/4 32/12/4
f 34/14/2 7/3/2 5/1/2
f 5/1/2 33/13/2 34/14/2
f 37/21/5 17/5/5 36/20/5
f 36/20/5 39/23/5 37/21/5
f 41/14/1 3/3/1 1/1/1
f 1/1/1 40/13/1 41/14/1
f 42/26/5 29/15/5 19/7/5
f 19/7/5 38/22/5 42/26/5
f 44/12/3 10/2/3 12/4/3
f 12/4/3 43/11/3 44/12/3
f 46/28/5 20/8/5 30/16/5
f 30/16/5 45/27/5 46/28/5
f 48/30/5 35/19/5 18/6/5
f 18/6/5 47/29/5 48/30/5
f 50/12/1 2/2/1 4/4/1
f 4/4/1 49/11/1 50/12/1
f 52/14/3 11/3/3 9/1/3
f 9/1/3 51/13/3 52/14/3
f 41/38/7 39/37/7 36/36/7
f 36/36/7 3/34/7 41/38/7
f 4/33/7 35/35/7 48/39/7
f 48/39/7 49/40/7 4/33/7
f 38/44/8 15/42/8 28/45/8
f 28/45/8 42/46/8 38/44/8
f 39/48/8 31/47/8 16/41/8
f 16/41/8 37/43/8 39/48/8
f 51/51/9 26/49/9 25/50/9
f 25/50/9 52/52/9 51/51/9
f 43/50/10 28/52/10 27/51/10
f 27/51/10 44/49/10 43/50/10
f 40/51/11 32/49/11 31/50/11
f 31/50/11 41/52/11 40/51/11
f 49/50/12 34/52/12 33/51/12
f 33/51/12 50/49/12 49/50/12
f 47/55/13 7/53/13 34/54/13
f 34/54/13 48/56/13 47/55/13
f 45/59/13 25/57/13 8/58/13
f 8/58/13 46/60/13 45/59/13
f 52/38/14 45/37/14 30/36/14
f 30/36/14 11/34/14 52/38/14
f 12/33/14 29/35/14 42/39/14
f 42/39/14 43/40/14 12/33/14

usemtl Light-01_6
f 3/3/1 4/4/1 2/2/1 1/1/1
f 7/3/2 8/4/2 6/2/2 5/1/2
f 11/3/3 12/4/3 10/2/3 9/1/3
f 15/3/4 16/4/4 14/2/4 13/1/4
f 19/7/5 20/8/5 18/6/5 17/5/5
f 23/6/6 24/5/6 22/7/6 21/8/6
f 9/9/6 10/10/6 21/8/6 22/7/6
f 29/15/5 30/16/5 20/8/5 19/7/5
f 1/17/6 2/18/6 24/5/6 23/6/6
f 35/19/5 36/20/5 17/5/5 18/6/5
f 37/21/5 38/22/5 19/7/5 17/5/5
f 13/24/6 14/25/6 23/6/6 21/8/6
f 5/31/6 6/32/6 22/7/6 24/5/6
f 46/28/5 47/29/5 18/6/5 20/8/5
f 36/36/7 35/35/7 4/33/7 3/34/7
f 38/44/8 37/43/8 16/41/8 15/42/8
f 47/55/13 46/60/13 8/58/13 7/53/13
f 30/36/14 29/35/14 12/33/14 11/34/14

