# ProBuilder 5.0.6
# https://unity3d.com/unity/features/worldbuilding/probuilder
# 8/21/2022 5:23:57 PM

mtllib ./Thresher-Room-Side.mtl
o Thresher-Room-Side

g Thresher-Room-Side
v -0.3999996 -3 -3.825
v 0.3999996 -3 -3.825
v -0.3999996 0.5249996 -3.825
v 0.3999996 0.5249996 -3.825
v -0.3999996 -3 0
v 0.3999996 -3 0
v -0.3999996 -1.125 0
v -0.3999996 0.5249996 -2.55
v -0.3999996 -1.125 -1.275
v 0.3999996 -1.125 0
v 0.3999996 -1.125 -1.275
v 0.3999996 0.5249996 -2.55

vt 0.3999996 -3
vt -0.3999996 -3
vt 0.3999996 0.5249996
vt -0.3999996 0.5249996
vt -0.3999996 0
vt 0.3999996 0
vt -0.3999996 -3.825
vt 0.3999996 -3.825
vt 0 -1.125
vt 0 -3
vt -3.825 -3
vt -3.825 0.5249996
vt -2.55 0.5249996
vt -1.275 -1.125
vt 1.275 -1.125
vt 2.55 0.5249996
vt 3.825 0.5249996
vt 3.825 -3
vt 0.3999996 -2.592671
vt 0.3999996 -3.812886
vt -0.3999996 -3.812886
vt -0.3999996 -2.592671
vt 0.3999996 -0.8939798
vt -0.3999996 -0.8939798
vt -0.3999996 0.3262346
vt 0.3999996 0.3262346

vn 0 0 -1
vn 0 -1 0
vn -1 0 0
vn 1 0 0
vn 0 1 0
vn 0 0.6114477 0.7912849

usemtl Metal002-02
f 9/14/3 5/10/3 7/9/3
f 5/10/3 9/14/3 1/11/3
f 1/11/3 9/14/3 8/13/3
f 8/13/3 3/12/3 1/11/3
f 2/18/4 4/17/4 12/16/4
f 2/18/4 12/16/4 6/10/4
f 6/10/4 12/16/4 11/15/4
f 10/9/4 6/10/4 11/15/4
f 4/4/1 2/2/1 1/1/1
f 1/1/1 3/3/1 4/4/1
f 2/8/2 6/6/2 5/5/2
f 5/5/2 1/7/2 2/8/2
f 4/21/5 3/20/5 8/19/5
f 8/19/5 12/22/5 4/21/5
f 10/25/5 11/24/5 9/23/5
f 9/23/5 7/26/5 10/25/5
f 12/22/6 8/19/6 9/23/6
f 9/23/6 11/24/6 12/22/6

