# ProBuilder 5.0.4
# https://unity3d.com/unity/features/worldbuilding/probuilder
# 6/9/2022 3:40:33 AM

mtllib ./DisplayTable.mtl
o DisplayTable

g DisplayTable
v 1 0.5 0.5
v -1 0.5 0.5
v 1 0.5 -0.5
v -1 0.5 -0.5
v 1 -0.5 -0.5
v -1 -0.5 -0.5
v 1 -0.5 0.5
v -1 -0.5 0.5
v 1 0.5125 -0.5
v -1 0.5125 -0.5
v 1 0.51 -0.51
v -1 0.51 -0.51
v -1 0.5125 0.5
v -1.01 0.51 -0.5
v -1.01 0.51 0.5
v 1 0.5125 0.5
v -1 0.51 0.51
v 1 0.51 0.51
v 1.01 0.51 0.5
v 1.01 0.51 -0.5
v -1.01 -0.5 -0.5
v -1 -0.5 -0.51
v -1.01 0.5 -0.5
v -1 0.5 -0.51
v -1 -0.5 0.51
v -1.01 -0.5 0.5
v -1.01 0.5 0.5
v -1 0.5 0.51
v 1 -0.5 0.51
v 1.01 -0.5 0.5
v 1 0.5 0.51
v 1.01 0.5 0.5
v 1.01 0.5 -0.5
v 1 0.5 -0.51
v 1 -0.5 -0.51
v 1.01 -0.5 -0.5
v 0.9858578 0.51 0.4858578
v -0.9858578 0.51 0.4858578
v 0.9858578 0.5 0.4858578
v -0.9858578 0.5 0.4858578
v 0.9858578 0.51 -0.4858578
v 0.9858578 0.5 -0.4858578
v -0.9858578 0.51 -0.4858578
v -0.9858578 0.5 -0.4858578
v 0.9929289 0.5125 -0.492929
v 0.9929289 0.5125 0.492929
v -0.9929289 0.5125 0.492929
v -0.9929289 0.5125 -0.492929
v 1.01 0.505 -0.5
v 1 0.50625 -0.5
v 1 0.505 -0.51
v -1 0.505 -0.51
v -1.01 0.505 0.5
v -1 0.505 0.51
v 1 0.505 0.51
v 1.01 0.505 0.5
v -1.01 0.505 -0.5
v 0.9833333 0.5 0.5100002
v -0.9833332 0.5 0.5100002
v -0.9833333 -0.5 0.5100002
v 0.9833332 -0.5 0.5100002
v 0.9833333 -0.5 -0.5100002
v -0.9833332 -0.5 -0.5100002
v -0.9833333 0.5 -0.5100002
v 0.9833332 0.5 -0.5100002
v 1.01 -0.5 0.4866667
v 1.01 -0.5 -0.4866667
v 1.01 0.5 -0.4866667
v 1.01 0.5 0.4866667
v -1.01 -0.5 -0.4866667
v -1.01 -0.5 0.4866667
v -1.01 0.5 0.4866667
v -1.01 0.5 -0.4866667

vt 0 1
vt 1 1
vt 0 0
vt 1 0
vt 2.01 0.00999999
vt 0.00999999 0.00999999
vt 2.01 1.01
vt 0.00999999 1.01
vt 0.00999999 0.1492282
vt 2.01 0.1492282
vt 0.00999999 0.1389205
vt 2.01 0.1389205
vt 1.855843 0.00999999
vt 1.855843 1.01
vt 1.866151 0.00999999
vt 1.866151 1.01
vt 2.01 0.8707718
vt 0.00999999 0.8707718
vt 2.01 0.8810795
vt 0.00999999 0.8810795
vt 0.164157 1.01
vt 0.164157 0.00999999
vt 0.1538492 1.01
vt 0.1538492 0.00999999
vt 1.866151 0.1984442
vt 1.855843 0.1984442
vt 1.856449 0.1881543
vt 0 0.00999999
vt 0.00999999 0
vt 2.02 0
vt 2.02 1
vt 2.01 1
vt 2.01 0
vt 1.866151 0.8215557
vt 1.855843 0.8215557
vt 1.856449 0.8318456
vt 0.00999999 1
vt 0.00999999 1.02
vt 0 1.01
vt 0.1635506 0.8318456
vt 0.164157 0.8215557
vt 0.1538492 0.8215557
vt 2.01 1.02
vt 2.02 1.01
vt 2.02 0.00999999
vt 0.02414215 1.01
vt 1.995858 1.01
vt 0.02414215 1
vt 1.995858 1
vt 0.01414216 1.01
vt 0.9858578 1.01
vt 0.01414216 1
vt 0.9858578 1
vt 0.01707107 0.01707101
vt 0.01707107 1.002929
vt 2.002929 1.002929
vt 2.002929 0.01707101
vt -0.09697556 0.01707095
vt -0.09697556 1.002929
vt -0.08947563 0.02414209
vt -0.08947563 0.9958579
vt 0.01707095 1.145571
vt 2.002929 1.145571
vt 0.02414203 1.138071
vt 1.995858 1.138071
vt 2.116977 1.002929
vt 2.116977 0.01707095
vt 2.109477 0.9958579
vt 2.109477 0.02414209
vt 2.002929 -0.1255702
vt 0.01707095 -0.1255702
vt 1.995858 -0.1180701
vt 0.02414203 -0.1180701
vt 0 1.005
vt 0.00999999 1.00625
vt 0.00999999 1.0125
vt 1.01 1
vt 1 1.00625
vt 1.01 1.005
vt 1 1.0125
vt 1.01 1.01
vt 0.00999999 1.005
vt 2.01 1.005
vt 2.02 1.005
vt 1 1.01
vt 1 1.005
vt 1 0.4999878
vt 0.9833333 0.4999878
vt -0.9833332 0.4999878
vt -1 0.4999878
vt -1 0.5049878
vt 1 0.5049878
vt 1 0.5
vt -1 0.5
vt -1 0.51
vt -0.9833333 0.5100002
vt 0.9833332 0.5100002
vt 1 0.51
vt -0.9833333 -0.5
vt -1 -0.5
vt -0.9833332 0.5
vt 1 -0.5
vt 0.9833332 -0.5
vt 0.9833333 0.5
vt 1 -0.51
vt 0.9833333 -0.5100002
vt -0.9833332 -0.5100002
vt -1 -0.51
vt 1.01 0.5
vt 1.01 0.4866667
vt 1.01 -0.4866667
vt 1.01 -0.5
vt -0.5 0.5
vt -0.5 0.505
vt 0.5 0.505
vt 0.5 0.5
vt 0.4866667 0.5
vt -0.4866667 0.5
vt -0.4866667 -0.5
vt -0.5 -0.5
vt 0.4866667 -0.5
vt 0.5 -0.5
vt -1.01 -0.5
vt -1.01 -0.4866667
vt -1.01 0.4866667
vt -1.01 0.5

vn 0 1 0
vn 0 -1 0
vn 0.2880005 0.913297 -0.2880005
vn -0.09701138 0.9905441 -0.09701138
vn 0.5356662 0.5196725 -0.6655842
vn -0.3087611 0.6264735 -0.7156798
vn -0.09701138 0.9905441 0.09701138
vn -0.7156798 0.6264735 -0.3087611
vn -0.7156798 0.6264735 0.3087611
vn 0.09701138 0.9905441 0.09701138
vn -0.3087611 0.6264735 0.7156798
vn 0.3087611 0.6264735 0.7156798
vn 0.7156798 0.6264735 0.3087611
vn 0.6655842 0.5196725 -0.5356662
vn -0.9238795 0 -0.3826834
vn -0.38269 0 -0.9238768
vn -0.38269 0 0.9238768
vn -0.9238795 0 0.3826834
vn 0.38269 -4.614473E-13 0.9238768
vn 0.9238795 0 0.3826834
vn 0.8073674 0.29824 -0.5091275
vn 0.5773503 0.5773503 -0.5773503
vn 0.5091338 0.2982387 -0.8073639
vn 0.38269 0 -0.9238768
vn 0.9238795 0 -0.3826834
vn -0.4999999 0.7071075 -0.499999
vn 0.4999999 0.7071075 -0.499999
vn -0.7071068 0 -0.7071068
vn 0.7071068 0 -0.7071068
vn -0.4999999 0.7071075 0.499999
vn -0.7071068 0 0.7071068
vn 0.4999999 0.7071075 0.499999
vn 0.7071068 0 0.7071068
vn -0.08516178 0.992721 0.08516115
vn -0.08516178 0.992721 -0.08516114
vn 0.08516179 0.992721 -0.08516116
vn 0.08516178 0.992721 0.08516114
vn 7.152547E-06 7.947293E-06 1
vn -7.152547E-06 7.947293E-06 -1
vn 1 0 0
vn -1 0 0

usemtl Metal027
f 63/107/2 5/102/2 6/100/2
f 63/107/2 62/106/2 5/102/2
f 62/106/2 35/105/2 5/102/2
f 6/100/2 22/108/2 63/107/2
f 26/126/2 71/125/2 8/94/2
f 71/125/2 6/100/2 8/94/2
f 71/125/2 70/124/2 6/100/2
f 70/124/2 21/123/2 6/100/2
f 7/93/2 29/98/2 61/97/2
f 7/93/2 61/97/2 8/94/2
f 8/94/2 61/97/2 60/96/2
f 25/95/2 8/94/2 60/96/2
f 66/110/2 30/109/2 7/93/2
f 67/111/2 66/110/2 7/93/2
f 67/111/2 7/93/2 5/102/2
f 5/102/2 36/112/2 67/111/2
f 14/25/8 10/26/4 12/27/6
f 21/28/2 22/29/2 6/6/2
f 17/36/11 13/35/7 15/34/9
f 26/39/2 8/8/2 25/38/2
f 19/42/13 16/41/10 18/40/12
f 30/44/2 29/43/2 7/7/2
f 34/29/23 3/6/22 33/28/21
f 36/45/2 5/5/2 35/33/2
f 65/89/39 52/92/16 51/91/29
f 65/89/39 64/88/39 52/92/16
f 64/88/39 24/87/16 52/92/16
f 51/91/29 34/90/23 65/89/39
f 69/118/40 49/115/29 56/114/20
f 69/118/40 68/117/40 49/115/29
f 68/117/40 33/116/21 49/115/29
f 56/114/20 32/113/20 69/118/40
f 54/91/17 28/90/17 59/89/38
f 58/88/38 31/87/19 55/92/19
f 59/89/38 58/88/38 55/92/19
f 54/91/17 59/89/38 55/92/19
f 57/114/15 23/113/15 73/118/41
f 72/117/41 27/116/18 53/115/18
f 73/118/41 72/117/41 53/115/18
f 57/114/15 73/118/41 53/115/18
f 8/8/2 6/6/2 5/5/2
f 5/5/2 7/7/2 8/8/2
f 12/12/6 10/10/4 9/9/3
f 9/9/3 11/11/5 12/12/6
f 15/16/9 13/14/7 10/13/4
f 10/13/4 14/15/8 15/16/9
f 18/20/12 16/18/10 13/17/7
f 13/17/7 17/19/11 18/20/12
f 20/24/14 9/22/3 16/21/10
f 16/21/10 19/23/13 20/24/14
f 21/30/15 23/31/15 24/32/16
f 24/32/16 22/33/16 21/30/15
f 27/1/18 26/3/18 25/29/17
f 25/29/17 28/37/17 27/1/18
f 31/32/19 29/33/19 30/30/20
f 30/30/20 32/31/20 31/32/19
f 35/29/24 34/37/23 33/1/21
f 33/1/21 36/3/25 35/29/24
f 40/49/29 38/47/27 37/46/26
f 37/46/26 39/48/28 40/49/29
f 39/53/28 37/51/26 41/50/30
f 41/50/30 42/52/31 39/53/28
f 44/53/33 43/51/32 38/50/27
f 38/50/27 40/52/29 44/53/33
f 42/49/31 41/47/30 43/46/32
f 43/46/32 44/48/33 42/49/31
f 46/55/35 16/8/10 9/6/3
f 9/6/3 45/54/34 46/55/35
f 47/56/36 13/7/7 16/8/10
f 16/8/10 46/55/35 47/56/36
f 48/57/37 10/5/4 13/7/7
f 13/7/7 47/56/36 48/57/37
f 45/54/34 9/6/3 10/5/4
f 10/5/4 48/57/37 45/54/34
f 37/61/26 46/59/35 45/58/34
f 45/58/34 41/60/30 37/61/26
f 38/65/27 47/63/36 46/62/35
f 46/62/35 37/64/26 38/65/27
f 43/69/32 48/67/37 47/66/36
f 47/66/36 38/68/27 43/69/32
f 41/73/30 45/71/34 48/70/37
f 48/70/37 43/72/32 41/73/30
f 33/1/21 3/37/22 50/75/29
f 50/75/29 49/74/29 33/1/21
f 49/74/29 50/75/29 9/76/3
f 9/76/3 20/39/14 49/74/29
f 51/79/29 50/78/29 3/2/22
f 3/2/22 34/77/23 51/79/29
f 11/81/5 9/80/3 50/78/29
f 50/78/29 51/79/29 11/81/5
f 12/7/6 11/8/5 51/82/29
f 51/82/29 52/83/16 12/7/6
f 53/74/18 27/1/18 28/37/17
f 28/37/17 54/82/17 53/74/18
f 15/39/9 53/74/18 54/82/17
f 54/82/17 17/8/11 15/39/9
f 55/83/19 31/32/19 32/31/20
f 32/31/20 56/84/20 55/83/19
f 18/7/12 55/83/19 56/84/20
f 56/84/20 19/44/13 18/7/12
f 57/84/15 52/83/16 24/32/16
f 24/32/16 23/31/15 57/84/15
f 14/44/8 12/7/6 52/83/16
f 52/83/16 57/84/15 14/44/8
f 20/85/14 19/39/13 56/74/20
f 56/74/20 49/86/29 20/85/14
f 17/8/11 54/82/17 55/83/19
f 55/83/19 18/7/12 17/8/11
f 14/39/8 57/74/15 53/86/18
f 53/86/18 15/85/9 14/39/8
f 28/94/17 25/100/17 60/99/38
f 60/99/38 59/101/38 28/94/17
f 61/103/38 29/102/19 31/93/19
f 31/93/19 58/104/38 61/103/38
f 60/99/38 61/103/38 58/104/38
f 58/104/38 59/101/38 60/99/38
f 22/102/16 24/93/16 64/104/39
f 64/104/39 63/103/39 22/102/16
f 62/99/39 63/103/39 64/104/39
f 64/104/39 65/101/39 62/99/39
f 35/100/24 62/99/39 65/101/39
f 65/101/39 34/94/23 35/100/24
f 30/120/20 66/119/40 69/118/40
f 69/118/40 32/113/20 30/120/20
f 66/119/40 67/121/40 68/117/40
f 68/117/40 69/118/40 66/119/40
f 36/122/25 33/116/21 68/117/40
f 68/117/40 67/121/40 36/122/25
f 23/113/15 21/120/15 70/119/41
f 70/119/41 73/118/41 23/113/15
f 71/121/41 26/122/18 27/116/18
f 27/116/18 72/117/41 71/121/41
f 70/119/41 71/121/41 72/117/41
f 72/117/41 73/118/41 70/119/41

usemtl Light-07
f 3/3/1 4/4/1 2/2/1 1/1/1

