# ProBuilder 5.0.4
# https://unity3d.com/unity/features/worldbuilding/probuilder
# 6/3/2022 7:59:35 PM

mtllib ./Dustbin.mtl
o Dustbin

g Dustbin
v -1.602572 0.2 0
v -1.602572 0.3 0
v -1.443867 0.2 0.6953298
v -1.443867 0.3 0.6953298
v -0.9991872 0.2 1.252941
v -0.9991872 0.3 1.252941
v -0.3566058 0.2 1.562392
v -0.3566058 0.3 1.562392
v 0.3566056 0.2 1.562392
v 0.3566056 0.3 1.562392
v 0.9991871 0.2 1.252941
v 0.9991871 0.3 1.252941
v 1.443867 0.2 0.6953299
v 1.443867 0.3 0.6953299
v 1.602572 0.2 2.359002E-07
v 1.602572 0.3 2.359002E-07
v 1.443867 0.2 -0.6953295
v 1.443867 0.3 -0.6953295
v 0.9991875 0.2 -1.252941
v 0.9991875 0.3 -1.252941
v 0.3566059 0.2 -1.562392
v 0.3566059 0.3 -1.562392
v -0.3566052 0.2 -1.562392
v -0.3566052 0.3 -1.562392
v -0.9991869 0.2 -1.252941
v -0.9991869 0.3 -1.252941
v -1.443867 0.2 -0.6953298
v -1.443867 0.3 -0.6953298
v -1.5 0.2 0
v 0 0.2 0
v -1.351453 0.2 0.6508256
v -1.5 0.3 0
v 0 0.3 0
v -1.351453 0.3 0.6508256
v -0.9352348 0.2 1.172747
v -0.9352348 0.3 1.172747
v -0.3337815 0.2 1.462392
v -0.3337815 0.3 1.462392
v 0.3337812 0.2 1.462392
v 0.3337812 0.3 1.462392
v 0.9352347 0.2 1.172747
v 0.9352347 0.3 1.172747
v 1.351453 0.2 0.6508257
v 1.351453 0.3 0.6508257
v 1.5 0.2 2.264937E-07
v 1.5 0.3 2.264937E-07
v 1.351453 0.2 -0.6508253
v 1.351453 0.3 -0.6508253
v 0.935235 0.2 -1.172747
v 0.935235 0.3 -1.172747
v 0.3337815 0.2 -1.462392
v 0.3337815 0.3 -1.462392
v -0.3337809 0.2 -1.462392
v -0.3337809 0.3 -1.462392
v -0.9352345 0.2 -1.172747
v -0.9352345 0.3 -1.172747
v -1.351453 0.2 -0.6508256
v -1.351453 0.3 -0.6508256
v 0.935235 0 -1.172747
v 1.351453 0 -0.6508253
v 0.9991875 0 -1.252941
v 1.443867 0 -0.6953295
v 1.423125 4.4 -0.6853409
v 0.9848332 4.4 -1.234941
v 1.52044 4.4 -0.7322054
v 1.052177 4.4 -1.319388
v 0.3337815 0 -1.462392
v 0.3566059 0 -1.562392
v 0.3514833 4.4 -1.539947
v 0.3755178 4.4 -1.64525
v 1.5 0 2.264937E-07
v 1.602572 0 2.359002E-07
v 1.57955 4.4 0
v 1.687561 4.4 0
v 1.351453 0 0.6508257
v 1.443867 0 0.6953299
v 1.423125 4.4 0.6853409
v 1.52044 4.4 0.7322054
v 0.9352347 0 1.172747
v 0.9991871 0 1.252941
v 0.9848328 4.4 1.234942
v 1.052177 4.4 1.319388
v 0.3337812 0 1.462392
v 0.3566056 0 1.562392
v 0.3514829 4.4 1.539948
v 0.3755174 4.4 1.64525
v -0.3337815 0 1.462392
v -0.3566058 0 1.562392
v -0.3514829 4.4 1.539948
v -0.3755178 4.4 1.64525
v -0.9352348 0 1.172747
v -0.9991872 0 1.252941
v -0.9848332 4.4 1.234941
v -1.052177 4.4 1.319388
v -1.351453 0 0.6508256
v -1.443867 0 0.6953298
v -1.423125 4.4 0.6853409
v -1.52044 4.4 0.7322054
v -1.5 0 0
v -1.602572 0 0
v -1.57955 4.4 0
v -1.687561 4.4 0
v -1.351453 0 -0.6508256
v -1.443867 0 -0.6953298
v -1.423125 4.4 -0.6853409
v -1.52044 4.4 -0.7322054
v -0.9352345 0 -1.172747
v -0.9991869 0 -1.252941
v -0.9848328 4.4 -1.234942
v -1.052177 4.4 -1.319388
v -0.3337809 0 -1.462392
v -0.3566052 0 -1.562392
v -0.3514824 4.4 -1.539947
v -0.3755169 4.4 -1.645251
v 1.423125 4.3 -0.6853409
v 0.9848332 4.3 -1.234941
v 1.52044 4.3 -0.7322054
v 1.687561 4.3 0
v 1.052177 4.3 -1.319388
v 0.3514833 4.3 -1.539947
v 0.3755178 4.3 -1.64525
v -0.3514824 4.3 -1.539947
v -0.3755169 4.3 -1.645251
v -0.9848328 4.3 -1.234942
v -1.052177 4.3 -1.319388
v -1.423125 4.3 -0.6853409
v -1.52044 4.3 -0.7322054
v -1.57955 4.3 0
v -1.687561 4.3 0
v -1.423125 4.3 0.6853409
v -1.52044 4.3 0.7322054
v -0.9848332 4.3 1.234941
v -1.052177 4.3 1.319388
v -0.3514829 4.3 1.539948
v -0.3755178 4.3 1.64525
v 0.3514829 4.3 1.539948
v 0.3755174 4.3 1.64525
v 0.9848328 4.3 1.234942
v 1.052177 4.3 1.319388
v 1.423125 4.3 0.6853409
v 1.52044 4.3 0.7322054
v 1.57955 4.3 0
v -1.116129 4.2 -1.399582
v -0.3983412 4.2 -1.745251
v -1.116129 4.3 -1.399582
v -0.3983412 4.3 -1.745251
v -1.612854 4.2 -0.7767096
v -1.612854 4.3 -0.7767096
v -1.790133 4.2 0
v -1.790133 4.3 0
v -1.612854 4.2 0.7767096
v -1.612854 4.3 0.7767096
v -1.116129 4.2 1.399582
v -1.116129 4.3 1.399582
v -0.3983421 4.2 1.745251
v -0.3983421 4.3 1.745251
v 0.3983417 4.2 1.745251
v 0.3983417 4.3 1.745251
v 1.116129 4.2 1.399582
v 1.116129 4.3 1.399582
v 1.612854 4.2 0.7767096
v 1.612854 4.3 0.7767096
v 1.790133 4.2 0
v 1.790133 4.3 0
v 1.612854 4.2 -0.7767096
v 1.612854 4.3 -0.7767096
v 1.11613 4.2 -1.399582
v 1.11613 4.3 -1.399582
v 0.3983421 4.2 -1.74525
v 0.3983421 4.3 -1.74525

vt 1.399582 0.2
vt 1.399582 0.3
vt 2.094912 0.2
vt 2.094912 0.3
vt 2.652523 0.2
vt 2.652523 0.3
vt 0.1169422 0.2
vt 0.1169422 0.3
vt 0.7595236 0.2
vt 0.7595236 0.3
vt 1.472735 0.2
vt 1.472735 0.3
vt 2.115316 0.2
vt 2.115316 0.3
vt 0.1466409 0.2
vt 0.1466409 0.3
vt 0.704252 0.2
vt 0.704252 0.3
vt 0.2901328 1.745251
vt 1.790133 1.745251
vt 0.4386795 2.396076
vt 3.290133 1.745251
vt 3.141586 2.396076
vt 0.854898 2.917998
vt 2.725367 2.917998
vt 1.456351 3.207643
vt 2.123914 3.207643
vt 3.141586 1.094425
vt 0.4386791 1.094425
vt 2.725368 0.5725037
vt 0.8548975 0.5725037
vt 2.123914 0.2828588
vt 1.456351 0.2828588
vt 2.78932 0.4923099
vt 3.234 1.049921
vt 0.3670073 1.05991
vt 0.8052993 0.5103092
vt 0.2696924 1.013045
vt 0.7379551 0.4258628
vt 2.146739 0.1828588
vt 1.438649 0.2053037
vt 1.414615 0.1000004
vt 3.392704 1.745251
vt 0.2105827 1.745251
vt 0.1025715 1.745251
vt 3.234 2.440581
vt 0.3670073 2.430592
vt 0.2696924 2.477456
vt 2.78932 2.998192
vt 0.8052998 2.980193
vt 0.7379556 3.064639
vt 2.146738 3.307643
vt 1.43865 3.285198
vt 1.414615 3.390501
vt 1.433527 3.307642
vt 2.141615 3.285198
vt 2.16565 3.390501
vt 0.7909456 2.998192
vt 2.774966 2.980192
vt 2.842309 3.064639
vt 0.3462656 2.44058
vt 3.213258 2.430592
vt 3.310573 2.477456
vt 0.187561 1.745251
vt 3.369682 1.745251
vt 3.477694 1.745251
vt 0.3462656 1.049921
vt 3.213258 1.05991
vt 3.310573 1.013045
vt 0.7909458 0.4923096
vt 2.774965 0.5103087
vt 2.842309 0.4258623
vt 1.433528 0.1828586
vt 2.141615 0.2053037
vt 2.165649 0.0999999
vt 0.7487566 0.3
vt 0.2268349 0.3
vt 0.714241 4.3
vt 0.1646404 4.3
vt 2.131787 4.3
vt 1.399582 4.3
vt 2.71897 4.3
vt 2.051364 0.3
vt 1.449911 0.3
vt 2.100963 4.3
vt 1.467613 4.3
vt 0.740612 4.3
vt 0.06395245 4.3
vt 0.7823485 0.3
vt 0.764647 4.3
vt 1.491647 4.3
vt 0.1808949 0.3
vt 0.1312966 4.3
vt 2.168307 4.3
vt 2.572329 0.3
vt 2.050407 0.3
vt 2.634524 4.3
vt 2.084923 4.3
vt 0.6673765 4.3
vt 0.08019352 4.3
vt 0.7487566 0.2
vt 0.7487566 0
vt 1.399582 0
vt 2.094911 0
vt 2.652523 0
vt 2.050408 0.2
vt 2.050408 0
vt 0.704252 0
vt 2.572329 0.2
vt 2.572329 0
vt 0.1466409 0
vt 0.1808952 0.2
vt 0.7823486 0.2
vt 0.1808952 0
vt 0.7823486 0
vt 1.472735 0
vt 2.115316 0
vt 1.449911 0.2
vt 1.449911 0
vt 0.7595236 0
vt 2.051365 0.2
vt 2.051365 0
vt 0.1169422 0
vt 0.2268348 0.2
vt 0.2268348 0
vt 2.634524 4.4
vt 2.084923 4.4
vt 2.232259 4.2
vt 1.514471 4.2
vt 2.232259 4.3
vt 1.514471 4.3
vt 0.6228724 4.2
vt 0 4.2
vt 0.6228724 4.3
vt 0 4.3
vt 1.399582 4.4
vt 1.399582 4.2
vt 0.714241 4.4
vt 2.176291 4.2
vt 2.176291 4.3
vt 0.1646404 4.4
vt 2.799164 4.2
vt 2.799164 4.3
vt 2.100963 4.4
vt 1.467613 4.4
vt 0.7177873 4.2
vt 0.7177873 4.3
vt 0.764647 4.4
vt 0.1312971 4.4
vt 2.165651 0.1000004
vt 2.188475 4.768372E-07
vt 2.906263 0.3456688
vt 0.740612 4.4
vt 1.491647 4.4
vt 0.6740026 0.3456688
vt 1.39179 4.768372E-07
vt 3.402987 0.9685411
vt 0.1772785 0.9685411
vt 3.580265 1.745251
vt 0 1.745251
vt 3.402987 2.52196
vt 0.1772785 2.52196
vt 2.906262 3.144833
vt 0.6740031 3.144833
vt 2.188474 3.490501
vt 1.391791 3.490501
vt 1.414616 0.0999999

vn -1 0 0
vn -0.9999436 -0.01062193 -3.439159E-08
vn -0.9009689 0 0.4338838
vn -0.900918 -0.01062194 0.4338593
vn -0.6234899 0 0.7818314
vn -0.6234547 -0.01062193 0.7817873
vn -0.2225211 0 0.9749279
vn -0.2225085 -0.01062192 0.9748729
vn 0.2225209 0 0.974928
vn 0.2225083 -0.01062191 0.9748729
vn 0.6234897 0 0.7818315
vn 0.6234546 -0.01062193 0.7817874
vn 0.9009688 0 0.4338838
vn 0.900918 -0.01062194 0.4338593
vn 1 0 8.406405E-08
vn 0.9999436 -0.01062193 1.031748E-07
vn 0.900969 0 -0.4338836
vn 0.9009181 -0.01062194 -0.4338591
vn 0.62349 0 -0.7818314
vn 0.6234548 -0.01062191 -0.7817872
vn 0.2225212 0 -0.9749279
vn 0.2225087 -0.01062193 -0.9748729
vn -0.2225207 0 -0.974928
vn -0.2225082 -0.01062194 -0.9748729
vn -0.6234897 0 -0.7818316
vn -0.6234546 -0.01062193 -0.7817875
vn -0.9009688 0 -0.4338838
vn -0.900918 -0.01062194 -0.4338593
vn 0 -1 0
vn 0 1 0
vn -0.6289426 0.7160259 0.3028829
vn -0.4352419 0.7160259 0.5457759
vn 0.3373667 0.9272476 -0.1624672
vn 0.2334647 0.9272478 -0.2927554
vn -0.1553361 0.7160259 0.6805715
vn 0.08332279 0.9272476 -0.3650605
vn -0.6980737 0.7160259 0
vn 0.374449 0.9272475 -4.046925E-08
vn -0.6289427 0.7160259 -0.3028828
vn 0.3373666 0.9272476 0.1624672
vn -0.4352418 0.7160259 -0.545776
vn 0.233465 0.9272476 0.2927558
vn -0.1553359 0.7160259 -0.6805716
vn 0.08332246 0.927248 0.3650597
vn 0.1553362 0.7160259 -0.6805714
vn -0.0833227 0.9272478 0.3650599
vn 0.435242 0.7160259 -0.5457759
vn -0.2334651 0.9272475 0.2927561
vn 0.6289426 0.7160259 -0.3028829
vn -0.3373666 0.9272476 0.1624672
vn 0.6980737 0.7160259 0
vn -0.3744486 0.9272477 -1.61877E-08
vn 0.6289426 0.7160259 0.3028829
vn -0.3373666 0.9272476 -0.1624672
vn 0.4352416 0.7160259 0.5457762
vn -0.2334651 0.9272475 -0.292756
vn 0.1553358 0.7160259 0.6805716
vn -0.08332261 0.9272476 -0.3650606
vn -0.9007909 0.01988353 0.4337978
vn -0.6233667 0.01988349 0.7816769
vn -0.9009244 0.009942293 0.4338623
vn -0.6234591 0.009942277 0.7817928
vn 0.9007655 -0.02124259 -0.4337859
vn 0.9997743 -0.02124255 7.642101E-08
vn 0.6233492 -0.02124252 -0.781655
vn -0.2224772 0.01988349 0.9747351
vn -0.2225102 0.009942285 0.9748797
vn 0.2224711 -0.02124252 -0.9747078
vn 0.2224768 0.01988344 0.9747352
vn 0.2225097 0.009942262 0.9748797
vn -0.2224705 -0.02124256 -0.974708
vn 0.6233664 0.01988347 0.7816771
vn 0.6234587 0.009942289 0.7817931
vn -0.623349 -0.02124254 -0.7816552
vn 0.9007907 0.01988351 0.433798
vn 0.9009243 0.009942301 0.4338624
vn -0.9007655 -0.02124257 -0.4337858
vn 0.9998023 0.01988352 -2.292633E-08
vn 0.9999506 0.009942299 -1.146379E-08
vn -0.9997743 -0.02124254 -6.877891E-08
vn 0.9007908 0.01988352 -0.433798
vn 0.9009243 0.009942297 -0.4338623
vn -0.9007655 -0.02124257 0.4337859
vn 0.6233665 0.01988349 -0.7816769
vn 0.6234591 0.009942291 -0.7817927
vn -0.6233491 -0.02124256 0.7816551
vn 0.2224772 0.01988357 -0.9747351
vn 0.2225103 0.009942333 -0.9748796
vn -0.2224708 -0.02124254 0.9747079
vn -0.2224769 0.01988359 -0.9747352
vn -0.2225099 0.009942334 -0.9748797
vn 0.2224706 -0.0212425 0.974708
vn -0.6233664 0.01988357 -0.781677
vn -0.6234589 0.009942325 -0.7817929
vn 0.623349 -0.02124252 0.7816552
vn -0.9007908 0.01988352 -0.433798
vn -0.9009244 0.009942292 -0.4338622
vn 0.9007655 -0.02124256 0.4337858
vn -0.9998023 0.01988352 -6.8779E-08
vn -0.9999506 0.009942296 -1.146379E-08
vn -0.9749279 0 0.2225208
vn -0.9749279 0 -0.222521
vn -0.7818314 0 -0.6234899
vn -0.4338838 0 -0.9009689
vn 1.785739E-07 0 -1
vn 0.4338838 0 -0.9009688
vn 0.7818315 0 -0.6234899
vn 0.9749279 0 -0.2225209
vn 0.9749279 0 0.2225209
vn 0.7818315 0 0.6234899
vn 0.4338836 0 0.900969
vn -3.57148E-07 0 1
vn -0.4338838 0 0.9009688
vn -0.7818317 0 0.6234896
vn -0.5738446 0.391036 -0.7195785
vn -0.2048026 0.391036 -0.8972997
vn -0.8292294 0.3910363 -0.399336
vn -0.9203752 0.3910363 -4.120235E-09
vn -0.8292294 0.3910362 0.399336
vn -0.5738447 0.3910362 0.7195783
vn -0.204803 0.3910371 0.8972991
vn 0.2048029 0.3910368 0.8972993
vn 0.5738446 0.3910359 0.7195785
vn 0.8292295 0.3910362 0.3993359
vn 0.9203754 0.3910359 0
vn 0.8292295 0.3910364 -0.3993357
vn 0.5738445 0.3910365 -0.7195783
vn 0.2048031 0.391036 -0.8972996
vn -0.1553364 -0.7160259 0.6805715
vn -0.4352413 -0.7160267 0.5457754
vn -0.6289422 -0.7160264 0.3028825
vn -0.6980739 -0.7160258 -7.544559E-08
vn -0.6289425 -0.7160261 -0.3028827
vn -0.4352417 -0.7160258 -0.5457763
vn -0.1553359 -0.716027 -0.6805704
vn 0.1553357 -0.7160275 -0.6805699
vn 0.4352418 -0.7160262 -0.5457757
vn 0.6289424 -0.7160262 -0.3028828
vn 0.6980732 -0.7160264 -3.017824E-08
vn 0.6289423 -0.7160263 0.3028827
vn 0.4352418 -0.7160258 0.5457762
vn 0.1553359 -0.7160259 0.6805716

usemtl Plaster003-000
f 29/19/29 30/20/29 31/21/29
f 31/21/29 30/20/29 35/24/29
f 35/24/29 30/20/29 37/26/29
f 37/26/29 30/20/29 39/27/29
f 39/27/29 30/20/29 41/25/29
f 41/25/29 30/20/29 43/23/29
f 43/23/29 30/20/29 45/22/29
f 45/22/29 30/20/29 47/28/29
f 47/28/29 30/20/29 49/30/29
f 49/30/29 30/20/29 51/32/29
f 51/32/29 30/20/29 53/33/29
f 53/33/29 30/20/29 55/31/29
f 55/31/29 30/20/29 57/29/29
f 57/29/29 30/20/29 29/19/29
f 34/23/30 33/20/30 32/22/30
f 36/25/30 33/20/30 34/23/30
f 38/27/30 33/20/30 36/25/30
f 40/26/30 33/20/30 38/27/30
f 42/24/30 33/20/30 40/26/30
f 44/21/30 33/20/30 42/24/30
f 46/19/30 33/20/30 44/21/30
f 48/29/30 33/20/30 46/19/30
f 50/31/30 33/20/30 48/29/30
f 52/33/30 33/20/30 50/31/30
f 54/32/30 33/20/30 52/33/30
f 56/30/30 33/20/30 54/32/30
f 58/28/30 33/20/30 56/30/30
f 32/22/30 33/20/30 58/28/30
f 4/4/4 2/2/2 1/1/1
f 1/1/1 3/3/3 4/4/4
f 6/6/6 4/4/4 3/3/3
f 3/3/3 5/5/5 6/6/6
f 8/10/8 6/8/6 5/7/5
f 5/7/5 7/9/7 8/10/8
f 10/12/10 8/10/8 7/9/7
f 7/9/7 9/11/9 10/12/10
f 12/14/12 10/12/10 9/11/9
f 9/11/9 11/13/11 12/14/12
f 14/18/14 12/16/12 11/15/11
f 11/15/11 13/17/13 14/18/14
f 16/2/16 14/18/14 13/17/13
f 13/17/13 15/1/15 16/2/16
f 18/4/18 16/2/16 15/1/15
f 15/1/15 17/3/17 18/4/18
f 20/6/20 18/4/18 17/3/17
f 17/3/17 19/5/19 20/6/20
f 22/10/22 20/8/20 19/7/19
f 19/7/19 21/9/21 22/10/22
f 24/12/24 22/10/22 21/9/21
f 21/9/21 23/11/23 24/12/24
f 26/14/26 24/12/24 23/11/23
f 23/11/23 25/13/25 26/14/26
f 28/18/28 26/16/26 25/15/25
f 25/15/25 27/17/27 28/18/28
f 2/2/2 28/18/28 27/17/27
f 27/17/27 1/1/1 2/2/2
f 62/35/29 60/28/29 59/30/29
f 59/30/29 61/34/29 62/35/29
f 66/39/34 64/37/32 63/36/31
f 63/36/31 65/38/33 66/39/34
f 61/34/29 59/30/29 67/32/29
f 67/32/29 68/40/29 61/34/29
f 70/42/36 69/41/35 64/37/32
f 64/37/32 66/39/34 70/42/36
f 72/43/29 71/22/29 60/28/29
f 60/28/29 62/35/29 72/43/29
f 65/38/33 63/36/31 73/44/37
f 73/44/37 74/45/38 65/38/33
f 76/46/29 75/23/29 71/22/29
f 71/22/29 72/43/29 76/46/29
f 74/45/38 73/44/37 77/47/39
f 77/47/39 78/48/40 74/45/38
f 80/49/29 79/25/29 75/23/29
f 75/23/29 76/46/29 80/49/29
f 78/48/40 77/47/39 81/50/41
f 81/50/41 82/51/42 78/48/40
f 84/52/29 83/27/29 79/25/29
f 79/25/29 80/49/29 84/52/29
f 82/51/42 81/50/41 85/53/43
f 85/53/43 86/54/44 82/51/42
f 88/55/29 87/26/29 83/27/29
f 83/27/29 84/52/29 88/55/29
f 86/54/44 85/53/43 89/56/45
f 89/56/45 90/57/46 86/54/44
f 92/58/29 91/24/29 87/26/29
f 87/26/29 88/55/29 92/58/29
f 90/57/46 89/56/45 93/59/47
f 93/59/47 94/60/48 90/57/46
f 96/61/29 95/21/29 91/24/29
f 91/24/29 92/58/29 96/61/29
f 94/60/48 93/59/47 97/62/49
f 97/62/49 98/63/50 94/60/48
f 100/64/29 99/19/29 95/21/29
f 95/21/29 96/61/29 100/64/29
f 98/63/50 97/62/49 101/65/51
f 101/65/51 102/66/52 98/63/50
f 104/67/29 103/29/29 99/19/29
f 99/19/29 100/64/29 104/67/29
f 102/66/52 101/65/51 105/68/53
f 105/68/53 106/69/54 102/66/52
f 108/70/29 107/31/29 103/29/29
f 103/29/29 104/67/29 108/70/29
f 106/69/54 105/68/53 109/71/55
f 109/71/55 110/72/56 106/69/54
f 112/73/29 111/33/29 107/31/29
f 107/31/29 108/70/29 112/73/29
f 110/72/56 109/71/55 113/74/57
f 113/74/57 114/75/58 110/72/56
f 68/40/29 67/32/29 111/33/29
f 111/33/29 112/73/29 68/40/29
f 114/75/58 113/74/57 69/41/35
f 69/41/35 70/42/36 114/75/58
f 116/79/62 50/77/60 48/76/59
f 48/76/59 115/78/61 116/79/62
f 118/81/64 16/2/16 18/4/18
f 18/4/18 117/80/63 118/81/64
f 117/80/63 18/4/18 20/6/20
f 20/6/20 119/82/65 117/80/63
f 120/86/67 52/84/66 50/83/60
f 50/83/60 116/85/62 120/86/67
f 119/88/65 20/8/20 22/10/22
f 22/10/22 121/87/68 119/88/65
f 122/90/70 54/89/69 52/84/66
f 52/84/66 120/86/67 122/90/70
f 121/87/68 22/10/22 24/12/24
f 24/12/24 123/91/71 121/87/68
f 124/93/73 56/92/72 54/89/69
f 54/89/69 122/90/70 124/93/73
f 123/91/71 24/12/24 26/14/26
f 26/14/26 125/94/74 123/91/71
f 126/98/76 58/96/75 56/95/72
f 56/95/72 124/97/73 126/98/76
f 125/100/74 26/16/26 28/18/28
f 28/18/28 127/99/77 125/100/74
f 128/81/79 32/2/78 58/96/75
f 58/96/75 126/98/76 128/81/79
f 127/99/77 28/18/28 2/2/2
f 2/2/2 129/81/80 127/99/77
f 130/78/82 34/76/81 32/2/78
f 32/2/78 128/81/79 130/78/82
f 129/81/80 2/2/2 4/4/4
f 4/4/4 131/80/83 129/81/80
f 132/79/85 36/77/84 34/76/81
f 34/76/81 130/78/82 132/79/85
f 131/80/83 4/4/4 6/6/6
f 6/6/6 133/82/86 131/80/83
f 134/86/88 38/84/87 36/83/84
f 36/83/84 132/85/85 134/86/88
f 133/88/86 6/8/6 8/10/8
f 8/10/8 135/87/89 133/88/86
f 136/90/91 40/89/90 38/84/87
f 38/84/87 134/86/88 136/90/91
f 135/87/89 8/10/8 10/12/10
f 10/12/10 137/91/92 135/87/89
f 138/93/94 42/92/93 40/89/90
f 40/89/90 136/90/91 138/93/94
f 137/91/92 10/12/10 12/14/12
f 12/14/12 139/94/95 137/91/92
f 140/98/97 44/96/96 42/95/93
f 42/95/93 138/97/94 140/98/97
f 139/100/95 12/16/12 14/18/14
f 14/18/14 141/99/98 139/100/95
f 142/81/100 46/2/99 44/96/96
f 44/96/96 140/98/97 142/81/100
f 141/99/98 14/18/14 16/2/16
f 16/2/16 118/81/64 141/99/98
f 115/78/61 48/76/59 46/2/99
f 46/2/99 142/81/100 115/78/61
f 71/103/101 45/1/101 47/101/101
f 47/101/101 60/102/101 71/103/101
f 61/105/19 19/5/19 17/3/17
f 17/3/17 62/104/17 61/105/19
f 62/104/17 17/3/17 15/1/15
f 15/1/15 72/103/15 62/104/17
f 75/107/102 43/106/102 45/1/102
f 45/1/102 71/103/102 75/107/102
f 72/103/15 15/1/15 13/17/13
f 13/17/13 76/108/13 72/103/15
f 79/110/103 41/109/103 43/106/103
f 43/106/103 75/107/103 79/110/103
f 76/108/13 13/17/13 11/15/11
f 11/15/11 80/111/11 76/108/13
f 83/115/104 39/113/104 41/112/104
f 41/112/104 79/114/104 83/115/104
f 80/117/11 11/13/11 9/11/9
f 9/11/9 84/116/9 80/117/11
f 87/119/105 37/118/105 39/113/105
f 39/113/105 83/115/105 87/119/105
f 84/116/9 9/11/9 7/9/7
f 7/9/7 88/120/7 84/116/9
f 91/122/106 35/121/106 37/118/106
f 37/118/106 87/119/106 91/122/106
f 88/120/7 7/9/7 5/7/5
f 5/7/5 92/123/5 88/120/7
f 95/102/107 31/101/107 35/124/107
f 35/124/107 91/125/107 95/102/107
f 92/105/5 5/5/5 3/3/3
f 3/3/3 96/104/3 92/105/5
f 99/103/108 29/1/108 31/101/108
f 31/101/108 95/102/108 99/103/108
f 96/104/3 3/3/3 1/1/1
f 1/1/1 100/103/1 96/104/3
f 103/107/109 57/106/109 29/1/109
f 29/1/109 99/103/109 103/107/109
f 100/103/1 1/1/1 27/17/27
f 27/17/27 104/108/27 100/103/1
f 107/110/110 55/109/110 57/106/110
f 57/106/110 103/107/110 107/110/110
f 104/108/27 27/17/27 25/15/25
f 25/15/25 108/111/25 104/108/27
f 111/115/111 53/113/111 55/112/111
f 55/112/111 107/114/111 111/115/111
f 108/117/25 25/13/25 23/11/23
f 23/11/23 112/116/23 108/117/25
f 67/119/112 51/118/112 53/113/112
f 53/113/112 111/115/112 67/119/112
f 112/116/23 23/11/23 21/9/21
f 21/9/21 68/120/21 112/116/23
f 59/122/113 49/121/113 51/118/113
f 51/118/113 67/119/113 59/122/113
f 68/120/21 21/9/21 19/7/19
f 19/7/19 61/123/19 68/120/21
f 60/102/114 47/101/114 49/124/114
f 49/124/114 59/125/114 60/102/114
f 105/127/53 126/98/76 124/97/73
f 124/97/73 109/126/55 105/127/53
f 146/131/116 144/129/23 143/128/25
f 143/128/25 145/130/115 146/131/116
f 145/135/115 143/133/25 147/132/27
f 147/132/27 148/134/117 145/135/115
f 101/136/51 128/81/79 126/98/76
f 126/98/76 105/127/53 101/136/51
f 148/134/117 147/132/27 149/137/1
f 149/137/1 150/81/118 148/134/117
f 97/138/49 130/78/82 128/81/79
f 128/81/79 101/136/51 97/138/49
f 150/81/118 149/137/1 151/139/3
f 151/139/3 152/140/119 150/81/118
f 93/141/47 132/79/85 130/78/82
f 130/78/82 97/138/49 93/141/47
f 152/140/119 151/139/3 153/142/5
f 153/142/5 154/143/120 152/140/119
f 89/145/45 134/86/88 132/85/85
f 132/85/85 93/144/47 89/145/45
f 154/135/120 153/133/5 155/146/7
f 155/146/7 156/147/121 154/135/120
f 85/148/43 136/90/91 134/86/88
f 134/86/88 89/145/45 85/148/43
f 156/147/121 155/146/7 157/129/9
f 157/129/9 158/131/122 156/147/121
f 81/149/41 138/93/94 136/90/91
f 136/90/91 85/148/43 81/149/41
f 158/131/122 157/129/9 159/128/11
f 159/128/11 160/130/123 158/131/122
f 77/127/39 140/98/97 138/97/94
f 138/97/94 81/126/41 77/127/39
f 160/135/123 159/133/11 161/132/13
f 161/132/13 162/134/124 160/135/123
f 73/136/37 142/81/100 140/98/97
f 140/98/97 77/127/39 73/136/37
f 162/134/124 161/132/13 163/137/15
f 163/137/15 164/81/125 162/134/124
f 63/138/31 115/78/61 142/81/100
f 142/81/100 73/136/37 63/138/31
f 164/81/125 163/137/15 165/139/17
f 165/139/17 166/140/126 164/81/125
f 64/141/32 116/79/62 115/78/61
f 115/78/61 63/138/31 64/141/32
f 166/140/126 165/139/17 167/142/19
f 167/142/19 168/143/127 166/140/126
f 69/145/35 120/86/67 116/85/62
f 116/85/62 64/144/32 69/145/35
f 168/135/127 167/133/19 169/146/21
f 169/146/21 170/147/128 168/135/127
f 113/148/57 122/90/70 120/86/67
f 120/86/67 69/145/35 113/148/57
f 170/147/128 169/146/21 144/129/23
f 144/129/23 146/131/116 170/147/128
f 109/149/55 124/93/73 122/90/70
f 122/90/70 113/148/57 109/149/55
f 167/152/130 119/72/130 121/150/129
f 121/150/129 169/151/129 167/152/130
f 146/131/116 114/154/58 70/153/36
f 70/153/36 170/147/128 146/131/116
f 170/156/128 70/42/36 66/39/34
f 66/39/34 168/155/127 170/156/128
f 165/157/131 117/69/131 119/72/130
f 119/72/130 167/152/130 165/157/131
f 168/155/127 66/39/34 65/38/33
f 65/38/33 166/158/126 168/155/127
f 163/159/132 118/66/132 117/69/131
f 117/69/131 165/157/131 163/159/132
f 166/158/126 65/38/33 74/45/38
f 74/45/38 164/160/125 166/158/126
f 161/161/133 141/63/133 118/66/132
f 118/66/132 163/159/132 161/161/133
f 164/160/125 74/45/38 78/48/40
f 78/48/40 162/162/124 164/160/125
f 159/163/134 139/60/134 141/63/133
f 141/63/133 161/161/133 159/163/134
f 162/162/124 78/48/40 82/51/42
f 82/51/42 160/164/123 162/162/124
f 157/165/135 137/57/135 139/60/134
f 139/60/134 159/163/134 157/165/135
f 160/164/123 82/51/42 86/54/44
f 86/54/44 158/166/122 160/164/123
f 155/129/136 135/91/136 137/87/135
f 137/87/135 157/146/135 155/129/136
f 158/131/122 86/154/44 90/153/46
f 90/153/46 156/147/121 158/131/122
f 153/164/137 133/51/137 135/54/136
f 135/54/136 155/166/136 153/164/137
f 156/165/121 90/57/46 94/60/48
f 94/60/48 154/163/120 156/165/121
f 151/162/138 131/48/138 133/51/137
f 133/51/137 153/164/137 151/162/138
f 154/163/120 94/60/48 98/63/50
f 98/63/50 152/161/119 154/163/120
f 149/160/139 129/45/139 131/48/138
f 131/48/138 151/162/138 149/160/139
f 152/161/119 98/63/50 102/66/52
f 102/66/52 150/159/118 152/161/119
f 147/158/140 127/38/140 129/45/139
f 129/45/139 149/160/139 147/158/140
f 150/159/118 102/66/52 106/69/54
f 106/69/54 148/157/117 150/159/118
f 143/155/141 125/39/141 127/38/140
f 127/38/140 147/158/140 143/155/141
f 148/157/117 106/69/54 110/72/56
f 110/72/56 145/152/115 148/157/117
f 144/156/142 123/167/142 125/39/141
f 125/39/141 143/155/141 144/156/142
f 145/152/115 110/72/56 114/75/58
f 114/75/58 146/151/116 145/152/115
f 169/129/129 121/91/129 123/87/142
f 123/87/142 144/146/142 169/129/129

