# ProBuilder 5.0.4
# https://unity3d.com/unity/features/worldbuilding/probuilder
# 6/22/2022 9:20:25 PM

mtllib ./Pin-Connector-Socket-Type-0.mtl
o Pin-Connector-Socket-Type-0

g Pin-Connector-Socket-Type-0
v 0.25 -0.025 0.025
v -0.25 -0.025 0.025
v 0.25 0.025 0.025
v -0.25 0.025 0.025
v -0.25 -0.025 -0.025
v -0.25 0.025 -0.025
v -0.25 -0.025 -0.125
v 0.25 -0.025 -0.125
v -0.25 0.025 -0.125
v 0.25 0.025 -0.125
v 0.25 -0.025 -0.025
v 0.25 0.025 -0.025
v 0.25 0.05 0.025
v -0.25 0.05 0.025
v 0.25 0.05 -0.025
v -0.25 0.05 -0.025
v 0.25 0.04 -0.0249939
v -0.25 0.04 -0.0249939
v 0.25 0.04 -0.125
v -0.25 0.04 -0.125

vt 0.25 -0.025
vt -0.25 -0.025
vt 0.25 0.025
vt -0.25 0.025
vt 0.025 -0.025
vt -0.025 -0.025
vt 0.025 0.025
vt -0.025 0.025
vt -0.25 -0.125
vt 0.25 -0.125
vt -0.125 0.025
vt -0.125 -0.025
vt 0.125 -0.025
vt 0.125 0.025
vt 0.25 0.05
vt -0.25 0.05
vt 0.025 0.05
vt -0.025 0.05
vt 0 0.1000061
vt 0.5 0.1000061
vt 0 0
vt 0.5 0

vn 0 0 1
vn -1 0 0
vn 0 0 -1
vn 1 0 0
vn 0 1 0
vn 0 -1 0

usemtl Metal027
f 3/3/1 4/4/1 2/2/1 1/1/1
f 4/7/2 6/8/2 5/6/2 2/5/2
f 9/3/3 10/4/3 8/2/3 7/1/3
f 12/7/4 3/8/4 1/6/4 11/5/4
f 15/2/5 16/1/5 14/3/5 13/4/5
f 1/3/6 2/4/6 5/2/6 11/1/6
f 7/9/6 8/10/6 11/1/6 5/2/6
f 9/11/2 7/12/2 5/6/2 6/8/2
f 8/13/4 10/14/4 12/7/4 11/5/4
f 10/9/5 9/10/5 6/1/5 12/2/5
f 13/15/1 14/16/1 4/4/1 3/3/1
f 15/17/4 13/18/4 3/8/4 12/7/4
f 14/17/2 16/18/2 6/8/2 4/7/2
f 16/15/3 15/16/3 12/4/3 6/3/3

usemtl Chip-Pins1
f 19/21/5 20/22/5 18/20/5 17/19/5

