# ProBuilder 5.0.4
# https://unity3d.com/unity/features/worldbuilding/probuilder
# 5/22/2022 7:36:57 PM

mtllib ./Generic-Room.mtl
o Generic-Room

g Generic-Room
v 0.75 0.05 -7.5
v 7.5 0.05 -7.5
v 7.5 0.05 7.5
v -7.5 0.05 7.5
v -7.5 0.05 -7.5
v -0.75 0.05 -7.5
v 0.75 -0.05 -7.6
v 7.6 -0.05 -7.6
v 0.75 0.05 -7.6
v 7.6 0.05 -7.6
v 7.6 -0.05 7.6
v 7.6 0.05 7.6
v -7.6 -0.05 7.6
v -7.6 -0.05 -7.6
v -7.6 0.05 7.6
v -7.6 0.05 -7.6
v -0.75 -0.05 -7.6
v -0.75 0.05 -7.6
v -7.5 -0.05 7.5
v -7.5 -0.05 -7.5
v -7.5 5.650199 7.500001
v 7.5 5.650199 7.500001
v -7.6 5.650199 7.599999
v 7.599999 5.650199 7.599999
v -7.5 5.650199 -7.5
v -7.6 5.650199 -7.6
v -0.75 -0.05 -7.5
v -0.75 5.650199 -7.5
v -0.75 5.650199 -7.6
v 0.75 -0.05 -7.5
v 7.5 -0.05 -7.5
v 7.5 5.650199 -7.5
v 0.75 5.650199 -7.5
v 7.599999 5.650199 -7.6
v 0.75 5.650199 -7.6
v 7.5 -0.05 7.5
v 7.5 2.3001 -7.5
v 0.75 2.3001 -7.5
v 7.599999 2.3001 -7.6
v 7.599999 2.3001 7.599999
v 0.75 2.3001 -7.6
v 7.5 2.3001 7.500001
v -7.6 2.3001 7.599999
v -7.5 2.3001 7.500001
v -7.6 2.3001 -7.6
v -7.5 2.3001 -7.5
v -0.75 2.3001 -7.6
v -0.75 2.3001 -7.5
v 7.5 3.5502 -7.5
v 0.75 3.5502 -7.5
v 7.599999 3.5502 -7.6
v 7.599999 3.5502 7.599999
v 0.75 3.5502 -7.6
v 7.5 3.5502 7.500001
v -7.6 3.5502 7.599999
v -7.5 3.5502 7.500001
v -7.6 3.5502 -7.6
v -7.5 3.5502 -7.5
v -0.75 3.5502 -7.6
v -0.75 3.5502 -7.5
v 0.75 4.5502 -7.6
v 7.599999 4.5502 -7.6
v -0.75 4.5502 -7.6
v 0.75 4.5502 -6.5
v -0.75 4.5502 -6.5
v 6.5 4.5502 -6.5
v 7.599999 4.5502 7.599999
v 6.5 4.5502 6.500001
v -7.6 4.5502 7.599999
v -6.5 4.5502 6.500001
v -7.6 4.5502 -7.6
v -6.5 4.5502 -6.5
v 0.75 5.5502 -7.6
v 7.599999 5.5502 -7.6
v -0.75 5.5502 -7.6
v 0.75 5.5502 -6.5
v -0.75 5.5502 -6.5
v 6.5 5.5502 -6.5
v 7.599999 5.5502 7.599999
v 6.5 5.5502 6.500001
v -7.6 5.5502 7.599999
v -6.5 5.5502 6.500001
v -7.6 5.5502 -7.6
v -6.5 5.5502 -6.5

vt -0.75 -7.5
vt -7.5 -7.5
vt -7.5 7.5
vt 7.5 7.5
vt 7.5 -7.5
vt 0.75 -7.5
vt -0.75 -0.05
vt -7.6 -0.05
vt -0.75 0.05
vt -7.6 0.05
vt 7.6 -0.05
vt -7.6 -0.05
vt 7.6 0.05
vt -7.6 0.05
vt 7.6 -0.05
vt 7.6 0.05
vt 0.75 -0.05
vt 0.75 0.05
vt -7.6 7.6
vt -7.6 -7.6
vt 7.6 7.599999
vt -7.599999 7.599999
vt 7.6 -7.6
vt -0.75 -7.6
vt 0.75 -7.6
vt 7.6 7.6
vt 7.5 0.05
vt 7.5 2.3001
vt 0.75 2.3001
vt 7.6 0.0499984
vt -7.6 0.0499984
vt 7.6 2.300098
vt -7.599999 2.300098
vt -7.5 0.05
vt -7.5 2.3001
vt -0.75 2.3001
vt -7.6 0.04999678
vt 7.5 3.5502
vt 0.75 3.5502
vt 7.6 3.5502
vt -7.599999 3.5502
vt -0.75 3.5502
vt -7.5 3.5502
vt -0.75 4.5502
vt -7.599999 4.5502
vt 0.75 4.5502
vt 0.75 -2.792931
vt -0.75 -2.792931
vt 0.75 -1.378718
vt -0.75 -1.378718
vt 7.5 -2.792931
vt 6.5 -1.378718
vt 7.6 4.5502
vt 2.792932 7.500001
vt 2.792932 -7.5
vt 1.378718 6.500001
vt 1.378718 -6.5
vt -7.5 -2.792932
vt -6.5 -1.378719
vt -2.792932 -7.5
vt -2.792932 7.500001
vt -1.378718 -6.5
vt -1.378718 6.500001
vt -0.75 5.5502
vt -7.599999 5.5502
vt 0.75 5.5502
vt 6.5 4.5502
vt 6.5 5.5502
vt 7.6 5.5502
vt -6.5 4.5502
vt -6.5 5.5502
vt -0.75 5.650199
vt -7.599999 5.650199
vt 0.75 5.650199
vt 7.6 5.650199
vt 6.5 6.500001
vt 6.5 -6.5
vt -6.5 6.500001
vt -6.5 -6.5

vn 0 1 0
vn 0 0 -1
vn 1 0 0
vn -1 0 0
vn 0 0 1
vn 0 -1 0
vn 0 -0.7071069 0.7071067
vn -0.7071067 -0.7071069 0
vn 0 -0.7071069 -0.7071067
vn 0.7071067 -0.7071069 0

usemtl Concrete024-Foundation-Paintings
f 9/9/2 10/10/2 8/8/2 7/7/2
f 10/13/3 12/14/3 11/12/3 8/11/3
f 15/16/4 16/10/4 14/8/4 13/15/4
f 16/13/2 18/18/2 17/17/2 14/11/2
f 18/18/2 9/9/2 7/7/2 17/17/2
f 12/13/5 15/10/5 13/8/5 11/11/5
f 13/19/6 14/20/6 20/2/6 19/3/6
f 23/21/1 24/22/1 22/3/1 21/4/1
f 26/23/1 23/21/1 21/4/1 25/5/1
f 14/20/6 17/24/6 27/1/6 20/2/6
f 29/25/1 26/23/1 25/5/1 28/6/1
f 17/24/6 7/25/6 30/6/6 27/1/6
f 7/25/6 8/23/6 31/5/6 30/6/6
f 34/20/1 35/24/1 33/1/1 32/2/1
f 8/23/6 11/26/6 36/4/6 31/5/6
f 24/22/1 34/20/1 32/2/1 22/3/1
f 11/26/6 13/19/6 19/3/6 36/4/6
f 31/5/6 36/4/6 19/3/6 20/2/6
f 37/28/5 38/29/5 1/18/5 2/27/5
f 39/32/3 40/33/3 12/31/3 10/30/3
f 38/35/4 41/33/4 9/10/4 1/34/4
f 41/36/2 39/33/2 10/10/2 9/9/2
f 42/28/4 37/35/4 2/34/4 3/27/4
f 40/32/5 43/33/5 15/37/5 12/30/5
f 44/28/2 42/35/2 3/34/2 4/27/2
f 43/32/4 45/33/4 16/10/4 15/16/4
f 46/28/3 44/35/3 4/34/3 5/27/3
f 45/32/2 47/29/2 18/18/2 16/13/2
f 48/36/5 46/35/5 5/34/5 6/9/5
f 47/32/3 48/28/3 6/27/3 18/13/3
f 49/38/5 50/39/5 38/29/5 37/28/5
f 51/40/3 52/41/3 40/33/3 39/32/3
f 53/42/2 51/41/2 39/33/2 41/36/2
f 54/38/4 49/43/4 37/35/4 42/28/4
f 52/40/5 55/41/5 43/33/5 40/32/5
f 56/38/2 54/43/2 42/35/2 44/28/2
f 55/40/4 57/41/4 45/33/4 43/32/4
f 58/38/3 56/43/3 44/35/3 46/28/3
f 57/40/2 59/39/2 47/29/2 45/32/2
f 60/42/5 58/43/5 46/35/5 48/36/5
f 48/1/6 47/24/6 41/25/6 38/6/6
f 60/42/5 48/36/5 38/29/5 50/39/5
f 47/29/2 59/39/2 53/42/2 41/36/2
f 29/25/1 28/6/1 33/1/1 35/24/1
f 61/44/2 62/45/2 51/41/2 53/42/2
f 63/46/2 61/44/2 53/42/2 59/39/2
f 62/53/3 67/45/3 52/41/3 51/40/3
f 67/53/5 69/45/5 55/41/5 52/40/5
f 69/53/4 71/45/4 57/41/4 55/40/4
f 71/53/2 63/46/2 59/39/2 57/40/2
f 73/64/2 74/65/2 62/45/2 61/44/2
f 75/66/2 73/64/2 61/44/2 63/46/2
f 74/69/3 79/65/3 67/45/3 62/53/3
f 79/69/5 81/65/5 69/45/5 67/53/5
f 81/69/4 83/65/4 71/45/4 69/53/4
f 83/69/2 75/66/2 63/46/2 71/53/2
f 35/72/2 34/73/2 74/65/2 73/64/2
f 29/74/2 35/72/2 73/64/2 75/66/2
f 34/75/3 24/73/3 79/65/3 74/69/3
f 24/75/5 23/73/5 81/65/5 79/69/5
f 23/75/4 26/73/4 83/65/4 81/69/4
f 26/75/2 29/74/2 75/66/2 83/69/2
f 25/5/1 21/4/1 22/3/1 32/2/1

usemtl Floor
f 3/3/1 2/2/1 1/1/1
f 6/6/1 5/5/1 4/4/1
f 1/1/1 6/6/1 4/4/1
f 3/3/1 1/1/1 4/4/1

usemtl Concrete024
f 9/24/1 18/25/1 6/6/1 1/1/1
f 64/49/7 65/50/7 60/48/7 50/47/7
f 66/52/7 64/49/7 50/47/7 49/51/7
f 68/56/8 66/57/8 49/55/8 54/54/8
f 70/52/9 68/59/9 54/58/9 56/51/9
f 72/62/10 70/63/10 56/61/10 58/60/10
f 65/50/7 72/59/7 58/58/7 60/48/7
f 76/66/5 77/64/5 65/44/5 64/46/5
f 78/68/5 76/66/5 64/46/5 66/67/5
f 80/68/4 78/71/4 66/70/4 68/67/4
f 82/68/2 80/71/2 68/70/2 70/67/2
f 84/68/3 82/71/3 70/70/3 72/67/3
f 77/64/5 84/71/5 72/70/5 65/44/5

usemtl OfficeCeiling006
f 82/78/6 84/79/6 78/77/6 80/76/6

