# ProBuilder 5.0.4
# https://unity3d.com/unity/features/worldbuilding/probuilder
# 7/6/2022 4:43:36 AM

mtllib ./OZ-CZ-Connect-Room.mtl
o OZ-CZ-Connect-Room

g OZ-CZ-Connect-Room
v 3.9333 0 0.75
v 4.033401 0 0.75
v 3.9333 2.2501 0.75
v 4.033401 2.2501 0.75
v 3.9333 0 3
v 3.9333 2.2501 3
v 3.9333 0 -0.75
v 3.9333 0 -3
v 3.9333 2.2501 -0.75
v 3.9333 2.2501 -3
v 4.033401 0 -0.75
v 4.033401 2.2501 -0.75
v 3.9333 3.5001 3
v 3.9333 3.5001 0.75
v 3.9333 3.5001 -0.75
v 3.9333 3.5001 -3
v -1.96665 0 -1.25
v -1.96665 0 -3
v -1.96665 2.999998 -1.25
v -1.96665 2.999999 -3
v -1.96665 0 3
v -1.96665 0 1.25
v -1.96665 2.999999 3
v -1.96665 2.999998 1.25
v -1.966551 3.499997 -1.25
v -1.966551 3.499997 -3
v -1.966551 3.499997 3
v -1.966551 3.499997 1.25
v -2.06665 3 1.25
v -2.06665 0 1.25
v -2.06665 0 -1.25
v -2.06665 3 -1.25
v -1.46645 4.499997 3
v -1.46645 4.499997 1.25
v -1.46645 4.499997 -1.25
v -1.46645 4.499997 -3
v 3.4332 4.5001 -0.75
v 3.4332 4.5001 0.75
v 3.4332 4.5001 -3
v 3.4332 4.5001 3
v -1.96665 3.5001 3
v 3.9333 4.5001 2.4999
v -1.96665 4.5001 2.4999
v -1.96665 3.5001 -3
v -1.96665 4.5001 -2.4999
v 3.9333 4.5001 -2.4999
v 3.4331 6.0001 0.75
v 3.4331 6.0001 3
v 3.4331 6.0001 -0.75
v 3.4331 6.0001 -3
v -1.96665 6.0001 -2.4998
v 3.9333 6.0001 -2.4998
v 3.9333 6.0001 2.4998
v -1.96665 6.0001 2.4998
v -1.46635 5.999997 3
v -1.46635 5.999997 1.25
v -1.46635 5.999997 -1.25
v -1.46635 5.999997 -3

vt 0.05004978 0
vt -0.05005169 0
vt 0.05004978 2.2501
vt -0.05005169 2.2501
vt 2.5 0
vt 0.75 0
vt 2.5 2.2501
vt 0.75 2.2501
vt -0.75 0
vt -2.5 0
vt -0.75 2.2501
vt -2.5 2.2501
vt 2.5 3.5001
vt 0.75 3.5001
vt -0.75 3.5001
vt -2.5 3.5001
vt 0.05004978 -0.75
vt -0.05005169 -0.75
vt 0.05004978 0.75
vt -0.05005169 0.75
vt -9.933298 3
vt 3.75 0
vt 5 0
vt 3.75 2.999998
vt 5 2.999999
vt 0 0
vt 1.25 0
vt 0 2.999999
vt 1.25 2.999998
vt 3.75 6.499997
vt 5 6.499997
vt 0 6.499997
vt 1.25 6.499997
vt 0.1 3
vt 0.1 0
vt 0 3
vt 0.1 2.999998
vt 0.1 2.5
vt 0 2.5
vt -4.03335 3
vt -4.03335 1.25
vt -4.03335 -3
vt -4.03335 -1.25
vt -9.933298 -3
vt -3 2.250758
vt -1.25 2.250758
vt -3 3.368837
vt -1.25 3.368837
vt 1.25 2.250758
vt 1.25 3.368837
vt 3 2.250758
vt 3 3.368837
vt -0.75 1.371154
vt 0.75 1.371154
vt -0.75 2.489233
vt 0.75 2.489233
vt -3 1.371154
vt -3 2.489233
vt 3 1.371154
vt 3 2.489233
vt -3.9333 0
vt 1.96665 0
vt -3.9333 3.5001
vt 1.96665 3.5001
vt -3.9333 1.788604
vt 1.96665 1.788604
vt -3.9333 2.906683
vt 1.96665 2.906683
vt -1.96665 0
vt 3.9333 0
vt -1.96665 3.5001
vt 3.9333 3.5001
vt -1.96665 1.788605
vt 3.9333 1.788605
vt -1.96665 2.906683
vt 3.9333 2.906683
vt 0.75 4.499871
vt 3 4.499871
vt 0.75 5.999871
vt 3 5.999871
vt -0.75 4.499871
vt -0.75 5.999871
vt -3 4.499871
vt -3 5.999871
vt -1.96665 4.499934
vt 3.9333 4.499934
vt -1.96665 5.999934
vt 3.9333 5.999934
vt -3.9333 4.499933
vt 1.96665 4.499933
vt -3.9333 5.999933
vt 1.96665 5.999933
vt -1.25 4.499899
vt -1.25 5.999899
vt 1.25 4.499899
vt 1.25 5.999899
vt 3.9333 2.4998
vt -1.96665 2.4998
vt 3.9333 -2.4998
vt -1.96665 -2.4998

vn 0 0 -1
vn -1 0 0
vn 0 0 1
vn 0 -1 0
vn 0 1 0
vn 1 0 0
vn 0.8943914 -0.4472852 0
vn -0.8943916 -0.4472848 0
vn 0 -0.4472851 -0.8943914
vn 0 -0.447285 0.8943915

usemtl ContainmentZone-Generic
f 18/42/5 17/43/5 8/44/5
f 17/43/5 22/41/5 8/44/5
f 22/41/5 21/40/5 8/44/5
f 21/40/5 5/21/5 8/44/5
f 4/4/1 2/2/1 1/1/1
f 1/1/1 3/3/1 4/4/1
f 3/8/2 1/6/2 5/5/2
f 5/5/2 6/7/2 3/8/2
f 10/12/2 8/10/2 7/9/2
f 7/9/2 9/11/2 10/12/2
f 9/4/3 7/2/3 11/1/3
f 11/1/3 12/3/3 9/4/3
f 14/14/2 3/8/2 6/7/2
f 6/7/2 13/13/2 14/14/2
f 16/16/2 10/12/2 9/11/2
f 9/11/2 15/15/2 16/16/2
f 12/20/4 4/18/4 3/17/4
f 3/17/4 9/19/4 12/20/4
f 9/11/2 3/8/2 14/14/2
f 14/14/2 15/15/2 9/11/2
f 2/17/5 11/19/5 7/20/5
f 7/20/5 1/18/5 2/17/5
f 19/24/6 17/22/6 18/23/6
f 18/23/6 20/25/6 19/24/6
f 23/28/6 21/26/6 22/27/6
f 22/27/6 24/29/6 23/28/6
f 25/30/6 19/24/6 20/25/6
f 20/25/6 26/31/6 25/30/6
f 27/32/6 23/28/6 24/29/6
f 24/29/6 28/33/6 27/32/6
f 24/29/6 19/24/6 25/30/6
f 25/30/6 28/33/6 24/29/6
f 22/26/1 30/35/1 29/34/1
f 29/34/1 24/28/1 22/26/1
f 19/37/3 32/36/3 31/26/3
f 31/26/3 17/35/3 19/37/3
f 19/35/4 24/38/4 29/39/4
f 29/39/4 32/26/4 19/35/4
f 31/35/5 30/38/5 22/39/5
f 22/39/5 17/26/5 31/35/5
f 33/47/7 27/45/7 28/46/7
f 28/46/7 34/48/7 33/47/7
f 34/48/7 28/46/7 25/49/7
f 25/49/7 35/50/7 34/48/7
f 35/50/7 25/49/7 26/51/7
f 26/51/7 36/52/7 35/50/7
f 37/55/8 15/53/8 14/54/8
f 14/54/8 38/56/8 37/55/8
f 39/58/8 16/57/8 15/53/8
f 15/53/8 37/55/8 39/58/8
f 38/56/8 14/54/8 13/59/8
f 13/59/8 40/60/8 38/56/8
f 13/63/1 5/61/1 21/62/1
f 21/62/1 41/64/1 13/63/1
f 42/67/9 13/65/9 41/66/9
f 41/66/9 43/68/9 42/67/9
f 44/71/3 18/69/3 8/70/3
f 8/70/3 16/72/3 44/71/3
f 45/75/10 44/73/10 16/74/10
f 16/74/10 46/76/10 45/75/10
f 47/79/2 38/77/2 40/78/2
f 40/78/2 48/80/2 47/79/2
f 49/82/2 37/81/2 38/77/2
f 38/77/2 47/79/2 49/82/2
f 50/84/2 39/83/2 37/81/2
f 37/81/2 49/82/2 50/84/2
f 51/87/3 45/85/3 46/86/3
f 46/86/3 52/88/3 51/87/3
f 53/91/1 42/89/1 43/90/1
f 43/90/1 54/92/1 53/91/1
f 55/84/6 33/83/6 34/93/6
f 34/93/6 56/94/6 55/84/6
f 56/94/6 34/93/6 35/95/6
f 35/95/6 57/96/6 56/94/6
f 57/96/6 35/95/6 36/78/6
f 36/78/6 58/80/6 57/96/6
f 52/99/4 53/97/4 54/98/4
f 54/98/4 51/100/4 52/99/4

