# ProBuilder 5.0.4
# https://unity3d.com/unity/features/worldbuilding/probuilder
# 5/20/2022 6:54:23 PM

mtllib ./Surface_Room.mtl
o Surface_Room

g Surface_Room
v 7.6 -0.05 7.849998
v -7.6 -0.05 7.849998
v 7.6 0.05 7.849998
v -7.6 0.05 7.849998
v -7.6 -0.05 -7.6
v -7.6 0.05 -7.6
v 7.6 -0.05 -7.6
v 7.6 0.05 -7.6
v 0.75 0.05 -7.6
v 0.75 -0.05 -7.6
v 0.75 0.05 -7.5
v 7.5 0.05 -7.5
v 7.5 0.05 7.5
v -7.5 0.05 7.5
v -7.5 0.05 -7.5
v -0.75 0.05 -7.5
v -7.5 -0.05 7.5
v 7.5 -0.05 7.5
v 7.5 -0.05 -7.5
v 0.75 -0.05 -7.5
v -0.75 -0.05 -7.5
v -7.5 -0.05 -7.5
v -0.75 0.05 -7.6
v -0.75 -0.05 -7.6
v -0.75 4.65 -7.5
v -7.5 4.65 -7.5
v -0.75 4.65 -7.6
v -7.6 4.65 -7.6
v -7.5 4.65 7.5
v -7.6 4.65 7.849998
v 7.5 4.65 7.5
v 7.5 4.65 -7.5
v 7.6 4.65 7.849998
v 7.6 4.65 -7.6
v 0.75 4.65 -7.5
v 0.75 4.65 -7.6
v 7.5 1.05 -7.5
v 0.75 1.05 -7.5
v 7.6 1.05 -7.6
v 7.6 1.05 7.849998
v 0.75 1.05 -7.6
v 7.5 1.05 7.5
v -7.6 1.05 7.849998
v -7.6 1.05 -7.6
v -7.5 1.05 -7.5
v -7.5 1.05 7.5
v -0.75 1.05 -7.6
v -0.75 1.05 -7.5
v -6 4.65 7.5
v -6.033333 4.65 7.849998
v 6.033333 4.65 7.849998
v 6 4.65 7.5
v -7.6 2.3 7.849998
v -7.6 2.3 -7.6
v -4.033333 1.05 7.849998
v -4.033333 2.3 7.849998
v -4 1.05 7.5
v -7.5 2.3 7.5
v -4 2.3 7.5
v -2.95809 1.05 7.483921
v -2.995215 1.05 7.873739
v -2.95809 2.3 7.483921
v -2.995215 2.3 7.873739
v -7.5 2.3 -7.5
v -0.75 2.3 -7.6
v -0.75 2.3 -7.5
v 5 1.05 7.5
v 5 2.3 7.5
v 7.5 2.3 7.5
v 4.996963 1.08655 7.890014
v 4.956 1.092093 7.459902
v 4.996969 2.261732 7.890081
v 4.956011 2.255831 7.46002
v 0.75 2.3 -7.5
v 0.75 2.3 -7.6
v 5.033333 1.05 7.849998
v 7.6 2.3 7.849998
v 5.033333 2.3 7.849998
v 7.5 2.3 -7.5
v 7.6 2.3 -7.6
v -7.6 3.55 7.849998
v -7.6 3.55 -7.6
v -6.033333 3.55 7.849998
v -7.5 3.55 7.5
v -6 3.55 7.5
v -7.5 3.55 -7.5
v -0.75 3.55 -7.6
v -0.75 3.55 -7.5
v 6 3.55 7.5
v 7.5 3.55 7.5
v 7.6 3.55 7.849998
v 6.033333 3.55 7.849998
v 7.5 3.55 -7.5
v 7.6 3.55 -7.6
v 0.75 3.55 -7.5
v 0.75 3.55 -7.6
v -4.033333 2.26 7.869998
v -4 2.26 7.481807
v 6.5 3.55 6.5
v 6.5 3.55 -6.5
v 6.5 4.55 6.5
v 6.5 4.55 -6.5
v 7.6 4.55 7.849998
v 6.033333 4.55 7.849998
v -0.75 4.55 -7.6
v 0.75 4.55 -7.6
v 7.6 4.55 -7.6
v 0.75 3.55 -6.5
v 0.75 4.55 -6.5
v -0.75 3.55 -6.5
v -0.75 4.55 -6.5
v -6.033333 4.55 7.849998
v -7.6 4.55 7.849998
v -6.5 3.55 -6.5
v -6.5 4.55 -6.5
v -7.6 4.55 -7.6
v -6.5 3.55 6.5
v -6.5 4.55 6.5
v -6 3.55 6.5
v -6 4.55 6.5
v 6 3.55 6.5
v 6 4.55 6.5
v 6.5 4.65 -6.5
v 6.5 4.65 6.5
v 0.75 4.65 -6.5
v -0.75 4.65 -6.5
v -6.5 4.65 -6.5
v -6.5 4.65 6.5
v -6 4.65 6.5
v 6 4.65 6.5
v -3 2.3001 7.500001
v 5 2.3001 7.500001
v 5.033333 2.3001 7.599998
v -3.033333 2.3001 7.599998
v -3 1.05 7.500001
v 5.033333 1.05 7.599998
v -3.033333 1.05 7.599998
v -3.749905 1.05 7.500031
v -3.783237 1.05 7.850029
v -4 2.3 3.499901
v -4 1.05 3.499901
v -3.749905 2.3 3.499931
v -3.749905 1.05 3.499931
v -3.783237 2.3 7.850029
v -3.749905 2.3 7.500031
v -4 0.04989989 7.5
v -3.749905 0.04989989 7.500031
v -4 0.04989989 3.499901
v -3.749905 0.04989989 3.499931
v -3.749905 3.8001 7.500031
v -4 3.8001 7.5
v -3.749905 3.8001 3.499931
v -4 3.8001 3.499901
v -4 2.3 -0.5003967
v -3.749905 2.3 -0.5003662
v -4 3.8001 -0.5003967
v -3.749905 3.8001 -0.5003662
v -3.749905 4.5502 7.500031
v -4 4.5502 7.5
v -3.749905 4.5502 3.499931
v -4 4.5502 3.499901
v -4 4.5502 -0.5003967
v -3.749905 4.5502 -0.5003662
v -4 2.3 1.999802
v -3.749905 2.3 1.999832
v -4 3.8001 1.999802
v -3.749905 3.8001 1.999832
v -4 4.5502 1.999802
v -3.749905 4.5502 1.999832
v -4 3.8001 -0.2502975
v -4 2.3 -0.2502975
v -3.749905 2.3 -0.250267
v -3.749905 3.8001 -0.250267
v -4 4.5502 -0.2502975
v -3.749905 4.5502 -0.250267
v -4 0.04990001 1.999802
v -3.749905 0.04990001 1.999832
v -4 0.04990001 -0.2502975
v -3.749905 0.04990001 -0.250267
v -3.749905 0.04990001 -0.5003662
v -4 0.04990001 -0.5003967
v -7.500101 3.8001 -0.2502975
v -7.500101 2.3 -0.2502975
v -7.500101 3.8001 -0.5003967
v -7.500101 4.5502 -0.5003967
v -7.500101 0.04990001 -0.2502975
v -7.500101 0.04990001 -0.5003967
v -7.500101 2.3 -0.5003967
v -7.500101 4.5502 -0.2502975
v -2.999805 1.05 7.500038
v -3.033138 1.05 7.850037
v -2.999805 2.3 7.500038
v -3.033138 2.3 7.850037
v -3 1.09 7.479999
v -3.033138 1.09 7.872023
v -3.033138 1.07 7.850037
v -3 1.07 7.5
v -3 1.049999 7.480001
v 4.99905 1.049999 7.48
v 5.034283 2.3 7.869998
v 5.034286 1.049052 7.869998
v -3.033138 1.048112 7.869947
v 4.999048 2.299052 7.48
v -4.033333 2.3 7.869998
v -4 2.298112 7.480089
v -4 2.28 7.5
v -4.033333 2.28 7.849998
v -2.979896 1.05 7.501935
v -3.013228 1.05 7.851933
v -2.997909 2.3 7.480128
v -2.997909 1.05 7.480128
v -3.035035 1.05 7.869946
v -3.035035 2.3 7.869946
v -3.013228 2.3 7.851933
v -2.979896 2.3 7.501935

vt 7.6 -0.05
vt -7.6 -0.05
vt 7.6 0.05
vt -7.6 0.05
vt 7.849998 -0.05
vt -7.6 -0.05
vt 7.849998 0.05
vt -7.6 0.05
vt 7.6 -0.05
vt -7.849998 -0.05
vt 7.6 0.05
vt -7.849998 0.05
vt -0.75 0.05
vt -0.75 -0.05
vt -0.75 -7.5
vt -7.5 -7.5
vt -7.5 7.5
vt 7.5 7.5
vt 7.5 -7.5
vt 0.75 -7.5
vt 0.75 0.05
vt 0.75 -0.05
vt 0.75 -7.6
vt 7.6 -7.6
vt 7.6 7.849998
vt -7.6 -7.6
vt -0.75 -7.6
vt -7.6 7.849998
vt 7.5 0.05
vt 7.5 1.05
vt 0.75 1.05
vt 7.6 1.05
vt -7.849998 1.05
vt -7.5 0.05
vt -7.5 1.05
vt -7.6 1.05
vt -0.75 1.05
vt 7.849998 1.05
vt 6 7.5
vt 6.033333 7.849998
vt -6.033333 7.849998
vt -6 7.5
vt 7.849998 2.3
vt -7.6 2.3
vt -4.033333 1.05
vt -7.6 1.05
vt -4.033333 2.3
vt -7.6 2.3
vt 4 1.05
vt 7.5 2.3
vt 4 2.3
vt -7.730661 1.05
vt -8.122243 1.05
vt -7.730661 2.3
vt -8.122243 2.3
vt -7.5 2.3
vt 7.6 2.3
vt 0.75 2.3
vt -0.75 2.3
vt -5 1.05
vt -5 2.3
vt 8.328227 1.08655
vt 7.896169 1.092093
vt 8.328294 2.261731
vt 7.896287 2.255831
vt 7.6 1.05
vt 5.033333 1.05
vt 7.6 2.3
vt 5.033333 2.3
vt -7.849998 2.3
vt 7.849998 3.55
vt -7.6 3.55
vt -6.033333 3.55
vt -7.6 3.55
vt 7.5 3.55
vt 6 3.55
vt -7.5 3.55
vt 7.6 3.55
vt 0.75 3.55
vt -0.75 3.55
vt -6 3.55
vt 7.6 3.55
vt 6.033333 3.55
vt -7.849998 3.55
vt 4.997334 7.920323
vt 4.956375 7.490222
vt -4.032968 7.900239
vt -3.999635 7.512084
vt 6.5 3.55
vt -6.5 3.55
vt 6.5 4.55
vt -6.5 4.55
vt 7.6 4.55
vt 6.033333 4.55
vt 0.75 4.55
vt -0.75 4.55
vt 7.6 4.55
vt -7.849998 4.55
vt -7.6 4.55
vt -6.033333 4.55
vt -7.6 4.55
vt 7.849998 4.55
vt 6 4.55
vt -6 4.55
vt 6.5 -6.5
vt 0.75 -6.5
vt -6.5 -6.5
vt -6.5 6.5
vt -0.75 -6.5
vt 6.5 6.5
vt -6 6.5
vt 6 6.5
vt 6.033333 4.65
vt -6.033333 4.65
vt 7.6 4.65
vt -6 4.65
vt -6.5 4.65
vt 7.6 4.65
vt 0.75 4.65
vt 6.5 4.65
vt 6 4.65
vt 7.849998 4.65
vt -7.6 4.65
vt -7.6 4.65
vt -0.75 4.65
vt -7.849998 4.65
vt 3 7.500001
vt -5 7.500001
vt -5.033333 7.599998
vt 3.033333 7.599998
vt 3 1.05
vt 3 2.3001
vt -5 2.3001
vt -8.696271 1.05
vt -8.801678 1.05
vt -8.696271 2.3001
vt -8.801678 2.3001
vt -3.033333 1.05
vt 5.033333 2.3001
vt -3.033333 2.3001
vt 8.169217 1.05
vt 8.06381 1.05
vt 8.169217 2.3001
vt 8.06381 2.3001
vt -4 7.5
vt -4.033333 7.849998
vt -3.749905 7.500031
vt -3.783237 7.850029
vt 3.999573 2.3
vt 3.999573 1.05
vt 3.749478 2.3
vt 3.749478 1.05
vt -4.032375 1.05
vt -4.032375 2.3
vt -3.782279 1.05
vt -3.782279 2.3
vt 4.033333 7.849998
vt 4 7.5
vt 3.783237 7.850029
vt 3.749905 7.500031
vt 3.499901 2.3
vt 3.499901 1.05
vt -3.499931 1.05
vt -3.499931 2.3
vt -3.999085 1.05
vt -3.748989 1.05
vt -3.999085 0.04989989
vt -3.748989 0.04989989
vt 3.499901 0.04989989
vt 7.5 0.04989989
vt -7.500031 0.04989989
vt -3.499931 0.04989989
vt 3.749478 0.04989989
vt 3.999573 0.04989989
vt -3.748989 2.3
vt -3.999085 2.3
vt -3.748989 3.8001
vt -3.999085 3.8001
vt -3.499931 3.8001
vt -7.500031 3.8001
vt 7.5 3.8001
vt 3.499901 3.8001
vt 3.749966 2.3
vt 4.000061 3.8001
vt 3.749966 3.8001
vt -3.748989 4.5502
vt -3.999085 4.5502
vt -3.499931 4.5502
vt -7.500031 4.5502
vt 7.5 4.5502
vt 3.499901 4.5502
vt 4.000061 4.5502
vt 3.749966 4.5502
vt -4 3.499901
vt -3.749905 3.499931
vt -4 1.999802
vt -3.749905 1.999832
vt 1.999802 3.8001
vt 1.999802 2.3
vt -1.999832 2.3
vt -1.999832 3.8001
vt 1.999802 4.5502
vt -1.999832 4.5502
vt 3.749905 3.499931
vt 4 3.499901
vt 3.749905 1.999832
vt 4 1.999802
vt -0.2502975 3.8001
vt -0.2502975 2.3
vt 0.250267 2.3
vt 0.250267 3.8001
vt -0.2502975 4.5502
vt 0.250267 4.5502
vt 3.749905 -0.250267
vt 4 -0.2502975
vt -3.999756 2.3
vt -3.74966 2.3
vt -3.999756 0.04990001
vt -3.74966 0.04990001
vt -0.2502975 0.04990001
vt 1.999802 0.04990001
vt -1.999832 0.04990001
vt 0.250267 0.04990001
vt 3.749966 0.04990001
vt 4.000061 0.04990001
vt 0.5003662 0.04990001
vt 0.5003662 2.3
vt 0.5003662 3.8001
vt -4 -0.2502975
vt -3.749905 -0.250267
vt -4 -0.5003967
vt -3.749905 -0.5003662
vt 0.5003662 4.5502
vt 3.749905 -0.5003662
vt 4 -0.5003967
vt -4 3.8001
vt -4 2.3
vt -7.500101 -0.2502975
vt -7.500101 -0.5003967
vt -4 0.04990001
vt -4 4.5502
vt 7.500101 -0.5003967
vt 7.500101 -0.2502975
vt -2.999805 7.500038
vt -3.033138 7.850037
vt 3.749828 1.05
vt 2.999729 2.3
vt 2.999729 1.05
vt -3.783158 1.05
vt -3.783158 2.3
vt -3.033058 2.3
vt 3.033138 7.850037
vt 2.999805 7.500038
vt 4 1.050001
vt 7.5 1.050001
vt -7.5 1.050001
vt -5 1.050001
vt 3 1.050001
vt 7.599998 1.050059
vt -7.600003 1.050059
vt -4.033336 1.050059
vt -3.033141 1.050059
vt 5.03333 1.050059
vt 2.999713 7.480023
vt -4.956288 7.459926
vt -4.997249 7.890038
vt 3.032851 7.872047
vt 8.100965 1.05
vt 7.749365 1.05
vt 8.100965 1.07
vt 7.749364 1.07
vt -4.999049 1.049643
vt 3.000001 1.089643
vt -4.955999 1.091738
vt 0.7032511 2.299992
vt 0.7032532 1.049043
vt 0.6608762 2.261724
vt 0.6609023 1.086542
vt 5.033846 4.631229
vt -3.033578 4.630164
vt 4.996522 4.673735
vt -3.033578 4.668095
vt -7.693998 1.050002
vt -7.693996 2.299055
vt -7.646488 1.092096
vt -7.646548 2.255834
vt 5.034283 2.3
vt -4.033333 2.26
vt 4.996969 2.261732
vt -4.998612 5.225959
vt 4.000435 5.224924
vt -4.955577 5.178342
vt 4.000435 5.191051
vt 7.845449 2.3
vt 8.197032 2.3
vt 7.845449 2.28
vt 8.197032 2.28
vt -2.979896 7.501935
vt -3.013228 7.851933
vt 2.275138 2.3
vt 2.275138 1.05
vt 2.235138 2.3
vt 2.235138 1.05
vt -2.275143 1.05
vt -2.275143 2.3
vt -2.235143 1.05
vt -2.235143 2.3
vt 3.013228 7.851933
vt 2.979896 7.501935
vt -2.95809 7.483921
vt -2.995215 7.873739
vt 7.750686 2.3
vt 7.750686 1.05
vt 7.730686 2.3
vt 7.730686 1.05
vt 2.995215 7.873739
vt 2.95809 7.483921
vt 8.102268 1.05
vt 8.102268 2.3
vt 8.122268 1.05
vt 8.122268 2.3
vt -3.035035 7.869946
vt 3.035035 7.869946
vt 2.997909 7.480128
vt -2.997909 7.480128
vt -8.08005 2.3
vt -8.08005 1.05
vt -8.100073 2.3
vt -8.100073 1.049052
vt -5.033333 7.849998
vt 4.033333 7.869998
vt -5.034283 7.869998
vt -3 7.500051
vt 5 7.50005
vt -3 7.480051
vt 4.99905 7.48005
vt 7.845449 1.990516
vt 8.197032 1.990516
vt 7.827338 1.970441
vt 8.216942 1.970753
vt 8.100965 0.8293561
vt 7.749363 0.8293561
vt 8.122853 0.8494632
vt 7.729451 0.8490553
vt 5.033333 7.791467
vt -3.033139 7.791505
vt 5.034286 7.81149
vt -3.033139 7.811483
vt 7.849998 2.28
vt 7.869998 2.26
vt 7.869998 2.3
vt 7.850037 1.05
vt 7.850037 1.07
vt 7.869947 1.048112
vt 7.872023 1.09
vt -7.728864 1.05
vt -7.728864 2.3
vt -7.708841 1.049999
vt -7.708841 2.299052
vt -5 7.600505
vt 4 7.600505
vt -4.999048 7.580482
vt 4 7.580527
vt 7.5 1.07
vt 7.479999 1.09
vt 7.480001 1.049999
vt 7.5 2.28
vt 7.480089 2.298112
vt 7.481807 2.26

vn 0 0 1
vn -1 0 -3.086325E-08
vn 1 0 -3.086325E-08
vn 0 0 -1
vn 0 1 0
vn 0 -1 0
vn 0.9954956 0 0.094808
vn -0.9954956 -1.34592E-07 0.09480821
vn 0.0001612907 -0.9999061 0.01370378
vn -0.0001521379 -0.999953 0.006831903
vn -0.0004655666 -0.9999999 -3.997677E-05
vn 0.9486824 0 -0.3162305
vn -0.9486824 0 -0.3162305
vn 6.879414E-05 0.9999587 0.006413056
vn 0.000400771 0.9999174 0.01284836
vn -0.9955486 0 -0.09424973
vn -0.001081817 -0.216358 -0.9507753
vn -0.002163515 -0.4326684 -0.9015505
vn 0.4739226 9.032505E-07 0.8805665
vn 0.4732488 -2.582598E-05 0.8809285
vn 0.472575 -5.255521E-05 0.8812904
vn 4.926047E-05 -0.4708529 0.8822117
vn -0.001104879 -0.2601669 0.9404922
vn -0.002259019 -0.04948099 0.9987725
vn 0.4230332 6.459872E-07 -0.9061142
vn 0.4220249 4.442515E-05 -0.9065835
vn 0.4210166 8.820432E-05 -0.907053
vn -0.001028394 0.2331273 0.9423242
vn -0.002056788 0.4662546 0.8846483
vn -5.281099E-05 0.4196558 -0.9076833
vn -0.001251963 0.1873178 -0.9533332
vn -0.002451115 -0.04502029 -0.9989831
vn -0.9954956 0 -0.09480806
vn 0.09481978 0 -0.9954944
vn -0.09481866 0 0.9954946
vn 0.998873 0 -0.04746332
vn 0.9988701 9.518721E-07 -0.04752267
vn -0.9918139 0.08592445 -0.09445743
vn -0.9922606 0.0003418624 -0.08984908
vn -0.9927074 -0.08524072 -0.08524072
vn -0.9902478 0.1030569 -0.09374763
vn -0.9915888 0.009559609 -0.08884066
vn -0.9929298 -0.08393769 -0.08393368
vn -2.23952E-07 -0.998878 -0.04735637
vn 5.816118E-05 -0.9972067 -0.0708729
vn 0.0001165463 -0.9955354 -0.09438942
vn 0 0.9988781 -0.04735639
vn -5.24405E-05 0.9972067 -0.0708729
vn -0.000104881 0.9955354 -0.09438942

usemtl Concrete025-002
f 17/17/6 20/20/6 18/18/6
f 17/17/6 21/15/6 20/20/6
f 17/17/6 22/16/6 21/15/6
f 20/20/6 19/19/6 18/18/6
f 76/263/1 3/11/1 40/259/1
f 76/263/1 191/262/1 3/11/1
f 3/11/1 191/262/1 4/4/1
f 4/4/1 191/262/1 55/261/1
f 55/261/1 43/260/1 4/4/1
f 14/29/4 46/255/4 57/254/4
f 57/254/4 135/258/4 14/29/4
f 14/29/4 135/258/4 13/34/4
f 13/34/4 135/258/4 67/257/4
f 42/256/4 13/34/4 67/257/4
f 4/4/1 2/2/1 1/1/1
f 1/1/1 3/3/1 4/4/1
f 6/8/2 5/6/2 2/5/2
f 2/5/2 4/7/2 6/8/2
f 3/12/3 1/10/3 7/9/3
f 7/9/3 8/11/3 3/12/3
f 9/13/4 8/8/4 7/6/4
f 7/6/4 10/14/4 9/13/4
f 24/22/4 23/21/4 9/13/4
f 9/13/4 10/14/4 24/22/4
f 5/9/4 6/11/4 23/21/4
f 23/21/4 24/22/4 5/9/4
f 28/24/5 26/19/5 25/20/5
f 25/20/5 27/23/5 28/24/5
f 30/25/5 29/18/5 26/19/5
f 26/19/5 28/24/5 30/25/5
f 24/27/6 21/15/6 22/16/6
f 22/16/6 5/26/6 24/27/6
f 10/23/6 20/20/6 21/15/6
f 21/15/6 24/27/6 10/23/6
f 5/26/6 22/16/6 17/17/6
f 17/17/6 2/28/6 5/26/6
f 2/28/6 17/17/6 18/18/6
f 18/18/6 1/25/6 2/28/6
f 34/26/5 32/16/5 31/17/5
f 31/17/5 33/28/5 34/26/5
f 1/25/6 18/18/6 19/19/6
f 19/19/6 7/24/6 1/25/6
f 36/27/5 35/15/5 32/16/5
f 32/16/5 34/26/5 36/27/5
f 7/24/6 19/19/6 20/20/6
f 20/20/6 10/23/6 7/24/6
f 23/23/5 16/20/5 11/15/5
f 11/15/5 9/27/5 23/23/5
f 38/31/1 11/21/1 12/29/1
f 12/29/1 37/30/1 38/31/1
f 40/33/3 3/12/3 8/11/3
f 8/11/3 39/32/3 40/33/3
f 41/36/2 9/8/2 11/34/2
f 11/34/2 38/35/2 41/36/2
f 39/36/4 8/8/4 9/13/4
f 9/13/4 41/37/4 39/36/4
f 37/35/2 12/34/2 13/29/2
f 13/29/2 42/30/2 37/35/2
f 44/36/2 6/8/2 4/7/2
f 4/7/2 43/38/2 44/36/2
f 46/35/3 14/34/3 15/29/3
f 15/29/3 45/30/3 46/35/3
f 47/31/4 23/21/4 6/11/4
f 6/11/4 44/32/4 47/31/4
f 45/35/1 15/34/1 16/13/1
f 16/13/1 48/37/1 45/35/1
f 48/30/3 16/29/3 23/11/3
f 23/11/3 47/32/3 48/30/3
f 49/39/5 29/18/5 30/25/5
f 30/25/5 50/40/5 49/39/5
f 33/28/5 31/17/5 52/42/5
f 52/42/5 51/41/5 33/28/5
f 54/44/2 44/36/2 43/38/2
f 43/38/2 53/43/2 54/44/2
f 53/48/1 43/46/1 55/45/1
f 55/45/1 56/47/1 53/48/1
f 59/51/4 57/49/4 46/30/4
f 46/30/4 58/50/4 59/51/4
f 58/56/3 46/35/3 45/30/3
f 45/30/3 64/50/3 58/56/3
f 65/58/4 47/31/4 44/32/4
f 44/32/4 54/57/4 65/58/4
f 64/56/1 45/35/1 48/37/1
f 48/37/1 66/59/1 64/56/1
f 66/50/3 48/30/3 47/32/3
f 47/32/3 65/57/3 66/50/3
f 69/56/4 42/35/4 67/60/4
f 67/60/4 68/61/4 69/56/4
f 75/44/2 41/36/2 38/35/2
f 38/35/2 74/56/2 75/44/2
f 78/69/1 76/67/1 40/66/1
f 40/66/1 77/68/1 78/69/1
f 79/56/2 37/35/2 42/30/2
f 42/30/2 69/50/2 79/56/2
f 77/70/3 40/33/3 39/32/3
f 39/32/3 80/57/3 77/70/3
f 74/58/1 38/31/1 37/30/1
f 37/30/1 79/50/1 74/58/1
f 80/44/4 39/36/4 41/37/4
f 41/37/4 75/59/4 80/44/4
f 82/72/2 54/44/2 53/43/2
f 53/43/2 81/71/2 82/72/2
f 81/74/1 53/48/1 56/47/1
f 56/47/1 83/73/1 81/74/1
f 85/76/4 59/51/4 58/50/4
f 58/50/4 84/75/4 85/76/4
f 84/77/3 58/56/3 64/50/3
f 64/50/3 86/75/3 84/77/3
f 87/79/4 65/58/4 54/57/4
f 54/57/4 82/78/4 87/79/4
f 86/77/1 64/56/1 66/59/1
f 66/59/1 88/80/1 86/77/1
f 90/77/4 69/56/4 68/61/4
f 68/61/4 89/81/4 90/77/4
f 92/83/1 78/69/1 77/68/1
f 77/68/1 91/82/1 92/83/1
f 93/77/2 79/56/2 69/50/2
f 69/50/2 90/75/2 93/77/2
f 91/84/3 77/70/3 80/57/3
f 80/57/3 94/78/3 91/84/3
f 95/79/1 74/58/1 79/50/1
f 79/50/1 93/75/1 95/79/1
f 94/72/4 80/44/4 75/59/4
f 75/59/4 96/80/4 94/72/4
f 65/27/6 75/23/6 74/20/6
f 74/20/6 66/15/6 65/27/6
f 66/59/1 74/58/1 95/79/1
f 95/79/1 88/80/1 66/59/1
f 87/79/4 96/80/4 75/59/4
f 75/59/4 65/58/4 87/79/4
f 25/20/5 35/15/5 36/27/5
f 36/27/5 27/23/5 25/20/5
f 56/47/1 78/69/1 92/83/1
f 92/83/1 83/73/1 56/47/1
f 85/76/4 89/81/4 68/61/4
f 68/61/4 59/51/4 85/76/4
f 50/40/5 51/41/5 52/42/5
f 52/42/5 49/39/5 50/40/5
f 102/92/2 100/90/2 99/89/2
f 99/89/2 101/91/2 102/92/2
f 104/94/1 92/83/1 91/82/1
f 91/82/1 103/93/1 104/94/1
f 106/96/4 96/80/4 87/79/4
f 87/79/4 105/95/4 106/96/4
f 103/98/3 91/84/3 94/78/3
f 94/78/3 107/97/3 103/98/3
f 109/95/1 108/79/1 100/89/1
f 100/89/1 102/91/1 109/95/1
f 107/99/4 94/72/4 96/80/4
f 96/80/4 106/96/4 107/99/4
f 111/96/1 110/80/1 108/79/1
f 108/79/1 109/95/1 111/96/1
f 113/101/1 81/74/1 83/73/1
f 83/73/1 112/100/1 113/101/1
f 115/92/1 114/90/1 110/80/1
f 110/80/1 111/96/1 115/92/1
f 105/95/4 87/79/4 82/78/4
f 82/78/4 116/97/4 105/95/4
f 118/92/3 117/90/3 114/89/3
f 114/89/3 115/91/3 118/92/3
f 116/99/2 82/72/2 81/71/2
f 81/71/2 113/102/2 116/99/2
f 120/103/4 119/76/4 117/89/4
f 117/89/4 118/91/4 120/103/4
f 101/92/4 99/90/4 121/81/4
f 121/81/4 122/104/4 101/92/4
f 122/104/4 121/81/4 119/76/4
f 119/76/4 120/103/4 122/104/4
f 112/100/1 83/73/1 92/83/1
f 92/83/1 104/94/1 112/100/1
f 108/106/6 95/20/6 93/19/6
f 93/19/6 100/105/6 108/106/6
f 124/108/5 31/17/5 32/16/5
f 32/16/5 123/107/5 124/108/5
f 123/107/5 32/16/5 35/15/5
f 35/15/5 125/109/5 123/107/5
f 110/109/6 88/15/6 95/20/6
f 95/20/6 108/106/6 110/109/6
f 125/109/5 35/15/5 25/20/5
f 25/20/5 126/106/5 125/109/5
f 114/107/6 86/16/6 88/15/6
f 88/15/6 110/109/6 114/107/6
f 126/106/5 25/20/5 26/19/5
f 26/19/5 127/105/5 126/106/5
f 117/108/6 84/17/6 86/16/6
f 86/16/6 114/107/6 117/108/6
f 127/105/5 26/19/5 29/18/5
f 29/18/5 128/110/5 127/105/5
f 119/111/6 85/42/6 84/17/6
f 84/17/6 117/108/6 119/111/6
f 128/110/5 29/18/5 49/39/5
f 49/39/5 129/112/5 128/110/5
f 121/112/6 89/39/6 85/42/6
f 85/42/6 119/111/6 121/112/6
f 129/112/5 49/39/5 52/42/5
f 52/42/5 130/111/5 129/112/5
f 99/110/6 90/18/6 89/39/6
f 89/39/6 121/112/6 99/110/6
f 130/111/5 52/42/5 31/17/5
f 31/17/5 124/108/5 130/111/5
f 100/105/6 93/19/6 90/18/6
f 90/18/6 99/110/6 100/105/6
f 50/114/1 112/100/1 104/94/1
f 104/94/1 51/113/1 50/114/1
f 51/113/1 104/94/1 103/93/1
f 103/93/1 33/115/1 51/113/1
f 124/117/4 101/92/4 122/104/4
f 122/104/4 130/116/4 124/117/4
f 27/119/4 105/95/4 116/97/4
f 116/97/4 28/118/4 27/119/4
f 129/121/4 120/103/4 118/91/4
f 118/91/4 128/120/4 129/121/4
f 28/123/2 116/99/2 113/102/2
f 113/102/2 30/122/2 28/123/2
f 30/124/1 113/101/1 112/100/1
f 112/100/1 50/114/1 30/124/1
f 34/123/4 107/99/4 106/96/4
f 106/96/4 36/125/4 34/123/4
f 36/125/4 106/96/4 105/95/4
f 105/95/4 27/119/4 36/125/4
f 33/126/3 103/98/3 107/97/3
f 107/97/3 34/118/3 33/126/3
f 101/110/6 118/108/6 115/107/6
f 115/107/6 102/105/6 101/110/6
f 102/92/4 115/91/4 127/120/4
f 127/120/4 123/117/4 102/92/4
f 124/120/1 128/117/1 118/92/1
f 118/92/1 101/91/1 124/120/1
f 123/107/5 127/105/5 128/110/5
f 128/110/5 124/108/5 123/107/5
f 139/148/6 55/146/6 57/145/6
f 57/145/6 138/147/6 139/148/6
f 143/152/4 141/150/4 140/149/4
f 140/149/4 142/151/4 143/152/4
f 144/156/1 56/154/1 55/153/1
f 55/153/1 139/155/1 144/156/1
f 145/160/5 59/158/5 56/157/5
f 56/157/5 144/159/5 145/160/5
f 141/162/2 57/30/2 59/50/2
f 59/50/2 140/161/2 141/162/2
f 142/164/3 145/56/3 138/35/3
f 138/35/3 143/163/3 142/164/3
f 147/168/1 138/166/1 57/165/1
f 57/165/1 146/167/1 147/168/1
f 146/170/2 57/30/2 141/162/2
f 141/162/2 148/169/2 146/170/2
f 149/172/3 143/163/3 138/35/3
f 138/35/3 147/171/3 149/172/3
f 148/174/4 141/150/4 143/152/4
f 143/152/4 149/173/4 148/174/4
f 151/178/1 59/176/1 145/175/1
f 145/175/1 150/177/1 151/178/1
f 150/180/3 145/56/3 142/164/3
f 142/164/3 152/179/3 150/180/3
f 153/182/2 140/161/2 59/50/2
f 59/50/2 151/181/2 153/182/2
f 157/185/4 155/183/4 154/51/4
f 154/51/4 156/184/4 157/185/4
f 159/187/1 151/178/1 150/177/1
f 150/177/1 158/186/1 159/187/1
f 158/189/3 150/180/3 152/179/3
f 152/179/3 160/188/3 158/189/3
f 161/191/2 153/182/2 151/181/2
f 151/181/2 159/190/2 161/191/2
f 163/193/4 157/185/4 156/184/4
f 156/184/4 162/192/4 163/193/4
f 165/197/6 142/195/6 140/194/6
f 140/194/6 164/196/6 165/197/6
f 164/199/2 140/161/2 153/182/2
f 153/182/2 166/198/2 164/199/2
f 167/201/3 152/179/3 142/164/3
f 142/164/3 165/200/3 167/201/3
f 166/198/2 153/182/2 161/191/2
f 161/191/2 168/202/2 166/198/2
f 169/203/3 160/188/3 152/179/3
f 152/179/3 167/201/3 169/203/3
f 168/207/5 161/205/5 160/204/5
f 160/204/5 169/206/5 168/207/5
f 171/209/2 164/199/2 166/198/2
f 166/198/2 170/208/2 171/209/2
f 173/211/3 167/201/3 165/200/3
f 165/200/3 172/210/3 173/211/3
f 170/208/2 166/198/2 168/202/2
f 168/202/2 174/212/2 170/208/2
f 175/213/3 169/203/3 167/201/3
f 167/201/3 173/211/3 175/213/3
f 174/215/5 168/207/5 169/206/5
f 169/206/5 175/214/5 174/215/5
f 177/219/1 165/217/1 164/216/1
f 164/216/1 176/218/1 177/219/1
f 176/221/2 164/199/2 171/209/2
f 171/209/2 178/220/2 176/221/2
f 179/223/3 172/210/3 165/200/3
f 165/200/3 177/222/3 179/223/3
f 181/225/4 154/51/4 155/183/4
f 155/183/4 180/224/4 181/225/4
f 155/227/3 172/210/3 179/223/3
f 179/223/3 180/226/3 155/227/3
f 157/228/3 173/211/3 172/210/3
f 172/210/3 155/227/3 157/228/3
f 180/232/6 179/230/6 178/229/6
f 178/229/6 181/231/6 180/232/6
f 163/233/3 175/213/3 173/211/3
f 173/211/3 157/228/3 163/233/3
f 162/235/5 174/215/5 175/214/5
f 175/214/5 163/234/5 162/235/5
f 183/56/1 171/237/1 170/236/1
f 170/236/1 182/180/1 183/56/1
f 185/190/4 162/192/4 156/184/4
f 156/184/4 184/181/4 185/190/4
f 187/239/6 181/231/6 178/229/6
f 178/229/6 186/238/6 187/239/6
f 184/181/4 156/184/4 154/51/4
f 154/51/4 188/50/4 184/181/4
f 186/171/1 178/240/1 171/237/1
f 171/237/1 183/56/1 186/171/1
f 188/50/4 154/51/4 181/225/4
f 181/225/4 187/170/4 188/50/4
f 182/180/1 170/236/1 174/241/1
f 174/241/1 189/189/1 182/180/1
f 189/243/5 174/215/5 162/235/5
f 162/235/5 185/242/5 189/243/5
f 191/245/6 139/148/6 138/147/6
f 138/147/6 190/244/6 191/245/6
f 190/248/4 138/246/4 145/183/4
f 145/183/4 192/247/4 190/248/4
f 193/251/1 144/250/1 139/249/1
f 139/249/1 191/138/1 193/251/1
f 192/253/5 145/160/5 144/159/5
f 144/159/5 193/252/5 192/253/5
f 191/252/5 135/127/5 57/158/5
f 57/158/5 55/157/5 191/252/5
f 197/271/16 135/269/16 191/268/16
f 191/268/16 196/270/16 197/271/16
f 207/297/33 56/295/33 59/294/33
f 59/294/33 206/296/33 207/297/33
f 209/299/6 191/245/6 190/244/6
f 190/244/6 208/298/6 209/299/6
f 215/309/5 192/253/5 193/252/5
f 193/252/5 214/308/5 215/309/5

usemtl Glass-02
f 134/130/5 133/129/5 132/128/5 131/127/5
f 131/132/4 132/133/4 67/60/4 135/131/4
f 132/136/12 133/137/12 136/135/12 67/134/12
f 133/139/1 134/140/1 137/138/1 136/67/1
f 134/143/13 131/144/13 135/142/13 137/141/13

usemtl Floor
f 13/17/5 12/16/5 11/15/5
f 16/20/5 15/19/5 14/18/5
f 11/15/5 16/20/5 14/18/5
f 13/17/5 11/15/5 14/18/5

usemtl Metal027
f 62/54/7 63/55/7 61/53/7 60/52/7
f 72/64/8 73/65/8 71/63/8 70/62/8
f 97/87/10 98/88/11 73/86/10 72/85/9
f 70/266/15 71/265/14 194/264/5 195/267/14
f 194/273/17 71/274/18 199/272/17 198/131/4
f 72/277/20 70/278/21 201/276/20 200/275/19
f 70/281/23 195/282/24 202/280/23 201/279/22
f 71/285/26 73/286/27 203/284/26 199/283/25
f 97/288/28 72/289/29 200/287/28 204/47/1
f 73/292/31 98/293/32 205/291/31 203/290/30
f 62/302/34 60/303/34 211/301/34 210/300/34
f 61/306/35 63/307/35 213/305/35 212/304/35
f 60/310/6 61/311/6 209/299/6 208/298/6
f 210/314/33 211/315/33 190/313/33 192/312/33
f 63/316/5 62/317/5 215/309/5 214/308/5
f 212/320/33 213/321/33 193/319/33 191/318/33
f 61/311/6 212/322/6 191/245/6 209/299/6
f 213/323/5 63/316/5 214/308/5 193/252/5
f 62/317/5 210/324/5 192/253/5 215/309/5
f 211/325/6 60/310/6 208/298/6 190/244/6
f 200/328/37 201/329/37 76/327/37 78/326/36
f 204/331/5 200/332/5 78/330/5 56/157/5
f 198/335/6 199/336/6 67/334/6 135/333/6
f 98/339/39 97/340/40 207/338/39 206/337/38
f 195/343/42 194/344/43 197/342/42 196/341/41
f 201/347/45 202/348/46 191/346/45 76/345/44
f 97/350/2 204/351/2 56/43/2 207/349/2
f 202/354/2 195/355/2 196/353/2 191/352/2
f 199/358/37 203/359/37 68/357/37 67/356/36
f 203/362/48 205/363/49 59/361/48 68/360/47
f 194/365/2 198/366/2 135/30/2 197/364/2
f 205/368/2 98/369/2 206/367/2 59/50/2

