# ProBuilder 5.0.4
# https://unity3d.com/unity/features/worldbuilding/probuilder
# 6/30/2022 12:27:07 AM

mtllib ./Foundation-Standard-Marksman-Rifle-Mag.mtl
o Foundation-Standard-Marksman-Rifle-Mag

g Foundation-Standard-Marksman-Rifle-Mag
v 1.160357 0.3751 -0.1833329
v 1.160357 0.3751 0.1833334
v -1.089643 0.3751 0.1833334
v -1.089643 0.3751 -0.1833329
v -0.8396435 -0.3751 -0.1833329
v 0.9103565 -0.3751 -0.1833329
v -1.089643 0.275 -0.1833329
v 1.160357 0.275 -0.1833329
v 0.9103565 -0.3751 0.1833334
v 1.160357 0.275 0.1833334
v -0.8396435 -0.3751 0.1833334
v -1.089643 0.275 0.1833334
v -1.160355 0.275 -0.2540436
v 1.160357 0.275 -0.2833328
v -1.160355 0.3251 -0.2540436
v 1.160357 0.3251 -0.2833328
v -1.160355 0.275 0.2540441
v -1.160355 0.3251 0.2540441
v 1.160357 0.275 0.2833333
v 1.160357 0.3251 0.2833333

vt 0 0.0430903
vt 0 0.2010877
vt 0.9695304 0.2010877
vt 0.9695304 0.0430903
vt 0.8618048 1.027351E-07
vt 0.1077256 1.027351E-07
vt 0.9695304 0.2801298
vt 0 0.2801298
vt 0.2010876 1.027351E-07
vt 0.0430902 1.027351E-07
vt 0.2010876 0.2801296
vt 0.0430902 0.2801296
vt 0.1884668 0
vt 0.03046939 0
vt 0.1884668 0.2801296
vt 0.03046939 0.2801296
vt 0.8922744 1.027351E-07
vt 0.1381952 1.027351E-07
vt 1 0.2801298
vt 1 0.3017179
vt 0 0.3017179
vt 0.2010876 0.323263
vt 0.0430902 0.323263
vt 0.2189362 0.2801298
vt 0.2189362 0.3017179
vt 0.0304696 0.0430903
vt 1 0.0430903
vt 0 0.01262091
vt 1 1.027351E-07
vt 1 0.01262091
vt 1 0.2315571
vt 0.2441778 0.2801298
vt 0.2441778 0.3017179
vt 0 1.043404E-07
vt 1 0.01009675
vt 0.0304696 0.2010877
vt 0 0.2315571
vt 1 0.2348537
vt 0 0.2441779
vt 1 0.2010877
vt 1 0.2441779

vn 0 1 0
vn 0 0 -1
vn 0.9333641 -0.358931 0
vn -0.9333641 -0.358931 0
vn 0 0 1
vn -0.0126198 0 -0.9999204
vn 1 0 0
vn -1 0 0
vn -0.0126198 0 0.9999204
vn 0 -1 0
vn -0.5773475 0.8164986 0
vn 0 0.8944272 -0.4472136
vn -0.003612755 0.8571473 -0.5098608
vn -0.007225511 0.8198674 -0.5725079
vn 0 0.8164968 0.57735
vn -0.002822053 0.8554549 0.5122783
vn -0.005644106 0.8944129 0.4472065

usemtl Default
f 3/3/1 2/2/1 1/1/1 4/4/1
f 7/7/2 8/8/2 6/6/2 5/5/2
f 8/11/3 10/12/3 9/10/3 6/9/3
f 12/15/4 7/16/4 5/14/4 11/13/4
f 10/19/5 12/16/5 11/18/5 9/17/5
f 15/20/6 16/21/6 14/8/6 13/19/6
f 1/22/7 2/23/7 10/12/7 8/11/7
f 18/25/8 15/21/8 13/8/8 17/24/8
f 20/20/9 18/21/9 17/8/9 19/19/9
f 13/28/10 14/29/10 8/27/10 7/26/10
f 15/30/11 18/31/11 3/3/11 4/4/11
f 14/32/7 16/33/7 1/22/7 8/11/7
f 16/34/13 15/35/14 4/4/13 1/1/12
f 17/37/10 13/28/10 7/26/10 12/36/10
f 18/38/16 20/39/17 2/2/16 3/3/15
f 19/41/10 17/37/10 12/36/10 10/40/10
f 20/21/7 19/8/7 10/12/7 2/23/7

