# ProBuilder 5.0.4
# https://unity3d.com/unity/features/worldbuilding/probuilder
# 6/23/2022 11:22:36 PM

mtllib ./WallSocket.mtl
o WallSocket

g WallSocket
v 0.25 -0.25 0.025
v -0.25 -0.25 0.025
v 0.25 0.25 0.025
v -0.25 0.25 0.025
v -0.25 -0.25 -0.025
v 0.25 -0.25 -0.025
v -0.25 0.25 -0.025
v 0.25 0.25 -0.025
v -0.2641421 -0.2641421 0.025
v 0.2641421 -0.2641421 0.025
v -0.2641421 0.2641421 0.025
v -0.2641421 -0.2641421 -0.025
v -0.2641421 0.2641421 -0.025
v 0.2641421 0.2641421 -0.025
v 0.2641421 -0.2641421 -0.025
v 0.2641421 0.2641421 0.025
v -0.264143 -0.2641421 0.009994507
v -0.264143 0.2641422 0.009994507
v 0.264143 -0.2641421 0.009994507
v 0.264143 0.2641422 0.009994507

vt 0.973227 0.02676983
vt 0.02676983 0.02676983
vt 0.973227 0.973227
vt 0.02676983 0.973227
vt 0 0
vt 0.9999967 0
vt 0 0.9999967
vt 0.9999967 0.9999967
vt 0.09464571 0
vt 0.06624159 0
vt 0.06624159 0.9999968
vt 0.09464571 0.9999967
vt 0.02840411 0
vt 0.02840411 0.9999968
vt 1.635984E-06 0.09464571
vt 0.9999984 0.09464571
vt 1 0.06624159
vt 0 0.06624159

vn 0 0 1
vn 0 0 -1
vn -0.4082404 -0.4082404 0.8165045
vn 0.4082404 -0.4082404 0.8165045
vn -0.4082402 0.4082402 0.8165047
vn 0.4082402 0.4082402 0.8165047
vn -0.7071068 -0.7071068 1.163173E-05
vn -0.7071068 0.7071068 1.203282E-05
vn 0.7071068 -0.7071068 -1.746358E-05
vn 0.7071068 0.7071068 1.203282E-05

usemtl Plastic010_-_1
f 7/3/2 8/4/2 6/2/2 5/1/2
f 9/5/3 10/6/4 1/1/1 2/2/1
f 11/7/5 9/5/3 2/2/1 4/4/1
f 12/6/2 13/8/2 7/3/2 5/1/2
f 13/8/2 14/7/2 8/4/2 7/3/2
f 15/5/2 12/6/2 5/1/2 6/2/2
f 14/7/2 15/5/2 6/2/2 8/4/2
f 10/6/4 16/8/6 3/3/1 1/1/1
f 16/8/6 11/7/5 4/4/1 3/3/1
f 11/12/5 18/11/8 17/10/7 9/9/3
f 18/11/8 13/7/8 12/5/7 17/10/7
f 15/9/9 14/12/10 20/14/10 19/13/9
f 19/13/9 20/14/10 16/7/6 10/5/4
f 11/16/5 16/15/6 20/18/10 18/17/8
f 18/17/8 20/18/10 14/5/10 13/6/8
f 15/6/9 19/17/9 17/18/7 12/5/7
f 19/17/9 10/16/4 9/15/3 17/18/7

usemtl WallSocket-Type-0
f 3/3/1 4/4/1 2/2/1 1/1/1

