# ProBuilder 5.0.4
# https://unity3d.com/unity/features/worldbuilding/probuilder
# 7/9/2022 7:57:35 PM

mtllib ./Foundation-Standard-Sniper-Series-Mag-7-Scope.mtl
o Foundation-Standard-Sniper-Series-Mag-7-Scope

g Foundation-Standard-Sniper-Series-Mag-7-Scope
v 0.3000002 1.5 -0.0999999
v -0.3000002 1.5 -0.0999999
v 0.3000002 1.6001 -0.0999999
v -0.3000002 1.6001 -0.0999999
v 0.4000002 1.5 -0.5000005
v 0.4000002 1.5 -0.0999999
v 0.4000002 1.6001 -0.5000005
v 0.4000002 1.6001 -0.0999999
v -0.4000002 1.5 -0.0999999
v -0.4000002 1.5 -0.5000005
v -0.4000002 1.6001 -0.0999999
v -0.4000002 1.6001 -0.5000005
v -0.3000002 1.5 -2.900001
v 0.3000002 1.5 -2.900001
v -0.3000002 1.6001 -2.900001
v 0.3000002 1.6001 -2.900001
v -0.500001 0.6998999 -0.0999999
v -0.500001 0.6998999 -0.5000005
v -0.6000013 0.6998999 -0.0999999
v -0.6000013 0.6998999 -0.5000005
v -0.3000002 1.5 -0.5000005
v -0.3000002 1.6001 -0.5000005
v 0.5 0.6998999 -0.5000005
v 0.5 0.6998999 -0.0999999
v 0.5999999 0.6998999 -0.5000005
v 0.5999999 0.6998999 -0.0999999
v 0.3000002 1.6001 -0.5000005
v 0.3000002 1.5 -0.5000005
v -0.3000002 1.5 -2.5
v 0.3000002 1.5 -2.5
v -0.3000002 1.6001 -2.5
v 0.3000002 1.6001 -2.5
v -0.4000002 1.6001 -2.5
v -0.4000002 1.5 -2.5
v -0.4000002 1.6001 -2.900001
v -0.4000002 1.5 -2.900001
v 0.4000002 1.5 -2.5
v 0.4000002 1.6001 -2.5
v 0.4000002 1.5 -2.900001
v 0.4000002 1.6001 -2.900001
v -0.500001 0.6999 -2.5
v -0.500001 0.6999 -2.900001
v -0.6000013 0.6999 -2.5
v -0.6000013 0.6999 -2.900001
v 0.5 0.6999 -2.900001
v 0.5 0.6999 -2.5
v 0.5999999 0.6999 -2.900001
v 0.5999999 0.6999 -2.5
v 0.1000001 1.6001 -2.5
v -0.1000001 1.6001 -2.5
v -0.1000001 1.6001 -0.5000005
v 0.1000001 1.6001 -0.5000005
v -0.1000003 1.8002 -2.5
v 0.1000005 1.8002 -2.5
v 0.1000005 1.8002 -0.5000005
v -0.1000003 1.8002 -0.5000005
v -0.1000004 1.7002 -2.5
v 0.1000004 1.7002 -2.5
v -0.1000004 1.7002 -0.5000005
v 0.1000004 1.7002 -0.5000005
v -0.1000004 1.7002 -3.000101
v 0.1000004 1.7002 -3.000101
v -0.1000004 1.8002 -3.000101
v 0.1000004 1.8002 -3.000101
v -1 1.700201 -0.5000005
v -1 1.700201 -2.5
v -1.1 1.800201 -0.5000005
v -1.1 1.800201 -2.5
v 1 1.700199 -2.5
v 1 1.700199 -0.5000005
v 1.1 1.800199 -2.5
v 1.1 1.800199 -0.5000005
v 0.1000004 1.7002 9.942055E-05
v -0.1000004 1.7002 9.942055E-05
v 0.1000004 1.8002 9.942055E-05
v -0.1000004 1.8002 9.942055E-05
v -0.9000004 1.700201 -0.5000005
v -0.9000004 1.700201 -2.5
v -1.000001 1.800201 9.942055E-05
v -0.9000006 1.700201 9.942055E-05
v -0.9000006 1.700201 -3.000101
v -1.000001 1.800201 -3.000101
v -1.000001 1.800201 -2.5
v -1.000001 1.800201 -0.5000005
v 0.9000004 1.700199 -2.5
v 0.9000004 1.700199 -0.5000005
v 1 1.800199 -3.000101
v 0.9000006 1.700199 -3.000101
v 0.9000006 1.700199 9.942055E-05
v 1 1.800199 9.942055E-05
v 1 1.800199 -0.5000005
v 1 1.800199 -2.5
v -1.1 1.800201 9.942055E-05
v -1 1.700201 9.942055E-05
v -1 1.700201 -3.000101
v -1.1 1.800201 -3.000101
v -0.8999993 2.500201 -2.5
v -0.8999993 2.500201 -0.5000004
v -0.9999993 2.500201 -2.5
v -0.9999993 2.500201 -0.5000004
v 1.1 1.800199 -3.000101
v 1 1.700199 -3.000101
v 1 1.700199 9.942055E-05
v 1.1 1.800199 9.942055E-05
v 0.9000015 2.500199 -0.5000005
v 0.9000015 2.500199 -2.5
v 1.000001 2.500199 -0.5000005
v 1.000001 2.500199 -2.5
v -1 2.400201 -2.5
v -1 2.400201 -0.5000005
v -1.099999 2.400201 -3.000101
v -1 2.400201 -3.000101
v -1 2.400201 0.2000995
v -1.099999 2.400201 0.2000995
v -1.099999 2.400201 -0.5000005
v -1.099999 2.400201 -2.5
v 1.000001 2.400199 -0.5000005
v 1.000001 2.400199 -2.5
v 1.100001 2.400199 0.2000995
v 1.000001 2.400199 0.2000995
v 1.000001 2.400199 -3.000101
v 1.100001 2.400199 -3.000101
v 1.100001 2.400199 -2.5
v 1.100001 2.400199 -0.5000005
v -0.999999 2.500201 -3.000101
v -0.8999996 2.500201 -3.000101
v -0.8999996 2.500201 0.2000997
v -0.999999 2.500201 0.2000997
v 1.000001 2.500199 0.2000995
v 0.9000015 2.500199 0.2000995
v 0.9000015 2.500199 -3.000101
v 1.000001 2.500199 -3.000101

vt 0.8374977 0.9437473
vt 0.7625024 0.9437473
vt 0.8374977 0.956259
vt 0.7625024 0.956259
vt 0.07500793 0.3885655
vt 0.02501099 0.3885655
vt 0.07500793 0.4010174
vt 0.02501099 0.4010174
vt 0.3749892 0.3872472
vt 0.3249922 0.3872472
vt 0.3749892 0.3993274
vt 0.3249922 0.3993274
vt 0.9062496 0.9249984
vt 0.9062496 0.8750015
vt 0.8937504 0.9249984
vt 0.8937504 0.8750015
vt 0.7500032 0.956259
vt 0.7500032 0.9437473
vt 0.8499969 0.9437473
vt 0.8499969 0.956259
vt 0.9249921 0.3625022
vt 0.9749891 0.3625022
vt 0.9249921 0.350003
vt 0.9749891 0.350003
vt 0.9749891 0.4374977
vt 0.9249921 0.4374978
vt 0.9749891 0.449997
vt 0.9249921 0.449997
vt 0.8750015 0.1500031
vt 0.9249985 0.1500031
vt 0.8750015 0.04999688
vt 0.9249985 0.04999688
vt 0.7250047 0.8437411
vt 0.7375039 0.8437411
vt 0.8624961 0.8437411
vt 0.8749954 0.8437411
vt 0.02501099 0.2865952
vt 0.07500793 0.2865952
vt 0.3249922 0.2883208
vt 0.3749892 0.2883208
vt 0.9249921 0.7374976
vt 0.9249921 0.6625023
vt 0.6750078 0.7374976
vt 0.6750078 0.6625023
vt 0.3249922 0.4005122
vt 0.3249922 0.388432
vt 0.07500774 0.4005122
vt 0.07500774 0.388432
vt 0.07500793 0.3897868
vt 0.07500793 0.4022386
vt 0.3249923 0.3897868
vt 0.3249923 0.4022386
vt 0.625011 0.7374976
vt 0.625011 0.6625023
vt 0.07500774 0.3993274
vt 0.07500774 0.3872472
vt 0.02501082 0.3993274
vt 0.02501082 0.3872472
vt 0.3249923 0.3885655
vt 0.3249923 0.4010174
vt 0.3749892 0.3885655
vt 0.3749892 0.4010174
vt 0.6250108 0.3625023
vt 0.6750077 0.3625022
vt 0.6250108 0.350003
vt 0.6750077 0.350003
vt 0.6750077 0.4374978
vt 0.6250108 0.4374978
vt 0.6750077 0.449997
vt 0.6250108 0.449997
vt 0.02501082 0.2883209
vt 0.07500774 0.2883209
vt 0.3249923 0.2865953
vt 0.3749892 0.2865953
vt 0.6750077 0.4124992
vt 0.6750077 0.3875008
vt 0.9249921 0.3875008
vt 0.9249921 0.4124992
vt 0.2124992 0.6750078
vt 0.1875007 0.6750078
vt 0.1875007 0.9249922
vt 0.2124992 0.9249922
vt 0.4499907 0.412518
vt 0.4249922 0.412518
vt 0.4499907 0.4250297
vt 0.4249922 0.4250296
vt 0.7249922 0.2937441
vt 0.4750079 0.2937441
vt 0.7249922 0.3062558
vt 0.4750079 0.3062559
vt 0.4499907 0.4375289
vt 0.4249922 0.4375289
vt 0.812493 0.1500031
vt 0.5625086 0.1500032
vt 0.812493 0.1625023
vt 0.5625086 0.1625023
vt 0.4625005 0.9249923
vt 0.4625005 0.6750078
vt 0.3625068 0.9249923
vt 0.3625068 0.6750078
vt 0.3124991 0.437529
vt 0.3249984 0.4250298
vt 0.5499846 0.4250298
vt 0.5624838 0.437529
vt 0.3249923 0.6750078
vt 0.3249923 0.9249922
vt 0.487499 0.6750078
vt 0.487499 0.9249923
vt 0.5874928 0.6750078
vt 0.5874928 0.9249923
vt 0.07500774 0.9249922
vt 0.07500774 0.6750078
vt 0.3500075 0.9249923
vt 0.3500075 0.6750078
vt 0.3 0.437529
vt 0.3124992 0.4250298
vt 0.5624837 0.4250298
vt 0.5749829 0.4375291
vt 0.08250888 0.03251785
vt 0.3324932 0.03251785
vt 0.08250888 0.02001867
vt 0.3324932 0.02001867
vt 0.599992 0.6750078
vt 0.599992 0.9249923
vt 0.3324932 0.2575039
vt 0.08250888 0.2575039
vt 0.3324932 0.2700031
vt 0.08250888 0.2700031
vt 0.9374914 0.5625024
vt 0.687507 0.5625024
vt 0.9374914 0.6374977
vt 0.687507 0.6374977
vt 0.5749829 0.5125243
vt 0.5624837 0.5125242
vt 0.3124992 0.5125243
vt 0.3000001 0.5125243
vt 0.812493 0.2374976
vt 0.5625086 0.2374976
vt 0.2999999 0.512524
vt 0.5624836 0.5250235
vt 0.5499845 0.5250235
vt 0.3249985 0.5250235
vt 0.3124993 0.5250235
vt 0.812493 0.2499968
vt 0.5625086 0.2499968
vt 0.07500768 0.6525194
vt 0.07500768 0.9025038
vt 0.3249922 0.6525194
vt 0.3249922 0.9025038
vt 0.3249923 0.9875008
vt 0.2124993 0.9875008
vt 0.5874928 0.9875008
vt 0.487499 0.9875008
vt 0.1875007 0.9875008
vt 0.07500774 0.9875008
vt 0.599992 0.9875008
vt 0.4625005 0.9875008
vt 0.3625067 0.9875008
vt 0.6 0.6374977
vt 0.6249985 0.5625024
vt 0.3500076 0.9875008
vt 0.8750015 0.1625023
vt 0.9 0.2374976
vt 0.3249922 0.8975039
vt 0.07500775 0.8975039
vt 0.3249922 0.9850109
vt 0.07500775 0.9850109
vt 0.9 0.2499968
vt 0.4200003 0.0200187
vt 0.4200003 0.03251782
vt 0.4200003 0.2575039
vt 0.4200003 0.2700031
vt 0.4625005 0.6124992
vt 0.487499 0.6124992
vt 0.3625067 0.6124992
vt 0.07500774 0.6124992
vt 0.1875007 0.6124992
vt 0.2124993 0.6124992
vt 0.5874928 0.6124992
vt 1 0.6374961
vt 1 0.5625008
vt 0.599992 0.6124992
vt 0.5 0.1500031
vt 0.5 0.1625023
vt 0.5 0.2374976
vt 0.5 0.2499968
vt 0.02000026 0.2700031
vt 0.02000026 0.2575039
vt 0.02000026 0.03251785
vt 0.02000026 0.0200187
vt 0.07500775 0.6475195
vt 0.3249922 0.6475195
vt 0.07500775 0.5850108
vt 0.3249922 0.5850108
vt 0.3500076 0.6124992
vt 0.3249923 0.6124992
vt -5.960464E-08 0.6499994
vt -0.9999996 0.6500003
vt -1 0.3500006
vt -0.5500001 0.35
vt -0.4499999 0.3500001
vt -2.980232E-07 0.3499997
vt -4.172325E-07 0.3000007
vt -0.9999999 0.2999997
vt -0.9999997 0
vt -0.5500001 4.172325E-07
vt -0.4499999 5.364418E-07
vt 5.960464E-08 9.536743E-07
vt 0.9749891 0.6625023
vt 0.9749891 0.7374976

vn 0 0 1
vn 1 0 0
vn -1 0 0
vn 0 0 -1
vn 0 -1 0
vn 0 1 0
vn -0.9701497 -0.2425068 0
vn 0.9701497 0.2425068 0
vn 0.9701494 -0.2425079 0
vn -0.9701493 0.2425084 0
vn -0.7071068 -0.7071068 -8.42937E-08
vn 0.7071068 -0.7071068 8.42937E-08
vn 0 -0.3162279 0.9486833
vn -0.7071059 0.7071076 1.685876E-07
vn 0.7071084 0.7071051 0

usemtl Default
f 51/77/6 22/21/6 4/22/6
f 3/25/6 27/26/6 52/78/6
f 3/25/6 52/78/6 51/77/6
f 4/22/6 3/25/6 51/77/6
f 50/76/6 15/63/6 31/64/6
f 50/76/6 49/75/6 15/63/6
f 15/63/6 49/75/6 16/68/6
f 49/75/6 32/67/6 16/68/6
f 4/4/1 2/2/1 1/1/1
f 1/1/1 3/3/1 4/4/1
f 8/8/2 6/6/2 5/5/2
f 5/5/2 7/7/2 8/8/2
f 12/12/3 10/10/3 9/9/3
f 9/9/3 11/11/3 12/12/3
f 16/4/4 14/2/4 13/1/4
f 13/1/4 15/3/4 16/4/4
f 20/16/5 18/14/5 17/13/5
f 17/13/5 19/15/5 20/16/5
f 9/18/1 2/2/1 4/4/1
f 4/4/1 11/17/1 9/18/1
f 12/20/4 22/3/4 21/1/4
f 21/1/4 10/19/4 12/20/4
f 11/24/6 4/22/6 22/21/6
f 22/21/6 12/23/6 11/24/6
f 26/13/5 24/15/5 23/16/5
f 23/16/5 25/14/5 26/13/5
f 5/18/4 28/2/4 27/4/4
f 27/4/4 7/17/4 5/18/4
f 8/20/1 3/3/1 1/1/1
f 1/1/1 6/19/1 8/20/1
f 7/28/6 27/26/6 3/25/6
f 3/25/6 8/27/6 7/28/6
f 24/32/7 1/30/7 28/29/7
f 28/29/7 23/31/7 24/32/7
f 23/34/4 28/2/4 5/18/4
f 5/18/4 25/33/4 23/34/4
f 26/36/1 6/19/1 1/1/1
f 1/1/1 24/35/1 26/36/1
f 25/38/8 5/5/8 6/6/8
f 6/6/8 26/37/8 25/38/8
f 18/32/9 21/30/9 2/29/9
f 2/29/9 17/31/9 18/32/9
f 17/34/1 2/2/1 9/18/1
f 9/18/1 19/33/1 17/34/1
f 20/36/4 10/19/4 21/1/4
f 21/1/4 18/35/4 20/36/4
f 19/40/10 9/9/10 10/10/10
f 10/10/10 20/39/10 19/40/10
f 30/44/5 28/42/5 21/41/5
f 21/41/5 29/43/5 30/44/5
f 29/48/3 21/46/3 22/45/3
f 22/45/3 31/47/3 29/48/3
f 32/52/2 27/50/2 28/49/2
f 28/49/2 30/51/2 32/52/2
f 14/54/5 30/44/5 29/43/5
f 29/43/5 13/53/5 14/54/5
f 36/58/3 34/56/3 33/55/3
f 33/55/3 35/57/3 36/58/3
f 40/62/2 38/60/2 37/59/2
f 37/59/2 39/61/2 40/62/2
f 34/18/1 29/2/1 31/4/1
f 31/4/1 33/17/1 34/18/1
f 33/66/6 31/64/6 15/63/6
f 15/63/6 35/65/6 33/66/6
f 44/16/5 42/14/5 41/13/5
f 41/13/5 43/15/5 44/16/5
f 35/20/4 15/3/4 13/1/4
f 13/1/4 36/19/4 35/20/4
f 38/20/1 32/3/1 30/1/1
f 30/1/1 37/19/1 38/20/1
f 48/13/5 46/15/5 45/16/5
f 45/16/5 47/14/5 48/13/5
f 40/70/6 16/68/6 32/67/6
f 32/67/6 38/69/6 40/70/6
f 39/18/4 14/2/4 16/4/4
f 16/4/4 40/17/4 39/18/4
f 42/32/9 13/30/9 29/29/9
f 29/29/9 41/31/9 42/32/9
f 41/34/1 29/2/1 34/18/1
f 34/18/1 43/33/1 41/34/1
f 44/36/4 36/19/4 13/1/4
f 13/1/4 42/35/4 44/36/4
f 43/72/10 34/56/10 36/58/10
f 36/58/10 44/71/10 43/72/10
f 46/32/7 30/30/7 14/29/7
f 14/29/7 45/31/7 46/32/7
f 45/34/4 14/2/4 39/18/4
f 39/18/4 47/33/4 45/34/4
f 48/36/1 37/19/1 30/1/1
f 30/1/1 46/35/1 48/36/1
f 47/74/8 39/61/8 37/59/8
f 37/59/8 48/73/8 47/74/8
f 50/76/6 31/64/6 22/21/6
f 22/21/6 51/77/6 50/76/6
f 55/81/6 54/80/6 53/79/6
f 53/79/6 56/82/6 55/81/6
f 32/67/6 49/75/6 52/78/6
f 52/78/6 27/26/6 32/67/6
f 58/86/4 49/84/4 50/83/4
f 50/83/4 57/85/4 58/86/4
f 57/90/3 50/88/3 51/87/3
f 51/87/3 59/89/3 57/90/3
f 60/90/2 52/88/2 49/87/2
f 49/87/2 58/89/2 60/90/2
f 59/86/1 51/84/1 52/83/1
f 52/83/1 60/85/1 59/86/1
f 64/92/4 62/86/4 61/85/4
f 61/85/4 63/91/4 64/92/4
f 68/96/11 66/94/11 65/93/11
f 65/93/11 67/95/11 68/96/11
f 72/95/12 70/93/12 69/94/12
f 69/94/12 71/96/12 72/95/12
f 76/92/1 74/86/1 73/85/1
f 73/85/1 75/91/1 76/92/1
f 78/100/5 57/98/5 59/97/5
f 59/97/5 77/99/5 78/100/5
f 80/102/1 74/86/1 76/92/1
f 76/92/1 79/101/1 80/102/1
f 82/104/4 63/91/4 61/85/4
f 61/85/4 81/103/4 82/104/4
f 84/106/6 56/82/6 53/79/6
f 53/79/6 83/105/6 84/106/6
f 86/110/5 60/108/5 58/107/5
f 58/107/5 85/109/5 86/110/5
f 88/102/4 62/86/4 64/92/4
f 64/92/4 87/101/4 88/102/4
f 90/104/1 75/91/1 73/85/1
f 73/85/1 89/103/1 90/104/1
f 92/112/6 54/80/6 55/81/6
f 55/81/6 91/111/6 92/112/6
f 66/114/5 78/100/5 77/99/5
f 77/99/5 65/113/5 66/114/5
f 94/116/1 80/102/1 79/101/1
f 79/101/1 93/115/1 94/116/1
f 96/118/4 82/104/4 81/103/4
f 81/103/4 95/117/4 96/118/4
f 100/122/6 98/120/6 97/119/6
f 97/119/6 99/121/6 100/122/6
f 70/124/5 86/110/5 85/109/5
f 85/109/5 69/123/5 70/124/5
f 102/116/4 88/102/4 87/101/4
f 87/101/4 101/115/4 102/116/4
f 104/118/1 90/104/1 89/103/1
f 89/103/1 103/117/1 104/118/1
f 108/128/6 106/126/6 105/125/6
f 105/125/6 107/127/6 108/128/6
f 110/132/2 84/130/2 83/129/2
f 83/129/2 109/131/2 110/132/2
f 112/134/4 82/104/4 96/118/4
f 96/118/4 111/133/4 112/134/4
f 114/136/13 93/115/13 79/101/13
f 79/101/13 113/135/13 114/136/13
f 116/138/3 68/96/3 67/95/3
f 67/95/3 115/137/3 116/138/3
f 118/131/3 92/129/3 91/130/3
f 91/130/3 117/132/3 118/131/3
f 120/134/13 90/104/13 104/118/13
f 104/118/13 119/133/13 120/134/13
f 122/139/4 101/115/4 87/101/4
f 87/101/4 121/135/4 122/139/4
f 124/137/2 72/95/2 71/96/2
f 71/96/2 123/138/2 124/137/2
f 126/141/4 112/134/4 111/133/4
f 111/133/4 125/140/4 126/141/4
f 128/143/1 114/136/1 113/135/1
f 113/135/1 127/142/1 128/143/1
f 99/145/14 116/138/14 115/137/14
f 115/137/14 100/144/14 99/145/14
f 130/141/1 120/134/1 119/133/1
f 119/133/1 129/140/1 130/141/1
f 132/143/4 122/139/4 121/135/4
f 121/135/4 131/142/4 132/143/4
f 107/144/15 124/137/15 123/138/15
f 123/138/15 108/145/15 107/144/15
f 117/149/5 110/147/5 109/146/5
f 109/146/5 118/148/5 117/149/5
f 121/135/4 112/134/4 126/141/4
f 126/141/4 131/142/4 121/135/4
f 130/141/1 127/142/1 113/135/1
f 113/135/1 120/134/1 130/141/1
f 106/126/6 97/119/6 98/120/6
f 98/120/6 105/125/6 106/126/6
f 76/151/6 56/82/6 84/106/6
f 84/106/6 79/150/6 76/151/6
f 73/153/5 60/108/5 86/110/5
f 86/110/5 89/152/5 73/153/5
f 90/155/6 91/111/6 55/81/6
f 55/81/6 75/154/6 90/155/6
f 89/152/5 86/110/5 70/124/5
f 70/124/5 103/156/5 89/152/5
f 74/157/5 59/97/5 60/108/5
f 60/108/5 73/153/5 74/157/5
f 75/154/6 55/81/6 56/82/6
f 56/82/6 76/151/6 75/154/6
f 80/158/5 77/99/5 59/97/5
f 59/97/5 74/157/5 80/158/5
f 79/160/2 84/130/2 110/132/2
f 110/132/2 113/159/2 79/160/2
f 94/161/5 65/113/5 77/99/5
f 77/99/5 80/158/5 94/161/5
f 93/162/11 67/95/11 65/93/11
f 65/93/11 94/29/11 93/162/11
f 114/163/3 115/137/3 67/95/3
f 67/95/3 93/162/3 114/163/3
f 113/167/5 110/165/5 117/164/5
f 117/164/5 120/166/5 113/167/5
f 128/168/14 100/144/14 115/137/14
f 115/137/14 114/163/14 128/168/14
f 127/170/6 98/120/6 100/122/6
f 100/122/6 128/169/6 127/170/6
f 130/171/6 105/125/6 98/120/6
f 98/120/6 127/170/6 130/171/6
f 129/172/6 107/127/6 105/125/6
f 105/125/6 130/171/6 129/172/6
f 119/163/15 124/137/15 107/144/15
f 107/144/15 129/168/15 119/163/15
f 103/29/12 70/93/12 72/95/12
f 72/95/12 104/162/12 103/29/12
f 104/162/2 72/95/2 124/137/2
f 124/137/2 119/163/2 104/162/2
f 120/159/3 117/132/3 91/130/3
f 91/130/3 90/160/3 120/159/3
f 62/174/5 58/107/5 57/98/5
f 57/98/5 61/173/5 62/174/5
f 61/173/5 57/98/5 78/100/5
f 78/100/5 81/175/5 61/173/5
f 64/177/6 54/80/6 92/112/6
f 92/112/6 87/176/6 64/177/6
f 63/178/6 53/79/6 54/80/6
f 54/80/6 64/177/6 63/178/6
f 88/179/5 85/109/5 58/107/5
f 58/107/5 62/174/5 88/179/5
f 87/181/3 92/129/3 118/131/3
f 118/131/3 121/180/3 87/181/3
f 102/182/5 69/123/5 85/109/5
f 85/109/5 88/179/5 102/182/5
f 101/184/12 71/96/12 69/94/12
f 69/94/12 102/183/12 101/184/12
f 122/185/2 123/138/2 71/96/2
f 71/96/2 101/184/2 122/185/2
f 132/186/15 108/145/15 123/138/15
f 123/138/15 122/185/15 132/186/15
f 131/188/6 106/126/6 108/128/6
f 108/128/6 132/187/6 131/188/6
f 125/190/6 99/121/6 97/119/6
f 97/119/6 126/189/6 125/190/6
f 126/189/6 97/119/6 106/126/6
f 106/126/6 131/188/6 126/189/6
f 121/194/5 118/192/5 109/191/5
f 109/191/5 112/193/5 121/194/5
f 111/185/14 116/138/14 99/145/14
f 99/145/14 125/186/14 111/185/14
f 95/183/11 66/94/11 68/96/11
f 68/96/11 96/184/11 95/183/11
f 96/184/3 68/96/3 116/138/3
f 116/138/3 111/185/3 96/184/3
f 112/180/2 109/131/2 83/129/2
f 83/129/2 82/181/2 112/180/2
f 81/175/5 78/100/5 66/114/5
f 66/114/5 95/195/5 81/175/5
f 82/196/6 83/105/6 53/79/6
f 53/79/6 63/178/6 82/196/6
f 1/209/5 2/210/5 21/41/5
f 21/41/5 28/42/5 1/209/5

usemtl Scope-Glass1
f 55/201/1 91/202/1 117/197/1
f 110/198/1 55/201/1 117/197/1
f 110/198/1 56/200/1 55/201/1
f 110/198/1 84/199/1 56/200/1
f 53/207/4 83/208/4 109/203/4
f 53/207/4 109/203/4 118/204/4
f 54/206/4 53/207/4 118/204/4
f 118/204/4 92/205/4 54/206/4

