# ProBuilder 5.0.4
# https://unity3d.com/unity/features/worldbuilding/probuilder
# 6/27/2022 9:03:02 PM

mtllib ./Plant-Substratum-Type-0-10.15-0.2-2.15-HighPoly.mtl
o Plant-Substratum-Type-0-10.15-0.2-2.15-HighPoly

g Plant-Substratum-Type-0-10.15-0.2-2.15-HighPoly
v 5.070711 -0.09999995 1.070711
v -5.070711 -0.09999995 1.070711
v 5.070711 4.842877E-08 1.070711
v -5.070711 4.842877E-08 1.070711
v -5.070711 -0.09999995 -1.070711
v -5.070711 4.842877E-08 -1.070711
v 5.070711 -0.09999995 -1.070711
v 5.070711 4.842877E-08 -1.070711
v 5 -0.09999995 -1
v -5 -0.09999995 -1
v 5 -0.09999995 1
v -5 -0.09999995 1
v -5 0.1000001 -1
v -5 0.1000001 1
v -5.070711 0.1000001 -1.070711
v -5.070711 0.1000001 1.070711
v 5 0.1000001 -1
v 5.070711 0.1000001 -1.070711
v 5 0.1000001 1
v 5.070711 0.1000001 1.070711
v 5 4.842877E-08 -1
v -5 4.842877E-08 -1
v -5 4.842877E-08 1
v 5 4.842877E-08 1
v 0 4.842877E-08 0
v 0.625 4.842877E-08 0
v 0.625 4.842877E-08 0.125
v 0 4.842877E-08 0.125
v 1.25 4.842877E-08 0
v 1.25 4.842877E-08 0.125
v 1.25 4.842877E-08 0.25
v 0.625 4.842877E-08 0.25
v 0 4.842877E-08 0.25
v 1.875 4.842877E-08 0
v 1.875 4.842877E-08 0.125
v 2.5 4.842877E-08 0
v 2.5 4.842877E-08 0.125
v 2.5 4.842877E-08 0.25
v 1.875 4.842877E-08 0.25
v 1.875 4.842877E-08 0.375
v 1.25 4.842877E-08 0.375
v 2.5 4.842877E-08 0.375
v 2.5 4.842877E-08 0.5
v 1.875 4.842877E-08 0.5
v 1.25 4.842877E-08 0.5
v 0.625 4.842877E-08 0.375
v 0 4.842877E-08 0.375
v 0.625 4.842877E-08 0.5
v 0 4.842877E-08 0.5
v 3.125 4.842877E-08 0
v 3.125 4.842877E-08 0.125
v 3.75 4.842877E-08 0
v 3.75 4.842877E-08 0.125
v 3.75 4.842877E-08 0.25
v 3.125 4.842877E-08 0.25
v 4.375 4.842877E-08 0
v 4.375 4.842877E-08 0.125
v 5 4.842877E-08 0
v 5 4.842877E-08 0.125
v 5 4.842877E-08 0.25
v 4.375 4.842877E-08 0.25
v 4.375 4.842877E-08 0.375
v 3.75 4.842877E-08 0.375
v 5 4.842877E-08 0.375
v 5 4.842877E-08 0.5
v 4.375 4.842877E-08 0.5
v 3.75 4.842877E-08 0.5
v 3.125 4.842877E-08 0.375
v 3.125 4.842877E-08 0.5
v 3.125 4.842877E-08 0.625
v 2.5 4.842877E-08 0.625
v 3.75 4.842877E-08 0.625
v 3.75 4.842877E-08 0.75
v 3.125 4.842877E-08 0.75
v 2.5 4.842877E-08 0.75
v 4.375 4.842877E-08 0.625
v 5 4.842877E-08 0.625
v 5 4.842877E-08 0.75
v 4.375 4.842877E-08 0.75
v 4.375 4.842877E-08 0.875
v 3.75 4.842877E-08 0.875
v 5 4.842877E-08 0.875
v 4.375 4.842877E-08 1
v 3.75 4.842877E-08 1
v 3.125 4.842877E-08 0.875
v 2.5 4.842877E-08 0.875
v 3.125 4.842877E-08 1
v 2.5 4.842877E-08 1
v 0.625 4.842877E-08 0.625
v 0 4.842877E-08 0.625
v 1.25 4.842877E-08 0.625
v 1.25 4.842877E-08 0.75
v 0.625 4.842877E-08 0.75
v 0 4.842877E-08 0.75
v 1.875 4.842877E-08 0.625
v 1.875 4.842877E-08 0.75
v 1.875 4.842877E-08 0.875
v 1.25 4.842877E-08 0.875
v 1.875 4.842877E-08 1
v 1.25 4.842877E-08 1
v 0.625 4.842877E-08 0.875
v 0 4.842877E-08 0.875
v 0.625 4.842877E-08 1
v 0 4.842877E-08 1
v -5 4.842877E-08 0
v -4.375 4.842877E-08 0
v -4.375 4.842877E-08 0.125
v -5 4.842877E-08 0.125
v -3.75 4.842877E-08 0
v -3.75 4.842877E-08 0.125
v -3.75 4.842877E-08 0.25
v -4.375 4.842877E-08 0.25
v -5 4.842877E-08 0.25
v -3.125 4.842877E-08 0
v -3.125 4.842877E-08 0.125
v -2.5 4.842877E-08 0
v -2.5 4.842877E-08 0.125
v -2.5 4.842877E-08 0.25
v -3.125 4.842877E-08 0.25
v -3.125 4.842877E-08 0.375
v -3.75 4.842877E-08 0.375
v -2.5 4.842877E-08 0.375
v -2.5 4.842877E-08 0.5
v -3.125 4.842877E-08 0.5
v -3.75 4.842877E-08 0.5
v -4.375 4.842877E-08 0.375
v -5 4.842877E-08 0.375
v -4.375 4.842877E-08 0.5
v -5 4.842877E-08 0.5
v -1.875 4.842877E-08 0
v -1.875 4.842877E-08 0.125
v -1.25 4.842877E-08 0
v -1.25 4.842877E-08 0.125
v -1.25 4.842877E-08 0.25
v -1.875 4.842877E-08 0.25
v -0.625 4.842877E-08 0
v -0.625 4.842877E-08 0.125
v -0.625 4.842877E-08 0.25
v -0.625 4.842877E-08 0.375
v -1.25 4.842877E-08 0.375
v -0.625 4.842877E-08 0.5
v -1.25 4.842877E-08 0.5
v -1.875 4.842877E-08 0.375
v -1.875 4.842877E-08 0.5
v -1.875 4.842877E-08 0.625
v -2.5 4.842877E-08 0.625
v -1.25 4.842877E-08 0.625
v -1.25 4.842877E-08 0.75
v -1.875 4.842877E-08 0.75
v -2.5 4.842877E-08 0.75
v -0.625 4.842877E-08 0.625
v -0.625 4.842877E-08 0.75
v -0.625 4.842877E-08 0.875
v -1.25 4.842877E-08 0.875
v -0.625 4.842877E-08 1
v -1.25 4.842877E-08 1
v -1.875 4.842877E-08 0.875
v -2.5 4.842877E-08 0.875
v -1.875 4.842877E-08 1
v -2.5 4.842877E-08 1
v -4.375 4.842877E-08 0.625
v -5 4.842877E-08 0.625
v -3.75 4.842877E-08 0.625
v -3.75 4.842877E-08 0.75
v -4.375 4.842877E-08 0.75
v -5 4.842877E-08 0.75
v -3.125 4.842877E-08 0.625
v -3.125 4.842877E-08 0.75
v -3.125 4.842877E-08 0.875
v -3.75 4.842877E-08 0.875
v -3.125 4.842877E-08 1
v -3.75 4.842877E-08 1
v -4.375 4.842877E-08 0.875
v -5 4.842877E-08 0.875
v -4.375 4.842877E-08 1
v -4.375 4.842877E-08 -1
v -4.375 4.842877E-08 -0.875
v -5 4.842877E-08 -0.875
v -3.75 4.842877E-08 -1
v -3.75 4.842877E-08 -0.875
v -3.75 4.842877E-08 -0.75
v -4.375 4.842877E-08 -0.75
v -5 4.842877E-08 -0.75
v -3.125 4.842877E-08 -1
v -3.125 4.842877E-08 -0.875
v -2.5 4.842877E-08 -1
v -2.5 4.842877E-08 -0.875
v -2.5 4.842877E-08 -0.75
v -3.125 4.842877E-08 -0.75
v -3.125 4.842877E-08 -0.625
v -3.75 4.842877E-08 -0.625
v -2.5 4.842877E-08 -0.625
v -2.5 4.842877E-08 -0.5
v -3.125 4.842877E-08 -0.5
v -3.75 4.842877E-08 -0.5
v -4.375 4.842877E-08 -0.625
v -5 4.842877E-08 -0.625
v -4.375 4.842877E-08 -0.5
v -5 4.842877E-08 -0.5
v -1.875 4.842877E-08 -1
v -1.875 4.842877E-08 -0.875
v -1.25 4.842877E-08 -1
v -1.25 4.842877E-08 -0.875
v -1.25 4.842877E-08 -0.75
v -1.875 4.842877E-08 -0.75
v -0.625 4.842877E-08 -1
v -0.625 4.842877E-08 -0.875
v 0 4.842877E-08 -1
v 0 4.842877E-08 -0.875
v 0 4.842877E-08 -0.75
v -0.625 4.842877E-08 -0.75
v -0.625 4.842877E-08 -0.625
v -1.25 4.842877E-08 -0.625
v 0 4.842877E-08 -0.625
v 0 4.842877E-08 -0.5
v -0.625 4.842877E-08 -0.5
v -1.25 4.842877E-08 -0.5
v -1.875 4.842877E-08 -0.625
v -1.875 4.842877E-08 -0.5
v -1.875 4.842877E-08 -0.375
v -2.5 4.842877E-08 -0.375
v -1.25 4.842877E-08 -0.375
v -1.25 4.842877E-08 -0.25
v -1.875 4.842877E-08 -0.25
v -2.5 4.842877E-08 -0.25
v -0.625 4.842877E-08 -0.375
v 0 4.842877E-08 -0.375
v 0 4.842877E-08 -0.25
v -0.625 4.842877E-08 -0.25
v -0.625 4.842877E-08 -0.125
v -1.25 4.842877E-08 -0.125
v 0 4.842877E-08 -0.125
v -1.875 4.842877E-08 -0.125
v -2.5 4.842877E-08 -0.125
v -4.375 4.842877E-08 -0.375
v -5 4.842877E-08 -0.375
v -3.75 4.842877E-08 -0.375
v -3.75 4.842877E-08 -0.25
v -4.375 4.842877E-08 -0.25
v -5 4.842877E-08 -0.25
v -3.125 4.842877E-08 -0.375
v -3.125 4.842877E-08 -0.25
v -3.125 4.842877E-08 -0.125
v -3.75 4.842877E-08 -0.125
v -4.375 4.842877E-08 -0.125
v -5 4.842877E-08 -0.125
v 0.625 4.842877E-08 -1
v 0.625 4.842877E-08 -0.875
v 1.25 4.842877E-08 -1
v 1.25 4.842877E-08 -0.875
v 1.25 4.842877E-08 -0.75
v 0.625 4.842877E-08 -0.75
v 1.875 4.842877E-08 -1
v 1.875 4.842877E-08 -0.875
v 2.5 4.842877E-08 -1
v 2.5 4.842877E-08 -0.875
v 2.5 4.842877E-08 -0.75
v 1.875 4.842877E-08 -0.75
v 1.875 4.842877E-08 -0.625
v 1.25 4.842877E-08 -0.625
v 2.5 4.842877E-08 -0.625
v 2.5 4.842877E-08 -0.5
v 1.875 4.842877E-08 -0.5
v 1.25 4.842877E-08 -0.5
v 0.625 4.842877E-08 -0.625
v 0.625 4.842877E-08 -0.5
v 3.125 4.842877E-08 -1
v 3.125 4.842877E-08 -0.875
v 3.75 4.842877E-08 -1
v 3.75 4.842877E-08 -0.875
v 3.75 4.842877E-08 -0.75
v 3.125 4.842877E-08 -0.75
v 4.375 4.842877E-08 -1
v 4.375 4.842877E-08 -0.875
v 5 4.842877E-08 -0.875
v 5 4.842877E-08 -0.75
v 4.375 4.842877E-08 -0.75
v 4.375 4.842877E-08 -0.625
v 3.75 4.842877E-08 -0.625
v 5 4.842877E-08 -0.625
v 5 4.842877E-08 -0.5
v 4.375 4.842877E-08 -0.5
v 3.75 4.842877E-08 -0.5
v 3.125 4.842877E-08 -0.625
v 3.125 4.842877E-08 -0.5
v 3.125 4.842877E-08 -0.375
v 2.5 4.842877E-08 -0.375
v 3.75 4.842877E-08 -0.375
v 3.75 4.842877E-08 -0.25
v 3.125 4.842877E-08 -0.25
v 2.5 4.842877E-08 -0.25
v 4.375 4.842877E-08 -0.375
v 5 4.842877E-08 -0.375
v 5 4.842877E-08 -0.25
v 4.375 4.842877E-08 -0.25
v 4.375 4.842877E-08 -0.125
v 3.75 4.842877E-08 -0.125
v 5 4.842877E-08 -0.125
v 3.125 4.842877E-08 -0.125
v 2.5 4.842877E-08 -0.125
v 0.625 4.842877E-08 -0.375
v 1.25 4.842877E-08 -0.375
v 1.25 4.842877E-08 -0.25
v 0.625 4.842877E-08 -0.25
v 1.875 4.842877E-08 -0.375
v 1.875 4.842877E-08 -0.25
v 1.875 4.842877E-08 -0.125
v 1.25 4.842877E-08 -0.125
v 0.625 4.842877E-08 -0.125

vt 5.070711 -0.09999995
vt -5.070711 -0.09999995
vt 5.070711 4.842877E-08
vt -5.070711 4.842877E-08
vt 1.070711 -0.09999995
vt -1.070711 -0.09999995
vt 1.070711 4.842877E-08
vt -1.070711 4.842877E-08
vt 5 -1
vt -5 -1
vt 5 1
vt -5 1
vt -5.070711 -1.070711
vt 5.070711 -1.070711
vt 5.070711 1.070711
vt -5.070711 1.070711
vt 5 4.842877E-08
vt -5 4.842877E-08
vt 5 0.1000001
vt -5 0.1000001
vt 1.070711 0.1000001
vt -1.070711 0.1000001
vt 5.070711 0.1000001
vt -5.070711 0.1000001
vt 1 4.842877E-08
vt -1 4.842877E-08
vt 1 0.1000001
vt -1 0.1000001
vt 0 0
vt -0.625 0
vt -0.625 0.125
vt 0 0.125
vt -1.25 0
vt -1.25 0.125
vt -1.25 0.25
vt -0.625 0.25
vt 0 0.25
vt -1.875 0
vt -1.875 0.125
vt -2.5 0
vt -2.5 0.125
vt -2.5 0.25
vt -1.875 0.25
vt -1.875 0.375
vt -1.25 0.375
vt -2.5 0.375
vt -2.5 0.5
vt -1.875 0.5
vt -1.25 0.5
vt -0.625 0.375
vt 0 0.375
vt -0.625 0.5
vt 0 0.5
vt -3.125 0
vt -3.125 0.125
vt -3.75 0
vt -3.75 0.125
vt -3.75 0.25
vt -3.125 0.25
vt -4.375 0
vt -4.375 0.125
vt -5 0.125
vt -5 0.25
vt -4.375 0.25
vt -4.375 0.375
vt -3.75 0.375
vt -5 0.375
vt -5 0.5
vt -4.375 0.5
vt -3.75 0.5
vt -3.125 0.375
vt -3.125 0.5
vt -3.125 0.625
vt -2.5 0.625
vt -3.75 0.625
vt -3.75 0.75
vt -3.125 0.75
vt -2.5 0.75
vt -4.375 0.625
vt -5 0.625
vt -5 0.75
vt -4.375 0.75
vt -4.375 0.875
vt -3.75 0.875
vt -5 0.875
vt -4.375 1
vt -3.75 1
vt -3.125 0.875
vt -2.5 0.875
vt -3.125 1
vt -2.5 1
vt -0.625 0.625
vt 0 0.625
vt -1.25 0.625
vt -1.25 0.75
vt -0.625 0.75
vt 0 0.75
vt -1.875 0.625
vt -1.875 0.75
vt -1.875 0.875
vt -1.25 0.875
vt -1.875 1
vt -1.25 1
vt -0.625 0.875
vt 0 0.875
vt -0.625 1
vt 0 1
vt 4.375 0
vt 4.375 0.125
vt 5 0.125
vt 3.75 0
vt 3.75 0.125
vt 3.75 0.25
vt 4.375 0.25
vt 5 0.25
vt 3.125 0
vt 3.125 0.125
vt 2.5 0
vt 2.5 0.125
vt 2.5 0.25
vt 3.125 0.25
vt 3.125 0.375
vt 3.75 0.375
vt 2.5 0.375
vt 2.5 0.5
vt 3.125 0.5
vt 3.75 0.5
vt 4.375 0.375
vt 5 0.375
vt 4.375 0.5
vt 5 0.5
vt 1.875 0
vt 1.875 0.125
vt 1.25 0
vt 1.25 0.125
vt 1.25 0.25
vt 1.875 0.25
vt 0.625 0
vt 0.625 0.125
vt 0.625 0.25
vt 0.625 0.375
vt 1.25 0.375
vt 0.625 0.5
vt 1.25 0.5
vt 1.875 0.375
vt 1.875 0.5
vt 1.875 0.625
vt 2.5 0.625
vt 1.25 0.625
vt 1.25 0.75
vt 1.875 0.75
vt 2.5 0.75
vt 0.625 0.625
vt 0.625 0.75
vt 0.625 0.875
vt 1.25 0.875
vt 0.625 1
vt 1.25 1
vt 1.875 0.875
vt 2.5 0.875
vt 1.875 1
vt 2.5 1
vt 4.375 0.625
vt 5 0.625
vt 3.75 0.625
vt 3.75 0.75
vt 4.375 0.75
vt 5 0.75
vt 3.125 0.625
vt 3.125 0.75
vt 3.125 0.875
vt 3.75 0.875
vt 3.125 1
vt 3.75 1
vt 4.375 0.875
vt 5 0.875
vt 4.375 1
vt 4.375 -1
vt 4.375 -0.875
vt 5 -0.875
vt 3.75 -1
vt 3.75 -0.875
vt 3.75 -0.75
vt 4.375 -0.75
vt 5 -0.75
vt 3.125 -1
vt 3.125 -0.875
vt 2.5 -1
vt 2.5 -0.875
vt 2.5 -0.75
vt 3.125 -0.75
vt 3.125 -0.625
vt 3.75 -0.625
vt 2.5 -0.625
vt 2.5 -0.5
vt 3.125 -0.5
vt 3.75 -0.5
vt 4.375 -0.625
vt 5 -0.625
vt 4.375 -0.5
vt 5 -0.5
vt 1.875 -1
vt 1.875 -0.875
vt 1.25 -1
vt 1.25 -0.875
vt 1.25 -0.75
vt 1.875 -0.75
vt 0.625 -1
vt 0.625 -0.875
vt 0 -1
vt 0 -0.875
vt 0 -0.75
vt 0.625 -0.75
vt 0.625 -0.625
vt 1.25 -0.625
vt 0 -0.625
vt 0 -0.5
vt 0.625 -0.5
vt 1.25 -0.5
vt 1.875 -0.625
vt 1.875 -0.5
vt 1.875 -0.375
vt 2.5 -0.375
vt 1.25 -0.375
vt 1.25 -0.25
vt 1.875 -0.25
vt 2.5 -0.25
vt 0.625 -0.375
vt 0 -0.375
vt 0 -0.25
vt 0.625 -0.25
vt 0.625 -0.125
vt 1.25 -0.125
vt 0 -0.125
vt 1.875 -0.125
vt 2.5 -0.125
vt 4.375 -0.375
vt 5 -0.375
vt 3.75 -0.375
vt 3.75 -0.25
vt 4.375 -0.25
vt 5 -0.25
vt 3.125 -0.375
vt 3.125 -0.25
vt 3.125 -0.125
vt 3.75 -0.125
vt 4.375 -0.125
vt 5 -0.125
vt -0.625 -1
vt -0.625 -0.875
vt -1.25 -1
vt -1.25 -0.875
vt -1.25 -0.75
vt -0.625 -0.75
vt -1.875 -1
vt -1.875 -0.875
vt -2.5 -1
vt -2.5 -0.875
vt -2.5 -0.75
vt -1.875 -0.75
vt -1.875 -0.625
vt -1.25 -0.625
vt -2.5 -0.625
vt -2.5 -0.5
vt -1.875 -0.5
vt -1.25 -0.5
vt -0.625 -0.625
vt -0.625 -0.5
vt -3.125 -1
vt -3.125 -0.875
vt -3.75 -1
vt -3.75 -0.875
vt -3.75 -0.75
vt -3.125 -0.75
vt -4.375 -1
vt -4.375 -0.875
vt -5 -0.875
vt -5 -0.75
vt -4.375 -0.75
vt -4.375 -0.625
vt -3.75 -0.625
vt -5 -0.625
vt -5 -0.5
vt -4.375 -0.5
vt -3.75 -0.5
vt -3.125 -0.625
vt -3.125 -0.5
vt -3.125 -0.375
vt -2.5 -0.375
vt -3.75 -0.375
vt -3.75 -0.25
vt -3.125 -0.25
vt -2.5 -0.25
vt -4.375 -0.375
vt -5 -0.375
vt -5 -0.25
vt -4.375 -0.25
vt -4.375 -0.125
vt -3.75 -0.125
vt -5 -0.125
vt -3.125 -0.125
vt -2.5 -0.125
vt -0.625 -0.375
vt -1.25 -0.375
vt -1.25 -0.25
vt -0.625 -0.25
vt -1.875 -0.375
vt -1.875 -0.25
vt -1.875 -0.125
vt -1.25 -0.125
vt -0.625 -0.125

vn 0 0 1
vn -1 0 0
vn 0 0 -1
vn 1 0 0
vn 0 -1 0
vn 0 1 0

usemtl Metal027
f 3/3/1 4/4/1 2/2/1 1/1/1
f 4/7/2 6/8/2 5/6/2 2/5/2
f 6/3/3 8/4/3 7/2/3 5/1/3
f 8/7/4 3/8/4 1/6/4 7/5/4
f 11/11/5 12/12/5 10/10/5 9/9/5
f 5/13/5 7/14/5 9/9/5 10/10/5
f 15/14/6 16/15/6 14/11/6 13/9/6
f 18/13/6 15/14/6 13/9/6 17/10/6
f 7/14/5 1/15/5 11/11/5 9/9/5
f 20/16/6 18/13/6 17/10/6 19/12/6
f 1/15/5 2/16/5 12/12/5 11/11/5
f 16/15/6 20/16/6 19/12/6 14/11/6
f 2/16/5 5/13/5 10/10/5 12/12/5
f 17/19/1 13/20/1 22/18/1 21/17/1
f 18/21/4 20/22/4 3/8/4 8/7/4
f 15/23/3 18/24/3 8/4/3 6/3/3
f 13/27/4 14/28/4 23/26/4 22/25/4
f 16/21/2 15/22/2 6/8/2 4/7/2
f 14/19/3 19/20/3 24/18/3 23/17/3
f 20/23/1 16/24/1 4/4/1 3/3/1
f 19/27/2 17/28/2 21/26/2 24/25/2

usemtl Ground048
f 28/32/6 27/31/6 26/30/6 25/29/6
f 27/31/6 30/34/6 29/33/6 26/30/6
f 32/36/6 31/35/6 30/34/6 27/31/6
f 33/37/6 32/36/6 27/31/6 28/32/6
f 30/34/6 35/39/6 34/38/6 29/33/6
f 35/39/6 37/41/6 36/40/6 34/38/6
f 39/43/6 38/42/6 37/41/6 35/39/6
f 31/35/6 39/43/6 35/39/6 30/34/6
f 41/45/6 40/44/6 39/43/6 31/35/6
f 40/44/6 42/46/6 38/42/6 39/43/6
f 44/48/6 43/47/6 42/46/6 40/44/6
f 45/49/6 44/48/6 40/44/6 41/45/6
f 47/51/6 46/50/6 32/36/6 33/37/6
f 46/50/6 41/45/6 31/35/6 32/36/6
f 48/52/6 45/49/6 41/45/6 46/50/6
f 49/53/6 48/52/6 46/50/6 47/51/6
f 37/41/6 51/55/6 50/54/6 36/40/6
f 51/55/6 53/57/6 52/56/6 50/54/6
f 55/59/6 54/58/6 53/57/6 51/55/6
f 38/42/6 55/59/6 51/55/6 37/41/6
f 53/57/6 57/61/6 56/60/6 52/56/6
f 57/61/6 59/62/6 58/18/6 56/60/6
f 61/64/6 60/63/6 59/62/6 57/61/6
f 54/58/6 61/64/6 57/61/6 53/57/6
f 63/66/6 62/65/6 61/64/6 54/58/6
f 62/65/6 64/67/6 60/63/6 61/64/6
f 66/69/6 65/68/6 64/67/6 62/65/6
f 67/70/6 66/69/6 62/65/6 63/66/6
f 42/46/6 68/71/6 55/59/6 38/42/6
f 68/71/6 63/66/6 54/58/6 55/59/6
f 69/72/6 67/70/6 63/66/6 68/71/6
f 43/47/6 69/72/6 68/71/6 42/46/6
f 71/74/6 70/73/6 69/72/6 43/47/6
f 70/73/6 72/75/6 67/70/6 69/72/6
f 74/77/6 73/76/6 72/75/6 70/73/6
f 75/78/6 74/77/6 70/73/6 71/74/6
f 72/75/6 76/79/6 66/69/6 67/70/6
f 76/79/6 77/80/6 65/68/6 66/69/6
f 79/82/6 78/81/6 77/80/6 76/79/6
f 73/76/6 79/82/6 76/79/6 72/75/6
f 81/84/6 80/83/6 79/82/6 73/76/6
f 80/83/6 82/85/6 78/81/6 79/82/6
f 83/86/6 24/12/6 82/85/6 80/83/6
f 84/87/6 83/86/6 80/83/6 81/84/6
f 86/89/6 85/88/6 74/77/6 75/78/6
f 85/88/6 81/84/6 73/76/6 74/77/6
f 87/90/6 84/87/6 81/84/6 85/88/6
f 88/91/6 87/90/6 85/88/6 86/89/6
f 90/93/6 89/92/6 48/52/6 49/53/6
f 89/92/6 91/94/6 45/49/6 48/52/6
f 93/96/6 92/95/6 91/94/6 89/92/6
f 94/97/6 93/96/6 89/92/6 90/93/6
f 91/94/6 95/98/6 44/48/6 45/49/6
f 95/98/6 71/74/6 43/47/6 44/48/6
f 96/99/6 75/78/6 71/74/6 95/98/6
f 92/95/6 96/99/6 95/98/6 91/94/6
f 98/101/6 97/100/6 96/99/6 92/95/6
f 97/100/6 86/89/6 75/78/6 96/99/6
f 99/102/6 88/91/6 86/89/6 97/100/6
f 100/103/6 99/102/6 97/100/6 98/101/6
f 102/105/6 101/104/6 93/96/6 94/97/6
f 101/104/6 98/101/6 92/95/6 93/96/6
f 103/106/6 100/103/6 98/101/6 101/104/6
f 104/107/6 103/106/6 101/104/6 102/105/6
f 108/110/6 107/109/6 106/108/6 105/17/6
f 107/109/6 110/112/6 109/111/6 106/108/6
f 112/114/6 111/113/6 110/112/6 107/109/6
f 113/115/6 112/114/6 107/109/6 108/110/6
f 110/112/6 115/117/6 114/116/6 109/111/6
f 115/117/6 117/119/6 116/118/6 114/116/6
f 119/121/6 118/120/6 117/119/6 115/117/6
f 111/113/6 119/121/6 115/117/6 110/112/6
f 121/123/6 120/122/6 119/121/6 111/113/6
f 120/122/6 122/124/6 118/120/6 119/121/6
f 124/126/6 123/125/6 122/124/6 120/122/6
f 125/127/6 124/126/6 120/122/6 121/123/6
f 127/129/6 126/128/6 112/114/6 113/115/6
f 126/128/6 121/123/6 111/113/6 112/114/6
f 128/130/6 125/127/6 121/123/6 126/128/6
f 129/131/6 128/130/6 126/128/6 127/129/6
f 117/119/6 131/133/6 130/132/6 116/118/6
f 131/133/6 133/135/6 132/134/6 130/132/6
f 135/137/6 134/136/6 133/135/6 131/133/6
f 118/120/6 135/137/6 131/133/6 117/119/6
f 133/135/6 137/139/6 136/138/6 132/134/6
f 137/139/6 28/32/6 25/29/6 136/138/6
f 138/140/6 33/37/6 28/32/6 137/139/6
f 134/136/6 138/140/6 137/139/6 133/135/6
f 140/142/6 139/141/6 138/140/6 134/136/6
f 139/141/6 47/51/6 33/37/6 138/140/6
f 141/143/6 49/53/6 47/51/6 139/141/6
f 142/144/6 141/143/6 139/141/6 140/142/6
f 122/124/6 143/145/6 135/137/6 118/120/6
f 143/145/6 140/142/6 134/136/6 135/137/6
f 144/146/6 142/144/6 140/142/6 143/145/6
f 123/125/6 144/146/6 143/145/6 122/124/6
f 146/148/6 145/147/6 144/146/6 123/125/6
f 145/147/6 147/149/6 142/144/6 144/146/6
f 149/151/6 148/150/6 147/149/6 145/147/6
f 150/152/6 149/151/6 145/147/6 146/148/6
f 147/149/6 151/153/6 141/143/6 142/144/6
f 151/153/6 90/93/6 49/53/6 141/143/6
f 152/154/6 94/97/6 90/93/6 151/153/6
f 148/150/6 152/154/6 151/153/6 147/149/6
f 154/156/6 153/155/6 152/154/6 148/150/6
f 153/155/6 102/105/6 94/97/6 152/154/6
f 155/157/6 104/107/6 102/105/6 153/155/6
f 156/158/6 155/157/6 153/155/6 154/156/6
f 158/160/6 157/159/6 149/151/6 150/152/6
f 157/159/6 154/156/6 148/150/6 149/151/6
f 159/161/6 156/158/6 154/156/6 157/159/6
f 160/162/6 159/161/6 157/159/6 158/160/6
f 162/164/6 161/163/6 128/130/6 129/131/6
f 161/163/6 163/165/6 125/127/6 128/130/6
f 165/167/6 164/166/6 163/165/6 161/163/6
f 166/168/6 165/167/6 161/163/6 162/164/6
f 163/165/6 167/169/6 124/126/6 125/127/6
f 167/169/6 146/148/6 123/125/6 124/126/6
f 168/170/6 150/152/6 146/148/6 167/169/6
f 164/166/6 168/170/6 167/169/6 163/165/6
f 170/172/6 169/171/6 168/170/6 164/166/6
f 169/171/6 158/160/6 150/152/6 168/170/6
f 171/173/6 160/162/6 158/160/6 169/171/6
f 172/174/6 171/173/6 169/171/6 170/172/6
f 174/176/6 173/175/6 165/167/6 166/168/6
f 173/175/6 170/172/6 164/166/6 165/167/6
f 175/177/6 172/174/6 170/172/6 173/175/6
f 23/11/6 175/177/6 173/175/6 174/176/6
f 178/180/6 177/179/6 176/178/6 22/9/6
f 177/179/6 180/182/6 179/181/6 176/178/6
f 182/184/6 181/183/6 180/182/6 177/179/6
f 183/185/6 182/184/6 177/179/6 178/180/6
f 180/182/6 185/187/6 184/186/6 179/181/6
f 185/187/6 187/189/6 186/188/6 184/186/6
f 189/191/6 188/190/6 187/189/6 185/187/6
f 181/183/6 189/191/6 185/187/6 180/182/6
f 191/193/6 190/192/6 189/191/6 181/183/6
f 190/192/6 192/194/6 188/190/6 189/191/6
f 194/196/6 193/195/6 192/194/6 190/192/6
f 195/197/6 194/196/6 190/192/6 191/193/6
f 197/199/6 196/198/6 182/184/6 183/185/6
f 196/198/6 191/193/6 181/183/6 182/184/6
f 198/200/6 195/197/6 191/193/6 196/198/6
f 199/201/6 198/200/6 196/198/6 197/199/6
f 187/189/6 201/203/6 200/202/6 186/188/6
f 201/203/6 203/205/6 202/204/6 200/202/6
f 205/207/6 204/206/6 203/205/6 201/203/6
f 188/190/6 205/207/6 201/203/6 187/189/6
f 203/205/6 207/209/6 206/208/6 202/204/6
f 207/209/6 209/211/6 208/210/6 206/208/6
f 211/213/6 210/212/6 209/211/6 207/209/6
f 204/206/6 211/213/6 207/209/6 203/205/6
f 213/215/6 212/214/6 211/213/6 204/206/6
f 212/214/6 214/216/6 210/212/6 211/213/6
f 216/218/6 215/217/6 214/216/6 212/214/6
f 217/219/6 216/218/6 212/214/6 213/215/6
f 192/194/6 218/220/6 205/207/6 188/190/6
f 218/220/6 213/215/6 204/206/6 205/207/6
f 219/221/6 217/219/6 213/215/6 218/220/6
f 193/195/6 219/221/6 218/220/6 192/194/6
f 221/223/6 220/222/6 219/221/6 193/195/6
f 220/222/6 222/224/6 217/219/6 219/221/6
f 224/226/6 223/225/6 222/224/6 220/222/6
f 225/227/6 224/226/6 220/222/6 221/223/6
f 222/224/6 226/228/6 216/218/6 217/219/6
f 226/228/6 227/229/6 215/217/6 216/218/6
f 229/231/6 228/230/6 227/229/6 226/228/6
f 223/225/6 229/231/6 226/228/6 222/224/6
f 231/233/6 230/232/6 229/231/6 223/225/6
f 230/232/6 232/234/6 228/230/6 229/231/6
f 136/138/6 25/29/6 232/234/6 230/232/6
f 132/134/6 136/138/6 230/232/6 231/233/6
f 234/236/6 233/235/6 224/226/6 225/227/6
f 233/235/6 231/233/6 223/225/6 224/226/6
f 130/132/6 132/134/6 231/233/6 233/235/6
f 116/118/6 130/132/6 233/235/6 234/236/6
f 236/238/6 235/237/6 198/200/6 199/201/6
f 235/237/6 237/239/6 195/197/6 198/200/6
f 239/241/6 238/240/6 237/239/6 235/237/6
f 240/242/6 239/241/6 235/237/6 236/238/6
f 237/239/6 241/243/6 194/196/6 195/197/6
f 241/243/6 221/223/6 193/195/6 194/196/6
f 242/244/6 225/227/6 221/223/6 241/243/6
f 238/240/6 242/244/6 241/243/6 237/239/6
f 244/246/6 243/245/6 242/244/6 238/240/6
f 243/245/6 234/236/6 225/227/6 242/244/6
f 114/116/6 116/118/6 234/236/6 243/245/6
f 109/111/6 114/116/6 243/245/6 244/246/6
f 246/248/6 245/247/6 239/241/6 240/242/6
f 245/247/6 244/246/6 238/240/6 239/241/6
f 106/108/6 109/111/6 244/246/6 245/247/6
f 105/17/6 106/108/6 245/247/6 246/248/6
f 209/211/6 248/250/6 247/249/6 208/210/6
f 248/250/6 250/252/6 249/251/6 247/249/6
f 252/254/6 251/253/6 250/252/6 248/250/6
f 210/212/6 252/254/6 248/250/6 209/211/6
f 250/252/6 254/256/6 253/255/6 249/251/6
f 254/256/6 256/258/6 255/257/6 253/255/6
f 258/260/6 257/259/6 256/258/6 254/256/6
f 251/253/6 258/260/6 254/256/6 250/252/6
f 260/262/6 259/261/6 258/260/6 251/253/6
f 259/261/6 261/263/6 257/259/6 258/260/6
f 263/265/6 262/264/6 261/263/6 259/261/6
f 264/266/6 263/265/6 259/261/6 260/262/6
f 214/216/6 265/267/6 252/254/6 210/212/6
f 265/267/6 260/262/6 251/253/6 252/254/6
f 266/268/6 264/266/6 260/262/6 265/267/6
f 215/217/6 266/268/6 265/267/6 214/216/6
f 256/258/6 268/270/6 267/269/6 255/257/6
f 268/270/6 270/272/6 269/271/6 267/269/6
f 272/274/6 271/273/6 270/272/6 268/270/6
f 257/259/6 272/274/6 268/270/6 256/258/6
f 270/272/6 274/276/6 273/275/6 269/271/6
f 274/276/6 275/277/6 21/10/6 273/275/6
f 277/279/6 276/278/6 275/277/6 274/276/6
f 271/273/6 277/279/6 274/276/6 270/272/6
f 279/281/6 278/280/6 277/279/6 271/273/6
f 278/280/6 280/282/6 276/278/6 277/279/6
f 282/284/6 281/283/6 280/282/6 278/280/6
f 283/285/6 282/284/6 278/280/6 279/281/6
f 261/263/6 284/286/6 272/274/6 257/259/6
f 284/286/6 279/281/6 271/273/6 272/274/6
f 285/287/6 283/285/6 279/281/6 284/286/6
f 262/264/6 285/287/6 284/286/6 261/263/6
f 287/289/6 286/288/6 285/287/6 262/264/6
f 286/288/6 288/290/6 283/285/6 285/287/6
f 290/292/6 289/291/6 288/290/6 286/288/6
f 291/293/6 290/292/6 286/288/6 287/289/6
f 288/290/6 292/294/6 282/284/6 283/285/6
f 292/294/6 293/295/6 281/283/6 282/284/6
f 295/297/6 294/296/6 293/295/6 292/294/6
f 289/291/6 295/297/6 292/294/6 288/290/6
f 297/299/6 296/298/6 295/297/6 289/291/6
f 296/298/6 298/300/6 294/296/6 295/297/6
f 56/60/6 58/18/6 298/300/6 296/298/6
f 52/56/6 56/60/6 296/298/6 297/299/6
f 300/302/6 299/301/6 290/292/6 291/293/6
f 299/301/6 297/299/6 289/291/6 290/292/6
f 50/54/6 52/56/6 297/299/6 299/301/6
f 36/40/6 50/54/6 299/301/6 300/302/6
f 227/229/6 301/303/6 266/268/6 215/217/6
f 301/303/6 302/304/6 264/266/6 266/268/6
f 304/306/6 303/305/6 302/304/6 301/303/6
f 228/230/6 304/306/6 301/303/6 227/229/6
f 302/304/6 305/307/6 263/265/6 264/266/6
f 305/307/6 287/289/6 262/264/6 263/265/6
f 306/308/6 291/293/6 287/289/6 305/307/6
f 303/305/6 306/308/6 305/307/6 302/304/6
f 308/310/6 307/309/6 306/308/6 303/305/6
f 307/309/6 300/302/6 291/293/6 306/308/6
f 34/38/6 36/40/6 300/302/6 307/309/6
f 29/33/6 34/38/6 307/309/6 308/310/6
f 232/234/6 309/311/6 304/306/6 228/230/6
f 309/311/6 308/310/6 303/305/6 304/306/6
f 26/30/6 29/33/6 308/310/6 309/311/6
f 25/29/6 26/30/6 309/311/6 232/234/6

