# ProBuilder 5.0.4
# https://unity3d.com/unity/features/worldbuilding/probuilder
# 5/20/2022 2:10:24 AM

mtllib ./Cross-Quarter.mtl
o Cross-Quarter

g Cross-Quarter
v 0 -0.1 2.5
v 0 0 2.5
v 0 -0.1 0.75
v 0 0 0.75
v -15 -0.1 -0.75
v -15 0 -0.75
v -15 -0.1 -2.5
v -15 0 -2.5
v -15 2.2501 -2.5
v -15 2.2501 -0.75
v -15 0 0.75
v -15 0 2.5
v -15 2.2501 0.75
v -15 2.2501 2.5
v -15 2.7501 -2.5
v -15 2.7501 -0.75
v -15 2.7501 0.75
v -15 2.7501 2.5
v -14.5 3.2501 -3
v -14.5 3.2501 -1.25
v -14.5 3.2501 0.25
v -14.5 3.2501 2
v -14.5 4.2501 -3
v -14.5 4.2501 -1.25
v -14.5 4.2501 0.25
v -14.5 4.2501 2
v -14.5 5.3501 -3
v -14.5 5.3501 -1.25
v -14.5 5.3501 0.25
v -14.5 5.3501 2
v -15.1 -0.1 2.5
v -15.1 0 2.5
v -15 -0.1 2.5
v -15.1 -0.1 0.75
v -15 -0.1 0.75
v -15.1 2.2501 0.75
v -15.1 0 0.75
v -15.1 0 -2.5
v -15.1 -0.1 -2.5
v -15.1 5.3501 -2.5
v -15.1 4.2501 -2.5
v -15.1 2.2501 -0.75
v -15.1 3.2501 -2.5
v -15.1 2.7501 -2.5
v -15.1 2.2501 -2.5
v -15.1 0 -0.75
v -15.1 -0.1 -0.75
v -15 0 0
v -15 -0.1 0
v 0 0 0
v 0 -0.1 0
v -15 -0.1 15
v -15 0 15
v 0 -0.1 15
v 0 0 15
v -9.25 0 8.25
v -9.349999 0 8.25
v -9.25 2.2501 8.25
v -9.25 2.7501 8.25
v -8.75 3.2501 7.75
v -8.75 4.2501 7.75
v -8.75 5.3501 7.75
v -8.25 0 9.25
v -8.349999 0 9.25
v -7.75 4.2501 8.75
v -7.75 3.2501 8.75
v -2 4.2501 14.5
v -2 3.2501 14.5
v -7.75 5.3501 8.75
v -2 5.3501 14.5
v -8.25 2.7501 9.25
v -2.5 2.7501 15
v -8.25 2.2501 9.25
v -2.5 2.2501 15
v -2.5 0 15
v -2.599999 0 15
v -2.5 4.2501 15.1
v -2.5 3.2501 15.1
v -2.5 5.3501 15.1
v -2.5 2.7501 15.1
v -2.5 2.2501 15.1
v -2.5 0 15.1
v -2.599999 0 15.1
v -8.613604 2.2501 7.613604
v -8.613604 0 7.613604
v -7.613604 2.2501 8.613604
v -7.613604 2.7501 8.613604
v -7.613604 0 8.613604
v -8.613604 2.7501 7.613604
v -7.613604 3.2501 8.613604
v -8.613604 3.2501 7.613604
v -7.613604 4.2501 8.613604
v -8.613604 4.2501 7.613604
v -7.613604 5.3501 8.613604
v -8.613604 5.3501 7.613604
v -8.492892 2.2501 7.642893
v -8.492892 0 7.642893
v -7.642893 2.2501 8.492892
v -7.642893 2.7501 8.492892
v -7.642893 0 8.492892
v -8.492892 2.7501 7.642893
v -7.642893 3.2501 8.492892
v -8.492892 3.2501 7.642893
v -7.642893 4.2501 8.492892
v -8.492892 4.2501 7.642893
v -7.642893 5.3501 8.492892
v -8.492892 5.3501 7.642893
v -7.676227 0 8.409559
v -8.409559 0 7.676227
v -8.409559 3.2501 7.676227
v -8.409559 4.250099 7.676227
v -8.409559 5.3501 7.676227
v -8.409559 2.7501 7.676227
v -8.409559 2.2501 7.676227
v -7.676227 4.2501 8.409559
v -7.676227 3.2501 8.409559
v -7.676227 5.3501 8.409559
v -7.676227 2.7501 8.409559
v -7.676227 2.2501 8.409559
v -15 4.4 2.5
v 0 4.4 2.5
v -15 4.4 15
v 0 4.4 15
v -15 4.4 0.75
v 0 4.4 0.75
v -15 4.4 0
v 0 4.4 0
v -6.96912 3.7501 7.702453
v -6.96912 4.2501 7.702453
v -7.702453 4.250099 6.96912
v -7.702453 3.7501 6.96912
v -6.96912 5.3501 7.702453
v -7.702453 5.3501 6.96912
v 0.8090553 3.7501 -0.07572174
v 0.8090544 4.2501 -0.07572174
v 0.07572174 4.250099 -0.8090544
v 0.07572174 3.7501 -0.8090544
v 0.8090544 5.3501 -0.07572174
v 0.07572174 5.3501 -0.8090544
v -7.720638 3.150011 8.365084
v -8.365084 3.15001 7.720639
v 0.1201649 3.65 -0.7646101
v 0.7646122 3.65 -0.1201668
v -7.013546 3.65 7.657992
v -7.657992 3.65 7.013548

vt 12.5 0
vt 12.5 0.1
vt 14.25 0
vt 14.25 0.1
vt 15.75 0
vt 15.75 0.1
vt 17.5 0
vt 17.5 0.1
vt 17.5 2.2501
vt 15.75 2.2501
vt 14.25 2.2501
vt 12.5 2.2501
vt 17.5 2.7501
vt 15.75 2.7501
vt 14.25 2.7501
vt 12.5 2.7501
vt 6.338013 -2.5
vt 6.338013 -0.75
vt 7.045119 -3
vt 7.045119 -1.25
vt 6.338013 0.75
vt 6.338013 2.5
vt 7.045119 0.25
vt 7.045119 2
vt 18 3.2501
vt 16.25 3.2501
vt 18 4.2501
vt 16.25 4.2501
vt 14.75 3.2501
vt 13 3.2501
vt 14.75 4.2501
vt 13 4.2501
vt 18 5.3501
vt 16.25 5.3501
vt 14.75 5.3501
vt 13 5.3501
vt 0 0
vt 0 0.1
vt 0.09999943 0
vt 0.09999943 0.1
vt 0 3.25
vt 0 5
vt 0.09999943 3.25
vt 0.09999943 5
vt 15.1 2.2501
vt 15.1 0
vt 15 2.2501
vt 15 0
vt 15.1 0.1
vt 15 0.1
vt 15.1 5.450099
vt 15.1 4.3501
vt 15 5.450099
vt 15 4.3501
vt 0 1.75
vt 0.09999943 1.75
vt 15.1 3.3501
vt 15 3.3501
vt 15.1 2.8501
vt 15 2.8501
vt 15.1 2.3501
vt 15 2.3501
vt -9.536743E-07 2.2501
vt 0.09999847 2.2501
vt 15.1 3.25
vt 15.1 1.75
vt 15 1.75
vt 15 2.5
vt 15 3.25
vt 0.09999943 2.5
vt 14.995 0.5
vt 14.995 -0.25
vt -0.005 0.5
vt -0.005 -0.25
vt 15.1 2.5
vt 15.1 5
vt 14.995 2.25
vt -0.005 2.25
vt 15.1 17.5
vt 0.09999943 17.5
vt 14.995 14.75
vt -0.005 14.75
vt -15 2.5
vt -15.1 2.5
vt -9.25 8.25
vt -9.349999 8.25
vt 8.838835 2.2501
vt 8.838835 0
vt 0.7071068 2.2501
vt 0.7071068 0
vt 8.838835 2.7501
vt 0.7071068 2.7501
vt -11.51571 -2.008353
vt -12.18653 -1.46063
vt -6.372749 4.290457
vt -7.04357 4.83818
vt 8.838835 4.2501
vt 8.838835 3.2501
vt 0.7071068 4.2501
vt 0.7071068 3.2501
vt 8.838835 5.3501
vt 0.7071068 5.3501
vt -8.25 9.25
vt -8.349999 9.25
vt -0.7071068 4.2501
vt -0.7071068 3.2501
vt -8.838835 4.2501
vt -8.838835 3.2501
vt -0.7071068 5.3501
vt -8.838835 5.3501
vt -5.478322 5.385902
vt -6.149142 5.933625
vt -0.3353655 11.68471
vt -1.006186 12.23243
vt -0.7071068 2.7501
vt -0.7071068 2.2501
vt -8.838835 2.7501
vt -8.838835 2.2501
vt -0.7071068 0
vt -8.838835 0
vt -2.5 15
vt -2.599999 15
vt -12.41958 4.2501
vt -12.41958 3.2501
vt -13.20061 4.2501
vt -13.20061 3.2501
vt -12.41958 5.3501
vt -13.20061 5.3501
vt -12.41958 4.207558
vt -13.12378 3.703476
vt -13.20061 4.207558
vt -13.20061 3.711607
vt -15 2.7501
vt -15 2.2501
vt -15.1 2.7501
vt -15.1 2.2501
vt -15 0
vt -15.1 0
vt -2.5 15.1
vt -2.599999 15.1
vt 12.37437 2.2501
vt 12.37437 0
vt 11.47437 2.2501
vt 11.47437 0
vt -12.37437 2.2501
vt -12.37437 2.7501
vt -11.47437 2.2501
vt -11.47437 2.7501
vt -8.613604 7.613604
vt -7.613604 8.613604
vt -12.37437 0
vt -11.47437 0
vt 12.37437 2.7501
vt 11.47437 2.7501
vt -11.66726 3.2501
vt -11.47437 3.2501
vt 11.66726 3.250102
vt 11.47437 3.250102
vt -11.66726 4.2501
vt -11.47437 4.2501
vt 11.66726 4.2501
vt 11.47437 4.2501
vt -11.66726 5.3501
vt -11.47437 5.3501
vt 11.66726 5.3501
vt 11.47437 5.3501
vt 6.575456 2.2501
vt 6.575456 0
vt 6.451242 2.2501
vt 6.451242 0
vt -6.575456 2.2501
vt -6.575456 2.7501
vt -6.451242 2.2501
vt -6.451242 2.7501
vt -6.575456 0
vt -6.451242 0
vt 6.575456 2.7501
vt 6.451242 2.7501
vt -6.575456 3.2501
vt -6.451242 3.2501
vt 6.575456 3.2501
vt 6.451242 3.2501
vt -6.575456 4.2501
vt -6.451242 4.2501
vt 6.575456 4.2501
vt 6.451242 4.2501
vt -6.575457 5.3501
vt -6.451242 5.3501
vt 6.575457 5.3501
vt 6.451242 5.3501
vt -7.642893 8.492892
vt -7.676227 8.409559
vt -8.409559 7.676227
vt -8.492892 7.642893
vt 0.60104 4.2501
vt 0.60104 3.2501
vt 0.5185445 3.2501
vt 0.5185445 4.250099
vt 0.5185445 5.3501
vt 0.60104 5.3501
vt 0.60104 2.7501
vt 0.5185445 2.7501
vt 0.60104 2.2501
vt 0.5185445 2.2501
vt 0.60104 0
vt 0.5185445 0
vt -0.5185445 4.2501
vt -0.5185445 3.2501
vt -0.60104 3.2501
vt -0.60104 4.2501
vt -0.5185445 5.3501
vt -0.60104 5.3501
vt -0.5185445 2.7501
vt -0.60104 2.7501
vt -0.5185445 2.2501
vt -0.60104 2.2501
vt -0.5185445 0
vt -0.60104 0
vt -13.75 1.25
vt 1.25 1.25
vt -13.75 13.75
vt 1.25 13.75
vt -13.75 -0.5
vt 1.25 -0.5
vt -13.75 -1.25
vt 1.25 -1.25
vt -11.37437 3.2501
vt -11.37437 4.2501
vt -10.37437 3.7501
vt -10.37437 4.2501
vt 11.37437 4.250099
vt 11.37437 3.2501
vt 10.37437 4.250099
vt 10.37437 3.7501
vt -11.37437 5.3501
vt -10.37437 5.3501
vt 11.37437 5.3501
vt 10.37437 5.3501
vt 0.6256319 3.7501
vt 0.6256312 4.2501
vt -0.6256312 4.250099
vt -0.6256312 3.7501
vt 0.6256312 5.3501
vt -0.6256312 5.3501
vt -0.5185531 3.255152
vt 0.5185359 3.255152
vt 0.4556831 3.155063
vt -0.4556997 3.155062
vt -0.5185456 3.750105
vt 0.5185441 3.750105
vt 0.4556912 3.650006
vt -0.4556921 3.650005
vt -6.153842 6.199878
vt -5.320509 5.454523
vt -5.395761 5.437504
vt -6.229077 6.182844
vt -6.969117 7.702456
vt 0.809058 -0.07571871
vt 0.7646148 -0.1201638
vt -7.013543 7.657995
vt -6.00335 4.7582
vt -6.836666 5.50354
vt -6.011901 4.681522
vt -6.845234 5.426877
vt 0.1201675 -0.7646071
vt -7.65799 7.013551
vt 0.07572445 -0.8090513
vt -7.70245 6.969123

vn 1 0 0
vn 0.7071068 -0.7071068 0
vn 0 0 1
vn 0 -1 0
vn 0 0 -1
vn -0.6401848 0 -0.768221
vn -0.3200924 -0.3535534 -0.7376639
vn 0 -0.7071068 -0.7071068
vn 0 1 0
vn -1 0 0
vn 0.7071068 0 -0.7071068
vn 0.4082483 -0.8164966 -0.4082483
vn 0.7682215 0 0.6401841
vn 0.7620009 -0.1270006 0.6350003
vn 0.8810005 -0.06350028 0.3175002
vn -0.7071065 0 -0.7071071
vn -0.270276 0 -0.9627829
vn 0.7071071 0 0.7071065
vn 0.9627829 0 0.270276
vn 0.3043661 0 -0.9525551
vn 0.9525551 0 -0.3043661
vn 0.08475525 -0.1259833 -0.9884052
vn 0.01391269 0 -0.9999032
vn 0.3713916 0 -0.9284763
vn 0.5504914 0 -0.8348408
vn 0.9795778 0 0.2010654
vn 0.9884053 -0.1259823 -0.08475436
vn 0.8348408 0 -0.5504914
vn 0.7259967 -0.2737063 0.6308832
vn -0.6308815 -0.2737103 -0.7259967
vn 0.679502 -0.2766839 0.679502
vn -0.6795017 -0.2766856 -0.6795017
vn -0.7071065 -0.0004478105 0.7071069
vn 0.4854354 -0.8518059 0.1969245
vn 0.6067253 -0.7936047 0.045562
vn 0.3421371 -0.8751482 0.3421371
vn -0.1969215 -0.8518073 -0.4854341
vn -0.04555842 -0.7936063 -0.6067235
vn -0.3421381 -0.8751474 -0.3421381

usemtl Concrete025-003
f 49/70/4 35/43/4 34/41/4
f 47/55/4 49/70/4 34/41/4
f 47/55/4 5/56/4 49/70/4
f 48/68/9 6/67/9 46/66/9
f 37/65/9 48/68/9 46/66/9
f 37/65/9 11/69/9 48/68/9
f 108/192/4 100/191/4 88/150/4
f 109/193/4 108/192/4 88/150/4
f 85/149/4 109/193/4 88/150/4
f 85/149/4 97/194/4 109/193/4
f 4/4/1 2/2/1 1/1/1
f 1/1/1 3/3/1 4/4/1
f 8/8/1 6/6/1 5/5/1
f 5/5/1 7/7/1 8/8/1
f 10/10/1 6/5/1 8/7/1
f 8/7/1 9/9/1 10/10/1
f 14/12/1 12/1/1 11/3/1
f 11/3/1 13/11/1 14/12/1
f 16/14/1 10/10/1 9/9/1
f 9/9/1 15/13/1 16/14/1
f 18/16/1 14/12/1 13/11/1
f 13/11/1 17/15/1 18/16/1
f 13/11/1 10/10/1 16/14/1
f 16/14/1 17/15/1 13/11/1
f 24/28/1 20/26/1 19/25/1
f 19/25/1 23/27/1 24/28/1
f 26/32/1 22/30/1 21/29/1
f 21/29/1 25/31/1 26/32/1
f 25/31/1 21/29/1 20/26/1
f 20/26/1 24/28/1 25/31/1
f 28/34/1 24/28/1 23/27/1
f 23/27/1 27/33/1 28/34/1
f 30/36/1 26/32/1 25/31/1
f 25/31/1 29/35/1 30/36/1
f 29/35/1 25/31/1 24/28/1
f 24/28/1 28/34/1 29/35/1
f 12/40/3 32/38/3 31/37/3
f 31/37/3 33/39/3 12/40/3
f 33/44/4 31/42/4 34/41/4
f 34/41/4 35/43/4 33/44/4
f 11/48/5 37/46/5 36/45/5
f 36/45/5 13/47/5 11/48/5
f 7/48/5 39/46/5 38/49/5
f 38/49/5 8/50/5 7/48/5
f 10/64/3 42/63/3 46/37/3
f 46/37/3 6/39/3 10/64/3
f 5/56/4 47/55/4 39/37/4
f 39/37/4 7/39/4 5/56/4
f 50/50/1 4/4/1 3/3/1
f 3/3/1 51/48/1 50/50/1
f 6/6/1 48/50/1 49/48/1
f 49/48/1 5/5/1 6/6/1
f 51/37/5 49/48/5 48/50/5
f 48/50/5 50/38/5 51/37/5
f 3/65/4 35/43/4 49/70/4
f 49/70/4 51/75/4 3/65/4
f 55/49/3 53/40/3 52/39/3
f 52/39/3 54/46/3 55/49/3
f 1/76/4 33/44/4 35/43/4
f 35/43/4 3/65/4 1/76/4
f 53/2/10 12/38/10 33/37/10
f 33/37/10 52/1/10 53/2/10
f 52/80/4 33/44/4 1/76/4
f 1/76/4 54/79/4 52/80/4
f 54/37/1 1/1/1 2/2/1
f 2/2/1 55/38/1 54/37/1
f 56/90/11 12/88/11 14/87/11
f 14/87/11 58/89/11 56/90/11
f 58/89/11 14/87/11 18/91/11
f 18/91/11 59/92/11 58/89/11
f 60/100/11 22/98/11 26/97/11
f 26/97/11 61/99/11 60/100/11
f 61/99/11 26/97/11 30/101/11
f 30/101/11 62/102/11 61/99/11
f 64/104/4 57/86/4 56/85/4
f 56/85/4 63/103/4 64/104/4
f 68/108/11 66/106/11 65/105/11
f 65/105/11 67/107/11 68/108/11
f 67/107/11 65/105/11 69/109/11
f 69/109/11 70/110/11 67/107/11
f 74/118/11 73/116/11 71/115/11
f 71/115/11 72/117/11 74/118/11
f 75/120/11 63/119/11 73/116/11
f 73/116/11 74/118/11 75/120/11
f 76/122/4 64/104/4 63/103/4
f 63/103/4 75/121/4 76/122/4
f 78/126/13 68/124/13 67/123/13
f 67/123/13 77/125/13 78/126/13
f 77/125/13 67/123/13 70/127/13
f 70/127/13 79/128/13 77/125/13
f 80/132/1 72/130/15 68/129/14
f 68/129/14 78/131/15 80/132/1
f 81/136/1 74/134/1 72/133/1
f 72/133/1 80/135/1 81/136/1
f 82/138/1 75/137/1 74/134/1
f 74/134/1 81/136/1 82/138/1
f 83/140/4 76/122/4 75/121/4
f 75/121/4 82/139/4 83/140/4
f 85/144/17 56/142/16 58/141/16
f 58/141/16 84/143/17 85/144/17
f 88/150/4 63/103/4 56/85/4
f 56/85/4 85/149/4 88/150/4
f 86/147/19 73/145/18 63/151/18
f 63/151/18 88/152/19 86/147/19
f 97/170/20 85/168/17 84/167/17
f 84/167/17 96/169/20 97/170/20
f 98/173/21 86/171/19 88/175/19
f 88/175/19 100/176/21 98/173/21
f 96/203/20 114/204/25 109/206/25
f 109/206/25 97/205/20 96/203/20
f 108/217/28 119/215/28 98/216/21
f 98/216/21 100/218/21 108/217/28
f 109/206/25 114/204/25 119/215/28
f 119/215/28 108/217/28 109/206/25

usemtl Floor
f 4/73/9 50/74/9 48/72/9 11/71/9
f 2/78/9 4/73/9 11/71/9 12/77/9
f 53/81/9 55/82/9 2/78/9 12/77/9

usemtl Concrete025-002
f 19/19/2 20/20/2 16/18/2 15/17/2
f 21/23/2 22/24/2 18/22/2 17/21/2
f 20/20/2 21/23/2 17/21/2 16/18/2
f 27/53/6 23/54/6 41/52/6 40/51/6
f 10/56/4 13/43/4 36/41/4 42/55/4
f 23/54/6 19/58/6 43/57/6 41/52/6
f 19/58/7 15/60/8 44/59/7 43/57/6
f 15/60/5 9/62/5 45/61/5 44/59/5
f 9/62/5 8/50/5 38/49/5 45/61/5
f 56/85/4 57/86/4 32/84/4 12/83/4
f 60/95/12 59/96/12 18/94/12 22/93/12
f 68/113/12 72/114/12 71/112/12 66/111/12
f 86/147/19 87/148/19 71/146/18 73/145/18
f 89/154/17 84/143/17 58/141/16 59/153/16
f 87/148/19 90/156/19 66/155/18 71/146/18
f 91/158/17 89/154/17 59/153/16 60/157/16
f 90/156/19 92/160/19 65/159/18 66/155/18
f 93/162/17 91/158/17 60/157/16 61/161/16
f 92/160/19 94/164/19 69/163/18 65/159/18
f 95/166/17 93/162/17 61/161/16 62/165/16
f 98/173/21 99/174/21 87/172/19 86/171/19
f 101/178/20 96/169/20 84/167/17 89/177/17
f 99/174/21 102/180/21 90/179/19 87/172/19
f 103/182/20 101/178/20 89/177/17 91/181/17
f 102/180/21 104/184/21 92/183/19 90/179/19
f 105/186/20 103/182/20 91/181/17 93/185/17
f 104/184/21 106/188/21 94/187/19 92/183/19
f 107/190/20 105/186/20 93/185/17 95/189/17
f 111/198/23 110/197/22 103/196/20 105/195/20
f 111/198/23 105/195/20 107/200/20 112/199/24
f 110/197/22 113/202/25 101/201/20 103/196/20
f 113/202/25 114/204/25 96/203/20 101/201/20
f 116/208/27 115/207/26 104/210/21 102/209/21
f 115/207/26 117/211/26 106/212/21 104/210/21
f 118/213/28 116/208/27 102/209/21 99/214/21
f 113/202/25 110/197/22 116/208/27 118/213/28
f 119/215/28 118/213/28 99/214/21 98/216/21
f 114/204/25 113/202/25 118/213/28 119/215/28
f 128/229/29 129/230/18 115/228/26 116/227/27
f 130/233/16 131/234/30 110/232/22 111/231/23
f 129/230/18 132/236/18 117/235/26 115/228/26
f 133/238/16 130/233/16 111/231/16 112/237/16
f 134/239/31 135/240/18 129/230/18 128/229/29
f 136/241/16 137/242/32 131/234/30 130/233/16
f 135/240/18 138/243/18 132/236/18 129/230/18
f 139/244/16 136/241/16 130/233/16 133/238/16
f 134/249/11 143/252/11 142/251/11 137/250/11
f 116/246/33 110/245/33 141/248/33 140/247/33
f 140/256/35 144/255/34 128/254/29 116/253/27
f 144/260/34 143/259/36 134/258/31 128/257/29
f 140/256/35 141/262/38 145/261/37 144/255/34
f 141/262/38 110/264/22 131/263/30 145/261/37
f 144/260/34 145/266/37 142/265/39 143/259/36
f 145/266/37 131/268/30 137/267/32 142/265/39

usemtl OfficeCeiling006
f 120/219/4 121/220/4 123/222/4 122/221/4
f 120/219/4 124/223/4 125/224/4 121/220/4
f 124/223/4 126/225/4 127/226/4 125/224/4

