# ProBuilder 5.0.4
# https://unity3d.com/unity/features/worldbuilding/probuilder
# 6/6/2022 7:42:16 PM

mtllib ./T-Cross-Type-0.mtl
o T-Cross-Type-0

g T-Cross-Type-0
v -15 0 -2.5
v -15 0 -0.75
v -15 2.2501 -2.5
v -15 2.2501 -0.75
v -15 0 0.75
v -15 0 2.5
v -15 2.2501 0.75
v -15 2.2501 2.5
v -15 2.7501 -2.5
v -15 2.7501 -0.75
v -15 2.7501 0.75
v -15 2.7501 2.5
v -14.5 3.2501 -2.500005
v -14.5 3.2501 -0.7500005
v -14.5 3.2501 0.7499996
v -14.5 3.2501 2
v -14.5 4.2501 -2.500005
v -14.5 4.2501 -0.7500005
v -14.5 4.2501 0.7499996
v -14.5 4.2501 2
v -14.5 5.3501 -2.500005
v -14.5 5.3501 -0.7500005
v -14.5 5.3501 0.7499996
v -14.5 5.3501 2
v -15.1 2.2501 0.75
v -15.1 0 0.75
v -15.1 2.2501 -0.75
v -15.1 0 -0.75
v 0 0 15
v -15 0 15
v -9.25 2.2501 8.25
v -9.25 0 8.25
v -9.25 2.7501 8.25
v -8.75 3.2501 7.75
v -8.75 4.2501 7.75
v -8.75 5.3501 7.75
v -7.75 4.2501 8.75
v -7.75 3.2501 8.75
v -2 4.2501 14.5
v -2 3.2501 14.5
v -7.75 5.3501 8.75
v -2 5.3501 14.5
v -8.25 2.7501 9.25
v -2.5 2.7501 15
v -8.25 2.2501 9.25
v -2.5 2.2501 15
v -8.25 0 9.25
v -2.5 0 15
v -8.613604 2.2501 7.613604
v -8.613604 0 7.613604
v -7.613604 2.2501 8.613604
v -7.613604 2.7501 8.613604
v -7.613604 0 8.613604
v -8.613604 2.7501 7.613604
v -7.613604 3.2501 8.613604
v -8.613604 3.2501 7.613604
v -7.613604 4.2501 8.613604
v -8.613604 4.2501 7.613604
v -7.613604 5.3501 8.613604
v -8.613604 5.3501 7.613604
v -8.492892 2.2501 7.642893
v -8.492892 0 7.642893
v -7.642893 2.2501 8.492892
v -7.642893 2.7501 8.492892
v -7.642893 0 8.492892
v -8.492892 2.7501 7.642893
v -7.642893 3.2501 8.492892
v -8.492892 3.2501 7.642893
v -7.642893 4.2501 8.492892
v -8.492892 4.2501 7.642893
v -7.642893 5.3501 8.492892
v -8.492892 5.3501 7.642893
v -7.676227 0 8.409559
v -8.409559 0 7.676227
v -8.409559 3.2501 7.676227
v -8.409559 4.250099 7.676227
v -8.409559 5.3501 7.676227
v -8.409559 2.7501 7.676227
v -8.409559 2.2501 7.676227
v -7.676227 4.2501 8.409559
v -7.676227 3.2501 8.409559
v -7.676227 5.3501 8.409559
v -7.676227 2.7501 8.409559
v -7.676227 2.2501 8.409559
v -15 4.4 2.5
v 0 4.4 2.5
v -15 4.4 15
v 0 4.4 15
v -15 4.4 0.75
v 0 4.4 0.75
v -15 4.4 -2.499997
v 1.251579E-07 4.4 -2.499999
v -6.96912 3.7501 7.702453
v -6.96912 4.2501 7.702453
v -7.702453 4.250099 6.96912
v -7.702453 3.7501 6.96912
v -6.96912 5.3501 7.702453
v -7.702453 5.3501 6.96912
v 3.309058 3.7501 -2.575721
v 3.309057 4.2501 -2.575721
v 2.575724 4.250099 -3.309054
v 2.575724 3.7501 -3.309054
v 3.309057 5.3501 -2.575721
v 2.575724 5.3501 -3.309054
v 2.620167 3.66 -3.264609
v 3.264616 3.66 -2.620166
v -7.013547 3.66 7.657997
v -7.720638 3.150011 8.365084
v -7.657994 3.66 7.013549
v -8.365084 3.15001 7.720639
v -2.499998 0 15
v -0.7499982 0 15
v -2.499998 2.2501 15
v -0.7499982 2.2501 15
v 0.750002 0 15
v 2.500002 0 15
v 0.750002 2.2501 15
v 2.500002 2.2501 15
v -2.499998 2.7501 15
v -0.7499982 2.7501 15
v 0.750002 2.7501 15
v 2.500002 2.7501 15
v -0.7499982 3.2501 14.50001
v 0.7500023 3.2501 14.50001
v 2.000002 3.2501 14.5
v -0.7499982 4.2501 14.50001
v 0.7500023 4.2501 14.50001
v 2.000002 4.2501 14.5
v -0.75 5.3501 14.5
v 0.7500038 5.3501 14.5
v 2.000002 5.3501 14.5
v 0.750002 2.2501 15.1
v 0.750002 0 15.1
v -0.7499982 2.2501 15.1
v -0.7499982 0 15.1
v 1.251574E-07 0 -2.500002
v 15 0 15
v 15.00001 0 -2.500004
v 8.250002 2.2501 9.249999
v 8.250002 0 9.249999
v 8.250002 2.7501 9.249999
v 7.750002 3.2501 8.749999
v 7.750002 4.2501 8.749999
v 7.750002 5.3501 8.749999
v 8.750002 4.2501 7.749999
v 8.750002 3.2501 7.749999
v 14.5 4.2501 1.999998
v 14.5 3.2501 1.999998
v 8.750002 5.3501 7.749999
v 14.5 5.3501 1.999998
v 9.250002 2.7501 8.249999
v 15 2.7501 2.499998
v 9.250002 2.2501 8.249999
v 15 2.2501 2.499998
v 9.250002 0 8.249999
v 15 0 2.499998
v 15.1 4.2501 2.499998
v 15.1 3.2501 2.499998
v 15.1 5.3501 2.499998
v 15.1 2.7501 2.499998
v 7.613606 2.2501 8.613605
v 7.613606 0 8.613605
v 8.613605 2.2501 7.613606
v 8.613605 2.7501 7.613606
v 8.613605 0 7.613606
v 7.613606 2.7501 8.613605
v 8.613605 3.2501 7.613606
v 7.613606 3.2501 8.613605
v 8.613605 4.2501 7.613606
v 7.613606 4.2501 8.613605
v 8.613605 5.3501 7.613606
v 7.613606 5.3501 8.613605
v 7.642895 2.2501 8.492893
v 7.642895 0 8.492893
v 8.492894 2.2501 7.642895
v 8.492894 2.7501 7.642895
v 8.492894 0 7.642895
v 7.642895 2.7501 8.492893
v 8.492894 3.2501 7.642895
v 7.642895 3.2501 8.492893
v 8.492894 4.2501 7.642895
v 7.642895 4.2501 8.492893
v 8.492894 5.3501 7.642895
v 7.642895 5.3501 8.492893
v 8.409561 0 7.676229
v 7.676229 0 8.409557
v 7.676229 3.2501 8.409557
v 7.676229 4.250099 8.409557
v 7.676229 5.3501 8.409557
v 7.676229 2.7501 8.409557
v 7.676229 2.2501 8.409557
v 8.409561 4.2501 7.676229
v 8.409561 3.2501 7.676229
v 8.409561 5.3501 7.676229
v 8.409561 2.7501 7.676229
v 8.409561 2.2501 7.676229
v 2.500002 4.4 15
v 2.500001 4.4 -2.499999
v 15 4.4 15
v 15.00001 4.4 -2.5
v 0.750002 4.4 15
v 0.7500005 4.4 -2.499999
v 7.702455 3.7501 6.96912
v 7.702455 4.2501 6.96912
v 6.969122 4.250099 7.702454
v 6.969122 3.7501 7.702454
v 7.702455 5.3501 6.96912
v 6.969122 5.3501 7.702454
v -2.075722 3.7501 -2.809054
v -2.075722 4.2501 -2.809054
v -2.809055 4.250099 -2.07572
v -2.809055 3.7501 -2.07572
v -2.075722 5.3501 -2.809054
v -2.809055 5.3501 -2.07572
v -2.764611 3.65 -2.120165
v -2.120167 3.65 -2.764613
v 7.657994 3.65 7.013546
v 8.365086 3.150011 7.720639
v 7.01355 3.65 7.657993
v 7.720641 3.15001 8.365086
v 15 0 0.7499981
v 15 2.2501 0.7499981
v 15 0 -0.7500057
v 15 2.2501 -0.7500057
v 15 2.2501 -2.500006
v 15 2.7501 0.7499981
v 15 2.7501 -0.7500057
v 15 2.7501 -2.500006
v 14.50001 3.2501 2.500002
v 14.50001 3.2501 0.7499981
v 14.50001 3.2501 -0.7500019
v 14.50001 3.2501 -2.500008
v 14.50001 4.2501 2.500002
v 14.50001 4.2501 0.7499981
v 14.50001 4.2501 -0.7500019
v 14.50001 4.2501 -2.500008
v 14.50001 5.3501 2.500002
v 14.50001 5.3501 0.7499981
v 14.50001 5.3501 -0.7500019
v 14.50001 5.3501 -2.500008
v 15.1 2.2501 -0.7500057
v 15.1 0 -0.7500057
v 15.1 2.2501 0.7499981
v 15.1 0 0.7499981
v 15 0 -5.722046E-06
v -1.132612E-07 2.7501 -2.500002
v -5.365655E-08 3.2502 -2.000002
v -15.00001 3.2502 -2.000001
v 15.00002 3.2502 -2.000004
v -5.365655E-08 4.5003 -2.000002
v -15.00002 4.5003 -2.000001
v 2.500004 4.5003 -2.000003
v 15.00002 4.5003 -2.000004
v -15.1 0 0.7501027

vt 17.5 0
vt 15.75 0
vt 17.5 2.2501
vt 15.75 2.2501
vt 14.25 0
vt 12.5 0
vt 14.25 2.2501
vt 12.5 2.2501
vt 17.5 2.7501
vt 15.75 2.7501
vt 14.25 2.7501
vt 12.5 2.7501
vt 6.338037 -2.5
vt 6.338037 -0.75
vt 7.045142 -2.500005
vt 7.04514 -0.7500005
vt 6.33806 0.75
vt 6.33806 2.5
vt 7.045165 0.7499996
vt 7.045167 2
vt 17.49999 3.2501
vt 15.74998 3.2501
vt 17.49999 4.2501
vt 15.74998 4.2501
vt 14.25004 3.2501
vt 13.00004 3.2501
vt 14.25004 4.2501
vt 13.00004 4.2501
vt 15.75 3.2501
vt 15.75 4.2501
vt 17.49999 5.3501
vt 15.74998 5.3501
vt 14.25004 5.3501
vt 13.00004 5.3501
vt 15.75 5.3501
vt 15.1 2.2501
vt 15.1 0
vt 15 2.2501
vt 15 0
vt 0 1.75
vt 0 3.25
vt 0.09999943 1.75
vt 0.09999943 3.25
vt -9.536743E-07 0
vt -9.536743E-07 2.2501
vt 0.09999847 0
vt 0.09999847 2.2501
vt 6.249917 -21.25009
vt 11.24997 -21.25008
vt 9.499949 -21.25008
vt 23.75009 -6.250088
vt 23.75008 -21.25008
vt 8.838835 2.2501
vt 8.838835 0
vt 0.7071068 2.2501
vt 0.7071068 0
vt 8.838835 2.7501
vt 0.7071068 2.7501
vt -11.51571 -2.008353
vt -12.18653 -1.46063
vt -6.372749 4.290457
vt -7.04357 4.83818
vt 8.838835 4.2501
vt 8.838835 3.2501
vt 0.7071068 4.2501
vt 0.7071068 3.2501
vt 8.838835 5.3501
vt 0.7071068 5.3501
vt -0.7071068 4.2501
vt -0.7071068 3.2501
vt -8.838835 4.2501
vt -8.838835 3.2501
vt -0.7071068 5.3501
vt -8.838835 5.3501
vt -5.478322 5.385902
vt -6.149142 5.933625
vt -0.3353655 11.68471
vt -1.006186 12.23243
vt -0.7071068 2.7501
vt -0.7071068 2.2501
vt -8.838835 2.7501
vt -8.838835 2.2501
vt -0.7071068 0
vt -8.838835 0
vt 12.37437 2.2501
vt 12.37437 0
vt 11.47437 2.2501
vt 11.47437 0
vt -12.37437 2.2501
vt -12.37437 2.7501
vt -11.47437 2.2501
vt -11.47437 2.7501
vt -12.37437 0
vt -11.47437 0
vt 12.37437 2.7501
vt 11.47437 2.7501
vt -11.66726 3.2501
vt -11.47437 3.2501
vt 11.66726 3.250102
vt 11.47437 3.250102
vt -11.66726 4.2501
vt -11.47437 4.2501
vt 11.66726 4.2501
vt 11.47437 4.2501
vt -11.66726 5.3501
vt -11.47437 5.3501
vt 11.66726 5.3501
vt 11.47437 5.3501
vt 6.575456 2.2501
vt 6.575456 0
vt 6.451242 2.2501
vt 6.451242 0
vt -6.575456 2.2501
vt -6.575456 2.7501
vt -6.451242 2.2501
vt -6.451242 2.7501
vt -6.575456 0
vt -6.451242 0
vt 6.575456 2.7501
vt 6.451242 2.7501
vt -6.575456 3.2501
vt -6.451242 3.2501
vt 6.575456 3.2501
vt 6.451242 3.2501
vt -6.575456 4.2501
vt -6.451242 4.2501
vt 6.575456 4.2501
vt 6.451242 4.2501
vt -6.575457 5.3501
vt -6.451242 5.3501
vt 6.575457 5.3501
vt 6.451242 5.3501
vt -8.613604 7.613604
vt -7.613604 8.613604
vt -7.642893 8.492892
vt -7.676227 8.409559
vt -8.409559 7.676227
vt -8.492892 7.642893
vt 0.60104 4.2501
vt 0.60104 3.2501
vt 0.5185445 3.2501
vt 0.5185445 4.250099
vt 0.5185445 5.3501
vt 0.60104 5.3501
vt 0.60104 2.7501
vt 0.5185445 2.7501
vt 0.60104 2.2501
vt 0.5185445 2.2501
vt 0.60104 0
vt 0.5185445 0
vt -0.5185445 4.2501
vt -0.5185445 3.2501
vt -0.60104 3.2501
vt -0.60104 4.2501
vt -0.5185445 5.3501
vt -0.60104 5.3501
vt -0.5185445 2.7501
vt -0.60104 2.7501
vt -0.5185445 2.2501
vt -0.60104 2.2501
vt -0.5185445 0
vt -0.60104 0
vt -11.25 -8.749992
vt -11.25 6.25
vt -23.74999 -8.749992
vt -23.74999 6.25
vt -9.499998 -8.749995
vt -9.499998 6.250001
vt -6.250002 -8.749998
vt -6.25 6.25
vt -11.37437 3.2501
vt -11.37437 4.2501
vt -10.37437 3.7501
vt -10.37437 4.2501
vt 11.37437 4.250099
vt 11.37437 3.2501
vt 10.37437 4.250099
vt 10.37437 3.7501
vt -11.37437 5.3501
vt -10.37437 5.3501
vt 11.37437 5.3501
vt 10.37437 5.3501
vt 4.161167 3.7501
vt 4.161167 4.2501
vt -4.161166 4.250099
vt -4.161166 3.7501
vt 4.161167 5.3501
vt -4.161166 5.3501
vt -0.5185503 3.75014
vt 0.5185407 3.75014
vt 0.4556867 3.660041
vt -0.4556975 3.660041
vt -6.07127 6.225701
vt -5.234591 5.484132
vt -5.307525 5.463271
vt -6.147655 6.207726
vt -6.969099 7.702474
vt 3.309079 -2.5757
vt 3.264637 -2.620145
vt -7.013527 7.658017
vt -5.911921 4.781242
vt -6.75205 5.525701
vt -5.922348 4.708036
vt -6.759027 5.449605
vt 2.620188 -3.264589
vt -7.657974 7.01357
vt 2.575745 -3.309033
vt -7.702432 6.969141
vt 6.088013 -2.750023
vt 6.088013 -1.000023
vt 6.795121 -2.250025
vt 6.795115 -1.000023
vt 6.088013 0.500061
vt 6.088013 2.250061
vt 6.795116 0.500061
vt 6.795119 1.750061
vt 6.088014 -0.9999294
vt 6.795117 -0.9999294
vt 16.99991 3.2501
vt 16.99991 4.2501
vt 16.99991 5.3501
vt 15 2.2501
vt 15 0
vt 23.85009 -5.500086
vt 23.85009 -7.000086
vt 23.75009 -7.000086
vt 23.75009 -5.500086
vt 23.75009 -3.750086
vt 6.249916 -6.250087
vt 23.75009 8.749913
vt 6.249915 8.749917
vt -12.41958 4.2501
vt -12.41958 3.2501
vt -13.20061 4.2501
vt -13.20061 3.2501
vt -12.41958 5.3501
vt -13.20061 5.3501
vt -12.41958 4.207558
vt -13.12378 3.703476
vt -13.20061 4.207558
vt -13.20061 3.711607
vt -7.642866 4.2501
vt -7.642866 3.2501
vt -7.6762 3.2501
vt -7.6762 4.250099
vt -7.676199 5.3501
vt -7.642865 5.3501
vt -7.642879 2.7501
vt -7.676213 2.7501
vt -7.642879 2.2501
vt -7.676213 2.2501
vt -7.732568 2.248688
vt -7.642902 2.250935
vt -7.586527 0.001412272
vt -7.676193 -0.0008348227
vt -8.409539 4.250631
vt -8.40316 3.25014
vt -8.492866 3.249568
vt -8.499245 4.250059
vt -8.409536 5.350584
vt -8.403145 4.250137
vt -8.492864 4.249616
vt -8.499256 5.350062
vt -8.409559 3.251138
vt -8.403316 2.750177
vt -8.492867 2.749061
vt -8.499111 3.250022
vt -8.483035 3.239055
vt -7.692413 3.35788
vt -7.602727 2.761144
vt -8.39335 2.64232
vt -8.409559 2.751138
vt -8.403316 2.250177
vt -8.492867 2.249061
vt -8.499111 2.750022
vt -8.483035 2.739055
vt -7.692413 2.85788
vt -7.602727 2.261144
vt -8.39335 2.142319
vt -8.409548 2.2501
vt -8.409548 0
vt -8.49288 0
vt -8.49288 2.2501
vt -7.675437 2.2501
vt -7.676214 -0.0002532005
vt -8.410325 3.576279E-07
vt -23.75 8.750002
vt -6.25 8.750001
vt -23.74999 21.25
vt -6.249998 21.25
vt -23.75 7.000002
vt -6.249999 8.75
vt -6.249999 7
vt -6.25 7
vt 3.454057 3.7501
vt 3.454057 4.2501
vt -3.454057 4.250099
vt -3.454057 3.7501
vt 3.454057 5.3501
vt -3.454057 5.3501
vt 0.4556904 3.649987
vt -0.4556934 3.649987
vt 8.417053 6.131171
vt 7.702265 5.320452
vt 7.650517 5.418451
vt 8.365289 6.229152
vt 10.11667 7.969109
vt 0.3384972 -1.809065
vt 0.2940521 -1.764624
vt 10.07221 8.013535
vt 7.64352 5.394537
vt 7.011701 6.02515
vt 7.735135 6.837914
vt 8.366953 6.207302
vt 7.090037 6.001066
vt 6.969416 6.021379
vt 7.599759 6.847539
vt 7.720365 6.82721
vt -2.120162 -2.764614
vt -2.764606 -2.120167
vt 7.013554 7.657991
vt 7.657998 7.013545
vt -3.178832 -1.120163
vt -3.223315 -1.075679
vt 6.554911 8.702447
vt 6.599378 8.657947
vt 6.338064 2.499997
vt 7.045169 2.5
vt 6.33806 0.7499999
vt 12.5 3.2501
vt 12.5 4.2501
vt 12.5 5.3501
vt 7.99993 8.849914
vt 9.499949 8.849914
vt 9.499949 8.749915
vt 8.749937 8.749915
vt 7.99993 8.749915
vt -15 -3.443808E-14
vt -15.00001 2.7501
vt 15.00001 2.7501
vt 1.847622E-07 2.7501
vt 1.64894E-07 0.1772168
vt -15.00001 0.1772168
vt 1.688676E-07 0.8843942
vt -15.00001 0.8843942
vt 15.00001 0.1772166
vt 15.00002 0.884394
vt -15.00001 3.2502
vt 1.841855E-07 4.5003
vt -15.00002 4.5003
vt 2.500004 4.5003
vt 15.00002 3.2502
vt 15.00002 4.5003
vt 7.999935 -21.25008
vt 7.999935 -21.35008
vt 9.500051 -21.25009
vt 9.500051 -21.35009

vn 1 0 0
vn 0.7071081 -0.7071055 0
vn 0 0 -1
vn 0 -1 0
vn 0 0 1
vn 0 1 0
vn 0.7071068 0 -0.7071068
vn 0.4082483 -0.8164966 -0.4082483
vn -0.7071065 0 -0.7071071
vn -0.270276 0 -0.9627829
vn 0.7071071 0 0.7071065
vn 0.9627829 0 0.270276
vn 0.3043661 0 -0.9525551
vn 0.9525551 0 -0.3043661
vn 0.08475525 -0.1259833 -0.9884052
vn 0.01391269 0 -0.9999032
vn 0.3713916 0 -0.9284763
vn 0.5504914 0 -0.8348408
vn 0.9795778 0 0.2010654
vn 0.9884053 -0.1259823 -0.08475436
vn 0.8348408 0 -0.5504914
vn 0.7247311 -0.2906638 0.6247235
vn -0.6247201 -0.2906726 -0.7247305
vn 0.6745677 -0.2998609 0.674568
vn -0.6745656 -0.2998705 -0.6745657
vn 0.4741812 -0.8624957 0.1767859
vn 0.604029 -0.7963313 0.03170909
vn 0.3270584 -0.8866034 0.3270584
vn -0.1767777 -0.8625005 -0.4741757
vn -0.03170303 -0.7963341 -0.6040256
vn -0.3270537 -0.8866068 -0.3270539
vn 0 -0.7071081 -0.7071055
vn -1 0 0
vn -0.4082484 -0.8164966 -0.4082482
vn 0.6401841 0 -0.7682215
vn 0.6350003 -0.1270006 -0.7620009
vn 0.3175002 -0.06350028 -0.8810005
vn -0.7071055 0 0.7071081
vn -0.9627823 0 0.2702779
vn 0.2702783 0 -0.9627822
vn -0.9525572 0 -0.3043597
vn -0.3043649 0 -0.9525555
vn -0.9884062 -0.1259807 -0.08474746
vn -0.9999034 0 -0.01390354
vn -0.9284807 0 -0.3713806
vn -0.8348433 0 -0.5504876
vn 0.2010636 0 -0.9795781
vn -0.08475463 -0.1259812 -0.9884055
vn -0.5504923 0 -0.8348402
vn 0.6308836 -0.2737066 -0.7259963
vn -0.725996 -0.2737088 0.630883
vn 0.6795022 -0.2766825 -0.6795024
vn -0.6795011 -0.2766877 0.6795014
vn 0.1969243 -0.8518059 -0.4854356
vn 0.045563 -0.7936046 -0.6067253
vn 0.3421401 -0.8751459 -0.3421402
vn -0.4854334 -0.8518078 0.196921
vn -0.6067251 -0.793605 0.04556147
vn -0.3421354 -0.8751495 0.3421355
vn -0.7071081 -0.7071055 0
vn 7.868195E-08 -0.7070361 0.7071775

usemtl Concrete024-Foundation-Paintings
f 73/136/4 65/135/4 53/134/4
f 74/137/4 73/136/4 53/134/4
f 50/133/4 74/137/4 53/134/4
f 50/133/4 62/138/4 74/137/4
f 185/136/4 177/135/4 165/134/4
f 186/137/4 185/136/4 165/134/4
f 162/133/4 186/137/4 165/134/4
f 162/133/4 174/138/4 186/137/4
f 228/340/5 136/44/5 138/39/5
f 228/340/5 246/341/5 136/44/5
f 246/341/5 1/338/5 136/44/5
f 246/341/5 9/339/5 1/338/5
f 250/349/5 248/348/5 247/41/5
f 250/349/5 251/350/5 248/348/5
f 252/351/5 250/349/5 247/41/5
f 253/353/5 247/41/5 249/352/5
f 253/353/5 252/351/5 247/41/5
f 228/340/5 136/44/5 138/39/5
f 228/340/5 246/341/5 136/44/5
f 246/341/5 1/338/5 136/44/5
f 246/341/5 9/339/5 1/338/5
f 4/4/1 2/2/1 1/1/1
f 1/1/1 3/3/1 4/4/1
f 8/8/1 6/6/1 5/5/1
f 5/5/1 7/7/1 8/8/1
f 10/10/1 4/4/1 3/3/1
f 3/3/1 9/9/1 10/10/1
f 12/12/1 8/8/1 7/7/1
f 7/7/1 11/11/1 12/12/1
f 7/7/1 4/4/1 10/10/1
f 10/10/1 11/11/1 7/7/1
f 18/24/1 14/22/1 13/21/1
f 13/21/1 17/23/1 18/24/1
f 20/28/1 16/26/1 15/25/1
f 15/25/1 19/27/1 20/28/1
f 19/27/1 15/25/1 14/29/1
f 14/29/1 18/30/1 19/27/1
f 22/32/1 18/24/1 17/23/1
f 17/23/1 21/31/1 22/32/1
f 24/34/1 20/28/1 19/27/1
f 19/27/1 23/33/1 24/34/1
f 23/33/1 19/27/1 18/30/1
f 18/30/1 22/35/1 23/33/1
f 5/39/3 26/37/3 25/36/3
f 25/36/3 7/38/3 5/39/3
f 4/47/5 27/45/5 28/44/5
f 28/44/5 2/46/5 4/47/5
f 32/56/7 6/54/7 8/53/7
f 8/53/7 31/55/7 32/56/7
f 31/55/7 8/53/7 12/57/7
f 12/57/7 33/58/7 31/55/7
f 34/66/7 16/64/7 20/63/7
f 20/63/7 35/65/7 34/66/7
f 35/65/7 20/63/7 24/67/7
f 24/67/7 36/68/7 35/65/7
f 40/72/7 38/70/7 37/69/7
f 37/69/7 39/71/7 40/72/7
f 39/71/7 37/69/7 41/73/7
f 41/73/7 42/74/7 39/71/7
f 46/82/7 45/80/7 43/79/7
f 43/79/7 44/81/7 46/82/7
f 48/84/7 47/83/7 45/80/7
f 45/80/7 46/82/7 48/84/7
f 50/88/10 32/86/9 31/85/9
f 31/85/9 49/87/10 50/88/10
f 51/91/12 45/89/11 47/93/11
f 47/93/11 53/94/12 51/91/12
f 62/112/13 50/110/10 49/109/10
f 49/109/10 61/111/13 62/112/13
f 63/115/14 51/113/12 53/117/12
f 53/117/12 65/118/14 63/115/14
f 61/147/13 79/148/18 74/150/18
f 74/150/18 62/149/13 61/147/13
f 73/161/21 84/159/21 63/160/14
f 63/160/14 65/162/14 73/161/21
f 74/150/18 79/148/18 84/159/21
f 84/159/21 73/161/21 74/150/18
f 114/4/3 112/2/3 111/1/3
f 111/1/3 113/3/3 114/4/3
f 118/8/3 116/6/3 115/5/3
f 115/5/3 117/7/3 118/8/3
f 120/10/3 114/4/3 113/3/3
f 113/3/3 119/9/3 120/10/3
f 122/12/3 118/8/3 117/7/3
f 117/7/3 121/11/3 122/12/3
f 117/7/3 114/4/3 120/10/3
f 120/10/3 121/11/3 117/7/3
f 126/24/3 123/22/3 40/219/3
f 40/219/3 39/220/3 126/24/3
f 128/28/3 125/26/3 124/25/3
f 124/25/3 127/27/3 128/28/3
f 127/27/3 124/25/3 123/29/3
f 123/29/3 126/30/3 127/27/3
f 129/32/3 126/24/3 39/220/3
f 39/220/3 42/221/3 129/32/3
f 131/34/3 128/28/3 127/27/3
f 127/27/3 130/33/3 131/34/3
f 130/33/3 127/27/3 126/30/3
f 126/30/3 129/35/3 130/33/3
f 115/223/33 133/37/33 132/36/33
f 132/36/33 117/222/33 115/223/33
f 114/47/1 134/45/1 135/44/1
f 135/44/1 112/46/1 114/47/1
f 140/56/9 116/54/9 118/53/9
f 118/53/9 139/55/9 140/56/9
f 139/55/9 118/53/9 122/57/9
f 122/57/9 141/58/9 139/55/9
f 142/66/9 125/64/9 128/63/9
f 128/63/9 143/65/9 142/66/9
f 143/65/9 128/63/9 131/67/9
f 131/67/9 144/68/9 143/65/9
f 148/72/9 146/70/9 145/69/9
f 145/69/9 147/71/9 148/72/9
f 147/71/9 145/69/9 149/73/9
f 149/73/9 150/74/9 147/71/9
f 154/82/9 153/80/9 151/79/9
f 151/79/9 152/81/9 154/82/9
f 156/84/9 155/83/9 153/80/9
f 153/80/9 154/82/9 156/84/9
f 158/235/35 148/233/35 147/232/35
f 147/232/35 157/234/35 158/235/35
f 157/234/35 147/232/35 150/236/35
f 150/236/35 159/237/35 157/234/35
f 160/241/3 152/239/37 148/238/36
f 148/238/36 158/240/37 160/241/3
f 162/88/39 140/86/38 139/85/38
f 139/85/38 161/87/39 162/88/39
f 163/91/40 153/89/7 155/93/7
f 155/93/7 165/94/40 163/91/40
f 174/112/41 162/110/39 161/109/39
f 161/109/39 173/111/41 174/112/41
f 175/115/42 163/113/40 165/117/40
f 165/117/40 177/118/42 175/115/42
f 173/253/41 191/252/46 186/255/46
f 186/255/46 174/254/41 173/253/41
f 185/281/49 196/280/49 175/283/42
f 175/283/42 177/282/42 185/281/49
f 186/285/46 191/284/46 196/280/49
f 196/280/49 185/286/49 186/285/46
f 222/4/33 221/2/33 156/1/33
f 156/1/33 154/3/33 222/4/33
f 225/8/33 138/6/33 223/5/33
f 223/5/33 224/7/33 225/8/33
f 226/10/33 222/4/33 154/3/33
f 154/3/33 152/9/33 226/10/33
f 228/12/33 225/8/33 224/7/33
f 224/7/33 227/11/33 228/12/33
f 224/7/33 222/4/33 226/10/33
f 226/10/33 227/11/33 224/7/33
f 234/24/33 230/22/33 229/21/33
f 229/21/33 233/23/33 234/24/33
f 236/331/33 232/330/33 231/25/33
f 231/25/33 235/27/33 236/331/33
f 235/27/33 231/25/33 230/29/33
f 230/29/33 234/30/33 235/27/33
f 238/32/33 234/24/33 233/23/33
f 233/23/33 237/31/33 238/32/33
f 240/332/33 236/331/33 235/27/33
f 235/27/33 239/33/33 240/332/33
f 239/33/33 235/27/33 234/30/33
f 234/30/33 238/35/33 239/33/33
f 223/39/5 242/37/5 241/36/5
f 241/36/5 224/38/5 223/39/5

usemtl Floor
f 29/51/6 112/226/6 135/225/6
f 133/224/6 29/51/6 135/225/6
f 133/224/6 115/227/6 29/51/6
f 245/336/6 221/335/6 244/334/6
f 242/333/6 245/336/6 244/334/6
f 242/333/6 223/337/6 245/336/6
f 137/230/6 136/229/6 116/228/6
f 137/230/6 138/231/6 136/229/6
f 136/229/6 115/227/6 116/228/6
f 136/229/6 29/51/6 115/227/6
f 29/51/6 5/50/6 6/49/6
f 29/51/6 1/48/6 5/50/6
f 29/51/6 136/229/6 1/48/6
f 30/52/6 29/51/6 6/49/6
f 5/356/6 2/354/6 28/355/6
f 28/355/6 254/357/6 5/356/6

usemtl Concrete024
f 13/15/2 14/16/2 10/14/2 9/13/2
f 15/19/2 16/20/2 12/18/2 11/17/2
f 14/16/2 15/19/2 11/17/2 10/14/2
f 4/42/4 7/43/4 25/41/4 27/40/4
f 34/61/8 33/62/8 12/60/8 16/59/8
f 40/77/8 44/78/8 43/76/8 38/75/8
f 51/91/12 52/92/12 43/90/11 45/89/11
f 54/96/10 49/87/10 31/85/9 33/95/9
f 52/92/12 55/98/12 38/97/11 43/90/11
f 56/100/10 54/96/10 33/95/9 34/99/9
f 55/98/12 57/102/12 37/101/11 38/97/11
f 58/104/10 56/100/10 34/99/9 35/103/9
f 57/102/12 59/106/12 41/105/11 37/101/11
f 60/108/10 58/104/10 35/103/9 36/107/9
f 63/115/14 64/116/14 52/114/12 51/113/12
f 66/120/13 61/111/13 49/109/10 54/119/10
f 64/116/14 67/122/14 55/121/12 52/114/12
f 68/124/13 66/120/13 54/119/10 56/123/10
f 67/122/14 69/126/14 57/125/12 55/121/12
f 70/128/13 68/124/13 56/123/10 58/127/10
f 69/126/14 71/130/14 59/129/12 57/125/12
f 72/132/13 70/128/13 58/127/10 60/131/10
f 76/142/16 75/141/15 68/140/13 70/139/13
f 76/142/16 70/139/13 72/144/13 77/143/17
f 75/141/15 78/146/18 66/145/13 68/140/13
f 78/146/18 79/148/18 61/147/13 66/145/13
f 81/152/20 80/151/19 69/154/14 67/153/14
f 80/151/19 82/155/19 71/156/14 69/154/14
f 83/157/21 81/152/20 67/153/14 64/158/14
f 78/146/18 75/141/15 81/152/20 83/157/21
f 84/159/21 83/157/21 64/158/14 63/160/14
f 79/148/18 78/146/18 83/157/21 84/159/21
f 93/173/22 94/174/11 80/172/19 81/171/20
f 95/177/9 96/178/23 75/176/15 76/175/16
f 94/174/11 97/180/11 82/179/19 80/172/19
f 98/182/9 95/177/9 76/175/9 77/181/9
f 99/183/24 100/184/11 94/174/11 93/173/22
f 101/185/9 102/186/25 96/178/23 95/177/9
f 100/184/11 103/187/11 97/180/11 94/174/11
f 104/188/9 101/185/9 95/177/9 98/182/9
f 99/189/7 106/192/7 105/191/7 102/190/7
f 108/196/27 107/195/26 93/194/22 81/193/20
f 107/200/26 106/199/28 99/198/24 93/197/22
f 108/196/27 110/202/30 109/201/29 107/195/26
f 110/202/30 75/204/15 96/203/23 109/201/29
f 107/200/26 109/206/29 105/205/31 106/199/28
f 109/206/29 96/208/23 102/207/25 105/205/31
f 40/211/32 123/212/32 120/210/32 119/209/32
f 124/215/32 125/216/32 122/214/32 121/213/32
f 123/218/32 124/215/32 121/213/32 120/217/32
f 114/42/4 117/43/4 132/41/4 134/40/4
f 142/61/34 141/62/34 122/60/34 125/59/34
f 148/77/34 152/78/34 151/76/34 146/75/34
f 163/91/40 164/92/40 151/90/7 153/89/7
f 166/96/39 161/87/39 139/85/38 141/95/38
f 164/92/40 167/98/40 146/97/7 151/90/7
f 168/100/39 166/96/39 141/95/38 142/99/38
f 167/98/40 169/102/40 145/101/7 146/97/7
f 170/104/39 168/100/39 142/99/38 143/103/38
f 169/102/40 171/106/40 149/105/7 145/101/7
f 172/108/39 170/104/39 143/103/38 144/107/38
f 175/115/42 176/116/42 164/114/40 163/113/40
f 178/120/41 173/111/41 161/109/39 166/119/39
f 176/116/42 179/122/42 167/121/40 164/114/40
f 180/124/41 178/120/41 166/119/39 168/123/39
f 179/122/42 181/126/42 169/125/40 167/121/40
f 182/128/41 180/124/41 168/123/39 170/127/39
f 181/126/42 183/130/42 171/129/40 169/125/40
f 184/132/41 182/128/41 170/127/39 172/131/39
f 188/245/44 187/244/43 180/243/41 182/242/41
f 188/245/44 182/242/41 184/247/41 189/246/45
f 187/244/43 190/249/46 178/248/41 180/243/41
f 190/249/46 191/251/46 173/250/41 178/248/41
f 193/257/48 192/256/47 181/259/42 179/258/42
f 192/261/47 194/260/47 183/263/42 181/262/42
f 195/265/49 193/264/48 179/267/42 176/266/42
f 190/270/46 187/269/43 193/268/48 195/271/49
f 196/273/49 195/272/49 176/275/42 175/274/42
f 191/278/46 190/277/46 195/276/49 196/279/49
f 203/173/50 204/174/7 192/172/47 193/171/48
f 205/177/38 206/178/51 187/176/43 188/175/44
f 204/174/7 207/180/7 194/179/47 192/172/47
f 208/182/38 205/177/38 188/175/38 189/181/38
f 209/295/52 210/296/7 204/174/7 203/173/50
f 211/297/38 212/298/53 206/178/51 205/177/38
f 210/296/7 213/299/7 207/180/7 204/174/7
f 214/300/38 211/297/38 205/177/38 208/182/38
f 209/189/9 216/302/9 215/301/9 212/190/9
f 218/306/55 217/305/54 203/304/50 193/303/48
f 217/310/54 216/309/56 209/308/52 203/307/50
f 218/314/55 220/313/58 219/312/57 217/311/54
f 220/318/58 187/317/43 206/316/51 219/315/57
f 217/322/54 219/321/57 215/320/59 216/319/56
f 219/326/57 206/325/51 212/324/53 215/323/59
f 229/15/60 230/16/60 226/14/60 152/13/60
f 231/19/60 232/328/60 228/327/60 227/17/60
f 230/16/60 231/19/60 227/329/60 226/14/60
f 222/42/4 224/43/4 241/41/4 243/40/4
f 247/344/61 248/345/61 9/343/61 246/342/61
f 249/347/61 247/344/61 246/342/61 228/346/61

usemtl OfficeCeiling006
f 85/163/4 86/164/4 88/166/4 87/165/4
f 85/163/4 89/167/4 90/168/4 86/164/4
f 89/167/4 91/169/4 92/170/4 90/168/4
f 197/287/4 198/288/4 200/290/4 199/289/4
f 197/287/4 201/291/4 202/293/4 198/292/4
f 201/291/4 88/166/4 92/170/4 202/294/4

