# ProBuilder 5.0.4
# https://unity3d.com/unity/features/worldbuilding/probuilder
# 5/21/2022 12:19:50 AM

mtllib ./Elevator-Rope.mtl
o Elevator-Rope

g Elevator-Rope
v -0.05 -12.5 0
v -0.05 12.5 0
v -0.03535534 -12.5 0.03535534
v -0.03535534 12.5 0.03535534
v 2.18557E-09 -12.5 0.05
v 2.18557E-09 12.5 0.05
v 0.03535534 -12.5 0.03535534
v 0.03535534 12.5 0.03535534
v 0.05 -12.5 -4.371139E-09
v 0.05 12.5 -4.371139E-09
v 0.03535534 -12.5 -0.03535534
v 0.03535534 12.5 -0.03535534
v -5.962441E-10 -12.5 -0.05
v -5.962441E-10 12.5 -0.05
v -0.03535533 -12.5 -0.03535534
v -0.03535533 12.5 -0.03535534
v 0 -12.5 0
v 0 12.5 0

vt -0.01913417 -12.5
vt -0.01913417 12.5
vt 0.01913418 -12.5
vt 0.01913418 12.5
vt -0.05 0
vt 0 0
vt -0.03535534 0.03535534
vt 0.05 0
vt 0.03535534 0.03535534
vt 2.18557E-09 0.05
vt 0.03535534 -0.03535534
vt -0.03535534 -0.03535534
vt -5.962441E-10 -0.05

vn -1 0 -9.677341E-08
vn -0.7071068 0 0.7071068
vn 3.22578E-08 0 1
vn 0.7071068 0 0.7071068
vn 1 0 -4.83867E-08
vn 0.7071068 0 -0.7071068
vn 4.83867E-08 0 -1
vn -0.7071067 0 -0.7071068
vn 0 -1 0
vn 0 1 0

usemtl Chainmail001
f 1/5/9 17/6/9 3/7/9
f 3/7/9 17/6/9 5/10/9
f 5/10/9 17/6/9 7/9/9
f 7/9/9 17/6/9 9/8/9
f 9/8/9 17/6/9 11/11/9
f 11/11/9 17/6/9 13/13/9
f 13/13/9 17/6/9 15/12/9
f 15/12/9 17/6/9 1/5/9
f 4/9/10 18/6/10 2/8/10
f 6/10/10 18/6/10 4/9/10
f 8/7/10 18/6/10 6/10/10
f 10/5/10 18/6/10 8/7/10
f 12/12/10 18/6/10 10/5/10
f 14/13/10 18/6/10 12/12/10
f 16/11/10 18/6/10 14/13/10
f 2/8/10 18/6/10 16/11/10
f 4/4/2 2/2/1 1/1/1
f 1/1/1 3/3/2 4/4/2
f 6/4/3 4/2/2 3/1/2
f 3/1/2 5/3/3 6/4/3
f 8/4/4 6/2/3 5/1/3
f 5/1/3 7/3/4 8/4/4
f 10/4/5 8/2/4 7/1/4
f 7/1/4 9/3/5 10/4/5
f 12/4/6 10/2/5 9/1/5
f 9/1/5 11/3/6 12/4/6
f 14/4/7 12/2/6 11/1/6
f 11/1/6 13/3/7 14/4/7
f 16/4/8 14/2/7 13/1/7
f 13/1/7 15/3/8 16/4/8
f 2/4/1 16/2/8 15/1/8
f 15/1/8 1/3/1 2/4/1

