# ProBuilder 5.0.4
# https://unity3d.com/unity/features/worldbuilding/probuilder
# 5/21/2022 12:19:50 AM

mtllib ./Elevator-Shafter-Connect.mtl
o Elevator-Shafter-Connect

g Elevator-Shafter-Connect
v -2.4 -0.4999999 2.4
v -2.4 0 2.4
v -2.4 -0.4999999 0.75
v -2.4 0 0.75
v -2.4 -0.4999999 -0.75
v -2.4 0 -0.75
v -2.4 -0.4999999 -2.4
v -2.4 0 -2.4
v 2.4 -0.4999999 -2.4
v 2.4 0 -2.4
v 2.4 0 2.4
v 2.4 -0.4999999 2.4
v 2.5 0 2.5
v -2.5 0 2.5
v 2.5 -0.4999999 2.5
v 2.5 -0.4999999 -2.5
v 2.5 0 -2.5
v -2.5 -0.4999999 2.5
v -2.5 -0.4999999 -2.5
v -2.5 0 -2.5
v -2.5 -0.4999999 -0.75
v -2.5 0 -0.75
v -2.5 -0.4999999 0.75
v -2.5 0 0.75

vt -2.4 -0.4999999
vt -2.4 0
vt -0.75 -0.4999999
vt -0.75 0
vt 0.75 -0.4999999
vt 0.75 0
vt 2.4 -0.4999999
vt 2.4 0
vt -2.5 2.5
vt 2.5 2.5
vt -2.4 2.4
vt 2.4 2.4
vt 2.5 -2.5
vt 2.4 -2.4
vt -2.5 -2.5
vt -2.4 -2.4
vt -2.5 -0.75
vt -2.4 -0.75
vt 2.5 -0.75
vt 2.4 -0.75
vt -2.5 0.75
vt -2.4 0.75
vt 2.5 0.75
vt 2.4 0.75

vn 1 0 0
vn 0 0 1
vn 0 0 -1
vn -1 0 0
vn 0 1 0
vn 0 -1 0

usemtl MetalPlates006
f 3/3/1 4/4/1 2/2/1 1/1/1
f 5/5/1 6/6/1 4/4/1 3/3/1
f 7/7/1 8/8/1 6/6/1 5/5/1
f 9/7/2 10/8/2 8/2/2 7/1/2
f 11/2/3 12/1/3 1/7/3 2/8/3
f 12/7/4 11/8/4 10/2/4 9/1/4

usemtl Light-02
f 11/11/5 2/12/5 14/10/5 13/9/5
f 12/12/6 9/14/6 16/13/6 15/10/6
f 10/16/5 11/11/5 13/9/5 17/15/5
f 1/11/6 12/12/6 15/10/6 18/9/6
f 9/14/6 7/16/6 19/15/6 16/13/6
f 8/14/5 10/16/5 17/15/5 20/13/5
f 7/16/6 5/18/6 21/17/6 19/15/6
f 6/20/5 8/14/5 20/13/5 22/19/5
f 5/18/6 3/22/6 23/21/6 21/17/6
f 4/24/5 6/20/5 22/19/5 24/23/5
f 3/22/6 1/11/6 18/9/6 23/21/6
f 2/12/5 4/24/5 24/23/5 14/10/5

