# ProBuilder 5.0.6
# https://unity3d.com/unity/features/worldbuilding/probuilder
# 12/24/2022 2:01:54 AM

mtllib ./Radar-Antenna.mtl
o Radar-Antenna

g Radar-Antenna
v -0.01250005 0 0
v -0.0125 0.5 0
v -0.01082528 0 0.006249905
v -0.01082532 0.5 0.00625
v -0.006250024 0 0.0108254
v -0.00625 0.5 0.01082532
v 0 0 0.01250005
v 5.463924E-10 0.5 0.0125
v 0.006250024 0 0.0108254
v 0.006250001 0.5 0.01082532
v 0.01082528 0 0.006249905
v 0.01082532 0.5 0.006250001
v 0.01250005 0 0
v 0.0125 0.5 -1.092785E-09
v 0.01082528 0 -0.006249905
v 0.01082532 0.5 -0.00625
v 0.006250024 0 -0.0108254
v 0.006249999 0.5 -0.01082532
v 0 0 -0.01250005
v -1.49061E-10 0.5 -0.0125
v -0.006250024 0 -0.0108254
v -0.006249999 0.5 -0.01082532
v -0.01082528 0 -0.006249905
v -0.01082532 0.5 -0.006250002
v -0.01250005 -0.33 5.372364E-08
v 0 -0.33 5.372364E-08
v -0.01082528 -0.33 0.006249958
v 0 0.5 0
v -0.006250024 -0.33 0.01082545
v 0 -0.33 0.0125001
v 0.006250024 -0.33 0.01082545
v 0.01082528 -0.33 0.006249958
v 0.01250005 -0.33 5.372364E-08
v 0.01082528 -0.33 -0.006249851
v 0.006250024 -0.33 -0.01082534
v 0 -0.33 -0.01249999
v -0.006250024 -0.33 -0.01082534
v -0.01082528 -0.33 -0.006249851
v -0.06031048 0.45 0.2144611
v -0.05499792 0.45 0.2158847
v -0.07095349 0.45 0.2523072
v -0.06470346 0.45 0.2539818
v -0.01082528 -0.05000001 0.006249905
v -0.006250024 -0.05000001 0.0108254
v 0 -0.05000001 0.01250005
v 0.006250024 -0.05000001 0.0108254
v 0.01082528 -0.05000001 0.006249905
v 0.2144598 0.45 0.06031514
v 0.2158834 0.45 0.0550027
v 0.2523056 0.45 0.07095885
v 0.2539805 0.45 0.06470895
v 0.01250005 -0.05000001 0
v 0.01082528 -0.05000001 -0.006249905
v 0.006250024 -0.05000001 -0.0108254
v 0.06031048 0.45 -0.2144611
v 0.05499792 0.45 -0.2158847
v 0.07095349 0.45 -0.2523072
v 0.06470346 0.45 -0.2539818
v 0 -0.05000001 -0.01250005
v -0.006250024 -0.05000001 -0.0108254
v -0.01082528 -0.05000001 -0.006249905
v -0.2144598 0.45 -0.06031512
v -0.2158834 0.45 -0.05500268
v -0.2523056 0.45 -0.07095885
v -0.2539804 0.45 -0.06470895
v -0.01250005 -0.05000001 0
v -0.006250024 -0.3 0.0108254
v 0 -0.3 0.01250005
v -0.01082528 -0.3 0.006249905
v 0.006250024 -0.3 0.0108254
v 0.01082528 -0.3 0.006249905
v 0.01250005 -0.3 0
v 0.01082528 -0.3 -0.006249905
v 0.006250024 -0.3 -0.0108254
v 0 -0.3 -0.01250005
v -0.006250024 -0.3 -0.0108254
v -0.01082528 -0.3 -0.006249905
v -0.01250005 -0.3 0
v 0.01250005 -0.32 5.312759E-08
v 0.01082528 -0.32 -0.006249852
v 0.01082528 -0.32 0.006249958
v 0.006250024 -0.32 -0.01082534
v 0 -0.32 -0.01249999
v -0.006250024 -0.32 -0.01082534
v -0.01082528 -0.32 -0.006249852
v -0.01250005 -0.32 5.312759E-08
v -0.01082528 -0.32 0.006249958
v -0.006250024 -0.32 0.01082545
v 0 -0.32 0.0125001
v 0.006250024 -0.32 0.01082545

vt -0.003235457 -1.107887E-09
vt -0.003235444 0.5
vt 0.00323495 -1.107887E-09
vt 0.003235032 0.5
vt -0.01250005 5.372364E-08
vt 0 5.372364E-08
vt -0.01082528 0.006249958
vt 0.0125 0
vt 0.01082532 0.00625
vt -0.006250024 0.01082545
vt 0.00625 0.01082532
vt 0 0.0125001
vt -5.463924E-10 0.0125
vt 0.01250005 5.372364E-08
vt -0.0125 -1.092785E-09
vt 0.01082528 -0.006249851
vt -0.01082532 -0.00625
vt 0.006250024 -0.01082534
vt -0.006249999 -0.01082532
vt 0 -0.01249999
vt 0.06031057 0.2144614
vt 0.05499801 0.215885
vt 0.07095358 0.2523075
vt 0.06470355 0.2539822
vt -0.003234962 -0.05000001
vt 0.003235591 -0.05000001
vt -0.2144601 0.06031523
vt -0.2158837 0.05500279
vt -0.252306 0.07095894
vt -0.2539808 0.06470904
vt -0.06031057 -0.2144614
vt -0.05499801 -0.215885
vt -0.07095358 -0.2523075
vt -0.06470355 -0.2539822
vt 0.2144601 -0.06031521
vt 0.2158837 -0.05500277
vt 0.252306 -0.07095894
vt 0.2539807 -0.06470904
vt -0.003235307 -0.3
vt 0.003235184 -0.3
vt 0.003235307 0.005119719
vt -0.003235184 0.005119719
vt 0.002750062 0.5019998
vt -0.002749932 0.5019999
vt 0.01207414 -0.05000001
vt 0.2620741 0.45
vt 0.222763 0.45
vt -0.01206665 -0.05000001
vt -0.2227562 0.45
vt -0.262066 0.45
vt 0.003235184 -0.03932165
vt -0.003235307 -0.03932165
vt 0.003235148 0.5196954
vt -0.003235344 0.5196954
vt -0.003235508 -0.32
vt 0.003234899 -0.32
vt -0.003234962 -0.3
vt 0.003235592 -0.3
vt -0.003234924 -0.32
vt 0.003235629 -0.32
vt -0.003235509 -0.33
vt 0.003234898 -0.33

vn -1 3.812069E-08 4.242389E-06
vn -0.8660297 -1.094083E-07 0.4999924
vn -0.5000033 7.100539E-08 0.8660235
vn -0.4999988 1.400187E-07 0.866026
vn -1.357558E-06 1.130561E-07 1
vn 0.5000101 1.398202E-07 0.8660195
vn 0.8660244 -8.01026E-08 0.5000017
vn 1 3.767414E-08 -4.28867E-06
vn 0.8660297 -1.091515E-07 -0.4999924
vn 0.5000033 7.147104E-08 -0.8660235
vn 0.4999988 1.403596E-07 -0.866026
vn 1.357558E-06 1.131626E-07 -1
vn -0.5000101 1.403391E-07 -0.8660195
vn -0.8660244 -7.937518E-08 -0.5000018
vn 0 -1 0
vn 0 1 0
vn -0.7071252 0 0.7070884
vn 0.2588137 0 0.9659272
vn 0.7071252 0 0.7070884
vn 0.9659214 0 -0.2588356
vn 0.7071252 0 -0.7070884
vn -0.2588137 0 -0.9659272
vn -0.7071252 0 -0.7070884
vn -0.9659214 0 0.2588356
vn -0.2588137 0 0.9659272
vn 0.9659214 0 0.2588356
vn 0.2588137 0 -0.9659272
vn -0.9659214 0 -0.2588356
vn -0.234395 0.4240236 0.8747931
vn 0.9642818 0.003428682 0.2647623
vn 0.9626363 0.006857364 0.2707108
vn -0.9653286 0 -0.2610377
vn -0.9671791 0.00308549 -0.2539528
vn -0.9690295 0.006170979 -0.2468678
vn 0.2314901 -0.4472136 -0.8639516
vn 0.8747878 0.4240237 0.2344147
vn 0.2647826 0.003427758 -0.9642762
vn 0.2707294 0.006855515 -0.9626311
vn -0.2610604 0 0.9653225
vn -0.2539731 0.003086516 0.9671737
vn -0.2468858 0.006173033 0.969025
vn -0.8639464 -0.4472136 -0.2315096
vn 0.234395 0.4240236 -0.8747931
vn -0.9642818 0.003428682 -0.2647623
vn -0.9626363 0.006857364 -0.2707108
vn 0.9653286 0 0.2610377
vn 0.9671791 0.00308549 0.2539528
vn 0.9690295 0.006170979 0.2468678
vn -0.2314901 -0.4472136 0.8639516
vn -0.8747878 0.4240237 -0.2344147
vn -0.2647824 0.003427656 0.9642763
vn -0.270729 0.006855312 0.9626312
vn 0.2610604 0 -0.9653225
vn 0.2539726 0.003086766 -0.9671738
vn 0.2468847 0.006173532 -0.9690252
vn 0.8639463 -0.4472138 0.2315095

usemtl Metal041A
f 25/5/15 26/6/15 27/7/15
f 27/7/15 26/6/15 29/10/15
f 29/10/15 26/6/15 30/12/15
f 30/12/15 26/6/15 31/11/15
f 31/11/15 26/6/15 32/9/15
f 32/9/15 26/6/15 33/14/15
f 33/14/15 26/6/15 34/16/15
f 34/16/15 26/6/15 35/18/15
f 35/18/15 26/6/15 36/20/15
f 36/20/15 26/6/15 37/19/15
f 37/19/15 26/6/15 38/17/15
f 38/17/15 26/6/15 25/5/15
f 4/9/16 28/6/16 2/8/16
f 6/11/16 28/6/16 4/9/16
f 8/13/16 28/6/16 6/11/16
f 10/10/16 28/6/16 8/13/16
f 12/7/16 28/6/16 10/10/16
f 14/15/16 28/6/16 12/7/16
f 16/17/16 28/6/16 14/15/16
f 18/19/16 28/6/16 16/17/16
f 20/20/16 28/6/16 18/19/16
f 22/18/16 28/6/16 20/20/16
f 24/16/16 28/6/16 22/18/16
f 2/8/16 28/6/16 24/16/16
f 4/4/2 2/2/1 1/1/1
f 1/1/1 3/3/2 4/4/2
f 6/4/4 4/2/2 3/1/2
f 3/1/2 5/3/3 6/4/4
f 8/4/5 6/2/4 5/1/3
f 5/1/3 7/3/5 8/4/5
f 10/4/6 8/2/5 7/1/5
f 7/1/5 9/3/6 10/4/6
f 12/4/7 10/2/6 9/1/6
f 9/1/6 11/3/7 12/4/7
f 14/4/8 12/2/7 11/1/7
f 11/1/7 13/3/8 14/4/8
f 16/4/9 14/2/8 13/1/8
f 13/1/8 15/3/9 16/4/9
f 18/4/11 16/2/9 15/1/9
f 15/1/9 17/3/10 18/4/11
f 20/4/12 18/2/11 17/1/10
f 17/1/10 19/3/12 20/4/12
f 22/4/13 20/2/12 19/1/12
f 19/1/12 21/3/13 22/4/13
f 24/4/14 22/2/13 21/1/13
f 21/1/13 23/3/14 24/4/14
f 2/4/1 24/2/14 23/1/14
f 23/1/14 1/3/1 2/4/1
f 42/24/16 40/22/16 39/21/16
f 39/21/16 41/23/16 42/24/16
f 44/26/17 5/3/17 3/1/17
f 3/1/17 43/25/17 44/26/17
f 46/26/18 9/3/18 7/1/18
f 7/1/18 45/25/18 46/26/18
f 47/26/19 11/3/19 9/1/19
f 9/1/19 46/25/19 47/26/19
f 51/30/16 49/28/16 48/27/16
f 48/27/16 50/29/16 51/30/16
f 53/26/20 15/3/20 13/1/20
f 13/1/20 52/25/20 53/26/20
f 54/26/21 17/3/21 15/1/21
f 15/1/21 53/25/21 54/26/21
f 58/34/16 56/32/16 55/31/16
f 55/31/16 57/33/16 58/34/16
f 60/26/22 21/3/22 19/1/22
f 19/1/22 59/25/22 60/26/22
f 61/26/23 23/3/23 21/1/23
f 21/1/23 60/25/23 61/26/23
f 65/38/16 63/36/16 62/35/16
f 62/35/16 64/37/16 65/38/16
f 43/26/24 3/3/24 1/1/24
f 1/1/24 66/25/24 43/26/24
f 68/40/25 45/26/25 44/25/25
f 44/25/25 67/39/25 68/40/25
f 67/40/17 44/26/17 43/25/17
f 43/25/17 69/39/17 67/40/17
f 70/40/18 46/26/18 45/25/18
f 45/25/18 68/39/18 70/40/18
f 71/40/19 47/26/19 46/25/19
f 46/25/19 70/39/19 71/40/19
f 72/40/26 52/26/26 47/25/26
f 47/25/26 71/39/26 72/40/26
f 73/40/20 53/26/20 52/25/20
f 52/25/20 72/39/20 73/40/20
f 74/40/21 54/26/21 53/25/21
f 53/25/21 73/39/21 74/40/21
f 75/40/27 59/26/27 54/25/27
f 54/25/27 74/39/27 75/40/27
f 76/40/22 60/26/22 59/25/22
f 59/25/22 75/39/22 76/40/22
f 77/40/23 61/26/23 60/25/23
f 60/25/23 76/39/23 77/40/23
f 78/40/28 66/26/28 61/25/28
f 61/25/28 77/39/28 78/40/28
f 69/40/24 43/26/24 66/25/24
f 66/25/24 78/39/24 69/40/24
f 56/44/29 19/42/29 17/41/29
f 17/41/29 55/43/29 56/44/29
f 55/47/31 17/8/30 54/45/26
f 54/45/26 57/46/30 55/47/31
f 58/50/34 59/48/33 19/15/32
f 19/15/32 56/49/33 58/50/34
f 57/54/35 54/52/35 59/51/35
f 59/51/35 58/53/35 57/54/35
f 63/44/36 1/42/36 23/41/36
f 23/41/36 62/43/36 63/44/36
f 62/47/38 23/8/37 61/45/27
f 61/45/27 64/46/37 62/47/38
f 65/50/41 66/48/40 1/15/39
f 1/15/39 63/49/40 65/50/41
f 64/54/42 61/52/42 66/51/42
f 66/51/42 65/53/42 64/54/42
f 40/44/43 7/42/43 5/41/43
f 5/41/43 39/43/43 40/44/43
f 39/47/45 5/8/44 44/45/28
f 44/45/28 41/46/44 39/47/45
f 42/50/48 45/48/47 7/15/46
f 7/15/46 40/49/47 42/50/48
f 41/54/49 44/52/49 45/51/49
f 45/51/49 42/53/49 41/54/49
f 49/44/50 13/42/50 11/41/50
f 11/41/50 48/43/50 49/44/50
f 48/47/52 11/8/51 47/45/25
f 47/45/25 50/46/51 48/47/52
f 51/50/55 52/48/54 13/15/53
f 13/15/53 49/49/54 51/50/55
f 50/54/56 47/52/56 52/51/56
f 52/51/56 51/53/56 50/54/56
f 34/62/20 80/56/20 79/55/20
f 79/55/20 33/61/20 34/62/20
f 33/62/26 79/56/26 81/55/26
f 81/55/26 32/61/26 33/62/26
f 35/62/21 82/56/21 80/55/21
f 80/55/21 34/61/21 35/62/21
f 36/62/27 83/56/27 82/55/27
f 82/55/27 35/61/27 36/62/27
f 37/62/22 84/56/22 83/55/22
f 83/55/22 36/61/22 37/62/22
f 38/62/23 85/56/23 84/55/23
f 84/55/23 37/61/23 38/62/23
f 25/62/28 86/56/28 85/55/28
f 85/55/28 38/61/28 25/62/28
f 27/62/24 87/56/24 86/55/24
f 86/55/24 25/61/24 27/62/24
f 29/62/17 88/56/17 87/55/17
f 87/55/17 27/61/17 29/62/17
f 30/62/25 89/56/25 88/55/25
f 88/55/25 29/61/25 30/62/25
f 31/62/18 90/56/18 89/55/18
f 89/55/18 30/61/18 31/62/18
f 32/62/19 81/56/19 90/55/19
f 90/55/19 31/61/19 32/62/19

usemtl Light-Generator-0
f 79/55/20 80/56/20 73/40/20 72/39/20
f 81/55/26 79/56/26 72/40/26 71/39/26
f 80/55/21 82/56/21 74/58/21 73/57/21
f 82/55/27 83/56/27 75/58/27 74/57/27
f 83/55/22 84/56/22 76/58/22 75/57/22
f 84/55/23 85/56/23 77/58/23 76/57/23
f 85/55/28 86/56/28 78/40/28 77/39/28
f 86/55/24 87/56/24 69/40/24 78/39/24
f 87/59/17 88/60/17 67/40/17 69/39/17
f 88/59/25 89/60/25 68/40/25 67/39/25
f 89/59/18 90/60/18 70/40/18 68/39/18
f 90/59/19 81/60/19 71/40/19 70/39/19

