# ProBuilder 5.0.4
# https://unity3d.com/unity/features/worldbuilding/probuilder
# 7/6/2022 4:21:40 AM

mtllib ./Door-Type-3-Socket.mtl
o Door-Type-3-Socket

g Door-Type-3-Socket
v 0.1 -1.8 -0.2
v -0.1 -1.8 -0.2
v 0.1 1.8 -0.2
v -0.1 1.8 -0.2
v -0.1 -1.8 -2
v -0.1 1.8 -2
v 0.1 -1.8 -2
v 0.1 1.8 -2
v -0.09999999 -2 -2.1001
v 0.09999999 -2 -2.1001
v -0.09999999 2 -2.1001
v 0.09999999 2 -2.1001
v -0.1 -2 -2
v 0.1 -2 -2
v -0.1501 2 -2
v -0.1501 -2 -2
v -0.1501 2 -2.1501
v -0.1501 -2 -2.1501
v 0.1501 -2 -2
v 0.1501 2 -2
v 0.1501 -2 -2.1501
v 0.1501 2 -2.1501
v 0.1 2 -2
v -0.1 2 -2
v 0.09999999 2 -2.2002
v 0.09999999 -2 -2.2002
v 0.1501 2 -2.2002
v 0.1501 -2 -2.2002
v -0.09999999 -2 -2.2002
v -0.09999999 2 -2.2002
v -0.1501 -2 -2.2002
v -0.1501 2 -2.2002
v -0.1 2 -0.2
v 0.1 2 -0.2
v 0.15 1.8001 -2
v 0.15 2 -0.2
v 0.15 1.8001 -0.2
v 0.1 1.8001 -2
v -0.1 1.8001 -2
v 0.1 1.8001 -0.2
v -0.1 1.8001 -0.2
v -0.15 1.8001 -2
v -0.15 1.8001 -0.2
v -0.15 2 -0.2
v -0.09999999 -2 0.0001000017
v 0.1 -2 0.0001000017
v -0.09999999 -1.8001 0.0001000017
v 0.1 -1.8001 0.0001000017
v 0.1 -2 -0.2
v -0.1 -2 -0.2
v -0.15 -1.8001 -2
v -0.15 -2 -0.2
v -0.15 -1.8001 -0.2
v -0.1 -1.8001 -2
v 0.1 -1.8001 -2
v -0.1 -1.8001 -0.2
v 0.1 -1.8001 -0.2
v 0.15 -1.8001 -2
v 0.15 -1.8001 -0.2
v 0.15 -2 -0.2
v 0.15 -2 0.0001000017
v 0.15 -1.8001 0.0001000017
v -0.15 -1.8001 0.0001000017
v -0.15 -2 0.0001000017
v -0.15 2 0.0001000017
v -0.09999999 2 0.0001000017
v 0.09999999 2 -0.2
v 0.09999999 2 0.0001000017
v 0.15 2 0.0001000017

vt 0.1 -1.8
vt -0.1 -1.8
vt 0.1 1.8
vt -0.1 1.8
vt -0.2 -1.8
vt -2 -1.8
vt -0.2 1.8
vt -2 1.8
vt 2 -1.8
vt 0.2 -1.8
vt 2 1.8
vt 0.2 1.8
vt -0.1 -0.2
vt 0.1 -0.2
vt -0.1 -2
vt 0.1 -2
vt 0.09999999 -2
vt -0.09999999 -2
vt 0.09999999 2
vt -0.09999999 2
vt -0.09999999 -2.1001
vt 0.09999999 -2.1001
vt -2 2
vt -2 -2
vt -2.1501 2
vt -2.1501 -2
vt 2 -2
vt 2 2
vt 2.1501 -2
vt 2.1501 2
vt 0.1 2
vt 0.1501 -2
vt 0.1501 2
vt 0.1501 -2.1501
vt -0.1501 -2
vt -0.1501 -2.1501
vt -0.1501 2
vt -0.1 2
vt -2.1001 2
vt -2.1001 -2
vt -2.2002 2
vt -2.2002 -2
vt -0.1501 -2.2002
vt -0.09999999 -2.2002
vt 0.09999999 -2.2002
vt 0.1501 -2.2002
vt 2.2002 -2
vt 2.2002 2
vt 2.1001 -2
vt 2.1001 2
vt 2 1.8001
vt 0.2 2
vt 0.2 1.8001
vt -2 1.8001
vt -0.2 1.8001
vt -0.2 2
vt 0.1 1.8001
vt 0.15 1.8001
vt -0.15 -0.2
vt 0.15 -0.2
vt -0.1 1.8001
vt -0.15 1.8001
vt -0.09999999 -1.8001
vt 0.1 -1.8001
vt -2 -1.8001
vt -0.2 -2
vt -0.2 -1.8001
vt 2 -1.8001
vt 0.2 -1.8001
vt 0.2 -2
vt -0.1 -1.8001
vt -0.15 -1.8001
vt 0.15 -1.8001
vt 0.1 0.0001000017
vt -0.09999999 0.0001000017
vt 0.15 0.0001000017
vt 0.09999999 0.0001000017
vt -0.09999999 -0.2
vt -0.15 0.0001000017
vt 0.0001000017 -2
vt 0.0001000017 -1.8001
vt -0.0001000017 2

vn 0 0 1
vn -1 0 0
vn 1 0 0
vn 0 1 0
vn 0 -1 0
vn 0 0 -1

usemtl Glass-06
f 3/3/1 4/4/1 2/2/1 1/1/1
f 4/7/2 6/8/2 5/6/2 2/5/2
f 8/11/3 3/12/3 1/10/3 7/9/3
f 8/15/4 6/16/4 4/14/4 3/13/4
f 1/14/5 2/13/5 5/15/5 7/16/5

usemtl Metal002
f 5/2/1 7/1/1 8/3/1 6/4/1
f 11/19/6 12/20/6 10/18/6 9/17/6
f 9/21/5 10/22/5 14/16/5 13/15/5
f 12/21/4 11/22/4 24/16/4 23/15/4
f 19/32/1 20/33/1 23/31/1 14/16/1
f 21/34/5 19/32/5 14/16/5 10/22/5
f 20/35/4 22/36/4 12/21/4 23/15/4
f 27/37/6 28/35/6 26/18/6 25/20/6
f 15/37/1 16/35/1 13/15/1 24/38/1
f 17/34/4 15/32/4 24/16/4 11/22/4
f 16/35/5 18/36/5 9/21/5 13/15/5
f 31/32/6 32/33/6 30/19/6 29/17/6
f 25/41/2 26/42/2 10/40/2 12/39/2
f 27/43/4 25/44/4 12/21/4 22/36/4
f 26/45/5 28/46/5 21/34/5 10/22/5
f 29/47/3 30/48/3 11/50/3 9/49/3
f 31/43/5 29/44/5 9/21/5 18/36/5
f 30/45/4 32/46/4 17/34/4 11/22/4
f 33/14/4 34/13/4 23/15/4 24/16/4
f 36/52/3 37/53/3 35/51/3 20/28/3
f 40/14/5 41/13/5 39/15/5 38/16/5
f 43/55/2 44/56/2 15/23/2 42/54/2
f 42/58/6 15/33/6 24/31/6 39/57/6
f 43/59/5 42/35/5 39/15/5 41/13/5
f 15/32/4 44/60/4 33/14/4 24/16/4
f 20/37/6 35/62/6 38/61/6 23/38/6
f 36/59/4 20/35/4 23/15/4 34/13/4
f 35/32/5 37/60/5 40/14/5 38/16/5
f 48/64/1 47/63/1 45/18/1 46/16/1
f 49/14/5 50/13/5 13/15/5 14/16/5
f 52/66/2 53/67/2 51/65/2 16/24/2
f 56/14/4 57/13/4 55/15/4 54/16/4
f 59/69/3 60/70/3 19/27/3 58/68/3
f 58/72/6 19/35/6 14/15/6 55/71/6
f 59/59/4 58/35/4 55/15/4 57/13/4
f 19/32/5 60/60/5 49/14/5 14/16/5
f 61/32/1 62/73/1 48/64/1 46/16/1
f 16/32/6 51/73/6 54/64/6 13/16/6
f 52/59/5 16/35/5 13/15/5 50/13/5
f 51/32/4 53/60/4 56/14/4 54/16/4
f 63/72/1 64/35/1 45/18/1 47/63/1
f 46/74/5 45/75/5 50/13/5 49/14/5
f 65/76/4 66/77/4 33/14/4 44/60/4
f 66/77/4 68/75/4 67/78/4 33/14/4
f 61/76/5 46/74/5 49/14/5 60/60/5
f 45/75/5 64/79/5 52/59/5 50/13/5
f 64/80/2 63/81/2 53/67/2 52/66/2
f 68/75/4 69/79/4 36/59/4 67/78/4
f 62/81/3 61/80/3 60/70/3 59/69/3
f 33/31/6 67/20/6 57/71/6 56/64/6
f 66/20/1 65/37/1 63/72/1 47/63/1
f 36/52/3 69/82/3 62/81/3 59/69/3
f 68/19/1 66/20/1 47/63/1 48/64/1
f 67/20/6 36/37/6 59/72/6 57/71/6
f 69/33/1 68/19/1 48/64/1 62/73/1
f 44/33/6 33/31/6 56/64/6 53/73/6
f 65/82/2 44/56/2 53/67/2 63/81/2

usemtl PaintedMetal016
f 17/25/2 18/26/2 16/24/2 15/23/2
f 21/29/3 22/30/3 20/28/3 19/27/3
f 28/47/3 27/48/3 22/30/3 21/29/3
f 32/41/2 31/42/2 18/26/2 17/25/2

