# ProBuilder 5.0.4
# https://unity3d.com/unity/features/worldbuilding/probuilder
# 7/6/2022 4:21:40 AM

mtllib ./Door-Type-3-Pin.mtl
o Door-Type-3-Pin

g Door-Type-3-Pin
v -0.1 -1.8 0.2
v 0.09999999 -1.8 0.2
v -0.1 1.8 0.2
v 0.09999999 1.8 0.2
v 0.1 -1.8 2
v 0.1 1.8 2
v -0.1 -1.8 2
v -0.1 1.8 2
v 0.09999999 -2 2.3002
v -0.09999999 -2 2.3002
v 0.09999999 2 2.3002
v -0.09999999 2 2.3002
v 0.1 -2 2
v -0.1 -2 2
v 0.09999999 -2 2.2001
v -0.09999999 -2 2.2001
v 0.1501 2 2
v 0.1501 -2 2
v 0.1501 2 2.2001
v 0.1501 -2 2.2001
v -0.1501 -2 2
v -0.1501 2 2
v -0.1501 -2 2.2001
v -0.1501 2 2.2001
v -0.1 2 2
v 0.1 2 2
v -0.09999999 2 2.2001
v 0.09999999 2 2.2001
v 0.09999999 2 0.2
v -0.1 2 0.2
v -0.15 1.8001 2
v -0.15 2 0.2
v -0.15 1.8001 0.2
v -0.1 1.8001 2
v 0.1 1.8001 2
v -0.1 1.8001 0.2
v 0.09999999 1.8001 0.2
v 0.15 1.8001 2
v 0.15 1.8001 0.2
v 0.15 2 0.2
v 0.09999999 -2 -0.0001000017
v -0.1 -2 -0.0001000017
v 0.09999999 -1.8001 -0.0001000017
v -0.1 -1.8001 -0.0001000017
v -0.1 -2 0.2
v 0.09999999 -2 0.2
v 0.15 -1.8001 2
v 0.15 -2 0.2
v 0.15 -1.8001 0.2
v 0.1 -1.8001 2
v -0.1 -1.8001 2
v 0.09999999 -1.8001 0.2
v -0.1 -1.8001 0.2
v -0.15 -1.8001 2
v -0.15 -1.8001 0.2
v -0.15 -2 0.2
v 0.15 -1.8001 -0.0001000017
v 0.15 -2 -0.0001000017
v -0.15 -2 -0.0001000017
v -0.15 -1.8001 -0.0001000017
v -0.09999999 2 0.2
v 0.09999999 2 -0.0001000017
v -0.09999999 2 -0.0001000017
v 0.15 2 -0.0001000017
v -0.15 2 -0.0001000017

vt 0.1 -2
vt -0.1 -2
vt 0.1 2
vt -0.1 2
vt 0 -2
vt -2 -2
vt 0 2
vt -2 2
vt 2 -2
vt 2 2
vt -0.1 0
vt 0.1 0
vt 0.09999999 -2
vt -0.09999999 -2
vt 0.09999999 2
vt -0.09999999 2
vt -0.09999999 -2.2001
vt 0.09999999 -2.2001
vt -2.2001 2
vt -2.2001 -2
vt 2.2001 -2
vt 2.2001 2
vt 0.1501 -2
vt 0.1501 2
vt 0.1501 -2.2001
vt -0.1501 -2
vt -0.1501 -2.2001
vt -0.1501 2
vt 0.09999999 2.2001
vt -0.09999999 2.2001
vt 0.09999999 2.3002
vt -0.09999999 2.3002
vt -2.3002 2
vt -2.3002 -2
vt 2.3002 -2
vt 2.3002 2
vt -0.09999999 0.2
vt 0.1 0.2
vt 2 1.8001
vt 0.2 2
vt 0.2 1.8001
vt -0.1 0.2
vt 0.09999999 0.2
vt -2 1.8001
vt -0.2 1.8001
vt -0.2 2
vt -0.1 1.8001
vt -0.15 1.8001
vt 0.15 0.2
vt -0.15 0.2
vt 0.1 1.8001
vt 0.15 1.8001
vt -0.09999999 -1.8001
vt 0.1 -1.8001
vt -2 -1.8001
vt -0.2 -2
vt -0.2 -1.8001
vt 2 -1.8001
vt 0.2 -1.8001
vt 0.2 -2
vt 0.15 -1.8001
vt -0.15 -1.8001
vt -0.1 -1.8001
vt -0.09999999 -0.0001000017
vt 0.09999999 -0.0001000017
vt -0.15 -0.0001000017
vt 0.15 -0.0001000017
vt 0.0001000017 -1.8001
vt 0.09999999 -1.8001

vn 0 0 -1
vn 1 0 -4.139212E-09
vn -1 0 0
vn 0 1 0
vn 0 -1 0
vn 0 0 1

usemtl Glass-06
f 3/3/1 4/4/1 2/2/1 1/1/1
f 4/7/2 6/8/2 5/6/2 2/5/2
f 8/10/3 3/7/3 1/5/3 7/9/3
f 8/2/4 6/1/4 4/12/4 3/11/4
f 1/12/5 2/11/5 5/2/5 7/1/5

usemtl Metal002
f 5/2/1 7/1/1 8/3/1 6/4/1
f 11/15/6 12/16/6 10/14/6 9/13/6
f 15/17/5 16/18/5 14/1/5 13/2/5
f 27/17/4 28/18/4 26/1/4 25/2/4
f 21/23/1 22/24/1 25/3/1 14/1/1
f 23/25/5 21/23/5 14/1/5 16/18/5
f 22/26/4 24/27/4 27/17/4 25/2/4
f 24/28/6 23/26/6 16/14/6 27/16/6
f 17/28/1 18/26/1 13/2/1 26/4/1
f 19/25/4 17/23/4 26/1/4 28/18/4
f 18/26/5 20/27/5 15/17/5 13/2/5
f 20/23/6 19/24/6 28/15/6 15/13/6
f 9/31/5 10/32/5 16/30/5 15/29/5
f 11/33/2 9/34/2 15/20/2 28/19/2
f 10/35/3 12/36/3 27/22/3 16/21/3
f 12/31/4 11/32/4 28/30/4 27/29/4
f 29/37/4 30/38/4 25/3/4 26/4/4
f 32/40/3 33/41/3 31/39/3 22/10/3
f 36/42/5 37/43/5 35/3/5 34/4/5
f 39/45/2 40/46/2 17/8/2 38/44/2
f 22/28/6 31/48/6 34/47/6 25/4/6
f 32/49/4 22/24/4 25/3/4 30/38/4
f 31/28/5 33/50/5 36/42/5 34/4/5
f 38/52/6 17/24/6 26/3/6 35/51/6
f 39/49/5 38/24/5 35/3/5 37/43/5
f 17/28/4 40/50/4 29/37/4 26/4/4
f 44/54/1 43/53/1 41/14/1 42/1/1
f 45/42/5 46/43/5 13/3/5 14/4/5
f 48/56/2 49/57/2 47/55/2 18/6/2
f 52/37/4 53/38/4 51/3/4 50/4/4
f 55/59/3 56/60/3 21/9/3 54/58/3
f 18/23/6 47/61/6 50/54/6 13/1/6
f 48/49/5 18/24/5 13/3/5 46/43/5
f 47/28/4 49/50/4 52/37/4 50/4/4
f 57/62/1 58/26/1 41/14/1 43/53/1
f 54/62/6 21/26/6 14/2/6 51/63/6
f 55/49/4 54/24/4 51/3/4 53/38/4
f 21/28/5 56/50/5 45/42/5 14/4/5
f 59/23/1 60/61/1 44/54/1 42/1/1
f 62/64/4 63/65/4 61/43/4 29/37/4
f 64/66/4 62/64/4 29/37/4 40/50/4
f 41/65/5 58/67/5 48/49/5 46/43/5
f 58/5/2 57/68/2 49/57/2 48/56/2
f 42/11/5 41/65/5 46/43/5 45/42/5
f 59/66/5 42/11/5 45/42/5 56/50/5
f 63/65/4 65/67/4 32/49/4 61/43/4
f 60/68/3 59/5/3 56/60/3 55/59/3
f 61/16/6 32/28/6 55/62/6 53/63/6
f 63/15/1 62/16/1 43/53/1 44/54/1
f 32/40/3 65/7/3 60/68/3 55/59/3
f 65/24/1 63/15/1 44/54/1 60/61/1
f 29/15/6 61/16/6 53/63/6 52/69/6
f 62/16/1 64/28/1 57/62/1 43/53/1
f 40/24/6 29/15/6 52/69/6 49/61/6
f 64/7/2 40/46/2 49/57/2 57/68/2

usemtl PaintedMetal016
f 19/19/2 20/20/2 18/6/2 17/8/2
f 23/21/3 24/22/3 22/10/3 21/9/3

