# ProBuilder 5.0.4
# https://unity3d.com/unity/features/worldbuilding/probuilder
# 7/6/2022 4:21:40 AM

mtllib ./Door-Type-3-Frame.mtl
o Door-Type-3-Frame

g Door-Type-3-Frame
v -0.4 3.8001 -2.0001
v -0.4 0 -2.0001
v -0.4 3.8001 -4.2001
v -0.4 0 -4.2001
v 0.4 0 -2.0001
v 0.4 3.8001 -2.0001
v 0.4 0 -4.2001
v 0.4 3.8001 -4.2001
v -0.2 3.8001 -2.0001
v -0.2 0 -2.0001
v -0.2 6.0001 -4.2001
v -0.2 6.0001 -2.0001
v -0.4 6.0001 -4.2001
v -0.4 6.0001 -2.0001
v -0.2 0 -4.2001
v -0.2 3.8001 -4.2001
v -0.2 0.02 2.0001
v -0.2 3.8001 2.0001
v -0.4 0.02 2.0001
v -0.4 3.8001 2.0001
v -0.2 0 4.2001
v -0.2 0 2.0201
v -0.4 0 4.2001
v -0.4 0 2.0201
v -0.2 6.0001 2.0001
v -0.2 6.0001 4.2001
v -0.4 6.0001 2.0001
v -0.4 6.0001 4.2001
v -0.2 3.8001 4.2001
v -0.4 3.8001 4.2001
v 0.2 0 -2.0001
v 0.2 3.8001 -2.0001
v 0.2 0 -4.2001
v 0.2 6.0001 -2.0001
v 0.2 6.0001 -4.2001
v 0.4 6.0001 -2.0001
v 0.4 6.0001 -4.2001
v 0.2 3.8001 -4.2001
v 0.2 3.8001 2.0001
v 0.2 0.02 2.0001
v 0.4 3.8001 2.0001
v 0.4 0.02 2.0001
v 0.2 6.0001 4.2001
v 0.2 6.0001 2.0001
v 0.4 6.0001 4.2001
v 0.4 6.0001 2.0001
v 0.2 0 2.0201
v 0.2 0 4.2001
v 0.4 0 2.0201
v 0.4 0 4.2001
v 0.2 3.8001 4.2001
v 0.4 3.8001 4.2001
v -0.4 0.01992929 -1.999971
v -0.2 0.01992929 -1.999971
v 0.4 0.01992929 -1.999971
v 0.2 0.01992929 -1.999971
v 7.450581E-09 0 4.2001
v 0 3.8001 4.2001
v 0 0 -4.2001
v 0 3.8001 -4.2001
v 0 0 2.0201
v 0 6.0001 2.0001
v 0 6.0001 4.2001
v 0 0 -2.0001
v 0 6.0001 -2.0001
v 0 6.0001 -4.2001
v -0.2 5.8001 2.0001
v 0 5.8001 2.0001
v 0 5.8001 -2.0001
v -0.2 5.8001 -2.0001
v 0 3.8001 2.0001
v 0 3.8001 -2.0001
v 0.2 0 -4.0001
v 0 0 -4.0001
v 0 3.8001 -4.0001
v 0.2 3.8001 -4.0001
v 0.2 3.8001 4.0001
v 0 3.8001 4.0001
v 0 0.02 4.0001
v 0.2 0.02 4.0001
v 0 0.02 2.0001
v 7.450581E-09 0.01992929 -1.999971
v 0 -1.98 2.000135
v -0.2 -1.98 2.000135
v -0.2 -1.980071 -1.999936
v 7.450581E-09 -1.980071 -1.999936

vt -2.0001 3.8001
vt -2.0001 0
vt -4.2001 3.8001
vt -4.2001 0
vt 2.0001 0
vt 2.0001 3.8001
vt 4.2001 0
vt 4.2001 3.8001
vt -0.2 3.8001
vt -0.2 0
vt -0.4 3.8001
vt -0.4 0
vt 0.2 -4.2001
vt 0.2 -2.0001
vt 0.4 -4.2001
vt 0.4 -2.0001
vt -0.2 -2.0001
vt -0.2 -4.2001
vt -0.4 -2.0001
vt -0.4 -4.2001
vt 0.2 0
vt 0.2 3.8001
vt 0.4 0
vt 0.4 3.8001
vt 0.2 0.02
vt 0.4 0.02
vt -0.2 4.2001
vt -0.2 2.0201
vt -0.4 4.2001
vt -0.4 2.0201
vt 0.2 2.0001
vt 0.2 4.2001
vt 0.4 2.0001
vt 0.4 4.2001
vt 0.4 0
vt 0.4 3.8001
vt 0.4 -4.2001
vt 0.4 -2.0001
vt -0.4 -2.0001
vt -0.4 -4.2001
vt -0.4 3.8001
vt -0.4 0
vt -0.2 0.02
vt -0.4 0.02
vt -0.2 2.0001
vt -0.4 4.2001
vt -0.4 2.0001
vt 0.2 2.0201
vt 0.4 2.0201
vt 0.4 4.2001
vt 0.4 6.0001
vt 0.2 6.0001
vt -2.0001 6.0001
vt -4.2001 6.0001
vt -0.2 6.0001
vt -0.4 6.0001
vt 4.2001 6.0001
vt 2.0001 6.0001
vt 0.4 6.0001
vt -0.4 6.0001
vt 0.4 2.0001
vt -0.4 2.0001
vt 0.4 0.007021009
vt 0.2 0.007021009
vt 0.4 -0.0129087
vt 0.2 -0.0129087
vt -2.0001 0.02
vt -2.0201 0
vt 2.0201 0
vt 2.0001 0.02
vt -0.4 -1.999971
vt -0.2 -1.999971
vt 1.999971 0.01992929
vt 0.2 -1.999971
vt 0.4 -1.999971
vt -1.999971 0.01992929
vt 7.450581E-09 0
vt 0 3.8001
vt 0 2.0201
vt 7.450581E-09 4.2001
vt 0 2.0001
vt 0 -2.0001
vt 0 -4.2001
vt 0 6.0001
vt 0 0.02
vt 0 -0.0129087
vt -7.450581E-09 0.00702101
vt -0.2 -0.0129087
vt -0.2 0.00702101
vt -7.450581E-09 -1.999971
vt 0.2 4.0001
vt 0 4.0001
vt -4.0001 3.8001
vt -4.0001 0.02
vt -0.2 4.0001
vt 4.0001 0.02
vt 4.0001 3.8001
vt -0.2 -4.0001
vt 0 -4.0001
vt 4.0001 0
vt -4.0001 0
vt 0.2 -4.0001
vt 2.0001 5.8001
vt -2.0001 5.8001
vt 0.2 5.8001
vt 0 5.8001
vt -0.2 5.8001
vt -2.000135 -1.98
vt 1.999936 -1.980071
vt 0 -1.980035
vt 0.2 -1.980035
vt -0.2 0.01996469
vt -0.2 -1.980035
vt -1.999936 -1.980071
vt 2.000135 -1.98

vn -1 0 0
vn 1 0 0
vn 0 0 1
vn 0 1 0
vn 0 -1 0
vn 0 0 -1
vn 0 0.006454026 -0.9999792

usemtl ContainmentZone-Generic
f 42/67/2 41/1/2 52/3/2
f 42/67/2 52/3/2 50/4/2
f 50/4/2 49/68/2 42/67/2
f 19/70/1 24/69/1 23/7/1
f 23/7/1 30/8/1 19/70/1
f 30/8/1 20/6/1 19/70/1
f 4/4/1 2/2/1 1/1/1
f 1/1/1 3/3/1 4/4/1
f 8/8/2 6/6/2 5/5/2
f 5/5/2 7/7/2 8/8/2
f 2/12/3 10/10/3 9/9/3
f 9/9/3 1/11/3 2/12/3
f 14/16/4 12/14/4 11/13/4
f 11/13/4 13/15/4 14/16/4
f 4/20/5 15/18/5 10/17/5
f 10/17/5 2/19/5 4/20/5
f 3/24/6 16/22/6 15/21/6
f 15/21/6 4/23/6 3/24/6
f 20/24/6 18/22/6 17/25/6
f 17/25/6 19/26/6 20/24/6
f 24/30/5 22/28/5 21/27/5
f 21/27/5 23/29/5 24/30/5
f 28/34/4 26/32/4 25/31/4
f 25/31/4 27/33/4 28/34/4
f 23/12/3 21/10/3 29/9/3
f 29/9/3 30/11/3 23/12/3
f 6/36/3 32/22/3 31/21/3
f 31/21/3 5/35/3 6/36/3
f 5/38/5 31/14/5 33/13/5
f 33/13/5 7/37/5 5/38/5
f 37/40/4 35/18/4 34/17/4
f 34/17/4 36/39/4 37/40/4
f 7/42/6 33/10/6 38/9/6
f 38/9/6 8/41/6 7/42/6
f 42/44/6 40/43/6 39/9/6
f 39/9/6 41/41/6 42/44/6
f 46/47/4 44/45/4 43/27/4
f 43/27/4 45/46/4 46/47/4
f 50/50/5 48/32/5 47/48/5
f 47/48/5 49/49/5 50/50/5
f 52/36/3 51/22/3 48/21/3
f 48/21/3 50/35/3 52/36/3
f 43/52/3 51/22/3 52/36/3
f 52/36/3 45/51/3 43/52/3
f 45/54/2 52/3/2 41/1/2
f 41/1/2 46/53/2 45/54/2
f 28/56/3 30/11/3 29/9/3
f 29/9/3 26/55/3 28/56/3
f 27/58/1 20/6/1 30/8/1
f 30/8/1 28/57/1 27/58/1
f 11/52/6 16/22/6 3/24/6
f 3/24/6 13/59/6 11/52/6
f 13/54/1 3/3/1 1/1/1
f 1/1/1 14/53/1 13/54/1
f 37/60/6 8/41/6 38/9/6
f 38/9/6 35/55/6 37/60/6
f 36/58/2 6/6/2 8/8/2
f 8/8/2 37/57/2 36/58/2
f 6/38/5 41/61/5 39/31/5
f 39/31/5 32/14/5 6/38/5
f 36/58/2 46/53/2 41/1/2
f 41/1/2 6/6/2 36/58/2
f 34/17/4 44/45/4 46/47/4
f 46/47/4 36/39/4 34/17/4
f 14/16/4 27/33/4 25/31/4
f 25/31/4 12/14/4 14/16/4
f 9/17/5 18/45/5 20/62/5
f 20/62/5 1/19/5 9/17/5
f 1/1/1 20/6/1 27/58/1
f 27/58/1 14/53/1 1/1/1
f 2/65/7 53/63/7 54/64/7
f 54/64/7 10/66/7 2/65/7
f 5/38/5 49/49/5 47/48/5
f 47/48/5 31/14/5 5/38/5
f 56/72/4 40/45/4 42/47/4
f 42/47/4 55/71/4 56/72/4
f 55/73/2 42/67/2 49/68/2
f 49/68/2 5/5/2 55/73/2
f 53/75/4 19/33/4 17/31/4
f 17/31/4 54/74/4 53/75/4
f 2/2/1 24/69/1 19/70/1
f 19/70/1 53/76/1 2/2/1
f 10/17/5 22/28/5 24/30/5
f 24/30/5 2/19/5 10/17/5
f 58/78/3 57/77/3 48/21/3
f 48/21/3 51/22/3 58/78/3
f 21/10/3 57/77/3 58/78/3
f 58/78/3 29/9/3 21/10/3
f 16/22/6 60/78/6 59/77/6
f 59/77/6 15/21/6 16/22/6
f 60/78/6 38/9/6 33/10/6
f 33/10/6 59/77/6 60/78/6
f 61/79/5 47/48/5 48/32/5
f 48/32/5 57/80/5 61/79/5
f 22/28/5 61/79/5 57/80/5
f 57/80/5 21/27/5 22/28/5
f 63/80/4 62/81/4 25/31/4
f 25/31/4 26/32/4 63/80/4
f 43/27/4 44/45/4 62/81/4
f 62/81/4 63/80/4 43/27/4
f 59/83/5 64/82/5 10/17/5
f 10/17/5 15/18/5 59/83/5
f 33/13/5 31/14/5 64/82/5
f 64/82/5 59/83/5 33/13/5
f 34/17/4 35/18/4 66/83/4
f 66/83/4 65/82/4 34/17/4
f 65/82/4 66/83/4 11/13/4
f 11/13/4 12/14/4 65/82/4
f 63/84/3 58/78/3 51/22/3
f 51/22/3 43/52/3 63/84/3
f 26/55/3 29/9/3 58/78/3
f 58/78/3 63/84/3 26/55/3
f 16/22/6 11/52/6 66/84/6
f 66/84/6 60/78/6 16/22/6
f 60/78/6 66/84/6 35/55/6
f 35/55/6 38/9/6 60/78/6
f 44/45/4 34/17/4 65/82/4
f 65/82/4 62/81/4 44/45/4
f 62/81/4 65/82/4 12/14/4
f 12/14/4 25/31/4 62/81/4
f 68/81/5 67/45/5 70/17/5
f 70/17/5 69/82/5 68/81/5
f 39/31/5 71/81/5 72/82/5
f 72/82/5 32/14/5 39/31/5
f 75/78/3 74/77/3 73/21/3
f 73/21/3 76/22/3 75/78/3
f 9/9/3 10/10/3 64/77/3
f 64/77/3 72/78/3 9/9/3
f 79/85/6 78/78/6 77/9/6
f 77/9/6 80/43/6 79/85/6
f 17/25/6 18/22/6 71/78/6
f 71/78/6 81/85/6 17/25/6
f 64/86/7 10/66/7 54/64/7
f 54/64/7 82/87/7 64/86/7
f 31/88/7 64/86/7 82/87/7
f 82/87/7 56/89/7 31/88/7
f 61/79/5 22/28/5 10/17/5
f 10/17/5 64/82/5 61/79/5
f 47/48/5 61/79/5 64/82/5
f 64/82/5 31/14/5 47/48/5
f 40/45/4 56/72/4 82/90/4
f 82/90/4 81/81/4 40/45/4
f 86/90/4 85/74/4 84/31/4
f 84/31/4 83/81/4 86/90/4
f 78/92/5 71/81/5 39/31/5
f 39/31/5 77/91/5 78/92/5
f 79/94/2 81/67/2 71/1/2
f 71/1/2 78/93/2 79/94/2
f 80/95/4 40/45/4 81/81/4
f 81/81/4 79/92/4 80/95/4
f 77/97/1 39/6/1 40/70/1
f 40/70/1 80/96/1 77/97/1
f 74/99/4 64/82/4 31/17/4
f 31/17/4 73/98/4 74/99/4
f 75/97/2 72/6/2 64/5/2
f 64/5/2 74/100/2 75/97/2
f 73/101/1 31/2/1 32/1/1
f 32/1/1 76/93/1 73/101/1
f 76/102/5 32/14/5 72/82/5
f 72/82/5 75/99/5 76/102/5
f 67/104/2 18/1/2 9/6/2
f 9/6/2 70/103/2 67/104/2
f 68/106/6 71/78/6 18/22/6
f 18/22/6 67/105/6 68/106/6
f 69/104/1 72/1/1 71/6/1
f 71/6/1 68/103/1 69/104/1
f 70/107/3 9/9/3 72/78/3
f 72/78/3 69/106/3 70/107/3
f 85/109/2 54/73/2 17/67/2
f 17/67/2 84/108/2 85/109/2
f 84/111/6 17/25/6 81/85/6
f 81/85/6 83/110/6 84/111/6
f 86/110/3 82/85/3 54/112/3
f 54/112/3 85/113/3 86/110/3
f 83/115/1 81/70/1 82/76/1
f 82/76/1 86/114/1 83/115/1

