# ProBuilder 5.0.6
# https://unity3d.com/unity/features/worldbuilding/probuilder
# 7/26/2022 9:04:59 PM

mtllib ./Screen-Type-0.mtl
o Screen-Type-0

g Screen-Type-0
v 0.5 -0.3333333 0.01333333
v -0.5 -0.3333333 0.01333333
v 0.5 0.3333333 0.01333333
v -0.5 0.3333333 0.01333333
v -0.5117851 -0.3451185 0.01666667
v -0.5117851 -0.3451185 -0.01666667
v -0.5117851 0.3451185 0.01666667
v -0.5117851 0.3451185 -0.01666667
v -0.5 -0.3333333 -0.01666667
v 0.5 -0.3333333 -0.01666667
v -0.5 0.3333333 -0.01666667
v 0.5 0.3333333 -0.01666667
v 0.5117851 -0.3451185 -0.01666667
v 0.5117851 -0.3451185 0.01666667
v 0.5117851 0.3451185 -0.01666667
v 0.5117851 0.3451185 0.01666667
v -0.5 0.3333333 0.01666667
v -0.5 -0.3333333 0.01666667
v 0.5 -0.3333333 0.01666667
v 0.5 0.3333333 0.01666667

vt 1 0.1666667
vt 1.192093E-07 0.1666667
vt 1 0.8333334
vt 1.192093E-07 0.8333334
vt 0.01666667 -0.3451185
vt -0.01666667 -0.3451185
vt 0.01666667 0.3451185
vt -0.01666667 0.3451185
vt 0.5 -0.3333333
vt -0.5 -0.3333333
vt 0.5 0.3333333
vt -0.5 0.3333333
vt -0.5117851 0.01666667
vt 0.5117851 0.01666667
vt -0.5117851 -0.01666667
vt 0.5117851 -0.01666667
vt -0.5117851 0.3451185
vt -0.5117851 -0.3451185
vt 0.5117851 -0.3451185
vt 0.5117851 0.3451185
vt -0.5 0.01666667
vt 0.5 0.01666667
vt -0.5 0.01333333
vt 0.5 0.01333333
vt 0.01666667 0.3333333
vt 0.01666667 -0.3333333
vt 0.01333333 0.3333333
vt 0.01333333 -0.3333333
vt -0.01666667 -0.3333333
vt -0.01666667 0.3333333
vt -0.01333333 -0.3333333
vt -0.01333333 0.3333333

vn 0 0 1
vn -1 0 0
vn 0 0 -1
vn 1 0 0
vn 0 1 0
vn 0 -1 0

usemtl Metal027
f 7/7/2 8/8/2 6/6/2 5/5/2
f 11/11/3 12/12/3 10/10/3 9/9/3
f 15/7/4 16/8/4 14/6/4 13/5/4
f 15/15/5 8/16/5 7/14/5 16/13/5
f 14/14/6 5/13/6 6/15/6 13/16/6
f 7/17/1 5/18/1 18/10/1 17/12/1
f 15/17/3 13/18/3 10/10/3 12/12/3
f 14/19/1 16/20/1 20/11/1 19/9/1
f 13/18/3 6/19/3 9/9/3 10/10/3
f 5/18/1 14/19/1 19/9/1 18/10/1
f 6/19/3 8/20/3 11/11/3 9/9/3
f 8/20/3 15/17/3 12/12/3 11/11/3
f 16/20/1 7/17/1 17/12/1 20/11/1
f 1/23/5 2/24/5 18/22/5 19/21/5
f 3/27/2 1/28/2 19/26/2 20/25/2
f 2/31/4 4/32/4 17/30/4 18/29/4
f 4/23/6 3/24/6 20/22/6 17/21/6

usemtl ST-Anchor1
f 3/3/1 4/4/1 2/2/1 1/1/1

