# ProBuilder 5.0.4
# https://unity3d.com/unity/features/worldbuilding/probuilder
# 5/25/2022 7:19:32 PM

mtllib ./Scranton-Reality-Anchors-Type-0.mtl
o Scranton-Reality-Anchors-Type-0

g Scranton-Reality-Anchors-Type-0
v -0.5 0.8002002 0
v -0.5 1.0002 0
v -0.3535538 0.8002002 0.3535534
v -0.3535534 1.0002 0.3535534
v 0 0.8002002 0.5
v 2.185569E-08 1.0002 0.5
v 0.3535538 0.8002002 0.3535534
v 0.3535534 1.0002 0.3535534
v 0.5 0.8002002 0
v 0.5 1.0002 -4.371139E-08
v 0.3535538 0.8002002 -0.3535533
v 0.3535534 1.0002 -0.3535534
v 0 0.8002002 -0.5
v -5.96244E-09 1.0002 -0.5
v -0.3535538 0.8002002 -0.3535535
v -0.3535533 1.0002 -0.3535534
v -0.3535538 1.0503 0.3535534
v -0.5 1.0503 0
v 0 1.0503 0.5
v -0.3535538 1.0503 -0.3535535
v 0 1.0503 -0.5
v 0.3535538 1.0503 -0.3535533
v 0.5 1.0503 0
v 0.3535538 1.0503 0.3535534
v -0.3535538 1.2004 0.3535534
v -0.5 1.2004 0
v 0 1.2004 0.5
v -0.3535538 1.2004 -0.3535535
v 0 1.2004 -0.5
v 0.3535538 1.2004 -0.3535533
v 0.5 1.2004 0
v 0.3535538 1.2004 0.3535534
v -0.3535538 1.2505 0.3535534
v -0.5 1.2505 0
v 0 1.2505 0.5
v -0.3535538 1.2505 -0.3535535
v 0 1.2505 -0.5
v 0.3535538 1.2505 -0.3535533
v 0.5 1.2505 0
v 0.3535538 1.2505 0.3535534
v -0.5 1.4006 0
v -0.25 1.5006 0
v -0.1767769 1.5006 0.1767766
v -0.3535538 1.4006 0.3535534
v 0 1.5006 0.25
v 0 1.4006 0.5
v 0.1767769 1.5006 0.1767766
v 0.3535538 1.4006 0.3535534
v 0.25 1.5006 0
v 0.5 1.4006 0
v 0.1767769 1.5006 -0.1767766
v 0.3535538 1.4006 -0.3535533
v 0 1.5006 -0.25
v 0 1.4006 -0.5
v -0.1767769 1.5006 -0.1767766
v -0.3535538 1.4006 -0.3535535
v -0.3535538 0.7001002 -0.3535535
v -0.5 0.7001002 0
v -0.3535538 0.7001002 0.3535534
v 0 0.7001002 0.5
v 0.3535538 0.7001002 0.3535534
v 0.5 0.7001002 0
v 0.3535538 0.7001002 -0.3535533
v 0 0.7001002 -0.5
v -0.3535538 1.788139E-07 -0.3535535
v -0.5 1.788139E-07 0
v 0 1.788139E-07 -0.5
v -0.3535538 1.788139E-07 0.3535534
v 0 1.788139E-07 0.5
v 0.3535538 1.788139E-07 0.3535534
v 0.5 1.788139E-07 0
v 0.3535538 1.788139E-07 -0.3535533
v -0.1913414 0.5002002 -0.9619401
v -0.5448952 0.5002002 -0.8154933
v -0.1913414 0.4001002 -0.9619401
v -0.5448952 0.4001002 -0.8154933
v -0.9619408 0.5002002 0.1913413
v -0.8154945 0.5002002 0.5448947
v -0.9619408 0.4001002 0.1913413
v -0.8154945 0.4001002 0.5448947
v 0.1913414 0.5002002 0.9619398
v 0.5448952 0.5002002 0.8154933
v 0.1913414 0.4001002 0.9619398
v 0.5448952 0.4001002 0.8154933
v 0.9619408 0.5002002 -0.1913414
v 0.8154945 0.5002002 -0.5448947
v 0.9619408 0.4001002 -0.1913414
v 0.8154945 0.4001002 -0.5448947
v -0.2296097 0.4001002 -1.054328
v -0.5831635 0.4001002 -0.9078813
v -0.5448952 -1.2499 -0.8154936
v -0.1913414 -1.2499 -0.9619398
v -0.5831642 -1.2499 -0.9078817
v -0.2296104 -1.2499 -1.054328
v -1.054329 0.4001002 0.2296095
v -0.9078825 0.4001002 0.583163
v -0.8154945 -1.2499 0.5448947
v -0.9619408 -1.2499 0.1913414
v -0.9078827 -1.2499 0.5831633
v -1.054329 -1.2499 0.2296095
v 0.2296097 0.4001002 1.054328
v 0.5831634 0.4001002 0.9078813
v 0.5448952 -1.2499 0.8154936
v 0.1913414 -1.2499 0.9619398
v 0.5831642 -1.2499 0.9078813
v 0.2296104 -1.2499 1.054328
v 1.054329 0.4001002 -0.2296097
v 0.9078825 0.4001002 -0.583163
v 0.8154945 -1.2499 -0.5448947
v 0.9619408 -1.2499 -0.1913414
v 0.9078827 -1.2499 -0.5831633
v 1.054329 -1.2499 -0.2296095
v 0 1.5507 0.25
v -0.1767769 1.5507 0.1767766
v 0 1.6008 0.25
v -0.1767769 1.6008 0.1767766
v 0.1767769 1.5507 0.1767766
v 0.1767769 1.6008 0.1767766
v -0.25 1.5507 0
v -0.25 1.6008 0
v -0.1767769 1.5507 -0.1767766
v -0.1767769 1.6008 -0.1767766
v 0 1.5507 -0.25
v 0 1.6008 -0.25
v 0.1767769 1.5507 -0.1767766
v 0.1767769 1.6008 -0.1767766
v 0.25 1.5507 0
v 0.25 1.6008 0
v -0.125 1.6508 0
v -0.08838844 1.6508 0.08838832
v 0 1.6508 0
v 0 1.6508 0.125
v 0.08838844 1.6508 0.08838832
v 0.125 1.6508 0
v 0.08838844 1.6508 -0.0883882
v 0 1.6508 -0.125
v -0.08838844 1.6508 -0.0883882
v -0.5 1.35055 0
v -0.3535538 1.35055 0.3535534
v 0 1.35055 0.5
v -0.3535538 1.35055 -0.3535535
v 0 1.35055 -0.5
v 0.3535538 1.35055 -0.3535533
v 0.5 1.35055 0
v 0.3535538 1.35055 0.3535534
v -0.1767769 1.52565 0.1767766
v 0 1.52565 0.25
v 0.1767769 1.52565 0.1767766
v -0.25 1.52565 0
v -0.1767769 1.52565 -0.1767766
v 0 1.52565 -0.25
v 0.1767769 1.52565 -0.1767766
v 0.25 1.52565 0
v -0.1767769 1.788139E-07 0.1767767
v -0.25 1.788139E-07 0
v -0.1767769 -1.5501 0.1767769
v 0 -1.5501 0
v -0.25 -1.5501 0
v 0 1.788139E-07 0.25
v 0 -1.5501 0.25
v 0.1767769 1.788139E-07 0.1767767
v 0.1767769 -1.5501 0.1767769
v 0.25 1.788139E-07 0
v 0.25 -1.5501 0
v 0.1767769 1.788139E-07 -0.1767766
v 0.1767769 -1.5501 -0.1767769
v 0 1.788139E-07 -0.25
v 0 -1.5501 -0.25
v -0.1767769 1.788139E-07 -0.1767768
v -0.1767769 -1.5501 -0.1767769

vt -0.1913413 0.8002002
vt -0.1913413 1.0002
vt 0.191342 0.8002002
vt 0.1913421 1.0002
vt 0.1913416 1.050304
vt -0.1913417 1.050304
vt 0.191342 1.2004
vt -0.1913413 1.2004
vt 0.191342 1.2505
vt -0.1913413 1.2505
vt -0.05593111 -0.2259586
vt -0.3251893 -0.2259586
vt -0.3931753 -0.04710248
vt -0.191903 0.1317538
vt 0.119861 -0.1995478
vt -0.07088401 -0.389591
vt -0.2452833 -0.3108725
vt -0.2289377 -0.04211085
vt 0.2289377 -0.04211085
vt 0.2452833 -0.3108725
vt 0.07088401 -0.389591
vt -0.119861 -0.1995478
vt 0.191903 0.1317538
vt 0.3931753 -0.04710248
vt 0.3251893 -0.2259586
vt 0.05593111 -0.2259586
vt 0.05593111 0.2259586
vt 0.3251893 0.2259586
vt 0.3931753 0.04710248
vt 0.191903 -0.1317536
vt -0.119861 0.1995479
vt 0.07088401 0.389591
vt 0.2452833 0.3108725
vt 0.2289377 0.04211085
vt -0.2289372 0.04211064
vt -0.2452828 0.3108722
vt -0.07088351 0.3895907
vt 0.1198615 0.1995474
vt -0.1919029 -0.131754
vt -0.3931752 0.04710233
vt -0.3251892 0.2259585
vt -0.055931 0.2259585
vt -0.1913422 0.7001002
vt 0.1913412 0.7001002
vt -0.1913422 1.788139E-07
vt 0.1913412 1.788139E-07
vt -0.1790739 -0.06918892
vt 0.1655132 0.09726413
vt 0.0745507 -0.5942363
vt 0.4191377 -0.427783
vt 0.4619399 0.7001002
vt 0.4619399 0.8002002
vt 0.9619401 0.4001002
vt 0.9619401 0.5002002
vt -0.4619399 0.8002002
vt -0.4619399 0.7001002
vt -0.9619398 0.5002002
vt -0.9619398 0.4001002
vt -0.1879141 0.05089027
vt 0.1566729 -0.1155628
vt -0.4415387 -0.4741569
vt -0.09695165 -0.6406102
vt 0.04935205 -0.1855232
vt -0.07873172 0.1750889
vt 0.5988179 0.009638169
vt 0.4707342 0.3702503
vt 0.03020107 0.1923262
vt -0.0978827 -0.1682859
vt -0.5192648 0.3874876
vt -0.6473486 0.0268755
vt 0.179074 0.06918886
vt -0.165513 -0.09726435
vt -0.07455057 0.594236
vt -0.4191376 0.4277829
vt 0.1879141 -0.05089026
vt -0.156673 0.1155629
vt 0.4415386 0.474157
vt 0.09695163 0.64061
vt -0.04935211 0.1855233
vt 0.07873167 -0.1750887
vt -0.5988181 -0.009638253
vt -0.4707343 -0.3702502
vt -0.03020103 -0.192326
vt 0.09788275 0.1682859
vt 0.5192649 -0.3874875
vt 0.6473487 -0.02687558
vt -0.0002505857 -0.3779897
vt 0.3299084 -0.1844904
vt 0.07129312 -0.5000614
vt 0.4014521 -0.3065621
vt 1.06194 0.4001002
vt -1.06194 0.4001002
vt -0.5448952 -0.8154936
vt -0.1913414 -0.9619398
vt -0.5831642 -0.9078817
vt -0.2296104 -1.054328
vt 0.3666115 -0.09204801
vt 0.2590949 0.2752212
vt 0.5024045 -0.05229516
vt 0.3948878 0.3149741
vt -0.8154945 0.5448947
vt -0.9619408 0.1913414
vt -0.9078827 0.5831633
vt -1.054329 0.2296095
vt 0.0002501525 0.3779897
vt -0.3299089 0.1844907
vt -0.07129343 0.5000615
vt -0.4014525 0.3065625
vt 0.5448952 0.8154936
vt 0.1913414 0.9619398
vt 0.5831642 0.9078813
vt 0.2296104 1.054328
vt -0.3666115 0.09204795
vt -0.2590949 -0.2752212
vt -0.5024045 0.0522951
vt -0.3948878 -0.314974
vt 0.8154945 -0.5448947
vt 0.9619408 -0.1913414
vt 0.9078827 -0.5831633
vt 1.054329 -0.2296095
vt -0.1913416 0.4001002
vt 0.1913416 0.4001002
vt -0.1913416 -1.2499
vt 0.1913416 -1.2499
vt -1.061941 -1.2499
vt -0.9619408 -1.2499
vt 0.9619408 -1.2499
vt 1.061941 -1.2499
vt 0.5 0
vt 0 0
vt 0.5 0.1417036
vt 0 0.1417036
vt 1 0
vt 1 0.1417036
vt 0.9999986 0
vt 0.4999993 0
vt 0.9999986 0.1417036
vt 0.4999993 0.1417036
vt -0.05541063 -0.1257151
vt -0.1875818 -0.1277032
vt -0.2235405 -0.03904732
vt -0.1273281 0.05159676
vt -0.3103529 -0.1258787
vt 0.04969906 -0.128081
vt -0.04236479 -0.2229358
vt -0.1304767 -0.1856635
vt -0.1265248 -0.0535365
vt -0.1304767 -0.3084482
vt 0.1265248 -0.0535365
vt 0.1304767 -0.1856635
vt 0.04236479 -0.2229358
vt -0.04969906 -0.128081
vt 0.1304767 -0.3084482
vt 0.1273281 0.05159676
vt 0.2235405 -0.03904732
vt 0.1875818 -0.1277032
vt 0.05541063 -0.1257151
vt 0.3103529 -0.1258787
vt 0.05541051 0.125715
vt 0.1875817 0.1277032
vt 0.2235404 0.03904737
vt 0.127328 -0.05159682
vt 0.3103528 0.1258787
vt -0.04969867 0.1280809
vt 0.04236519 0.2229358
vt 0.1304771 0.1856635
vt 0.1265252 0.05353645
vt 0.1304771 0.3084481
vt -0.1265247 0.05353621
vt -0.1304766 0.1856632
vt -0.04236466 0.2229356
vt 0.04969918 0.1280807
vt -0.1304766 0.3084479
vt -0.127328 -0.05159682
vt -0.2235404 0.03904737
vt -0.1875817 0.1277032
vt -0.05541051 0.125715
vt -0.3103528 0.1258787
vt -0.1913413 1.35055
vt 0.191342 1.35055
vt 0.4999997 0.07078134
vt 0.9999992 0.07078134
vt 0 0.07078134
vt 0.5 0.07078134
vt 1 0.07078134
vt 0.09567082 1.5006
vt -0.09567109 1.5006
vt -0.09567109 1.52565
vt 0.09567082 1.52565
vt -0.09567109 1.5507
vt 0.09567082 1.5507
vt -0.3535538 0.3535534
vt -0.1767769 0.1767767
vt -0.25 0
vt -0.5 0
vt 0 0.5
vt 0 0.25
vt 0.3535538 0.3535534
vt 0.1767769 0.1767767
vt 0.25 0
vt 0.3535538 -0.3535533
vt 0.1767769 -0.1767766
vt 0 -0.5
vt 0 -0.25
vt -0.3535538 -0.3535535
vt -0.1767769 -0.1767768
vt -0.0956711 1.720165E-07
vt 0.09567062 1.720165E-07
vt -0.09567121 -1.5501
vt 0.09567062 -1.5501

vn -0.9238799 0 0.3826826
vn -0.382683 8.789834E-07 0.9238797
vn 0.382683 -4.1819E-08 0.9238797
vn 0.9238799 1.846719E-06 0.3826826
vn 0.9238799 -8.363794E-08 -0.3826827
vn 0.3826833 4.089534E-07 -0.9238796
vn -0.3826828 -1.140861E-08 -0.9238798
vn -0.92388 2.236104E-06 -0.3826824
vn -0.3670723 0.9176818 0.152046
vn -0.1520461 0.9176818 0.3670723
vn 0.1520462 0.9176818 0.3670723
vn 0.3670723 0.9176818 0.1520459
vn 0.3670724 0.9176818 -0.152046
vn 0.1520463 0.9176818 -0.3670724
vn -0.1520461 0.9176818 -0.3670723
vn -0.3670723 0.9176819 -0.1520459
vn -0.1968886 0.857493 -0.4753322
vn 0.1968887 -0.8574929 0.4753323
vn -0.4753318 0.8574933 0.1968883
vn 0.4753318 -0.8574933 -0.1968883
vn 0.1968888 0.8574929 0.4753323
vn -0.1968888 -0.8574929 -0.4753322
vn 0.4753317 0.8574933 -0.1968884
vn -0.4753317 -0.8574933 0.1968884
vn -0.2707332 0.7067532 -0.653608
vn 0 -1 0
vn -0.6536079 0.7067536 0.2707326
vn 0.2707327 0.7067536 0.6536079
vn 0.6536079 0.7067536 -0.2707326
vn 0 1 0

usemtl Metal027-Reflective
f 89/91/5 73/54/5 75/53/5
f 90/92/1 76/58/1 74/57/1
f 95/91/7 77/54/7 79/53/7
f 96/92/3 80/58/3 78/57/3
f 101/91/1 81/54/1 83/53/1
f 102/92/5 84/58/5 82/57/5
f 107/91/3 85/54/3 87/53/3
f 108/92/7 88/58/7 86/57/7
f 158/194/26 157/130/26 156/193/26
f 156/193/26 157/130/26 160/197/26
f 160/197/26 157/130/26 162/199/26
f 162/199/26 157/130/26 164/200/26
f 164/200/26 157/130/26 166/202/26
f 166/202/26 157/130/26 168/204/26
f 168/204/26 157/130/26 170/206/26
f 170/206/26 157/130/26 158/194/26
f 4/4/1 2/2/1 1/1/1
f 1/1/1 3/3/1 4/4/1
f 6/4/2 4/2/2 3/1/2
f 3/1/2 5/3/2 6/4/2
f 8/4/3 6/2/3 5/1/3
f 5/1/3 7/3/3 8/4/3
f 10/4/4 8/2/4 7/1/4
f 7/1/4 9/3/4 10/4/4
f 12/4/5 10/2/5 9/1/5
f 9/1/5 11/3/5 12/4/5
f 14/4/6 12/2/6 11/1/6
f 11/1/6 13/3/6 14/4/6
f 16/4/7 14/2/7 13/1/7
f 13/1/7 15/3/7 16/4/7
f 2/4/8 16/2/8 15/1/8
f 15/1/8 1/3/8 2/4/8
f 18/6/1 2/2/1 4/4/1
f 4/4/1 17/5/1 18/6/1
f 21/6/7 14/2/7 16/4/7
f 16/4/7 20/5/7 21/6/7
f 23/6/5 10/2/5 12/4/5
f 12/4/5 22/5/5 23/6/5
f 19/6/3 6/2/3 8/4/3
f 8/4/3 24/5/3 19/6/3
f 26/8/1 18/6/1 17/5/1
f 17/5/1 25/7/1 26/8/1
f 25/8/2 17/6/2 19/5/2
f 19/5/2 27/7/2 25/8/2
f 28/8/8 20/6/8 18/5/8
f 18/5/8 26/7/8 28/8/8
f 29/8/7 21/6/7 20/5/7
f 20/5/7 28/7/7 29/8/7
f 30/8/6 22/6/6 21/5/6
f 21/5/6 29/7/6 30/8/6
f 31/8/5 23/6/5 22/5/5
f 22/5/5 30/7/5 31/8/5
f 32/8/4 24/6/4 23/5/4
f 23/5/4 31/7/4 32/8/4
f 27/8/3 19/6/3 24/5/3
f 24/5/3 32/7/3 27/8/3
f 34/10/1 26/8/1 25/7/1
f 25/7/1 33/9/1 34/10/1
f 37/10/7 29/8/7 28/7/7
f 28/7/7 36/9/7 37/10/7
f 39/10/5 31/8/5 30/7/5
f 30/7/5 38/9/5 39/10/5
f 35/10/3 27/8/3 32/7/3
f 32/7/3 40/9/3 35/10/3
f 44/14/9 43/13/9 42/12/9
f 42/12/9 41/11/9 44/14/9
f 46/18/10 45/17/10 43/16/10
f 43/16/10 44/15/10 46/18/10
f 47/21/11 45/20/11 46/19/11
f 46/19/11 48/22/11 47/21/11
f 48/23/12 50/26/12 49/25/12
f 49/25/12 47/24/12 48/23/12
f 50/27/13 52/30/13 51/29/13
f 51/29/13 49/28/13 50/27/13
f 54/34/14 53/33/14 51/32/14
f 51/32/14 52/31/14 54/34/14
f 54/35/15 56/38/15 55/37/15
f 55/37/15 53/36/15 54/35/15
f 42/41/16 55/40/16 56/39/16
f 56/39/16 41/42/16 42/41/16
f 58/44/8 1/3/8 15/1/8
f 15/1/8 57/43/8 58/44/8
f 60/44/2 5/3/2 3/1/2
f 3/1/2 59/43/2 60/44/2
f 62/44/4 9/3/4 7/1/4
f 7/1/4 61/43/4 62/44/4
f 64/44/6 13/3/6 11/1/6
f 11/1/6 63/43/6 64/44/6
f 66/46/8 58/44/8 57/43/8
f 57/43/8 65/45/8 66/46/8
f 65/46/7 57/44/7 64/43/7
f 64/43/7 67/45/7 65/46/7
f 68/46/1 59/44/1 58/43/1
f 58/43/1 66/45/1 68/46/1
f 69/46/2 60/44/2 59/43/2
f 59/43/2 68/45/2 69/46/2
f 70/46/3 61/44/3 60/43/3
f 60/43/3 69/45/3 70/46/3
f 71/46/4 62/44/4 61/43/4
f 61/43/4 70/45/4 71/46/4
f 72/46/5 63/44/5 62/43/5
f 62/43/5 71/45/5 72/46/5
f 67/46/6 64/44/6 63/43/6
f 63/43/6 72/45/6 67/46/6
f 74/50/17 15/48/17 13/47/17
f 13/47/17 73/49/17 74/50/17
f 73/54/5 13/52/5 64/51/5
f 64/51/5 75/53/5 73/54/5
f 76/58/1 57/56/1 15/55/1
f 15/55/1 74/57/1 76/58/1
f 75/62/18 64/60/18 57/59/18
f 57/59/18 76/61/18 75/62/18
f 78/66/19 3/64/19 1/63/19
f 1/63/19 77/65/19 78/66/19
f 77/54/7 1/52/7 58/51/7
f 58/51/7 79/53/7 77/54/7
f 80/58/3 59/56/3 3/55/3
f 3/55/3 78/57/3 80/58/3
f 79/70/20 58/68/20 59/67/20
f 59/67/20 80/69/20 79/70/20
f 82/74/21 7/72/21 5/71/21
f 5/71/21 81/73/21 82/74/21
f 81/54/1 5/52/1 60/51/1
f 60/51/1 83/53/1 81/54/1
f 84/58/5 61/56/5 7/55/5
f 7/55/5 82/57/5 84/58/5
f 83/78/22 60/76/22 61/75/22
f 61/75/22 84/77/22 83/78/22
f 86/82/23 11/80/23 9/79/23
f 9/79/23 85/81/23 86/82/23
f 85/54/3 9/52/3 62/51/3
f 62/51/3 87/53/3 85/54/3
f 88/58/7 63/56/7 11/55/7
f 11/55/7 86/57/7 88/58/7
f 87/86/24 62/84/24 63/83/24
f 63/83/24 88/85/24 87/86/24
f 90/90/25 74/88/25 73/87/25
f 73/87/25 89/89/25 90/90/25
f 94/96/26 92/94/26 91/93/26
f 91/93/26 93/95/26 94/96/26
f 96/100/27 78/98/27 77/97/27
f 77/97/27 95/99/27 96/100/27
f 100/104/26 98/102/26 97/101/26
f 97/101/26 99/103/26 100/104/26
f 102/108/28 82/106/28 81/105/28
f 81/105/28 101/107/28 102/108/28
f 106/112/26 104/110/26 103/109/26
f 103/109/26 105/111/26 106/112/26
f 108/116/29 86/114/29 85/113/29
f 85/113/29 107/115/29 108/116/29
f 112/120/26 110/118/26 109/117/26
f 109/117/26 111/119/26 112/120/26
f 110/124/1 87/122/1 88/121/1
f 88/121/1 109/123/1 110/124/1
f 109/126/7 88/58/7 108/92/7
f 108/92/7 111/125/7 109/126/7
f 112/128/3 107/91/3 87/53/3
f 87/53/3 110/127/3 112/128/3
f 111/124/5 108/122/5 107/121/5
f 107/121/5 112/123/5 111/124/5
f 92/124/3 75/122/3 76/121/3
f 76/121/3 91/123/3 92/124/3
f 91/126/1 76/58/1 90/92/1
f 90/92/1 93/125/1 91/126/1
f 94/128/5 89/91/5 75/53/5
f 75/53/5 92/127/5 94/128/5
f 93/124/7 90/122/7 89/121/7
f 89/121/7 94/123/7 93/124/7
f 98/124/5 79/122/5 80/121/5
f 80/121/5 97/123/5 98/124/5
f 97/126/3 80/58/3 96/92/3
f 96/92/3 99/125/3 97/126/3
f 100/128/7 95/91/7 79/53/7
f 79/53/7 98/127/7 100/128/7
f 99/124/1 96/122/1 95/121/1
f 95/121/1 100/123/1 99/124/1
f 104/124/7 83/122/7 84/121/7
f 84/121/7 103/123/7 104/124/7
f 103/126/5 84/58/5 102/92/5
f 102/92/5 105/125/5 103/126/5
f 106/128/1 101/91/1 83/53/1
f 83/53/1 104/127/1 106/128/1
f 105/124/3 102/122/3 101/121/3
f 101/121/3 106/123/3 105/124/3
f 116/142/9 130/141/9 129/140/9
f 129/140/9 120/139/9 116/142/9
f 115/147/10 132/146/10 130/145/10
f 130/145/10 116/144/10 115/147/10
f 133/151/11 132/150/11 115/149/11
f 115/149/11 118/152/11 133/151/11
f 118/154/12 128/157/12 134/156/12
f 134/156/12 133/155/12 118/154/12
f 128/159/13 126/162/13 135/161/13
f 135/161/13 134/160/13 128/159/13
f 124/167/14 136/166/14 135/165/14
f 135/165/14 126/164/14 124/167/14
f 124/169/15 122/172/15 137/171/15
f 137/171/15 136/170/15 124/169/15
f 129/176/16 137/175/16 122/174/16
f 122/174/16 120/177/16 129/176/16
f 138/179/1 34/10/1 33/9/1
f 33/9/1 139/180/1 138/179/1
f 139/179/2 33/10/2 35/9/2
f 35/9/2 140/180/2 139/179/2
f 141/179/8 36/10/8 34/9/8
f 34/9/8 138/180/8 141/179/8
f 141/180/7 142/179/7 37/10/7
f 37/10/7 36/9/7 141/180/7
f 142/180/6 143/179/6 38/10/6
f 38/10/6 37/9/6 142/180/6
f 143/180/5 144/179/5 39/10/5
f 39/10/5 38/9/5 143/180/5
f 144/180/4 145/179/4 40/10/4
f 40/10/4 39/9/4 144/180/4
f 140/179/3 35/10/3 40/9/3
f 40/9/3 145/180/3 140/179/3
f 146/188/2 43/187/2 45/186/2
f 45/186/2 147/189/2 146/188/2
f 147/188/3 45/187/3 47/186/3
f 47/186/3 148/189/3 147/188/3
f 113/190/3 147/188/3 148/189/3
f 148/189/3 117/191/3 113/190/3
f 149/188/1 42/187/1 43/186/1
f 43/186/1 146/189/1 149/188/1
f 119/190/1 149/188/1 146/189/1
f 146/189/1 114/191/1 119/190/1
f 150/189/7 151/188/7 53/187/7
f 53/187/7 55/186/7 150/189/7
f 121/191/7 123/190/7 151/188/7
f 151/188/7 150/189/7 121/191/7
f 151/189/6 152/188/6 51/187/6
f 51/187/6 53/186/6 151/189/6
f 152/189/5 153/188/5 49/187/5
f 49/187/5 51/186/5 152/189/5
f 125/191/5 127/190/5 153/188/5
f 153/188/5 152/189/5 125/191/5
f 153/189/4 148/188/4 47/187/4
f 47/187/4 49/186/4 153/189/4
f 155/194/26 154/193/26 68/192/26
f 68/192/26 66/195/26 155/194/26
f 69/196/26 68/192/26 154/193/26
f 154/193/26 159/197/26 69/196/26
f 159/197/26 161/199/26 70/198/26
f 70/198/26 69/196/26 159/197/26
f 71/129/26 70/198/26 161/199/26
f 161/199/26 163/200/26 71/129/26
f 72/201/26 71/129/26 163/200/26
f 163/200/26 165/202/26 72/201/26
f 67/203/26 72/201/26 165/202/26
f 165/202/26 167/204/26 67/203/26
f 67/203/26 167/204/26 169/206/26
f 169/206/26 65/205/26 67/203/26
f 169/206/26 155/194/26 66/195/26
f 66/195/26 65/205/26 169/206/26
f 158/210/8 155/208/8 169/207/8
f 169/207/8 170/209/8 158/210/8
f 170/210/7 169/208/7 167/207/7
f 167/207/7 168/209/7 170/210/7
f 156/210/1 154/208/1 155/207/1
f 155/207/1 158/209/1 156/210/1
f 160/210/2 159/208/2 154/207/2
f 154/207/2 156/209/2 160/210/2
f 162/210/3 161/208/3 159/207/3
f 159/207/3 160/209/3 162/210/3
f 164/210/4 163/208/4 161/207/4
f 161/207/4 162/209/4 164/210/4
f 166/210/5 165/208/5 163/207/5
f 163/207/5 164/209/5 166/210/5
f 168/210/6 167/208/6 165/207/6
f 165/207/6 166/209/6 168/210/6

usemtl Light-03
f 130/141/30 131/143/30 129/140/30
f 132/146/30 131/148/30 130/145/30
f 133/151/30 131/153/30 132/150/30
f 134/156/30 131/158/30 133/155/30
f 135/161/30 131/163/30 134/160/30
f 136/166/30 131/168/30 135/165/30
f 137/171/30 131/173/30 136/170/30
f 129/176/30 131/178/30 137/175/30
f 17/6/2 4/2/2 6/4/2
f 6/4/2 19/5/2 17/6/2
f 20/6/8 16/2/8 2/4/8
f 2/4/8 18/5/8 20/6/8
f 22/6/6 12/2/6 14/4/6
f 14/4/6 21/5/6 22/6/6
f 24/6/4 8/2/4 10/4/4
f 10/4/4 23/5/4 24/6/4
f 33/10/2 25/8/2 27/7/2
f 27/7/2 35/9/2 33/10/2
f 36/10/8 28/8/8 26/7/8
f 26/7/8 34/9/8 36/10/8
f 38/10/6 30/8/6 29/7/6
f 29/7/6 37/9/6 38/10/6
f 40/10/4 32/8/4 31/7/4
f 31/7/4 39/9/4 40/10/4
f 114/190/2 146/188/2 147/189/2
f 147/189/2 113/191/2 114/190/2
f 150/188/8 55/187/8 42/186/8
f 42/186/8 149/189/8 150/188/8
f 121/190/8 150/188/8 149/189/8
f 149/189/8 119/191/8 121/190/8
f 123/191/6 125/190/6 152/188/6
f 152/188/6 151/189/6 123/191/6
f 127/191/4 117/190/4 148/188/4
f 148/188/4 153/189/4 127/191/4

usemtl PaintedMetal016
f 115/131/2 116/132/2 114/130/2 113/129/2
f 118/134/3 115/131/3 113/129/3 117/133/3
f 116/137/1 120/138/1 119/136/1 114/135/1
f 120/138/8 122/132/8 121/130/8 119/136/8
f 122/134/7 124/131/7 123/129/7 121/133/7
f 124/131/6 126/132/6 125/130/6 123/129/6
f 126/137/5 128/138/5 127/136/5 125/135/5
f 128/138/4 118/132/4 117/130/4 127/136/4
f 44/182/1 41/181/1 138/136/1 139/135/1
f 46/184/2 44/183/2 139/130/2 140/129/2
f 41/181/8 56/183/8 141/130/8 138/136/8
f 141/133/7 56/185/7 54/184/7 142/129/7
f 142/129/6 54/184/6 52/183/6 143/130/6
f 143/135/5 52/182/5 50/181/5 144/136/5
f 144/136/4 50/181/4 48/183/4 145/130/4
f 48/185/3 46/184/3 140/129/3 145/133/3

