# ProBuilder 5.0.6
# https://unity3d.com/unity/features/worldbuilding/probuilder
# 12/25/2022 2:45:37 AM

mtllib ./Stationary-Weapon-Pod.mtl
o Stationary-Weapon-Pod

g Stationary-Weapon-Pod
v -0.5081337 -0.025 0.2104759
v -0.55 -0.025 0
v -0.5081337 0.025 0.2104759
v -0.55 0.025 0
v -0.5 -0.025 0
v -0.4619397 -0.025 0.1913417
v -0.5 0.025 0
v -0.4619397 0.025 0.1913417
v -0.3889087 -0.025 0.3889087
v -0.3889087 0.025 0.3889087
v -0.3535534 -0.025 0.3535534
v -0.3535534 0.025 0.3535534
v -0.2104759 -0.025 0.5081337
v -0.2104759 0.025 0.5081337
v -0.1913417 -0.025 0.4619397
v -0.1913417 0.025 0.4619397
v 2.404126E-08 -0.025 0.55
v 2.404126E-08 0.025 0.55
v 2.185569E-08 -0.025 0.5
v 2.185569E-08 0.025 0.5
v 0.2104759 -0.025 0.5081338
v 0.2104759 0.025 0.5081338
v 0.1913417 -0.025 0.4619398
v 0.1913417 0.025 0.4619398
v 0.3889087 -0.025 0.3889087
v 0.3889087 0.025 0.3889087
v 0.3535534 -0.025 0.3535534
v 0.3535534 0.025 0.3535534
v 0.5081337 -0.025 0.2104759
v 0.5081337 0.025 0.2104759
v 0.4619397 -0.025 0.1913417
v 0.4619397 0.025 0.1913417
v 0.55 -0.025 -4.808253E-08
v 0.55 0.025 -4.808253E-08
v 0.5 -0.025 -4.371139E-08
v 0.5 0.025 -4.371139E-08
v 0.5081337 -0.025 -0.2104759
v 0.5081337 0.025 -0.2104759
v 0.4619397 -0.025 -0.1913417
v 0.4619397 0.025 -0.1913417
v 0.3889088 -0.025 -0.3889087
v 0.3889088 0.025 -0.3889087
v 0.3535534 -0.025 -0.3535534
v 0.3535534 0.025 -0.3535534
v 0.210476 -0.025 -0.5081337
v 0.210476 0.025 -0.5081337
v 0.1913418 -0.025 -0.4619397
v 0.1913418 0.025 -0.4619397
v -6.558685E-09 -0.025 -0.55
v -6.558685E-09 0.025 -0.55
v -5.962441E-09 -0.025 -0.5
v -5.962441E-09 0.025 -0.5
v -0.210476 -0.025 -0.5081337
v -0.210476 0.025 -0.5081337
v -0.1913418 -0.025 -0.4619397
v -0.1913418 0.025 -0.4619397
v -0.3889087 -0.025 -0.3889088
v -0.3889087 0.025 -0.3889088
v -0.3535533 -0.025 -0.3535534
v -0.3535533 0.025 -0.3535534
v -0.5081338 -0.025 -0.2104759
v -0.5081338 0.025 -0.2104759
v -0.4619398 -0.025 -0.1913417
v -0.4619398 0.025 -0.1913417
v -0.55 -0.5749999 0
v -0.5081337 -0.5749999 0.2104759
v -0.5 -0.5749999 0
v -0.4619397 -0.5749999 0.1913416
v -0.5035142 0.07499993 0.2085625
v -0.545 0.07499993 0
v -0.4665591 0.07499993 0.1932551
v -0.505 0.07499993 0
v -0.3889087 -0.5749999 0.3889089
v -0.3535534 -0.5749999 0.3535533
v -0.3853733 0.07499993 0.3853733
v -0.357089 0.07499993 0.3570888
v -0.2104759 -0.5749999 0.5081336
v -0.1913417 -0.5749999 0.4619398
v -0.2085625 0.07499993 0.5035142
v -0.1932552 0.07499993 0.4665592
v 0 -0.5749999 0.55
v 0 -0.5749999 0.5
v 2.980232E-08 0.07499993 0.545
v 2.980232E-08 0.07499993 0.505
v 0.2104758 -0.5749999 0.5081339
v 0.1913417 -0.5749999 0.4619398
v 0.2085625 0.07499993 0.5035145
v 0.1932551 0.07499993 0.4665592
v 0.3889088 -0.5749999 0.3889089
v 0.3535534 -0.5749999 0.3535533
v 0.3853732 0.07499993 0.3853733
v 0.3570889 0.07499993 0.3570888
v 0.5081338 -0.5749999 0.2104759
v 0.4619397 -0.5749999 0.1913416
v 0.5035143 0.07499993 0.2085625
v 0.4665591 0.07499993 0.1932551
v 0.5500001 -0.5749999 0
v 0.5 -0.5749999 0
v 0.545 0.07499993 0
v 0.505 0.07499993 0
v 0.5081338 -0.5749999 -0.2104759
v 0.4619397 -0.5749999 -0.1913416
v 0.5035143 0.07499993 -0.2085625
v 0.4665591 0.07499993 -0.1932551
v 0.3889088 -0.5749999 -0.3889086
v 0.3535534 -0.5749999 -0.3535533
v 0.3853732 0.07499993 -0.3853731
v 0.357089 0.07499993 -0.3570888
v 0.210476 -0.5749999 -0.5081336
v 0.1913418 -0.5749999 -0.4619398
v 0.2085625 0.07499993 -0.5035142
v 0.1932552 0.07499993 -0.4665592
v 0 -0.5749999 -0.55
v 0 -0.5749999 -0.5
v 0 0.07499993 -0.545
v 0 0.07499993 -0.505
v -0.210476 -0.5749999 -0.5081336
v -0.1913418 -0.5749999 -0.4619398
v -0.2085625 0.07499993 -0.5035142
v -0.1932552 0.07499993 -0.4665592
v -0.3889087 -0.5749999 -0.3889089
v -0.3535533 -0.5749999 -0.3535535
v -0.3853731 0.07499993 -0.3853733
v -0.3570889 0.07499993 -0.3570891
v -0.5081338 -0.5749999 -0.2104759
v -0.4619398 -0.5749999 -0.1913416
v -0.5035143 0.07499993 -0.2085625
v -0.4665592 0.07499993 -0.1932551
v -0.7493885 -0.02500009 -0.7493888
v -0.9791235 -0.0249998 -0.4055662
v -0.7493885 -0.1750001 -0.7493887
v -0.9791235 -0.1749997 -0.4055662
v -0.3535533 -0.07499993 -0.3535535
v -0.1913418 -0.07499993 -0.4619398
v -0.4619398 -0.07499993 -0.1913416
v -1.059796 -0.02499997 6.196297E-08
v -1.059796 -0.175 0
v -0.5 -0.07499993 0
v -0.9791234 -0.02499996 0.4055662
v -0.9791234 -0.175 0.4055662
v -0.4619397 -0.07499993 0.1913416
v -0.7493887 -0.02499944 0.7493887
v -0.7493887 -0.1749994 0.7493887
v -0.3535534 -0.07499993 0.3535533
v -0.4055662 -0.02499979 0.9791234
v -0.4055662 -0.1749997 0.9791234
v -0.1913417 -0.07499993 0.4619398
v -2.630365E-08 -0.02500063 1.059796
v -5.960464E-08 -0.1750005 1.059796
v 0 -0.07499993 0.5
v 0.4055662 -0.02499986 0.9791235
v 0.4055662 -0.1749998 0.9791236
v 0.1913417 -0.07499993 0.4619398
v 0.7493887 -0.02499918 0.7493886
v 0.7493887 -0.1749991 0.7493887
v 0.3535534 -0.07499993 0.3535533
v 0.9791234 -0.02499935 0.4055662
v 0.9791234 -0.1749994 0.4055662
v 0.4619397 -0.07499993 0.1913416
v 1.059796 -0.02499944 -7.906402E-08
v 1.059796 -0.1749994 0
v 0.5 -0.07499993 0
v 0.9791234 -0.0249994 -0.4055662
v 0.9791234 -0.1749994 -0.4055662
v 0.4619397 -0.07499993 -0.1913416
v 0.7493887 -0.025 -0.7493885
v 0.7493887 -0.175 -0.7493885
v 0.3535534 -0.07499993 -0.3535533
v 0.4055663 -0.02500063 -0.9791234
v 0.4055663 -0.1750005 -0.9791234
v 0.1913418 -0.07499993 -0.4619398
v -6.558685E-09 -0.0250006 -1.059796
v 0 -0.1750005 -1.059795
v 0 -0.07499993 -0.5
v -0.4055663 -0.02500057 -0.9791234
v -0.4055663 -0.1750005 -0.9791234
v -0.5081338 -0.175 -0.2104759
v -0.3889087 -0.175 -0.3889089
v -0.55 -0.175 0
v -0.5081337 -0.175 0.2104759
v -0.3889087 -0.175 0.3889089
v -0.2104759 -0.175 0.5081336
v 0 -0.175 0.55
v 0.2104759 -0.175 0.5081339
v 0.3889087 -0.175 0.3889089
v 0.5081338 -0.175 0.2104759
v 0.5500001 -0.175 0
v 0.5081338 -0.175 -0.2104759
v 0.3889087 -0.175 -0.3889086
v 0.210476 -0.175 -0.5081336
v 0 -0.175 -0.55
v -0.210476 -0.175 -0.5081336
v 0.210476 0.06999993 -0.5081336
v 0.3889088 0.06999993 -0.3889086
v 0.1913418 0.06999993 -0.4619398
v -5.962449E-10 0.06999993 -0.5
v 0.3535534 0.06999993 -0.3535533
v 0.5081337 0.06999993 -0.2104759
v 0.4619397 0.06999993 -0.1913417
v 0.55 0.06999993 -4.808259E-09
v 0.5 0.06999993 -4.371145E-09
v 0.5081337 0.06999993 0.2104759
v 0.4619397 0.06999993 0.1913417
v 0.3889087 0.06999993 0.3889089
v 0.3535534 0.06999993 0.3535533
v 0.2104759 0.06999993 0.5081339
v 0.1913417 0.06999993 0.4619398
v 2.922622E-08 0.06999993 0.55
v 2.900766E-08 0.06999993 0.5
v -0.2104759 0.06999993 0.5081336
v -0.1913417 0.06999993 0.4619398
v -0.3889088 0.06999993 0.3889089
v -0.3535534 0.06999993 0.3535533
v -0.5081336 0.06999993 0.2104759
v -0.4619397 0.06999993 0.1913417
v -0.55 0.06999993 0
v -0.5 0.06999993 0
v -0.5081338 0.06999993 -0.2104759
v -0.4619398 0.06999993 -0.1913417
v -0.3889087 0.06999993 -0.3889089
v -0.3535533 0.06999993 -0.3535535
v -0.210476 0.06999993 -0.5081336
v -0.1913418 0.06999993 -0.4619398
v -6.558694E-10 0.06999993 -0.55

vt 0.1072996 -0.025
vt -0.1072998 -0.025
vt 0.1072996 0.025
vt -0.1072998 0.025
vt 0.09754527 -0.025
vt -0.09754508 -0.025
vt 0.09754527 0.025
vt -0.09754508 0.025
vt -0.55 0
vt -0.5081337 0.2104759
vt -0.5 0
vt -0.4619397 0.1913416
vt 0.5035142 0.2085625
vt 0.545 0
vt 0.4665591 0.1932551
vt 0.505 0
vt -0.3889087 0.3889089
vt -0.3535534 0.3535533
vt 0.3853733 0.3853733
vt 0.357089 0.3570888
vt -0.2104759 0.5081336
vt -0.1913417 0.4619398
vt 0.2085625 0.5035142
vt 0.1932552 0.4665592
vt 0 0.55
vt 0 0.5
vt -2.980232E-08 0.545
vt -2.980232E-08 0.505
vt 0.2104758 0.5081339
vt 0.1913417 0.4619398
vt -0.2085625 0.5035145
vt -0.1932551 0.4665592
vt 0.3889088 0.3889089
vt 0.3535534 0.3535533
vt -0.3853732 0.3853733
vt -0.3570889 0.3570888
vt 0.5081338 0.2104759
vt 0.4619397 0.1913416
vt -0.5035143 0.2085625
vt -0.4665591 0.1932551
vt 0.5500001 0
vt 0.5 0
vt -0.545 0
vt -0.505 0
vt 0.5081338 -0.2104759
vt 0.4619397 -0.1913416
vt -0.5035143 -0.2085625
vt -0.4665591 -0.1932551
vt 0.3889088 -0.3889086
vt 0.3535534 -0.3535533
vt -0.3853732 -0.3853731
vt -0.357089 -0.3570888
vt 0.210476 -0.5081336
vt 0.1913418 -0.4619398
vt -0.2085625 -0.5035142
vt -0.1932552 -0.4665592
vt 0 -0.55
vt 0 -0.5
vt 0 -0.545
vt 0 -0.505
vt -0.210476 -0.5081336
vt -0.1913418 -0.4619398
vt 0.2085625 -0.5035142
vt 0.1932552 -0.4665592
vt -0.3889087 -0.3889089
vt -0.3535533 -0.3535535
vt 0.3853731 -0.3853733
vt 0.3570889 -0.3570891
vt -0.5081338 -0.2104759
vt -0.4619398 -0.1913416
vt 0.5035143 -0.2085625
vt 0.4665592 -0.1932551
vt -0.2067558 -0.02499986
vt 0.2067561 -0.02499957
vt -0.2067558 -0.1749998
vt 0.2067561 -0.1749995
vt -0.09754502 -0.07500066
vt 0.09754511 -0.07500066
vt -0.09754527 -0.02499951
vt 0.09754512 -0.02499951
vt -0.09754535 -0.07499944
vt 0.0975452 -0.07499944
vt 0.2067562 -0.02500063
vt 0.2067561 -0.1750005
vt -0.2067559 -0.02500059
vt -0.2067559 -0.1750005
vt 0.9791235 -0.4055662
vt 1.059796 6.394345E-08
vt -0.9791234 -0.4055662
vt -0.7493885 -0.7493886
vt -1.059796 0
vt 0.9791234 0.4055662
vt -0.9791234 0.4055662
vt 0.7493887 0.7493887
vt -0.7493885 0.7493886
vt 0.4055662 0.9791234
vt -0.4055662 0.9791233
vt -2.609439E-08 0.55
vt 2.425048E-08 1.059796
vt -0.55 -5.440559E-08
vt 0.5499999 -4.069919E-08
vt 0.7493887 -0.7493885
vt -0.4055663 -0.9791234
vt 0.4055665 -0.9791235
vt 3.811515E-10 -0.5500001
vt 3.810033E-10 -1.059796
vt 0.1072996 0.02499941
vt -0.1072997 0.02499941
vt 0.1072996 0.06999933
vt -0.1072997 0.06999933
vt 0.09754515 0.07000088
vt -0.09754524 0.07000088
vt 0.09754515 0.02499946
vt -0.09754514 0.02499946
vt 0.09754518 0.06999939
vt -0.09754519 0.06999939
vt 0.1072998 0.07000003
vt -0.1072996 0.07000003
vt -0.1445054 -0.3054461
vt -0.2983488 -0.1586416
vt -0.1486347 -0.3111863
vt -0.3038895 -0.1630349
vt -0.2454569 -0.2322275
vt -0.3355728 -0.03961799
vt -0.251387 -0.2360789
vt -0.3423297 -0.04170239
vt -0.3030063 -0.1495537
vt -0.3323412 0.06106165
vt -0.3098083 -0.151486
vt -0.3394123 0.06106165
vt -0.3323399 -0.06106199
vt -0.3030051 0.1495534
vt -0.3394109 -0.06106199
vt -0.309807 0.1514857
vt -0.3355734 0.03961872
vt -0.2454574 0.2322284
vt -0.3423303 0.04170313
vt -0.2513874 0.2360798
vt -0.2983481 0.1586401
vt -0.1445049 0.3054449
vt -0.3038887 0.1630335
vt -0.1486341 0.3111851
vt 0.1063246 -0.3207402
vt -0.1063238 -0.3207402
vt 0.1073 -0.3277436
vt -0.1072992 -0.3277436
vt 0.1445055 0.305446
vt 0.2983491 0.1586417
vt 0.1486347 0.3111862
vt 0.3038897 0.1630351
vt 0.245456 0.2322272
vt 0.3355716 0.0396174
vt 0.2513861 0.2360786
vt 0.3423285 0.04170179
vt 0.3030063 0.1495537
vt 0.3323412 -0.06106165
vt 0.3098082 0.151486
vt 0.3394122 -0.06106165
vt 0.3323398 0.0610618
vt 0.3030051 -0.1495536
vt 0.3394109 0.0610618
vt 0.3098071 -0.1514859
vt 0.3355735 -0.03961851
vt 0.2454573 -0.2322282
vt 0.3423304 -0.04170291
vt 0.2513874 -0.2360797
vt 0.2983485 -0.1586409
vt 0.1445052 -0.3054453
vt 0.3038891 -0.1630342
vt 0.1486345 -0.3111855
vt -0.347669 -0.2216298
vt -0.205117 -0.3576599
vt -0.3421284 -0.2172364
vt -0.2009878 -0.3519197
vt 0.09852084 0.4003585
vt -0.09852046 0.4003585
vt 0.09754537 0.393355
vt -0.09754501 0.393355
vt 0.2051171 -0.3576596
vt 0.3476689 -0.2216297
vt 0.2009878 -0.3519194
vt 0.3421283 -0.2172363
vt 0.3208802 -0.2589005
vt 0.4043822 -0.08042718
vt 0.3149501 -0.2550491
vt 0.3976254 -0.07834279
vt 0.3829398 -0.1528079
vt 0.4101215 0.04234943
vt 0.3761379 -0.1508756
vt 0.4030505 0.04234943
vt 0.4101217 -0.04234946
vt 0.3829399 0.1528078
vt 0.4030506 -0.04234946
vt 0.3761379 0.1508756
vt 0.4043818 0.08042674
vt 0.32088 0.2588999
vt 0.3976249 0.07834235
vt 0.3149499 0.2550484
vt 0.3476689 0.2216291
vt 0.205117 0.3576594
vt 0.3421282 0.2172358
vt 0.2009877 0.3519192
vt -0.2051169 0.3576594
vt -0.3476689 0.2216291
vt -0.2009877 0.3519192
vt -0.3421282 0.2172358
vt -0.3208798 0.2588997
vt -0.4043816 0.08042645
vt -0.3149497 0.2550482
vt -0.3976247 0.07834206
vt -0.3829398 0.1528078
vt -0.4101216 -0.04234949
vt -0.3761379 0.1508756
vt -0.4030505 -0.04234949
vt -0.4101216 0.04234947
vt -0.3829398 -0.1528078
vt -0.4030506 0.04234947
vt -0.3761379 -0.1508756
vt -0.4043818 -0.08042674
vt -0.32088 -0.2588999
vt -0.3976249 -0.07834235
vt -0.3149499 -0.2550484
vt -0.09754516 -0.5749999
vt 0.09754509 -0.5749999

vn -0.9238795 0 0.3826835
vn -1 0 1.367378E-07
vn 1 0 -1.519309E-07
vn 0.9238796 0 -0.3826834
vn -0.7071068 0 0.7071068
vn 0.7071068 0 -0.7071068
vn -0.3826834 0 0.9238796
vn 0.3826834 0 -0.9238796
vn -9.87551E-08 0 1
vn 1.367378E-07 0 -1
vn 0.3826834 0 0.9238796
vn -0.3826833 0 -0.9238796
vn 0.7071068 0 0.7071068
vn -0.7071068 0 -0.7071067
vn 0.9238795 0 0.3826835
vn -0.9238796 0 -0.3826834
vn 0 -1 0
vn 0 1 0
vn -0.8314695 -2.207639E-07 -0.5555704
vn 0.5555702 -1.486785E-06 0.8314696
vn 0.8314695 9.934387E-07 0.5555704
vn -0.9807853 -3.876098E-08 -0.1950903
vn 0.9807853 0 0.1950902
vn -0.9807852 -8.058932E-08 0.1950907
vn 0.9807853 3.488495E-07 -0.1950905
vn -0.8314698 0 0.5555699
vn 0.8314698 1.324584E-06 -0.55557
vn -0.5555699 0 0.8314698
vn 0.5555699 -1.321213E-06 -0.8314698
vn -0.1950906 0 0.9807853
vn 0.1950905 -8.527689E-08 -0.9807853
vn 0.1950903 -4.331137E-08 0.9807853
vn -0.1950903 -5.264529E-07 -0.9807853
vn -0.5555701 1.982381E-06 -0.8314697
vn 0.2705976 0.7071078 -0.6532805
vn 0.4999996 0.7071074 -0.4999995
vn 0.6532803 0.707108 -0.2705977
vn 0.7071068 0.7071067 1.504783E-07
vn 0.6532806 0.7071078 0.2705974
vn 0.5000003 0.7071064 0.5000002
vn 0.2705976 0.7071074 0.6532809
vn -4.740068E-07 0.7071066 0.7071069
vn -0.2705972 0.7071078 0.6532807
vn -0.5000005 0.7071063 0.5000002
vn -0.6532809 0.7071075 0.2705977
vn -0.7071068 0.7071067 6.771525E-08
vn -0.6532806 0.7071078 -0.2705975
vn -0.4999994 0.7071074 -0.4999998
vn -0.2705975 0.707108 -0.6532804
vn 1.128588E-07 0.7071068 -0.7071068
vn -0.5000002 0.7071068 0.4999997
vn 0.5 0.7071069 0.4999999
vn 0.5000001 0.7071068 0.4999999
vn 0.5000009 0.7071058 -0.5000005
vn -0.500001 0.7071056 -0.5000007

usemtl MetalPlates003
f 3/3/1 4/4/2 2/2/2 1/1/1
f 7/7/3 8/8/4 6/6/4 5/5/3
f 10/3/5 3/4/1 1/2/1 9/1/5
f 8/7/4 12/8/6 11/6/6 6/5/4
f 14/3/7 10/4/5 9/2/5 13/1/7
f 12/7/6 16/8/8 15/6/8 11/5/6
f 18/3/9 14/4/7 13/2/7 17/1/9
f 16/7/8 20/8/10 19/6/10 15/5/8
f 22/3/11 18/4/9 17/2/9 21/1/11
f 20/7/10 24/8/12 23/6/12 19/5/10
f 26/3/13 22/4/11 21/2/11 25/1/13
f 24/7/12 28/8/14 27/6/14 23/5/12
f 30/3/15 26/4/13 25/2/13 29/1/15
f 28/7/14 32/8/16 31/6/16 27/5/14
f 34/3/3 30/4/15 29/2/15 33/1/3
f 32/7/16 36/8/2 35/6/2 31/5/16
f 38/3/4 34/4/3 33/2/3 37/1/4
f 36/7/2 40/8/1 39/6/1 35/5/2
f 42/3/6 38/4/4 37/2/4 41/1/6
f 40/7/1 44/8/5 43/6/5 39/5/1
f 46/3/8 42/4/6 41/2/6 45/1/8
f 44/7/5 48/8/7 47/6/7 43/5/5
f 50/3/10 46/4/8 45/2/8 49/1/10
f 48/7/7 52/8/9 51/6/9 47/5/7
f 54/3/12 50/4/10 49/2/10 53/1/12
f 52/7/9 56/8/11 55/6/11 51/5/9
f 58/3/14 54/4/12 53/2/12 57/1/14
f 56/7/11 60/8/13 59/6/13 55/5/11
f 62/3/16 58/4/14 57/2/14 61/1/16
f 60/7/13 64/8/15 63/6/15 59/5/13
f 4/3/2 62/4/16 61/2/16 2/1/2
f 64/7/15 7/8/3 5/6/3 63/5/15
f 67/11/17 68/12/17 66/10/17 65/9/17
f 71/15/18 72/16/18 70/14/18 69/13/18
f 68/12/17 74/18/17 73/17/17 66/10/17
f 76/20/18 71/15/18 69/13/18 75/19/18
f 74/18/17 78/22/17 77/21/17 73/17/17
f 80/24/18 76/20/18 75/19/18 79/23/18
f 78/22/17 82/26/17 81/25/17 77/21/17
f 84/28/18 80/24/18 79/23/18 83/27/18
f 82/26/17 86/30/17 85/29/17 81/25/17
f 88/32/18 84/28/18 83/27/18 87/31/18
f 86/30/17 90/34/17 89/33/17 85/29/17
f 92/36/18 88/32/18 87/31/18 91/35/18
f 90/34/17 94/38/17 93/37/17 89/33/17
f 96/40/18 92/36/18 91/35/18 95/39/18
f 94/38/17 98/42/17 97/41/17 93/37/17
f 100/44/18 96/40/18 95/39/18 99/43/18
f 98/42/17 102/46/17 101/45/17 97/41/17
f 104/48/18 100/44/18 99/43/18 103/47/18
f 102/46/17 106/50/17 105/49/17 101/45/17
f 108/52/18 104/48/18 103/47/18 107/51/18
f 106/50/17 110/54/17 109/53/17 105/49/17
f 112/56/18 108/52/18 107/51/18 111/55/18
f 110/54/17 114/58/17 113/57/17 109/53/17
f 116/60/18 112/56/18 111/55/18 115/59/18
f 114/58/17 118/62/17 117/61/17 113/57/17
f 120/64/18 116/60/18 115/59/18 119/63/18
f 118/62/17 122/66/17 121/65/17 117/61/17
f 124/68/18 120/64/18 119/63/18 123/67/18
f 122/66/17 126/70/17 125/69/17 121/65/17
f 128/72/18 124/68/18 123/67/18 127/71/18
f 126/70/17 67/11/17 65/9/17 125/69/17
f 72/16/18 128/72/18 127/71/18 70/14/18
f 131/75/19 132/76/19 130/74/19 129/73/19
f 133/77/20 134/78/20 55/5/20 59/6/20
f 135/81/21 133/82/21 59/80/21 63/79/21
f 132/75/22 137/76/22 136/74/22 130/73/22
f 138/81/23 135/82/23 63/5/23 5/6/23
f 137/75/24 140/76/24 139/74/24 136/73/24
f 141/81/25 138/82/25 5/80/25 6/79/25
f 140/75/26 143/76/26 142/74/26 139/73/26
f 144/81/27 141/82/27 6/80/27 11/79/27
f 143/75/28 146/76/28 145/74/28 142/73/28
f 147/77/29 144/78/29 11/5/29 15/6/29
f 146/75/30 149/84/30 148/83/30 145/73/30
f 150/81/31 147/82/31 15/5/31 19/6/31
f 149/86/32 152/76/32 151/74/32 148/85/32
f 153/77/33 150/78/33 19/5/33 23/6/33
f 152/86/20 155/76/20 154/74/20 151/85/20
f 156/81/34 153/82/34 23/80/34 27/79/34
f 155/75/21 158/76/21 157/74/21 154/73/21
f 159/81/19 156/82/19 27/80/19 31/79/19
f 158/75/23 161/76/23 160/74/23 157/73/23
f 162/77/22 159/78/22 31/5/22 35/6/22
f 161/75/25 164/76/25 163/74/25 160/73/25
f 165/81/24 162/82/24 35/80/24 39/79/24
f 164/75/27 167/76/27 166/83/27 163/73/27
f 168/81/26 165/82/26 39/80/26 43/79/26
f 167/75/29 170/84/29 169/83/29 166/73/29
f 171/77/28 168/78/28 43/5/28 47/6/28
f 170/86/31 173/84/31 172/83/31 169/85/31
f 174/81/30 171/82/30 47/5/30 51/6/30
f 173/75/33 176/76/33 175/74/33 172/73/33
f 134/77/32 174/78/32 51/5/32 55/6/32
f 176/86/34 131/84/34 129/83/34 175/85/34
f 130/87/18 136/88/18 2/41/18 61/45/18
f 132/89/17 131/90/17 178/65/17 177/69/17
f 137/91/17 132/89/17 177/69/17 179/9/17
f 136/88/18 139/92/18 1/37/18 2/41/18
f 140/93/17 137/91/17 179/9/17 180/10/17
f 139/92/18 142/94/18 9/33/18 1/37/18
f 143/95/17 140/93/17 180/10/17 181/17/17
f 142/94/18 145/96/18 13/29/18 9/33/18
f 146/97/17 143/95/17 181/17/17 182/21/17
f 145/96/18 148/99/18 17/98/18 13/29/18
f 149/99/17 146/97/17 182/21/17 183/98/17
f 148/99/18 151/97/18 21/21/18 17/98/18
f 152/96/17 149/99/17 183/25/17 184/29/17
f 151/97/18 154/95/18 25/17/18 21/21/18
f 155/94/17 152/96/17 184/29/17 185/33/17
f 154/95/18 157/93/18 29/10/18 25/17/18
f 158/92/17 155/94/17 185/33/17 186/37/17
f 157/93/18 160/91/18 33/100/18 29/10/18
f 161/88/17 158/92/17 186/37/17 187/101/17
f 160/91/18 163/89/18 37/69/18 33/9/18
f 164/87/17 161/88/17 187/101/17 188/45/17
f 163/89/18 166/90/18 41/65/18 37/69/18
f 167/102/17 164/87/17 188/45/17 189/49/17
f 166/90/18 169/103/18 45/61/18 41/65/18
f 170/104/17 167/102/17 189/49/17 190/53/17
f 169/103/18 172/106/18 49/105/18 45/61/18
f 173/106/17 170/104/17 190/53/17 191/105/17
f 172/106/18 175/104/18 53/53/18 49/105/18
f 176/103/17 173/106/17 191/105/17 192/61/17
f 175/104/18 129/102/18 57/49/18 53/53/18
f 131/90/17 176/103/17 192/61/17 178/65/17
f 129/102/18 130/87/18 61/45/18 57/49/18
f 193/109/8 194/110/6 42/108/6 46/107/8
f 195/111/30 196/112/30 52/8/30 48/7/30
f 197/115/28 195/116/28 48/114/28 44/113/28
f 194/109/6 198/110/4 38/108/4 42/107/6
f 199/115/26 197/116/26 44/114/26 40/113/26
f 198/109/4 200/110/3 34/4/3 38/3/4
f 201/115/24 199/116/24 40/114/24 36/113/24
f 200/117/3 202/118/15 30/4/15 34/3/3
f 203/115/22 201/116/22 36/114/22 32/113/22
f 202/109/15 204/110/13 26/4/13 30/3/15
f 205/115/19 203/116/19 32/114/19 28/113/19
f 204/117/13 206/118/11 22/4/11 26/3/13
f 207/111/34 205/112/34 28/8/34 24/7/34
f 206/117/11 208/118/9 18/4/9 22/3/11
f 209/115/33 207/116/33 24/8/33 20/7/33
f 208/109/9 210/110/7 14/108/7 18/107/9
f 211/111/31 209/112/31 20/8/31 16/7/31
f 210/109/7 212/110/5 10/108/5 14/107/7
f 213/115/29 211/116/29 16/114/29 12/113/29
f 212/117/5 214/118/1 3/4/1 10/3/5
f 215/115/27 213/116/27 12/114/27 8/113/27
f 214/109/1 216/110/2 4/108/2 3/107/1
f 217/115/25 215/116/25 8/8/25 7/7/25
f 216/109/2 218/110/16 62/108/16 4/107/2
f 219/115/23 217/116/23 7/114/23 64/113/23
f 218/117/16 220/118/14 58/4/14 62/3/16
f 221/111/21 219/112/21 64/8/21 60/7/21
f 220/117/14 222/118/12 54/4/12 58/3/14
f 223/111/20 221/112/20 60/8/20 56/7/20
f 222/109/12 224/110/10 50/108/10 54/107/12
f 196/115/32 223/116/32 56/114/32 52/113/32
f 224/109/10 193/110/8 46/108/8 50/107/10
f 194/122/36 193/121/35 111/119/35 107/120/36
f 198/126/37 194/125/36 107/123/36 103/124/37
f 200/130/38 198/129/37 103/127/37 99/128/38
f 202/134/39 200/133/38 99/131/38 95/132/39
f 204/138/40 202/137/39 95/135/39 91/136/40
f 206/142/41 204/141/40 91/139/40 87/140/41
f 208/146/42 206/145/41 87/143/41 83/144/42
f 210/146/43 208/145/42 83/143/42 79/144/43
f 212/150/44 210/149/43 79/147/43 75/148/44
f 214/154/45 212/153/44 75/151/44 69/152/45
f 216/158/46 214/157/45 69/155/45 70/156/46
f 218/162/47 216/161/46 70/159/46 127/160/47
f 220/166/48 218/165/47 127/163/47 123/164/48
f 222/170/49 220/169/48 123/167/48 119/168/49
f 224/146/50 222/145/49 119/143/49 115/144/50
f 193/146/35 224/145/50 115/143/50 111/144/35
f 195/174/43 197/173/51 108/171/51 112/172/43
f 196/178/42 195/177/43 112/175/43 116/176/42
f 223/178/41 196/177/42 116/175/42 120/176/41
f 221/182/53 223/181/41 120/179/41 124/180/52
f 219/186/39 221/185/53 124/183/52 128/184/39
f 217/190/38 219/189/39 128/187/39 72/188/38
f 215/194/37 217/193/38 72/191/38 71/192/37
f 213/198/54 215/197/37 71/195/37 76/196/54
f 211/202/35 213/201/54 76/199/54 80/200/35
f 209/178/50 211/177/35 80/175/35 84/176/50
f 207/178/49 209/177/50 84/175/50 88/176/49
f 205/206/55 207/205/49 88/203/49 92/204/55
f 203/210/47 205/209/55 92/207/55 96/208/47
f 201/214/46 203/213/47 96/211/47 100/212/46
f 199/218/45 201/217/46 100/215/46 104/216/45
f 197/222/51 199/221/45 104/219/45 108/220/51
f 67/223/3 126/224/15 135/82/15 138/81/3
f 68/223/4 67/224/3 138/82/3 141/81/4
f 74/223/6 68/224/4 141/82/4 144/81/6
f 78/223/8 74/224/6 144/82/6 147/81/8
f 82/223/10 78/224/8 147/82/8 150/81/10
f 86/223/12 82/224/10 150/82/10 153/81/12
f 90/223/14 86/224/12 153/82/12 156/81/14
f 94/223/16 90/224/14 156/82/14 159/81/16
f 98/223/2 94/224/16 159/82/16 162/81/2
f 102/223/1 98/224/2 162/82/2 165/81/1
f 106/223/5 102/224/1 165/82/1 168/81/5
f 110/223/7 106/224/5 168/82/5 171/81/7
f 114/223/9 110/224/7 171/82/7 174/81/9
f 118/223/11 114/224/9 174/82/9 134/81/11
f 122/223/13 118/224/11 134/82/11 133/81/13
f 126/223/15 122/224/13 133/82/13 135/81/15

