# ProBuilder 5.0.4
# https://unity3d.com/unity/features/worldbuilding/probuilder
# 5/18/2022 9:28:48 PM

mtllib ./FSP-S6-Mag.mtl
o FSP-S6-Mag

g FSP-S6-Mag
v 0.0250001 0.1329178 -0.1093246
v -0.0250001 0.1329178 -0.1093246
v -0.0250001 0.1329178 0.06067538
v 0.0250001 0.1329178 0.0606755
v -0.02500002 -0.20015 0.1249999
v 0.02500002 -0.20015 0.1249999
v 0.02500002 -0.20015 -0.04500002
v -0.02500002 -0.20015 -0.04500002
v 0.0250001 -0.2202501 0.125
v -0.0250001 -0.2202501 0.1249999
v -0.0250001 -0.2202501 -0.04500008
v 0.0250001 -0.2202501 -0.04500008
v 0.03500003 -0.20015 0.1249999
v 0.03500003 -0.20015 -0.04500002
v 0.03500009 -0.22025 0.125
v 0.03500009 -0.22025 -0.04500008
v -0.0150001 -0.20015 0.1450999
v 0.0150001 -0.20015 0.1450999
v -0.0150001 -0.2202501 0.1450999
v 0.0150001 -0.2202501 0.1451
v 0.0150001 -0.20015 -0.06509995
v -0.0150001 -0.20015 -0.06509995
v 0.0150001 -0.2202501 -0.06510007
v -0.0150001 -0.2202501 -0.06510007
v -0.03500003 -0.20015 -0.04499998
v -0.03500003 -0.20015 0.1249999
v -0.03500009 -0.22025 -0.04500004
v -0.03500009 -0.22025 0.1249999
v -0.0250001 -0.22025 0.1350999
v -0.0250001 -0.20015 0.1350999
v 0.0250001 -0.20015 0.1350998
v 0.0250001 -0.22025 0.1350999
v 0.0250001 -0.22025 -0.05510008
v 0.0250001 -0.20015 -0.05509996
v -0.0250001 -0.20015 -0.05509984
v -0.0250001 -0.22025 -0.05509996

vt 0.08747506 0.3303127
vt 0.06247497 0.3303127
vt 0.06247497 0.4153127
vt 0.08747506 0.4153128
vt 0.087475 0.03747499
vt 0.06247498 0.03747499
vt 0.08747503 0.2040089
vt 0.06247494 0.2040089
vt 0.947475 0.04173303
vt 0.862475 0.04173303
vt 0.9153128 0.208267
vt 0.8303127 0.208267
vt 0.637525 0.04173303
vt 0.552525 0.04173303
vt 0.6696873 0.208267
vt 0.5846873 0.208267
vt 0.3500251 0.3260779
vt 0.325025 0.3260779
vt 0.325025 0.2410779
vt 0.3500251 0.2410779
vt 0.2750251 0.1635029
vt 0.360025 0.1635029
vt 0.275025 0.1534529
vt 0.360025 0.1534529
vt 0.330025 0.1635029
vt 0.3450251 0.1635029
vt 0.330025 0.1534529
vt 0.3450251 0.1534529
vt 0.315025 0.1635029
vt 0.400025 0.1635029
vt 0.315025 0.1534529
vt 0.400025 0.1534529
vt 0.3450251 0.3361278
vt 0.330025 0.3361278
vt 0.3696258 0.1534528
vt 0.3696258 0.1635028
vt 0.3767323 0.1534528
vt 0.3767323 0.1635028
vt 0.3054244 0.1635027
vt 0.3054244 0.1534527
vt 0.298318 0.1635027
vt 0.2983179 0.1534527
vt 0.330025 0.231028
vt 0.3450251 0.231028
vt 0.3412012 0.1534528
vt 0.3412012 0.1635028
vt 0.3483077 0.1534528
vt 0.3483077 0.1635028
vt 0.3338489 0.1635028
vt 0.3338489 0.1534528
vt 0.3267425 0.1635028
vt 0.3267424 0.1534528
vt 0.3550247 0.2410779
vt 0.3550247 0.3260779
vt 0.3500243 0.2360285
vt 0.3250256 0.3311276
vt 0.3200256 0.3260776
vt 0.3200253 0.2410779
vt 0.3500248 0.3311276
vt 0.3835222 0.1635029
vt 0.3835222 0.1534529
vt 0.3764512 0.1635029
vt 0.3764512 0.1534529
vt 0.3250253 0.2360281
vt 0.3198118 0.1534528
vt 0.3198119 0.1635028
vt 0.355238 0.1635028
vt 0.355238 0.1534528
vt 0.2915274 0.1534527
vt 0.2915275 0.1635027
vt 0.2985985 0.1534527
vt 0.2985986 0.1635027

vn 0 1 0
vn -1.170464E-06 0.1896234 0.9818569
vn 1 -2.125108E-07 0
vn 0 -0.1896235 -0.9818569
vn -1 -2.125108E-07 0
vn 0 -1 0
vn 0.924828 4.213295E-06 0.3803855
vn 0.9248288 4.136447E-06 -0.3803838
vn -0.3826834 0 0.9238795
vn 0.3826853 3.874476E-06 0.9238787
vn 0.3826834 5.479347E-06 -0.9238795
vn -0.3826862 5.47934E-06 -0.9238784
vn -0.924828 4.213296E-06 -0.3803856
vn -0.924829 2.44446E-06 0.3803831
vn -0.7088643 5.926698E-07 0.7053449
vn 0.7088645 4.254326E-06 0.7053447
vn 0.7088638 4.254334E-06 -0.7053455
vn -0.7088644 4.254326E-06 -0.7053448
vn 1.490116E-06 0.5 -1.112021E-06
vn 0 0 0
vn -1.490119E-06 -0.5 -7.413521E-07

usemtl Default
f 3/3/1 4/4/1 1/1/1 2/2/1
f 5/5/2 6/6/2 4/8/2 3/7/2
f 6/9/3 7/10/3 1/12/3 4/11/3
f 7/5/4 8/6/4 2/8/4 1/7/4
f 8/13/5 5/14/5 3/16/5 2/15/5
f 10/18/6 11/19/6 12/20/6 9/17/6
f 15/23/7 16/24/8 14/22/8 13/21/7
f 19/27/9 20/28/10 18/26/10 17/25/9
f 23/27/11 24/28/12 22/26/12 21/25/11
f 27/31/13 28/32/14 26/30/14 25/29/13
f 17/33/1 18/34/1 6/18/1 5/17/1
f 29/37/15 30/38/15 26/36/14 28/35/14
f 31/41/16 32/42/16 15/40/7 13/39/7
f 20/33/6 19/34/6 10/18/6 9/17/6
f 21/43/1 22/44/1 8/20/1 7/19/1
f 33/47/17 34/48/17 14/46/8 16/45/8
f 35/51/18 36/52/18 27/50/13 25/49/13
f 24/43/6 23/44/6 12/20/6 11/19/6
f 25/53/1 26/54/1 5/17/1 8/20/1
f 35/55/1 25/53/1 8/20/1 22/44/1
f 29/56/6 28/57/6 10/18/6 19/34/6
f 28/57/6 27/58/6 11/19/6 10/18/6
f 26/54/19 30/59/20 17/33/19 5/17/1
f 30/62/15 29/63/15 19/61/9 17/60/9
f 27/58/21 36/64/20 24/43/21 11/19/6
f 36/52/18 35/51/18 22/66/12 24/65/12
f 13/57/1 14/58/1 7/19/1 6/18/1
f 31/56/1 13/57/1 6/18/1 18/34/1
f 33/55/6 16/53/6 12/20/6 23/44/6
f 16/53/6 15/54/6 9/17/6 12/20/6
f 14/58/19 34/64/20 21/43/19 7/19/1
f 34/48/17 33/47/17 23/68/11 21/67/11
f 15/54/21 32/59/20 20/33/21 9/17/6
f 32/71/16 31/72/16 18/70/10 20/69/10

