# ProBuilder 5.0.4
# https://unity3d.com/unity/features/worldbuilding/probuilder
# 5/18/2022 9:28:48 PM

mtllib ./FSP-S6-Trigger.mtl
o FSP-S6-Trigger

g FSP-S6-Trigger
v -0.004999876 0.07505988 -0.1496974
v -0.005000114 -0.09509961 -0.1607006
v 0.005000114 -0.09509961 -0.1607006
v 0.005000114 0.07505988 -0.1496974
v -0.004999876 0.07507975 -0.009498477
v -0.005000114 -0.09507973 -0.02050149
v -0.004999876 0.07506981 -0.139598
v -0.005000114 -0.09508967 -0.150601
v 0.005000114 0.07507975 -0.009498477
v 0.005000114 0.07506981 -0.139598
v -0.005000114 -0.1051797 -0.02050149
v 0.005000114 -0.1051797 -0.02050149
v -0.005000114 -0.1051897 -0.150601
v 0.005000114 -0.1051897 -0.150601
v 0.005000114 -0.09507973 -0.02050149
v 0.005000114 -0.09508967 -0.150601
v -0.01499987 0.07506983 -0.139598
v -0.01500011 -0.09508967 -0.150601
v -0.01499987 0.07505989 -0.1496974
v -0.01500011 -0.09509961 -0.1607006
v -0.005000114 -0.1051996 -0.1607004
v 0.005000114 -0.1051996 -0.1607004
v 0.01500011 -0.09508967 -0.150601
v 0.0150001 0.07506981 -0.139598
v 0.01500011 -0.09509961 -0.1607006
v 0.0150001 0.07505988 -0.1496974
v -0.01500011 -0.1051996 -0.1607004
v -0.01500011 -0.1051897 -0.150601
v 0.01500011 -0.1051897 -0.150601
v 0.01500011 -0.1051996 -0.1607004
v -0.0150001 -0.09507973 -0.02050149
v -0.0150001 -0.1051797 -0.02050149
v 0.0150001 -0.09507973 -0.02050149
v 0.0150001 -0.1051797 -0.02050149

vt 0.08247498 0.262625
vt 0.08247501 0.1675453
vt 0.06747498 0.1675453
vt 0.06747498 0.262625
vt 0.07022575 0.3162639
vt 0.06472424 0.2316056
vt 0.005175948 0.316259
vt -0.0003255606 0.2316006
vt 0.07247493 0.2741871
vt 0.07747492 0.2741871
vt 0.07247493 0.2094595
vt 0.07747492 0.2094595
vt 0.07247493 0.268706
vt 0.07747504 0.268706
vt 0.07247493 0.2039784
vt 0.07747504 0.2039784
vt 0.08522573 0.2316056
vt 0.07972422 0.3162639
vt 0.1502755 0.2316006
vt 0.144774 0.316259
vt 0.0001262426 0.316254
vt -0.005375326 0.2315957
vt 0.07247493 0.2044688
vt 0.07747492 0.2044688
vt 0.07247493 0.1989062
vt 0.07747504 0.1989062
vt 0.1553253 0.2315957
vt 0.1498237 0.316254
vt -0.005375266 0.2265707
vt -0.0003255606 0.2265756
vt 0.1502755 0.2265756
vt 0.1553252 0.2265707
vt 0.07247493 0.2315966
vt 0.07747504 0.2315966
vt 0.07247493 0.2265716
vt 0.07747504 0.2265716
vt 0.06472424 0.2265806
vt 0.08522573 0.2265806
vt 0.07247504 0.3116995
vt 0.06747504 0.3116995
vt 0.06747492 0.2268643
vt 0.08247498 0.2044688
vt 0.08247498 0.2094935
vt 0.08247504 0.2265716
vt 0.08247504 0.2315966
vt 0.07747493 0.3113702
vt 0.08247492 0.3113703
vt 0.06747493 0.2316056
vt 0.06747492 0.2039309
vt 0.06747492 0.1989062
vt 0.08247501 0.2039788
vt 0.08247501 0.2687064
vt 0.06747493 0.268706
vt 0.06747493 0.2094935
vt 0.06747493 0.2044688
vt 0.08247504 0.1989062
vt 0.07747504 0.3116995
vt 0.08247504 0.3116995
vt 0.07247493 0.3113702
vt 0.06747493 0.3113702

vn 0 0.0645289 -0.9979159
vn -1 1.401155E-06 -1.070425E-10
vn 0 1 -7.639593E-05
vn 0 -1 7.639593E-05
vn 1 0 0
vn 0 0.9999995 -0.0009841236
vn 0 -0.9999995 0.0009841237
vn 0 -1.180289E-05 -1
vn 0 0 1
vn -9.615461E-08 -0.0645282 0.9979159

usemtl Default
f 4/4/1 3/3/1 2/2/1 1/1/1
f 7/7/2 8/8/2 6/6/2 5/5/2
f 10/11/3 7/12/3 5/10/3 9/9/3
f 13/15/4 14/16/4 12/14/4 11/13/4
f 16/19/5 10/20/5 9/18/5 15/17/5
f 19/21/2 20/22/2 18/8/2 17/7/2
f 4/23/6 1/24/6 7/12/6 10/11/6
f 21/25/7 22/26/7 14/16/7 13/15/7
f 25/27/5 26/28/5 24/20/5 23/19/5
f 27/29/2 28/30/2 18/8/2 20/22/2
f 29/31/5 30/32/5 25/27/5 23/19/5
f 22/35/8 21/36/8 2/34/8 3/33/8
f 11/35/9 12/36/9 15/34/9 6/33/9
f 28/30/2 32/37/2 31/6/2 18/8/2
f 34/38/5 29/31/5 23/19/5 33/17/5
f 17/40/10 18/41/10 8/35/10 7/39/10
f 19/42/6 17/43/6 7/12/6 1/24/6
f 27/44/8 20/45/8 2/34/8 21/36/8
f 20/44/1 19/47/1 1/46/1 2/36/1
f 31/48/9 32/41/9 11/35/9 6/33/9
f 28/49/7 27/50/7 21/25/7 13/15/7
f 18/51/3 31/52/3 6/14/3 8/16/3
f 32/53/4 28/49/4 13/15/4 11/13/4
f 33/53/3 23/49/3 16/15/3 15/13/3
f 34/44/9 33/45/9 15/34/9 12/36/9
f 25/48/8 30/41/8 22/35/8 3/33/8
f 29/51/4 34/52/4 12/14/4 14/16/4
f 24/54/6 26/55/6 4/23/6 10/11/6
f 30/56/7 29/51/7 14/16/7 22/26/7
f 23/44/10 24/58/10 10/57/10 16/36/10
f 26/60/1 25/41/1 3/35/1 4/59/1

