# ProBuilder 5.0.4
# https://unity3d.com/unity/features/worldbuilding/probuilder
# 5/18/2022 9:28:48 PM

mtllib ./FSP-G6-Barrel.mtl
o FSP-G6-Barrel

g FSP-G6-Barrel
v -0.04330127 -0.025 0.025
v -0.05 -0.025 0
v -0.04330127 0.025 0.025
v -0.05 0.025 0
v -0.03 -0.025 0
v -0.02598076 -0.025 0.015
v -0.03 0.025 0
v -0.02598076 0.025 0.015
v -0.025 -0.025 0.04330127
v -0.025 0.025 0.04330127
v -0.015 -0.025 0.02598076
v -0.015 0.025 0.02598076
v 2.18557E-09 -0.025 0.05
v 2.18557E-09 0.025 0.05
v 1.311342E-09 -0.025 0.03
v 1.311342E-09 0.025 0.03
v 0.025 -0.025 0.04330127
v 0.025 0.025 0.04330127
v 0.015 -0.025 0.02598076
v 0.015 0.025 0.02598076
v 0.04330127 -0.025 0.025
v 0.04330127 0.025 0.025
v 0.02598076 -0.025 0.015
v 0.02598076 0.025 0.015
v 0.05 -0.025 -4.371139E-09
v 0.05 0.025 -4.371139E-09
v 0.03 -0.025 -2.622683E-09
v 0.03 0.025 -2.622683E-09
v 0.04330127 -0.025 -0.025
v 0.04330127 0.025 -0.025
v 0.02598076 -0.025 -0.015
v 0.02598076 0.025 -0.015
v 0.025 -0.025 -0.04330127
v 0.025 0.025 -0.04330127
v 0.015 -0.025 -0.02598076
v 0.015 0.025 -0.02598076
v -5.962441E-10 -0.025 -0.05
v -5.962441E-10 0.025 -0.05
v -3.577464E-10 -0.025 -0.03
v -3.577464E-10 0.025 -0.03
v -0.025 -0.025 -0.04330127
v -0.025 0.025 -0.04330127
v -0.015 -0.025 -0.02598076
v -0.015 0.025 -0.02598076
v -0.04330127 -0.025 -0.02500001
v -0.04330127 0.025 -0.02500001
v -0.02598076 -0.025 -0.01500001
v -0.02598076 0.025 -0.01500001

vt 0.05000001 0
vt 0.02500001 0
vt 0.05000001 0.05
vt 0.02500001 0.05
vt 0.01 0
vt 0.01 0.05
vt 0.01830127 0
vt 0 0
vt 0.01830127 0.05
vt 0 0.05
vt 0.06928203 0
vt 0.05830127 0
vt 0.06928203 0.05
vt 0.05830127 0.05
vt 0.04330127 0
vt 0.04330127 0.05
vt 0.06830128 0
vt 0.06830128 0.05
vt 0.02830127 0
vt 0.02830127 0.05
vt 0.08660254 0
vt 0.08660254 0.05
vt 0.01732051 0
vt 0.01732051 0.05
vt 0.04000001 0
vt 0.04000001 0.05
vt 0.006698731 0.075
vt 0.02 0.05
vt 0.02401924 0.065
vt 0.09330127 0.075
vt 0.1 0.05
vt 0.07598077 0.065
vt 0.08 0.05
vt 0.025 0.09330127
vt 0.035 0.07598077
vt 0.075 0.09330127
vt 0.065 0.07598077
vt 0.05 0.1
vt 0.05 0.08
vt 0.05 0.1
vt 0.06500001 0.07598077
vt 0.025 0.09330127
vt 0.035 0.07598077
vt 0.07598077 0.06500001
vt 0.02401924 0.06500001
vt 0.1 0.05
vt 0.08 0.05
vt 0 0.05
vt 0.02 0.05
vt 0.09330127 0.025
vt 0.07598076 0.035
vt 0.006698731 0.025
vt 0.02401924 0.035
vt 0.075 0.006698728
vt 0.065 0.02401924
vt 0.025 0.006698728
vt 0.035 0.02401924
vt 0.05 0.02
vt 0.006698735 0.02499999
vt 0.02401924 0.035
vt 0.09330127 0.02499999
vt 0.07598076 0.035

vn -0.8660254 0 0.5
vn -1 0 -1.542682E-08
vn 1 0 1.542682E-08
vn 0.8660254 0 -0.5
vn -0.5 0 0.8660254
vn 0.5 0 -0.8660254
vn 6.170727E-08 0 1
vn -3.085363E-08 0 -1
vn 0.5000001 0 0.8660254
vn -0.5 0 -0.8660254
vn 0.8660254 0 0.5
vn -0.8660254 0 -0.4999999
vn -0.8660254 0 0.5
vn -0.4999999 0 -0.8660254
vn 0.4999999 0 0.8660254
vn -0.8660253 0 -0.5000001
vn 0 -1 0
vn 0 1 0

usemtl Default
f 3/3/1 4/4/2 2/2/2 1/1/1
f 7/4/3 8/6/4 6/5/4 5/2/3
f 10/9/5 3/10/1 1/8/1 9/7/5
f 8/13/4 12/14/6 11/12/6 6/11/4
f 14/16/7 10/9/5 9/7/5 13/15/7
f 12/14/6 16/16/8 15/15/8 11/12/6
f 18/18/9 14/16/7 13/15/7 17/17/9
f 16/16/8 20/20/10 19/19/10 15/15/8
f 22/22/11 18/18/9 17/17/9 21/21/11
f 20/20/10 24/24/12 23/23/12 19/19/10
f 26/4/3 22/10/11 21/8/11 25/2/3
f 24/26/12 28/4/2 27/2/2 23/25/12
f 30/3/4 26/4/3 25/2/3 29/1/4
f 28/4/2 32/6/13 31/5/13 27/2/2
f 34/9/6 30/10/4 29/8/4 33/7/6
f 32/13/13 36/14/5 35/12/5 31/11/13
f 38/16/8 34/9/6 33/7/6 37/15/8
f 36/14/5 40/16/7 39/15/7 35/12/5
f 42/18/14 38/16/8 37/15/8 41/17/14
f 40/16/7 44/20/15 43/19/15 39/15/7
f 46/22/16 42/18/14 41/17/14 45/21/16
f 44/20/15 48/24/11 47/23/11 43/19/15
f 4/4/2 46/10/16 45/8/16 2/2/2
f 48/26/11 7/4/3 5/2/3 47/25/11
f 5/28/17 6/29/17 1/27/17 2/10/17
f 8/32/18 7/33/18 4/31/18 3/30/18
f 6/29/17 11/35/17 9/34/17 1/27/17
f 12/37/18 8/32/18 3/30/18 10/36/18
f 11/35/17 15/39/17 13/38/17 9/34/17
f 16/39/18 12/37/18 10/36/18 14/40/18
f 15/39/17 19/41/17 17/36/17 13/38/17
f 20/43/18 16/39/18 14/40/18 18/42/18
f 19/41/17 23/44/17 21/30/17 17/36/17
f 24/45/18 20/43/18 18/42/18 22/27/18
f 23/44/17 27/47/17 25/46/17 21/30/17
f 28/49/18 24/45/18 22/27/18 26/48/18
f 27/47/17 31/51/17 29/50/17 25/46/17
f 32/53/18 28/49/18 26/48/18 30/52/18
f 31/51/17 35/55/17 33/54/17 29/50/17
f 36/57/18 32/53/18 30/52/18 34/56/18
f 35/55/17 39/58/17 37/1/17 33/54/17
f 40/58/18 36/57/18 34/56/18 38/1/18
f 39/58/17 43/57/17 41/56/17 37/1/17
f 44/55/18 40/58/18 38/1/18 42/54/18
f 43/57/17 47/60/17 45/59/17 41/56/17
f 48/62/18 44/55/18 42/54/18 46/61/18
f 47/60/17 5/28/17 2/10/17 45/59/17
f 7/33/18 48/62/18 46/61/18 4/31/18

