# ProBuilder 5.0.4
# https://unity3d.com/unity/features/worldbuilding/probuilder
# 5/19/2022 1:47:15 AM

mtllib ./FSP-S6-Main.mtl
o FSP-S6-Main

g FSP-S6-Main
v -0.07500005 0.20015 -0.2450001
v -0.075 0.20015 -0.6950001
v -0.075 0.30015 -0.1950001
v -0.075 0.30015 -0.6950001
v -0.045 0.20015 -0.6950001
v 0.045 0.20015 -0.6950001
v -0.025 0.30015 -0.6950001
v 0.025 0.30015 -0.6950001
v 0.075 0.20015 -0.6950001
v 0.07500005 0.20015 -0.2450001
v 0.075 0.30015 -0.6950001
v 0.075 0.30015 -0.1950001
v 0.075 0.30015 -0.09500003
v 0.075 0.20015 -0.09500003
v -0.075 0.20015 -0.09500003
v -0.075 0.30015 -0.09500003
v -0.0250001 0.26025 -0.1950001
v 0.0250001 0.26025 -0.1950001
v -0.0250001 0.26025 0.02499998
v 0.0250001 0.26025 0.02499998
v -0.0250001 0.30015 0.02499998
v 0.0250001 0.30015 0.02499998
v -0.025 0.30015 0.05500001
v 0.025 0.30015 0.05500001
v -0.04500008 0.20015 -0.2450001
v -0.065 0.15015 -0.09500003
v -0.045 0.15015 -0.1950001
v -0.075 0.15015 -0.09500003
v -0.075 0.15015 -0.1950001
v -0.025 0.30015 -0.1950001
v -0.065 0.15015 0.05500001
v -0.075 0.15015 0.05500001
v -0.075 0.30015 0.05500001
v 0.04500008 0.20015 -0.2450001
v 0.025 0.30015 -0.1950001
v 0.045 0.15015 -0.1950001
v 0.065 0.15015 -0.09500003
v 0.075 0.15015 -0.1950001
v 0.075 0.15015 -0.09500003
v 0.075 0.30015 0.05500001
v 0.065 0.15015 0.05500001
v 0.075 0.15015 0.05500001
v -0.075 0.35015 -0.6950001
v -0.025 0.40015 -0.6950001
v -0.075 0.35015 -0.1950001
v 0.025 0.40015 -0.6950001
v 0.075 0.35015 -0.6950001
v 0.075 0.35015 -0.1950001
v -0.075 0.25015 0.05500001
v -0.075 0.20015 0.05500001
v 0.075 0.20015 0.05500001
v 0.075 0.25015 0.05500001
v -0.025 0.25015 0.05500001
v 0.025 0.25015 0.05500001
v -0.05500009 0.20015 0.1551
v -0.07500005 0.20015 0.1551
v -0.07500005 0.25015 0.1551
v -0.0250001 0.25015 0.1551
v 0.07500005 0.20015 0.1551
v 0.05500009 0.20015 0.1551
v 0.0250001 0.25015 0.1551
v 0.07500005 0.25015 0.1551
v 0.045 0.18015 -0.6950001
v -0.045 0.18015 -0.6950001
v 0.06500007 0.05004999 0.06500006
v 0.06500007 0.05004999 -0.08500004
v -0.06500007 0.05004999 -0.08500004
v -0.06500007 0.05004999 0.06500006
v 0.06500007 -0.05005005 0.08500004
v 0.06500007 -0.05005005 -0.06500006
v -0.06500007 -0.05005005 -0.06500006
v -0.06500007 -0.05005005 0.08500004
v 0.06500007 -0.20015 0.115
v 0.06500007 -0.20015 -0.03500009
v -0.06500007 -0.20015 -0.03500009
v -0.06500007 -0.20015 0.115
v -0.025 0.40015 -0.6325001
v -0.025 0.40015 -0.1950001
v 0.025 0.40015 -0.1950001
v 0.025 0.40015 -0.6325001
v -0.008333335 0.40015 -0.6325001
v 0.008333332 0.40015 -0.6325001
v 0.008333332 0.40015 -0.6950001
v -0.008333335 0.40015 -0.6950001
v 0.008333332 0.42015 -0.6950001
v 0.025 0.42015 -0.6950001
v 0.025 0.42015 -0.6325001
v 0.008333332 0.42015 -0.6325001
v -0.025 0.42015 -0.6950001
v -0.008333335 0.42015 -0.6950001
v -0.008333335 0.42015 -0.6325001
v -0.025 0.42015 -0.6325001
v 0.01500002 0.05004999 -0.115
v 0.01500002 -0.01668337 -0.1016667
v 0.01500002 -0.05005005 -0.09500006
v -0.01500003 -0.05005005 -0.09500003
v -0.01500003 -0.01668337 -0.1016667
v -0.01500003 0.05004999 -0.115
v -0.0150001 0.1904109 -0.2664651
v -0.0150001 0.1864518 -0.304206
v 0.0150001 0.1864518 -0.3042061
v 0.0150001 0.1904109 -0.2664651
v -0.0150001 -0.01670295 -0.1717647
v -0.0150001 -0.05006963 -0.1650981
v 0.0150001 -0.05006963 -0.1650982
v 0.0150001 -0.01670295 -0.1717647
v -0.0150001 0.05031145 -0.2664547
v -0.0150001 0.04635237 -0.3041955
v 0.0150001 0.04635237 -0.3041956
v 0.0150001 0.05031145 -0.2664547
v 0.01500003 -0.20015 -0.06500006
v -0.01500002 -0.20015 -0.06500009
v -0.015 0.15015 -0.125
v -0.01499997 0.25015 -0.03449225
v -0.01500002 0.05999051 -0.0154953
v 0.01500003 0.05999051 -0.0154953
v 0.01500003 0.25015 -0.03449225
v 0.015 0.15015 -0.125
v -0.02500002 0.05004999 0.09500003
v -0.025 0.15015 0.08499992
v -0.02500002 -0.05005005 0.115
v -0.02500002 -0.20015 0.145
v 0.02500003 0.05004999 0.09500003
v 0.025 0.15015 0.08499998
v 0.02500003 -0.05005005 0.115
v 0.02500002 -0.20015 0.145
v 0.01833337 0.20015 0.1551
v -0.01833336 0.20015 0.1551
v 0.02500002 -0.20015 -0.04500002
v 0.02500002 -0.20015 0.1249999
v -0.02500002 -0.20015 0.1249999
v -0.02500002 -0.20015 -0.04500002
v 0.0250001 0.1329178 -0.1093246
v -0.0250001 0.1329178 -0.1093246
v -0.0250001 0.1329178 0.06067538
v 0.0250001 0.1329178 0.0606755
v 0.025 0.35015 -0.1950001
v -0.025 0.35015 -0.1950001
v 0.0250001 0.30015 -0.3549
v -0.0250001 0.30015 -0.3549
v -0.0250001 0.35015 -0.3549
v 0.0250001 0.35015 -0.3549
v -0.0250001 0.26025 -0.3549
v 0.0250001 0.26025 -0.3549
v -0.015 0.15015 -0.1950001
v 0.015 0.15015 -0.1950001
v 0.01500002 0.25015 -0.1950001
v -0.01499998 0.25015 -0.1950001

vt 0.762475 0.6514731
vt 0.537475 0.6514731
vt 0.787475 0.7012639
vt 0.537475 0.7012639
vt 0.09747499 0.237625
vt 0.05247499 0.237625
vt 0.087475 0.287625
vt 0.062475 0.287625
vt 0.537475 0.8365148
vt 0.762475 0.8365148
vt 0.537475 0.8863057
vt 0.787475 0.8863057
vt 0.837475 0.8863057
vt 0.837475 0.8365148
vt 0.837475 0.6514731
vt 0.837475 0.7012639
vt 0.08747506 0.287475
vt 0.06247497 0.287475
vt 0.08747506 0.397475
vt 0.06247497 0.397475
vt 0.087475 0.412475
vt 0.06247501 0.412475
vt 0.2275 0.6382006
vt 0.2275001 0.4173478
vt 0.2125 0.6382006
vt 0.2125001 0.4173478
vt 0.2175001 0.7070403
vt 0.2275001 0.6579619
vt 0.2125001 0.7070403
vt 0.2125001 0.6579619
vt 0.112475 0.237625
vt 0.112475 0.287625
vt 0.112475 0.287475
vt 0.112475 0.337475
vt 0.2175001 0.7806579
vt 0.2125001 0.7806579
vt 0.112475 0.412475
vt 0.2725 0.4173478
vt 0.2725 0.6382006
vt 0.2875 0.4173478
vt 0.2875 0.6382006
vt 0.03747499 0.287625
vt 0.03747499 0.237625
vt 0.03747502 0.337475
vt 0.03747502 0.287475
vt 0.2725 0.6579619
vt 0.2825 0.7070403
vt 0.2875 0.6579619
vt 0.2875 0.7070403
vt 0.03747502 0.412475
vt 0.2825 0.7806579
vt 0.2875 0.7806579
vt 0.112475 0.312625
vt 0.087475 0.337625
vt 0.787475 0.7261593
vt 0.537475 0.7261593
vt 0.062475 0.337625
vt 0.03747499 0.312625
vt 0.537475 0.9112011
vt 0.787475 0.9112011
vt 0.912475 0.7012639
vt 0.912475 0.6763685
vt 0.912475 0.6514731
vt 0.912475 0.8365148
vt 0.912475 0.8614103
vt 0.912475 0.8863057
vt 0.06247501 0.262625
vt 0.087475 0.262625
vt 0.04747497 0.237625
vt 0.03747499 0.262625
vt 0.102475 0.237625
vt 0.112475 0.262625
vt 0.102475 0.462525
vt 0.112475 0.462525
vt 0.962525 0.8614103
vt 0.962525 0.8365148
vt 0.08747506 0.462525
vt 0.06247497 0.462525
vt 0.03747499 0.462525
vt 0.962525 0.6514731
vt 0.962525 0.6763685
vt 0.04747497 0.462525
vt 0.912475 0.8116194
vt 0.837475 0.8116194
vt 0.09747499 0.212625
vt 0.112475 0.212625
vt 0.03747499 0.212625
vt 0.05247499 0.212625
vt 0.837475 0.6265777
vt 0.912475 0.6265777
vt 0.787475 0.8116194
vt 0.05247499 0.227625
vt 0.09747499 0.227625
vt 0.2554821 0.9495275
vt 0.03048208 0.9495275
vt 0.2804821 0.9245275
vt 0.03048208 0.9395275
vt 0.2804821 0.9495274
vt 0.787475 0.6265777
vt 0.4766482 0.5860063
vt 0.5516219 0.586015
vt 0.4716499 0.5359561
vt 0.5466236 0.5359649
vt 0.5516219 0.5894327
vt 0.4766482 0.5894238
vt 0.5466236 0.5385787
vt 0.4716499 0.5385699
vt 0.4616534 0.4859054
vt 0.5366271 0.4859142
vt 0.5366271 0.4877242
vt 0.4616534 0.4877153
vt 0.4466587 0.4108544
vt 0.5216324 0.4108632
vt 0.5216324 0.4114678
vt 0.4466587 0.4114589
vt 0.537475 0.7533389
vt 0.568725 0.7533389
vt 0.787475 0.7533389
vt 0.787475 0.9383807
vt 0.568725 0.9383807
vt 0.537475 0.9383807
vt 0.56825 0.765
vt 0.56825 0.7733333
vt 0.56825 0.7816666
vt 0.56825 0.79
vt 0.787 0.79
vt 0.787 0.765
vt 0.07080832 0.337625
vt 0.07914168 0.337625
vt 0.07080835 0.03747499
vt 0.06247501 0.03747499
vt 0.06247501 0.06872499
vt 0.07080835 0.06872499
vt 0.087475 0.03747499
vt 0.07914168 0.03747499
vt 0.07914168 0.06872499
vt 0.087475 0.06872499
vt 0.537 0.7733333
vt 0.537 0.7816666
vt 0.087475 0.347625
vt 0.07914168 0.347625
vt 0.06872499 0.337625
vt 0.03747499 0.337625
vt 0.06872499 0.347625
vt 0.03747499 0.347625
vt 0.462525 0.337625
vt 0.431275 0.337625
vt 0.462525 0.347625
vt 0.431275 0.347625
vt 0.07080835 0.347625
vt 0.06247501 0.347625
vt 0.412475 0.237625
vt 0.462525 0.237625
vt 0.412475 0.212625
vt 0.2225 0.8345633
vt 0.2775 0.8345633
vt 0.08752498 0.237625
vt 0.08752498 0.212625
vt 0.562281 0.5358568
vt 0.5556167 0.5024896
vt 0.5522845 0.4858061
vt 0.5522845 0.4876143
vt 0.5556167 0.5045658
vt 0.562281 0.5384689
vt 0.7425 0.1292083
vt 0.7425 0.162575
vt 0.7575 0.162575
vt 0.7575 0.1292083
vt 0.08247507 0.2517425
vt 0.08247507 0.232872
vt 0.06747496 0.232872
vt 0.06747496 0.2517425
vt 0.3341417 0.1292083
vt 0.337475 0.112525
vt 0.2990927 0.1291986
vt 0.302426 0.1125152
vt 0.06747501 0.337475
vt 0.08247501 0.337475
vt 0.06747496 0.302426
vt 0.08247507 0.3024259
vt 0.162525 0.112525
vt 0.1658583 0.1292083
vt 0.1975741 0.1125152
vt 0.2009073 0.1291986
vt 0.06747501 0.3341417
vt 0.08247504 0.3341417
vt 0.06747496 0.2990927
vt 0.08247507 0.2990927
vt 0.2517477 0.1627057
vt 0.2328773 0.1607262
vt 0.2671228 0.1607262
vt 0.2482523 0.1627057
vt 0.2517425 0.2127554
vt 0.232872 0.2107759
vt 0.08247504 0.1607262
vt 0.06747493 0.1607262
vt 0.08247504 0.2107759
vt 0.06747493 0.2107759
vt 0.267128 0.2107759
vt 0.2482575 0.2127554
vt 0.08247507 0.1627057
vt 0.06747496 0.1627057
vt 0.08247507 0.2127554
vt 0.06747496 0.2127554
vt 0.5372898 0.4107551
vt 0.5372898 0.4113579
vt 0.7575 0.03747496
vt 0.7425 0.03747496
vt 0.7425 0.112525
vt 0.7575 0.112525
vt 0.5672792 0.5893228
vt 0.08247498 0.262625
vt 0.08247501 0.1675453
vt 0.06747498 0.1675453
vt 0.06747498 0.262625
vt 0.5672792 0.5859069
vt 0.4571853 0.5384788
vt 0.4621836 0.5893327
vt 0.4471889 0.4876242
vt 0.4321941 0.4113678
vt 0.4571853 0.5358665
vt 0.4621836 0.5859166
vt 0.7425 0.212625
vt 0.7575 0.212625
vt 0.4471889 0.4858158
vt 0.4321941 0.4107648
vt 0.0841417 0.237625
vt 0.06580833 0.237625
vt 0.2375 0.7953814
vt 0.2408334 0.8345633
vt 0.2591667 0.8345633
vt 0.2625 0.7953814
vt 0.08247501 0.457475
vt 0.09747505 0.442475
vt 0.09747505 0.367475
vt 0.08247504 0.352475
vt 0.08747503 0.362475
vt 0.08747503 0.447475
vt 0.06747501 0.457475
vt 0.062475 0.447475
vt 0.062475 0.362475
vt 0.06747501 0.352475
vt 0.05247498 0.367475
vt 0.05247498 0.442475
vt 0.08747506 0.3303127
vt 0.06247497 0.3303127
vt 0.06247497 0.4153127
vt 0.08747506 0.4153128
vt 0.08747503 0.2040089
vt 0.06247494 0.2040089
vt 0.947475 0.04173303
vt 0.862475 0.04173303
vt 0.9153128 0.208267
vt 0.8303127 0.208267
vt 0.637525 0.04173303
vt 0.552525 0.04173303
vt 0.6696873 0.208267
vt 0.5846873 0.208267
vt 0.087475 0.312625
vt 0.06247501 0.312625
vt 0.06247497 0.267675
vt 0.08747506 0.267675
vt 0.102525 0.287625
vt 0.212525 0.287625
vt 0.102525 0.267675
vt 0.212525 0.267675
vt 0.287475 0.287625
vt 0.397475 0.287625
vt 0.287475 0.267675
vt 0.397475 0.267675
vt 0.292475 0.267675
vt 0.292475 0.287625
vt 0.212525 0.312625
vt 0.292475 0.312625
vt 0.287475 0.312625
vt 0.207525 0.312625
vt 0.207525 0.287625
vt 0.06247497 0.207525
vt 0.08747506 0.207525
vt 0.207525 0.267675
vt 0.2725 0.4154367
vt 0.2275001 0.4154367
vt 0.2425 0.6579619
vt 0.2575 0.6579619
vt 0.2425 0.6923168
vt 0.2575 0.6923168
vt 0.08247501 0.287475
vt 0.06747502 0.287475
vt 0.06747502 0.3677289
vt 0.08247504 0.3677289
vt 0.6151239 0.375025
vt 0.5801238 0.375025
vt 0.6603777 0.425025
vt 0.5801238 0.425025
vt 0.08247504 0.327475
vt 0.06747501 0.327475
vt 0.08247501 0.3772274
vt 0.06747501 0.3772274
vt 0.6201238 0.324975
vt 0.6698762 0.3299453

vn -1 4.967054E-07 -9.934107E-08
vn 0 0 -1
vn 1 0 -9.934107E-08
vn 0 1 0
vn 0 -1 0
vn 0 0 1
vn 0 -0.7071069 -0.7071066
vn 0.8938938 0.04456209 0.4460584
vn 0.8696603 -0.04907089 -0.4912058
vn 0.8933253 0.06649862 0.4444635
vn 0.8691227 -0.07316741 -0.4891545
vn -0.8696603 -0.04907088 -0.4912058
vn -0.8938937 0.04456223 0.4460586
vn -0.8691227 -0.07316741 -0.4891545
vn -0.8933253 0.06649862 0.4444635
vn 0.8923216 0.08845588 0.4426484
vn 0.8680738 -0.09728082 -0.4868104
vn -0.8680737 -0.0972809 -0.4868105
vn -0.8923216 0.08845589 0.4426485
vn -0.7071068 0.7071067 0
vn 0.7071068 0.7071067 0
vn -0.9806185 0 0.1959269
vn 0 -0.8946058 0.4468561
vn 0.9806185 0 0.1959269
vn 0.3513006 -0.1550774 -0.9233304
vn 0.2627894 -0.1890411 -0.9461528
vn 0.3489492 -0.1836518 -0.9189703
vn -0.3489492 -0.183652 -0.9189703
vn -0.2627894 -0.1890413 -0.9461528
vn -0.3513006 -0.1550774 -0.9233304
vn -2.072812E-07 0.9945429 -0.1043286
vn -2.263785E-06 -0.8218498 -0.5697042
vn 0 0.8162588 0.5776863
vn -0.512618 -0.08535083 -0.8543641
vn 0 -0.09940532 -0.995047
vn 0.512618 -0.08535086 -0.8543641
vn -0.3137754 0.1404294 0.9390551
vn -0.3150977 0.0943426 0.9443585
vn -0.3117786 0.1861913 0.9317333
vn 0.3137753 0.1404293 0.9390551
vn 0.3150973 0.09434223 0.9443586
vn 0.3117786 0.1861913 0.9317333
vn -0.1678321 -0.8214979 0.514121
vn -0.3356642 -0.8288699 0.4475536
vn 0 -0.8141259 0.5806884
vn 0.1678324 -0.8214977 0.5141211
vn 0.3356649 -0.8288697 0.4475535
vn 1.170464E-06 -0.1896234 -0.9818569
vn 0 0.1896235 0.9818569
vn 0 -0.9982048 -0.05989229
vn 0 0.995047 -0.0994052

usemtl Default
f 63/281/50 36/46/50 146/284/50
f 63/281/50 146/284/50 64/282/50
f 64/282/50 146/284/50 145/283/50
f 27/28/50 64/282/50 145/283/50
f 40/66/3 52/65/3 13/13/3
f 52/65/3 14/14/3 13/13/3
f 52/65/3 51/64/3 14/14/3
f 15/15/1 50/63/1 49/62/1
f 16/16/1 15/15/1 49/62/1
f 16/16/1 49/62/1 33/61/1
f 77/117/20 44/116/20 43/56/20
f 45/55/20 77/117/20 43/56/20
f 45/55/20 78/118/20 77/117/20
f 80/120/21 79/119/21 48/60/21
f 47/59/21 80/120/21 48/60/21
f 47/59/21 46/121/21 80/120/21
f 7/7/2 44/54/2 84/129/2
f 84/129/2 83/128/2 7/7/2
f 7/7/2 83/128/2 8/8/2
f 46/57/2 8/8/2 83/128/2
f 138/260/6 3/42/6 30/8/6
f 138/260/6 45/58/6 3/42/6
f 45/58/6 138/260/6 78/57/6
f 48/53/6 35/7/6 12/32/6
f 48/53/6 137/259/6 35/7/6
f 79/54/6 137/259/6 48/53/6
f 61/68/6 127/227/6 60/71/6
f 128/228/6 127/227/6 61/68/6
f 58/67/6 128/228/6 61/68/6
f 58/67/6 55/69/6 128/228/6
f 59/74/5 60/73/5 51/37/5
f 55/82/5 56/79/5 50/50/5
f 79/126/4 80/125/4 82/124/4
f 81/123/4 77/122/4 78/127/4
f 82/124/4 81/123/4 78/127/4
f 79/126/4 82/124/4 78/127/4
f 32/154/22 55/153/22 50/152/22
f 32/36/23 31/35/23 55/155/23
f 41/51/23 42/52/23 60/156/23
f 42/158/24 51/157/24 60/43/24
f 66/103/11 94/160/26 93/159/25
f 70/109/17 94/160/26 66/103/11
f 95/161/27 94/160/26 70/109/17
f 97/163/29 71/110/18 67/106/14
f 97/163/29 96/162/28 71/110/18
f 98/164/30 97/163/29 67/106/14
f 75/243/5 112/242/5 132/241/5
f 75/243/5 132/241/5 131/240/5
f 76/244/5 75/243/5 131/240/5
f 76/244/5 131/240/5 122/239/5
f 126/233/5 130/238/5 73/234/5
f 130/238/5 129/237/5 73/234/5
f 129/237/5 74/235/5 73/234/5
f 129/237/5 111/236/5 74/235/5
f 4/4/1 2/2/1 1/1/1
f 1/1/1 3/3/1 4/4/1
f 8/8/2 6/6/2 5/5/2
f 5/5/2 7/7/2 8/8/2
f 12/12/3 10/10/3 9/9/3
f 9/9/3 11/11/3 12/12/3
f 14/14/3 10/10/3 12/12/3
f 12/12/3 13/13/3 14/14/3
f 16/16/1 3/3/1 1/1/1
f 1/1/1 15/15/1 16/16/1
f 20/20/4 18/18/4 17/17/4
f 17/17/4 19/19/4 20/20/4
f 24/22/4 22/20/4 21/19/4
f 21/19/4 23/21/4 24/22/4
f 2/26/5 5/24/5 25/23/5
f 25/23/5 1/25/5 2/26/5
f 29/30/5 27/28/5 26/27/5
f 26/27/5 28/29/5 29/30/5
f 4/32/2 7/7/2 5/5/2
f 5/5/2 2/31/2 4/32/2
f 16/34/4 21/19/4 30/17/4
f 30/17/4 3/33/4 16/34/4
f 28/29/5 26/27/5 31/35/5
f 31/35/5 32/36/5 28/29/5
f 33/37/4 23/21/4 21/19/4
f 21/19/4 16/34/4 33/37/4
f 10/41/5 34/39/5 6/38/5
f 6/38/5 9/40/5 10/41/5
f 9/43/2 6/6/2 8/8/2
f 8/8/2 11/42/2 9/43/2
f 12/45/4 35/18/4 22/20/4
f 22/20/4 13/44/4 12/45/4
f 39/49/5 37/47/5 36/46/5
f 36/46/5 38/48/5 39/49/5
f 13/44/4 22/20/4 24/22/4
f 24/22/4 40/50/4 13/44/4
f 42/52/5 41/51/5 37/47/5
f 37/47/5 39/49/5 42/52/5
f 44/54/2 7/7/2 4/32/2
f 4/32/2 43/53/2 44/54/2
f 43/56/1 4/4/1 3/3/1
f 3/3/1 45/55/1 43/56/1
f 47/58/2 11/42/2 8/8/2
f 8/8/2 46/57/2 47/58/2
f 48/60/3 12/12/3 11/11/3
f 11/11/3 47/59/3 48/60/3
f 23/8/6 53/67/6 54/68/6
f 54/68/6 24/7/6 23/8/6
f 57/70/6 56/43/6 55/69/6
f 55/69/6 58/67/6 57/70/6
f 33/42/6 49/70/6 53/67/6
f 53/67/6 23/8/6 33/42/6
f 61/68/6 60/71/6 59/31/6
f 59/31/6 62/72/6 61/68/6
f 24/7/6 54/68/6 52/72/6
f 52/72/6 40/32/6 24/7/6
f 59/76/3 51/64/3 52/65/3
f 52/65/3 62/75/3 59/76/3
f 61/78/4 54/22/4 53/21/4
f 53/21/4 58/77/4 61/78/4
f 62/79/4 52/50/4 54/22/4
f 54/22/4 61/78/4 62/79/4
f 57/81/1 49/62/1 50/63/1
f 50/63/1 56/80/1 57/81/1
f 58/77/4 53/21/4 49/37/4
f 49/37/4 57/74/4 58/77/4
f 39/84/3 14/14/3 51/64/3
f 51/64/3 42/83/3 39/84/3
f 29/86/7 1/31/7 25/5/7
f 25/5/7 27/85/7 29/86/7
f 36/88/7 34/6/7 10/43/7
f 10/43/7 38/87/7 36/88/7
f 32/90/1 50/63/1 15/15/1
f 15/15/1 28/89/1 32/90/1
f 38/91/3 10/10/3 14/14/3
f 14/14/3 39/84/3 38/91/3
f 64/93/2 5/5/2 6/6/2
f 6/6/2 63/92/2 64/93/2
f 63/97/3 6/95/3 34/94/3
f 34/94/3 36/96/3 63/97/3
f 27/96/1 25/98/1 5/95/1
f 5/95/1 64/97/1 27/96/1
f 28/89/1 15/15/1 1/1/1
f 1/1/1 29/99/1 28/89/1
f 66/103/11 37/101/9 41/100/8
f 41/100/8 65/102/10 66/103/11
f 68/107/15 31/105/13 26/104/12
f 26/104/12 67/106/14 68/107/15
f 70/109/17 66/103/11 65/102/10
f 65/102/10 69/108/16 70/109/17
f 72/111/19 68/107/15 67/106/14
f 67/106/14 71/110/18 72/111/19
f 74/113/17 70/109/17 69/108/16
f 69/108/16 73/112/16 74/113/17
f 76/115/19 72/111/19 71/110/18
f 71/110/18 75/114/18 76/115/19
f 87/132/4 86/131/4 85/130/4
f 85/130/4 88/133/4 87/132/4
f 91/136/4 90/135/4 89/134/4
f 89/134/4 92/137/4 91/136/4
f 82/124/4 83/139/4 84/138/4
f 84/138/4 81/123/4 82/124/4
f 90/141/2 84/129/2 44/54/2
f 44/54/2 89/140/2 90/141/2
f 89/145/1 44/143/1 77/142/1
f 77/142/1 92/144/1 89/145/1
f 91/149/3 81/147/3 84/146/3
f 84/146/3 90/148/3 91/149/3
f 92/151/6 77/57/6 81/128/6
f 81/128/6 91/150/6 92/151/6
f 86/151/2 46/57/2 83/128/2
f 83/128/2 85/150/2 86/151/2
f 87/149/3 80/147/3 46/146/3
f 46/146/3 86/148/3 87/149/3
f 85/145/1 83/143/1 82/142/1
f 82/142/1 88/144/1 85/145/1
f 88/141/6 82/129/6 80/54/6
f 80/54/6 87/140/6 88/141/6
f 98/167/30 93/166/25 94/165/26
f 94/165/26 97/168/29 98/167/30
f 101/171/31 100/170/31 99/169/31
f 99/169/31 102/172/31 101/171/31
f 104/176/1 96/174/1 97/173/1
f 97/173/1 103/175/1 104/176/1
f 105/180/5 95/178/5 96/177/5
f 96/177/5 104/179/5 105/180/5
f 106/184/3 94/182/3 95/181/3
f 95/181/3 105/183/3 106/184/3
f 103/188/4 97/186/4 94/185/4
f 94/185/4 106/187/4 103/188/4
f 108/190/1 104/176/1 103/175/1
f 103/175/1 107/189/1 108/190/1
f 109/170/32 105/180/32 104/179/32
f 104/179/32 108/171/32 109/170/32
f 110/192/3 106/184/3 105/183/3
f 105/183/3 109/191/3 110/192/3
f 107/169/33 103/188/33 106/187/33
f 106/187/33 110/172/33 107/169/33
f 100/194/1 108/190/1 107/189/1
f 107/189/1 99/193/1 100/194/1
f 101/198/2 109/196/2 108/195/2
f 108/195/2 100/197/2 101/198/2
f 102/200/3 110/192/3 109/191/3
f 109/191/3 101/199/3 102/200/3
f 99/204/6 107/202/6 110/201/6
f 110/201/6 102/203/6 99/204/6
f 74/113/17 111/205/26 95/161/27
f 95/161/27 70/109/17 74/113/17
f 112/206/29 75/114/18 71/110/18
f 71/110/18 96/162/28 112/206/29
f 111/208/26 112/207/29 96/210/28
f 96/210/28 95/209/27 111/208/26
f 98/164/30 67/106/14 26/104/12
f 26/104/12 113/211/34 98/164/30
f 116/214/35 115/213/35 114/212/35
f 114/212/35 117/215/35 116/214/35
f 66/103/11 93/159/25 118/216/36
f 118/216/36 37/101/9 66/103/11
f 68/107/15 119/217/37 120/218/38
f 120/218/38 31/105/13 68/107/15
f 68/107/15 72/111/19 121/219/39
f 121/219/39 119/217/37 68/107/15
f 72/111/19 76/115/19 122/220/39
f 122/220/39 121/219/39 72/111/19
f 124/222/41 123/221/40 65/102/10
f 65/102/10 41/100/8 124/222/41
f 120/223/38 119/166/37 123/167/40
f 123/167/40 124/224/41 120/223/38
f 123/221/40 125/225/42 69/108/16
f 69/108/16 65/102/10 123/221/40
f 119/166/37 121/209/39 125/210/42
f 125/210/42 123/167/40 119/166/37
f 126/226/42 73/112/16 69/108/16
f 69/108/16 125/225/42 126/226/42
f 122/208/39 126/207/42 125/210/42
f 125/210/42 121/209/39 122/208/39
f 31/35/44 120/229/43 128/230/45
f 128/230/45 55/155/43 31/35/44
f 120/229/45 124/232/45 127/231/45
f 127/231/45 128/230/45 120/229/45
f 41/51/47 60/156/46 127/231/45
f 127/231/45 124/232/46 41/51/47
f 130/238/5 126/233/5 122/239/5
f 122/239/5 131/240/5 130/238/5
f 133/245/5 136/248/5 135/247/5
f 135/247/5 134/246/5 133/245/5
f 111/236/5 129/237/5 132/241/5
f 132/241/5 112/242/5 111/236/5
f 136/250/48 130/131/48 131/134/48
f 131/134/48 135/249/48 136/250/48
f 133/254/1 129/252/1 130/251/1
f 130/251/1 136/253/1 133/254/1
f 134/250/49 132/131/49 129/134/49
f 129/134/49 133/249/49 134/250/49
f 135/258/3 131/256/3 132/255/3
f 132/255/3 134/257/3 135/258/3
f 141/260/6 140/8/6 139/7/6
f 139/7/6 142/259/6 141/260/6
f 78/57/6 138/260/6 137/259/6
f 137/259/6 79/54/6 78/57/6
f 144/262/6 139/7/6 140/8/6
f 140/8/6 143/261/6 144/262/6
f 17/266/3 30/264/3 21/263/3
f 21/263/3 19/265/3 17/266/3
f 20/270/1 22/268/1 35/267/1
f 35/267/1 18/269/1 20/270/1
f 19/262/2 21/7/2 22/8/2
f 22/8/2 20/261/2 19/262/2
f 140/272/3 30/264/3 17/266/3
f 17/266/3 143/271/3 140/272/3
f 141/274/3 138/273/3 30/264/3
f 30/264/3 140/272/3 141/274/3
f 139/277/1 35/267/1 137/275/1
f 137/275/1 142/276/1 139/277/1
f 142/279/5 137/17/5 138/18/5
f 138/18/5 141/278/5 142/279/5
f 144/280/1 18/269/1 35/267/1
f 35/267/1 139/277/1 144/280/1
f 143/279/4 17/17/4 18/18/4
f 18/18/4 144/278/4 143/279/4
f 145/283/5 113/285/5 26/27/5
f 26/27/5 27/28/5 145/283/5
f 146/284/5 36/46/5 37/47/5
f 37/47/5 118/286/5 146/284/5
f 148/288/5 147/287/5 117/290/5
f 117/290/5 114/289/5 148/288/5
f 147/294/1 146/292/1 118/291/1
f 118/291/1 117/293/1 147/294/1
f 116/298/51 93/296/51 98/295/51
f 98/295/51 115/297/51 116/298/51
f 148/215/6 145/204/6 146/203/6
f 146/203/6 147/212/6 148/215/6
f 114/293/3 113/291/3 145/292/3
f 145/292/3 148/294/3 114/293/3
f 115/300/3 98/299/3 113/291/3
f 113/291/3 114/293/3 115/300/3
f 117/293/1 118/291/1 93/299/1
f 93/299/1 116/300/1 117/293/1

