# ProBuilder 5.0.4
# https://unity3d.com/unity/features/worldbuilding/probuilder
# 6/21/2022 11:25:51 PM

mtllib ./Chip-8-Pin.mtl
o Chip-8-Pin

g Chip-8-Pin
v 0.25 0.05 0.25
v -0.25 0.05 0.25
v 0.25 0.05 -0.25
v -0.25 0.05 -0.25
v 0.25 -0.05 -0.25
v -0.25 -0.05 -0.25
v 0.25 -0.05 0.25
v -0.25 -0.05 0.25
v -0.25 0.01666667 -0.25
v -0.25 -0.001666665 -0.25
v 0.25 -0.001666665 -0.25
v 0.25 0.01666667 -0.25
v -0.25 -0.001666673 0.25
v -0.25 0.01666666 0.25
v 0.25 0.01666667 0.25
v 0.25 -0.001666665 0.25
v -0.25 -0.001666665 -0.1944427
v -0.25 -0.001666665 -0.1388855
v -0.25 -0.001666665 -0.08332825
v -0.25 -0.001666673 -0.027771
v -0.25 -0.001666673 0.027771
v -0.25 -0.001666673 0.08332825
v -0.25 -0.001666673 0.1388855
v -0.25 -0.001666673 0.1944427
v -0.25 0.01666667 0.1944444
v -0.25 0.01666667 0.1388889
v -0.25 0.01666667 0.08333332
v -0.25 0.01666667 0.02777778
v -0.25 0.01666667 -0.02777779
v -0.25 0.01666667 -0.08333334
v -0.25 0.01666667 -0.1388889
v -0.25 0.01666667 -0.1944444
v -0.3199997 -0.001666665 -0.1388855
v -0.3199997 -0.001666665 -0.1944427
v -0.32 0.01666667 -0.1944444
v -0.32 0.01666667 -0.1388889
v -0.3199997 -0.001666673 -0.027771
v -0.3199997 -0.001666665 -0.08332825
v -0.32 0.01666667 -0.08333334
v -0.32 0.01666667 -0.02777779
v -0.3199997 -0.001666673 0.08332825
v -0.3199997 -0.001666673 0.027771
v -0.32 0.01666667 0.02777778
v -0.32 0.01666667 0.08333332
v -0.3199997 -0.001666673 0.1944427
v -0.3199997 -0.001666673 0.1388855
v -0.32 0.01666667 0.1388889
v -0.32 0.01666667 0.1944444
v 0.25 -0.001666665 0.1944427
v 0.25 -0.001666665 0.1388855
v 0.25 -0.001666665 0.08332825
v 0.25 -0.001666665 0.027771
v 0.25 -0.001666665 -0.027771
v 0.25 -0.001666665 -0.08332825
v 0.25 -0.001666665 -0.1388855
v 0.25 -0.001666665 -0.1944427
v 0.25 0.01666667 -0.1944444
v 0.25 0.01666667 -0.1388889
v 0.25 0.01666667 -0.08333332
v 0.25 0.01666667 -0.02777778
v 0.25 0.01666667 0.02777779
v 0.25 0.01666667 0.08333334
v 0.25 0.01666667 0.1388889
v 0.25 0.01666667 0.1944444
v 0.3199997 -0.001666665 0.1388855
v 0.3199997 -0.001666665 0.1944427
v 0.32 0.01666667 0.1944444
v 0.32 0.01666667 0.1388889
v 0.3199997 -0.001666665 0.027771
v 0.3199997 -0.001666665 0.08332825
v 0.32 0.01666667 0.08333334
v 0.32 0.01666667 0.02777779
v 0.3199997 -0.001666665 -0.08332825
v 0.3199997 -0.001666665 -0.027771
v 0.32 0.01666667 -0.02777778
v 0.32 0.01666667 -0.08333332
v 0.32 0.01666667 -0.1944444
v 0.3199997 -0.001666665 -0.1944427
v 0.3199997 -0.001666665 -0.1388855
v 0.32 0.01666667 -0.1388889
v 0.3 0.01666667 -0.1388889
v 0.3 0.01666667 -0.1944444
v 0.2999992 -0.001666665 -0.1944427
v 0.2999992 -0.001666665 -0.1388855
v 0.3 0.01666667 -0.08333332
v 0.2999992 -0.001666665 -0.08332825
v 0.2999992 -0.001666665 -0.027771
v 0.3 0.01666667 -0.02777778
v 0.3 0.01666667 0.02777779
v 0.2999992 -0.001666665 0.027771
v 0.2999992 -0.001666665 0.08332825
v 0.3 0.01666667 0.08333334
v 0.3 0.01666667 0.1944444
v 0.3 0.01666667 0.1388889
v 0.2999992 -0.001666665 0.1388855
v 0.2999992 -0.001666665 0.1944427
v -0.3 0.01666667 -0.1388889
v -0.2999992 -0.001666665 -0.1388855
v -0.2999992 -0.001666665 -0.1944427
v -0.3 0.01666667 -0.1944444
v -0.2999992 -0.001666673 -0.027771
v -0.2999992 -0.001666665 -0.08332825
v -0.3 0.01666667 -0.02777779
v -0.3 0.01666667 -0.08333334
v -0.2999992 -0.001666673 0.08332825
v -0.2999992 -0.001666673 0.027771
v -0.3 0.01666667 0.08333332
v -0.3 0.01666667 0.02777778
v -0.2999992 -0.001666673 0.1944427
v -0.2999992 -0.001666673 0.1388855
v -0.3 0.01666667 0.1944444
v -0.3 0.01666667 0.1388889
v 0.2999992 -0.1016667 -0.1944427
v 0.2999992 -0.1016667 -0.1388855
v 0.3199997 -0.1016667 -0.1944427
v 0.3199997 -0.1016667 -0.1388855
v 0.2999992 -0.1016667 -0.08332825
v 0.2999992 -0.1016667 -0.027771
v 0.3199997 -0.1016667 -0.08332825
v 0.3199997 -0.1016667 -0.027771
v 0.2999992 -0.1016667 0.027771
v 0.2999992 -0.1016667 0.08332825
v 0.3199997 -0.1016667 0.027771
v 0.3199997 -0.1016667 0.08332825
v 0.2999992 -0.1016667 0.1388855
v 0.2999992 -0.1016667 0.1944427
v 0.3199997 -0.1016667 0.1388855
v 0.3199997 -0.1016667 0.1944427
v -0.2999992 -0.1016667 -0.1388855
v -0.2999992 -0.1016667 -0.1944427
v -0.3199997 -0.1016667 -0.1388855
v -0.3199997 -0.1016667 -0.1944427
v -0.2999992 -0.1016667 -0.02777101
v -0.2999992 -0.1016667 -0.08332826
v -0.3199997 -0.1016667 -0.02777101
v -0.3199997 -0.1016667 -0.08332826
v -0.2999992 -0.1016667 0.08332825
v -0.2999992 -0.1016667 0.027771
v -0.3199997 -0.1016667 0.08332825
v -0.3199997 -0.1016667 0.027771
v -0.2999992 -0.1016667 0.1944427
v -0.2999992 -0.1016667 0.1388855
v -0.3199997 -0.1016667 0.1944427
v -0.3199997 -0.1016667 0.1388855

vt -0.25 0.25
vt 0.25 0.25
vt -0.25 -0.25
vt 0.25 -0.25
vt -0.25 0.05
vt 0.25 0.05
vt 0.25 0.01666667
vt 0.25 -0.001666665
vt 0.25 -0.05
vt -0.25 -0.05
vt -0.25 -0.001666665
vt -0.25 0.01666667
vt -0.1944427 -0.001666665
vt -0.1388855 -0.001666665
vt -0.08332825 -0.001666665
vt -0.027771 -0.001666673
vt 0.027771 -0.001666673
vt 0.08332825 -0.001666673
vt 0.1388855 -0.001666673
vt 0.1944427 -0.001666673
vt 0.1944444 0.01666667
vt 0.1388889 0.01666667
vt 0.08333332 0.01666667
vt 0.02777778 0.01666667
vt -0.02777779 0.01666667
vt -0.08333334 0.01666667
vt -0.1388889 0.01666667
vt -0.1944444 0.01666667
vt -0.25 -0.1388889
vt -0.25 -0.1944444
vt -0.3 -0.1388889
vt -0.3 -0.1944444
vt -0.3 0.01668469
vt -0.2999992 -0.001648648
vt 0.25 -0.1944427
vt 0.25 -0.1388855
vt 0.2999992 -0.1944427
vt 0.2999992 -0.1388855
vt 0.2999992 -0.001640927
vt 0.3 0.01669241
vt 0.25 -0.08332825
vt 0.25 -0.027771
vt 0.2999992 -0.08332825
vt 0.2999992 -0.027771
vt -0.25 -0.02777778
vt -0.25 -0.08333332
vt -0.3 -0.02777778
vt -0.3 -0.08333332
vt 0.25 0.027771
vt 0.25 0.08332825
vt 0.2999992 0.027771
vt 0.2999992 0.08332825
vt -0.25 0.08333334
vt -0.25 0.02777779
vt -0.3 0.08333334
vt -0.3 0.02777779
vt -0.25 0.1944444
vt -0.25 0.1388889
vt -0.3 0.1944444
vt -0.3 0.1388889
vt 0.25 0.1388855
vt 0.25 0.1944427
vt 0.2999992 0.1388855
vt 0.2999992 0.1944427
vt -0.2999992 -0.1388855
vt -0.2999992 -0.1944427
vt 0.3 -0.1944444
vt 0.3 -0.1388889
vt -0.2999992 -0.027771
vt -0.2999992 -0.08332825
vt 0.3 -0.08333334
vt 0.3 -0.02777779
vt -0.2999992 0.08332825
vt -0.2999992 0.027771
vt 0.3 0.02777778
vt 0.3 0.08333332
vt -0.2999992 0.1944427
vt -0.2999992 0.1388855
vt 0.3 0.1388889
vt 0.3 0.1944444
vt -0.32 -0.1388889
vt -0.32 -0.1944444
vt -0.32 0.01668469
vt -0.3199997 -0.001648648
vt 0.3199997 -0.1944427
vt 0.3199997 -0.1388855
vt 0.3199997 -0.001640927
vt 0.32 0.01669241
vt 0.3199997 -0.08332825
vt 0.3199997 -0.027771
vt -0.32 -0.02777778
vt -0.32 -0.08333332
vt 0.3199997 0.027771
vt 0.3199997 0.08332825
vt -0.32 0.08333334
vt -0.32 0.02777779
vt -0.32 0.1944444
vt -0.32 0.1388889
vt 0.3199997 0.1388855
vt 0.3199997 0.1944427
vt -0.3199997 -0.1388855
vt -0.3199997 -0.1944427
vt 0.32 -0.1944444
vt 0.32 -0.1388889
vt -0.3199997 -0.027771
vt -0.3199997 -0.08332825
vt 0.32 -0.08333334
vt 0.32 -0.02777779
vt -0.3199997 0.08332825
vt -0.3199997 0.027771
vt 0.32 0.02777778
vt 0.32 0.08333332
vt -0.3199997 0.1944427
vt -0.3199997 0.1388855
vt 0.32 0.1388889
vt 0.32 0.1944444
vt 0.1388855 -0.1016667
vt 0.1944427 -0.1016667
vt -0.3199997 -0.1016667
vt -0.2999992 -0.1016667
vt 0.2999992 -0.1016667
vt 0.3199997 -0.1016667
vt -0.1944427 -0.1016667
vt -0.1388855 -0.1016667
vt 0.027771 -0.1016667
vt 0.08332825 -0.1016667
vt -0.08332825 -0.1016667
vt -0.027771 -0.1016667

vn 0 1 0
vn 0 -1 0
vn 0 0 -1
vn 0 0 1
vn -1 0 0
vn 1 0 0
vn 0 -0.0002767552 -0.9999999
vn 0 0.0003702261 0.9999999

usemtl Metal011
f 35/28/5 34/13/5 33/14/5 36/27/5
f 40/25/5 39/26/5 38/15/5 37/16/5
f 44/23/5 43/24/5 42/17/5 41/18/5
f 48/21/5 47/22/5 46/19/5 45/20/5
f 66/13/6 65/14/6 68/27/6 67/28/6
f 71/26/6 70/15/6 69/16/6 72/25/6
f 75/24/6 74/17/6 73/18/6 76/23/6
f 79/19/6 78/20/6 77/21/6 80/22/6
f 81/31/1 82/32/1 57/30/1 58/29/1
f 82/33/3 83/34/3 56/11/3 57/12/3
f 83/37/2 84/38/2 55/36/2 56/35/2
f 84/39/4 81/40/4 58/7/4 55/8/4
f 85/33/7 86/34/7 54/11/7 59/12/7
f 86/43/2 87/44/2 53/42/2 54/41/2
f 87/39/8 88/40/8 60/7/8 53/8/8
f 88/47/1 85/48/1 59/46/1 60/45/1
f 89/33/7 90/34/7 52/11/7 61/12/7
f 90/51/2 91/52/2 51/50/2 52/49/2
f 91/39/8 92/40/8 62/7/8 51/8/8
f 92/55/1 89/56/1 61/54/1 62/53/1
f 93/59/1 94/60/1 63/58/1 64/57/1
f 94/33/3 95/34/3 50/11/3 63/12/3
f 95/63/2 96/64/2 49/62/2 50/61/2
f 96/39/4 93/40/4 64/7/4 49/8/4
f 97/33/4 98/34/4 18/11/4 31/12/4
f 98/65/2 99/66/2 17/30/2 18/29/2
f 99/39/3 100/40/3 32/7/3 17/8/3
f 100/67/1 97/68/1 31/36/1 32/35/1
f 101/69/2 102/70/2 19/46/2 20/45/2
f 103/33/8 101/34/8 20/11/8 29/12/8
f 102/39/7 104/40/7 30/7/7 19/8/7
f 104/71/1 103/72/1 29/42/1 30/41/1
f 105/73/2 106/74/2 21/54/2 22/53/2
f 107/33/8 105/34/8 22/11/8 27/12/8
f 106/39/7 108/40/7 28/7/7 21/8/7
f 108/75/1 107/76/1 27/50/1 28/49/1
f 109/77/2 110/78/2 23/58/2 24/57/2
f 111/33/4 109/34/4 24/11/4 25/12/4
f 110/39/3 112/40/3 26/7/3 23/8/3
f 112/79/1 111/80/1 25/62/1 26/61/1
f 80/81/1 77/82/1 82/32/1 81/31/1
f 77/83/3 78/84/3 83/34/3 82/33/3
f 115/85/2 116/86/2 114/38/2 113/37/2
f 79/87/4 80/88/4 81/40/4 84/39/4
f 76/83/3 73/84/3 86/34/3 85/33/3
f 119/89/2 120/90/2 118/44/2 117/43/2
f 74/87/8 75/88/8 88/40/8 87/39/8
f 75/91/1 76/92/1 85/48/1 88/47/1
f 72/83/7 69/84/7 90/34/7 89/33/7
f 123/93/2 124/94/2 122/52/2 121/51/2
f 70/87/4 71/88/4 92/40/4 91/39/4
f 71/95/1 72/96/1 89/56/1 92/55/1
f 67/97/1 68/98/1 94/60/1 93/59/1
f 68/83/3 65/84/3 95/34/3 94/33/3
f 127/99/2 128/100/2 126/64/2 125/63/2
f 66/87/4 67/88/4 93/40/4 96/39/4
f 36/83/4 33/84/4 98/34/4 97/33/4
f 131/101/2 132/102/2 130/66/2 129/65/2
f 34/87/3 35/88/3 100/40/3 99/39/3
f 35/103/1 36/104/1 97/68/1 100/67/1
f 135/105/2 136/106/2 134/70/2 133/69/2
f 40/83/8 37/84/8 101/34/8 103/33/8
f 38/87/3 39/88/3 104/40/3 102/39/3
f 39/107/1 40/108/1 103/72/1 104/71/1
f 139/109/2 140/110/2 138/74/2 137/73/2
f 44/83/4 41/84/4 105/34/4 107/33/4
f 42/87/7 43/88/7 108/40/7 106/39/7
f 43/111/1 44/112/1 107/76/1 108/75/1
f 143/113/2 144/114/2 142/78/2 141/77/2
f 48/83/4 45/84/4 109/34/4 111/33/4
f 46/87/3 47/88/3 112/40/3 110/39/3
f 47/115/1 48/116/1 111/80/1 112/79/1
f 125/117/5 126/118/5 96/20/5 95/19/5
f 127/119/3 125/120/3 95/34/3 65/84/3
f 126/121/4 128/122/4 66/87/4 96/39/4
f 128/123/6 127/124/6 65/14/6 66/13/6
f 121/125/5 122/126/5 91/18/5 90/17/5
f 123/119/3 121/120/3 90/34/3 69/84/3
f 122/121/4 124/122/4 70/87/4 91/39/4
f 124/127/6 123/128/6 69/16/6 70/15/6
f 117/127/5 118/128/5 87/16/5 86/15/5
f 119/119/3 117/120/3 86/34/3 73/84/3
f 118/121/4 120/122/4 74/87/4 87/39/4
f 120/125/6 119/126/6 73/18/6 74/17/6
f 113/123/5 114/124/5 84/14/5 83/13/5
f 115/119/3 113/120/3 83/34/3 78/84/3
f 114/121/4 116/122/4 79/87/4 84/39/4
f 116/117/6 115/118/6 78/20/6 79/19/6
f 141/123/6 142/124/6 110/14/6 109/13/6
f 143/119/4 141/120/4 109/34/4 45/84/4
f 142/121/3 144/122/3 46/87/3 110/39/3
f 144/117/5 143/118/5 45/20/5 46/19/5
f 137/127/6 138/128/6 106/16/6 105/15/6
f 139/119/4 137/120/4 105/34/4 41/84/4
f 138/121/3 140/122/3 42/87/3 106/39/3
f 140/125/5 139/126/5 41/18/5 42/17/5
f 133/125/6 134/126/6 102/18/6 101/17/6
f 135/119/4 133/120/4 101/34/4 37/84/4
f 134/121/3 136/122/3 38/87/3 102/39/3
f 136/127/5 135/128/5 37/16/5 38/15/5
f 129/117/6 130/118/6 99/20/6 98/19/6
f 131/119/4 129/120/4 98/34/4 33/84/4
f 130/121/3 132/122/3 34/87/3 99/39/3
f 132/123/5 131/124/5 33/14/5 34/13/5

usemtl Metal027
f 13/11/4 8/10/4 7/9/4
f 13/11/4 7/9/4 16/8/4
f 14/12/4 13/11/4 16/8/4
f 14/12/4 16/8/4 15/7/4
f 2/5/4 14/12/4 15/7/4
f 2/5/4 15/7/4 1/6/4
f 3/5/3 12/12/3 4/6/3
f 12/12/3 9/7/3 4/6/3
f 12/12/3 11/11/3 9/7/3
f 11/11/3 10/8/3 9/7/3
f 11/11/3 5/10/3 10/8/3
f 5/10/3 6/9/3 10/8/3
f 1/5/6 60/24/6 3/6/6
f 1/5/6 61/25/6 60/24/6
f 1/5/6 62/26/6 61/25/6
f 1/5/6 63/27/6 62/26/6
f 1/5/6 64/28/6 63/27/6
f 1/5/6 15/12/6 64/28/6
f 60/24/6 59/23/6 3/6/6
f 59/23/6 58/22/6 3/6/6
f 58/22/6 57/21/6 3/6/6
f 57/21/6 12/7/6 3/6/6
f 5/9/6 11/8/6 56/20/6
f 56/20/6 55/19/6 5/9/6
f 55/19/6 54/18/6 5/9/6
f 54/18/6 53/17/6 5/9/6
f 5/9/6 53/17/6 52/16/6
f 7/10/6 5/9/6 52/16/6
f 7/10/6 52/16/6 51/15/6
f 7/10/6 51/15/6 50/14/6
f 7/10/6 50/14/6 49/13/6
f 16/11/6 7/10/6 49/13/6
f 25/21/5 14/7/5 2/6/5
f 26/22/5 25/21/5 2/6/5
f 27/23/5 26/22/5 2/6/5
f 28/24/5 27/23/5 2/6/5
f 4/5/5 9/12/5 32/28/5
f 4/5/5 32/28/5 31/27/5
f 4/5/5 31/27/5 30/26/5
f 4/5/5 30/26/5 29/25/5
f 4/5/5 29/25/5 28/24/5
f 2/6/5 4/5/5 28/24/5
f 24/20/5 8/9/5 13/8/5
f 24/20/5 23/19/5 8/9/5
f 8/9/5 23/19/5 22/18/5
f 8/9/5 22/18/5 21/17/5
f 8/9/5 21/17/5 20/16/5
f 8/9/5 20/16/5 6/10/5
f 20/16/5 19/15/5 6/10/5
f 6/10/5 19/15/5 18/14/5
f 18/14/5 17/13/5 6/10/5
f 10/11/5 6/10/5 17/13/5
f 4/4/1 2/2/1 1/1/1
f 1/1/1 3/3/1 4/4/1
f 8/1/2 6/3/2 5/4/2
f 5/4/2 7/2/2 8/1/2
f 9/12/5 10/11/5 17/13/5
f 17/13/5 32/28/5 9/12/5
f 18/14/5 19/15/5 30/26/5
f 30/26/5 31/27/5 18/14/5
f 29/25/5 20/16/5 21/17/5
f 21/17/5 28/24/5 29/25/5
f 22/18/5 23/19/5 26/22/5
f 26/22/5 27/23/5 22/18/5
f 24/20/5 13/8/5 14/7/5
f 14/7/5 25/21/5 24/20/5
f 49/13/6 64/28/6 15/12/6
f 15/12/6 16/11/6 49/13/6
f 50/14/6 51/15/6 62/26/6
f 62/26/6 63/27/6 50/14/6
f 52/16/6 53/17/6 60/24/6
f 60/24/6 61/25/6 52/16/6
f 58/22/6 59/23/6 54/18/6
f 54/18/6 55/19/6 58/22/6
f 11/8/6 12/7/6 57/21/6
f 57/21/6 56/20/6 11/8/6

