# ProBuilder 5.0.4
# https://unity3d.com/unity/features/worldbuilding/probuilder
# 6/22/2022 9:03:24 PM

mtllib ./Generic-Square-Chip.mtl
o Generic-Square-Chip

g Generic-Square-Chip
v 0.25 -0.005000001 0.3000031
v -0.25 -0.005000001 0.3000031
v 0.25 0.025 0.3
v -0.25 0.025 0.3
v -0.2999992 -0.005000001 0.25
v -0.2999992 -0.005000001 -0.25
v -0.3 0.025 0.25
v -0.3 0.025 -0.25
v -0.25 -0.005000001 -0.3000031
v 0.25 -0.005000001 -0.3000031
v -0.25 0.025 -0.3
v 0.25 0.025 -0.3
v 0.2999992 -0.005000001 -0.25
v 0.2999992 -0.005000001 0.25
v 0.3 0.025 -0.25
v 0.3 0.025 0.25
v 0.25 0.075 0.25
v -0.25 0.075 0.25
v 0.25 0.075 -0.25
v -0.25 0.075 -0.25
v 0.25 -0.025 -0.25
v -0.25 -0.025 -0.25
v 0.25 -0.025 0.25
v -0.25 -0.025 0.25
v 0.25 0.025 0.25
v -0.25 0.025 0.25
v 0.25 0.025 -0.25
v -0.25 0.025 -0.25
v -0.25 -0.02499493 -0.3500061
v 0.25 -0.02499493 -0.3500061
v 0.3499985 -0.02500129 -0.25
v 0.3499985 -0.02500129 0.25
v 0.25 -0.02499493 0.3500061
v -0.25 -0.02499493 0.3500061
v -0.3499985 -0.02500129 0.25
v -0.3499985 -0.02500129 -0.25

vt 0.5 0.02
vt 0 0.02
vt 0.5 0.05
vt 0 0.05
vt 0 1
vt 1 1
vt 0 0
vt 1 0
vt 1 0.1
vt 0 0.1
vt 1 0.2
vt 0 0.2
vt 0.09999847 0.1000061
vt 0.5999985 0.1000061
vt 0.09999847 0.05000609
vt 0.5999985 0.05000609
vt 0.5 0.05
vt 0.5 -1.676381E-08
vt 0.5999985 0.6000061
vt 0.09999847 0.6000061
vt 0.5999985 0.6500061
vt 0.09999847 0.6500061
vt 0.5 -0.02500002
vt 0 -0.02499999
vt 0.5 0.02499999
vt 0 0.02500002
vt 0.5999694 0.05381253
vt 0.6003795 2.920628E-06
vt 0.1000275 -0.003809452
vt 0.001699686 -0.02690773
vt 0.5020669 -0.02690775
vt 0.001699686 0.02690775
vt 0.5020669 0.02690773
vt 0.1000275 0.6461996
vt 0.6003795 0.650012
vt 0.09961751 0.7000093
vt 0.5999694 0.7038217
vt 0.4998005 0.02690773
vt -0.0005666576 0.02690775
vt 0.4998005 -0.02690775
vt -0.0005666576 -0.02690773
vt -0.55 5.587935E-09
vt -0.05 -1.676381E-08
vt -0.55 0.05000002
vt -0.05 0.05
vt 1.05 0.02499999
vt 0.55 0.02500002
vt 1.05 -0.02500002
vt 0.55 -0.02499999
vt 0.6159332 -0.02690773
vt 1.1163 0.02690773
vt 0.6159332 0.02690775
vt 1.1163 -0.02690775
vt -0.1144333 0.02690773
vt -0.6148005 -0.02690773
vt -0.1144333 -0.02690775
vt -0.6148005 0.02690775

vn 0 0.0001013279 1
vn -1 -2.582868E-05 0
vn 0 0.0001013279 -1
vn 1 -2.582868E-05 0
vn 0 1 0
vn 0 -1 0
vn 0 0.928517 -0.37129
vn 0.3714162 0.9284665 0
vn 0 0.928517 0.37129
vn -0.3714162 0.9284665 0
vn 0 -0.928517 0.37129
vn -0.3714162 -0.9284665 0
vn 0 -0.928517 -0.37129
vn 0.3714162 -0.9284665 0

usemtl Metal027
f 23/6/6 24/5/6 22/7/6 21/8/6
f 17/11/1 18/12/1 26/10/1 25/9/1
f 19/11/4 17/12/4 25/10/4 27/9/4
f 18/11/2 20/12/2 28/10/2 26/9/2
f 20/11/3 19/12/3 27/10/3 28/9/3
f 27/9/4 25/10/4 23/7/4 21/8/4
f 28/9/3 27/10/3 21/7/3 22/8/3
f 26/9/2 28/10/2 22/7/2 24/8/2
f 25/9/1 26/10/1 24/7/1 23/8/1

usemtl Chip-Pins
f 3/3/1 4/4/1 2/2/1 1/1/1
f 7/3/2 8/4/2 6/2/2 5/1/2
f 11/3/3 12/4/3 10/2/3 9/1/3
f 15/3/4 16/4/4 14/2/4 13/1/4
f 12/15/5 11/16/5 28/14/5 27/13/5
f 8/7/5 7/18/5 26/17/5 28/4/5
f 4/21/5 3/22/5 25/20/5 26/19/5
f 16/25/5 15/26/5 27/24/5 25/23/5
f 30/29/7 29/28/7 9/27/7 10/15/7
f 32/33/8 31/32/8 13/30/8 14/31/8
f 34/37/9 33/36/9 1/34/9 2/35/9
f 36/41/10 35/40/10 5/38/10 6/39/10
f 1/2/3 2/1/3 4/3/3 3/4/3
f 5/2/4 6/1/4 8/3/4 7/4/4
f 9/2/1 10/1/1 12/3/1 11/4/1
f 13/2/2 14/1/2 16/3/2 15/4/2
f 27/14/6 28/13/6 11/15/6 12/16/6
f 28/42/6 26/43/6 7/45/6 8/44/6
f 26/20/6 25/19/6 3/21/6 4/22/6
f 25/46/6 27/47/6 15/49/6 16/48/6
f 9/15/11 29/29/11 30/28/11 10/27/11
f 13/52/12 31/50/12 32/53/12 14/51/12
f 1/35/13 33/37/13 34/36/13 2/34/13
f 5/56/14 35/54/14 36/57/14 6/55/14

usemtl Chip-Top
f 19/7/5 20/8/5 18/6/5 17/5/5

