# ProBuilder 5.0.4
# https://unity3d.com/unity/features/worldbuilding/probuilder
# 5/25/2022 7:40:44 PM

mtllib ./Ruins-1.mtl
o Ruins-1

g Ruins-1
v 0.5 -0.25 0.05000001
v -0.5 -1.25 0.05000001
v 0.5 1.25 0.05000001
v -0.5 0.25 0.05000001
v -0.5 -1.25 -0.05000001
v -0.5 0.25 -0.05000001
v 0.5 -0.25 -0.05000001
v 0.5 1.25 -0.05000001

vt 0.5 -0.25
vt -0.5 -1.25
vt 0.5 1.25
vt -0.5 0.25
vt 0.05000001 -1.25
vt -0.05000001 -1.25
vt 0.05000001 0.25
vt -0.05000001 0.25
vt 0.5 -1.25
vt -0.5 -0.25
vt 0.5 0.25
vt -0.5 1.25
vt 0.05000001 -0.25
vt -0.05000001 -0.25
vt 0.05000001 1.25
vt -0.05000001 1.25
vt -1.237437 0.05000001
vt 0.1767767 0.05000001
vt -1.237437 -0.05000001
vt 0.1767767 -0.05000001

vn 0 0 1
vn -1 0 0
vn 0 0 -1
vn 1 0 0
vn -0.7071068 0.7071068 0
vn 0.7071068 -0.7071068 0

usemtl MetalPlates006-1
f 3/3/1 4/4/1 2/2/1 1/1/1
f 4/7/2 6/8/2 5/6/2 2/5/2
f 6/11/3 8/12/3 7/10/3 5/9/3
f 8/15/4 3/16/4 1/14/4 7/13/4
f 8/19/5 6/20/5 4/18/5 3/17/5
f 1/18/6 2/17/6 5/19/6 7/20/6

