# ProBuilder 5.0.3
# https://unity3d.com/unity/features/worldbuilding/probuilder
# 2021/8/12 0:38:30

mtllib ./Floor.mtl
o Floor

g Floor
v 7.725001 0.09999998 2.05
v 7.725001 -0.1 2.05
v -7.724998 -0.1 2.05
v -7.724998 0.09999998 2.05
v -7.724998 -0.1 -2.049999
v -7.724998 0.09999998 -2.049999
v 7.725001 -0.1 -2.049999
v 7.725001 0.09999998 -2.049999

vt 0 0.2
vt 0 0
vt -15.45 0
vt -15.45 0.2
vt -4.1 0
vt -4.1 0.2
vt 15.45 0.2
vt 15.45 0
vt 4.1 0.2
vt 4.1 0
vt 0 -4.1
vt 15.45 -4.1

vn 0 0 1
vn -1 0 0
vn 0 0 -1
vn 1 0 0
vn 0 1 0

usemtl Floor
f 4/4/1 3/3/1 2/2/1 1/1/1
f 6/6/2 5/5/2 3/2/2 4/1/2
f 8/1/3 7/2/3 5/8/3 6/7/3
f 1/1/4 2/2/4 7/10/4 8/9/4
f 6/12/5 4/8/5 1/2/5 8/11/5

