# ProBuilder 5.0.4
# https://unity3d.com/unity/features/worldbuilding/probuilder
# 7/12/2022 9:08:59 PM

mtllib ./Bullet-Box.mtl
o Bullet-Box

g Bullet-Box
v 1.070711 -0.05 0.5707107
v -1.070711 -0.05 0.5707107
v 1.070711 0.05 0.5707107
v -1.070711 0.05 0.5707107
v -1.070711 -0.05 -0.5707107
v -1.070711 0.05 -0.5707107
v 1.070711 -0.05 -0.5707107
v 1.070711 0.05 -0.5707107
v 1 0.05 0.5
v -1 0.05 0.5
v 1 0.05 -0.5
v -1 0.05 -0.5
v 1 -0.05 -0.5
v -1 -0.05 -0.5
v 1 -0.05 0.5
v -1 -0.05 0.5
v 1 1.1001 -0.5
v -1 1.1001 -0.5
v 1.070711 1.1001 -0.5707107
v -1.07071 1.1001 -0.5707107
v 1 1.1001 0.5
v 1.070711 1.1001 0.5707107
v -1 1.1001 0.5
v -1.07071 1.1001 0.5707107
v 1 1.05 0.5
v 1 1.05 -0.5
v 1.070711 1.05 0.5707107
v -1.070711 1.05 0.5707107
v 1.070711 1.05 -0.5707107
v -1 1.05 -0.5
v -1.070711 1.05 -0.5707107
v -1 1.05 0.5

vt 1.070711 -0.05
vt -1.070711 -0.05
vt 1.070711 0.05
vt -1.070711 0.05
vt 0.5707107 -0.05
vt -0.5707107 -0.05
vt 0.5707107 0.05
vt -0.5707107 0.05
vt -1 0.5
vt 1 0.5
vt -1 -0.5
vt 1 -0.5
vt 1.070711 -0.5707107
vt 1.070711 0.5707107
vt -1.070711 -0.5707107
vt -1.070711 0.5707107
vt 0.5 0.05
vt -0.5 0.05
vt 0.5 1.05
vt -0.5 1.05
vt 1.070711 1.05
vt -1.070711 1.05
vt 0.5707107 1.05
vt -0.5707107 1.05
vt 1 0.05
vt -1 0.05
vt 1 1.05
vt -1 1.05
vt 0.5 1.1001
vt -0.5 1.1001
vt 1.070711 1.1001
vt -1.07071 1.1001
vt 0.5707107 1.1001
vt -0.5707107 1.1001
vt 1 1.1001
vt -1 1.1001

vn 0 0 1
vn -1 0 0
vn 0 0 -1
vn 1 0 0
vn 0 1 0
vn 0 -1 0

usemtl Metal002-Green
f 3/3/1 4/4/1 2/2/1 1/1/1
f 4/7/2 6/8/2 5/6/2 2/5/2
f 6/3/3 8/4/3 7/2/3 5/1/3
f 8/7/4 3/8/4 1/6/4 7/5/4
f 11/11/5 12/12/5 10/10/5 9/9/5
f 15/10/6 16/9/6 14/11/6 13/12/6
f 7/13/6 1/14/6 15/10/6 13/12/6
f 19/15/5 20/13/5 18/12/5 17/11/5
f 22/16/5 19/15/5 17/11/5 21/9/5
f 1/14/6 2/16/6 16/9/6 15/10/6
f 24/14/5 22/16/5 21/9/5 23/10/5
f 2/16/6 5/15/6 14/11/6 16/9/6
f 20/13/5 24/14/5 23/10/5 18/12/5
f 5/15/6 7/13/6 13/12/6 14/11/6
f 25/19/2 26/20/2 11/18/2 9/17/2
f 27/21/1 28/22/1 4/4/1 3/3/1
f 29/23/4 27/24/4 3/8/4 8/7/4
f 26/27/1 30/28/1 12/26/1 11/25/1
f 31/21/3 29/22/3 8/4/3 6/3/3
f 30/19/4 32/20/4 10/18/4 12/17/4
f 28/23/2 31/24/2 6/8/2 4/7/2
f 32/27/3 25/28/3 9/26/3 10/25/3
f 21/29/2 17/30/2 26/20/2 25/19/2
f 22/31/1 24/32/1 28/22/1 27/21/1
f 19/33/4 22/34/4 27/24/4 29/23/4
f 17/35/1 18/36/1 30/28/1 26/27/1
f 20/31/3 19/32/3 29/22/3 31/21/3
f 18/29/4 23/30/4 32/20/4 30/19/4
f 24/33/2 20/34/2 31/24/2 28/23/2
f 23/35/3 21/36/3 25/28/3 32/27/3

