# ProBuilder 5.0.3
# https://unity3d.com/unity/features/worldbuilding/probuilder
# 2021/8/12 0:16:17

mtllib ./SCPLogo.mtl
o SCPLogo

g SCPLogo
v 0.05 -0.6 1.1
v -0.05 -0.6 1.1
v 0.05 0.6 1.1
v -0.05 0.6 1.1
v -0.05999999 -0.5 1
v -0.05999999 -0.5 -1
v -0.05999999 0.5 1
v -0.05999999 0.5 -1
v -0.05 -0.6 -1.1
v 0.05 -0.6 -1.1
v -0.05 0.6 -1.1
v 0.05 0.6 -1.1
v 0.05 -0.5 -1
v 0.05 -0.5 1
v 0.05 0.5 -1
v 0.05 0.5 1
v -0.05 0.5 -1
v -0.05 -0.5 -1
v -0.05 0.5 1
v -0.05 -0.5 1

vt 0.05 -0.6
vt -0.05 -0.6
vt 0.05 0.6
vt -0.05 0.6
vt 1.1 0.2
vt -0.1 0.2
vt 1.1 0.8
vt -0.1 0.8
vt 1 -0.5
vt -1 -0.5
vt 1 0.5
vt -1 0.5
vt -0.05 1.1
vt 0.05 1.1
vt -0.05 -1.1
vt 0.05 -1.1
vt -1.1 0.6
vt -1.1 -0.6
vt 1.1 0.6
vt 1.1 -0.6
vt -0.05 1
vt -0.05 -1
vt -0.05999999 1
vt -0.05999999 -1
vt -0.05 0.5
vt -0.05 -0.5
vt -0.05999999 0.5
vt -0.05999999 -0.5
vt 0.05 -0.5
vt 0.05 0.5
vt 0.05999999 -0.5
vt 0.05999999 0.5
vt 0.05 -1
vt 0.05 1
vt 0.05999999 -1
vt 0.05999999 1

vn 0 0 1
vn -1 0 0
vn 0 0 -1
vn 1 0 0
vn 0 1 0
vn 0 -1 0

usemtl Metal_pattern_30
f 3/3/1 4/4/1 2/2/1 1/1/1
f 11/3/3 12/4/3 10/2/3 9/1/3
f 15/11/4 16/12/4 14/10/4 13/9/4
f 12/15/5 11/16/5 4/14/5 3/13/5
f 1/14/6 2/13/6 9/15/6 10/16/6
f 11/17/2 9/18/2 18/10/2 17/12/2
f 12/19/4 3/17/4 16/12/4 15/11/4
f 4/19/2 11/17/2 17/12/2 19/11/2
f 10/20/4 12/19/4 15/11/4 13/9/4
f 3/17/4 1/18/4 14/10/4 16/12/4
f 2/20/2 4/19/2 19/11/2 20/9/2
f 1/18/4 10/20/4 13/9/4 14/10/4
f 9/18/2 2/20/2 20/9/2 18/10/2
f 5/23/6 6/24/6 18/22/6 20/21/6
f 7/27/1 5/28/1 20/26/1 19/25/1
f 6/31/3 8/32/3 17/30/3 18/29/3
f 8/35/5 7/36/5 19/34/5 17/33/5

usemtl SCPLogoV2
f 7/7/2 8/8/2 6/6/2 5/5/2

