# ProBuilder 5.0.3
# https://unity3d.com/unity/features/worldbuilding/probuilder
# 1/18/2022 12:15:36 AM

mtllib ./FSR-SIII-Scope-RedDot.mtl
o FSR-SIII-Scope-RedDot

g FSR-SIII-Scope-RedDot
v -0.05 -0.025 0.26
v -0.05 0.025 0.26
v 0.05 -0.025 0.2
v -0.05 -0.025 0.2
v 0.05 -0.025 0.25
v -0.05 -0.025 0.25
v -0.05 -0.025 -0.2
v 0.05 -0.025 -0.2
v -0.05 -0.025 -0.25
v 0.05 -0.025 -0.25
v -0.05 0.025 -0.2
v -0.05 0.025 0.2
v -0.05 -0.025 -0.26
v -0.05 0.025 -0.26
v -0.075 -0.02500001 -0.26
v -0.075 0.02500001 -0.26
v 0.05 0.025 0.2
v 0.05 0.025 -0.2
v 0.075 0.02500001 0.2
v 0.075 0.02500001 -0.2
v 0.05 -0.025 0.26
v 0.05 0.025 0.26
v 0.05 0.025 -0.26
v 0.05 -0.025 -0.26
v 0.05 0.025 -0.25
v 0.05 0.125 -0.2
v 0.05 0.125 -0.25
v 0.075 0.125 -0.2
v 0.075 0.02500001 -0.25
v 0.075 0.125 -0.25
v -0.05 0.025 -0.25
v -0.05 0.125 -0.25
v -0.05 0.125 -0.2
v -0.075 0.02500001 -0.25
v -0.075 0.125 -0.25
v -0.075 0.02500001 -0.2
v -0.075 0.125 -0.2
v -0.05 0.025 0.25
v -0.05 0.125 0.2
v -0.05 0.125 0.25
v -0.075 0.02500001 0.2
v -0.075 0.125 0.2
v -0.075 0.02500001 0.25
v -0.075 0.125 0.25
v 0.05 0.025 0.25
v 0.05 0.125 0.25
v 0.05 0.125 0.2
v 0.075 0.02500001 0.25
v 0.075 0.125 0.25
v 0.075 0.125 0.2
v 0.05 0.175 -0.2
v 0.05 0.175 -0.25
v -0.05 0.175 -0.25
v -0.05 0.175 -0.2
v -0.05 0.175 0.2
v -0.05 0.175 0.25
v 0.05 0.175 0.25
v 0.05 0.175 0.2
v 0.05 0.175 -0.25
v 0.05 0.175 -0.2
v -0.05 0.175 -0.2
v -0.05 0.175 -0.25
v 0.05 0.02499998 -0.2
v -0.05 0.02499998 -0.2
v 0.05 0.02499998 -0.25
v -0.05 0.02499998 -0.25
v -0.05 0.02500001 -0.225
v 0.05 0.02500001 -0.225
v -0.05 0.175 -0.225
v 0.05 0.175 -0.225
v 0.05 0.02500001 -0.215
v -0.05 0.02500001 -0.215
v 0.05 0.175 -0.215
v -0.05 0.175 -0.215
v -0.05 0.02500001 0.225
v 0.05 0.02500001 0.225
v -0.05 0.175 0.225
v 0.05 0.175 0.225
v 0.05 0.02500001 0.235
v -0.05 0.02500001 0.235
v 0.05 0.175 0.235
v -0.05 0.175 0.235
v 0.05 -0.05 0.2
v 0.05 -0.05 0.25
v 0.075 -0.02500001 0.2
v 0.075 -0.02500001 0.25
v 0.05 -0.05 -0.25
v 0.05 -0.05 -0.2
v 0.075 -0.02500001 -0.25
v 0.075 -0.02500001 -0.2
v -0.05 -0.05 -0.2
v -0.05 -0.05 -0.25
v -0.075 -0.02500001 -0.2
v -0.075 -0.02500001 -0.25
v -0.05 -0.05 0.25
v -0.05 -0.05 0.2
v -0.075 -0.02500001 0.25
v -0.075 -0.02500001 0.2
v -0.085 -0.02500001 0.25
v -0.085 -0.02500001 0.2
v -0.085 0.02500001 -0.25
v -0.085 0.02500001 -0.2
v -0.085 0.02500001 0.2
v -0.085 -0.02500001 -0.2
v -0.085 -0.02500001 -0.25
v -0.085 -0.02500001 -0.26
v -0.085 0.02500001 -0.26
v -0.085 0.02500001 0.25
v -0.075 0.02500001 0.26
v -0.075 -0.02500001 0.26
v -0.085 0.02500001 0.26
v -0.085 -0.02500001 0.26
v 0.085 0.02500001 0.2
v 0.085 0.02500001 -0.2
v 0.085 0.02500001 0.25
v 0.085 -0.02500001 0.2
v 0.085 -0.02500001 0.25
v 0.075 -0.02500001 0.26
v 0.075 0.02500001 0.26
v 0.085 -0.02500001 0.26
v 0.085 0.02500001 0.26
v 0.085 -0.02500001 -0.25
v 0.085 -0.02500001 -0.2
v 0.085 0.02500001 -0.25
v 0.075 0.02500001 -0.26
v 0.075 -0.02500001 -0.26
v 0.085 0.02500001 -0.26
v 0.085 -0.02500001 -0.26
v -0.08499999 0.004999965 0.1666667
v -0.08499999 0.004999965 -0.1666667
v 0.08500001 0.004999965 -0.1666667
v 0.08500001 0.004999965 0.1666667

vt 0.7 0.2875
vt 0.7 0.3375
vt 0.175 0.46
vt 0.07499999 0.46
vt 0.175 0.51
vt 0.07499999 0.51
vt 0.07499999 0.1975
vt 0.175 0.1975
vt 0.07499999 0.1475
vt 0.175 0.1475
vt 0.2650245 0.6314527
vt 0.2650245 0.9127026
vt 0.175 0.1625
vt 0.175 0.2125
vt 0.2 0.1625
vt 0.2 0.2125
vt 0.194712 0.9127026
vt 0.194712 0.6314527
vt 0.1771339 0.9127026
vt 0.1771339 0.6314527
vt 0.8 0.2875
vt 0.8 0.3375
vt 0.075 0.2125
vt 0.075 0.1625
vt 0.1 0.2125
vt 0.05000001 0.2125
vt 0.1 0.3125
vt 0.05000001 0.3125
vt 0.825 0.3375
vt 0.8 0.3375
vt 0.825 0.4375
vt 0.8000001 0.4375
vt 0.7 0.07500239
vt 0.675 0.0750024
vt 0.7 0.1750024
vt 0.675 0.1750024
vt 0.875 0.574473
vt 0.825 0.574473
vt 0.875 0.6727731
vt 0.825 0.6727731
vt 0.525 0.3375
vt 0.475 0.3375
vt 0.525 0.4375
vt 0.475 0.4375
vt 0.825 0.0750024
vt 0.8 0.07500239
vt 0.825 0.1750024
vt 0.8 0.1750024
vt 0.675 0.3375
vt 0.7 0.4375
vt 0.675 0.4375
vt 0.425 0.574473
vt 0.375 0.574473
vt 0.425 0.6727731
vt 0.375 0.6727731
vt 0.675 0.3375
vt 0.675 0.4375
vt 0.825 0.3375
vt 0.825 0.4375
vt 0.1 0.3625
vt 0.05000001 0.3625
vt 0.8000001 0.4875
vt 0.7 0.2250024
vt 0.875 0.7265131
vt 0.825 0.7265131
vt 0.525 0.4375
vt 0.475 0.4375
vt 0.525 0.4875
vt 0.475 0.4875
vt 0.8 0.2250024
vt 0.7 0.4875
vt 0.425 0.7265131
vt 0.375 0.7265131
vt 0.525 0.4875
vt 0.475 0.4875
vt 0.2650245 0.9478588
vt 0.194712 0.9478588
vt 0.194712 0.5962964
vt 0.2650245 0.5962964
vt 0.8333333 5.960464E-08
vt 0.1666667 5.960464E-08
vt 0.8333333 1
vt 0.1666667 1
vt 0.475 0.2875
vt 0.525 0.2875
vt 0.475 0.2625
vt 0.525 0.2625
vt 0.05 0.1625
vt 0.075 0.1375
vt 0.825 0.2875
vt 0.8 0.2625
vt 0.2 0.51
vt 0.2 0.46
vt 0.05000001 0.1625
vt 0.1 0.1625
vt 0.05000001 0.1375
vt 0.1 0.1375
vt 0.825 0.2875
vt 0.8 0.2625
vt 0.2 0.1975
vt 0.2 0.1475
vt 0.675 0.2875
vt 0.6999999 0.2625
vt 0.175 0.1625
vt 0.175 0.1375
vt 0.05000001 0.1475
vt 0.05000001 0.1975
vt 0.07500001 0.1475
vt 0.07500001 0.1975
vt 0.675 0.2875
vt 0.05000001 0.46
vt 0.05000001 0.51
vt 0.07500001 0.46
vt 0.07500001 0.51
vt 0.05 0.51
vt 0.05 0.46
vt 0.04 0.51
vt 0.04 0.46
vt 0.2826027 0.5962964
vt 0.2826027 0.6314527
vt 0.2896339 0.5962964
vt 0.2896339 0.6314527
vt 0.2826027 0.9127026
vt 0.2896339 0.9127026
vt 0.05 0.1975
vt 0.05 0.1475
vt 0.04 0.1975
vt 0.04 0.1475
vt 0.21 0.1625
vt 0.21 0.2125
vt 0.2826027 0.9478588
vt 0.2896339 0.9478588
vt 0.665 0.3375
vt 0.665 0.2875
vt 0.1701027 0.9127026
vt 0.1701027 0.6314527
vt 0.1771339 0.9478588
vt 0.1701027 0.9478588
vt 0.21 0.46
vt 0.21 0.51
vt 0.835 0.2875
vt 0.835 0.3375
vt 0.21 0.1475
vt 0.21 0.1975
vt 0.1771339 0.5962964
vt 0.1701027 0.5962964
vt 0.05 0.2125
vt 0.04 0.2125
vt 0.04 0.1625
vt 0.175 0.52
vt 0.07499999 0.52
vt 0.21 0.52
vt 0.2 0.52
vt 0.1771339 0.9548901
vt 0.1701027 0.9548901
vt 0.2826027 0.9548901
vt 0.2650245 0.9548901
vt 0.194712 0.9548901
vt 0.075 0.52
vt 0.05 0.52
vt 0.2896339 0.9548901
vt 0.04 0.52
vt 0.05 0.1375
vt 0.2650245 0.5892652
vt 0.2826027 0.5892652
vt 0.1701027 0.5892652
vt 0.1771339 0.5892652
vt 0.2 0.1375
vt 0.21 0.1375
vt 0.194712 0.5892652
vt 0.07499999 0.1375
vt 0.04 0.1375
vt 0.2896339 0.5892652
vt 0.175 0.485
vt 0.07499999 0.485
vt 0.175 0.495
vt 0.07499999 0.495
vt 0.07500002 0.3625
vt 0.06500001 0.3625
vt 0.06500001 0.2125
vt 0.5 0.3375
vt 0.5 0.4875
vt 0.5100001 0.3375
vt 0.5100001 0.4875
vt 0.1141304 0.8804347
vt 0.1141304 1.097826
vt 0.1358696 0.8804347
vt 0.1358696 1.097826
vt 0.175 0.1725
vt 0.07499999 0.1725
vt 0.175 0.1825
vt 0.07499999 0.1825
vt 0.5 0.4875
vt 0.5 0.3375
vt 0.49 0.4875
vt 0.49 0.3375
vt 0.08500005 0.2125
vt 0.08500005 0.3625
vt 0.1141304 -0.09782618
vt 0.1141304 0.1195651
vt 0.1358696 -0.09782618
vt 0.1358696 0.1195651
vt 0.365 0.572637
vt 0.375 0.572637
vt 0.425 0.572637
vt 0.825 0.572637
vt 0.875 0.572637
vt 0.885 0.572637
vt 0.885 0.5234869
vt 0.875 0.5234869
vt 0.825 0.5234869
vt 0.7916667 0.5529769
vt 0.4583333 0.5529769
vt 0.425 0.5234869
vt 0.375 0.5234869
vt 0.365 0.5234869
vt 0.46 0.09333709
vt 0.46 0.06000376
vt 0.45 0.06000376
vt 0.425 0.06000374
vt 0.325 0.06000374
vt 0.3 0.06000376
vt 0.29 0.06000376
vt 0.29 0.09333706
vt 0.45 0.4600037
vt 0.46 0.4600037
vt 0.46 0.4266704
vt 0.29 0.4266704
vt 0.29 0.4600037
vt 0.3 0.4600037
vt 0.325 0.4600037
vt 0.425 0.4600037

vn 0 0 1
vn 0 -1 0
vn 1.117587E-07 1 0
vn 0 0 -1
vn -1 0 0
vn 1 0 0
vn 0.8944272 0.4472136 0
vn -0.8944272 0.4472136 0
vn 0.7071066 -0.7071069 0
vn -0.7071066 -0.7071069 0
vn -2.273826E-07 -0.7432945 0.6689644
vn -8.30696E-08 -0.7432943 -0.6689646

usemtl Lit
f 51/62/1 26/32/1 28/31/1
f 52/63/4 30/36/4 27/35/4
f 53/70/4 32/48/4 35/47/4
f 54/71/1 37/51/1 33/50/1
f 55/70/4 39/48/4 42/47/4
f 56/71/1 44/57/1 40/50/1
f 57/62/1 46/32/1 49/59/1
f 58/63/4 50/36/4 47/35/4
f 83/89/4 3/24/4 85/88/4
f 84/91/1 86/90/1 5/21/1
f 87/89/4 10/24/4 89/88/4
f 88/99/1 90/98/1 8/21/1
f 91/103/1 7/1/1 93/102/1
f 92/105/4 94/15/4 9/104/4
f 95/103/1 6/1/1 97/110/1
f 96/105/4 98/15/4 4/104/4
f 120/141/1 119/58/1 118/90/1
f 120/141/1 121/142/1 119/58/1
f 118/90/1 22/22/1 21/21/1
f 118/90/1 119/58/1 22/22/1
f 22/22/1 1/1/1 21/21/1
f 22/22/1 2/2/1 1/1/1
f 111/133/1 110/110/1 109/56/1
f 111/133/1 112/134/1 110/110/1
f 109/56/1 1/1/1 2/2/1
f 109/56/1 110/110/1 1/1/1
f 15/15/4 14/14/4 13/13/4
f 15/15/4 16/16/4 14/14/4
f 127/148/4 126/88/4 125/147/4
f 127/148/4 128/149/4 126/88/4
f 125/147/4 24/24/4 23/23/4
f 125/147/4 126/88/4 24/24/4
f 14/14/4 24/24/4 13/13/4
f 14/14/4 23/23/4 24/24/4
f 106/129/4 16/16/4 15/15/4
f 106/129/4 107/130/4 16/16/4
f 107/203/5 106/216/5 105/215/5
f 108/207/5 112/209/5 111/208/5
f 108/207/5 99/210/5 112/209/5
f 108/207/5 100/211/5 99/210/5
f 108/207/5 103/206/5 100/211/5
f 129/212/5 100/211/5 103/206/5
f 103/206/5 102/205/5 129/212/5
f 102/205/5 130/213/5 129/212/5
f 102/205/5 104/214/5 130/213/5
f 101/204/5 104/214/5 102/205/5
f 101/204/5 105/215/5 104/214/5
f 107/203/5 105/215/5 101/204/5
f 124/207/6 122/210/6 127/208/6
f 123/211/6 122/210/6 124/207/6
f 114/206/6 123/211/6 124/207/6
f 131/212/6 123/211/6 114/206/6
f 113/205/6 131/212/6 114/206/6
f 113/205/6 132/213/6 131/212/6
f 113/205/6 116/214/6 132/213/6
f 116/214/6 113/205/6 115/204/6
f 117/215/6 116/214/6 115/204/6
f 120/216/6 117/215/6 115/204/6
f 121/203/6 120/216/6 115/204/6
f 122/210/6 128/209/6 127/208/6
f 19/19/3 18/18/3 17/17/3
f 19/19/3 20/20/3 18/18/3
f 113/135/3 20/20/3 19/19/3
f 113/135/3 114/136/3 20/20/3
f 102/122/3 41/123/3 36/120/3
f 102/122/3 103/124/3 41/123/3
f 36/120/3 12/12/3 11/11/3
f 36/120/3 41/123/3 12/12/3
f 18/18/3 12/12/3 17/17/3
f 18/18/3 11/11/3 12/12/3
f 8/220/11 131/217/11 130/224/11
f 8/220/11 90/219/11 131/217/11
f 90/219/11 123/218/11 131/217/11
f 8/220/11 130/224/11 7/221/11
f 93/222/11 7/221/11 130/224/11
f 130/224/11 104/223/11 93/222/11
f 132/227/12 116/226/12 85/225/12
f 85/225/12 3/232/12 132/227/12
f 3/232/12 4/231/12 132/227/12
f 132/227/12 4/231/12 129/228/12
f 129/228/12 4/231/12 98/230/12
f 100/229/12 129/228/12 98/230/12
f 6/6/2 4/4/2 3/3/2
f 3/3/2 5/5/2 6/6/2
f 10/10/2 8/8/2 7/7/2
f 7/7/2 9/9/2 10/10/2
f 27/28/5 25/26/5 18/25/5
f 18/25/5 26/27/5 27/28/5
f 26/32/1 18/30/1 20/29/1
f 20/29/1 28/31/1 26/32/1
f 30/36/4 29/34/4 25/33/4
f 25/33/4 27/35/4 30/36/4
f 28/40/6 20/38/6 29/37/6
f 29/37/6 30/39/6 28/40/6
f 33/44/6 11/42/6 31/41/6
f 31/41/6 32/43/6 33/44/6
f 32/48/4 31/46/4 34/45/4
f 34/45/4 35/47/4 32/48/4
f 37/51/1 36/49/1 11/2/1
f 11/2/1 33/50/1 37/51/1
f 35/55/5 34/53/5 36/52/5
f 36/52/5 37/54/5 35/55/5
f 40/28/6 38/26/6 12/25/6
f 12/25/6 39/27/6 40/28/6
f 39/48/4 12/46/4 41/45/4
f 41/45/4 42/47/4 39/48/4
f 44/57/1 43/56/1 38/2/1
f 38/2/1 40/50/1 44/57/1
f 42/40/5 41/38/5 43/37/5
f 43/37/5 44/39/5 42/40/5
f 47/44/5 17/42/5 45/41/5
f 45/41/5 46/43/5 47/44/5
f 46/32/1 45/22/1 48/58/1
f 48/58/1 49/59/1 46/32/1
f 50/36/4 19/34/4 17/33/4
f 17/33/4 47/35/4 50/36/4
f 49/55/6 48/53/6 19/52/6
f 19/52/6 50/54/6 49/55/6
f 52/61/5 27/28/5 26/27/5
f 26/27/5 51/60/5 52/61/5
f 51/65/7 28/40/7 30/39/7
f 30/39/7 52/64/7 51/65/7
f 54/69/6 33/67/6 32/66/6
f 32/66/6 53/68/6 54/69/6
f 53/73/8 35/55/8 37/54/8
f 37/54/8 54/72/8 53/73/8
f 56/61/6 40/28/6 39/27/6
f 39/27/6 55/60/6 56/61/6
f 55/65/8 42/40/8 44/39/8
f 44/39/8 56/64/8 55/65/8
f 58/69/5 47/67/5 46/66/5
f 46/66/5 57/68/5 58/69/5
f 57/73/7 49/55/7 50/54/7
f 50/54/7 58/72/7 57/73/7
f 60/75/6 18/42/6 25/41/6
f 25/41/6 59/74/6 60/75/6
f 62/61/5 31/26/5 11/25/5
f 11/25/5 61/60/5 62/61/5
f 45/77/3 17/17/3 12/12/3
f 12/12/3 38/76/3 45/77/3
f 66/79/3 64/11/3 63/18/3
f 63/18/3 65/78/3 66/79/3
f 84/87/5 5/85/5 3/84/5
f 3/84/5 83/86/5 84/87/5
f 83/3/9 85/93/9 86/92/9
f 86/92/9 84/5/9 83/3/9
f 88/97/5 8/95/5 10/94/5
f 10/94/5 87/96/5 88/97/5
f 87/10/9 89/101/9 90/100/9
f 90/100/9 88/8/9 87/10/9
f 92/87/6 9/85/6 7/84/6
f 7/84/6 91/86/6 92/87/6
f 91/109/10 93/107/10 94/106/10
f 94/106/10 92/108/10 91/109/10
f 96/97/6 4/95/6 6/94/6
f 6/94/6 95/96/6 96/97/6
f 95/114/10 97/112/10 98/111/10
f 98/111/10 96/113/10 95/114/10
f 100/118/2 98/116/2 97/115/2
f 97/115/2 99/117/2 100/118/2
f 102/122/3 36/120/3 34/119/3
f 34/119/3 101/121/3 102/122/3
f 105/128/2 94/126/2 93/125/2
f 93/125/2 104/127/2 105/128/2
f 108/132/3 43/131/3 41/123/3
f 41/123/3 103/124/3 108/132/3
f 113/135/3 19/19/3 48/137/3
f 48/137/3 115/138/3 113/135/3
f 117/140/2 86/92/2 85/93/2
f 85/93/2 116/139/2 117/140/2
f 123/144/2 90/100/2 89/101/2
f 89/101/2 122/143/2 123/144/2
f 124/146/3 29/145/3 20/20/3
f 20/20/3 114/136/3 124/146/3
f 1/151/2 6/6/2 5/5/2
f 5/5/2 21/150/2 1/151/2
f 118/153/2 86/92/2 117/140/2
f 117/140/2 120/152/2 118/153/2
f 121/155/3 115/138/3 48/137/3
f 48/137/3 119/154/3 121/155/3
f 2/157/3 38/76/3 43/131/3
f 43/131/3 109/156/3 2/157/3
f 21/150/2 5/5/2 86/92/2
f 86/92/2 118/153/2 21/150/2
f 119/154/3 48/137/3 45/77/3
f 45/77/3 22/158/3 119/154/3
f 22/158/3 45/77/3 38/76/3
f 38/76/3 2/157/3 22/158/3
f 110/160/2 97/115/2 6/114/2
f 6/114/2 1/159/2 110/160/2
f 109/156/3 43/131/3 108/132/3
f 108/132/3 111/161/3 109/156/3
f 112/162/2 99/117/2 97/115/2
f 97/115/2 110/160/2 112/162/2
f 13/89/2 9/108/2 94/126/2
f 94/126/2 15/163/2 13/89/2
f 16/165/3 34/119/3 31/79/3
f 31/79/3 14/164/3 16/165/3
f 125/167/3 29/145/3 124/146/3
f 124/146/3 127/166/3 125/167/3
f 128/169/2 122/143/2 89/101/2
f 89/101/2 126/168/2 128/169/2
f 23/170/3 25/78/3 29/145/3
f 29/145/3 125/167/3 23/170/3
f 126/168/2 89/101/2 10/10/2
f 10/10/2 24/105/2 126/168/2
f 24/105/2 10/10/2 9/9/2
f 9/9/2 13/171/2 24/105/2
f 14/164/3 31/79/3 25/78/3
f 25/78/3 23/170/3 14/164/3
f 15/163/2 94/126/2 105/128/2
f 105/128/2 106/172/2 15/163/2
f 107/173/3 101/121/3 34/119/3
f 34/119/3 16/165/3 107/173/3
f 80/177/2 75/175/2 76/174/2
f 76/174/2 79/176/2 80/177/2
f 79/180/6 76/23/6 78/178/6
f 78/178/6 81/179/6 79/180/6
f 82/184/5 77/182/5 75/181/5
f 75/181/5 80/183/5 82/184/5
f 72/192/2 67/190/2 68/189/2
f 68/189/2 71/191/2 72/192/2
f 71/196/6 68/194/6 70/193/6
f 70/193/6 73/195/6 71/196/6
f 74/198/5 69/178/5 67/23/5
f 67/23/5 72/197/5 74/198/5
f 130/224/2 131/217/2 132/227/2
f 132/227/2 129/228/2 130/224/2

usemtl Screen
f 69/82/4 70/83/4 68/81/4 67/80/4
f 73/82/1 74/83/1 72/81/1 71/80/1
f 77/82/4 78/83/4 76/81/4 75/80/4
f 81/82/1 82/83/1 80/81/1 79/80/1
f 82/187/3 81/188/3 78/186/3 77/185/3
f 74/201/3 73/202/3 70/200/3 69/199/3

