# ProBuilder 5.0.3
# https://unity3d.com/unity/features/worldbuilding/probuilder
# 1/16/2022 8:54:37 PM

mtllib ./FSR-SIII-Sliencer.mtl
o FSR-SIII-Sliencer

g FSR-SIII-Sliencer
v -0.05303301 -0.75 0.05303301
v -0.075 -0.75 0
v -0.05303301 0.375 0.05303301
v -0.075 0.375 0
v -0.05 -0.75 0
v -0.03535534 -0.75 0.03535534
v -0.05 0.375 0
v -0.03535534 0.375 0.03535534
v 3.278354E-09 -0.75 0.075
v 0 0.375 0.075
v 2.18557E-09 -0.75 0.05
v 0 0.375 0.05
v 0.05303301 -0.75 0.05303301
v 0.05303301 0.375 0.05303301
v 0.03535534 -0.75 0.03535534
v 0.03535533 0.375 0.03535534
v 0.075 -0.75 -6.556709E-09
v 0.075 0.375 -6.556709E-09
v 0.05 -0.75 -4.371139E-09
v 0.05000001 0.375 -4.371139E-09
v 0.05303301 -0.75 -0.05303301
v 0.05303301 0.375 -0.05303301
v 0.03535534 -0.75 -0.03535534
v 0.03535534 0.375 -0.03535534
v -8.943661E-10 -0.75 -0.075
v 0 0.375 -0.075
v -5.962441E-10 -0.75 -0.05
v 0 0.375 -0.05
v -0.053033 -0.75 -0.05303302
v -0.053033 0.375 -0.05303302
v -0.03535534 -0.75 -0.03535535
v -0.03535534 0.375 -0.03535535
v 0 0.825 0.075
v -0.05303301 0.825 0.05303301
v 0 0.825 0.05
v -0.03535534 0.825 0.03535534
v 0.075 0.825 -6.556709E-09
v 0.05303301 0.825 0.05303301
v 0.05000001 0.825 -4.371139E-09
v 0.03535533 0.825 0.03535534
v 0 0.825 -0.075
v 0.05303301 0.825 -0.05303301
v 0 0.825 -0.05
v 0.03535534 0.825 -0.03535534
v -0.075 0.825 0
v -0.053033 0.825 -0.05303302
v -0.05 0.825 0
v -0.03535534 0.825 -0.03535535

vt 0.02870125 -0.75
vt -0.02870126 -0.75
vt 0.02870125 0.375
vt -0.02870126 0.375
vt 0.01913418 -0.75
vt -0.01913416 -0.75
vt 0.01913418 0.375
vt -0.01913416 0.375
vt -0.075 0
vt -0.05303301 0.05303301
vt -0.05 0
vt -0.03535534 0.03535534
vt 0.05303301 0.05303301
vt 0.075 0
vt 0.03535534 0.03535534
vt 0.05 0
vt 3.278354E-09 0.075
vt 2.18557E-09 0.05
vt 0.05303301 -0.05303301
vt 0.03535534 -0.03535534
vt -0.05303301 -0.05303301
vt -0.03535534 -0.03535534
vt -8.943661E-10 -0.075
vt -5.962441E-10 -0.05
vt 0.02870127 0.825
vt -0.02870125 0.825
vt -0.05 0.375
vt -0.075 0.375
vt -0.05 0.825
vt -0.075 0.825
vt 0.075 0.375
vt 0.05 0.375
vt 0.075 0.825
vt 0.05 0.825
vt 0.01913417 0.825
vt -0.01913418 0.825
vt 0.075 0.375
vt 0.04999999 0.375
vt 0.075 0.825
vt 0.04999999 0.825

vn -0.7071068 -3.017642E-10 0.7071068
vn -1 0 0
vn -0.6037481 0 0.7971752
vn -0.9906023 0 -0.1367737
vn 1 0 -6.45156E-08
vn 0.7071068 0 -0.7071068
vn 1.61289E-08 -3.017642E-10 1
vn -0.1367736 1.992856E-10 0.9906023
vn -3.225781E-08 -2.011763E-10 -1
vn 0.7071068 0 0.7071068
vn 0.7971752 1.992856E-10 0.603748
vn -0.7071068 -4.198352E-09 -0.7071068
vn 0.9906023 0 0.1367736
vn 0.6037481 9.996165E-10 -0.7971752
vn 0.1367737 2.80821E-10 -0.9906023
vn -0.7971752 5.436696E-11 -0.6037481
vn 0 -1 0
vn 0 1 0
vn 0.3826835 0 -0.9238795
vn -0.3826835 0 0.9238795
vn 0.9238796 0 0.3826834
vn -0.9238794 0 -0.3826839

usemtl Lit
f 3/3/3 4/4/4 2/2/2 1/1/1
f 7/7/5 8/8/6 6/6/6 5/5/5
f 10/3/8 3/4/3 1/2/1 9/1/7
f 8/7/6 12/8/9 11/6/9 6/5/6
f 14/3/11 10/4/8 9/2/7 13/1/10
f 12/7/9 16/8/12 15/6/12 11/5/9
f 18/3/13 14/4/11 13/2/10 17/1/5
f 16/7/12 20/8/2 19/6/2 15/5/12
f 22/3/14 18/4/13 17/2/5 21/1/6
f 20/7/2 24/8/1 23/6/1 19/5/2
f 26/3/15 22/4/14 21/2/6 25/1/9
f 24/7/1 28/8/7 27/6/7 23/5/1
f 30/3/16 26/4/15 25/2/9 29/1/12
f 28/7/7 32/8/10 31/6/10 27/5/7
f 4/3/4 30/4/16 29/2/12 2/1/2
f 32/7/10 7/8/5 5/6/5 31/5/10
f 5/11/17 6/12/17 1/10/17 2/9/17
f 8/15/18 7/16/18 4/14/18 3/13/18
f 6/12/17 11/18/17 9/17/17 1/10/17
f 35/18/18 36/15/18 34/13/18 33/17/18
f 11/18/17 15/15/17 13/13/17 9/17/17
f 16/12/18 12/18/18 10/17/18 14/10/18
f 15/15/17 19/16/17 17/14/17 13/13/17
f 39/11/18 40/12/18 38/10/18 37/9/18
f 19/16/17 23/20/17 21/19/17 17/14/17
f 24/22/18 20/11/18 18/9/18 22/21/18
f 23/20/17 27/24/17 25/23/17 21/19/17
f 43/24/18 44/22/18 42/21/18 41/23/18
f 27/24/17 31/22/17 29/21/17 25/23/17
f 32/20/18 28/24/18 26/23/18 30/19/18
f 31/22/17 5/11/17 2/9/17 29/21/17
f 47/16/18 48/20/18 46/19/18 45/14/18
f 41/25/19 42/26/19 22/4/14 26/3/15
f 43/29/2 41/30/2 26/28/2 28/27/2
f 42/33/10 44/34/10 24/32/10 22/31/10
f 44/35/20 43/36/20 28/8/20 24/7/20
f 37/25/21 38/26/21 14/4/11 18/3/13
f 39/29/9 37/30/9 18/28/9 20/27/9
f 38/39/1 40/40/1 16/38/1 14/37/1
f 40/35/22 39/36/22 20/8/22 16/7/22
f 33/25/20 34/26/20 3/4/3 10/3/8
f 35/29/5 33/30/5 10/28/5 12/27/5
f 34/39/12 36/40/12 8/38/12 3/37/12
f 36/35/19 35/36/19 12/8/19 8/7/19
f 45/25/22 46/26/22 30/4/16 4/3/4
f 47/29/7 45/30/7 4/28/7 7/27/7
f 46/39/6 48/34/6 32/32/6 30/37/6
f 48/35/21 47/36/21 7/8/21 32/7/21

