# ProBuilder 5.0.3
# https://unity3d.com/unity/features/worldbuilding/probuilder
# 1/17/2022 9:58:16 PM

mtllib ./FSR-SIII-Scope-3x.mtl
o FSR-SIII-Scope-3x

g FSR-SIII-Scope-3x
v 0.03905661 0.094291 0.25
v 0.03905661 0.09429094 -0.25
v 0.09429099 0.03905663 0.25
v 0.09429099 0.03905657 -0.25
v 0.09429098 -0.03905657 0.25
v 0.09429098 -0.03905663 -0.25
v 0.03905658 -0.09429094 0.25
v 0.03905658 -0.094291 -0.25
v 0.03905659 -0.119291 0.25
v 0.03905659 -0.119291 -0.25
v -0.03905663 -0.1192909 0.25
v -0.03905663 -0.119291 -0.25
v -0.03905662 -0.09429094 0.25
v -0.03905662 -0.094291 -0.25
v -0.09429098 -0.03905657 0.2500001
v -0.09429098 -0.03905663 -0.25
v -0.09429098 0.03905663 0.25
v -0.09429098 0.03905657 -0.25
v -0.03905661 0.094291 0.25
v -0.03905661 0.09429094 -0.25
v 0.02870128 0.06929094 -0.25
v 0 -2.980232E-08 -0.25
v 0.06929098 0.02870125 -0.2500001
v 0.06929097 -0.02870131 -0.2500001
v 0.02870125 -0.069291 -0.2500001
v -0.02870128 -0.069291 -0.25
v -0.06929098 -0.02870129 -0.25
v -0.06929097 0.02870123 -0.25
v -0.02870127 0.06929095 -0.25
v -0.02870131 0.06929106 0.3250001
v -0.06929103 0.02870134 0.3000001
v -0.0390567 0.09429115 0.3500002
v -0.09429104 0.03905669 0.3000001
v -0.06929097 0.02870123 -0.275
v -0.02870127 0.06929097 -0.275
v -0.09429098 0.03905657 -0.275
v -0.03905661 0.09429094 -0.275
v 0.02870125 0.06929106 0.3250001
v 0.03905658 0.09429115 0.3500002
v 0.02870128 0.06929094 -0.275
v 0.03905661 0.09429094 -0.275
v -0.06929098 -0.02870125 0.2750001
v -0.09429098 -0.03905657 0.275
v -0.06929098 -0.02870131 -0.275
v -0.09429098 -0.03905663 -0.275
v -0.02870128 -0.06929094 0.275
v -0.03905662 -0.09429094 0.275
v -0.02870128 -0.069291 -0.275
v -0.03905662 -0.094291 -0.275
v 0.02870125 -0.06929094 0.275
v 0.03905658 -0.09429094 0.275
v 0.02870125 -0.069291 -0.275
v 0.03905658 -0.094291 -0.275
v 0.06929097 -0.02870123 0.275
v 0.09429098 -0.03905657 0.275
v 0.06929097 -0.02870131 -0.275
v 0.09429098 -0.03905663 -0.2750001
v 0.06929097 0.02870136 0.3000001
v 0.09429099 0.0390567 0.3000001
v 0.06929098 0.02870125 -0.275
v 0.09429099 0.03905657 -0.275
v -0.06929097 0.02870131 0.2500001
v -0.06929098 -0.02870125 0.2500001
v -0.02870128 -0.06929094 0.25
v 0.02870125 -0.06929095 0.25
v 0.06929097 -0.02870123 0.25
v 0.06929098 0.02870129 0.25
v 0.02870128 0.069291 0.25
v -0.02870127 0.06929101 0.25
v 0.03464547 0.0143507 0.2600001
v 0.01435061 0.03464553 0.2600001
v -6.884068E-08 8.940697E-08 0.2650001
v 0.03464546 -0.01435056 0.2600001
v 0.01435059 -0.03464542 0.2600001
v -0.01435068 -0.03464544 0.2600001
v -0.03464554 -0.01435056 0.2600001
v -0.03464553 0.01435068 0.2600001
v -0.01435067 0.03464554 0.2600001

vt 0.5874999 0.9621134
vt 0.08749992 0.9621134
vt 0.5874999 0.9110835
vt 0.08749992 0.9110835
vt 0.5874999 0.8389164
vt 0.08749992 0.8389164
vt 0.5874999 0.7878864
vt 0.08749992 0.7878865
vt 0.75 0.5889164
vt 0.25 0.5889164
vt 0.75 0.6610836
vt 0.25 0.6610836
vt 0.1625001 0.7485834
vt 0.6625001 0.7485834
vt 0.1625001 0.6764163
vt 0.6625001 0.6764162
vt 0.2928931 0.9999998
vt 0.5 0.4999999
vt 0 0.7071068
vt 5.376299E-08 0.292893
vt 0.2928933 0
vt 0.7071069 0
vt 1 0.2928931
vt 1 0.7071066
vt 0.7071068 0.9999999
vt 0.8307501 0.3188111
vt 0.8787041 0.2980732
vt 0.8095833 0.2970551
vt 0.8788957 0.2709013
vt 0.875 0.55
vt 0.928033 0.571967
vt 0.875 0.5229402
vt 0.9471672 0.5528328
vt 0.8132045 0.3728559
vt 0.7857074 0.3705992
vt 0.95 0.625
vt 0.9770598 0.625
vt 0.9263471 0.3214512
vt 0.9414385 0.3015477
vt 0.821967 0.571967
vt 0.8028328 0.5528328
vt 0.9431418 0.3739115
vt 0.9642925 0.3729356
vt 0.8 0.625
vt 0.7729402 0.625
vt 0.9255962 0.4279563
vt 0.9404166 0.4464797
vt 0.821967 0.678033
vt 0.8028328 0.6971672
vt 0.8839885 0.4519269
vt 0.8837969 0.4790987
vt 0.875 0.7
vt 0.875 0.7270598
vt 0.8363454 0.4285489
vt 0.8212541 0.4484524
vt 0.928033 0.678033
vt 0.9471672 0.6971672
vt 0.25 0.5428866
vt 0.75 0.5428866
vt 0.25 0.5197896
vt 0.75 0.5197896
vt 0.7155114 0.2351627
vt 0.6856188 0.30733
vt 0.7386084 0.2447298
vt 0.7087157 0.316897
vt 0.5643812 0.3073299
vt 0.5344886 0.2351627
vt 0.5412843 0.3168969
vt 0.5113916 0.2447298
vt 0.25 0.4
vt 0.303033 0.4
vt 0.25 0.3499999
vt 0.303033 0.375
vt 0.6375 0.9110836
vt 0.6875001 0.9621135
vt 0.6125 0.8389163
vt 0.4204723 0.4250001
vt 0.4735053 0.4250001
vt 0.4204723 0.4000001
vt 0.4735053 0.4000001
vt 0.6124999 0.7878864
vt 0.5265383 0.4250001
vt 0.5265383 0.4000001
vt 0.5209587 0.208103
vt 0.5931259 0.208103
vt 0.5209587 0.183103
vt 0.5931259 0.183103
vt 0.4734617 0.4250001
vt 0.5264947 0.4250001
vt 0.4734617 0.4000001
vt 0.5264947 0.4000001
vt 0.5795277 0.4250001
vt 0.5795278 0.375
vt 0.321967 0.2875001
vt 0.375 0.2875001
vt 0.321967 0.2375
vt 0.375 0.2124999
vt 0.428033 0.2875001
vt 0.4280331 0.2124999
vt 0.06249988 0.7485835
vt 0.06249988 0.6764163
vt 0.196967 0.4
vt 0.196967 0.3249999
vt 0.1563218 0.475
vt 0.1032888 0.475
vt 0.1563218 0.5
vt 0.1032888 0.5
vt 0.06249994 0.8389164
vt 0.06249988 0.7878864
vt 0.06249994 0.9110835
vt 0.05025581 0.475
vt 0.05025581 0.5
vt 0.06249988 0.9621134
vt 0.1658888 0.475
vt 0.1128558 0.475
vt 0.1658888 0.5
vt 0.1128558 0.5
vt 0.6875001 0.6764162
vt 0.6875001 0.7485834
vt 0.05982281 0.475
vt 0.05982281 0.5
vt 0.2093114 0.5000001
vt 0.2093114 0.5250001
vt 0.1562784 0.5250001
vt 0.1032453 0.5250001
vt 0.04068864 0.475
vt 0.04068864 0.5
vt 0.05025588 0.5250001
vt 0.7499998 0.6035537
vt 0.6035532 0.7500001
vt 0.4999995 0.5000004
vt 0.7499998 0.3964469
vt 0.6035531 0.2500003
vt 0.3964463 0.2500001
vt 0.2499997 0.3964469
vt 0.2499997 0.6035535
vt 0.3964463 0.7500002
vt 0.2928932 1

vn 0.7071068 0.7071068 -8.429368E-08
vn 1 -9.538184E-08 1.13704E-14
vn 0.7071066 -0.7071069 8.429372E-08
vn -1.907636E-07 -1 5.960464E-08
vn -0.7071069 -0.7071067 8.429367E-08
vn -1 0 0
vn -0.7071068 0.7071068 -8.42937E-08
vn 0 1 -1.192093E-07
vn -5.191815E-07 2.150521E-07 -1
vn 0.1000755 -0.6825253 0.7239779
vn -0.08827472 -0.502324 0.8601617
vn -0.004791101 -0.6574696 0.7534658
vn -0.1203967 -0.4443582 0.887722
vn 0.02926152 -0.6362073 0.770963
vn -0.02400214 -0.7019146 0.7118565
vn -0.009691535 -0.1780022 0.9839824
vn 0.06351266 -0.1533355 0.986131
vn -1.569714E-07 -3.405298E-07 1
vn -0.08360828 -0.2018483 0.9758416
vn 0.07286446 -0.374938 0.9241819
vn 0.09340474 -0.4329168 0.8965816
vn 0.1803261 0.07469359 0.9807667
vn 0.07469457 0.1803256 0.9807668
vn 0.09860417 0.2380498 0.9662347
vn 0.2380502 0.0986035 0.9662347
vn 0.2380501 -0.09860358 0.9662347
vn 0.180326 -0.07469349 0.9807668
vn 0.09860417 -0.2380501 0.9662346
vn 0.07469449 -0.1803256 0.9807668
vn -0.09860352 -0.2380512 0.9662344
vn -0.07469242 -0.1803257 0.9807669
vn -0.1803256 -0.07469315 0.9807668
vn -0.2380505 -0.09860382 0.9662346
vn -0.1803257 0.07469337 0.9807668
vn -0.2380506 0.09860398 0.9662346
vn -0.07469252 0.1803258 0.9807668
vn -0.09860376 0.2380513 0.9662344

usemtl Lit
f 3/3/1 4/4/1 2/2/1 1/1/1
f 5/5/2 6/6/2 4/4/2 3/3/2
f 7/7/3 8/8/3 6/6/3 5/5/3
f 11/11/4 12/12/4 10/10/4 9/9/4
f 15/5/5 16/6/5 14/8/5 13/7/5
f 17/3/6 18/4/6 16/6/6 15/5/6
f 19/1/7 20/2/7 18/4/7 17/3/7
f 1/15/8 2/16/8 20/14/8 19/13/8
f 32/28/12 33/29/13 31/27/11 30/26/10
f 36/32/9 37/33/9 35/31/9 34/30/9
f 39/35/15 32/28/12 30/26/10 38/34/14
f 37/33/9 41/37/9 40/36/9 35/31/9
f 33/29/13 43/39/17 42/38/16 31/27/11
f 45/41/9 36/32/9 34/30/9 44/40/9
f 43/39/17 47/43/18 46/42/18 42/38/16
f 49/45/9 45/41/9 44/40/9 48/44/9
f 47/43/18 51/47/18 50/46/18 46/42/18
f 53/49/9 49/45/9 48/44/9 52/48/9
f 51/47/18 55/51/16 54/50/19 50/46/18
f 57/53/9 53/49/9 52/48/9 56/52/9
f 55/51/16 59/55/21 58/54/20 54/50/19
f 61/57/9 57/53/9 56/52/9 60/56/9
f 59/55/21 39/35/15 38/34/14 58/54/20
f 41/37/9 61/57/9 60/56/9 40/36/9
f 9/60/2 10/61/2 8/59/2 7/58/2
f 11/64/18 9/65/18 7/63/18 13/62/18
f 10/68/9 12/69/9 14/67/9 8/66/9
f 12/60/6 11/61/6 13/59/6 14/58/6
f 31/72/2 42/73/2 63/71/2 62/70/2
f 33/74/7 32/75/7 19/1/7 17/3/7
f 43/76/6 33/74/6 17/3/6 15/5/6
f 42/79/1 46/80/1 64/78/1 63/77/1
f 47/81/5 43/76/5 15/5/5 13/7/5
f 46/80/8 50/83/8 65/82/8 64/78/8
f 51/86/4 47/87/4 13/85/4 7/84/4
f 50/90/7 54/91/7 66/89/7 65/88/7
f 55/76/3 51/81/3 7/7/3 5/5/3
f 54/91/6 58/93/6 67/92/6 66/89/6
f 59/74/2 55/76/2 5/5/2 3/3/2
f 58/96/5 38/97/5 68/95/5 67/94/5
f 39/75/1 59/74/1 3/3/1 1/1/1
f 38/97/4 30/99/4 69/98/4 68/95/4
f 32/100/8 39/101/8 1/15/8 19/13/8
f 30/103/3 31/72/3 62/70/3 69/102/3
f 44/106/2 34/107/2 28/105/2 27/104/2
f 45/108/5 49/109/5 14/8/5 16/6/5
f 36/110/6 45/108/6 16/6/6 18/4/6
f 34/107/3 35/112/3 29/111/3 28/105/3
f 37/113/7 36/110/7 18/4/7 20/2/7
f 35/116/4 40/117/4 21/115/4 29/114/4
f 41/118/8 37/119/8 20/14/8 2/16/8
f 40/117/5 60/121/5 23/120/5 21/115/5
f 61/110/1 41/113/1 2/2/1 4/4/1
f 60/123/6 56/124/6 24/106/6 23/122/6
f 57/108/2 61/110/2 4/4/2 6/6/2
f 56/124/7 52/125/7 25/107/7 24/106/7
f 53/109/3 57/108/3 6/6/3 8/8/3
f 52/124/8 48/125/8 26/107/8 25/106/8
f 49/117/4 53/127/4 8/126/4 14/115/4
f 48/125/1 44/128/1 27/112/1 26/107/1

usemtl Glass-01
f 23/19/9 22/18/9 21/17/9
f 24/20/9 22/18/9 23/19/9
f 25/21/9 22/18/9 24/20/9
f 26/22/9 22/18/9 25/21/9
f 27/23/9 22/18/9 26/22/9
f 28/24/9 22/18/9 27/23/9
f 29/25/9 22/18/9 28/24/9
f 21/17/9 22/18/9 29/25/9
f 71/130/23 72/131/18 70/129/22
f 70/129/22 72/131/18 73/132/27
f 73/132/27 72/131/18 74/133/29
f 74/133/29 72/131/18 75/134/31
f 72/131/18 76/135/32 75/134/31
f 72/131/18 77/136/34 76/135/32
f 78/137/36 77/136/34 72/131/18
f 71/130/23 78/137/36 72/131/18
f 68/25/24 71/130/23 70/129/22
f 70/129/22 67/24/25 68/25/24
f 73/132/27 66/23/26 67/24/25
f 67/24/25 70/129/22 73/132/27
f 74/133/29 65/22/28 66/23/26
f 66/23/26 73/132/27 74/133/29
f 75/134/31 64/21/30 65/22/28
f 65/22/28 74/133/29 75/134/31
f 63/20/33 64/21/30 75/134/31
f 75/134/31 76/135/32 63/20/33
f 62/19/35 63/20/33 76/135/32
f 76/135/32 77/136/34 62/19/35
f 62/19/35 77/136/34 78/137/36
f 78/137/36 69/138/37 62/19/35
f 78/137/36 71/130/23 68/25/24
f 68/25/24 69/138/37 78/137/36

