# ProBuilder 5.0.3
# https://unity3d.com/unity/features/worldbuilding/probuilder
# 1/16/2022 8:54:37 PM

mtllib ./FSR-SIII-Magazine.mtl
o FSR-SIII-Magazine

g FSR-SIII-Magazine
v -0.02333333 -0.8693708 1.910199
v -0.02333334 -0.8693708 1.680199
v -0.02333329 -0.7693708 1.920199
v -0.0233333 -0.7693707 1.670199
v 0.02666667 -0.8793708 1.910199
v 0.02666666 -0.8793707 1.680199
v -0.02333333 -0.8793708 1.910199
v -0.02333334 -0.8793707 1.680199
v 0.02666671 -0.7693708 1.920199
v 0.02666667 -0.8693708 1.910199
v 0.02666666 -0.8693708 1.680199
v 0.0266667 -0.7693707 1.670199
v 0.03727327 -0.8693708 1.920806
v 0.03727326 -0.8693708 1.669593
v 0.03727327 -0.8793708 1.920806
v 0.03727326 -0.8793707 1.669593
v -0.03393993 -0.8693708 1.920806
v -0.03393993 -0.8793708 1.920806
v -0.03393994 -0.8693708 1.669593
v -0.03393994 -0.8793707 1.669593
v 0.02666675 -0.2811865 1.751805
v -0.02333325 -0.2811865 1.751805
v -0.01666658 -0.2811865 1.751805
v 0.02000008 -0.2811865 1.751805
v 0.02666674 -0.2811865 1.501805
v 0.02000008 -0.2811865 1.501805
v -0.01666659 -0.2811865 1.501804
v -0.02333326 -0.2811865 1.501805
v 0.02666675 -0.2811865 1.668471
v 0.02666675 -0.2811865 1.585138
v -0.02333325 -0.2811865 1.585138
v -0.02333325 -0.2811865 1.668471
v -0.01666659 -0.6569133 1.633766
v 0.02000008 -0.6569133 1.633766
v 0.02000008 -0.6569133 1.717099
v 0.02000008 -0.6569133 1.800432
v 0.02000008 -0.6569133 1.883766
v -0.01666658 -0.6569133 1.883766
v -0.01666659 -0.6569133 1.800432
v -0.01666659 -0.6569133 1.717099
v -0.01666659 -0.2711865 1.668471
v -0.01666658 -0.2711865 1.751805
v -0.02333325 -0.2711865 1.751805
v -0.02333325 -0.2711865 1.668471
v 0.02666677 -0.2711865 1.668471
v 0.02666675 -0.2711865 1.751805
v 0.02000008 -0.2711865 1.751805
v 0.0200001 -0.2711865 1.668471
v -0.02333326 -0.2211865 1.501805
v -0.01666659 -0.2211865 1.501804
v -0.01666659 -0.2211865 1.585138
v -0.02333325 -0.2211865 1.585138
v 0.0200001 -0.2211865 1.585138
v 0.02666677 -0.2211865 1.585138
v 0.02000008 -0.2211865 1.501805
v 0.02666674 -0.2211865 1.501805
v -0.01666659 -0.2811865 1.585138
v 0.02000008 -0.2811865 1.585138
v -0.01666659 -0.2811865 1.668471
v 0.02000008 -0.2811865 1.668471

vt 0.4261059 0.1809078
vt 0.6561059 0.1809079
vt 0.4161059 0.2809079
vt 0.6661059 0.2809079
vt 0.1282592 0.51766
vt 0.1282592 0.28766
vt 0.07825924 0.51766
vt 0.07825924 0.28766
vt 0.1282593 0.3870534
vt 0.1282592 0.2870534
vt 0.07825929 0.3870534
vt 0.07825924 0.2870534
vt 0.4154992 0.1809082
vt 0.6667125 0.1809083
vt 0.4154992 0.1709082
vt 0.6667125 0.1709083
vt 0.06765264 0.2870534
vt 0.1388658 0.2870534
vt 0.06765264 0.2770534
vt 0.1388658 0.2770534
vt 0.07825924 0.4554482
vt 0.1282592 0.4554482
vt 0.06765264 0.4448415
vt 0.1388659 0.4448415
vt 0.1388659 0.5282667
vt 0.1282592 0.6854482
vt 0.1388658 0.6960549
vt 0.06765264 0.5282667
vt 0.07825924 0.6854482
vt 0.06765264 0.6960549
vt 0.1282593 0.8752376
vt 0.07825932 0.8752376
vt 0.08492599 0.8752376
vt 0.1215927 0.8752376
vt 0.8345006 0.769092
vt 0.5845006 0.769092
vt 0.6678339 0.769092
vt 0.7511673 0.769092
vt 0.1215925 0.4090145
vt 0.08492583 0.4090146
vt 0.08492583 0.4923479
vt 0.08492583 0.5756813
vt 0.08492583 0.6590146
vt 0.1215925 0.6590146
vt 0.1215925 0.5756813
vt 0.1215925 0.4923479
vt 0.1215925 0.4437203
vt 0.1215925 0.5270535
vt 0.1282592 0.5270535
vt 0.1282592 0.4437203
vt 0.07825914 0.4437201
vt 0.07825916 0.5270535
vt 0.08492583 0.5270535
vt 0.08492582 0.4437203
vt 0.1282592 0.2770535
vt 0.1215925 0.2770534
vt 0.1215925 0.3603868
vt 0.1282592 0.3603868
vt 0.08492582 0.3603868
vt 0.07825914 0.3603868
vt 0.08492583 0.2770535
vt 0.07825917 0.2770535
vt 0.4033207 0.8752378
vt 0.4866541 0.8752378
vt 0.2713596 0.4995109
vt 0.354693 0.4995109
vt 0.08492598 0.4995109
vt 0.1215927 0.4995109
vt 0.06765264 0.8752378
vt 0.1509859 0.8752378
vt 0.1996137 0.4995109
vt 0.282947 0.4995109
vt 0.3199872 0.8752378
vt 0.1880261 0.4995109
vt 0.2343194 0.8752378
vt 0.3662805 0.4995109
vt 0.236654 0.8752376
vt 0.1046929 0.4995109
vt 0.3176526 0.8752376
vt 0.4496137 0.4995109
vt 0.2343194 0.8852378
vt 0.1509859 0.9352377
vt 0.6678339 0.779092
vt 0.5845006 0.779092
vt 0.1282593 0.8852376
vt 0.1215927 0.8852376
vt 0.3176526 0.8852376
vt 0.7511673 0.8290919
vt 0.06765264 0.9352377
vt 0.08492583 0.9352377
vt 0.07825916 0.9352377
vt 0.8345006 0.8290919
vt 0.1282592 0.9352377
vt 0.1215925 0.9352377
vt 0.3199872 0.8852378
vt 0.236654 0.8852376
vt 0.08492599 0.8852376
vt 0.07825932 0.8852376
vt 0.4033207 0.9352377
vt 0.4866541 0.9352377

vn -1 4.065425E-07 3.239393E-08
vn 0 -1 -2.591506E-07
vn 0 -0.09950361 0.9950373
vn 0 -0.09950361 -0.9950373
vn 1 -4.127621E-07 -2.980242E-08
vn 0 0 1
vn 0 0 -1
vn 0 1 0
vn 0 0.3260863 0.94534
vn 1.024485E-06 -0.3260864 -0.9453399
vn 0 0.8574933 0.5144953
vn -3.067473E-06 0.331372 0.9435002
vn 0 -0.331372 -0.9435002

usemtl Lit
f 22/36/1 4/4/1 3/3/1
f 32/37/1 4/4/1 22/36/1
f 32/37/1 31/38/1 4/4/1
f 4/4/1 31/38/1 28/35/1
f 24/34/9 9/9/9 21/31/9
f 24/34/9 23/33/9 9/9/9
f 9/9/9 23/33/9 3/11/9
f 23/33/9 22/32/9 3/11/9
f 27/34/10 4/9/10 28/31/10
f 12/11/10 4/9/10 27/34/10
f 12/11/10 27/34/10 26/33/10
f 12/11/10 26/33/10 25/32/10
f 12/4/5 25/35/5 30/38/5
f 12/4/5 30/38/5 29/37/5
f 12/4/5 29/37/5 21/36/5
f 9/3/5 12/4/5 21/36/5
f 33/39/8 40/46/8 34/40/8
f 40/46/8 35/41/8 34/40/8
f 35/41/8 40/46/8 39/45/8
f 36/42/8 35/41/8 39/45/8
f 38/44/8 36/42/8 39/45/8
f 37/43/8 36/42/8 38/44/8
f 4/4/1 2/2/1 1/1/1
f 1/1/1 3/3/1 4/4/1
f 8/8/2 6/6/2 5/5/2
f 5/5/2 7/7/2 8/8/2
f 1/12/3 10/10/3 9/9/3
f 9/9/3 3/11/3 1/12/3
f 4/9/4 12/11/4 11/12/4
f 11/12/4 2/10/4 4/9/4
f 10/1/5 11/2/5 12/4/5
f 12/4/5 9/3/5 10/1/5
f 16/16/5 14/14/5 13/13/5
f 13/13/5 15/15/5 16/16/5
f 15/20/6 13/18/6 17/17/6
f 17/17/6 18/19/6 15/20/6
f 20/20/7 19/18/7 14/17/7
f 14/17/7 16/19/7 20/20/7
f 18/15/1 17/13/1 19/14/1
f 19/14/1 20/16/1 18/15/1
f 19/24/8 2/22/8 11/21/8
f 11/21/8 14/23/8 19/24/8
f 15/25/2 5/5/2 6/6/2
f 6/6/2 16/20/2 15/25/2
f 16/20/2 6/6/2 8/8/2
f 8/8/2 20/19/2 16/20/2
f 17/27/8 1/26/8 2/22/8
f 2/22/8 19/24/8 17/27/8
f 20/19/2 8/8/2 7/7/2
f 7/7/2 18/28/2 20/19/2
f 13/30/8 10/29/8 1/26/8
f 1/26/8 17/27/8 13/30/8
f 18/28/2 7/7/2 5/5/2
f 5/5/2 15/25/2 18/28/2
f 14/23/8 11/21/8 10/29/8
f 10/29/8 13/30/8 14/23/8
f 42/48/8 41/47/8 44/50/8
f 44/50/8 43/49/8 42/48/8
f 46/52/8 45/51/8 48/54/8
f 48/54/8 47/53/8 46/52/8
f 51/57/8 50/56/8 49/55/8
f 49/55/8 52/58/8 51/57/8
f 51/57/11 52/58/11 44/50/11
f 44/50/11 41/47/11 51/57/11
f 48/54/11 45/51/11 54/60/11
f 54/60/11 53/59/11 48/54/11
f 56/62/8 55/61/8 53/59/8
f 53/59/8 54/60/8 56/62/8
f 33/66/5 27/64/5 57/63/5
f 57/63/5 40/65/5 33/66/5
f 34/68/12 26/34/12 27/33/12
f 27/33/12 33/67/12 34/68/12
f 35/72/1 58/70/1 26/69/1
f 26/69/1 34/71/1 35/72/1
f 40/65/5 57/63/5 59/73/5
f 59/73/5 39/74/5 40/65/5
f 36/76/1 60/75/1 58/70/1
f 58/70/1 35/72/1 36/76/1
f 39/74/5 59/73/5 23/77/5
f 23/77/5 38/78/5 39/74/5
f 37/80/1 24/79/1 60/75/1
f 60/75/1 36/76/1 37/80/1
f 38/68/13 23/34/13 24/33/13
f 24/33/13 37/67/13 38/68/13
f 53/82/1 58/70/1 60/75/1
f 60/75/1 48/81/1 53/82/1
f 46/84/5 21/36/5 29/37/5
f 29/37/5 45/83/5 46/84/5
f 47/86/6 24/34/6 21/31/6
f 21/31/6 46/85/6 47/86/6
f 48/81/1 60/75/1 24/79/1
f 24/79/1 47/87/1 48/81/1
f 45/83/5 29/37/5 30/38/5
f 30/38/5 54/88/5 45/83/5
f 55/89/1 26/69/1 58/70/1
f 58/70/1 53/82/1 55/89/1
f 56/91/7 25/32/7 26/33/7
f 26/33/7 55/90/7 56/91/7
f 54/88/5 30/38/5 25/35/5
f 25/35/5 56/92/5 54/88/5
f 50/94/7 27/34/7 28/31/7
f 28/31/7 49/93/7 50/94/7
f 44/83/1 32/37/1 22/36/1
f 22/36/1 43/84/1 44/83/1
f 42/96/5 23/77/5 59/73/5
f 59/73/5 41/95/5 42/96/5
f 43/98/6 22/32/6 23/33/6
f 23/33/6 42/97/6 43/98/6
f 52/88/1 31/38/1 32/37/1
f 32/37/1 44/83/1 52/88/1
f 49/92/1 28/35/1 31/38/1
f 31/38/1 52/88/1 49/92/1
f 41/95/5 59/73/5 57/63/5
f 57/63/5 51/99/5 41/95/5
f 51/99/5 57/63/5 27/64/5
f 27/64/5 50/100/5 51/99/5

