# ProBuilder 5.0.3
# https://unity3d.com/unity/features/worldbuilding/probuilder
# 1/17/2022 12:57:57 AM

mtllib ./FSR-SIII-Buttstock.mtl
o FSR-SIII-Buttstock

g FSR-SIII-Buttstock
v 0.08333337 0.1999997 4.300001
v 0.08333333 0.05 4.300001
v -0.08333329 0.1999997 4.300001
v -0.08333334 0.05 4.300001
v 0.08333333 -0.35 4.300001
v -0.08333334 -0.35 4.300001
v 0.1186887 -0.1353553 2.05
v -0.1186887 -0.1353553 2.05
v 0.1186887 -0.3853554 2.75
v -0.1186887 -0.3853554 2.75
v 0.1483333 0.05 2.05
v 0.1483333 0.05 3.05
v -0.1483333 0.05 2.05
v -0.1483333 0.05 3.05
v 0.1436887 0.2353553 3.05
v 0.1436887 0.2353553 3.55
v 0.1483333 0.05 3.55
v -0.1436887 0.2353553 3.05
v -0.1483333 0.05 3.55
v -0.1436887 0.2353553 3.55
v 0.1186887 -0.4853553 3.55
v -0.1186887 -0.4853553 3.55
v -0.08333333 0.2 2.1
v -0.08333334 0.05 2.1
v 0.08333333 0.05 2.1
v 0.08333333 0.2 2.1
v -0.08333334 -0.09999999 2.1
v 0.08333333 -0.09999999 2.1
v -0.08333334 0.05 2.05
v -0.08333333 0.2 2.05
v -0.1436887 0.2353553 2.05
v -0.08333334 -0.35 4.350001
v 0.08333333 -0.35 4.350001
v -0.1186887 -0.4853553 4.350001
v 0.1186887 -0.4853553 4.350001
v -0.08333329 0.1999997 4.350001
v -0.08333334 0.05 4.350001
v -0.1436891 0.235355 4.350001
v -0.1483333 0.05 4.350001
v 0.08333333 0.2 2.05
v 0.08333333 0.05 2.05
v 0.1436887 0.2353553 2.05
v 0.08333333 0.05 4.350001
v 0.08333337 0.1999997 4.350001
v 0.1483333 0.05 4.350001
v 0.1436887 0.235355 4.350001
v 0.08333333 -0.09999999 2.05
v -0.08333334 -0.09999999 2.05
v 0.03956289 0.2603553 2.05
v -0.03956288 0.2603553 2.05
v -0.03956286 0.260355 4.350001
v 0.03956342 0.260355 4.350001
v 0.03957812 0.3304541 3.05
v 0.1187188 0.3054506 3.05
v 0.1187188 0.2654507 3.55
v 0.03957812 0.2904541 3.55
v -0.1187188 0.2654507 3.55
v -0.1187188 0.3054506 3.05
v -0.03957813 0.3304541 3.05
v -0.03957813 0.2904541 3.55
v -0.1436887 0.2353553 2.25
v 0.1436887 0.2353553 2.25
v 0.03956289 0.2603553 2.25
v 0.1187188 0.3054506 2.25
v 0.03957813 0.3304541 2.25
v -0.1187188 0.3054506 2.25
v -0.03957813 0.3304541 2.25
v -0.03956289 0.2603553 2.25
v 0.03957887 0.2904541 4.350001
v -0.03957813 0.2904541 4.350001
v -0.1187203 0.2654507 4.350001
v 0.1187188 0.2654507 4.350001

vt 0.9166667 0.6487252
vt 0.9166666 0.5737253
vt 0.8333334 0.6487252
vt 0.8333333 0.5737253
vt 0.9166666 0.3737254
vt 0.8333333 0.3737254
vt 0.06048319 0.09092343
vt 0.06048319 0.1590766
vt 0.2579416 0.09092337
vt 0.2579416 0.1590766
vt 0.9758413 0.8895751
vt 0.9758413 0.8331919
vt 0.6633415 0.8895751
vt 0.7570913 0.7555578
vt 0.9759614 0.8336688
vt 0.9758912 0.88926
vt 0.7572177 0.7569063
vt 0.6633415 0.947319
vt 0.5070914 0.947319
vt 0.5070914 0.8895751
vt 0.4758246 0.09092337
vt 0.4758246 0.1590766
vt 0.5070914 0.7245041
vt 0.5072249 0.726404
vt 0.7424103 0.4777694
vt 0.7424103 0.4027694
vt 0.659077 0.4027694
vt 0.659077 0.4777694
vt 0.7424103 0.3277695
vt 0.659077 0.3277695
vt 0.7424103 0.5977753
vt 0.7424103 0.6727753
vt 0.7749103 0.5977753
vt 0.772588 0.690453
vt 0.8156556 0.3060477
vt 0.9343443 0.3060477
vt 0.8031554 0.6664028
vt 0.8008333 0.5737253
vt 0.6590769 0.6727753
vt 0.6590769 0.5977753
vt 0.6288993 0.690453
vt 0.626577 0.5977753
vt 0.9491667 0.5737253
vt 0.9468443 0.6664028
vt 0.6590769 0.5227754
vt 0.6413993 0.5050977
vt 0.7424103 0.5227754
vt 0.760088 0.5050977
vt 0.2296722 0.5375
vt 0.2296722 0.4625
vt 0.2046721 0.5375
vt 0.2046721 0.4625
vt 0.2296722 0.3875
vt 0.2046721 0.3875
vt 0.2046721 0.4999999
vt 0.2046721 0.5749999
vt 0.2296722 0.4999999
vt 0.2296722 0.5749999
vt 0.1604167 0.846151
vt 0.07708336 0.846151
vt 0.1604167 0.8711511
vt 0.07708336 0.8711511
vt 0.2046721 0.425
vt 0.2296722 0.425
vt 0.1729166 0.846151
vt 0.08958335 0.846151
vt 0.1729166 0.8711511
vt 0.08958335 0.8711511
vt 0.6809621 0.702953
vt 0.7205251 0.702953
vt 0.8552186 0.6789027
vt 0.8947817 0.6789027
vt 0.431428 0.2603196
vt 0.4316099 0.2809542
vt 0.5685714 0.2809542
vt 0.5683895 0.2603195
vt 0.5685714 0.2190462
vt 0.4316099 0.2190462
vt 0.431428 0.2396808
vt 0.5683895 0.2396808
vt 0.9759023 0.9466144
vt 0.913404 0.9466923
vt 0.9758413 0.947319
vt 0.9133413 0.947319
vt 0.8557652 0.07499993
vt 0.805141 0.07499993
vt 0.805141 0.1750001
vt 0.8557652 0.1750001
vt 0.2129374 0.2809542
vt 0.2127555 0.2603196
vt 0.2129374 0.2190462
vt 0.2127555 0.2396808
vt 0.9448591 0.1750001
vt 0.9448591 0.07499993
vt 0.8942349 0.07499993
vt 0.8942349 0.1750001
vt 0.6634704 0.9698873
vt 0.9134631 0.9695755
vt 0.1640165 0.2262253
vt 0.1119536 0.2387253
vt 0.1515315 0.2612729
vt 0.1119612 0.2737746
vt 0.8947895 0.6939523
vt 0.855211 0.6939523
vt 0.07239071 0.2387253
vt 0.07238309 0.2737746
vt 0.6633415 0.9700771
vt 0.5070914 0.9576557
vt 0.02032782 0.2262253
vt 0.03281277 0.2612729
vt 0.9133413 0.9700771
vt 0.8156399 0.6814506
vt 0.9343594 0.6814506
vt 0.2572317 0.7267157
vt 0.2571616 0.8901563
vt 0.257091 0.8895751
vt 0.257091 0.7245041
vt 0.7872444 0.2190458
vt 0.7870626 0.2396808
vt 0.7870626 0.2603198
vt 0.257091 0.9576557
vt 0.257091 0.9473189
vt 0.6895167 0.09092337
vt 0.6895167 0.1590766
vt 0.7872444 0.2809542
vt 0.2571725 0.9475105
vt 0.2572316 0.9580681
vt 0.08333334 0.6375
vt 0.1666667 0.6375
vt 0.08333334 0.6125
vt 0.1666667 0.6125
vt 0.5767677 0.3176032
vt 0.1767681 0.3176032
vt 0.5767677 0.3676034
vt 0.1767681 0.3676034
vt 0.3017678 0.6426032
vt 0.4517674 0.6426032
vt 0.3017678 0.592603
vt 0.4517674 0.592603

vn 0 0 1
vn 0 -0.9417419 -0.3363363
vn 0.9874508 -0.1579272 0
vn 0.9928858 -0.1062401 -0.009741601
vn 0.9983208 -0.05455298 -0.0194832
vn -0.9858839 -0.1576766 -0.05631305
vn -0.9917868 -0.1128061 -0.02815652
vn -0.9976897 -0.06793571 0
vn 0.9831869 0.1826021 0
vn 0.9996862 0.02505029 0
vn 0.9512153 0.3084554 0.006694729
vn -0.9996862 0.02505037 0
vn -0.974586 0.2239871 0.003444014
vn -0.9363123 0.3511686 -1.265689E-07
vn 0 -0.9922779 -0.1240347
vn 0.9976897 -0.06793572 0
vn 0.9980682 -0.06161176 -0.003455487
vn 0.9984466 -0.05528779 -0.006910974
vn -0.99801 -0.06256812 -0.007821015
vn -0.9982402 -0.05892861 -0.003910508
vn -0.9984704 -0.0552891 0
vn 0 0 -1
vn 1 -4.967054E-08 0
vn -1 0 0
vn 0 -1 0
vn 0 1 0
vn 0.1523026 0.9875466 0.03944159
vn 0.6603109 0.7504718 0.02795699
vn 0.5579059 0.8292426 0.03313214
vn -0.5920625 0.8055408 0.02378974
vn -0.6941336 0.7192722 0.02873864
vn -0.1523026 0.9875466 0.03944158
vn -0.9831869 0.1826021 0
vn 0.2334596 0.9723666 2.174258E-09
vn 0.6941934 0.7197885 0
vn 0.1524102 0.9883173 7.097156E-10
vn -0.6941935 0.7197884 -7.832932E-10
vn -0.1524102 0.9883173 -1.419431E-09
vn -0.2334595 0.9723666 0
vn 0.9984704 -0.05528912 0
vn -0.5581242 0.8297574 -9.022925E-07
vn 0.5581167 0.8297625 5.761506E-08
vn 0.9363129 0.3511667 1.097416E-07

usemtl Lit
f 11/11/10 42/83/10 62/84/9
f 11/11/10 62/84/9 12/13/10
f 15/18/9 12/13/10 62/84/9
f 61/82/33 14/13/12 18/18/13
f 14/13/12 61/82/33 13/16/12
f 61/82/33 31/81/12 13/16/12
f 50/70/22 30/32/22 31/34/22
f 40/39/22 30/32/22 50/70/22
f 40/39/22 50/70/22 49/69/22
f 42/41/22 40/39/22 49/69/22
f 52/72/1 44/1/1 46/44/1
f 52/72/1 36/3/1 44/1/1
f 51/71/1 36/3/1 52/72/1
f 38/37/1 36/3/1 51/71/1
f 4/4/1 2/2/1 1/1/1
f 1/1/1 3/3/1 4/4/1
f 4/4/1 6/6/1 5/5/1
f 5/5/1 2/2/1 4/4/1
f 10/10/2 8/8/2 7/7/2
f 7/7/2 9/9/2 10/10/2
f 9/14/5 7/12/4 11/11/3
f 11/11/3 12/13/4 9/14/5
f 14/13/8 13/16/7 8/15/6
f 8/15/6 10/17/7 14/13/8
f 17/20/10 12/13/10 15/18/9
f 15/18/9 16/19/11 17/20/10
f 20/19/14 18/18/13 14/13/12
f 14/13/12 19/20/12 20/19/14
f 22/22/15 10/10/15 9/9/15
f 9/9/15 21/21/15 22/22/15
f 21/23/18 9/14/17 12/13/16
f 12/13/16 17/20/17 21/23/18
f 19/20/21 14/13/20 10/17/19
f 10/17/19 22/24/20 19/20/21
f 25/27/22 24/26/22 23/25/22
f 23/25/22 26/28/22 25/27/22
f 24/26/22 25/27/22 28/30/22
f 28/30/22 27/29/22 24/26/22
f 31/34/22 30/32/22 29/31/22
f 29/31/22 13/33/22 31/34/22
f 35/36/1 33/5/1 32/6/1
f 32/6/1 34/35/1 35/36/1
f 39/38/1 37/4/1 36/3/1
f 36/3/1 38/37/1 39/38/1
f 11/42/22 41/40/22 40/39/22
f 40/39/22 42/41/22 11/42/22
f 46/44/1 44/1/1 43/2/1
f 43/2/1 45/43/1 46/44/1
f 7/46/22 47/45/22 41/40/22
f 41/40/22 11/42/22 7/46/22
f 45/43/1 43/2/1 33/5/1
f 33/5/1 35/36/1 45/43/1
f 8/48/22 48/47/22 47/45/22
f 47/45/22 7/46/22 8/48/22
f 13/33/22 29/31/22 48/47/22
f 48/47/22 8/48/22 13/33/22
f 34/35/1 32/6/1 37/4/1
f 37/4/1 39/38/1 34/35/1
f 24/52/23 29/50/23 30/49/23
f 30/49/23 23/51/23 24/52/23
f 27/54/23 48/53/23 29/50/23
f 29/50/23 24/52/23 27/54/23
f 26/58/24 40/56/24 41/55/24
f 41/55/24 25/57/24 26/58/24
f 23/62/25 30/60/25 40/59/25
f 40/59/25 26/61/25 23/62/25
f 25/57/24 41/55/24 47/63/24
f 47/63/24 28/64/24 25/57/24
f 28/68/26 47/66/26 48/65/26
f 48/65/26 27/67/26 28/68/26
f 55/75/29 54/74/28 53/73/27
f 53/73/27 56/76/27 55/75/29
f 59/79/32 58/78/31 57/77/30
f 57/77/30 60/80/32 59/79/32
f 56/76/27 53/73/27 59/79/32
f 59/79/32 60/80/32 56/76/27
f 62/87/34 42/86/34 49/85/34
f 49/85/34 63/88/34 62/87/34
f 54/74/28 64/89/35 65/90/36
f 65/90/36 53/73/27 54/74/28
f 67/92/38 66/91/37 58/78/31
f 58/78/31 59/79/32 67/92/38
f 50/95/39 31/94/39 61/93/39
f 61/93/39 68/96/39 50/95/39
f 65/90/36 67/92/38 59/79/32
f 59/79/32 53/73/27 65/90/36
f 49/85/26 50/95/26 68/96/26
f 68/96/26 63/88/26 49/85/26
f 66/98/37 61/82/33 18/18/13
f 18/18/13 58/97/31 66/98/37
f 67/102/22 68/100/22 61/99/22
f 61/99/22 66/101/22 67/102/22
f 70/104/1 51/71/1 52/72/1
f 52/72/1 69/103/1 70/104/1
f 65/106/22 63/105/22 68/100/22
f 68/100/22 67/102/22 65/106/22
f 55/108/29 16/19/11 15/18/9
f 15/18/9 54/107/28 55/108/29
f 64/110/22 62/109/22 63/105/22
f 63/105/22 65/106/22 64/110/22
f 54/107/28 15/18/9 62/84/9
f 62/84/9 64/111/35 54/107/28
f 71/112/1 38/37/1 51/71/1
f 51/71/1 70/104/1 71/112/1
f 69/103/1 52/72/1 46/44/1
f 46/44/1 72/113/1 69/103/1
f 58/97/31 18/18/13 20/19/14
f 20/19/14 57/108/30 58/97/31
f 39/115/21 19/20/21 22/24/21
f 22/24/21 34/114/21 39/115/21
f 35/117/40 21/23/40 17/20/40
f 17/20/40 45/116/40 35/117/40
f 70/119/38 60/80/32 57/77/30
f 57/77/30 71/118/41 70/119/38
f 69/120/36 56/76/27 60/80/32
f 60/80/32 70/119/38 69/120/36
f 46/122/43 16/19/11 55/108/29
f 55/108/29 72/121/42 46/122/43
f 34/124/25 22/22/25 21/21/25
f 21/21/25 35/123/25 34/124/25
f 72/125/42 55/75/29 56/76/27
f 56/76/27 69/120/36 72/125/42
f 45/116/10 17/20/10 16/19/11
f 16/19/11 46/122/43 45/116/10
f 71/127/41 57/108/30 20/19/14
f 20/19/14 38/126/14 71/127/41
f 38/126/14 20/19/14 19/20/12
f 19/20/12 39/115/12 38/126/14
f 6/131/26 32/129/26 33/128/26
f 33/128/26 5/130/26 6/131/26
f 5/135/24 33/133/24 43/132/24
f 43/132/24 2/134/24 5/135/24
f 4/132/23 37/134/23 32/135/23
f 32/135/23 6/133/23 4/132/23
f 3/139/23 36/137/23 37/136/23
f 37/136/23 4/138/23 3/139/23
f 2/136/24 43/138/24 44/139/24
f 44/139/24 1/137/24 2/136/24
f 1/131/25 44/129/25 36/128/25
f 36/128/25 3/130/25 1/131/25

