# ProBuilder 5.0.6
# https://unity3d.com/unity/features/worldbuilding/probuilder
# 11/15/2022 10:23:22 PM

mtllib ./Battery-Type-0.mtl
o Battery-Type-0

g Battery-Type-0
v 0.2 -0.5 0.25
v -0.2 -0.5 0.25
v 0.2 0.5 0.25
v -0.2 0.5 0.25
v -0.25 -0.5 0.2
v -0.25 -0.5 -0.2
v -0.25 0.5 0.2
v -0.25 0.5 -0.2
v -0.2 -0.5 -0.25
v 0.2 -0.5 -0.25
v -0.2 0.5 -0.25
v 0.2 0.5 -0.25
v 0.25 -0.5 -0.2
v 0.25 -0.5 0.2
v 0.25 0.5 -0.2
v 0.25 0.5 0.2
v 0.175 0.7499999 0.175
v -0.175 0.7499999 0.175
v 0.175 0.7499999 -0.175
v -0.175 0.7499999 -0.175
v 0.175 -0.75 -0.175
v -0.175 -0.75 -0.175
v 0.175 -0.75 0.175
v -0.175 -0.75 0.175
v 0.325 -0.525 -0.35
v -0.325 -0.525 -0.35
v 0.325 -0.75 -0.35
v -0.325 -0.75 -0.35
v 0.35 -0.525 0.325
v 0.35 -0.525 -0.325
v 0.35 -0.75 0.325
v 0.35 -0.75 -0.325
v -0.35 -0.525 -0.325
v -0.35 -0.525 0.325
v -0.35 -0.75 -0.325
v -0.35 -0.75 0.325
v -0.325 -0.525 0.35
v 0.325 -0.525 0.35
v -0.325 -0.75 0.35
v 0.325 -0.75 0.35
v 0.325 0.525 0.35
v -0.325 0.525 0.35
v 0.325 0.75 0.35
v -0.325 0.75 0.35
v 0.35 0.525 -0.325
v 0.35 0.525 0.325
v 0.35 0.75 -0.325
v 0.35 0.75 0.325
v -0.35 0.525 0.325
v -0.35 0.525 -0.325
v -0.35 0.75 0.325
v -0.35 0.75 -0.325
v -0.325 0.525 -0.35
v 0.325 0.525 -0.35
v -0.325 0.75 -0.35
v 0.325 0.75 -0.35
v 0.2989949 0.5 0.3277818
v 0.2989949 -0.5 0.3277818
v 0.3277817 0.5 0.298995
v 0.3277817 -0.5 0.298995
v -0.298995 -0.5 0.3277817
v -0.298995 0.5 0.3277817
v -0.3277818 -0.5 0.2989949
v -0.3277818 0.5 0.2989949
v -0.3277817 -0.5 -0.298995
v -0.3277817 0.5 -0.298995
v -0.2989949 -0.5 -0.3277818
v -0.2989949 0.5 -0.3277818
v 0.2989949 -0.5 -0.3277818
v 0.2989949 0.5 -0.3277818
v 0.3277817 -0.5 -0.298995
v 0.3277817 0.5 -0.298995
v -0.2853553 0.5 0.2853553
v -0.3323223 0.5 0.3323223
v 0.3323223 0.5 0.3323223
v 0.2853553 0.5 0.2853553
v 0.3323223 0.5 -0.3323223
v 0.2853553 0.5 -0.2853553
v 0.2853553 -0.5 0.2853553
v 0.3323223 -0.5 0.3323223
v -0.3323223 -0.5 0.3323223
v -0.2853553 -0.5 0.2853553
v 0.2853553 -0.5 -0.2853553
v 0.3323223 -0.5 -0.3323223
v -0.3323223 -0.5 -0.3323223
v -0.2853553 -0.5 -0.2853553
v -0.2853553 0.5 -0.2853553
v -0.3323223 0.5 -0.3323223
v 0.25 -0.8 -0.25
v -0.25 -0.8 -0.25
v 0.175 -0.8 -0.175
v -0.175 -0.8 -0.175
v 0.25 -0.8 0.25
v 0.175 -0.8 0.175
v -0.25 -0.8 0.25
v -0.175 -0.8 0.175
v 0.25 0.7999999 0.25
v -0.25 0.7999999 0.25
v 0.175 0.7999999 0.175
v -0.175 0.7999999 0.175
v 0.25 0.7999999 -0.25
v 0.175 0.7999999 -0.175
v -0.25 0.7999999 -0.25
v -0.175 0.7999999 -0.175
v -0.3375 0.5073223 0.3375
v -0.3375 0.5073223 -0.3375
v 0.3375 0.5073223 -0.3375
v -0.3333333 0.7583333 0.3333333
v -0.3333333 0.7583333 -0.3333333
v 0.3333333 0.7583333 -0.3333333
v 0.3375 0.5073223 0.3375
v 0.3333333 0.7583333 0.3333333
v -0.3375 -0.5073223 0.3375
v 0.3375 -0.5073223 0.3375
v -0.3375 -0.5073223 -0.3375
v -0.3333333 -0.7583333 -0.3333333
v -0.3333333 -0.7583333 0.3333333
v 0.3333333 -0.7583333 0.3333333
v 0.3375 -0.5073223 -0.3375
v 0.3333333 -0.7583333 -0.3333333
v -0.2777818 0.5 0.3277817
v -0.2777818 -0.5 0.3277817
v -0.3277817 -0.5 0.2777818
v -0.3277817 0.5 0.2777818
v -0.3277817 0.5 -0.2777818
v -0.3277817 -0.5 -0.2777818
v -0.2777818 -0.5 -0.3277817
v -0.2777818 0.5 -0.3277817
v 0.2777818 0.5 -0.3277817
v 0.2777818 -0.5 -0.3277817
v 0.3277817 -0.5 -0.2777818
v 0.3277817 0.5 -0.2777818
v 0.2777818 -0.5 0.3277817
v 0.2777818 0.5 0.3277817
v 0.3277817 0.5 0.2777818
v 0.3277817 -0.5 0.2777818

vt 0.8618749 0.55
vt 0.7418749 0.55
vt 0.8618749 0.85
vt 0.7418749 0.85
vt 0.7475 0.4525
vt 0.8525 0.4525
vt 0.7475 0.3475
vt 0.8525 0.3475
vt 0.7005 0.5337501
vt 0.8955 0.5337501
vt 0.7005 0.4662499
vt 0.8955 0.4662499
vt 0.700625 0.5337501
vt 0.700625 0.46625
vt 0.899375 0.8662501
vt 0.704375 0.8662501
vt 0.899375 0.9337501
vt 0.704375 0.9337501
vt 0.8995 0.8662501
vt 0.8995 0.9337501
vt 0.5896984 0.85
vt 0.5896984 0.55
vt 0.5983346 0.85
vt 0.5983346 0.55
vt 0.4103015 0.55
vt 0.4103015 0.85
vt 0.4016654 0.55
vt 0.4016654 0.85
vt 0.1399999 0.775
vt 0.1143933 0.7856066
vt 0.1003032 0.7996967
vt 0.2996966 0.7996967
vt 0.2856065 0.7856066
vt 0.2599999 0.775
vt 0.2749999 0.76
vt 0.2996966 0.6003032
vt 0.2856065 0.6143934
vt 0.2749999 0.64
vt 0.1400259 0.7751881
vt 0.2600259 0.7751467
vt 0.1249792 0.6398919
vt 0.1143637 0.6142318
vt 0.1002688 0.6001151
vt 0.1250207 0.7601598
vt 0.2750207 0.760108
vt 0.1249999 0.76
vt 0.259974 0.6248118
vt 0.139974 0.6248532
vt 0.8750001 0.125
vt 0.7249999 0.125
vt 0.8525001 0.1475
vt 0.7474999 0.1475
vt 0.8750001 0.275
vt 0.8525001 0.2525
vt 0.7249999 0.275
vt 0.7474999 0.2525
vt 0.725 0.275
vt 0.7475001 0.2525
vt 0.8525002 0.2525
vt 0.725 0.125
vt 0.7475001 0.1475
vt 0.4456134 0.5075
vt 0.5506134 0.5075
vt 0.4456134 0.4925
vt 0.5506134 0.4925
vt 0.9067276 0.8676517
vt 0.9067276 0.9351517
vt 0.8992276 0.8676517
vt 0.8992276 0.9351517
vt 0.7042275 0.8676517
vt 0.7042275 0.9351517
vt 0.6967275 0.8676517
vt 0.6967275 0.9351517
vt 0.6930346 0.5323483
vt 0.6930346 0.4648483
vt 0.7005346 0.5323483
vt 0.7005346 0.4648483
vt 0.8955347 0.5323483
vt 0.8955347 0.4648483
vt 0.9030347 0.5323483
vt 0.9030347 0.4648483
vt 0.09499994 0.7975
vt 0.09874994 0.80125
vt 0.09874994 0.5987499
vt 0.09499994 0.6025
vt 0.1024999 0.595
vt 0.3012499 0.5987499
vt 0.2974999 0.595
vt 0.9000002 0.3
vt 0.9050002 0.2975
vt 0.9050002 0.1025
vt 0.9000002 0.1
vt 0.8975002 0.09500004
vt 0.7025 0.09500004
vt 0.7 0.1
vt 0.2974999 0.805
vt 0.3012499 0.80125
vt 0.1024999 0.805
vt 0.7 0.3
vt 0.7025 0.305
vt 0.8975002 0.305
vt 0.2975363 0.8052007
vt 0.09878499 0.8015109
vt 0.1025363 0.805268
vt 0.3049662 0.602246
vt 0.3012149 0.5984889
vt 0.3050336 0.7976813
vt 0.6999999 0.1000001
vt 0.6949999 0.1025001
vt 0.6949999 0.2975
vt 0.6999999 0.3
vt 0.7024999 0.305
vt 0.7024999 0.09500005
vt 0.09503369 0.7977539
vt 0.6950001 0.1025
vt 0.6950001 0.2975
vt 0.3049999 0.7975
vt 0.9029776 0.8623483
vt 0.9017276 0.9376518
vt 0.7004775 0.8623483
vt 0.7017276 0.9376518
vt 0.6967847 0.5376517
vt 0.6980347 0.4623483
vt 0.8992847 0.5376517
vt 0.8980347 0.4623483
vt 0.4249999 0.45
vt 0.4249999 0.15
vt 0.4016653 0.45
vt 0.4016653 0.15
vt 0.575 0.15
vt 0.575 0.45
vt 0.5983346 0.15
vt 0.5983346 0.45
vt 0.1065509 0.45
vt 0.1065509 0.15
vt 0.1129149 0.45
vt 0.1129149 0.15
vt 0.2859485 0.15
vt 0.2859485 0.45
vt 0.2795845 0.15
vt 0.2795845 0.45

vn 0 0 1
vn -1 0 0
vn 0 0 -1
vn 1 0 0
vn 0 1 0
vn 0 -1 0
vn 0.7071068 0 0.7071068
vn -0.7071068 0 0.7071068
vn -0.7071068 0 -0.7071068
vn 0.7071068 0 -0.7071068
vn -0.8164964 -0.5773504 4.724354E-07
vn -7.086531E-07 -0.5773504 -0.8164965
vn -0.4472129 0.8944275 -5.331237E-08
vn 5.331237E-08 0.8944275 -0.4472129
vn 4.724354E-07 -0.5773504 0.8164964
vn -5.331237E-08 0.8944275 0.4472129
vn -7.086531E-07 0.5773504 0.8164965
vn -0.8164965 0.5773504 -7.086531E-07
vn -0.4472135 -0.8944273 -3.731842E-07
vn -3.731842E-07 -0.8944273 0.4472135
vn 4.724354E-07 0.5773504 -0.8164964
vn 2.487895E-07 -0.8944272 -0.4472136
vn 0.4472136 -0.8944272 2.487895E-07
vn 0.8164964 0.5773504 4.724354E-07
vn 0.4472129 0.8944275 5.331237E-08
vn 0.8164965 -0.5773504 -7.086531E-07
vn -0.5773496 0.5773517 -0.5773496
vn -0.5773496 0.5773517 0.5773496
vn -0.5773496 -0.5773517 0.5773496
vn -0.5773496 -0.5773517 -0.5773496
vn 0.5773496 -0.5773517 -0.5773496
vn 0.5773496 -0.5773517 0.5773496
vn 0.5773496 0.5773517 0.5773496
vn 0.5773496 0.5773517 -0.5773496

usemtl Battery-Type-0
f 3/34/6 75/32/6 74/31/6
f 3/34/6 76/33/6 75/32/6
f 74/31/6 4/29/6 3/34/6
f 74/31/6 73/30/6 4/29/6
f 16/35/6 75/32/6 76/33/6
f 77/36/6 75/32/6 16/35/6
f 77/36/6 16/35/6 15/38/6
f 15/38/6 78/37/6 77/36/6
f 2/40/5 82/33/5 81/32/5
f 1/39/5 2/40/5 81/32/5
f 80/31/5 79/30/5 1/39/5
f 81/32/5 80/31/5 1/39/5
f 84/43/5 83/42/5 13/41/5
f 13/41/5 14/44/5 84/43/5
f 14/44/5 80/31/5 84/43/5
f 79/30/5 80/31/5 14/44/5
f 86/37/5 85/36/5 6/38/5
f 85/36/5 5/45/5 6/38/5
f 81/32/5 5/45/5 85/36/5
f 81/32/5 82/33/5 5/45/5
f 7/46/6 73/30/6 74/31/6
f 88/43/6 7/46/6 74/31/6
f 8/41/6 7/46/6 88/43/6
f 8/41/6 88/43/6 87/42/6
f 86/37/5 9/47/5 85/36/5
f 85/36/5 9/47/5 10/48/5
f 84/43/5 85/36/5 10/48/5
f 10/48/5 83/42/5 84/43/5
f 77/36/6 78/37/6 12/47/6
f 12/47/6 88/43/6 77/36/6
f 12/47/6 11/48/6 88/43/6
f 88/43/6 11/48/6 87/42/6
f 49/82/11 74/31/11 105/83/11
f 74/31/11 49/82/11 88/43/11
f 49/82/11 50/85/11 88/43/11
f 106/84/11 88/43/11 50/85/11
f 53/86/12 88/43/12 106/84/12
f 88/43/12 53/86/12 54/88/12
f 88/43/12 54/88/12 77/36/12
f 107/87/12 77/36/12 54/88/12
f 52/91/13 103/49/13 109/92/13
f 51/90/13 103/49/13 52/91/13
f 103/49/13 51/90/13 98/53/13
f 108/89/13 98/53/13 51/90/13
f 103/49/14 55/93/14 109/92/14
f 103/49/14 101/60/14 55/93/14
f 101/60/14 56/94/14 55/93/14
f 110/95/14 56/94/14 101/60/14
f 41/96/15 75/32/15 111/97/15
f 75/32/15 41/96/15 74/31/15
f 41/96/15 42/98/15 74/31/15
f 105/83/15 74/31/15 42/98/15
f 44/101/16 98/53/16 108/89/16
f 44/101/16 43/100/16 98/53/16
f 43/100/16 97/57/16 98/53/16
f 43/100/16 112/99/16 97/57/16
f 80/31/17 38/104/17 114/103/17
f 80/31/17 81/32/17 38/104/17
f 81/32/17 37/102/17 38/104/17
f 81/32/17 113/97/17 37/102/17
f 81/32/18 34/107/18 113/97/18
f 81/32/18 85/36/18 34/107/18
f 85/36/18 33/105/18 34/107/18
f 85/36/18 115/106/18 33/105/18
f 36/110/19 95/55/19 117/111/19
f 36/110/19 35/109/19 95/55/19
f 90/50/19 95/55/19 35/109/19
f 116/108/19 90/50/19 35/109/19
f 93/53/20 118/89/20 40/101/20
f 39/112/20 93/53/20 40/101/20
f 39/112/20 95/55/20 93/53/20
f 117/111/20 95/55/20 39/112/20
f 26/88/21 115/106/21 85/36/21
f 25/86/21 26/88/21 85/36/21
f 25/86/21 85/36/21 84/43/21
f 119/84/21 25/86/21 84/43/21
f 89/49/22 27/93/22 120/92/22
f 28/113/22 27/93/22 89/49/22
f 28/113/22 89/49/22 90/50/22
f 116/108/22 28/113/22 90/50/22
f 93/53/23 31/90/23 118/89/23
f 93/53/23 32/91/23 31/90/23
f 89/49/23 32/91/23 93/53/23
f 89/49/23 120/92/23 32/91/23
f 30/85/24 119/84/24 84/43/24
f 29/114/24 30/85/24 84/43/24
f 29/114/24 84/43/24 80/31/24
f 114/103/24 29/114/24 80/31/24
f 47/115/25 110/95/25 101/60/25
f 97/57/25 47/115/25 101/60/25
f 48/116/25 47/115/25 97/57/25
f 112/99/25 48/116/25 97/57/25
f 45/105/26 77/36/26 107/87/26
f 77/36/26 45/105/26 46/117/26
f 77/36/26 46/117/26 75/32/26
f 111/97/26 75/32/26 46/117/26
f 50/66/9 53/68/9 106/118/9
f 109/119/27 55/69/27 52/67/27
f 42/70/8 49/72/8 105/120/8
f 108/121/28 51/73/28 44/71/28
f 34/74/8 37/76/8 113/122/8
f 117/123/29 39/77/29 36/75/29
f 26/78/9 33/80/9 115/124/9
f 116/125/30 35/81/30 28/79/30
f 27/77/31 32/75/31 120/123/31
f 119/122/10 30/74/10 25/76/10
f 31/81/32 40/79/32 118/125/32
f 114/124/7 38/78/7 29/80/7
f 43/69/33 48/67/33 112/119/33
f 111/118/7 46/66/7 41/68/7
f 47/73/34 56/71/34 110/121/34
f 107/120/10 54/70/10 45/72/10
f 4/4/1 2/2/1 1/1/1
f 1/1/1 3/3/1 4/4/1
f 8/4/2 6/2/2 5/1/2
f 5/1/2 7/3/2 8/4/2
f 12/4/3 10/2/3 9/1/3
f 9/1/3 11/3/3 12/4/3
f 16/4/4 14/2/4 13/1/4
f 13/1/4 15/3/4 16/4/4
f 20/8/5 18/6/5 17/5/5
f 17/5/5 19/7/5 20/8/5
f 24/5/6 22/7/6 21/8/6
f 21/8/6 23/6/6 24/5/6
f 28/12/3 26/10/3 25/9/3
f 25/9/3 27/11/3 28/12/3
f 32/12/4 30/10/4 29/13/4
f 29/13/4 31/14/4 32/12/4
f 36/12/2 34/10/2 33/13/2
f 33/13/2 35/14/2 36/12/2
f 40/12/1 38/10/1 37/9/1
f 37/9/1 39/11/1 40/12/1
f 44/18/1 42/16/1 41/15/1
f 41/15/1 43/17/1 44/18/1
f 48/18/4 46/16/4 45/19/4
f 45/19/4 47/20/4 48/18/4
f 52/18/2 50/16/2 49/19/2
f 49/19/2 51/20/2 52/18/2
f 56/18/3 54/16/3 53/15/3
f 53/15/3 55/17/3 56/18/3
f 59/23/7 57/21/7 58/22/7
f 58/22/7 60/24/7 59/23/7
f 63/27/8 61/25/8 62/26/8
f 62/26/8 64/28/8 63/27/8
f 67/22/9 65/24/9 66/23/9
f 66/23/9 68/21/9 67/22/9
f 71/27/10 69/25/10 70/26/10
f 70/26/10 72/28/10 71/27/10
f 92/52/6 90/50/6 89/49/6
f 89/49/6 91/51/6 92/52/6
f 91/51/6 89/49/6 93/53/6
f 93/53/6 94/54/6 91/51/6
f 96/56/6 95/55/6 90/50/6
f 90/50/6 92/52/6 96/56/6
f 94/54/6 93/53/6 95/55/6
f 95/55/6 96/56/6 94/54/6
f 100/59/5 98/53/5 97/57/5
f 97/57/5 99/58/5 100/59/5
f 99/58/5 97/57/5 101/60/5
f 101/60/5 102/61/5 99/58/5
f 104/51/5 103/49/5 98/53/5
f 98/53/5 100/59/5 104/51/5
f 102/61/5 101/60/5 103/49/5
f 103/49/5 104/51/5 102/61/5
f 18/65/3 100/63/3 99/62/3
f 99/62/3 17/64/3 18/65/3
f 17/65/2 99/63/2 102/62/2
f 102/62/2 19/64/2 17/65/2
f 20/65/4 104/63/4 100/62/4
f 100/62/4 18/64/4 20/65/4
f 19/65/1 102/63/1 104/62/1
f 104/62/1 20/64/1 19/65/1
f 22/62/1 92/64/1 91/65/1
f 91/65/1 21/63/1 22/62/1
f 21/62/2 91/64/2 94/65/2
f 94/65/2 23/63/2 21/62/2
f 24/62/4 96/64/4 92/65/4
f 92/65/4 22/63/4 24/62/4
f 23/62/3 94/64/3 96/65/3
f 96/65/3 24/63/3 23/62/3
f 53/68/9 50/66/9 52/67/9
f 52/67/9 55/69/9 53/68/9
f 49/72/8 42/70/8 44/71/8
f 44/71/8 51/73/8 49/72/8
f 37/76/8 34/74/8 36/75/8
f 36/75/8 39/77/8 37/76/8
f 33/80/9 26/78/9 28/79/9
f 28/79/9 35/81/9 33/80/9
f 32/75/10 27/77/10 25/76/10
f 25/76/10 30/74/10 32/75/10
f 40/79/7 31/81/7 29/80/7
f 29/80/7 38/78/7 40/79/7
f 48/67/7 43/69/7 41/68/7
f 41/68/7 46/66/7 48/67/7
f 56/71/10 47/73/10 45/72/10
f 45/72/10 54/70/10 56/71/10
f 122/129/7 2/127/7 4/126/7
f 4/126/7 121/128/7 122/129/7
f 124/133/9 7/131/9 5/130/9
f 5/130/9 123/132/9 124/133/9
f 126/129/8 6/127/8 8/126/8
f 8/126/8 125/128/8 126/129/8
f 128/133/10 11/131/10 9/130/10
f 9/130/10 127/132/10 128/133/10
f 130/129/9 10/127/9 12/126/9
f 12/126/9 129/128/9 130/129/9
f 132/133/7 15/131/7 13/130/7
f 13/130/7 131/132/7 132/133/7
f 134/133/8 3/131/8 1/130/8
f 1/130/8 133/132/8 134/133/8
f 136/129/10 14/127/10 16/126/10
f 16/126/10 135/128/10 136/129/10
f 129/136/3 70/134/3 69/135/3
f 69/135/3 130/137/3 129/136/3
f 131/140/4 71/138/4 72/139/4
f 72/139/4 132/141/4 131/140/4
f 127/140/3 67/138/3 68/139/3
f 68/139/3 128/141/3 127/140/3
f 125/136/2 66/134/2 65/135/2
f 65/135/2 126/137/2 125/136/2
f 123/140/2 63/138/2 64/139/2
f 64/139/2 124/141/2 123/140/2
f 121/136/1 62/134/1 61/135/1
f 61/135/1 122/137/1 121/136/1
f 133/140/1 58/138/1 57/139/1
f 57/139/1 134/141/1 133/140/1
f 135/136/4 59/134/4 60/135/4
f 60/135/4 136/137/4 135/136/4

