# ProBuilder 5.0.6
# https://unity3d.com/unity/features/worldbuilding/probuilder
# 11/16/2022 5:49:30 PM

mtllib ./Battery-Type-0-Debris-Panel-2.mtl
o Battery-Type-0-Debris-Panel-2

g Battery-Type-0-Debris-Panel-2
v 0 0.5 0.1
v 0 0.5 0
v 0.04999971 0.2499999 0
v 0.0999999 0.2499999 0.09999999
v 0 0 0
v 0 0 0.1
v 0 0 0.2
v 0 0.25 0.2
v 0 -0.25 0.1
v 0 -0.25 0.2
v -0.04999971 -0.25 0
v 0 -0.5 0
v 0 -0.5 0.1
v 0 -0.5 0.2
v -0.0999999 0 -0.09999999
v -0.0999999 -0.25 -0.09999999
v 0 0 -0.2
v 0 -0.25 -0.2
v 0 -0.5 -0.1
v 0 0.5 -0.1
v 0 0.5 -0.2
v 0 0.25 -0.2
v 0 0.25 -0.1
v 0 0.5 0.2
v 0 -0.5 -0.2

vt 0.7718758 0.8499521
vt 0.801875 0.8499463
vt 0.801766 0.7745717
vt 0.7716579 0.7741761
vt 0.801875 0.7
vt 0.7718758 0.7000058
vt 0.7418766 0.7000117
vt 0.7418766 0.7749848
vt 0.7718758 0.6250327
vt 0.7418766 0.6250385
vt 0.801984 0.6254283
vt 0.801875 0.5500537
vt 0.7718758 0.5500596
vt 0.7418766 0.5500654
vt 0.832092 0.700797
vt 0.832092 0.6258239
vt 0.8618734 0.6999883
vt 0.8618734 0.6250152
vt 0.8318742 0.5500479
vt 0.8318742 0.8499404
vt 0.8618734 0.8499346
vt 0.8618734 0.7749615
vt 0.8318742 0.7749673
vt 0.7418766 0.8499579
vt 0.8618734 0.5500421
vt 0.741875 0.7

vn 0.9113662 0.2664876 -0.2105387
vn 0.9805809 0.196115 0
vn 0.8421515 0.3368602 -0.4210773
vn 0.8804504 -0.1760891 -0.4402269
vn 0.9044636 -0.2737398 -0.2201135
vn 0.9284768 -0.3713904 0
vn 0.8402071 -0.1360827 0.3402068
vn 1 0 0
vn 0.6804141 -0.2721654 0.6804136
vn 0.9375046 -0.09805753 -0.2236058
vn 0.9805809 -0.1961151 0
vn 0.8944283 0 -0.4472115
vn 0.880452 0.1760894 -0.4402235
vn 0.940226 0.0880447 -0.2201117
vn 0.7937788 -0.08804454 -0.5736667
vn 0.7071071 0 -0.7071065
vn 0.7071071 0 0.7071064
vn 0.7711467 -0.2384441 -0.560607
vn 0.7001404 -0.1400273 -0.7001398
vn 0.8421528 -0.3368608 -0.4210742
vn 0.6804143 0.2721654 0.6804134
vn -1 0 0

usemtl Battery-Type-0-Debris
f 8/8/8 1/1/8 24/24/8
f 8/8/21 4/4/21 1/1/21
f 3/3/13 23/23/13 2/2/13
f 23/23/8 20/20/8 2/2/8
f 19/19/21 18/18/21 16/16/21
f 19/19/8 25/25/8 18/18/8
f 1/20/22 8/22/22 24/21/22
f 1/20/22 2/2/22 8/22/22
f 13/19/22 14/25/22 10/18/22
f 12/12/22 13/19/22 10/18/22
f 18/10/22 25/14/22 19/13/22
f 18/10/22 19/13/22 12/12/22
f 12/12/22 10/18/22 18/10/22
f 10/18/22 17/26/22 18/10/22
f 17/26/22 10/18/22 7/17/22
f 22/8/22 17/26/22 7/17/22
f 22/8/22 7/17/22 8/22/22
f 8/22/22 2/2/22 22/8/22
f 22/8/22 2/2/22 20/1/22
f 20/1/22 21/24/22 22/8/22
f 3/3/1 2/2/2 1/1/1
f 1/1/1 4/4/3 3/3/1
f 5/5/5 3/3/4 4/4/5
f 4/4/5 6/6/6 5/5/5
f 6/6/7 4/4/9 8/8/7
f 8/8/7 7/7/8 6/6/7
f 9/9/8 6/6/8 7/7/8
f 7/7/8 10/10/8 9/9/8
f 11/11/10 5/5/11 6/6/10
f 6/6/10 9/9/12 11/11/10
f 12/12/14 11/11/13 9/9/14
f 9/9/14 13/13/8 12/12/14
f 13/13/8 9/9/8 10/10/8
f 10/10/8 14/14/8 13/13/8
f 16/16/15 15/15/16 5/5/15
f 5/5/15 11/11/4 16/16/15
f 18/18/17 17/17/17 15/15/17
f 15/15/17 16/16/17 18/18/17
f 19/19/1 16/16/3 11/11/1
f 11/11/1 12/12/2 19/19/1
f 22/22/8 21/21/8 20/20/8
f 20/20/8 23/23/8 22/22/8
f 17/17/7 22/22/8 23/23/7
f 23/23/7 15/15/9 17/17/7
f 15/15/18 23/23/20 3/3/18
f 3/3/18 5/5/19 15/15/18

