# ProBuilder 5.0.6
# https://unity3d.com/unity/features/worldbuilding/probuilder
# 12/18/2022 11:15:55 PM

mtllib ./Energy-Collector-Type-Omega-Solar-Panel-Main-Pillar.mtl
o Energy-Collector-Type-Omega-Solar-Panel-Main-Pillar

g Energy-Collector-Type-Omega-Solar-Panel-Main-Pillar
v -0.125 -0.125 0
v -0.125 0.02500007 4.796311E-08
v -0.0625 -0.125 0.1082532
v -0.0625 0.02500006 0.1082532
v 0.06250001 -0.125 0.1082532
v 0.06250003 0.02500005 0.1082532
v 0.125 -0.125 -1.092785E-08
v 0.125 0.02500004 3.72529E-08
v 0.06249999 -0.125 -0.1082532
v 0.06250001 0.02500005 -0.1082531
v -0.06249999 -0.125 -0.1082532
v -0.06249999 0.02500006 -0.1082531
v 0 -0.125 0
v -0.1250006 3.775003 -1.85892E-06
v -4.359323E-07 3.775003 -1.85892E-06
v -0.06250052 3.775003 0.1082513
v 0.06249966 3.775003 0.1082513
v 0.1249997 3.775003 -1.86963E-06
v 0.06249965 3.775003 -0.1082551
v -0.06250051 3.775003 -0.1082551
v -0.06250008 0.5250006 -0.1082535
v 0.06249999 0.5250006 -0.1082535
v -0.1250001 0.5250006 -3.091991E-07
v 0.125 0.5250006 -3.199093E-07
v 0.0625 0.5250006 0.1082529
v -0.06250009 0.5250006 0.1082529
v -0.06250034 2.525002 -0.1082545
v 0.06249977 2.525002 -0.1082545
v -0.1250004 2.525002 -1.262873E-06
v 0.1249998 2.525002 -1.273584E-06
v 0.06249978 2.525002 0.1082519
v -0.06250034 2.525002 0.1082519
v -0.06250034 2.525002 -0.2082545
v 0.06249977 2.525002 -0.2082545
v -0.06250038 2.775002 -0.2082546
v 0.06249975 2.775002 -0.2082546
v -0.1250005 2.775002 -1.382083E-06
v -0.06250038 2.775002 -0.1082546
v 0.06249975 2.775002 -0.1082546
v 0.1249998 2.775002 -1.392793E-06
v 0.06249976 2.775002 0.1082518
v 0.06249978 2.525002 0.2082519
v -0.06250034 2.525002 0.2082519
v 0.06249977 2.775002 0.2082518
v -0.06250038 2.775002 0.2082518
v -0.06250039 2.775002 0.1082518

vt -0.0625 -0.125
vt -0.06249997 0.02500009
vt 0.06250001 -0.125
vt 0.06250005 0.02500009
vt 0.0625 -0.125
vt -0.06250004 0.02500008
vt 0.06249998 0.02500007
vt -0.06250001 -0.125
vt -0.06249999 -0.125
vt 0.06249999 -0.125
vt 0.06250001 -0.125
vt -0.125 0
vt 0 0
vt -0.0625 0.1082532
vt 0.1250006 -1.85892E-06
vt 0.06250052 0.1082513
vt -0.1249997 -1.86963E-06
vt 0.06249999 -0.1082532
vt -0.06249965 -0.1082551
vt 0.06250051 -0.1082551
vt 0.06250008 0.5250006
vt -0.06249999 0.5250006
vt 0.06249982 0.5250007
vt -0.06250022 0.5250006
vt 0.0625 0.025
vt 0.06250002 0.02499997
vt -0.0625 0.02499998
vt 0.06250034 2.525002
vt -0.06249977 2.525002
vt 0.06249914 2.525002
vt -0.06250091 2.525002
vt 0.06250038 2.775002
vt -0.06249975 2.775002
vt 0.06249908 2.775002
vt -0.06250098 2.775002
vt 0.06250051 3.775003
vt -0.06249965 3.775003
vt 0.06249875 3.775003
vt -0.06250131 3.775003
vt 0.06249978 0.1082519
vt -0.06250034 0.1082519
vt 0.06249978 0.2082519
vt -0.06250034 0.2082519
vt -0.1082518 2.775002
vt -0.1082519 2.525002
vt -0.2082518 2.775002
vt -0.2082519 2.525002
vt 0.1082519 2.525002
vt 0.1082518 2.775002
vt 0.2082519 2.525002
vt 0.2082518 2.775002
vt 0.06250038 0.2082518
vt -0.06249977 0.2082518
vt -0.06250034 -0.1082545
vt -0.06250034 -0.2082545
vt 0.06249977 -0.2082545
vt -0.06249975 -0.2082546
vt 0.06250038 -0.2082546

vn -1 -8.077891E-08 -6.882552E-08
vn -0.4999999 -3.21914E-07 0.8660254
vn 0.5000001 -3.756173E-07 0.8660254
vn 1 -2.612475E-07 -6.882551E-08
vn 0.4999999 1.372653E-07 -0.8660254
vn -0.5 2.580956E-07 -0.8660254
vn 0 -1 0
vn 0 1 0
vn -8.704139E-14 -7.301561E-07 -1
vn -0.8660253 -5.636382E-07 -0.5000001
vn 0.8660253 -3.199115E-07 -0.5000002
vn 0.8660253 3.571618E-07 0.5
vn 5.960472E-08 7.003538E-07 1
vn -0.8660253 1.888673E-07 0.5

usemtl Metal041A
f 1/12/7 13/13/7 3/14/7
f 3/14/7 13/13/7 5/16/7
f 5/16/7 13/13/7 7/15/7
f 7/15/7 13/13/7 9/18/7
f 9/18/7 13/13/7 11/19/7
f 11/19/7 13/13/7 1/12/7
f 16/16/8 15/13/8 14/15/8
f 17/14/8 15/13/8 16/16/8
f 18/17/8 15/13/8 17/14/8
f 19/19/8 15/13/8 18/17/8
f 20/20/8 15/13/8 19/19/8
f 14/15/8 15/13/8 20/20/8
f 4/4/2 2/2/1 1/1/1
f 1/1/1 3/3/2 4/4/2
f 6/4/3 4/2/2 3/1/2
f 3/1/2 5/5/3 6/4/3
f 8/7/4 6/6/3 5/1/3
f 5/1/3 7/5/4 8/7/4
f 10/7/5 8/6/4 7/8/4
f 7/8/4 9/5/5 10/7/5
f 12/7/6 10/6/5 9/9/5
f 9/9/5 11/10/6 12/7/6
f 2/4/1 12/2/6 11/9/6
f 11/9/6 1/11/1 2/4/1
f 22/22/9 10/6/9 12/7/9
f 12/7/9 21/21/9 22/22/9
f 21/24/10 12/2/10 2/4/10
f 2/4/10 23/23/10 21/24/10
f 24/22/11 8/6/11 10/7/11
f 10/7/11 22/21/11 24/22/11
f 25/22/12 6/6/12 8/25/12
f 8/25/12 24/21/12 25/22/12
f 26/24/13 4/27/13 6/26/13
f 6/26/13 25/23/13 26/24/13
f 23/24/14 2/2/14 4/4/14
f 4/4/14 26/23/14 23/24/14
f 28/29/9 22/22/9 21/21/9
f 21/21/9 27/28/9 28/29/9
f 27/31/10 21/24/10 23/23/10
f 23/23/10 29/30/10 27/31/10
f 30/29/11 24/22/11 22/21/11
f 22/21/11 28/28/11 30/29/11
f 31/29/12 25/22/12 24/21/12
f 24/21/12 30/28/12 31/29/12
f 32/31/13 26/24/13 25/23/13
f 25/23/13 31/30/13 32/31/13
f 29/31/14 23/24/14 26/23/14
f 26/23/14 32/30/14 29/31/14
f 36/33/9 34/29/9 33/28/9
f 33/28/9 35/32/9 36/33/9
f 38/35/10 27/31/10 29/30/10
f 29/30/10 37/34/10 38/35/10
f 40/33/11 30/29/11 28/28/11
f 28/28/11 39/32/11 40/33/11
f 41/33/12 31/29/12 30/28/12
f 30/28/12 40/32/12 41/33/12
f 45/35/13 43/31/13 42/30/13
f 42/30/13 44/34/13 45/35/13
f 37/35/14 29/31/14 32/30/14
f 32/30/14 46/34/14 37/35/14
f 19/37/9 39/33/9 38/32/9
f 38/32/9 20/36/9 19/37/9
f 20/39/10 38/35/10 37/34/10
f 37/34/10 14/38/10 20/39/10
f 18/37/11 40/33/11 39/32/11
f 39/32/11 19/36/11 18/37/11
f 17/37/12 41/33/12 40/32/12
f 40/32/12 18/36/12 17/37/12
f 16/39/13 46/35/13 41/34/13
f 41/34/13 17/38/13 16/39/13
f 14/39/14 37/35/14 46/34/14
f 46/34/14 16/38/14 14/39/14
f 43/43/7 32/41/7 31/40/7
f 31/40/7 42/42/7 43/43/7
f 42/47/4 31/45/4 41/44/4
f 41/44/4 44/46/4 42/47/4
f 45/51/1 46/49/1 32/48/1
f 32/48/1 43/50/1 45/51/1
f 44/53/8 41/14/8 46/16/8
f 46/16/8 45/52/8 44/53/8
f 34/56/7 28/18/7 27/54/7
f 27/54/7 33/55/7 34/56/7
f 33/47/1 27/45/1 38/44/1
f 38/44/1 35/46/1 33/47/1
f 36/51/4 39/49/4 28/48/4
f 28/48/4 34/50/4 36/51/4
f 35/58/8 38/20/8 39/19/8
f 39/19/8 36/57/8 35/58/8

