# ProBuilder 5.0.6
# https://unity3d.com/unity/features/worldbuilding/probuilder
# 12/17/2022 11:38:56 PM

mtllib ./Energy-Collector-Type-Omega-Ring.mtl
o Energy-Collector-Type-Omega-Ring

g Energy-Collector-Type-Omega-Ring
v -2.926604 0.1 0.4756194
v -2.965 0.1 0
v -2.45282 0.1 0.398622
v -2.485 0.1 0
v -2.812411 0.1 0.9389206
v -2.357113 0.1 0.78692
v -2.625377 0.1 1.377904
v -2.200358 0.1 1.154837
v -2.370348 0.1 1.781201
v -1.986615 0.1 1.492844
v -2.053928 0.1 2.138365
v -1.72142 0.1 1.792188
v -1.684312 0.1 2.440147
v -1.411641 0.1 2.045115
v -1.271073 0.1 2.67873
v -1.065301 0.1 2.245074
v -0.8249148 0.1 2.847936
v -0.6913704 0.1 2.386888
v -0.3573916 0.1 2.943382
v -0.299534 0.1 2.466882
v 0.1193885 0.1 2.962595
v 0.1000608 0.1 2.482985
v 0.5930761 0.1 2.905079
v 0.4970638 0.1 2.43478
v 1.051404 0.1 2.772323
v 0.8811933 0.1 2.323515
v 1.4825 0.1 2.567765
v 1.2425 0.1 2.152073
v 1.875201 0.1 2.296704
v 1.571627 0.1 1.924893
v 2.219334 0.1 1.966159
v 1.860049 0.1 1.64786
v 2.505989 0.1 1.584691
v 2.100297 0.1 1.328147
v 2.727739 0.1 1.162181
v 2.286149 0.1 0.9740371
v 2.878842 0.1 0.7095717
v 2.41279 0.1 0.5947
v 2.955385 0.1 0.2385834
v 2.476942 0.1 0.1999595
v 2.955385 0.1 -0.2385833
v 2.476942 0.1 -0.1999593
v 2.878842 0.1 -0.7095714
v 2.41279 0.1 -0.5946998
v 2.727739 0.1 -1.162181
v 2.286149 0.1 -0.9740368
v 2.505989 0.1 -1.584691
v 2.100297 0.1 -1.328147
v 2.219334 0.1 -1.966159
v 1.860049 0.1 -1.64786
v 1.875201 0.1 -2.296704
v 1.571627 0.1 -1.924893
v 1.4825 0.1 -2.567765
v 1.2425 0.1 -2.152073
v 1.051404 0.1 -2.772323
v 0.8811935 0.1 -2.323515
v 0.5930759 0.1 -2.905079
v 0.4970636 0.1 -2.43478
v 0.1193876 0.1 -2.962595
v 0.1000601 0.1 -2.482985
v -0.35739 0.1 -2.943382
v -0.2995326 0.1 -2.466882
v -0.8249142 0.1 -2.847936
v -0.69137 0.1 -2.386888
v -1.271073 0.1 -2.67873
v -1.065301 0.1 -2.245074
v -1.684311 0.1 -2.440147
v -1.41164 0.1 -2.045115
v -2.053928 0.1 -2.138365
v -1.72142 0.1 -1.792188
v -2.370348 0.1 -1.7812
v -1.986615 0.1 -1.492844
v -2.625376 0.1 -1.377905
v -2.200357 0.1 -1.154838
v -2.81241 0.1 -0.9389213
v -2.357113 0.1 -0.7869205
v -2.926604 0.1 -0.4756196
v -2.45282 0.1 -0.3986222
v -2.926604 0.05 0.4756194
v -2.965 0.05 0
v -2.45282 0.05 0.398622
v -2.357113 0.05 0.78692
v -2.485 0.05 0
v -2.926604 0.05 -0.4756196
v -2.45282 0.05 -0.3986222
v -2.81241 0.05 -0.9389213
v -2.357113 0.05 -0.7869205
v -2.625376 0.05 -1.377905
v -2.200357 0.05 -1.154838
v -2.370348 0.05 -1.7812
v -1.986615 0.05 -1.492844
v -2.053928 0.05 -2.138365
v -1.72142 0.05 -1.792188
v -1.684311 0.05 -2.440147
v -1.41164 0.05 -2.045115
v -1.271073 0.05 -2.67873
v -1.065301 0.05 -2.245074
v -0.8249142 0.05 -2.847936
v -0.69137 0.05 -2.386888
v -0.35739 0.05 -2.943382
v -0.2995326 0.05 -2.466882
v 0.1193876 0.05 -2.962595
v 0.1000601 0.05 -2.482985
v 0.5930759 0.05 -2.905079
v 0.4970636 0.05 -2.43478
v 1.051404 0.05 -2.772323
v 0.8811935 0.05 -2.323515
v 1.4825 0.05 -2.567765
v 1.2425 0.05 -2.152073
v 1.875201 0.05 -2.296704
v 1.571627 0.05 -1.924893
v 2.219334 0.05 -1.966159
v 1.860049 0.05 -1.64786
v 2.505989 0.05 -1.584691
v 2.100297 0.05 -1.328147
v 2.727739 0.05 -1.162181
v 2.286149 0.05 -0.9740368
v 2.878842 0.05 -0.7095714
v 2.41279 0.05 -0.5946998
v 2.955385 0.05 -0.2385833
v 2.476942 0.05 -0.1999593
v 2.955385 0.05 0.2385834
v 2.476942 0.05 0.1999595
v 2.878842 0.05 0.7095717
v 2.41279 0.05 0.5947
v 2.727739 0.05 1.162181
v 2.286149 0.05 0.9740371
v 2.505989 0.05 1.584691
v 2.100297 0.05 1.328147
v 2.219334 0.05 1.966159
v 1.860049 0.05 1.64786
v 1.875201 0.05 2.296704
v 1.571627 0.05 1.924893
v 1.4825 0.05 2.567765
v 1.2425 0.05 2.152073
v 1.051404 0.05 2.772323
v 0.8811933 0.05 2.323515
v 0.5930761 0.05 2.905079
v 0.4970638 0.05 2.43478
v 0.1193885 0.05 2.962595
v 0.1000608 0.05 2.482985
v -0.3573916 0.05 2.943382
v -0.299534 0.05 2.466882
v -0.8249148 0.05 2.847936
v -0.6913704 0.05 2.386888
v -1.271073 0.05 2.67873
v -1.065301 0.05 2.245074
v -1.684312 0.05 2.440147
v -1.411641 0.05 2.045115
v -2.053928 0.05 2.138365
v -1.72142 0.05 1.792188
v -2.370348 0.05 1.781201
v -1.986615 0.05 1.492844
v -2.625377 0.05 1.377904
v -2.200358 0.05 1.154837
v -2.812411 0.05 0.9389206

vt 0.9927089 0.5802707
vt 0.999189 0.5
vt 0.9127478 0.5672758
vt 0.9181789 0.5
vt 0.9734363 0.6584625
vt 0.8965954 0.6328092
vt 0.9418705 0.7325502
vt 0.8701397 0.694903
vt 0.898829 0.800615
vt 0.834066 0.7519488
vt 0.8454264 0.8608939
vt 0.7893088 0.8024693
vt 0.783046 0.9118259
vt 0.7370271 0.845156
vt 0.7133033 0.9520919
vt 0.678575 0.8789033
vt 0.6380048 0.9806488
vt 0.6154664 0.9028372
vt 0.5591004 0.9967573
vt 0.5493358 0.9163378
vt 0.4786339 1
vt 0.4818958 0.9190557
vt 0.3986892 0.990293
vt 0.4148932 0.91092
vt 0.3213368 0.9678876
vt 0.3500633 0.8921419
vt 0.2485802 0.9333642
vt 0.2890853 0.8632073
vt 0.1823038 0.8876169
vt 0.2335382 0.8248661
vt 0.1242241 0.8318306
vt 0.184861 0.7781109
vt 0.07584512 0.7674498
vt 0.144314 0.7241527
vt 0.03842009 0.6961424
vt 0.1129477 0.6643891
vt 0.01291825 0.6197551
vt 0.09157429 0.6003681
vt 0 0.5402659
vt 0.08074734 0.5337474
vt 0 0.4597341
vt 0.08074734 0.4662527
vt 0.01291825 0.380245
vt 0.09157429 0.3996319
vt 0.03842009 0.3038577
vt 0.1129477 0.3356109
vt 0.07584512 0.2325502
vt 0.144314 0.2758474
vt 0.1242241 0.1681695
vt 0.184861 0.2218891
vt 0.1823038 0.1123832
vt 0.2335382 0.175134
vt 0.2485803 0.06663582
vt 0.2890853 0.1367926
vt 0.3213367 0.03211248
vt 0.3500633 0.1078582
vt 0.3986892 0.009707046
vt 0.4148933 0.08907993
vt 0.478634 0
vt 0.481896 0.08094434
vt 0.5591002 0.00324271
vt 0.5493355 0.08366211
vt 0.6380047 0.01935112
vt 0.6154663 0.09716272
vt 0.7133034 0.04790816
vt 0.678575 0.1210967
vt 0.783046 0.08817405
vt 0.737027 0.154844
vt 0.8454264 0.1391061
vt 0.7893088 0.1975307
vt 0.898829 0.1993852
vt 0.8340661 0.2480513
vt 0.9418704 0.2674496
vt 0.8701395 0.3050969
vt 0.9734362 0.3415374
vt 0.8965952 0.3671907
vt 0.9927089 0.4197292
vt 0.9127478 0.4327242
vt 0.5390489 0.5084385
vt 0.4585171 0.5084385
vt 0.5390489 0.5168771
vt 0.4585171 0.5168771
vt 0.5325301 0.5084385
vt 0.4650354 0.5084385
vt 0.5325301 0.5168771
vt 0.4650354 0.5168771

vn 0 1 0
vn -0.9967573 0 0.08046688
vn 0.970942 0 -0.2393148
vn 0.9967573 0 -0.0804671
vn -0.9967573 0 -0.08046686
vn 0.9967573 0 0.08046708
vn -0.9709418 0 -0.2393158
vn 0.9709418 0 0.2393156
vn -0.9199793 0 -0.391967
vn 0.9199793 0 0.3919669
vn -0.84519 0 -0.534466
vn 0.84519 0 0.5344658
vn -0.7485111 0 -0.6631224
vn 0.7485112 0 0.6631222
vn -0.6324452 0 -0.7746052
vn 0.6324447 0 0.7746055
vn -0.5000001 0 -0.8660254
vn 0.5000003 0 0.8660253
vn -0.3546049 0 -0.9350163
vn 0.3546052 0 0.9350161
vn -0.200025 0 -0.9797908
vn 0.2000246 0 0.9797909
vn -0.04026635 0 -0.999189
vn 0.04026652 0 0.999189
vn 0.1205365 0 -0.9927089
vn -0.1205365 0 0.9927089
vn 0.2782178 0 -0.9605181
vn -0.2782178 0 0.9605181
vn 0.4286924 0 -0.9034505
vn -0.4286921 0 0.9034506
vn 0.5680647 0 -0.8229839
vn -0.5680649 0 0.8229837
vn 0.6927243 0 -0.7212024
vn -0.6927244 0 0.7212024
vn 0.7994431 0 -0.6007419
vn -0.799443 0 0.600742
vn 0.885456 0 -0.4647234
vn -0.8854559 0 0.4647234
vn 0.9485365 0 -0.3166681
vn -0.9485365 0 0.3166679
vn 0.9870502 0 -0.1604114
vn -0.9870502 0 0.1604118
vn 1 0 0
vn -1 0 0
vn 0.9870502 0 0.1604114
vn -0.9870502 0 -0.1604117
vn 0.9485365 0 0.3166681
vn -0.9485365 0 -0.3166679
vn 0.885456 0 0.4647234
vn -0.8854559 0 -0.4647234
vn 0.7994427 0 0.6007423
vn -0.7994426 0 -0.6007425
vn 0.6927242 0 0.7212026
vn -0.6927243 0 -0.7212024
vn 0.5680649 0 0.8229837
vn -0.5680646 0 -0.822984
vn 0.4286923 0 0.9034505
vn -0.4286927 0 -0.9034504
vn 0.278218 0 0.9605179
vn -0.278218 0 -0.9605179
vn 0.1205367 0 0.9927089
vn -0.1205367 0 -0.9927089
vn -0.04026614 0 0.999189
vn 0.04026631 0 -0.999189
vn -0.2000259 0 0.9797906
vn 0.2000257 0 -0.9797906
vn -0.3546049 0 0.9350162
vn 0.3546051 0 -0.9350162
vn -0.5000001 0 0.8660254
vn 0.4999999 0 -0.8660254
vn -0.6324452 0 0.7746052
vn 0.632445 0 -0.7746052
vn -0.7485108 0 0.6631226
vn 0.7485111 0 -0.6631223
vn -0.8451902 0 0.5344658
vn 0.84519 0 -0.534466
vn -0.9199793 0 0.3919669
vn 0.9199793 0 -0.3919668
vn -0.970942 0 0.2393151

usemtl Default
f 3/3/1 4/4/1 2/2/1 1/1/1
f 6/6/1 3/3/1 1/1/1 5/5/1
f 8/8/1 6/6/1 5/5/1 7/7/1
f 10/10/1 8/8/1 7/7/1 9/9/1
f 12/12/1 10/10/1 9/9/1 11/11/1
f 14/14/1 12/12/1 11/11/1 13/13/1
f 16/16/1 14/14/1 13/13/1 15/15/1
f 18/18/1 16/16/1 15/15/1 17/17/1
f 20/20/1 18/18/1 17/17/1 19/19/1
f 22/22/1 20/20/1 19/19/1 21/21/1
f 24/24/1 22/22/1 21/21/1 23/23/1
f 26/26/1 24/24/1 23/23/1 25/25/1
f 28/28/1 26/26/1 25/25/1 27/27/1
f 30/30/1 28/28/1 27/27/1 29/29/1
f 32/32/1 30/30/1 29/29/1 31/31/1
f 34/34/1 32/32/1 31/31/1 33/33/1
f 36/36/1 34/34/1 33/33/1 35/35/1
f 38/38/1 36/36/1 35/35/1 37/37/1
f 40/40/1 38/38/1 37/37/1 39/39/1
f 42/42/1 40/40/1 39/39/1 41/41/1
f 44/44/1 42/42/1 41/41/1 43/43/1
f 46/46/1 44/44/1 43/43/1 45/45/1
f 48/48/1 46/46/1 45/45/1 47/47/1
f 50/50/1 48/48/1 47/47/1 49/49/1
f 52/52/1 50/50/1 49/49/1 51/51/1
f 54/54/1 52/52/1 51/51/1 53/53/1
f 56/56/1 54/54/1 53/53/1 55/55/1
f 58/58/1 56/56/1 55/55/1 57/57/1
f 60/60/1 58/58/1 57/57/1 59/59/1
f 62/62/1 60/60/1 59/59/1 61/61/1
f 64/64/1 62/62/1 61/61/1 63/63/1
f 66/66/1 64/64/1 63/63/1 65/65/1
f 68/68/1 66/66/1 65/65/1 67/67/1
f 70/70/1 68/68/1 67/67/1 69/69/1
f 72/72/1 70/70/1 69/69/1 71/71/1
f 74/74/1 72/72/1 71/71/1 73/73/1
f 76/76/1 74/74/1 73/73/1 75/75/1
f 78/78/1 76/76/1 75/75/1 77/77/1
f 4/4/1 78/78/1 77/77/1 2/2/1
f 1/81/2 2/82/2 80/80/2 79/79/2
f 3/85/3 6/86/3 82/84/3 81/83/3
f 4/85/4 3/86/4 81/84/4 83/83/4
f 2/81/5 77/82/5 84/80/5 80/79/5
f 78/85/6 4/86/6 83/84/6 85/83/6
f 77/81/7 75/82/7 86/80/7 84/79/7
f 76/85/8 78/86/8 85/84/8 87/83/8
f 75/81/9 73/82/9 88/80/9 86/79/9
f 74/85/10 76/86/10 87/84/10 89/83/10
f 73/81/11 71/82/11 90/80/11 88/79/11
f 72/85/12 74/86/12 89/84/12 91/83/12
f 71/81/13 69/82/13 92/80/13 90/79/13
f 70/85/14 72/86/14 91/84/14 93/83/14
f 69/81/15 67/82/15 94/80/15 92/79/15
f 68/85/16 70/86/16 93/84/16 95/83/16
f 67/81/17 65/82/17 96/80/17 94/79/17
f 66/85/18 68/86/18 95/84/18 97/83/18
f 65/81/19 63/82/19 98/80/19 96/79/19
f 64/85/20 66/86/20 97/84/20 99/83/20
f 63/81/21 61/82/21 100/80/21 98/79/21
f 62/85/22 64/86/22 99/84/22 101/83/22
f 61/81/23 59/82/23 102/80/23 100/79/23
f 60/85/24 62/86/24 101/84/24 103/83/24
f 59/81/25 57/82/25 104/80/25 102/79/25
f 58/85/26 60/86/26 103/84/26 105/83/26
f 57/81/27 55/82/27 106/80/27 104/79/27
f 56/85/28 58/86/28 105/84/28 107/83/28
f 55/81/29 53/82/29 108/80/29 106/79/29
f 54/85/30 56/86/30 107/84/30 109/83/30
f 53/81/31 51/82/31 110/80/31 108/79/31
f 52/85/32 54/86/32 109/84/32 111/83/32
f 51/81/33 49/82/33 112/80/33 110/79/33
f 50/85/34 52/86/34 111/84/34 113/83/34
f 49/81/35 47/82/35 114/80/35 112/79/35
f 48/85/36 50/86/36 113/84/36 115/83/36
f 47/81/37 45/82/37 116/80/37 114/79/37
f 46/85/38 48/86/38 115/84/38 117/83/38
f 45/81/39 43/82/39 118/80/39 116/79/39
f 44/85/40 46/86/40 117/84/40 119/83/40
f 43/81/41 41/82/41 120/80/41 118/79/41
f 42/85/42 44/86/42 119/84/42 121/83/42
f 41/81/43 39/82/43 122/80/43 120/79/43
f 40/85/44 42/86/44 121/84/44 123/83/44
f 39/81/45 37/82/45 124/80/45 122/79/45
f 38/85/46 40/86/46 123/84/46 125/83/46
f 37/81/47 35/82/47 126/80/47 124/79/47
f 36/85/48 38/86/48 125/84/48 127/83/48
f 35/81/49 33/82/49 128/80/49 126/79/49
f 34/85/50 36/86/50 127/84/50 129/83/50
f 33/81/51 31/82/51 130/80/51 128/79/51
f 32/85/52 34/86/52 129/84/52 131/83/52
f 31/81/53 29/82/53 132/80/53 130/79/53
f 30/85/54 32/86/54 131/84/54 133/83/54
f 29/81/55 27/82/55 134/80/55 132/79/55
f 28/85/56 30/86/56 133/84/56 135/83/56
f 27/81/57 25/82/57 136/80/57 134/79/57
f 26/85/58 28/86/58 135/84/58 137/83/58
f 25/81/59 23/82/59 138/80/59 136/79/59
f 24/85/60 26/86/60 137/84/60 139/83/60
f 23/81/61 21/82/61 140/80/61 138/79/61
f 22/85/62 24/86/62 139/84/62 141/83/62
f 21/81/63 19/82/63 142/80/63 140/79/63
f 20/85/64 22/86/64 141/84/64 143/83/64
f 19/81/65 17/82/65 144/80/65 142/79/65
f 18/85/66 20/86/66 143/84/66 145/83/66
f 17/81/67 15/82/67 146/80/67 144/79/67
f 16/85/68 18/86/68 145/84/68 147/83/68
f 15/81/69 13/82/69 148/80/69 146/79/69
f 14/85/70 16/86/70 147/84/70 149/83/70
f 13/81/71 11/82/71 150/80/71 148/79/71
f 12/85/72 14/86/72 149/84/72 151/83/72
f 11/81/73 9/82/73 152/80/73 150/79/73
f 10/85/74 12/86/74 151/84/74 153/83/74
f 9/81/75 7/82/75 154/80/75 152/79/75
f 8/85/76 10/86/76 153/84/76 155/83/76
f 7/81/77 5/82/77 156/80/77 154/79/77
f 6/85/78 8/86/78 155/84/78 82/83/78
f 5/81/79 1/82/79 79/80/79 156/79/79

