# ProBuilder 5.0.6
# https://unity3d.com/unity/features/worldbuilding/probuilder
# 12/17/2022 11:38:56 PM

mtllib ./Energy-Collector-Type-Omega-Chevron-Part-Lower.mtl
o Energy-Collector-Type-Omega-Chevron-Part-Lower

g Energy-Collector-Type-Omega-Chevron-Part-Lower
v -2.725386 0.2199991 -0.1740447
v -2.725384 0.2199994 0.1740443
v -2.725386 0.2449992 -0.1740448
v -2.725385 0.2449992 0.1740444
v -3.319677 0.2200002 0.4117607
v -3.319677 0.2449999 0.411761
v -3.319677 0.2449996 -0.4117608
v -3.319677 0.2199998 -0.4117607
v -2.875386 0.22 -0.0724895
v -2.875385 0.22 0.0724895
v -2.775386 0.2199997 -0.140193
v -2.775384 0.2199998 0.1401927
v -2.875385 0.27 -0.0724895
v -3.000385 0.27 -0.1224895
v -2.775385 0.2699997 -0.140193
v -3.375385 0.22 0.2724892
v -3.338246 0.2200001 0.3653369
v -2.875385 0.27 0.0724895
v -2.775385 0.2699997 0.1401927
v -3.375385 0.27 0.2724893
v -3.338246 0.27 0.3653371
v -3.000385 0.27 0.1224895
v -3.375385 0.27 -0.2724893
v -3.338246 0.2699997 -0.3653369
v -3.375386 0.22 -0.2724892
v -3.338247 0.2199999 -0.3653369

vt 0.2713477 0.1147076
vt 0.1147076 0.1147077
vt 0.2713477 0.1259576
vt 0.1147076 0.1259576
vt 0.3821391 0.1259575
vt 0.3821393 0.1147076
vt 0.3787496 0.6673797
vt 0.3787501 0.7326202
vt 0.4237494 0.6369131
vt 0.4237503 0.7630866
vt 0.7227446 0.6673796
vt 0.7784731 0.6448796
vt 0.678162 0.6369131
vt 0.1537499 0.82262
vt 0.1704625 0.8644015
vt 0.7227446 0.7326202
vt 0.6781618 0.7630866
vt 0.4138502 0.38875
vt 0.4138503 0.41125
vt 0.4526435 0.38875
vt 0.4526435 0.41125
vt 0.9456583 0.82262
vt 0.7784731 0.7551202
vt 0.9291008 0.8644016
vt 0.9456583 0.5773797
vt 0.9291007 0.5355983
vt 0.1861497 0.4112501
vt 0.1861497 0.3887501
vt 0.1473565 0.4112499
vt 0.1473565 0.38875
vt 0.1537497 0.5773799
vt 0.1704623 0.5355985
vt 0.4462503 0.7783198
vt 0.1788187 0.8852922
vt 0.6543418 0.7783198
vt 0.6543421 0.6216797
vt 0.4720401 0.3887501
vt 0.4720402 0.3999999
vt 0.9192935 0.8852923
vt 0.4462494 0.6216798
vt 0.1788185 0.5147078
vt 0.9192935 0.5147075
vt 0.1279598 0.3999999
vt 0.1279599 0.38875

vn 1 -2.861021E-05 -6.1644E-06
vn 0.3713903 -2.435067E-06 0.9284769
vn 0.3713902 -1.01275E-05 -0.9284769
vn -3.12924E-06 -1 2.05842E-11
vn 8.854626E-07 1 -2.213658E-06
vn -0.9284772 -5.091425E-06 0.3713896
vn -0.928477 3.76323E-06 -0.3713899
vn 0.4472208 0.8944235 -7.605648E-07
vn 0.1660915 0.8944267 0.4152283
vn 0.1660935 0.8944234 -0.4152347

usemtl Default
f 21/24/5 22/23/5 20/22/5
f 21/24/5 19/17/5 22/23/5
f 19/17/5 18/16/5 22/23/5
f 15/13/5 14/12/5 13/11/5
f 15/13/5 23/25/5 14/12/5
f 15/13/5 24/26/5 23/25/5
f 4/4/1 2/2/1 1/1/1
f 1/1/1 3/3/1 4/4/1
f 8/6/3 7/5/3 3/4/3
f 3/4/3 1/2/3 8/6/3
f 6/4/2 5/2/2 2/6/2
f 2/6/2 4/5/2 6/4/2
f 12/10/4 10/8/4 9/7/4
f 9/7/4 11/9/4 12/10/4
f 17/15/4 16/14/4 10/8/4
f 10/8/4 12/10/4 17/15/4
f 15/13/5 13/11/5 18/16/5
f 18/16/5 19/17/5 15/13/5
f 21/21/6 20/19/6 16/18/6
f 16/18/6 17/20/6 21/21/6
f 26/30/7 25/28/7 23/27/7
f 23/27/7 24/29/7 26/30/7
f 11/9/4 9/7/4 25/31/4
f 25/31/4 26/32/4 11/9/4
f 5/34/4 17/15/4 12/10/4
f 12/10/4 2/33/4 5/34/4
f 3/36/8 15/13/8 19/17/8
f 19/17/8 4/35/8 3/36/8
f 6/38/6 21/21/6 17/20/6
f 17/20/6 5/37/6 6/38/6
f 4/35/9 19/17/9 21/24/9
f 21/24/9 6/39/9 4/35/9
f 2/33/4 12/10/4 11/9/4
f 11/9/4 1/40/4 2/33/4
f 1/40/4 11/9/4 26/32/4
f 26/32/4 8/41/4 1/40/4
f 7/42/10 24/26/10 15/13/10
f 15/13/10 3/36/10 7/42/10
f 8/44/7 26/30/7 24/29/7
f 24/29/7 7/43/7 8/44/7

