# ProBuilder 5.0.6
# https://unity3d.com/unity/features/worldbuilding/probuilder
# 12/19/2022 12:25:06 AM

mtllib ./Energy-Collector-Type-Omega-Solar-Panel.mtl
o Energy-Collector-Type-Omega-Solar-Panel

g Energy-Collector-Type-Omega-Solar-Panel
v 0.06250007 -2.175 1.960993E-05
v -0.06250004 -2.175 1.960993E-05
v 0.06250009 -2.174999 0.05001959
v -0.06250006 -2.174999 0.05001959
v 0.06250006 0.1250005 -5.960464E-08
v 0.06250007 -0.125 5.960464E-08
v 0.06250007 0.125001 0.04999992
v 0.06250009 -0.1249995 0.05000004
v -0.06250004 -0.125 5.960464E-08
v -0.06250009 0.1250005 -5.960464E-08
v -0.06250006 -0.1249995 0.05000004
v -0.0625001 0.125001 0.04999992
v -0.06250009 2.175001 -1.913309E-05
v 0.06250006 2.175001 -1.913309E-05
v -0.0625001 2.175001 0.04998085
v 0.06250007 2.175001 0.04998085
v -0.06250009 2.125001 -1.913309E-05
v 0.06250006 2.125001 -1.913309E-05
v -0.0625001 2.125001 0.04998085
v 0.06250007 2.125001 0.04998085
v 0.06250007 -2.125 1.913309E-05
v -0.06250004 -2.125 1.913309E-05
v 0.06250009 -2.125 0.05001912
v -0.06250006 -2.125 0.05001912
v -0.06250006 -2.124985 1.600019
v -0.02083334 -2.124985 1.600019
v 0.02083338 -2.124985 1.600019
v 0.06250009 -2.124985 1.600019
v 0.06250009 -2.174985 1.60002
v -0.06250006 -2.174985 1.60002
v 0.06250007 2.125001 1.599981
v 0.02083335 2.125008 1.599981
v -0.02083338 2.125008 1.599981
v -0.0625001 2.125001 1.599981
v -0.0625001 2.175001 1.599981
v 0.06250007 2.175001 1.599981
v 0.02083335 0.1250007 0.04999992
v 0.02083337 -0.1249998 0.05000004
v 0.02083335 2.125001 0.04998085
v 0.02083338 -2.125 0.05001912
v -0.02083335 -0.1249995 0.05000004
v -0.02083338 0.125001 0.04999992
v -0.02083338 2.125001 0.04998085
v -0.02083334 -2.125 0.05001912
v -0.02083338 2.125008 1.549981
v -0.0625001 2.125001 1.549981
v -0.0625001 2.175001 1.549981
v 0.06250007 2.175001 1.549981
v 0.06250007 2.125001 1.549981
v 0.02083335 2.125008 1.549981
v 0.06250009 -2.124985 1.550019
v 0.06250009 -2.174985 1.55002
v -0.06250006 -2.174985 1.55002
v 0.02083335 0.1250081 1.55
v -0.02083338 0.1250083 1.55
v 0.02083337 -0.1249921 1.55
v -0.02083335 -0.1249921 1.55
v 0.02083338 -2.124985 1.550019
v -0.02083334 -2.124985 1.550019
v -0.06250006 -2.124985 1.550019
v 0.0624999 -0.1249833 1.55
v 0.02083316 -0.1249828 1.6
v -0.02083358 -0.1249828 1.6
v 0.0624999 -0.1249828 1.6
v -0.06250031 -0.1249828 1.6
v -0.06250031 -0.1249833 1.55
v 0.06249996 0.1250176 1.55
v 0.02083321 0.1250181 1.6
v -0.02083356 0.1250181 1.6
v 0.06249996 0.1250181 1.6
v -0.06250031 0.1250181 1.6
v -0.06250031 0.1250176 1.55

vt 0.06250007 -1.132496E-06
vt -0.06250004 -1.132496E-06
vt 0.06250009 0.04999885
vt -0.06250006 0.04999885
vt 4.097813E-08 0.1250005
vt -7.823116E-08 -0.125
vt -0.04999994 0.125001
vt -0.05000006 -0.1249995
vt 7.823101E-08 -0.125
vt 0.05000006 -0.1249995
vt 0.04999994 0.125001
vt 0.06250009 0.1250005
vt -0.06250006 0.1250005
vt 0.06250009 2.125001
vt -0.06250006 2.125001
vt 0.04998087 2.125001
vt -1.911446E-05 2.125001
vt -0.04998087 2.125001
vt -0.06250007 -0.125
vt 0.06250004 -0.125
vt -0.06250007 -2.125
vt 0.06250004 -2.125
vt -0.05001913 -2.125
vt -1.915172E-05 -2.125
vt 0.05001913 -2.125
vt 0.06250009 2.175001
vt -0.06250006 2.175001
vt 0.04998087 2.175001
vt -1.911446E-05 2.175001
vt -0.04998087 2.175001
vt -0.06250007 -2.175
vt 0.06250004 -2.175
vt -0.05001961 -2.174999
vt -1.962855E-05 -2.175
vt 0.05001961 -2.174999
vt -0.02083334 -2.125
vt 0.02083338 -2.125
vt 0.02083335 2.125008
vt -0.02083338 2.125008
vt 0.02083335 0.1250007
vt 0.06250009 -0.1249995
vt 0.02083337 -0.1249998
vt 0.02083337 -0.1250002
vt -0.02083335 -0.1249995
vt -0.06250006 -0.1249995
vt -0.02083338 0.1250009
vt -0.02083335 -0.125
vt -0.02083338 0.04999098
vt -0.02083338 1.549991
vt -0.0625001 1.549991
vt 1.549981 2.125001
vt 1.549981 2.175001
vt -1.549981 2.175001
vt -1.549981 2.125001
vt 0.02083335 0.04998085
vt 0.06250007 1.549981
vt 0.02083335 1.549981
vt -1.550019 -2.124985
vt -1.55002 -2.174985
vt -1.55 0.1250081
vt 1.55 0.1250083
vt -1.55 -0.1249921
vt 1.55 -0.1249921
vt 1.550019 -2.124985
vt 1.55002 -2.174985
vt -1.600019 -2.124985
vt -1.60002 -2.174985
vt 0.06250009 1.599999
vt -0.06250006 1.599999
vt 1.60002 -2.174985
vt 1.600019 -2.124985
vt 1.599981 2.125001
vt 1.599981 2.175001
vt -1.599981 2.175001
vt -1.599981 2.125001
vt -0.0624999 -0.1249981
vt -1.55 -0.1249833
vt -1.6 -0.1249828
vt 0.0624999 -0.1249984
vt 1.6 -0.1249828
vt 1.55 -0.1249833
vt -0.06248666 0.1250169
vt -1.6 0.1250181
vt 0.06249996 0.1250181
vt 1.6 0.1250181
vt -0.02082448 0.1249933
vt -0.02082448 2.124993
vt -0.06249121 2.124986
vt 0.02083335 2.124993
vt 0.06250007 2.124986
vt 0.02083338 0.1249936
vt -0.0625001 2.124986
vt 0.06249124 2.124986

vn 0 -1 9.536747E-06
vn 1 5.960439E-08 -2.980239E-07
vn -1 -1.788137E-07 -2.980216E-07
vn 0 1 0
vn 0 -9.536741E-06 -1
vn 0 9.536752E-06 1

usemtl Metal041A
f 35/27/6 34/15/6 33/39/6
f 32/38/6 31/14/6 36/26/6
f 33/39/6 32/38/6 36/26/6
f 35/27/6 33/39/6 36/26/6
f 27/37/6 29/32/6 28/22/6
f 27/37/6 26/36/6 29/32/6
f 29/32/6 26/36/6 30/31/6
f 26/36/6 25/21/6 30/31/6
f 4/4/1 2/2/1 1/1/1
f 1/1/1 3/3/1 4/4/1
f 8/8/2 6/6/2 5/5/2
f 5/5/2 7/7/2 8/8/2
f 12/11/3 10/5/3 9/9/3
f 9/9/3 11/10/3 12/11/3
f 16/4/4 14/2/4 13/1/4
f 13/1/4 15/3/4 16/4/4
f 18/15/5 5/13/5 10/12/5
f 10/12/5 17/14/5 18/15/5
f 17/17/3 10/5/3 12/11/3
f 12/11/3 19/16/3 17/17/3
f 20/18/2 7/7/2 5/5/2
f 5/5/2 18/17/2 20/18/2
f 22/22/5 9/20/5 6/19/5
f 6/19/5 21/21/5 22/22/5
f 21/24/2 6/6/2 8/8/2
f 8/8/2 23/23/2 21/24/2
f 24/25/3 11/10/3 9/6/3
f 9/6/3 22/24/3 24/25/3
f 14/27/5 18/15/5 17/14/5
f 17/14/5 13/26/5 14/27/5
f 13/29/3 17/17/3 19/16/3
f 19/16/3 15/28/3 13/29/3
f 16/30/2 20/18/2 18/17/2
f 18/17/2 14/29/2 16/30/2
f 2/32/5 22/22/5 21/21/5
f 21/21/5 1/31/5 2/32/5
f 1/34/2 21/24/2 23/23/2
f 23/23/2 3/33/2 1/34/2
f 4/35/3 24/25/3 22/24/3
f 22/24/3 2/34/3 4/35/3
f 37/40/6 38/42/6 8/41/6
f 8/41/6 7/12/6 37/40/6
f 37/40/6 7/12/6 20/14/6
f 20/14/6 39/38/6 37/40/6
f 38/43/6 40/37/6 23/22/6
f 23/22/6 8/20/6 38/43/6
f 12/13/6 11/45/6 41/44/6
f 41/44/6 42/46/6 12/13/6
f 19/15/6 12/13/6 42/46/6
f 42/46/6 43/39/6 19/15/6
f 24/21/6 44/36/6 41/47/6
f 41/47/6 11/19/6 24/21/6
f 46/50/1 19/4/1 43/48/1
f 43/48/1 45/49/1 46/50/1
f 47/52/3 15/28/3 19/16/3
f 19/16/3 46/51/3 47/52/3
f 49/54/2 20/18/2 16/30/2
f 16/30/2 48/53/2 49/54/2
f 50/57/1 39/55/1 20/3/1
f 20/3/1 49/56/1 50/57/1
f 52/59/2 3/33/2 23/23/2
f 23/23/2 51/58/2 52/59/2
f 48/50/4 16/4/4 15/3/4
f 15/3/4 47/56/4 48/50/4
f 53/50/1 4/4/1 3/3/1
f 3/3/1 52/56/1 53/50/1
f 51/50/4 23/4/4 40/48/4
f 40/48/4 58/49/4 51/50/4
f 60/64/3 24/25/3 4/35/3
f 4/35/3 53/65/3 60/64/3
f 59/57/4 44/55/4 24/3/4
f 24/3/4 60/56/4 59/57/4
f 29/67/2 52/59/2 51/58/2
f 51/58/2 28/66/2 29/67/2
f 30/69/1 53/50/1 52/56/1
f 52/56/1 29/68/1 30/69/1
f 25/71/3 60/64/3 53/65/3
f 53/65/3 30/70/3 25/71/3
f 35/73/3 47/52/3 46/51/3
f 46/51/3 34/72/3 35/73/3
f 31/75/2 49/54/2 48/53/2
f 48/53/2 36/74/2 31/75/2
f 36/69/4 48/50/4 47/56/4
f 47/56/4 35/68/4 36/69/4
f 61/76/5 51/21/5 58/36/5
f 58/36/5 56/47/5 61/76/5
f 63/44/6 26/36/6 27/37/6
f 27/37/6 62/42/6 63/44/6
f 64/78/2 28/66/2 51/58/2
f 51/58/2 61/77/2 64/78/2
f 62/42/6 27/37/6 28/22/6
f 28/22/6 64/79/6 62/42/6
f 56/47/5 58/36/5 59/37/5
f 59/37/5 57/43/5 56/47/5
f 65/45/6 25/21/6 26/36/6
f 26/36/6 63/44/6 65/45/6
f 57/43/5 59/37/5 60/22/5
f 60/22/5 66/41/5 57/43/5
f 66/81/3 60/64/3 25/71/3
f 25/71/3 65/80/3 66/81/3
f 67/82/5 61/76/5 56/44/5
f 56/44/5 54/46/5 67/82/5
f 69/46/6 63/44/6 62/42/6
f 62/42/6 68/40/6 69/46/6
f 70/83/2 64/78/2 61/77/2
f 61/77/2 67/60/2 70/83/2
f 68/40/6 62/42/6 64/79/6
f 64/79/6 70/84/6 68/40/6
f 54/46/5 56/44/5 57/42/5
f 57/42/5 55/40/5 54/46/5
f 71/13/6 65/45/6 63/44/6
f 63/44/6 69/46/6 71/13/6
f 55/40/5 57/42/5 66/79/5
f 66/79/5 72/84/5 55/40/5
f 72/61/3 66/81/3 65/80/3
f 65/80/3 71/85/3 72/61/3
f 49/88/5 67/82/5 54/86/5
f 54/86/5 50/87/5 49/88/5
f 33/87/6 69/46/6 68/40/6
f 68/40/6 32/89/6 33/87/6
f 31/75/2 70/83/2 67/60/2
f 67/60/2 49/54/2 31/75/2
f 32/89/6 68/40/6 70/84/6
f 70/84/6 31/90/6 32/89/6
f 50/87/5 54/86/5 55/91/5
f 55/91/5 45/89/5 50/87/5
f 34/92/6 71/13/6 69/46/6
f 69/46/6 33/87/6 34/92/6
f 45/89/5 55/91/5 72/84/5
f 72/84/5 46/93/5 45/89/5
f 46/51/3 72/61/3 71/85/3
f 71/85/3 34/72/3 46/51/3
f 6/19/5 9/20/5 10/12/5
f 10/12/5 5/13/5 6/19/5

usemtl SolarPanel003
f 50/54/2 54/60/2 37/7/2 39/18/2
f 55/61/3 45/51/3 43/16/3 42/11/3
f 54/60/2 56/62/2 38/8/2 37/7/2
f 57/63/3 55/61/3 42/11/3 41/10/3
f 56/62/2 58/58/2 40/23/2 38/8/2
f 59/64/3 57/63/3 41/10/3 44/25/3

