# ProBuilder 5.0.6
# https://unity3d.com/unity/features/worldbuilding/probuilder
# 12/19/2022 12:26:59 AM

mtllib ./Energy-Collector-Type-Omega-Solar-Panel-Pillar-Stand.mtl
o Energy-Collector-Type-Omega-Solar-Panel-Pillar-Stand

g Energy-Collector-Type-Omega-Solar-Panel-Pillar-Stand
v -0.125 -0.17 0.1305622
v -0.125 -0.17 -0.1305622
v -0.1249998 0.17 0.130562
v -0.125 0.17 -0.1305621
v 0.125 -0.17 0.1305621
v 0.125 -0.17 -0.1305622
v 0.1250002 0.17 0.130562
v 0.125 0.17 -0.1305621

vt 0.8270562 0.8507888
vt 0.7719036 0.8514966
vt 0.828025 0.9262937
vt 0.7728725 0.9270014
vt 0.8267378 0.9175507
vt 0.8259937 0.859562
vt 0.7739349 0.9182283
vt 0.7731908 0.8602396
vt 0.8268502 0.9263088
vt 0.8258814 0.850804
vt 0.7740473 0.9269863
vt 0.7730784 0.8514815

vn -1 7.012311E-07 0
vn 0 -1 0
vn 1.192092E-07 3.506154E-07 1
vn 0 1.753078E-07 -1
vn 0 1 0
vn 1 -7.01231E-07 0

usemtl Metal041A
f 3/3/1 4/4/1 2/2/1 1/1/1
f 1/7/2 2/8/2 6/6/2 5/5/2
f 3/11/3 1/12/3 5/10/3 7/9/3
f 2/10/4 4/9/4 8/11/4 6/12/4
f 4/6/5 3/5/5 7/7/5 8/8/5
f 7/4/6 5/2/6 6/1/6 8/3/6

