# ProBuilder 5.0.6
# https://unity3d.com/unity/features/worldbuilding/probuilder
# 12/13/2022 3:51:30 AM

mtllib ./FEP-S6P-Trigger.mtl
o FEP-S6P-Trigger

g FEP-S6P-Trigger
v -0.1358335 0.3383333 -0.07500029
v -0.2191669 0.004999995 -0.07500029
v 0.1058331 0.004999995 -0.07500029
v 0.08499968 0.1716666 -0.07500029
v 0.06416631 0.3383332 -0.07500029
v -0.2191669 0.004999876 0.07500029
v -0.1358335 0.3383332 0.07500029
v 0.06416643 0.3383331 0.07500029
v 0.08499968 0.1716665 0.07500029
v 0.1058331 0.004999876 0.07500029
v -0.3025 -0.3033334 0.07500029
v 0.1641665 -0.1616668 0.07500029
v 0.2474999 -0.3033334 0.07500029
v -0.3025 -0.3033333 -0.07500029
v 0.2474999 -0.3033333 -0.07500029
v 0.1641663 -0.1616666 -0.07500029
v 0.26 -0.3033332 -0.1000003
v -0.3025 -0.3033333 -0.1000003
v 0.2600001 -0.3283331 -0.1000003
v -0.3025 -0.3283333 -0.1000003
v -0.3025 -0.3033334 0.1000003
v 0.26 -0.3033333 0.1000003
v -0.3025 -0.3283334 0.1000003
v 0.2600001 -0.3283333 0.1000003
v 0.09416628 0.3383332 -0.03500032
v 0.09416652 0.3383332 0.03500032
v -0.3025 -0.3383332 -0.07500029
v -0.3025 -0.3383334 0.07500029
v 0.2475002 -0.3383334 0.07500029
v 0.2775003 -0.3383334 0.03500032
v 0.2775003 -0.3383332 -0.03500032
v 0.2475002 -0.3383332 -0.07500029
v 0.1941664 -0.1616667 0.03500032
v 0.135833 0.004999876 0.03500032
v 0.2774999 -0.3033334 0.03500032
v 0.1149999 0.1716664 0.03500032
v 0.3025001 -0.3283331 0.04333366
v 0.3024999 -0.3033332 0.04333366
v 0.135833 0.004999876 -0.03500032
v 0.1941664 -0.1616668 -0.03500032
v 0.2774999 -0.3033334 -0.03500032
v 0.115 0.1716665 -0.03500032
v 0.3025001 -0.328333 -0.04333366
v 0.3024999 -0.3033332 -0.04333366

vt 0.4666666 0.2481667
vt 0.3333333 0.2148333
vt 0.3333333 0.3448333
vt 0.3999999 0.3364999
vt 0.4666666 0.3281666
vt 0.2 0.2481667
vt 0.2 0.3281666
vt 0.2666667 0.3364999
vt 0.4566666 0.1815
vt 0.3999999 0.3681666
vt 0.4566666 0.4015
vt 0.2099999 0.1815
vt 0.2099999 0.4015
vt 0.2666666 0.3681666
vt 0.21 0.4065
vt 0.2 0.4065001
vt 0.2 0.1815
vt 0.4566666 0.4065
vt 0.4666666 0.1815
vt 0.4666665 0.4065001
vt 0.2700002 0.2481667
vt 0.21 0.2481667
vt 0.21 0.3281666
vt 0.226 0.3401666
vt 0.2540002 0.3401667
vt 0.2700002 0.3281666
vt 0.2700002 0.1815
vt 0.226 0.4135002
vt 0.2540002 0.4135002
vt 0.2700002 0.4015001
vt 0.2666666 0.2355003
vt 0.2666666 0.2515003
vt 0.3333332 0.2515003
vt 0.3333332 0.2355003
vt 0.2099999 0.2355003
vt 0.2099999 0.2515003
vt 0.3999999 0.2355003
vt 0.3999999 0.2515003
vt 0.4666665 0.2515003
vt 0.4666665 0.2355003
vt 0.2 0.2388336
vt 0.2 0.2615003
vt 0.2099999 0.2615003
vt 0.21 0.2388336
vt 0.3333332 0.2075
vt 0.2666666 0.2075
vt 0.3333333 0.1915
vt 0.2666666 0.1915
vt 0.2099999 0.1915
vt 0.2099999 0.2075
vt 0.4666666 0.1915
vt 0.3999999 0.1915
vt 0.3999999 0.2075
vt 0.4666665 0.2075
vt 0.21 0.1815
vt 0.2 0.1815
vt 0.2000001 0.2041667
vt 0.21 0.2041667
vt 0.2 0.4065
vt 0.2226666 0.4235
vt 0.2 0.1915
vt 0.214 0.1915
vt 0.2800002 0.1815
vt 0.2800002 0.4065001
vt 0.2573335 0.4235001
vt 0.214 0.2515003
vt 0.2 0.2515003
vt 0.21 0.2615003
vt 0.2 0.2615003

vn 0 0 -1
vn 0 0 1
vn 3.124209E-07 1 5.877674E-07
vn 2.740429E-08 -1 -3.973628E-07
vn 0.7703711 0.2696303 0.5777785
vn 0.7238547 0.4257976 0.5428913
vn 0.7960281 0.09950341 0.5970246
vn 0.8000001 5.722053E-06 0.5999999
vn 0.7999997 3.814699E-06 0.6000004
vn 0.9438583 0.3303508 0
vn 0.7703711 0.26963 -0.5777786
vn 0.7238542 0.4257981 -0.5428916
vn 0.8619338 0.5070209 0
vn 0.7960299 0.09950394 -0.5970221
vn 0.9922777 0.124036 -7.921043E-07
vn 0.8000005 3.814703E-06 -0.5999994
vn 0.7999997 7.629435E-06 -0.6000004
vn 1 9.536775E-06 6.558813E-12
vn -1 0 0
vn 0 -0.9284768 -0.3713904
vn 0.2971153 -0.9284751 -0.2228373
vn 0.3713994 -0.9284732 -1.581166E-06
vn 0.2971193 -0.9284731 0.2228404
vn 0 -0.9284753 0.3713942

usemtl Default
f 1/1/1 5/5/1 4/4/1
f 1/1/1 4/4/1 2/2/1
f 3/3/1 2/2/1 4/4/1
f 8/26/3 26/25/3 7/21/3
f 26/25/3 25/24/3 7/21/3
f 7/21/3 25/24/3 1/22/3
f 25/24/3 5/23/3 1/22/3
f 27/27/4 32/30/4 31/29/4
f 27/27/4 31/29/4 28/12/4
f 31/29/4 30/28/4 28/12/4
f 28/12/4 30/28/4 29/13/4
f 9/8/2 6/2/2 10/3/2
f 6/2/2 9/8/2 7/6/2
f 9/8/2 8/7/2 7/6/2
f 2/2/1 3/3/1 16/14/1
f 2/2/1 16/14/1 14/12/1
f 15/13/1 14/12/1 16/14/1
f 12/10/2 11/9/2 13/11/2
f 11/9/2 12/10/2 6/2/2
f 12/10/2 10/3/2 6/2/2
f 20/17/1 18/12/1 17/15/1
f 17/15/1 19/16/1 20/17/1
f 24/20/2 22/18/2 21/9/2
f 21/9/2 23/19/2 24/20/2
f 12/32/5 33/31/5 34/34/5
f 34/34/5 10/33/5 12/32/5
f 35/35/6 33/31/6 12/32/6
f 12/32/6 13/36/6 35/35/6
f 36/37/7 26/40/7 8/39/7
f 8/39/7 9/38/7 36/37/7
f 34/34/7 36/37/7 9/38/7
f 9/38/7 10/33/7 34/34/7
f 24/42/9 37/41/8 38/44/8
f 38/44/8 22/43/8 24/42/9
f 40/46/10 39/45/10 34/34/10
f 34/34/10 33/31/10 40/46/10
f 16/48/11 3/47/11 39/45/11
f 39/45/11 40/46/11 16/48/11
f 41/50/12 15/49/12 16/48/12
f 16/48/12 40/46/12 41/50/12
f 35/35/13 41/50/13 40/46/13
f 40/46/13 33/31/13 35/35/13
f 42/53/14 4/52/14 5/51/14
f 5/51/14 25/54/14 42/53/14
f 36/37/15 42/53/15 25/54/15
f 25/54/15 26/40/15 36/37/15
f 34/34/15 39/45/15 42/53/15
f 42/53/15 36/37/15 34/34/15
f 39/45/14 3/47/14 4/52/14
f 4/52/14 42/53/14 39/45/14
f 43/57/17 19/56/16 17/55/16
f 17/55/16 44/58/16 43/57/17
f 43/57/18 44/58/18 38/44/18
f 38/44/18 37/41/18 43/57/18
f 18/17/3 14/12/3 15/13/3
f 15/13/3 17/59/3 18/17/3
f 17/59/3 15/13/3 41/28/3
f 41/28/3 44/60/3 17/59/3
f 20/12/19 27/62/19 14/61/19
f 14/61/19 18/17/19 20/12/19
f 19/64/20 32/30/20 27/27/20
f 27/27/20 20/63/20 19/64/20
f 43/65/21 31/29/21 32/30/21
f 32/30/21 19/64/21 43/65/21
f 37/60/22 30/28/22 31/29/22
f 31/29/22 43/65/22 37/60/22
f 44/60/3 41/28/3 35/29/3
f 35/29/3 38/65/3 44/60/3
f 38/65/3 35/29/3 13/30/3
f 13/30/3 22/64/3 38/65/3
f 24/59/23 29/13/23 30/28/23
f 30/28/23 37/60/23 24/59/23
f 23/17/24 28/12/24 29/13/24
f 29/13/24 24/59/24 23/17/24
f 22/64/3 13/30/3 11/27/3
f 11/27/3 21/63/3 22/64/3
f 21/69/19 11/67/19 28/66/19
f 28/66/19 23/68/19 21/69/19

