# ProBuilder 5.0.6
# https://unity3d.com/unity/features/worldbuilding/probuilder
# 12/13/2022 3:51:30 AM

mtllib ./FEP-S6P-Radiator.mtl
o FEP-S6P-Radiator

g FEP-S6P-Radiator
v -0.5750006 -0.2750002 -0.1999998
v -0.5750006 -0.2750002 0.1999998
v 0.5750005 -0.2749997 -0.1999988
v 0.5750005 -0.275 0.1999998
v -0.5750005 0.2749998 -0.1999998
v -0.5750005 0.2749998 0.1999998
v -0.5750006 -0.2250002 -0.1999998
v -0.5750006 -0.2250002 0.1999998
v 0.5750005 0.2750003 -0.1999988
v 0.5750005 -0.2249997 -0.1999988
v 0.5750005 0.275 0.1999998
v 0.5750005 -0.225 0.1999998
v -0.6250006 -0.2250001 -0.2499998
v -0.6250006 -0.2250001 0.2499998
v -0.6250006 -0.2750002 -0.2499998
v -0.6250006 -0.2750002 0.2499998
v 0.6250005 -0.2249997 -0.2499988
v 0.6250005 -0.2749997 -0.2499988
v 0.6250005 -0.225 0.2499998
v 0.6250005 -0.275 0.2499998

vt 0.5160002 0.3360001
vt 0.5160002 0.4639999
vt 0.8840002 0.3360004
vt 0.8840002 0.4639999
vt 0.1734363 0.8799999
vt 0.3014361 0.8799999
vt 0.1734363 0.7200001
vt 0.3014361 0.7200001
vt 0.884 0.72
vt 0.516 0.7200001
vt 0.884 0.8799999
vt 0.516 0.88
vt 0.516 0.8799999
vt 0.516 0.72
vt 0.6265635 0.7200001
vt 0.4985642 0.72
vt 0.6265635 0.8799999
vt 0.4985642 0.8799999
vt 0.5000001 0.2879999
vt 0.6599998 0.2879999
vt 0.5000001 0.272
vt 0.6599998 0.272
vt 0.9 0.4319997
vt 0.5000001 0.4319997
vt 0.9 0.4479996
vt 0.5000001 0.4479997
vt 0.9 0.2879999
vt 0.9 0.2719999
vt 0.6599995 0.4319997
vt 0.6599995 0.4479997
vt 0.516 0.1360004
vt 0.884 0.1360001
vt 0.5000001 0.1200005
vt 0.9 0.1200001
vt 0.9000001 0.3200004
vt 0.9000001 0.4799998
vt 0.5000001 0.3200001
vt 0.884 0.2639998
vt 0.9 0.2799998
vt 0.5000001 0.4799998
vt 0.516 0.2639998
vt 0.5000001 0.2799998

vn 4.146406E-07 -1 0
vn -1 1.192093E-07 -8.881793E-15
vn 8.292812E-07 0 -1
vn 0 0 1
vn 1 0 0
vn -4.146403E-07 1 -4.146403E-07

usemtl Default
f 3/3/1 4/4/1 2/2/1 1/1/1
f 7/7/2 8/8/2 6/6/2 5/5/2
f 10/11/3 7/12/3 5/10/3 9/9/3
f 8/14/4 12/9/4 11/11/4 6/13/4
f 12/17/5 10/18/5 9/16/5 11/15/5
f 15/21/2 16/22/2 14/20/2 13/19/2
f 18/25/3 15/26/3 13/24/3 17/23/3
f 16/21/4 20/28/4 19/27/4 14/19/4
f 20/30/5 18/26/5 17/24/5 19/29/5
f 17/33/6 13/34/6 7/32/6 10/31/6
f 18/35/1 20/36/1 4/4/1 3/3/1
f 15/37/1 18/35/1 3/3/1 1/1/1
f 13/34/6 14/39/6 8/38/6 7/32/6
f 16/40/1 15/37/1 1/1/1 2/2/1
f 14/39/6 19/42/6 12/41/6 8/38/6
f 20/36/1 16/40/1 2/2/1 4/4/1
f 19/42/6 17/33/6 10/31/6 12/41/6

