# ProBuilder 5.0.4
# https://unity3d.com/unity/features/worldbuilding/probuilder
# 6/23/2022 7:26:37 PM

mtllib ./IO-Plate-Base.mtl
o IO-Plate-Base

g IO-Plate-Base
v 0.025 0.5 3.5
v -0.025 0.5 3.5
v 0.025 0.5 -3.5
v -0.025 0.5 -3.5
v 0.025 -0.5 -3.5
v -0.025 -0.5 -3.5
v 0.025 -0.5 3.5
v -0.025 -0.5 3.5
v -0.025 0.1666667 -3.5
v -0.025 0.1666667 3.5
v -0.02499962 -0.3666666 -3.5
v -0.02499962 -0.3666666 3.5
v 0.02499962 -0.3666667 -3.5
v 0.025 0.1666666 -3.5
v 0.025 0.1666667 3.5
v 0.02499962 -0.3666666 3.5

vt -0.025 3.5
vt 0.025 3.5
vt -0.025 -3.5
vt 0.025 -3.5
vt -3.5 0.1666667
vt -3.5 0.5
vt 3.5 0.5
vt 3.5 0.1666667
vt 3.5 -0.5
vt -3.5 -0.5
vt -3.5 -0.3666666
vt 3.5 -0.3666666
vt -0.025 0.5
vt 0.025 0.5
vt 0.025 0.1666667
vt 0.02499962 -0.3666666
vt 0.025 -0.5
vt -0.025 -0.5
vt -0.02499962 -0.3666667
vt -0.025 0.1666666
vt -0.025 0.1666667

vn 0 1 0
vn 0 -1 0
vn -1 0 0
vn 0 0 -1
vn 0 0 1
vn 1 2.863816E-06 -1.219262E-14

usemtl Default
f 12/19/5 8/18/5 7/17/5
f 16/16/5 12/19/5 7/17/5
f 10/21/5 12/19/5 16/16/5
f 10/21/5 16/16/5 15/15/5
f 1/14/5 10/21/5 15/15/5
f 1/14/5 2/13/5 10/21/5
f 9/15/4 4/14/4 3/13/4
f 14/20/4 9/15/4 3/13/4
f 13/19/4 9/15/4 14/20/4
f 11/16/4 9/15/4 13/19/4
f 13/19/4 5/18/4 11/16/4
f 5/18/4 6/17/4 11/16/4
f 4/4/1 2/2/1 1/1/1
f 1/1/1 3/3/1 4/4/1
f 8/1/2 6/3/2 5/4/2
f 5/4/2 7/2/2 8/1/2
f 4/6/3 9/5/3 10/8/3
f 10/8/3 2/7/3 4/6/3
f 11/11/3 6/10/3 8/9/3
f 8/9/3 12/12/3 11/11/3
f 9/5/3 11/11/3 12/12/3
f 12/12/3 10/8/3 9/5/3
f 13/12/6 16/11/6 7/10/6
f 7/10/6 5/9/6 13/12/6
f 14/8/6 15/5/6 16/11/6
f 16/11/6 13/12/6 14/8/6
f 3/7/6 1/6/6 15/5/6
f 15/5/6 14/8/6 3/7/6

