# ProBuilder 5.0.4
# https://unity3d.com/unity/features/worldbuilding/probuilder
# 5/26/2022 2:00:37 AM

mtllib ./Tesla-Gate-Type-0.mtl
o Tesla-Gate-Type-0

g Tesla-Gate-Type-0
v 0.375 -2.02505 2.4
v -0.375 -2.02505 2.4
v 0.375 -2.02505 0.75
v -0.375 -2.02505 0.75
v 0.375 -2.02505 -0.75
v -0.375 -2.02505 -0.75
v 0.375 -2.02505 -2.4
v -0.375 -2.02505 -2.4
v -0.375 0.1250498 2.4
v 0.375 0.1250498 -2.4
v -0.375 0.1250498 -2.4
v 0.375 0.1250498 2.4
v 0.375 1.333628 -2.4
v -0.375 1.333628 -2.4
v -0.375 1.333628 2.4
v 0.375 1.333628 2.4
v 0.375 2.02505 -1.708579
v -0.375 2.02505 -1.708579
v 0.375 2.02505 1.708579
v -0.375 2.02505 1.708579
v 1.175 2.12505 -1.75
v 1.175 1.37505 -2.5
v 1.175 2.02505 -1.708579
v 1.175 1.333628 -2.4
v 1.175 2.12505 1.75
v 1.175 2.02505 1.708578
v -1.175 2.12505 -1.75
v -1.175 2.12505 1.75
v -1.175 2.02505 -1.708579
v -1.175 2.02505 1.708578
v -1.175 1.37505 2.5
v -1.175 1.333628 2.4
v 1.175 -2.12505 -2.5
v 1.175 -2.12505 -0.75
v 1.175 -2.02505 -2.4
v 1.175 -2.02505 -0.75
v -1.175 1.37505 -2.5
v -1.175 1.333628 -2.4
v -1.175 -2.12505 2.5
v -1.175 -2.12505 0.75
v -1.175 -2.02505 2.4
v -1.175 -2.02505 0.75
v 1.175 0.1250498 -2.5
v 1.175 0.1250498 -2.4
v -1.175 0.1250498 -2.5
v -1.175 0.1250498 -2.4
v -1.175 -2.12505 -2.5
v -1.175 -2.02505 -2.4
v -1.175 -2.12505 -0.75
v -1.175 -2.02505 -0.75
v -1.175 0.1250498 2.5
v -1.175 0.1250498 2.4
v 1.175 -2.12505 0.75
v 1.175 -2.02505 0.75
v 1.175 -2.12505 2.5
v 1.175 -2.02505 2.4
v 1.175 0.1250498 2.5
v 1.175 0.1250498 2.4
v 1.175 1.37505 2.5
v 1.175 1.333628 2.4
v -0.375 0.1250498 2.5
v -0.375 -2.12505 2.5
v -0.475 0.1250498 2.5
v -0.475 -2.12505 2.5
v -0.9750004 0.1250498 2.4
v -0.9750004 1.333628 2.4
v -0.9750004 -2.02505 2.4
v -0.375 -2.12505 0.75
v -0.475 -2.12505 0.75
v -0.9750004 -2.02505 0.75
v -0.375 -2.12505 -0.75
v -0.475 -2.12505 -0.75
v -0.9750004 -2.02505 -0.75
v -0.375 -2.12505 -2.5
v -0.475 -2.12505 -2.5
v -0.9750004 -2.02505 -2.4
v -0.375 0.1250498 -2.5
v -0.475 0.1250498 -2.5
v -0.9750004 0.1250498 -2.4
v -0.375 1.37505 -2.5
v -0.475 1.37505 -2.5
v -0.9750004 1.333628 -2.4
v -0.375 2.12505 -1.75
v -0.475 2.12505 -1.75
v -0.9750004 2.02505 -1.708579
v -0.375 2.12505 1.75
v -0.475 2.12505 1.75
v -0.9750004 2.02505 1.708578
v -0.375 1.37505 2.5
v -0.475 1.37505 2.5
v -0.575 0.1250498 2.5
v -0.575 -2.12505 2.5
v -1.075 0.1250498 2.4
v -1.075 1.333628 2.4
v -1.075 -2.02505 2.4
v -0.575 -2.12505 0.75
v -1.075 -2.02505 0.75
v -0.575 -2.12505 -0.75
v -1.075 -2.02505 -0.75
v -0.575 -2.12505 -2.5
v -1.075 -2.02505 -2.4
v -0.575 0.1250498 -2.5
v -1.075 0.1250498 -2.4
v -0.575 1.37505 -2.5
v -1.075 1.333628 -2.4
v -0.575 2.12505 -1.75
v -1.075 2.02505 -1.708579
v -0.575 2.12505 1.75
v -1.075 2.02505 1.708578
v -0.575 1.37505 2.5
v 0.375 0.1250498 2.5
v 0.375 1.37505 2.5
v 0.475 0.1250498 2.5
v 0.475 1.37505 2.5
v 0.9750004 0.1250498 2.4
v 0.9750004 -2.02505 2.4
v 0.9750004 1.333628 2.4
v 0.375 2.12505 1.75
v 0.475 2.12505 1.75
v 0.9750004 2.02505 1.708578
v 0.375 2.12505 -1.75
v 0.475 2.12505 -1.75
v 0.9750004 2.02505 -1.708579
v 0.375 1.37505 -2.5
v 0.475 1.37505 -2.5
v 0.9750004 1.333628 -2.4
v 0.375 0.1250498 -2.5
v 0.475 0.1250498 -2.5
v 0.9750004 0.1250498 -2.4
v 0.375 -2.12505 -2.5
v 0.475 -2.12505 -2.5
v 0.9750004 -2.02505 -2.4
v 0.375 -2.12505 -0.75
v 0.475 -2.12505 -0.75
v 0.9750004 -2.02505 -0.75
v 0.375 -2.12505 0.75
v 0.475 -2.12505 0.75
v 0.9750004 -2.02505 0.75
v 0.375 -2.12505 2.5
v 0.475 -2.12505 2.5
v 0.575 0.1250498 2.5
v 0.575 1.37505 2.5
v 1.075 0.1250498 2.4
v 1.075 -2.02505 2.4
v 1.075 1.333628 2.4
v 0.575 2.12505 1.75
v 1.075 2.02505 1.708578
v 0.575 2.12505 -1.75
v 1.075 2.02505 -1.708579
v 0.575 1.37505 -2.5
v 1.075 1.333628 -2.4
v 0.575 0.1250498 -2.5
v 1.075 0.1250498 -2.4
v 0.575 -2.12505 -2.5
v 1.075 -2.02505 -2.4
v 0.575 -2.12505 -0.75
v 1.075 -2.02505 -0.75
v 0.575 -2.12505 0.75
v 1.075 -2.02505 0.75
v 0.575 -2.12505 2.5

vt 0.8000002 4.8
vt 1.55 4.8
vt 0.8000002 3.15
vt 1.55 3.15
vt 0.8000002 1.65
vt 1.55 1.65
vt 0.8000002 0
vt 1.55 0
vt 1.55 0.0999999
vt 1.55 2.2501
vt 0.8000002 0.0999999
vt 0.8000002 2.2501
vt 1.55 3.458678
vt 0.8000002 3.458678
vt 1.55 0.7914214
vt 0.8000002 0.7914214
vt 1.55 4.208579
vt 0.8000002 4.208579
vt 0.8000002 4.1501
vt 1.55 4.1501
vt 4.25 4.2501
vt 5 3.5001
vt 4.208579 4.1501
vt 4.9 3.458678
vt 0.75 4.2501
vt 0.7914219 4.1501
vt 4.9 3.458678
vt 5 0
vt 3.25 0
vt 4.9 0.0999999
vt 3.25 0.0999999
vt 0 3.5001
vt 0.0999999 3.458678
vt 4.9 0.0999999
vt 5 2.2501
vt 4.9 2.2501
vt 0 2.2501
vt 0.0999999 2.2501
vt 0 0
vt 0.0999999 0.0999999
vt 1.75 0
vt 1.75 0.0999999
vt 4.9 2.2501
vt 0.1000004 0.0999999
vt 0.1000004 2.2501
vt 0.1000004 3.458678
vt 0.7000002 2.2501
vt 0.7000002 0
vt 2.150001 2.2501
vt 2.150001 3.458678
vt 2.150001 0.0999999
vt 0.8000002 5
vt 0.8000002 3.25
vt 0.7000002 5
vt 0.7000002 3.25
vt 2.150001 3.15
vt 2.150001 4.8
vt 0.8000002 1.75
vt 0.7000002 1.75
vt 2.150001 1.65
vt 2.150001 0
vt 1.65 0
vt 1.65 2.2501
vt 0.1999998 2.2501
vt 0.1999998 0.0999999
vt 1.55 3.5001
vt 1.65 3.5001
vt 0.1999998 3.458678
vt 1.55 4.2501
vt 1.65 4.2501
vt 0.1999998 4.1501
vt 1.55 0.6500001
vt 1.65 0.6500001
vt 1.65 4.15
vt 0.1999998 4.208578
vt 0.1999998 0.7914214
vt 0.8000002 4.2501
vt 0.8000002 3.5001
vt 0.7000002 4.2501
vt 0.7000002 3.5001
vt 2.150001 4.1501
vt 0.6000002 2.2501
vt 0.6000002 0
vt 2.25 2.2501
vt 2.25 3.458678
vt 2.25 0.0999999
vt 0.6000002 5
vt 0.6000002 3.25
vt 2.25 3.15
vt 2.25 4.8
vt 0.6000002 1.75
vt 2.25 1.65
vt 2.25 0
vt 1.75 2.2501
vt 1.75 3.5001
vt 1.75 4.2501
vt 0.1000004 4.1501
vt 1.75 0.6500001
vt 1.75 4.15
vt 0.1000004 4.208578
vt 0.1000004 0.7914214
vt 0.6000002 4.2501
vt 0.6000002 3.5001
vt 2.25 4.1501
vt 2.35 2.2501
vt 2.35 3.458678
vt 2.35 0.0999999
vt 0 5
vt 0 3.25
vt 2.35 3.15
vt 2.35 4.8
vt 0 1.75
vt 2.35 1.65
vt 2.35 0
vt 0 0.0999999
vt 2.35 3.5001
vt 0 3.458678
vt 2.35 4.2501
vt 0 4.1501
vt 2.35 0.6500001
vt 2.35 4.15
vt 0 4.208578
vt 0 0.7914214
vt 0 4.2501
vt 0.8000002 0.6500001
vt 0.7000002 4.15
vt 0.7000002 0.6500001
vt 2.150001 0.7914214
vt 2.150001 4.208578
vt 1.55 1.75
vt 1.65 1.75
vt 0.1999998 1.65
vt 0.1999998 0
vt 1.55 3.25
vt 1.65 3.25
vt 0.1999998 3.15
vt 1.55 5
vt 1.65 5
vt 0.1999998 4.8
vt 0.6000002 4.15
vt 0.6000002 0.6500001
vt 2.25 0.7914214
vt 2.25 4.208578
vt 1.75 1.75
vt 0.1000004 1.65
vt 0.1000004 0
vt 1.75 3.25
vt 0.1000004 3.15
vt 1.75 5
vt 0.1000004 4.8
vt 0 0.6500001
vt 2.35 0.7914214
vt 2.35 4.208578
vt 2.35 1.75
vt 0 1.65
vt 2.35 3.25
vt 0 3.15
vt 2.35 5
vt 0 4.8

vn 0 1 0
vn 0 0 -1
vn 0 0 1
vn 0 -1 0
vn 0 -0.7071066 -0.7071069
vn 0 -0.7071066 0.7071069
vn 1 0 0
vn -1 0 0
vn 0 0.7071067 -0.7071069
vn 0 0.7071067 0.7071069

usemtl MetalPlates006
f 19/17/4 20/18/4 18/16/4 17/15/4
f 6/6/1 5/5/1 7/7/1 8/8/1
f 5/5/1 6/6/1 4/4/1 3/3/1
f 1/1/1 3/3/1 4/4/1 2/2/1
f 23/23/7 24/24/7 22/22/7 21/21/7
f 26/26/7 23/23/7 21/21/7 25/25/7
f 29/26/8 30/23/8 28/21/8 27/25/8
f 30/23/8 32/27/8 31/22/8 28/21/8
f 35/30/7 36/31/7 34/29/7 33/28/7
f 38/33/8 29/26/8 27/25/8 37/32/8
f 41/34/8 42/31/8 40/29/8 39/28/8
f 24/24/7 44/36/7 43/35/7 22/22/7
f 46/38/8 38/33/8 37/32/8 45/37/8
f 44/36/7 35/30/7 33/28/7 43/35/7
f 48/40/8 46/38/8 45/37/8 47/39/8
f 50/42/8 48/40/8 47/39/8 49/41/8
f 52/43/8 41/34/8 39/28/8 51/35/8
f 36/31/7 54/42/7 53/41/7 34/29/7
f 42/31/8 50/42/8 49/41/8 40/29/8
f 54/42/7 56/44/7 55/39/7 53/41/7
f 56/44/7 58/45/7 57/37/7 55/39/7
f 32/27/8 52/43/8 51/35/8 31/22/8
f 58/45/7 60/46/7 59/32/7 57/37/7
f 60/46/7 26/26/7 25/25/7 59/32/7
f 63/47/3 64/48/3 62/7/3 61/12/3
f 65/49/2 66/50/2 15/13/2 9/10/2
f 67/51/2 65/49/2 9/10/2 2/9/2
f 64/54/4 69/55/4 68/53/4 62/52/4
f 70/56/1 67/57/1 2/2/1 4/4/1
f 69/55/4 72/59/4 71/58/4 68/53/4
f 73/60/1 70/56/1 4/4/1 6/6/1
f 72/59/4 75/48/4 74/7/4 71/58/4
f 76/61/1 73/60/1 6/6/1 8/8/1
f 75/62/2 78/63/2 77/10/2 74/8/2
f 79/64/3 76/65/3 8/11/3 11/12/3
f 78/63/2 81/67/2 80/66/2 77/10/2
f 82/68/3 79/64/3 11/12/3 14/14/3
f 81/67/9 84/70/9 83/69/9 80/66/9
f 85/71/6 82/68/6 14/14/6 18/19/6
f 84/73/1 87/74/1 86/20/1 83/72/1
f 88/75/4 85/76/4 18/16/4 20/18/4
f 87/79/10 90/80/10 89/78/10 86/77/10
f 66/50/5 88/81/5 20/20/5 15/13/5
f 90/80/3 63/47/3 61/12/3 89/78/3
f 91/82/3 92/83/3 64/48/3 63/47/3
f 92/87/4 96/88/4 69/55/4 64/54/4
f 97/89/1 95/90/1 67/57/1 70/56/1
f 96/88/4 98/91/4 72/59/4 69/55/4
f 99/92/1 97/89/1 70/56/1 73/60/1
f 98/91/4 100/83/4 75/48/4 72/59/4
f 101/93/1 99/92/1 73/60/1 76/61/1
f 100/41/2 102/94/2 78/63/2 75/62/2
f 102/94/2 104/95/2 81/67/2 78/63/2
f 104/95/9 106/96/9 84/70/9 81/67/9
f 106/98/1 108/99/1 87/74/1 84/73/1
f 109/100/4 107/101/4 85/76/4 88/75/4
f 108/102/10 110/103/10 90/80/10 87/79/10
f 110/103/3 91/82/3 63/47/3 90/80/3
f 51/37/3 39/39/3 92/83/3 91/82/3
f 52/105/2 32/106/2 94/85/2 93/84/2
f 41/107/2 52/105/2 93/84/2 95/86/2
f 39/108/4 40/109/4 96/88/4 92/87/4
f 42/110/1 41/111/1 95/90/1 97/89/1
f 40/109/4 49/112/4 98/91/4 96/88/4
f 50/113/1 42/110/1 97/89/1 99/92/1
f 49/112/4 47/39/4 100/83/4 98/91/4
f 48/114/1 50/113/1 99/92/1 101/93/1
f 47/114/2 45/105/2 102/94/2 100/41/2
f 46/37/3 48/115/3 101/44/3 103/45/3
f 45/105/2 37/116/2 104/95/2 102/94/2
f 38/117/3 46/37/3 103/45/3 105/46/3
f 37/116/9 27/118/9 106/96/9 104/95/9
f 29/119/6 38/117/6 105/46/6 107/97/6
f 27/120/1 28/121/1 108/99/1 106/98/1
f 30/122/4 29/123/4 107/101/4 109/100/4
f 28/124/10 31/32/10 110/103/10 108/102/10
f 32/106/5 30/121/5 109/104/5 94/85/5
f 31/32/3 51/37/3 91/82/3 110/103/3
f 113/63/3 114/67/3 112/66/3 111/10/3
f 115/64/2 116/65/2 1/11/2 12/12/2
f 117/68/2 115/64/2 12/12/2 16/14/2
f 114/67/10 119/70/10 118/69/10 112/66/10
f 120/71/5 117/68/5 16/14/5 19/19/5
f 119/126/1 122/127/1 121/125/1 118/19/1
f 123/128/4 120/129/4 19/17/4 17/15/4
f 122/79/9 125/80/9 124/78/9 121/77/9
f 126/50/6 123/81/6 17/20/6 13/13/6
f 125/80/2 128/47/2 127/12/2 124/78/2
f 129/49/3 126/50/3 13/13/3 10/10/3
f 128/47/2 131/48/2 130/7/2 127/12/2
f 132/51/3 129/49/3 10/10/3 7/9/3
f 131/62/4 134/131/4 133/130/4 130/8/4
f 135/132/1 132/133/1 7/7/1 5/5/1
f 134/131/4 137/135/4 136/134/4 133/130/4
f 138/136/1 135/132/1 5/5/1 3/3/1
f 137/135/4 140/138/4 139/137/4 136/134/4
f 116/139/1 138/136/1 3/3/1 1/1/1
f 140/62/3 113/63/3 111/10/3 139/8/3
f 141/94/3 142/95/3 114/67/3 113/63/3
f 142/95/10 146/96/10 119/70/10 114/67/10
f 146/140/1 148/141/1 122/127/1 119/126/1
f 149/142/4 147/143/4 120/129/4 123/128/4
f 148/102/9 150/103/9 125/80/9 122/79/9
f 150/103/2 152/82/2 128/47/2 125/80/2
f 152/82/2 154/83/2 131/48/2 128/47/2
f 154/41/4 156/144/4 134/131/4 131/62/4
f 157/145/1 155/146/1 132/133/1 135/132/1
f 156/144/4 158/147/4 137/135/4 134/131/4
f 159/148/1 157/145/1 135/132/1 138/136/1
f 158/147/4 160/149/4 140/138/4 137/135/4
f 144/150/1 159/148/1 138/136/1 116/139/1
f 160/41/3 141/94/3 113/63/3 140/62/3
f 57/105/3 59/116/3 142/95/3 141/94/3
f 58/37/2 56/115/2 144/44/2 143/45/2
f 60/117/2 58/37/2 143/45/2 145/46/2
f 59/116/10 25/118/10 146/96/10 142/95/10
f 26/119/5 60/117/5 145/46/5 147/97/5
f 25/119/1 21/151/1 148/141/1 146/140/1
f 23/152/4 26/153/4 147/143/4 149/142/4
f 21/124/9 22/32/9 150/103/9 148/102/9
f 24/106/6 23/121/6 149/104/6 151/85/6
f 22/32/2 43/37/2 152/82/2 150/103/2
f 44/105/3 24/106/3 151/85/3 153/84/3
f 43/37/2 33/39/2 154/83/2 152/82/2
f 35/107/3 44/105/3 153/84/3 155/86/3
f 33/114/4 34/154/4 156/144/4 154/41/4
f 36/155/1 35/39/1 155/146/1 157/145/1
f 34/154/4 53/156/4 158/147/4 156/144/4
f 54/157/1 36/155/1 157/145/1 159/148/1
f 53/156/4 55/158/4 160/149/4 158/147/4
f 56/159/1 54/157/1 159/148/1 144/150/1
f 55/114/3 57/105/3 141/94/3 160/41/3

usemtl Tesla-Gate
f 9/10/2 12/12/2 1/11/2 2/9/2
f 15/13/2 16/14/2 12/12/2 9/10/2
f 13/13/3 14/14/3 11/12/3 10/10/3
f 10/10/3 11/12/3 8/11/3 7/9/3
f 20/20/5 19/19/5 16/14/5 15/13/5
f 17/20/6 18/19/6 14/14/6 13/13/6

usemtl Light-00_5
f 93/84/2 94/85/2 66/50/2 65/49/2
f 95/86/2 93/84/2 65/49/2 67/51/2
f 103/45/3 101/44/3 76/65/3 79/64/3
f 105/46/3 103/45/3 79/64/3 82/68/3
f 107/97/6 105/46/6 82/68/6 85/71/6
f 94/85/5 109/104/5 88/81/5 66/50/5
f 143/45/2 144/44/2 116/65/2 115/64/2
f 145/46/2 143/45/2 115/64/2 117/68/2
f 147/97/5 145/46/5 117/68/5 120/71/5
f 151/85/6 149/104/6 123/81/6 126/50/6
f 153/84/3 151/85/3 126/50/3 129/49/3
f 155/86/3 153/84/3 129/49/3 132/51/3

