# ProBuilder 5.0.4
# https://unity3d.com/unity/features/worldbuilding/probuilder
# 6/20/2022 10:47:22 PM

mtllib ./SecurityCam-Type-0.mtl
o SecurityCam-Type-0

g SecurityCam-Type-0
v -0.2199998 -0.02000046 0
v -0.2199998 0.02999878 0
v -0.2067323 -0.02000046 0.0752449
v -0.2067323 0.02999878 0.0752449
v -0.16853 -0.02000046 0.1414127
v -0.16853 0.02999878 0.1414127
v -0.1100001 -0.02000046 0.1905251
v -0.1100001 0.02999878 0.1905251
v -0.03820276 -0.02000046 0.2166576
v -0.03820276 0.02999878 0.2166576
v 0.03820276 -0.02000046 0.2166576
v 0.03820276 0.02999878 0.2166576
v 0.1100001 -0.02000046 0.1905251
v 0.1100001 0.02999878 0.1905251
v 0.16853 -0.02000046 0.1414127
v 0.16853 0.02999878 0.1414127
v 0.2067323 -0.02000046 0.0752449
v 0.2067323 0.02999878 0.0752449
v 0.2199998 -0.02000046 0
v 0.2199998 0.02999878 0
v 0.2067323 -0.02000046 -0.0752449
v 0.2067323 0.02999878 -0.0752449
v 0.16853 -0.02000046 -0.1414127
v 0.16853 0.02999878 -0.1414127
v 0.1100001 -0.02000046 -0.1905251
v 0.1100001 0.02999878 -0.1905251
v 0.03820276 -0.02000046 -0.2166576
v 0.03820276 0.02999878 -0.2166576
v -0.03820276 -0.02000046 -0.2166576
v -0.03820276 0.02999878 -0.2166576
v -0.1100001 -0.02000046 -0.1905251
v -0.1100001 0.02999878 -0.1905251
v -0.16853 -0.02000046 -0.1414127
v -0.16853 0.02999878 -0.1414127
v -0.2067323 -0.02000046 -0.0752449
v -0.2067323 0.02999878 -0.0752449
v -0.05000019 -0.02000046 0
v 0 -0.02000046 0
v -0.04698467 -0.02000046 0.01710129
v -0.05309391 0.1599998 0
v 0 0.1700001 0
v -0.04989147 0.1599998 0.01815987
v -0.03830242 -0.02000046 0.03213882
v -0.0406723 0.1599998 0.03412819
v -0.0250001 -0.02000046 0.04330063
v -0.02654696 0.1599998 0.04598045
v -0.008682251 -0.02000046 0.04924011
v -0.009219646 0.1599998 0.05228615
v 0.008682251 -0.02000046 0.04924011
v 0.009219646 0.1599998 0.05228615
v 0.0250001 -0.02000046 0.04330063
v 0.02654696 0.1599998 0.04598045
v 0.03830242 -0.02000046 0.03213882
v 0.0406723 0.1599998 0.03412819
v 0.04698467 -0.02000046 0.01710129
v 0.04989147 0.1599998 0.01815987
v 0.05000019 -0.02000046 0
v 0.05309391 0.1599998 0
v 0.04698467 -0.02000046 -0.01710129
v 0.04989147 0.1599998 -0.01815987
v 0.03830242 -0.02000046 -0.03213882
v 0.0406723 0.1599998 -0.03412819
v 0.0250001 -0.02000046 -0.04330063
v 0.02654696 0.1599998 -0.04598045
v 0.008682251 -0.02000046 -0.04924011
v 0.009219646 0.1599998 -0.05228615
v -0.008682251 -0.02000046 -0.04924011
v -0.009219646 0.1599998 -0.05228615
v -0.0250001 -0.02000046 -0.04330063
v -0.02654696 0.1599998 -0.04598045
v -0.03830242 -0.02000046 -0.03213882
v -0.0406723 0.1599998 -0.03412819
v -0.04698467 -0.02000046 -0.01710129
v -0.04989147 0.1599998 -0.01815987
v -0.07660437 -0.02000046 0.06427956
v -0.09396935 -0.02000046 0.03420258
v -0.09978342 0.1399994 0.03631783
v -0.08134413 0.1399994 0.06825638
v -0.05000019 -0.02000046 0.08660316
v -0.05309391 0.1399994 0.09196091
v -0.0999999 -0.02000046 0
v -0.1061869 0.1399994 0
v -0.09396935 -0.02000046 -0.03420258
v -0.09978342 0.1399994 -0.03631783
v -0.07660437 -0.02000046 -0.06427956
v -0.08134413 0.1399994 -0.06825638
v -0.05000019 -0.02000046 -0.08660316
v -0.05309391 0.1399994 -0.09196091
v -0.01736498 -0.02000046 -0.09848022
v -0.01843929 0.1399994 -0.1045742
v 0.01736498 -0.02000046 -0.09848022
v 0.01843929 0.1399994 -0.1045742
v 0.05000019 -0.02000046 -0.08660316
v 0.05309391 0.1399994 -0.09196091
v 0.07660437 -0.02000046 -0.06427956
v 0.08134413 0.1399994 -0.06825638
v 0.09396935 -0.02000046 -0.03420258
v 0.09978342 0.1399994 -0.03631783
v 0.0999999 -0.02000046 0
v 0.1061869 0.1399994 0
v 0.09396935 -0.02000046 0.03420258
v 0.09978342 0.1399994 0.03631783
v 0.07660437 -0.02000046 0.06427956
v 0.08134413 0.1399994 0.06825638
v 0.05000019 -0.02000046 0.08660316
v 0.05309391 0.1399994 0.09196091
v 0.01736498 -0.02000046 0.09848022
v 0.01843929 0.1399994 0.1045742
v -0.01736498 -0.02000046 0.09848022
v -0.01843929 0.1399994 0.1045742
v -0.1149068 -0.02000046 0.09641838
v -0.140954 -0.02000046 0.05130386
v -0.1562896 0.08999825 0.05688477
v -0.127409 0.08999825 0.1069088
v -0.07499981 -0.02000046 0.1299038
v -0.08315992 0.08999825 0.1440372
v -0.1500001 -0.02000046 0
v -0.1663203 0.08999825 0
v -0.140954 -0.02000046 -0.05130386
v -0.1562896 0.08999825 -0.05688477
v -0.1149068 -0.02000046 -0.09641838
v -0.127409 0.08999825 -0.1069088
v -0.07499981 -0.02000046 -0.1299038
v -0.08315992 0.08999825 -0.1440372
v -0.02604723 -0.02000046 -0.1477203
v -0.02888155 0.08999825 -0.1637936
v 0.02604723 -0.02000046 -0.1477203
v 0.02888107 0.08999825 -0.1637936
v 0.07499981 -0.02000046 -0.1299038
v 0.08315992 0.08999825 -0.1440372
v 0.1149068 -0.02000046 -0.09641838
v 0.127409 0.08999825 -0.1069088
v 0.140954 -0.02000046 -0.05130386
v 0.1562896 0.08999825 -0.05688477
v 0.1500001 -0.02000046 0
v 0.1663198 0.08999825 0
v 0.140954 -0.02000046 0.05130386
v 0.1562896 0.08999825 0.05688477
v 0.1149068 -0.02000046 0.09641838
v 0.127409 0.08999825 0.1069088
v 0.07499981 -0.02000046 0.1299038
v 0.08315992 0.08999825 0.1440372
v 0.02604723 -0.02000046 0.1477203
v 0.02888107 0.08999825 0.1637936
v -0.02604723 -0.02000046 0.1477203
v -0.02888155 0.08999825 0.1637936
v -0.1532087 -0.02000046 0.1285572
v -0.1879387 -0.02000046 0.06840324
v -0.1879387 0.02999878 0.06840324
v -0.1532087 0.02999878 0.1285572
v -0.0999999 -0.02000046 0.1732044
v -0.0999999 0.02999878 0.1732044
v -0.1999998 -0.02000046 0
v -0.1999998 0.02999878 0
v -0.1879387 -0.02000046 -0.06840324
v -0.1879387 0.02999878 -0.06840324
v -0.1532087 -0.02000046 -0.1285572
v -0.1532087 0.02999878 -0.1285572
v -0.0999999 -0.02000046 -0.1732044
v -0.0999999 0.02999878 -0.1732044
v -0.03472948 -0.02000046 -0.1969624
v -0.03472948 0.02999878 -0.1969624
v 0.03472948 -0.02000046 -0.1969624
v 0.03472948 0.02999878 -0.1969624
v 0.0999999 -0.02000046 -0.1732044
v 0.0999999 0.02999878 -0.1732044
v 0.1532087 -0.02000046 -0.1285572
v 0.1532087 0.02999878 -0.1285572
v 0.1879387 -0.02000046 -0.06840324
v 0.1879387 0.02999878 -0.06840324
v 0.1999998 -0.02000046 0
v 0.1999998 0.02999878 0
v 0.1879387 -0.02000046 0.06840324
v 0.1879387 0.02999878 0.06840324
v 0.1532087 -0.02000046 0.1285572
v 0.1532087 0.02999878 0.1285572
v 0.0999999 -0.02000046 0.1732044
v 0.0999999 0.02999878 0.1732044
v 0.03472948 -0.02000046 0.1969624
v 0.03472948 0.02999878 0.1969624
v -0.03472948 -0.02000046 0.1969624
v -0.03472948 0.02999878 0.1969624

vt -0.03820204 -0.02000046
vt -0.03820204 0.02999878
vt 0.03820361 -0.02000046
vt 0.03820361 0.02999878
vt -0.05000019 0
vt 0 0
vt -0.04698467 0.01710129
vt 0.6327347 0.4924039
vt 0.5 0.4924039
vt 0.6247287 0.5378036
vt -0.03830242 0.03213882
vt 0.6016808 0.5777244
vt -0.0250001 0.04330063
vt 0.5663674 0.6073551
vt -0.008682251 0.04924011
vt 0.5230491 0.6231193
vt 0.008682251 0.04924011
vt 0.4769509 0.6231193
vt 0.0250001 0.04330063
vt 0.4336326 0.6073551
vt 0.03830242 0.03213882
vt 0.3983192 0.5777244
vt 0.04698467 0.01710129
vt 0.3752713 0.5378036
vt 0.05000019 0
vt 0.3672652 0.4924039
vt 0.04698467 -0.01710129
vt 0.3752713 0.4470043
vt 0.03830242 -0.03213882
vt 0.3983192 0.4070835
vt 0.0250001 -0.04330063
vt 0.4336326 0.3774528
vt 0.008682251 -0.04924011
vt 0.4769509 0.3616886
vt -0.008682251 -0.04924011
vt 0.5230491 0.3616886
vt -0.0250001 -0.04330063
vt 0.5663674 0.3774528
vt -0.03830242 -0.03213882
vt 0.6016808 0.4070835
vt -0.04698467 -0.01710129
vt 0.6247287 0.4470043
vt -0.07660437 0.06427956
vt -0.09396935 0.03420258
vt 0.7494585 0.5831985
vt 0.7033603 0.6630449
vt -0.05000019 0.08660316
vt 0.6327347 0.7223062
vt -0.0999999 0
vt 0.7654671 0.4924039
vt -0.09396935 -0.03420258
vt 0.7494585 0.4016094
vt -0.07660437 -0.06427956
vt 0.7033603 0.321763
vt -0.05000019 -0.08660316
vt 0.6327347 0.2625017
vt -0.01736498 -0.09848022
vt 0.5460982 0.2309684
vt 0.01736498 -0.09848022
vt 0.4539018 0.2309684
vt 0.05000019 -0.08660316
vt 0.3672652 0.2625017
vt 0.07660437 -0.06427956
vt 0.2966397 0.321763
vt 0.09396935 -0.03420258
vt 0.2505414 0.4016094
vt 0.0999999 0
vt 0.2345328 0.4924039
vt 0.09396935 0.03420258
vt 0.2505414 0.5831985
vt 0.07660437 0.06427956
vt 0.2966397 0.6630449
vt 0.05000019 0.08660316
vt 0.3672652 0.7223062
vt 0.01736498 0.09848022
vt 0.4539018 0.7538394
vt -0.01736498 0.09848022
vt 0.5460982 0.7538394
vt -0.1149068 0.09641838
vt -0.140954 0.05130386
vt 0.8741872 0.6285982
vt 0.805041 0.7483653
vt -0.07499981 0.1299038
vt 0.6991009 0.8372573
vt -0.1500001 0
vt 0.8982019 0.4924039
vt -0.140954 -0.05130386
vt 0.8741872 0.3562097
vt -0.1149068 -0.09641838
vt 0.805041 0.2364425
vt -0.07499981 -0.1299038
vt 0.6991009 0.1475505
vt -0.02604723 -0.1477203
vt 0.5691473 0.100253
vt 0.02604723 -0.1477203
vt 0.4308527 0.100253
vt 0.07499981 -0.1299038
vt 0.300899 0.1475505
vt 0.1149068 -0.09641838
vt 0.1949589 0.2364425
vt 0.140954 -0.05130386
vt 0.1258128 0.3562097
vt 0.1500001 0
vt 0.1017981 0.4924039
vt 0.140954 0.05130386
vt 0.1258128 0.6285982
vt 0.1149068 0.09641838
vt 0.1949589 0.7483653
vt 0.07499981 0.1299038
vt 0.300899 0.8372573
vt 0.02604723 0.1477203
vt 0.4308527 0.8845548
vt -0.02604723 0.1477203
vt 0.5691473 0.8845548
vt -0.1532087 0.1285572
vt -0.1879387 0.06840324
vt 0.9698463 0.663414
vt 0.8830222 0.8137977
vt -0.0999999 0.1732044
vt 0.75 0.9254166
vt -0.1999998 0
vt 1 0.4924039
vt -0.1879387 -0.06840324
vt 0.9698462 0.3213938
vt -0.1532087 -0.1285572
vt 0.8830222 0.17101
vt -0.0999999 -0.1732044
vt 0.7499999 0.05939119
vt -0.03472948 -0.1969624
vt 0.5868241 0
vt 0.03472948 -0.1969624
vt 0.4131759 3.72529E-08
vt 0.0999999 -0.1732044
vt 0.25 0.05939122
vt 0.1532087 -0.1285572
vt 0.1169778 0.1710101
vt 0.1879387 -0.06840324
vt 0.03015365 0.3213938
vt 0.1999998 0
vt 0 0.4924039
vt 0.1879387 0.06840324
vt 0.03015365 0.663414
vt 0.1532087 0.1285572
vt 0.1169778 0.8137977
vt 0.0999999 0.1732044
vt 0.25 0.9254166
vt 0.03472948 0.1969624
vt 0.4131759 0.9848077
vt -0.03472948 0.1969624
vt 0.5868241 0.9848077
vt -0.16853 0.1414127
vt -0.2067323 0.0752449
vt 0.2067323 0.0752449
vt 0.16853 0.1414127
vt -0.1100001 0.1905251
vt 0.1100001 0.1905251
vt -0.2199998 0
vt 0.2199998 0
vt -0.2067323 -0.0752449
vt 0.2067323 -0.0752449
vt -0.16853 -0.1414127
vt 0.16853 -0.1414127
vt -0.1100001 -0.1905251
vt 0.1100001 -0.1905251
vt -0.03820276 -0.2166576
vt 0.03820276 -0.2166576
vt 0.03820276 0.2166576
vt -0.03820276 0.2166576

vn -1 0 0
vn -0.9396925 0 0.3420204
vn -0.7660432 0 0.642789
vn -0.5000023 0 0.8660241
vn -0.1736511 0 0.9848072
vn 0.1736511 0 0.9848072
vn 0.5000023 0 0.8660241
vn 0.7660432 0 0.642789
vn 0.9396925 0 0.3420204
vn 1 0 0
vn 0.9396925 0 -0.3420204
vn 0.7660432 0 -0.642789
vn 0.5000023 0 -0.8660241
vn 0.1736511 0 -0.9848072
vn -0.1736511 0 -0.9848072
vn -0.5000023 0 -0.8660241
vn -0.7660432 0 -0.642789
vn -0.9396925 0 -0.3420204
vn 0 -1 0
vn -0.2697713 0.9629244 1.465796E-06
vn -2.528542E-09 1 3.160677E-09
vn -0.2535024 0.9629243 0.09226771
vn -0.2066556 0.9629247 0.1734054
vn -0.1348783 0.9629247 0.233632
vn -0.04684106 0.9629247 0.2656726
vn 0.04683842 0.9629251 0.2656717
vn 0.1348793 0.9629251 0.2336296
vn 0.2066555 0.9629248 0.173405
vn 0.2535012 0.9629245 0.09226862
vn 0.2697713 0.9629244 -1.465796E-06
vn 0.2535024 0.9629243 -0.09226771
vn 0.2066556 0.9629247 -0.1734054
vn 0.1348783 0.9629247 -0.233632
vn 0.04684106 0.9629247 -0.2656726
vn -0.04683842 0.9629251 -0.2656717
vn -0.1348793 0.9629251 -0.2336296
vn -0.2066555 0.9629248 -0.173405
vn -0.2535012 0.9629245 -0.09226862
vn -0.4722818 0.8645245 0.1718929
vn -0.3850071 0.8645248 0.3230577
vn -0.2512923 0.8645244 0.4352583
vn -0.5025908 0.8645244 -2.693205E-07
vn -0.4722832 0.8645238 -0.1718928
vn -0.3850071 0.8645246 -0.3230585
vn -0.2512954 0.864524 -0.4352573
vn -0.08727171 0.864526 -0.4949529
vn 0.08727437 0.864526 -0.4949525
vn 0.2512923 0.8645244 -0.4352583
vn 0.3850071 0.8645248 -0.3230577
vn 0.4722825 0.8645243 -0.1718924
vn 0.5025921 0.8645236 -4.646728E-07
vn 0.4722832 0.8645238 0.1718928
vn 0.3850071 0.8645246 0.3230585
vn 0.2512953 0.8645239 0.4352575
vn 0.08727181 0.8645259 0.4949532
vn -0.08727454 0.8645261 0.4949523
vn -0.7218467 0.6402434 0.2627277
vn -0.5884544 0.6402417 0.4937733
vn -0.3840868 0.6402404 0.665259
vn -0.7681712 0.6402445 -7.263046E-08
vn -0.721846 0.6402436 -0.2627288
vn -0.5884557 0.6402416 -0.4937719
vn -0.3840874 0.6402419 -0.6652572
vn -0.1333944 0.6402466 -0.7564987
vn 0.1333955 0.640246 -0.756499
vn 0.3840862 0.6402404 -0.6652594
vn 0.5884544 0.6402417 -0.4937733
vn 0.7218469 0.6402441 -0.2627254
vn 0.7681709 0.6402448 4.204916E-07
vn 0.7218471 0.6402434 0.2627265
vn 0.5884557 0.6402416 0.4937719
vn 0.3840866 0.6402422 0.6652575
vn 0.1333935 0.6402468 0.7564987
vn -0.1333963 0.6402461 0.7564988
vn -0.8194218 0.4894894 0.2982415
vn -0.6679984 0.4894828 0.5605218
vn -0.4360096 0.4894876 0.7551804
vn -0.8720102 0.4894876 2.118217E-06
vn -0.81942 0.4894898 -0.2982458
vn -0.6680009 0.4894834 -0.5605183
vn -0.4360105 0.4894846 -0.7551818
vn -0.151429 0.489494 -0.8587577
vn 0.1514306 0.4894965 -0.8587561
vn 0.436009 0.4894881 -0.7551805
vn 0.6679984 0.4894828 -0.5605218
vn 0.8194218 0.4894894 -0.2982415
vn 0.8720081 0.4894915 -4.598263E-07
vn 0.8194199 0.4894911 0.298244
vn 0.6680009 0.4894834 0.5605183
vn 0.4360105 0.4894846 0.7551818
vn 0.1514283 0.4894945 0.8587576
vn -0.1514308 0.4894956 0.8587565

usemtl Metal011
f 37/5/19 38/6/19 39/7/19
f 39/7/19 38/6/19 43/11/19
f 43/11/19 38/6/19 45/13/19
f 45/13/19 38/6/19 47/15/19
f 47/15/19 38/6/19 49/17/19
f 49/17/19 38/6/19 51/19/19
f 51/19/19 38/6/19 53/21/19
f 53/21/19 38/6/19 55/23/19
f 55/23/19 38/6/19 57/25/19
f 57/25/19 38/6/19 59/27/19
f 59/27/19 38/6/19 61/29/19
f 61/29/19 38/6/19 63/31/19
f 63/31/19 38/6/19 65/33/19
f 65/33/19 38/6/19 67/35/19
f 67/35/19 38/6/19 69/37/19
f 69/37/19 38/6/19 71/39/19
f 71/39/19 38/6/19 73/41/19
f 73/41/19 38/6/19 37/5/19
f 4/4/2 2/2/1 1/1/1
f 1/1/1 3/3/2 4/4/2
f 6/4/3 4/2/2 3/1/2
f 3/1/2 5/3/3 6/4/3
f 8/4/4 6/2/3 5/1/3
f 5/1/3 7/3/4 8/4/4
f 10/4/5 8/2/4 7/1/4
f 7/1/4 9/3/5 10/4/5
f 12/4/6 10/2/5 9/1/5
f 9/1/5 11/3/6 12/4/6
f 14/4/7 12/2/6 11/1/6
f 11/1/6 13/3/7 14/4/7
f 16/4/8 14/2/7 13/1/7
f 13/1/7 15/3/8 16/4/8
f 18/4/9 16/2/8 15/1/8
f 15/1/8 17/3/9 18/4/9
f 20/4/10 18/2/9 17/1/9
f 17/1/9 19/3/10 20/4/10
f 22/4/11 20/2/10 19/1/10
f 19/1/10 21/3/11 22/4/11
f 24/4/12 22/2/11 21/1/11
f 21/1/11 23/3/12 24/4/12
f 26/4/13 24/2/12 23/1/12
f 23/1/12 25/3/13 26/4/13
f 28/4/14 26/2/13 25/1/13
f 25/1/13 27/3/14 28/4/14
f 30/4/15 28/2/14 27/1/14
f 27/1/14 29/3/15 30/4/15
f 32/4/16 30/2/15 29/1/15
f 29/1/15 31/3/16 32/4/16
f 34/4/17 32/2/16 31/1/16
f 31/1/16 33/3/17 34/4/17
f 36/4/18 34/2/17 33/1/17
f 33/1/17 35/3/18 36/4/18
f 2/4/1 36/2/18 35/1/18
f 35/1/18 1/3/1 2/4/1
f 76/44/19 39/7/19 43/11/19
f 43/11/19 75/43/19 76/44/19
f 75/43/19 43/11/19 45/13/19
f 45/13/19 79/47/19 75/43/19
f 81/49/19 37/5/19 39/7/19
f 39/7/19 76/44/19 81/49/19
f 83/51/19 73/41/19 37/5/19
f 37/5/19 81/49/19 83/51/19
f 85/53/19 71/39/19 73/41/19
f 73/41/19 83/51/19 85/53/19
f 87/55/19 69/37/19 71/39/19
f 71/39/19 85/53/19 87/55/19
f 89/57/19 67/35/19 69/37/19
f 69/37/19 87/55/19 89/57/19
f 91/59/19 65/33/19 67/35/19
f 67/35/19 89/57/19 91/59/19
f 93/61/19 63/31/19 65/33/19
f 65/33/19 91/59/19 93/61/19
f 95/63/19 61/29/19 63/31/19
f 63/31/19 93/61/19 95/63/19
f 97/65/19 59/27/19 61/29/19
f 61/29/19 95/63/19 97/65/19
f 99/67/19 57/25/19 59/27/19
f 59/27/19 97/65/19 99/67/19
f 101/69/19 55/23/19 57/25/19
f 57/25/19 99/67/19 101/69/19
f 103/71/19 53/21/19 55/23/19
f 55/23/19 101/69/19 103/71/19
f 105/73/19 51/19/19 53/21/19
f 53/21/19 103/71/19 105/73/19
f 107/75/19 49/17/19 51/19/19
f 51/19/19 105/73/19 107/75/19
f 109/77/19 47/15/19 49/17/19
f 49/17/19 107/75/19 109/77/19
f 79/47/19 45/13/19 47/15/19
f 47/15/19 109/77/19 79/47/19
f 112/80/19 76/44/19 75/43/19
f 75/43/19 111/79/19 112/80/19
f 111/79/19 75/43/19 79/47/19
f 79/47/19 115/83/19 111/79/19
f 117/85/19 81/49/19 76/44/19
f 76/44/19 112/80/19 117/85/19
f 119/87/19 83/51/19 81/49/19
f 81/49/19 117/85/19 119/87/19
f 121/89/19 85/53/19 83/51/19
f 83/51/19 119/87/19 121/89/19
f 123/91/19 87/55/19 85/53/19
f 85/53/19 121/89/19 123/91/19
f 125/93/19 89/57/19 87/55/19
f 87/55/19 123/91/19 125/93/19
f 127/95/19 91/59/19 89/57/19
f 89/57/19 125/93/19 127/95/19
f 129/97/19 93/61/19 91/59/19
f 91/59/19 127/95/19 129/97/19
f 131/99/19 95/63/19 93/61/19
f 93/61/19 129/97/19 131/99/19
f 133/101/19 97/65/19 95/63/19
f 95/63/19 131/99/19 133/101/19
f 135/103/19 99/67/19 97/65/19
f 97/65/19 133/101/19 135/103/19
f 137/105/19 101/69/19 99/67/19
f 99/67/19 135/103/19 137/105/19
f 139/107/19 103/71/19 101/69/19
f 101/69/19 137/105/19 139/107/19
f 141/109/19 105/73/19 103/71/19
f 103/71/19 139/107/19 141/109/19
f 143/111/19 107/75/19 105/73/19
f 105/73/19 141/109/19 143/111/19
f 145/113/19 109/77/19 107/75/19
f 107/75/19 143/111/19 145/113/19
f 115/83/19 79/47/19 109/77/19
f 109/77/19 145/113/19 115/83/19
f 148/116/19 112/80/19 111/79/19
f 111/79/19 147/115/19 148/116/19
f 147/115/19 111/79/19 115/83/19
f 115/83/19 151/119/19 147/115/19
f 153/121/19 117/85/19 112/80/19
f 112/80/19 148/116/19 153/121/19
f 155/123/19 119/87/19 117/85/19
f 117/85/19 153/121/19 155/123/19
f 157/125/19 121/89/19 119/87/19
f 119/87/19 155/123/19 157/125/19
f 159/127/19 123/91/19 121/89/19
f 121/89/19 157/125/19 159/127/19
f 161/129/19 125/93/19 123/91/19
f 123/91/19 159/127/19 161/129/19
f 163/131/19 127/95/19 125/93/19
f 125/93/19 161/129/19 163/131/19
f 165/133/19 129/97/19 127/95/19
f 127/95/19 163/131/19 165/133/19
f 167/135/19 131/99/19 129/97/19
f 129/97/19 165/133/19 167/135/19
f 169/137/19 133/101/19 131/99/19
f 131/99/19 167/135/19 169/137/19
f 171/139/19 135/103/19 133/101/19
f 133/101/19 169/137/19 171/139/19
f 173/141/19 137/105/19 135/103/19
f 135/103/19 171/139/19 173/141/19
f 175/143/19 139/107/19 137/105/19
f 137/105/19 173/141/19 175/143/19
f 177/145/19 141/109/19 139/107/19
f 139/107/19 175/143/19 177/145/19
f 179/147/19 143/111/19 141/109/19
f 141/109/19 177/145/19 179/147/19
f 181/149/19 145/113/19 143/111/19
f 143/111/19 179/147/19 181/149/19
f 151/119/19 115/83/19 145/113/19
f 145/113/19 181/149/19 151/119/19
f 3/152/19 148/116/19 147/115/19
f 147/115/19 5/151/19 3/152/19
f 6/154/21 150/143/21 149/141/21
f 149/141/21 4/153/21 6/154/21
f 5/151/19 147/115/19 151/119/19
f 151/119/19 7/155/19 5/151/19
f 8/156/21 152/145/21 150/143/21
f 150/143/21 6/154/21 8/156/21
f 1/157/19 153/121/19 148/116/19
f 148/116/19 3/152/19 1/157/19
f 4/153/21 149/141/21 154/139/21
f 154/139/21 2/158/21 4/153/21
f 35/159/19 155/123/19 153/121/19
f 153/121/19 1/157/19 35/159/19
f 2/158/21 154/139/21 156/137/21
f 156/137/21 36/160/21 2/158/21
f 33/161/19 157/125/19 155/123/19
f 155/123/19 35/159/19 33/161/19
f 36/160/21 156/137/21 158/135/21
f 158/135/21 34/162/21 36/160/21
f 31/163/19 159/127/19 157/125/19
f 157/125/19 33/161/19 31/163/19
f 34/162/21 158/135/21 160/133/21
f 160/133/21 32/164/21 34/162/21
f 29/165/19 161/129/19 159/127/19
f 159/127/19 31/163/19 29/165/19
f 32/164/21 160/133/21 162/131/21
f 162/131/21 30/166/21 32/164/21
f 27/166/19 163/131/19 161/129/19
f 161/129/19 29/165/19 27/166/19
f 30/166/21 162/131/21 164/129/21
f 164/129/21 28/165/21 30/166/21
f 25/164/19 165/133/19 163/131/19
f 163/131/19 27/166/19 25/164/19
f 28/165/21 164/129/21 166/127/21
f 166/127/21 26/163/21 28/165/21
f 23/162/19 167/135/19 165/133/19
f 165/133/19 25/164/19 23/162/19
f 26/163/21 166/127/21 168/125/21
f 168/125/21 24/161/21 26/163/21
f 21/160/19 169/137/19 167/135/19
f 167/135/19 23/162/19 21/160/19
f 24/161/21 168/125/21 170/123/21
f 170/123/21 22/159/21 24/161/21
f 19/158/19 171/139/19 169/137/19
f 169/137/19 21/160/19 19/158/19
f 22/159/21 170/123/21 172/121/21
f 172/121/21 20/157/21 22/159/21
f 17/153/19 173/141/19 171/139/19
f 171/139/19 19/158/19 17/153/19
f 20/157/21 172/121/21 174/116/21
f 174/116/21 18/152/21 20/157/21
f 15/154/19 175/143/19 173/141/19
f 173/141/19 17/153/19 15/154/19
f 18/152/21 174/116/21 176/115/21
f 176/115/21 16/151/21 18/152/21
f 13/156/19 177/145/19 175/143/19
f 175/143/19 15/154/19 13/156/19
f 16/151/21 176/115/21 178/119/21
f 178/119/21 14/155/21 16/151/21
f 11/167/19 179/147/19 177/145/19
f 177/145/19 13/156/19 11/167/19
f 14/155/21 178/119/21 180/149/21
f 180/149/21 12/168/21 14/155/21
f 9/168/19 181/149/19 179/147/19
f 179/147/19 11/167/19 9/168/19
f 12/168/21 180/149/21 182/147/21
f 182/147/21 10/167/21 12/168/21
f 7/155/19 151/119/19 181/149/19
f 181/149/19 9/168/19 7/155/19
f 10/167/21 182/147/21 152/145/21
f 152/145/21 8/156/21 10/167/21

usemtl Metal008-Visr
f 42/10/22 41/9/21 40/8/20
f 44/12/23 41/9/21 42/10/22
f 46/14/24 41/9/21 44/12/23
f 48/16/25 41/9/21 46/14/24
f 50/18/26 41/9/21 48/16/25
f 52/20/27 41/9/21 50/18/26
f 54/22/28 41/9/21 52/20/27
f 56/24/29 41/9/21 54/22/28
f 58/26/30 41/9/21 56/24/29
f 60/28/31 41/9/21 58/26/30
f 62/30/32 41/9/21 60/28/31
f 64/32/33 41/9/21 62/30/32
f 66/34/34 41/9/21 64/32/33
f 68/36/35 41/9/21 66/34/34
f 70/38/36 41/9/21 68/36/35
f 72/40/37 41/9/21 70/38/36
f 74/42/38 41/9/21 72/40/37
f 40/8/20 41/9/21 74/42/38
f 78/46/40 44/12/23 42/10/22
f 42/10/22 77/45/39 78/46/40
f 80/48/41 46/14/24 44/12/23
f 44/12/23 78/46/40 80/48/41
f 77/45/39 42/10/22 40/8/20
f 40/8/20 82/50/42 77/45/39
f 82/50/42 40/8/20 74/42/38
f 74/42/38 84/52/43 82/50/42
f 84/52/43 74/42/38 72/40/37
f 72/40/37 86/54/44 84/52/43
f 86/54/44 72/40/37 70/38/36
f 70/38/36 88/56/45 86/54/44
f 88/56/45 70/38/36 68/36/35
f 68/36/35 90/58/46 88/56/45
f 90/58/46 68/36/35 66/34/34
f 66/34/34 92/60/47 90/58/46
f 92/60/47 66/34/34 64/32/33
f 64/32/33 94/62/48 92/60/47
f 94/62/48 64/32/33 62/30/32
f 62/30/32 96/64/49 94/62/48
f 96/64/49 62/30/32 60/28/31
f 60/28/31 98/66/50 96/64/49
f 98/66/50 60/28/31 58/26/30
f 58/26/30 100/68/51 98/66/50
f 100/68/51 58/26/30 56/24/29
f 56/24/29 102/70/52 100/68/51
f 102/70/52 56/24/29 54/22/28
f 54/22/28 104/72/53 102/70/52
f 104/72/53 54/22/28 52/20/27
f 52/20/27 106/74/54 104/72/53
f 106/74/54 52/20/27 50/18/26
f 50/18/26 108/76/55 106/74/54
f 108/76/55 50/18/26 48/16/25
f 48/16/25 110/78/56 108/76/55
f 110/78/56 48/16/25 46/14/24
f 46/14/24 80/48/41 110/78/56
f 114/82/58 78/46/40 77/45/39
f 77/45/39 113/81/57 114/82/58
f 116/84/59 80/48/41 78/46/40
f 78/46/40 114/82/58 116/84/59
f 113/81/57 77/45/39 82/50/42
f 82/50/42 118/86/60 113/81/57
f 118/86/60 82/50/42 84/52/43
f 84/52/43 120/88/61 118/86/60
f 120/88/61 84/52/43 86/54/44
f 86/54/44 122/90/62 120/88/61
f 122/90/62 86/54/44 88/56/45
f 88/56/45 124/92/63 122/90/62
f 124/92/63 88/56/45 90/58/46
f 90/58/46 126/94/64 124/92/63
f 126/94/64 90/58/46 92/60/47
f 92/60/47 128/96/65 126/94/64
f 128/96/65 92/60/47 94/62/48
f 94/62/48 130/98/66 128/96/65
f 130/98/66 94/62/48 96/64/49
f 96/64/49 132/100/67 130/98/66
f 132/100/67 96/64/49 98/66/50
f 98/66/50 134/102/68 132/100/67
f 134/102/68 98/66/50 100/68/51
f 100/68/51 136/104/69 134/102/68
f 136/104/69 100/68/51 102/70/52
f 102/70/52 138/106/70 136/104/69
f 138/106/70 102/70/52 104/72/53
f 104/72/53 140/108/71 138/106/70
f 140/108/71 104/72/53 106/74/54
f 106/74/54 142/110/72 140/108/71
f 142/110/72 106/74/54 108/76/55
f 108/76/55 144/112/73 142/110/72
f 144/112/73 108/76/55 110/78/56
f 110/78/56 146/114/74 144/112/73
f 146/114/74 110/78/56 80/48/41
f 80/48/41 116/84/59 146/114/74
f 150/118/76 114/82/58 113/81/57
f 113/81/57 149/117/75 150/118/76
f 152/120/77 116/84/59 114/82/58
f 114/82/58 150/118/76 152/120/77
f 149/117/75 113/81/57 118/86/60
f 118/86/60 154/122/78 149/117/75
f 154/122/78 118/86/60 120/88/61
f 120/88/61 156/124/79 154/122/78
f 156/124/79 120/88/61 122/90/62
f 122/90/62 158/126/80 156/124/79
f 158/126/80 122/90/62 124/92/63
f 124/92/63 160/128/81 158/126/80
f 160/128/81 124/92/63 126/94/64
f 126/94/64 162/130/82 160/128/81
f 162/130/82 126/94/64 128/96/65
f 128/96/65 164/132/83 162/130/82
f 164/132/83 128/96/65 130/98/66
f 130/98/66 166/134/84 164/132/83
f 166/134/84 130/98/66 132/100/67
f 132/100/67 168/136/85 166/134/84
f 168/136/85 132/100/67 134/102/68
f 134/102/68 170/138/86 168/136/85
f 170/138/86 134/102/68 136/104/69
f 136/104/69 172/140/87 170/138/86
f 172/140/87 136/104/69 138/106/70
f 138/106/70 174/142/88 172/140/87
f 174/142/88 138/106/70 140/108/71
f 140/108/71 176/144/89 174/142/88
f 176/144/89 140/108/71 142/110/72
f 142/110/72 178/146/90 176/144/89
f 178/146/90 142/110/72 144/112/73
f 144/112/73 180/148/91 178/146/90
f 180/148/91 144/112/73 146/114/74
f 146/114/74 182/150/92 180/148/91
f 182/150/92 146/114/74 116/84/59
f 116/84/59 152/120/77 182/150/92

