# ProBuilder 5.0.4
# https://unity3d.com/unity/features/worldbuilding/probuilder
# 5/17/2022 11:54:06 PM

mtllib ./Watch-Body.mtl
o Watch-Body

g Watch-Body
v 0.5 -0.05 0.75
v -0.5 -0.05 0.75
v 0.5 0.05 0.75
v -0.5 0.05 0.75
v -0.5707107 -0.1207107 0.5
v -0.5707107 -0.1207107 -0.5
v -0.6 0.05 0.5
v -0.6 0.05 -0.5
v -0.5 -0.05 -0.75
v 0.5 -0.05 -0.75
v -0.5 0.05 -0.75
v 0.5 0.05 -0.75
v 0.5707107 -0.1207107 -0.5
v 0.5707107 -0.1207107 0.5
v 0.6 0.05 -0.5
v 0.6 0.05 0.5
v 0.5 0.05 0.5
v -0.5 0.05 0.5
v 0.5 0.05 -0.5
v -0.5 0.05 -0.5
v 0.5 -0.05 -0.6
v -0.5 -0.05 -0.6
v 0.5707107 -0.1207107 -0.6
v -0.5707107 -0.1207107 -0.6
v 0.5 0.05 -0.6
v 0.6 0.05 -0.6
v -0.5 0.05 0.6
v -0.5 -0.05 0.6
v -0.6 0.05 0.6
v -0.5707107 -0.1207107 0.6
v 0.5 -0.05 0.6
v 0.5707107 -0.1207107 0.6
v -0.5 0.05 -0.6
v -0.6 0.05 -0.6
v -0.5 0.15 -0.5
v -0.5 0.15 0.5
v -0.6 0.15 -0.5
v -0.6 0.15 0.5
v 0.5 0.05 0.6
v 0.6 0.05 0.6
v 0.5 0.15 0.5
v 0.5 0.15 -0.5
v 0.6 0.15 0.5
v 0.6 0.15 -0.5
v 0.5 0.15 0.6
v -0.5 0.15 0.6
v 0.6 0.15 0.6
v -0.6 0.15 -0.6
v -0.5 0.15 -0.6
v 0.5 0.15 -0.6
v -0.6 0.15 0.6
v 0.6 0.15 -0.6
v 0.5 -0.05 0.5
v -0.5 -0.05 0.5
v -0.4402369 -0.1207107 -0.5
v 0.4402368 -0.1207107 -0.5
v 0.4402368 -0.1207107 0.5
v -0.4402368 -0.1207107 0.5

vt 0.2903447 0.03302234
vt 0.04034466 0.03302234
vt 0.2903447 0.05802232
vt 0.04034466 0.05802232
vt 0.375 0.8409725
vt 0.125 0.8409725
vt 0.375 0.8841177
vt 0.125 0.8841177
vt 0.3749999 0.8409725
vt 0.3749999 0.8841177
vt 0 1
vt 1 1
vt 0 0
vt 1 0
vt 0.6249999 0.4838388
vt 0.8750001 0.4838388
vt 0.6073222 0.4661611
vt 0.8926778 0.4661611
vt 0.6249999 0.5088388
vt 0.5999998 0.5088388
vt 0.6250001 0.5088388
vt 0.6250001 0.4838389
vt 0.6000001 0.5088388
vt 0.8749999 0.4838389
vt 0.8750001 0.5088388
vt 0.9000002 0.5088388
vt 0.8749999 0.6250001
vt 0.8749999 0.8749999
vt 0.8999999 0.6250001
vt 0.8999999 0.8749999
vt 0.8749999 0.5088388
vt 0.8999999 0.5088388
vt 0.6250001 0.8749999
vt 0.6250001 0.6250001
vt 0.6000001 0.8749999
vt 0.6000001 0.6250001
vt 0.8749999 0.5338388
vt 0.6250001 0.5338388
vt 0.8999999 0.5338388
vt 0.9000002 0.5338389
vt 0.8750001 0.5338389
vt 0.6249999 0.5338389
vt 0.6000001 0.5338388
vt 0.375 0.9090276
vt 0.125 0.9090276
vt 0.5999998 0.5338389
vt 0.3749999 0.9090276
vt 0.03302234 0.07784468
vt 0.2830223 0.07784468
vt 0.03302234 0.01534468
vt 0.2830223 0.01534468
vt 0.04034466 0.07784468
vt 0.2903447 0.07784468
vt 0.04034466 0.01534468
vt 0.2903447 0.01534468
vt 0.2830223 0.3278447
vt 0.03302234 0.3278447
vt 0.2830223 0.3903447
vt 0.03302234 0.3903447
vt 0.07784468 0.05802232
vt 0.07784468 0.03302234
vt 0.01534468 0.05802232
vt 0.01534468 0.03302234
vt 0.3278447 0.03302234
vt 0.3278447 0.05802232
vt 0.3903447 0.03302234
vt 0.3903447 0.05802232
vt 0.2903447 0.3278447
vt 0.04034466 0.3278447
vt 0.2903447 0.3903447
vt 0.04034466 0.3903447
vt 0.2830223 0.3528447
vt 0.03302234 0.3528447
vt 0.6250001 0.8999999
vt 0.6000001 0.8999999
vt 0.4 0.8841177
vt 0.4 0.9090276
vt 0.8749999 0.8999999
vt 0.1000002 0.9090276
vt 0.1000002 0.8841177
vt 0.8999999 0.8999999
vt 0.0528447 0.05802232
vt 0.0528447 0.03302234
vt 0.4 0.8409725
vt 0.2903447 0.3528447
vt 0.04034466 0.3528447
vt 0.3528447 0.03302234
vt 0.3528447 0.05802232
vt 0.1000002 0.8409725
vt 0.09999999 0.8841177
vt 0.09999999 0.8409725
vt 0.09999999 0.9090276
vt 0.8749999 0.6000001
vt 0.8999999 0.6000001
vt 0.3999998 0.8409725
vt 0.3999998 0.8841177
vt 0.6250001 0.6000001
vt 0.3999998 0.9090276
vt 0.6000001 0.6000001
vt 0.04034466 0.08302236
vt 0.2903447 0.08302236
vt 0.07784468 0.08302236
vt 0.3278447 0.08302236
vt 0.1073223 0.5
vt 0.1399408 0.5
vt 0.3600592 0.5
vt 0.3926777 0.5
vt 0.3926777 0.475
vt 0.1073223 0.475
vt 0.3926777 0.75
vt 0.3600592 0.75
vt 0.1399408 0.75
vt 0.1073223 0.75
vt 0.1073223 0.775
vt 0.3926777 0.775
vt 0.825 0.075
vt 0.825 0.175
vt 0.675 0.175
vt 0.675 0.075

vn 0 0 1
vn -0.9855985 -0.1691022 0
vn 0 0 -1
vn 0.9855985 -0.1691022 0
vn 0 1 0
vn -0.7071068 0.7071068 0
vn 0.7071068 0.7071068 0
vn 0 0.7071068 0.7071068
vn 0.7071068 0 0.7071068
vn 0.5773503 0.5773503 0.5773503
vn -0.7071068 0 -0.7071068
vn -0.5773503 0.5773503 -0.5773503
vn 0 0.7071068 -0.7071068
vn -0.7071068 0 0.7071068
vn -0.5773503 0.5773503 0.5773503
vn -1 0 0
vn 0.7071068 0 -0.7071068
vn 0.5773503 0.5773503 -0.5773503
vn 1 0 0
vn 0 -1 0

usemtl WatchBody
f 58/112/20 32/115/20 30/114/20
f 58/112/20 57/111/20 32/115/20
f 57/111/20 14/110/20 32/115/20
f 30/114/20 5/113/20 58/112/20
f 23/108/20 13/107/20 56/106/20
f 23/108/20 56/106/20 24/109/20
f 24/109/20 56/106/20 55/105/20
f 6/104/20 24/109/20 55/105/20
f 4/4/1 2/2/1 1/1/1
f 1/1/1 3/3/1 4/4/1
f 8/8/2 6/6/2 5/5/2
f 5/5/2 7/7/2 8/8/2
f 12/4/3 10/2/3 9/1/3
f 9/1/3 11/3/3 12/4/3
f 16/8/4 14/6/4 13/9/4
f 13/9/4 15/10/4 16/8/4
f 24/18/3 22/16/3 21/15/3
f 21/15/3 23/17/3 24/18/3
f 23/17/3 21/15/3 25/19/3
f 25/19/3 26/20/3 23/17/3
f 30/17/1 28/22/1 27/21/1
f 27/21/1 29/23/1 30/17/1
f 32/18/1 31/24/1 28/22/1
f 28/22/1 30/17/1 32/18/1
f 34/26/3 33/25/3 22/16/3
f 22/16/3 24/18/3 34/26/3
f 38/30/6 36/28/5 35/27/5
f 35/27/5 37/29/6 38/30/6
f 40/32/1 39/31/1 31/24/1
f 31/24/1 32/18/1 40/32/1
f 44/36/7 42/34/5 41/33/5
f 41/33/5 43/35/7 44/36/7
f 46/38/8 27/21/1 39/31/1
f 39/31/1 45/37/8 46/38/8
f 45/37/8 39/31/1 40/32/9
f 40/32/9 47/39/10 45/37/8
f 49/41/13 33/25/3 34/26/11
f 34/26/11 48/40/12 49/41/13
f 50/42/13 25/19/3 33/25/3
f 33/25/3 49/41/13 50/42/13
f 51/43/15 29/23/14 27/21/1
f 27/21/1 46/38/8 51/43/15
f 37/45/6 8/8/16 7/7/16
f 7/7/16 38/44/6 37/45/6
f 52/46/18 26/20/17 25/19/3
f 25/19/3 50/42/13 52/46/18
f 43/45/7 16/8/19 15/10/19
f 15/10/19 44/47/7 43/45/7
f 10/51/20 21/49/20 22/48/20
f 22/48/20 9/50/20 10/51/20
f 11/55/5 33/53/5 25/52/5
f 25/52/5 12/54/5 11/55/5
f 2/59/20 54/57/20 53/56/20
f 53/56/20 1/58/20 2/59/20
f 1/63/19 53/61/19 17/60/19
f 17/60/19 3/62/19 1/63/19
f 4/67/16 18/65/16 54/64/16
f 54/64/16 2/66/16 4/67/16
f 3/71/5 17/69/5 18/68/5
f 18/68/5 4/70/5 3/71/5
f 27/73/20 18/57/20 17/56/20
f 17/56/20 39/72/20 27/73/20
f 47/75/10 43/35/7 41/33/5
f 41/33/5 45/74/8 47/75/10
f 51/77/15 38/44/6 7/7/16
f 7/7/16 29/76/14 51/77/15
f 45/74/8 41/33/5 36/28/5
f 36/28/5 46/78/8 45/74/8
f 40/80/9 16/8/19 43/45/7
f 43/45/7 47/79/10 40/80/9
f 46/78/8 36/28/5 38/30/6
f 38/30/6 51/81/15 46/78/8
f 28/83/19 54/61/19 18/60/19
f 18/60/19 27/82/19 28/83/19
f 29/76/2 7/7/2 5/5/2
f 5/5/2 30/84/2 29/76/2
f 31/86/5 53/69/5 54/68/5
f 54/68/5 28/85/5 31/86/5
f 39/88/16 17/65/16 53/64/16
f 53/64/16 31/87/16 39/88/16
f 32/89/4 14/6/4 16/8/4
f 16/8/4 40/80/4 32/89/4
f 24/91/2 6/6/2 8/8/2
f 8/8/2 34/90/2 24/91/2
f 34/90/11 8/8/16 37/45/6
f 37/45/6 48/92/12 34/90/11
f 48/94/12 37/29/6 35/27/5
f 35/27/5 49/93/13 48/94/12
f 26/96/4 15/10/4 13/9/4
f 13/9/4 23/95/4 26/96/4
f 49/93/13 35/27/5 42/34/5
f 42/34/5 50/97/13 49/93/13
f 52/98/18 44/47/7 15/10/19
f 15/10/19 26/96/17 52/98/18
f 50/97/13 42/34/5 44/36/7
f 44/36/7 52/99/18 50/97/13
f 18/3/3 36/101/3 41/100/3
f 41/100/3 17/4/3 18/3/3
f 17/65/16 41/103/16 42/102/16
f 42/102/16 19/60/16 17/65/16
f 20/65/19 35/103/19 36/102/19
f 36/102/19 18/60/19 20/65/19
f 19/3/1 42/101/1 35/100/1
f 35/100/1 20/4/1 19/3/1
f 13/107/20 14/110/20 57/111/20
f 57/111/20 56/106/20 13/107/20
f 55/105/20 56/106/20 57/111/20
f 57/111/20 58/112/20 55/105/20
f 6/104/20 55/105/20 58/112/20
f 58/112/20 5/113/20 6/104/20
f 12/117/19 25/118/19 21/119/19
f 21/119/19 10/116/19 12/117/19
f 11/118/16 9/119/16 22/116/16
f 22/116/16 33/117/16 11/118/16

usemtl Glass-02
f 42/13/5 35/14/5 36/12/5 41/11/5

usemtl Watch-Default
f 19/13/5 20/14/5 18/12/5 17/11/5

